// Created by CrowbarDecompiler 0.71
version 1
nodes
  0 "Kukri" -1
  1 "Dummy002" -1
  2 "ValveBiped.Bip01_L_UpperArm" 1
  3 "ValveBiped.Bip01_L_Forearm" 2
  4 "ValveBiped.Bip01_L_Hand" 3
  5 "ValveBiped.Bip01_L_Finger4" 4
  6 "ValveBiped.Bip01_L_Finger41" 5
  7 "ValveBiped.Bip01_L_Finger42" 6
  8 "v_weapon.Bip01_L_Finger42" 7
  9 "v_weapon.Bip01_L_Finger41" 6
  10 "v_weapon.Bip01_L_Finger4" 5
  11 "ValveBiped.Bip01_L_Finger3" 4
  12 "ValveBiped.Bip01_L_Finger31" 11
  13 "ValveBiped.Bip01_L_Finger32" 12
  14 "v_weapon.Bip01_L_Finger32" 13
  15 "v_weapon.Bip01_L_Finger31" 12
  16 "v_weapon.Bip01_L_Finger3" 11
  17 "ValveBiped.Bip01_L_Finger2" 4
  18 "ValveBiped.Bip01_L_Finger21" 17
  19 "ValveBiped.Bip01_L_Finger22" 18
  20 "v_weapon.Bip01_L_Finger22" 19
  21 "v_weapon.Bip01_L_Finger21" 18
  22 "v_weapon.Bip01_L_Finger2" 17
  23 "ValveBiped.Bip01_L_Finger1" 4
  24 "ValveBiped.Bip01_L_Finger11" 23
  25 "ValveBiped.Bip01_L_Finger12" 24
  26 "v_weapon.Bip01_L_Finger12" 25
  27 "v_weapon.Bip01_L_Finger11" 24
  28 "v_weapon.Bip01_L_Finger1" 23
  29 "ValveBiped.Bip01_L_Finger0" 4
  30 "ValveBiped.Bip01_L_Finger01" 29
  31 "ValveBiped.Bip01_L_Finger02" 30
  32 "v_weapon.Bip01_L_Finger02" 31
  33 "v_weapon.Bip01_L_Finger01" 30
  34 "v_weapon.Bip01_L_Finger0" 29
  35 "v_weapon.Bip01_L_Hand" 4
  36 "ValveBiped.Bip01_L_Driven_ulna" 3
  37 "v_weapon.Bip01_L_ForeTwist" 36
  38 "v_weapon.Bip01_L_Forearm" 36
  39 "Dummy001" -1
  40 "ValveBiped.Bip01_R_UpperArm" 39
  41 "ValveBiped.Bip01_R_Forearm" 40
  42 "ValveBiped.Bip01_R_Hand" 41
  43 "ValveBiped.Bip01_R_Finger4" 42
  44 "ValveBiped.Bip01_R_Finger41" 43
  45 "ValveBiped.Bip01_R_Finger42" 44
  46 "v_weapon.Bip01_R_Finger42" 45
  47 "v_weapon.Bip01_R_Finger41" 44
  48 "v_weapon.Bip01_R_Finger4" 43
  49 "ValveBiped.Bip01_R_Finger3" 42
  50 "ValveBiped.Bip01_R_Finger31" 49
  51 "ValveBiped.Bip01_R_Finger32" 50
  52 "v_weapon.Bip01_R_Finger32" 51
  53 "v_weapon.Bip01_R_Finger31" 50
  54 "v_weapon.Bip01_R_Finger3" 49
  55 "ValveBiped.Bip01_R_Finger2" 42
  56 "ValveBiped.Bip01_R_Finger21" 55
  57 "ValveBiped.Bip01_R_Finger22" 56
  58 "v_weapon.Bip01_R_Finger22" 57
  59 "v_weapon.Bip01_R_Finger21" 56
  60 "v_weapon.Bip01_R_Finger2" 55
  61 "ValveBiped.Bip01_R_Finger1" 42
  62 "ValveBiped.Bip01_R_Finger11" 61
  63 "ValveBiped.Bip01_R_Finger12" 62
  64 "v_weapon.Bip01_R_Finger12" 63
  65 "v_weapon.Bip01_R_Finger11" 62
  66 "v_weapon.Bip01_R_Finger1" 61
  67 "ValveBiped.Bip01_R_Finger0" 42
  68 "ValveBiped.Bip01_R_Finger01" 67
  69 "ValveBiped.Bip01_R_Finger02" 68
  70 "v_weapon.Bip01_R_Finger02" 69
  71 "v_weapon.Bip01_R_Finger01" 68
  72 "v_weapon.Bip01_R_Finger0" 67
  73 "v_weapon.Bip01_R_Hand" 42
  74 "ValveBiped.Bip01_R_Driven_ulna" 41
  75 "v_weapon.Bip01_R_Forearm" 74
  76 "v_weapon.Bip01_R_ForeTwist" 74
end
skeleton
  time 0
    0 -14.197452 -26.564228 -9.221075 1.937295 -0.000416 1.929734
    1 9.460139 -3.646692 -7.870691 -1.570798 0.087265 -1.570796
    2 -0.000001 0.000002 0.000000 0.257099 0.513787 0.287947
    3 10.907404 0.000001 -0.000001 0.000000 0.000025 -0.867613
    4 10.424325 -0.000011 -0.000033 0.287989 0.092194 0.453140
    5 2.997275 0.005409 -1.477475 0.000000 0.000000 -0.931338
    6 1.510384 -0.000004 0.000000 0.000000 0.000000 -1.758941
    7 0.808659 -0.000001 0.000001 -0.036135 -0.091129 0.346605
    8 -0.005463 0.010882 0.011922 -3.130701 -0.002586 -0.018476
    9 -0.001080 -0.005339 -0.002780 -3.138880 -0.004640 0.012721
    10 -0.019963 -0.004463 0.017139 3.137685 -0.000240 0.002472
    11 3.305800 0.203115 -0.546730 0.000000 0.000000 -1.117011
    12 1.807178 0.000000 -0.000004 -0.129588 0.159320 -0.962456
    13 0.966141 0.000003 -0.000001 0.000000 0.000000 0.126789
    14 -0.002205 0.006298 0.000417 3.133979 -0.003058 0.005338
    15 0.007872 0.003559 -0.000436 -3.124798 -0.001004 0.009074
    16 0.012690 -0.008244 0.010269 -3.131666 0.016691 0.012264
    17 3.571513 0.109304 0.409580 -0.152916 0.292768 -0.636694
    18 2.150648 0.000002 -0.000003 0.000000 0.000000 -1.593978
    19 1.152746 -0.000003 0.000003 0.000000 0.000000 0.329282
    20 0.000419 0.016150 0.002405 3.136320 -0.007304 -0.003105
    21 0.001816 -0.009672 -0.007393 3.139013 -0.008631 -0.008588
    22 -0.003752 -0.011593 -0.001195 3.133090 0.002976 0.014444
    23 3.684098 -0.158697 1.419183 -0.061161 0.346912 -0.007883
    24 1.701014 0.000004 0.000004 0.000000 0.000000 -0.898055
    25 0.994714 -0.000002 -0.000008 0.000000 0.000000 -0.891473
    26 0.021160 0.011093 -0.004108 -3.137926 -0.002080 -0.001153
    27 -0.003428 0.010128 -0.008341 -3.140832 -0.004146 -0.019238
    28 0.004127 0.010881 0.000767 3.138806 -0.003164 -0.013821
    29 1.068074 -1.287202 0.981906 1.658892 -0.522652 -0.076457
    30 1.836308 -0.000001 0.000002 -0.061906 0.025360 0.041288
    31 1.223949 -0.000002 0.000002 0.033289 -0.045162 0.045189
    32 -0.012758 0.013269 0.005633 -3.132442 0.011957 -0.016684
    33 0.003252 0.002937 0.004907 3.134101 -0.012025 0.011384
    34 0.017597 0.001415 -0.271330 3.132743 -0.094250 -0.000348
    35 -0.034845 0.015532 -0.006371 -3.119476 -0.012752 0.011827
    36 6.868289 0.000003 0.000003 0.699132 0.157513 0.029413
    37 -6.002364 -0.460211 -0.868646 -0.695749 -0.131805 0.077518
    38 -6.002752 -0.459276 -0.867383 -0.699507 -0.131813 0.077097
    39 -10.001348 5.722933 -6.851032 -1.570797 0.087266 -1.570796
    40 -0.000001 -0.000002 0.000004 -0.187027 -0.270418 0.568586
    41 10.907397 0.000000 -0.000001 -0.000346 -0.000019 -1.215262
    42 10.424307 0.000001 0.000016 -1.589895 0.326883 0.564157
    43 2.997296 0.000062 1.477484 0.000000 0.000000 -1.317724
    44 1.510386 -0.000002 0.000000 0.000000 0.000000 -1.143191
    45 0.808652 0.000001 -0.000003 0.000000 0.000000 -1.082104
    46 -0.010181 0.001544 -0.002427 3.133438 0.004938 -0.014530
    47 -0.007761 0.000776 -0.012938 -3.140949 0.009512 -0.002789
    48 -0.003515 0.022163 -0.007593 -3.131007 0.004989 -0.015563
    49 3.305811 0.201132 0.547463 0.000000 0.000000 -1.370083
    50 1.807181 -0.000005 -0.000002 0.000000 0.000000 -1.300270
    51 0.966146 0.000000 0.000000 0.000000 0.000000 -0.776672
    52 -0.004041 0.002991 -0.002260 -3.129316 0.007469 -0.002160
    53 -0.016014 -0.012525 -0.005755 -3.127586 -0.003209 -0.007102
    54 -0.010741 -0.015351 -0.005964 -3.141244 -0.014366 0.013993
    55 3.571526 0.110787 -0.409180 0.000000 0.000000 -1.466077
    56 2.150658 0.000000 0.000000 0.000000 0.000000 -1.727876
    57 1.152748 0.000002 -0.000001 0.000000 0.000000 -0.218166
    58 -0.009424 0.003368 0.009511 3.138994 -0.007577 -0.001092
    59 -0.009795 0.006993 0.001619 3.137400 -0.006826 0.001062
    60 -0.005070 0.017085 0.007624 3.135509 0.005211 0.001477
    61 3.684113 -0.153569 -1.419744 0.000000 -0.172158 0.117008
    62 1.701014 -0.000001 0.000000 0.000000 0.000000 -1.282817
    63 0.994705 -0.000004 0.000000 0.000000 0.000000 -0.797290
    64 0.015236 0.000657 -0.012633 3.136885 0.014164 0.000018
    65 -0.014324 -0.018461 0.000846 -3.134644 0.013210 0.007851
    66 -0.020566 0.000650 -0.004019 -3.126894 -0.002595 -0.013678
    67 1.068097 -1.283652 -0.986552 -2.368123 0.176329 -0.389002
    68 1.836308 -0.000002 0.000001 -0.026488 0.186267 -0.327385
    69 1.223948 0.000001 -0.000002 -0.032036 0.025020 -0.711639
    70 -0.026768 0.000412 0.021024 -3.135050 0.011560 0.031832
    71 -0.030946 0.015453 0.007155 3.126687 -0.014474 -0.013279
    72 0.024326 0.034636 0.000721 -3.121606 0.015525 0.030344
    73 -0.046000 0.019587 0.021797 3.134639 0.020864 -0.001670
    74 6.694322 0.000002 0.000001 -1.391485 -0.103660 0.123395
    75 -6.579163 -0.452807 0.914976 1.390020 0.137634 0.072730
    76 -6.553783 -0.454803 0.900534 1.387994 0.108045 0.086436
end
triangles
end
