// Created by CrowbarDecompiler 0.71
version 1
nodes
  0 "v_weapon" -1
  1 "v_weapon.Bip01" 0
  2 "v_weapon.Bip01_Pelvis" 0
  3 "v_weapon.Bip01_Spine" 0
  4 "v_weapon.Bip01_Spine1" 0
  5 "v_weapon.Bip01_Spine2" 0
  6 "v_weapon.Bip01_Spine3" 0
  7 "v_weapon.Bip01_Neck" 0
  8 "v_weapon.Bip01_L_Clavicle" 0
  9 "v_weapon.Bip01_L_UpperArm" 0
  10 "v_weapon.Bip01_L_Forearm" 0
  11 "v_weapon.Bip01_L_Hand" 0
  12 "v_weapon.Bip01_L_ForeTwist" 0
  13 "v_weapon.Bip01_R_Clavicle" 0
  14 "v_weapon.Bip01_R_UpperArm" 0
  15 "v_weapon.Bip01_R_Forearm" 0
  16 "v_weapon.Bip01_R_Hand" 0
  17 "v_weapon.Bip01_R_ForeTwist" 0
  18 "v_weapon.Bip01_L_Finger0" 0
  19 "v_weapon.Bip01_L_Finger01" 0
  20 "v_weapon.Bip01_L_Finger02" 0
  21 "v_weapon.Bip01_L_Finger1" 0
  22 "v_weapon.Bip01_L_Finger11" 0
  23 "v_weapon.Bip01_L_Finger12" 0
  24 "v_weapon.Bip01_L_Finger2" 0
  25 "v_weapon.Bip01_L_Finger21" 0
  26 "v_weapon.Bip01_L_Finger22" 0
  27 "v_weapon.Bip01_L_Finger3" 0
  28 "v_weapon.Bip01_L_Finger31" 0
  29 "v_weapon.Bip01_L_Finger32" 0
  30 "v_weapon.Bip01_L_Finger4" 0
  31 "v_weapon.Bip01_L_Finger41" 0
  32 "v_weapon.Bip01_L_Finger42" 0
  33 "v_weapon.Bip01_R_Finger0" 0
  34 "v_weapon.Bip01_R_Finger01" 0
  35 "v_weapon.Bip01_R_Finger02" 0
  36 "v_weapon.Bip01_R_Finger1" 0
  37 "v_weapon.Bip01_R_Finger11" 0
  38 "v_weapon.Bip01_R_Finger12" 0
  39 "v_weapon.Bip01_R_Finger2" 0
  40 "v_weapon.Bip01_R_Finger21" 0
  41 "v_weapon.Bip01_R_Finger22" 0
  42 "v_weapon.Bip01_R_Finger3" 0
  43 "v_weapon.Bip01_R_Finger31" 0
  44 "v_weapon.Bip01_R_Finger32" 0
  45 "v_weapon.Bip01_R_Finger4" 0
  46 "v_weapon.Bip01_R_Finger41" 0
  47 "v_weapon.Bip01_R_Finger42" 0
  48 "FvARM-bone" 0
  49 "FvARM-bone Pelvis" 48
  50 "FvARM-bone Spine" 49
  51 "FvARM-bone Spine1" 50
  52 "FvARM-bone Neck" 51
  53 "FvARM-bone L Clavicle" 52
  54 "FvARM-bone L UpperArm" 53
  55 "FvARM-bone L ForeArm" 54
  56 "FvARM-bone L Hand" 55
  57 "FvARM-bone L Finger0" 56
  58 "FvARM-bone L Finger01" 57
  59 "FvARM-bone L Finger02" 58
  60 "FvARM-bone L Finger1" 56
  61 "FvARM-bone L Finger11" 60
  62 "FvARM-bone L Finger12" 61
  63 "FvARM-bone L Finger2" 56
  64 "FvARM-bone L Finger21" 63
  65 "FvARM-bone L Finger22" 64
  66 "FvARM-bone L Finger3" 56
  67 "FvARM-bone L Finger31" 66
  68 "FvARM-bone L Finger32" 67
  69 "FvARM-bone L Finger4" 56
  70 "FvARM-bone L Finger41" 69
  71 "FvARM-bone L Finger42" 70
  72 "FvARM-bone L ForeTwist" 54
  73 "FvARM-bone R Clavicle" 52
  74 "FvARM-bone R UpperArm" 73
  75 "FvARM-bone R ForeArm" 74
  76 "FvARM-bone R Hand" 75
  77 "FvARM-bone R Finger0" 76
  78 "FvARM-bone R Finger01" 77
  79 "FvARM-bone R Finger02" 78
  80 "FvARM-bone R Finger1" 76
  81 "FvARM-bone R Finger11" 80
  82 "FvARM-bone R Finger12" 81
  83 "FvARM-bone R Finger2" 76
  84 "FvARM-bone R Finger21" 83
  85 "FvARM-bone R Finger22" 84
  86 "FvARM-bone R Finger3" 76
  87 "FvARM-bone R Finger31" 86
  88 "FvARM-bone R Finger32" 87
  89 "FvARM-bone R Finger4" 76
  90 "FvARM-bone R Finger41" 89
  91 "FvARM-bone R Finger42" 90
  92 "FvARM-bone R ForeTwist" 74
  93 "FvARM-bone Prop1" 48
  94 "Dummy01" 93
  95 "Bone02" 94
  96 "Box001" 95
  97 "Box002" 95
  98 "Box003" 95
  99 "Box005" 95
  100 "Box006" 95
  101 "Box004" 95
  102 "Bone04" 94
  103 "Bone06" 94
  104 "v_weapon.flash" 94
  105 "v_weapon.shelleject" 94
  106 "v_weapon.stattrack" 94
  107 "v_weapon.uid" 94
end
skeleton
  time 0
    0 0.000000 0.000000 0.000000 0.000000 0.000000 0.000031
    1 0.000000 0.000000 0.000000 0.000000 0.000000 0.000000
    2 0.000000 0.000000 0.000000 0.000000 0.000000 0.000000
    3 0.000000 0.000000 0.000000 0.000000 0.000000 0.000000
    4 0.000000 0.000000 0.000000 0.000000 0.000000 0.000000
    5 0.000000 0.000000 0.000000 0.000000 0.000000 0.000000
    6 0.000000 0.000000 0.000000 0.000000 0.000000 0.000000
    7 0.000000 0.000000 0.000000 0.000000 0.000000 0.000000
    8 0.000000 0.000000 0.000000 0.000000 0.000000 0.000000
    9 0.000000 0.000000 0.000000 0.000000 0.000000 0.000000
    10 0.000000 0.000000 0.000000 0.000000 0.000000 0.000000
    11 0.000000 0.000000 0.000000 0.000000 0.000000 0.000000
    12 0.000000 0.000000 0.000000 0.000000 0.000000 0.000000
    13 0.000000 0.000000 0.000000 0.000000 0.000000 0.000000
    14 0.000000 0.000000 0.000000 0.000000 0.000000 0.000000
    15 0.000000 0.000000 0.000000 0.000000 0.000000 0.000000
    16 0.000000 0.000000 0.000000 0.000000 0.000000 0.000000
    17 0.000000 0.000000 0.000000 0.000000 0.000000 0.000000
    18 0.000000 0.000000 0.000000 0.000000 0.000000 0.000000
    19 0.000000 0.000000 0.000000 0.000000 0.000000 0.000000
    20 0.000000 0.000000 0.000000 0.000000 0.000000 0.000000
    21 0.000000 0.000000 0.000000 0.000000 0.000000 0.000000
    22 0.000000 0.000000 0.000000 0.000000 0.000000 0.000000
    23 0.000000 0.000000 0.000000 0.000000 0.000000 0.000000
    24 0.000000 0.000000 0.000000 0.000000 0.000000 0.000000
    25 0.000000 0.000000 0.000000 0.000000 0.000000 0.000000
    26 0.000000 0.000000 0.000000 0.000000 0.000000 0.000000
    27 0.000000 0.000000 0.000000 0.000000 0.000000 0.000000
    28 0.000000 0.000000 0.000000 0.000000 0.000000 0.000000
    29 0.000000 0.000000 0.000000 0.000000 0.000000 0.000000
    30 0.000000 0.000000 0.000000 0.000000 0.000000 0.000000
    31 0.000000 0.000000 0.000000 0.000000 0.000000 0.000000
    32 0.000000 0.000000 0.000000 0.000000 0.000000 0.000000
    33 0.000000 0.000000 0.000000 0.000000 0.000000 0.000000
    34 0.000000 0.000000 0.000000 0.000000 0.000000 0.000000
    35 0.000000 0.000000 0.000000 0.000000 0.000000 0.000000
    36 0.000000 0.000000 0.000000 0.000000 0.000000 0.000000
    37 0.000000 0.000000 0.000000 0.000000 0.000000 0.000000
    38 0.000000 0.000000 0.000000 0.000000 0.000000 0.000000
    39 0.000000 0.000000 0.000000 0.000000 0.000000 0.000000
    40 0.000000 0.000000 0.000000 0.000000 0.000000 0.000000
    41 0.000000 0.000000 0.000000 0.000000 0.000000 0.000000
    42 0.000000 0.000000 0.000000 0.000000 0.000000 0.000000
    43 0.000000 0.000000 0.000000 0.000000 0.000000 0.000000
    44 0.000000 0.000000 0.000000 0.000000 0.000000 0.000000
    45 0.000000 0.000000 0.000000 0.000000 0.000000 0.000000
    46 0.000000 0.000000 0.000000 0.000000 0.000000 0.000000
    47 0.000000 0.000000 0.000000 0.000000 0.000000 0.000000
    48 -11.397009 -13.240152 -20.445601 0.017928 0.057012 1.570415
    49 18.000000 4.332031 22.250000 1.026317 1.538527 -0.588293
    50 -4.144737 0.144209 -0.086374 -0.000012 0.000031 0.000795
    51 -4.035156 7.328125 8.718750 0.471093 -0.005346 0.008216
    52 -8.706161 0.953156 -0.205957 -0.000033 0.000064 0.001709
    53 27.453125 -31.671875 21.578125 0.296504 1.397368 -2.894529
    54 22.390625 -9.296875 17.250000 0.845113 -0.109363 -1.443863
    55 4.738281 -2.708984 0.194214 0.026111 -0.021139 -0.818706
    56 2.597656 -32.312500 35.437500 -2.941264 -0.114022 0.590226
    57 -0.830566 -37.375000 8.015625 -1.789652 -0.173818 -0.106064
    58 -2.271484 -0.214355 -0.036407 -0.001129 0.002455 0.065014
    59 3.693359 0.197388 0.064819 0.007106 -0.009871 -0.288854
    60 4.816406 0.731934 -0.518555 0.043100 -0.065539 -0.400599
    61 -1.757162 -0.171654 -0.027920 -0.000989 0.002026 0.053307
    62 -3.393681 -0.660553 -0.041573 -0.002645 0.006254 0.160746
    63 -2.275904 0.919998 -0.223534 0.007176 -0.025680 0.005150
    64 -1.517202 -0.085838 -0.026459 -0.000560 0.001111 0.029408
    65 -2.861383 -0.466759 -0.038437 -0.002109 0.004732 0.122582
    66 -4.070364 0.882095 0.761581 0.007931 0.070209 0.001780
    67 -2.095596 -0.257721 -0.031303 -0.001365 0.002878 0.075342
    68 -4.035295 -0.904175 -0.044987 -0.003180 0.007992 0.203716
    69 -6.754801 0.863586 2.226116 0.007506 0.223094 -0.003846
    70 -2.442366 -0.421021 -0.031963 -0.001959 0.004335 0.112517
    71 -3.238380 -0.647484 -0.039032 -0.002611 0.006149 0.158156
    72 10.421875 3.193359 12.078125 0.624276 -0.028392 -0.808836
    73 -13.924431 -30.376884 11.271997 0.161604 -1.322464 3.013273
    74 7.242188 5.910156 9.210938 0.214623 0.724214 -0.999164
    75 11.148438 -15.156250 0.786133 0.063114 -0.014006 -1.744229
    76 3.751953 -37.593750 24.250000 -2.438770 -0.241032 0.480545
    77 -11.968750 -0.300049 34.593750 1.515140 0.041346 0.667653
    78 -8.953125 -3.830078 -0.031403 -0.004628 0.022582 0.553197
    79 -12.335938 -9.226563 0.104858 0.000391 0.039693 0.978118
    80 -0.508789 0.480469 0.573242 -0.011457 -0.096803 -0.013274
    81 -11.148438 -6.812500 0.037384 -0.002627 0.032910 0.803068
    82 -11.046875 -6.621094 0.032288 -0.002748 0.032279 0.788453
    83 -4.746094 3.703125 3.082031 0.154660 -0.424666 0.518952
    84 -13.109375 -10.664063 0.143433 0.002484 0.043254 1.075858
    85 -13.296875 -11.539063 0.172974 0.003919 0.045203 1.134250
    86 -4.101563 -3.830078 -3.044922 -0.285700 -0.407353 1.042628
    87 -12.960938 -10.570313 0.142944 0.002361 0.042951 1.069422
    88 -13.375000 -11.984375 0.187866 0.004731 0.046173 1.163084
    89 -6.105469 -11.695313 -5.339844 -0.394428 -0.218109 1.616557
    90 -9.320313 -4.742188 -0.004333 -0.004253 0.026027 0.635558
    91 -9.914063 -5.277344 0.004192 -0.003923 0.027952 0.681277
    92 5.390625 -14.226563 -2.908203 -0.219705 -0.012659 -1.749939
    93 -4.015625 -30.109375 15.703125 -1.599117 -0.003969 0.024424
    94 -9.601563 -1.068359 -0.145630 0.028066 0.050761 -0.008088
    95 14.886320 -1.080346 0.350275 -0.000579 0.001154 0.030524
    96 8.467159 3.803825 22.105753 1.052164 1.538051 -0.588890
    97 9.861919 3.949635 21.338112 1.060243 1.537947 -0.584980
    98 -1.437462 -2.574752 34.511307 3.137044 0.889323 1.496977
    99 0.389074 -5.578572 36.377625 -3.138062 0.714918 1.506466
    100 -0.432925 -30.202703 32.287167 -3.125463 -0.680931 1.541839
    101 -2.411184 -31.931969 29.334709 -3.128035 -0.855416 1.547292
    102 8.970018 -2.348264 0.327314 0.000528 -0.000981 -0.026347
    103 -10.141367 -12.614876 0.246809 0.017928 0.057012 1.570415
    104 -10.411726 0.894689 24.052322 -1.520186 0.032393 3.094911
    105 6.244350 -0.043256 25.337194 1.680500 -1.270653 -1.721969
    106 5.371284 0.686714 23.963764 0.569353 1.510715 -1.048600
    107 10.209586 -0.057246 24.004221 0.569353 1.510715 -1.048600
end
