// Created by CrowbarDecompiler 0.71
version 1
nodes
  0 "Scene Root" -1
  1 "bone_Weapon" 0
  2 "bone_Weapon_Main" 1
  3 "muzzle" 1
  4 "shell" 1
end
skeleton
  time 0
    0 -0.999512 -2.500000 5.000000 -1.570790 0.000007 -3.141584
    1 11.151220 10.233318 0.627121 -5.103134 -0.402168 -6.058546
    2 -0.248215 -3.990622 28.963835 0.000000 0.000000 0.000000
    3 -0.208309 -3.980618 28.661356 1.570812 -1.555294 -0.000012
    4 0.787082 -4.457595 13.090944 1.592382 -0.057240 -0.288584
  time 1
    0 -0.999512 -2.500000 5.000000 -1.570790 0.000007 -3.141584
    1 11.151220 9.948153 3.080321 -5.048293 -0.414238 -6.090568
    2 -0.248215 -3.990622 28.963835 0.000000 0.000000 0.000000
    3 -0.208309 -3.980618 28.661356 1.570812 -1.555294 -0.000012
    4 0.787082 -4.457595 13.090944 1.592382 -0.057240 -0.288584
  time 2
    0 -0.999512 -2.500000 5.000000 -1.570790 0.000007 -3.141584
    1 11.151220 9.709864 5.428049 -4.998341 -0.424394 -6.118085
    2 -0.248215 -3.990622 28.963835 0.000000 0.000000 0.000000
    3 -0.208309 -3.980618 28.661356 1.570812 -1.555294 -0.000012
    4 0.787082 -4.457595 13.090944 1.592382 -0.057240 -0.288584
  time 3
    0 -0.999512 -2.500000 5.000000 -1.570790 0.000007 -3.141584
    1 11.151220 9.522359 7.553114 -4.956347 -0.432730 -6.140424
    2 -0.248215 -3.990622 28.963835 0.000000 0.000000 0.000000
    3 -0.208309 -3.980618 28.661356 1.570812 -1.555294 -0.000012
    4 0.787082 -4.457595 13.090944 1.592382 -0.057240 -0.288584
  time 4
    0 -0.999512 -2.500000 5.000000 -1.570790 0.000007 -3.141584
    1 11.151220 9.401261 9.385201 -4.925283 -0.439125 -6.157299
    2 -0.248215 -3.990622 28.963835 0.000000 0.000000 0.000000
    3 -0.208309 -3.980618 28.661356 1.570812 -1.555294 -0.000012
    4 0.787082 -4.457595 13.090944 1.592382 -0.057240 -0.288584
  time 5
    0 -0.999512 -2.500000 5.000000 -1.570790 0.000007 -3.141584
    1 11.151220 9.311415 10.896966 -4.904765 -0.443551 -6.168804
    2 -0.248215 -3.990622 28.963835 0.000000 0.000000 0.000000
    3 -0.208309 -3.980618 28.661356 1.570812 -1.555294 -0.000012
    4 0.787082 -4.457595 13.090944 1.592382 -0.057240 -0.288584
  time 6
    0 -0.999512 -2.500000 5.000000 -1.570790 0.000007 -3.141584
    1 11.045748 9.284070 12.037626 -4.900451 -0.444895 -6.169379
    2 -0.248215 -3.990622 28.963835 0.000000 0.000000 0.000000
    3 -0.208309 -3.980618 28.661356 1.570812 -1.555294 -0.000012
    4 0.787082 -4.457595 13.090944 1.592382 -0.057240 -0.288584
  time 7
    0 -0.999512 -2.500000 5.000000 -1.570790 0.000007 -3.141584
    1 10.178534 9.366104 12.639206 -4.943403 -0.434563 -6.127673
    2 -0.248215 -3.990622 28.963835 0.000000 0.000000 0.000000
    3 -0.208309 -3.980618 28.661356 1.570812 -1.555294 -0.000012
    4 0.787082 -4.457595 13.090944 1.592382 -0.057240 -0.288584
  time 8
    0 -0.999512 -2.500000 5.000000 -1.570790 0.000007 -3.141584
    1 8.674582 9.577048 12.982967 -5.043211 -0.411034 -6.055190
    2 -0.248215 -3.990622 28.963835 0.000000 0.000000 0.000000
    3 -0.208309 -3.980618 28.661356 1.570812 -1.555294 -0.000012
    4 0.787082 -4.457595 13.090944 1.592382 -0.057240 -0.288584
  time 9
    0 -0.999512 -2.500000 5.000000 -1.570790 0.000007 -3.141584
    1 7.084689 9.936434 13.158754 -5.185013 -0.370615 -5.980406
    2 -0.248215 -3.990622 28.963835 0.000000 0.000000 0.000000
    3 -0.208309 -3.980618 28.661356 1.570812 -1.555294 -0.000012
    4 0.787082 -4.457595 13.090944 1.592382 -0.057240 -0.288584
  time 10
    0 -0.999512 -2.500000 5.000000 -1.570790 0.000007 -3.141584
    1 5.791681 10.455981 13.197817 -5.363631 -0.313075 -5.925469
    2 -0.248215 -3.990622 28.963835 0.000000 0.000000 0.000000
    3 -0.208309 -3.980618 28.661356 1.570812 -1.555294 -0.000012
    4 0.787082 -4.457595 13.090944 1.592382 -0.057240 -0.288584
  time 11
    0 -0.999512 -2.500000 5.000000 -1.570790 0.000007 -3.141584
    1 5.436202 11.135689 12.994686 -5.584052 -0.176530 -5.924798
    2 -0.248215 -3.990622 28.963835 0.000000 0.000000 0.000000
    3 -0.208309 -3.980618 28.661356 1.570812 -1.555294 -0.000012
    4 0.787082 -4.457595 13.090944 1.592382 -0.057240 -0.288584
  time 12
    0 -0.999512 -2.500000 5.000000 -1.570790 0.000007 -3.141584
    1 5.182288 11.850555 12.604049 -5.817607 -0.068985 -5.967271
    2 -0.248215 -3.990622 28.963835 0.000000 0.000000 0.000000
    3 -0.208309 -3.980618 28.661356 1.570812 -1.555294 -0.000012
    4 0.787082 -4.457595 13.090944 1.592382 -0.057240 -0.288584
  time 13
    0 -0.999512 -2.500000 5.000000 -1.570790 0.000007 -3.141584
    1 5.014314 12.573233 11.975124 -6.045315 -0.001589 -6.036782
    2 -0.248215 -3.990622 28.963835 0.000000 0.000000 0.000000
    3 -0.208309 -3.980618 28.661356 1.570812 -1.555294 -0.000012
    4 0.787082 -4.457595 13.090944 1.592382 -0.057240 -0.288584
  time 14
    0 -0.999512 -2.500000 5.000000 -1.570790 0.000007 -3.141584
    1 4.924467 13.217784 10.916498 -6.198238 0.029734 -6.103128
    2 -0.248215 -3.990622 28.963835 0.000000 0.000000 0.000000
    3 -0.208309 -3.980618 28.661356 1.570812 -1.555294 -0.000012
    4 0.787082 -4.457595 13.090944 1.592382 -0.057240 -0.288584
  time 15
    0 -0.999512 -2.500000 5.000000 -1.570790 0.000007 -3.141584
    1 4.877591 13.698267 9.803182 -0.015052 0.037446 -6.153943
    2 -0.248215 -3.990622 28.963835 0.000000 0.000000 0.000000
    3 -0.208309 -3.980618 28.661356 1.570812 -1.555294 -0.000012
    4 0.787082 -4.457595 13.090944 1.592382 -0.057240 -0.288584
  time 16
    0 -0.999512 -2.500000 5.000000 -1.570790 0.000007 -3.141584
    1 4.846340 14.026402 8.943781 -0.083796 0.037337 -6.196512
    2 -0.248215 -3.990622 28.963835 0.000000 0.000000 0.000000
    3 -0.208309 -3.980618 28.661356 1.570812 -1.555294 -0.000012
    4 0.787082 -4.457595 13.090944 1.592382 -0.057240 -0.288584
  time 17
    0 -0.999512 -2.500000 5.000000 -1.570790 0.000007 -3.141584
    1 4.822902 14.186563 8.482830 -0.122818 0.034418 -6.231699
    2 -0.248215 -3.990622 28.963835 0.000000 0.000000 0.000000
    3 -0.208309 -3.980618 28.661356 1.570812 -1.555294 -0.000012
    4 0.787082 -4.457595 13.090944 1.592382 -0.057240 -0.288584
  time 18
    0 -0.999512 -2.500000 5.000000 -1.570790 0.000007 -3.141584
    1 4.826808 14.127968 8.623459 -0.130296 0.033495 -6.253751
    2 -0.248215 -3.990622 28.963835 0.000000 0.000000 0.000000
    3 -0.208309 -3.980618 28.661356 1.570812 -1.555294 -0.000012
    4 0.787082 -4.457595 13.090944 1.592382 -0.057240 -0.288584
  time 19
    0 -0.999512 -2.500000 5.000000 -1.570790 0.000007 -3.141584
    1 4.846340 14.042028 8.873466 -0.129050 0.031526 -6.268899
    2 -0.248215 -3.990622 28.963835 0.000000 0.000000 0.000000
    3 -0.208309 -3.980618 28.661356 1.570812 -1.555294 -0.000012
    4 0.787082 -4.457595 13.090944 1.592382 -0.057240 -0.288584
  time 20
    0 -0.999512 -2.500000 5.000000 -1.570790 0.000007 -3.141584
    1 4.861965 13.928743 9.201602 -0.120229 0.028919 -6.279446
    2 -0.248215 -3.990622 28.963835 0.000000 0.000000 0.000000
    3 -0.208309 -3.980618 28.661356 1.570812 -1.555294 -0.000012
    4 0.787082 -4.457595 13.090944 1.592382 -0.057240 -0.288584
  time 21
    0 -0.999512 -2.500000 5.000000 -1.570790 0.000007 -3.141584
    1 4.889310 13.799833 9.611770 -0.102876 0.025715 -0.003068
    2 -0.248215 -3.990622 28.963835 0.000000 0.000000 0.000000
    3 -0.208309 -3.980618 28.661356 1.570812 -1.555294 -0.000012
    4 0.787082 -4.457595 13.090944 1.592382 -0.057240 -0.288584
  time 22
    0 -0.999512 -2.500000 5.000000 -1.570790 0.000007 -3.141584
    1 4.924467 13.702174 10.061003 -0.075838 0.022375 -0.007574
    2 -0.248215 -3.990622 28.963835 0.000000 0.000000 0.000000
    3 -0.208309 -3.980618 28.661356 1.570812 -1.555294 -0.000012
    4 0.787082 -4.457595 13.090944 1.592382 -0.057240 -0.288584
  time 23
    0 -0.999512 -2.500000 5.000000 -1.570790 0.000007 -3.141584
    1 4.975250 13.643578 10.455546 -0.050047 0.018669 -0.010259
    2 -0.248215 -3.990622 28.963835 0.000000 0.000000 0.000000
    3 -0.208309 -3.980618 28.661356 1.570812 -1.555294 -0.000012
    4 0.787082 -4.457595 13.090944 1.592382 -0.057240 -0.288584
  time 24
    0 -0.999512 -2.500000 5.000000 -1.570790 0.000007 -3.141584
    1 5.033846 13.624046 10.791494 -0.027229 0.014487 -0.010930
    2 -0.248215 -3.990622 28.963835 0.000000 0.000000 0.000000
    3 -0.208309 -3.980618 28.661356 1.570812 -1.555294 -0.000012
    4 0.787082 -4.457595 13.090944 1.592382 -0.057240 -0.288584
  time 25
    0 -0.999512 -2.500000 5.000000 -1.570790 0.000007 -3.141584
    1 5.100254 13.651391 11.037595 -0.013423 0.009423 -0.008245
    2 -0.248215 -3.990622 28.963835 0.000000 0.000000 0.000000
    3 -0.208309 -3.980618 28.661356 1.570812 -1.555294 -0.000012
    4 0.787082 -4.457595 13.090944 1.592382 -0.057240 -0.288584
  time 26
    0 -0.999512 -2.500000 5.000000 -1.570790 0.000007 -3.141584
    1 5.158849 13.690455 11.193850 -0.005561 0.004956 -0.004890
    2 -0.248215 -3.990622 28.963835 0.000000 0.000000 0.000000
    3 -0.208309 -3.980618 28.661356 1.570812 -1.555294 -0.000012
    4 0.787082 -4.457595 13.090944 1.592382 -0.057240 -0.288584
  time 27
    0 -0.999512 -2.500000 5.000000 -1.570790 0.000007 -3.141584
    1 5.197913 13.729518 11.299322 -0.001342 0.001738 -0.001821
    2 -0.248215 -3.990622 28.963835 0.000000 0.000000 0.000000
    3 -0.208309 -3.980618 28.661356 1.570812 -1.555294 -0.000012
    4 0.787082 -4.457595 13.090944 1.592382 -0.057240 -0.288584
  time 28
    0 -0.999512 -2.500000 5.000000 -1.570790 0.000007 -3.141584
    1 5.221351 13.749050 11.342292 0.000000 0.000000 0.000000
    2 -0.248215 -3.990622 28.963835 0.000000 0.000000 0.000000
    3 -0.208309 -3.980618 28.661356 1.570812 -1.555294 -0.000012
    4 0.787082 -4.457595 13.090944 1.592382 -0.057240 -0.288584
  time 29
    0 -0.999512 -2.500000 5.000000 -1.570790 0.000007 -3.141584
    1 5.221351 13.752957 11.342292 -6.283089 -0.000014 -0.000863
    2 -0.248215 -3.990622 28.963835 0.000000 0.000000 0.000000
    3 -0.208309 -3.980618 28.661356 1.570812 -1.555294 -0.000012
    4 0.787082 -4.457595 13.090944 1.592382 -0.057240 -0.288584
  time 30
    0 -0.999512 -2.500000 5.000000 -1.570790 0.000007 -3.141584
    1 5.218750 13.765625 11.335938 0.000191 -0.000040 -0.001341
    2 -0.248215 -3.990622 28.963835 0.000000 0.000000 0.000000
    3 -0.208309 -3.980618 28.661356 1.570812 -1.555294 -0.000012
    4 0.787082 -4.457595 13.090944 1.592382 -0.057240 -0.288584
end
