// Created by CrowbarDecompiler 0.71
version 1
nodes
  0 "Scene Root" -1
  1 "bone_Weapon" 0
  2 "bone_Weapon_Main" 1
  3 "muzzle" 1
  4 "shell" 1
end
skeleton
  time 0
    0 -0.999512 -2.500000 5.000000 -1.570790 0.000007 -3.141584
    1 5.221351 13.749050 11.342292 0.000000 0.000000 0.000000
    2 -0.248215 -3.990622 28.963835 0.000000 0.000000 0.000000
    3 -0.208309 -3.980618 28.661356 1.570812 -1.555294 -0.000012
    4 0.787082 -4.457595 13.090944 1.592382 -0.057240 -0.288584
  time 1
    0 -0.999512 -2.500000 5.000000 -1.570790 0.000007 -3.141584
    1 5.221351 14.178751 9.268010 -6.273789 0.000000 -6.281747
    2 -0.248215 -3.990622 28.963835 0.000000 0.000000 0.000000
    3 -0.208309 -3.980618 28.661356 1.570812 -1.555294 -0.000012
    4 0.787082 -4.457595 13.090944 1.592382 -0.057240 -0.288584
  time 2
    0 -0.999512 -2.500000 5.000000 -1.570790 0.000007 -3.141584
    1 5.221351 14.120155 8.439860 -6.257202 -0.000068 -6.269378
    2 -0.248215 -3.990622 28.963835 0.000000 0.000000 0.000000
    3 -0.208309 -3.980618 28.661356 1.570812 -1.555294 -0.000012
    4 0.787082 -4.457595 13.090944 1.592382 -0.057240 -0.288584
  time 3
    0 -0.999512 -2.500000 5.000000 -1.570790 0.000007 -3.141584
    1 5.221351 13.624046 8.795339 -6.234288 -0.000530 -6.248286
    2 -0.248215 -3.990622 28.963835 0.000000 0.000000 0.000000
    3 -0.208309 -3.980618 28.661356 1.570812 -1.555294 -0.000012
    4 0.787082 -4.457595 13.090944 1.592382 -0.057240 -0.288584
  time 4
    0 -0.999512 -2.500000 5.000000 -1.570790 0.000007 -3.141584
    1 5.221351 13.499043 9.268010 -6.237356 0.001181 -6.271488
    2 -0.248215 -3.990622 28.963835 0.000000 0.000000 0.000000
    3 -0.208309 -3.980618 28.661356 1.570812 -1.555294 -0.000012
    4 0.787082 -4.457595 13.090944 1.592382 -0.057240 -0.288584
  time 5
    0 -0.999512 -2.500000 5.000000 -1.570790 0.000007 -3.141584
    1 5.221351 13.471698 9.693804 -6.245218 0.002987 -0.011984
    2 -0.248215 -3.990622 28.963835 0.000000 0.000000 0.000000
    3 -0.208309 -3.980618 28.661356 1.570812 -1.555294 -0.000012
    4 0.787082 -4.457595 13.090944 1.592382 -0.057240 -0.288584
  time 6
    0 -0.999512 -2.500000 5.000000 -1.570790 0.000007 -3.141584
    1 5.221351 13.530293 10.084441 -6.258449 0.004671 -0.035666
    2 -0.248215 -3.990622 28.963835 0.000000 0.000000 0.000000
    3 -0.208309 -3.980618 28.661356 1.570812 -1.555294 -0.000012
    4 0.787082 -4.457595 13.090944 1.592382 -0.057240 -0.288584
  time 7
    0 -0.999512 -2.500000 5.000000 -1.570790 0.000007 -3.141584
    1 5.221351 13.627953 10.326636 -6.268132 0.003856 -0.033461
    2 -0.248215 -3.990622 28.963835 0.000000 0.000000 0.000000
    3 -0.208309 -3.980618 28.661356 1.570812 -1.555294 -0.000012
    4 0.787082 -4.457595 13.090944 1.592382 -0.057240 -0.288584
  time 8
    0 -0.999512 -2.500000 5.000000 -1.570790 0.000007 -3.141584
    1 5.221351 13.709986 10.537580 -6.276473 0.002661 -0.029817
    2 -0.248215 -3.990622 28.963835 0.000000 0.000000 0.000000
    3 -0.208309 -3.980618 28.661356 1.570812 -1.555294 -0.000012
    4 0.787082 -4.457595 13.090944 1.592382 -0.057240 -0.288584
  time 9
    0 -0.999512 -2.500000 5.000000 -1.570790 0.000007 -3.141584
    1 5.221351 13.776395 10.709460 -0.000767 0.001222 -0.024928
    2 -0.248215 -3.990622 28.963835 0.000000 0.000000 0.000000
    3 -0.208309 -3.980618 28.661356 1.570812 -1.555294 -0.000012
    4 0.787082 -4.457595 13.090944 1.592382 -0.057240 -0.288584
  time 10
    0 -0.999512 -2.500000 5.000000 -1.570790 0.000007 -3.141584
    1 5.221351 13.807646 10.857902 -0.003835 0.000380 -0.018983
    2 -0.248215 -3.990622 28.963835 0.000000 0.000000 0.000000
    3 -0.208309 -3.980618 28.661356 1.570812 -1.555294 -0.000012
    4 0.787082 -4.457595 13.090944 1.592382 -0.057240 -0.288584
  time 11
    0 -0.999512 -2.500000 5.000000 -1.570790 0.000007 -3.141584
    1 5.221351 13.819365 10.998531 -0.004890 0.000000 -0.013423
    2 -0.248215 -3.990622 28.963835 0.000000 0.000000 0.000000
    3 -0.208309 -3.980618 28.661356 1.570812 -1.555294 -0.000012
    4 0.787082 -4.457595 13.090944 1.592382 -0.057240 -0.288584
  time 12
    0 -0.999512 -2.500000 5.000000 -1.570790 0.000007 -3.141584
    1 5.217445 13.807646 11.135254 -0.004027 0.000000 -0.008053
    2 -0.248215 -3.990622 28.963835 0.000000 0.000000 0.000000
    3 -0.208309 -3.980618 28.661356 1.570812 -1.555294 -0.000012
    4 0.787082 -4.457595 13.090944 1.592382 -0.057240 -0.288584
  time 13
    0 -0.999512 -2.500000 5.000000 -1.570790 0.000007 -3.141584
    1 5.221351 13.780301 11.232913 -0.002397 0.000000 -0.004122
    2 -0.248215 -3.990622 28.963835 0.000000 0.000000 0.000000
    3 -0.208309 -3.980618 28.661356 1.570812 -1.555294 -0.000012
    4 0.787082 -4.457595 13.090944 1.592382 -0.057240 -0.288584
  time 14
    0 -0.999512 -2.500000 5.000000 -1.570790 0.000007 -3.141584
    1 5.221351 13.760769 11.303228 -0.001054 0.000000 -0.001342
    2 -0.248215 -3.990622 28.963835 0.000000 0.000000 0.000000
    3 -0.208309 -3.980618 28.661356 1.570812 -1.555294 -0.000012
    4 0.787082 -4.457595 13.090944 1.592382 -0.057240 -0.288584
  time 15
    0 -0.999512 -2.500000 5.000000 -1.570790 0.000007 -3.141584
    1 5.221351 13.749050 11.342292 0.000000 0.000000 0.000000
    2 -0.248215 -3.990622 28.963835 0.000000 0.000000 0.000000
    3 -0.208309 -3.980618 28.661356 1.570812 -1.555294 -0.000012
    4 0.787082 -4.457595 13.090944 1.592382 -0.057240 -0.288584
end
