// Created by CrowbarDecompiler 0.71
version 1
nodes
  0 "Scene Root" -1
  1 "bone_Weapon" 0
  2 "bone_Weapon_Main" 1
  3 "muzzle" 1
  4 "shell" 1
end
skeleton
  time 0
    0 -0.999512 -2.500000 5.000000 -1.570790 0.000007 -3.141584
    1 5.221351 13.752957 11.342292 -6.283089 -0.000014 -0.000863
    2 -0.248215 -3.990622 28.963835 0.000000 0.000000 0.000000
    3 -0.208309 -3.980618 28.661356 1.570812 -1.555294 -0.000012
    4 0.787082 -4.457595 13.090944 1.592382 -0.057240 -0.288584
  time 1
    0 -0.999512 -2.500000 5.000000 -1.570790 0.000007 -3.141584
    1 5.221351 13.764676 11.342292 -6.282993 -0.000041 -0.001342
    2 -0.248215 -3.990622 28.963835 0.000000 0.000000 0.000000
    3 -0.208309 -3.980618 28.661356 1.570812 -1.555294 -0.000012
    4 0.787082 -4.457595 13.090944 1.592382 -0.057240 -0.288584
  time 2
    0 -0.999512 -2.500000 5.000000 -1.570790 0.000007 -3.141584
    1 5.221351 13.776395 11.342292 -6.282993 -0.000068 -0.001917
    2 -0.248215 -3.990622 28.963835 0.000000 0.000000 0.000000
    3 -0.208309 -3.980618 28.661356 1.570812 -1.555294 -0.000012
    4 0.787082 -4.457595 13.090944 1.592382 -0.057240 -0.288584
  time 3
    0 -0.999512 -2.500000 5.000000 -1.570790 0.000007 -3.141584
    1 5.221351 13.788114 11.342292 -6.282993 -0.000081 -0.002588
    2 -0.248215 -3.990622 28.963835 0.000000 0.000000 0.000000
    3 -0.208309 -3.980618 28.661356 1.570812 -1.555294 -0.000012
    4 0.787082 -4.457595 13.090944 1.592382 -0.057240 -0.288584
  time 4
    0 -0.999512 -2.500000 5.000000 -1.570790 0.000007 -3.141584
    1 5.217445 13.799833 11.342292 -6.282993 -0.000122 -0.003068
    2 -0.248215 -3.990622 28.963835 0.000000 0.000000 0.000000
    3 -0.208309 -3.980618 28.661356 1.570812 -1.555294 -0.000012
    4 0.787082 -4.457595 13.090944 1.592382 -0.057240 -0.288584
  time 5
    0 -0.999512 -2.500000 5.000000 -1.570790 0.000007 -3.141584
    1 5.217445 13.811552 11.342292 -6.282993 -0.000149 -0.003643
    2 -0.248215 -3.990622 28.963835 0.000000 0.000000 0.000000
    3 -0.208309 -3.980618 28.661356 1.570812 -1.555294 -0.000012
    4 0.787082 -4.457595 13.090944 1.592382 -0.057240 -0.288584
  time 6
    0 -0.999512 -2.500000 5.000000 -1.570790 0.000007 -3.141584
    1 5.221351 13.819365 11.342292 -6.282993 -0.000163 -0.004027
    2 -0.248215 -3.990622 28.963835 0.000000 0.000000 0.000000
    3 -0.208309 -3.980618 28.661356 1.570812 -1.555294 -0.000012
    4 0.787082 -4.457595 13.090944 1.592382 -0.057240 -0.288584
  time 7
    0 -0.999512 -2.500000 5.000000 -1.570790 0.000007 -3.141584
    1 5.221351 13.827178 11.342292 -6.282993 -0.000177 -0.004410
    2 -0.248215 -3.990622 28.963835 0.000000 0.000000 0.000000
    3 -0.208309 -3.980618 28.661356 1.570812 -1.555294 -0.000012
    4 0.787082 -4.457595 13.090944 1.592382 -0.057240 -0.288584
  time 8
    0 -0.999512 -2.500000 5.000000 -1.570790 0.000007 -3.141584
    1 5.221351 13.838897 11.342292 -6.283089 -0.000217 -0.004890
    2 -0.248215 -3.990622 28.963835 0.000000 0.000000 0.000000
    3 -0.208309 -3.980618 28.661356 1.570812 -1.555294 -0.000012
    4 0.787082 -4.457595 13.090944 1.592382 -0.057240 -0.288584
  time 9
    0 -0.999512 -2.500000 5.000000 -1.570790 0.000007 -3.141584
    1 5.221351 13.850616 11.342292 -6.283089 -0.000244 -0.005177
    2 -0.248215 -3.990622 28.963835 0.000000 0.000000 0.000000
    3 -0.208309 -3.980618 28.661356 1.570812 -1.555294 -0.000012
    4 0.787082 -4.457595 13.090944 1.592382 -0.057240 -0.288584
  time 10
    0 -0.999512 -2.500000 5.000000 -1.570790 0.000007 -3.141584
    1 5.221351 13.854522 11.342292 -0.000192 -0.000272 -0.005561
    2 -0.248215 -3.990622 28.963835 0.000000 0.000000 0.000000
    3 -0.208309 -3.980618 28.661356 1.570812 -1.555294 -0.000012
    4 0.787082 -4.457595 13.090944 1.592382 -0.057240 -0.288584
  time 11
    0 -0.999512 -2.500000 5.000000 -1.570790 0.000007 -3.141584
    1 5.221351 13.870148 11.342292 -0.000287 -0.000272 -0.005752
    2 -0.248215 -3.990622 28.963835 0.000000 0.000000 0.000000
    3 -0.208309 -3.980618 28.661356 1.570812 -1.555294 -0.000012
    4 0.787082 -4.457595 13.090944 1.592382 -0.057240 -0.288584
  time 12
    0 -0.999512 -2.500000 5.000000 -1.570790 0.000007 -3.141584
    1 5.221351 13.874054 11.342292 -0.000287 -0.000312 -0.006136
    2 -0.248215 -3.990622 28.963835 0.000000 0.000000 0.000000
    3 -0.208309 -3.980618 28.661356 1.570812 -1.555294 -0.000012
    4 0.787082 -4.457595 13.090944 1.592382 -0.057240 -0.288584
  time 13
    0 -0.999512 -2.500000 5.000000 -1.570790 0.000007 -3.141584
    1 5.221351 13.881867 11.342292 -0.000383 -0.000326 -0.006424
    2 -0.248215 -3.990622 28.963835 0.000000 0.000000 0.000000
    3 -0.208309 -3.980618 28.661356 1.570812 -1.555294 -0.000012
    4 0.787082 -4.457595 13.090944 1.592382 -0.057240 -0.288584
  time 14
    0 -0.999512 -2.500000 5.000000 -1.570790 0.000007 -3.141584
    1 5.221351 13.889679 11.342292 -0.000671 -0.000339 -0.006711
    2 -0.248215 -3.990622 28.963835 0.000000 0.000000 0.000000
    3 -0.208309 -3.980618 28.661356 1.570812 -1.555294 -0.000012
    4 0.787082 -4.457595 13.090944 1.592382 -0.057240 -0.288584
  time 15
    0 -0.999512 -2.500000 5.000000 -1.570790 0.000007 -3.141584
    1 5.221351 13.893586 11.342292 -0.000767 -0.000367 -0.006999
    2 -0.248215 -3.990622 28.963835 0.000000 0.000000 0.000000
    3 -0.208309 -3.980618 28.661356 1.570812 -1.555294 -0.000012
    4 0.787082 -4.457595 13.090944 1.592382 -0.057240 -0.288584
  time 16
    0 -0.999512 -2.500000 5.000000 -1.570790 0.000007 -3.141584
    1 5.221351 13.901399 11.342292 -0.000959 -0.000394 -0.007191
    2 -0.248215 -3.990622 28.963835 0.000000 0.000000 0.000000
    3 -0.208309 -3.980618 28.661356 1.570812 -1.555294 -0.000012
    4 0.787082 -4.457595 13.090944 1.592382 -0.057240 -0.288584
  time 17
    0 -0.999512 -2.500000 5.000000 -1.570790 0.000007 -3.141584
    1 5.221351 13.905305 11.342292 -0.001054 -0.000407 -0.007286
    2 -0.248215 -3.990622 28.963835 0.000000 0.000000 0.000000
    3 -0.208309 -3.980618 28.661356 1.570812 -1.555294 -0.000012
    4 0.787082 -4.457595 13.090944 1.592382 -0.057240 -0.288584
  time 18
    0 -0.999512 -2.500000 5.000000 -1.570790 0.000007 -3.141584
    1 5.221351 13.913118 11.342292 -0.001150 -0.000421 -0.007574
    2 -0.248215 -3.990622 28.963835 0.000000 0.000000 0.000000
    3 -0.208309 -3.980618 28.661356 1.570812 -1.555294 -0.000012
    4 0.787082 -4.457595 13.090944 1.592382 -0.057240 -0.288584
  time 19
    0 -0.999512 -2.500000 5.000000 -1.570790 0.000007 -3.141584
    1 5.221351 13.917024 11.342292 -0.001342 -0.000434 -0.007670
    2 -0.248215 -3.990622 28.963835 0.000000 0.000000 0.000000
    3 -0.208309 -3.980618 28.661356 1.570812 -1.555294 -0.000012
    4 0.787082 -4.457595 13.090944 1.592382 -0.057240 -0.288584
  time 20
    0 -0.999512 -2.500000 5.000000 -1.570790 0.000007 -3.141584
    1 5.221351 13.924837 11.342292 -0.001534 -0.000462 -0.007670
    2 -0.248215 -3.990622 28.963835 0.000000 0.000000 0.000000
    3 -0.208309 -3.980618 28.661356 1.570812 -1.555294 -0.000012
    4 0.787082 -4.457595 13.090944 1.592382 -0.057240 -0.288584
  time 21
    0 -0.999512 -2.500000 5.000000 -1.570790 0.000007 -3.141584
    1 5.221351 13.924837 11.342292 -0.001821 -0.000475 -0.007766
    2 -0.248215 -3.990622 28.963835 0.000000 0.000000 0.000000
    3 -0.208309 -3.980618 28.661356 1.570812 -1.555294 -0.000012
    4 0.787082 -4.457595 13.090944 1.592382 -0.057240 -0.288584
  time 22
    0 -0.999512 -2.500000 5.000000 -1.570790 0.000007 -3.141584
    1 5.221351 13.928743 11.342292 -0.002109 -0.000475 -0.007958
    2 -0.248215 -3.990622 28.963835 0.000000 0.000000 0.000000
    3 -0.208309 -3.980618 28.661356 1.570812 -1.555294 -0.000012
    4 0.787082 -4.457595 13.090944 1.592382 -0.057240 -0.288584
  time 23
    0 -0.999512 -2.500000 5.000000 -1.570790 0.000007 -3.141584
    1 5.221351 13.928743 11.342292 -0.002397 -0.000489 -0.007958
    2 -0.248215 -3.990622 28.963835 0.000000 0.000000 0.000000
    3 -0.208309 -3.980618 28.661356 1.570812 -1.555294 -0.000012
    4 0.787082 -4.457595 13.090944 1.592382 -0.057240 -0.288584
  time 24
    0 -0.999512 -2.500000 5.000000 -1.570790 0.000007 -3.141584
    1 5.221351 13.924837 11.342292 -0.002588 -0.000489 -0.007958
    2 -0.248215 -3.990622 28.963835 0.000000 0.000000 0.000000
    3 -0.208309 -3.980618 28.661356 1.570812 -1.555294 -0.000012
    4 0.787082 -4.457595 13.090944 1.592382 -0.057240 -0.288584
  time 25
    0 -0.999512 -2.500000 5.000000 -1.570790 0.000007 -3.141584
    1 5.221351 13.924837 11.342292 -0.002780 -0.000489 -0.007766
    2 -0.248215 -3.990622 28.963835 0.000000 0.000000 0.000000
    3 -0.208309 -3.980618 28.661356 1.570812 -1.555294 -0.000012
    4 0.787082 -4.457595 13.090944 1.592382 -0.057240 -0.288584
  time 26
    0 -0.999512 -2.500000 5.000000 -1.570790 0.000007 -3.141584
    1 5.221351 13.924837 11.342292 -0.003068 -0.000475 -0.007670
    2 -0.248215 -3.990622 28.963835 0.000000 0.000000 0.000000
    3 -0.208309 -3.980618 28.661356 1.570812 -1.555294 -0.000012
    4 0.787082 -4.457595 13.090944 1.592382 -0.057240 -0.288584
  time 27
    0 -0.999512 -2.500000 5.000000 -1.570790 0.000007 -3.141584
    1 5.221351 13.917024 11.342292 -0.003260 -0.000475 -0.007574
    2 -0.248215 -3.990622 28.963835 0.000000 0.000000 0.000000
    3 -0.208309 -3.980618 28.661356 1.570812 -1.555294 -0.000012
    4 0.787082 -4.457595 13.090944 1.592382 -0.057240 -0.288584
  time 28
    0 -0.999512 -2.500000 5.000000 -1.570790 0.000007 -3.141584
    1 5.221351 13.913118 11.342292 -0.003355 -0.000462 -0.007382
    2 -0.248215 -3.990622 28.963835 0.000000 0.000000 0.000000
    3 -0.208309 -3.980618 28.661356 1.570812 -1.555294 -0.000012
    4 0.787082 -4.457595 13.090944 1.592382 -0.057240 -0.288584
  time 29
    0 -0.999512 -2.500000 5.000000 -1.570790 0.000007 -3.141584
    1 5.221351 13.913118 11.342292 -0.003643 -0.000434 -0.007286
    2 -0.248215 -3.990622 28.963835 0.000000 0.000000 0.000000
    3 -0.208309 -3.980618 28.661356 1.570812 -1.555294 -0.000012
    4 0.787082 -4.457595 13.090944 1.592382 -0.057240 -0.288584
  time 30
    0 -0.999512 -2.500000 5.000000 -1.570790 0.000007 -3.141584
    1 5.221351 13.905305 11.342292 -0.003835 -0.000434 -0.007095
    2 -0.248215 -3.990622 28.963835 0.000000 0.000000 0.000000
    3 -0.208309 -3.980618 28.661356 1.570812 -1.555294 -0.000012
    4 0.787082 -4.457595 13.090944 1.592382 -0.057240 -0.288584
  time 31
    0 -0.999512 -2.500000 5.000000 -1.570790 0.000007 -3.141584
    1 5.221351 13.901399 11.342292 -0.003931 -0.000421 -0.006807
    2 -0.248215 -3.990622 28.963835 0.000000 0.000000 0.000000
    3 -0.208309 -3.980618 28.661356 1.570812 -1.555294 -0.000012
    4 0.787082 -4.457595 13.090944 1.592382 -0.057240 -0.288584
  time 32
    0 -0.999512 -2.500000 5.000000 -1.570790 0.000007 -3.141584
    1 5.221351 13.897492 11.342292 -0.004122 -0.000394 -0.006519
    2 -0.248215 -3.990622 28.963835 0.000000 0.000000 0.000000
    3 -0.208309 -3.980618 28.661356 1.570812 -1.555294 -0.000012
    4 0.787082 -4.457595 13.090944 1.592382 -0.057240 -0.288584
  time 33
    0 -0.999512 -2.500000 5.000000 -1.570790 0.000007 -3.141584
    1 5.221351 13.889679 11.342292 -0.004122 -0.000367 -0.006232
    2 -0.248215 -3.990622 28.963835 0.000000 0.000000 0.000000
    3 -0.208309 -3.980618 28.661356 1.570812 -1.555294 -0.000012
    4 0.787082 -4.457595 13.090944 1.592382 -0.057240 -0.288584
  time 34
    0 -0.999512 -2.500000 5.000000 -1.570790 0.000007 -3.141584
    1 5.221351 13.885773 11.342292 -0.004314 -0.000339 -0.005944
    2 -0.248215 -3.990622 28.963835 0.000000 0.000000 0.000000
    3 -0.208309 -3.980618 28.661356 1.570812 -1.555294 -0.000012
    4 0.787082 -4.457595 13.090944 1.592382 -0.057240 -0.288584
  time 35
    0 -0.999512 -2.500000 5.000000 -1.570790 0.000007 -3.141584
    1 5.221351 13.877960 11.342292 -0.004410 -0.000339 -0.005657
    2 -0.248215 -3.990622 28.963835 0.000000 0.000000 0.000000
    3 -0.208309 -3.980618 28.661356 1.570812 -1.555294 -0.000012
    4 0.787082 -4.457595 13.090944 1.592382 -0.057240 -0.288584
  time 36
    0 -0.999512 -2.500000 5.000000 -1.570790 0.000007 -3.141584
    1 5.221351 13.874054 11.342292 -0.004602 -0.000312 -0.005273
    2 -0.248215 -3.990622 28.963835 0.000000 0.000000 0.000000
    3 -0.208309 -3.980618 28.661356 1.570812 -1.555294 -0.000012
    4 0.787082 -4.457595 13.090944 1.592382 -0.057240 -0.288584
  time 37
    0 -0.999512 -2.500000 5.000000 -1.570790 0.000007 -3.141584
    1 5.221351 13.866241 11.342292 -0.004794 -0.000272 -0.004890
    2 -0.248215 -3.990622 28.963835 0.000000 0.000000 0.000000
    3 -0.208309 -3.980618 28.661356 1.570812 -1.555294 -0.000012
    4 0.787082 -4.457595 13.090944 1.592382 -0.057240 -0.288584
  time 38
    0 -0.999512 -2.500000 5.000000 -1.570790 0.000007 -3.141584
    1 5.221351 13.854522 11.342292 -0.004890 -0.000244 -0.004314
    2 -0.248215 -3.990622 28.963835 0.000000 0.000000 0.000000
    3 -0.208309 -3.980618 28.661356 1.570812 -1.555294 -0.000012
    4 0.787082 -4.457595 13.090944 1.592382 -0.057240 -0.288584
  time 39
    0 -0.999512 -2.500000 5.000000 -1.570790 0.000007 -3.141584
    1 5.221351 13.850616 11.342292 -0.004985 -0.000217 -0.003835
    2 -0.248215 -3.990622 28.963835 0.000000 0.000000 0.000000
    3 -0.208309 -3.980618 28.661356 1.570812 -1.555294 -0.000012
    4 0.787082 -4.457595 13.090944 1.592382 -0.057240 -0.288584
  time 40
    0 -0.999512 -2.500000 5.000000 -1.570790 0.000007 -3.141584
    1 5.221351 13.834990 11.342292 -0.005177 -0.000177 -0.003355
    2 -0.248215 -3.990622 28.963835 0.000000 0.000000 0.000000
    3 -0.208309 -3.980618 28.661356 1.570812 -1.555294 -0.000012
    4 0.787082 -4.457595 13.090944 1.592382 -0.057240 -0.288584
  time 41
    0 -0.999512 -2.500000 5.000000 -1.570790 0.000007 -3.141584
    1 5.221351 13.827178 11.342292 -0.005273 -0.000149 -0.002684
    2 -0.248215 -3.990622 28.963835 0.000000 0.000000 0.000000
    3 -0.208309 -3.980618 28.661356 1.570812 -1.555294 -0.000012
    4 0.787082 -4.457595 13.090944 1.592382 -0.057240 -0.288584
  time 42
    0 -0.999512 -2.500000 5.000000 -1.570790 0.000007 -3.141584
    1 5.217445 13.815458 11.342292 -0.005465 -0.000109 -0.002109
    2 -0.248215 -3.990622 28.963835 0.000000 0.000000 0.000000
    3 -0.208309 -3.980618 28.661356 1.570812 -1.555294 -0.000012
    4 0.787082 -4.457595 13.090944 1.592382 -0.057240 -0.288584
  time 43
    0 -0.999512 -2.500000 5.000000 -1.570790 0.000007 -3.141584
    1 5.217445 13.811552 11.342292 -0.005657 -0.000068 -0.001342
    2 -0.248215 -3.990622 28.963835 0.000000 0.000000 0.000000
    3 -0.208309 -3.980618 28.661356 1.570812 -1.555294 -0.000012
    4 0.787082 -4.457595 13.090944 1.592382 -0.057240 -0.288584
  time 44
    0 -0.999512 -2.500000 5.000000 -1.570790 0.000007 -3.141584
    1 5.217445 13.799833 11.342292 -0.005848 -0.000014 -0.000767
    2 -0.248215 -3.990622 28.963835 0.000000 0.000000 0.000000
    3 -0.208309 -3.980618 28.661356 1.570812 -1.555294 -0.000012
    4 0.787082 -4.457595 13.090944 1.592382 -0.057240 -0.288584
  time 45
    0 -0.999512 -2.500000 5.000000 -1.570790 0.000007 -3.141584
    1 5.221351 13.784207 11.342292 -0.006136 0.000000 -6.283089
    2 -0.248215 -3.990622 28.963835 0.000000 0.000000 0.000000
    3 -0.208309 -3.980618 28.661356 1.570812 -1.555294 -0.000012
    4 0.787082 -4.457595 13.090944 1.592382 -0.057240 -0.288584
  time 46
    0 -0.999512 -2.500000 5.000000 -1.570790 0.000007 -3.141584
    1 5.221351 13.772488 11.342292 -0.006232 0.000014 -6.282418
    2 -0.248215 -3.990622 28.963835 0.000000 0.000000 0.000000
    3 -0.208309 -3.980618 28.661356 1.570812 -1.555294 -0.000012
    4 0.787082 -4.457595 13.090944 1.592382 -0.057240 -0.288584
  time 47
    0 -0.999512 -2.500000 5.000000 -1.570790 0.000007 -3.141584
    1 5.221351 13.760769 11.342292 -0.006519 0.000068 -6.281747
    2 -0.248215 -3.990622 28.963835 0.000000 0.000000 0.000000
    3 -0.208309 -3.980618 28.661356 1.570812 -1.555294 -0.000012
    4 0.787082 -4.457595 13.090944 1.592382 -0.057240 -0.288584
  time 48
    0 -0.999512 -2.500000 5.000000 -1.570790 0.000007 -3.141584
    1 5.221351 13.749050 11.342292 -0.006711 0.000081 -6.280980
    2 -0.248215 -3.990622 28.963835 0.000000 0.000000 0.000000
    3 -0.208309 -3.980618 28.661356 1.570812 -1.555294 -0.000012
    4 0.787082 -4.457595 13.090944 1.592382 -0.057240 -0.288584
  time 49
    0 -0.999512 -2.500000 5.000000 -1.570790 0.000007 -3.141584
    1 5.221351 13.749050 11.342292 -0.006711 0.000122 -6.280213
    2 -0.248215 -3.990622 28.963835 0.000000 0.000000 0.000000
    3 -0.208309 -3.980618 28.661356 1.570812 -1.555294 -0.000012
    4 0.787082 -4.457595 13.090944 1.592382 -0.057240 -0.288584
  time 50
    0 -0.999512 -2.500000 5.000000 -1.570790 0.000007 -3.141584
    1 5.221351 13.737331 11.342292 -0.006999 0.000163 -6.279637
    2 -0.248215 -3.990622 28.963835 0.000000 0.000000 0.000000
    3 -0.208309 -3.980618 28.661356 1.570812 -1.555294 -0.000012
    4 0.787082 -4.457595 13.090944 1.592382 -0.057240 -0.288584
  time 51
    0 -0.999512 -2.500000 5.000000 -1.570790 0.000007 -3.141584
    1 5.221351 13.717799 11.342292 -0.007095 0.000190 -6.278966
    2 -0.248215 -3.990622 28.963835 0.000000 0.000000 0.000000
    3 -0.208309 -3.980618 28.661356 1.570812 -1.555294 -0.000012
    4 0.787082 -4.457595 13.090944 1.592382 -0.057240 -0.288584
  time 52
    0 -0.999512 -2.500000 5.000000 -1.570790 0.000007 -3.141584
    1 5.221351 13.706080 11.342292 -0.007095 0.000217 -6.278295
    2 -0.248215 -3.990622 28.963835 0.000000 0.000000 0.000000
    3 -0.208309 -3.980618 28.661356 1.570812 -1.555294 -0.000012
    4 0.787082 -4.457595 13.090944 1.592382 -0.057240 -0.288584
  time 53
    0 -0.999512 -2.500000 5.000000 -1.570790 0.000007 -3.141584
    1 5.221351 13.694361 11.342292 -0.007095 0.000258 -6.277720
    2 -0.248215 -3.990622 28.963835 0.000000 0.000000 0.000000
    3 -0.208309 -3.980618 28.661356 1.570812 -1.555294 -0.000012
    4 0.787082 -4.457595 13.090944 1.592382 -0.057240 -0.288584
  time 54
    0 -0.999512 -2.500000 5.000000 -1.570790 0.000007 -3.141584
    1 5.221351 13.686548 11.342292 -0.007095 0.000272 -6.277049
    2 -0.248215 -3.990622 28.963835 0.000000 0.000000 0.000000
    3 -0.208309 -3.980618 28.661356 1.570812 -1.555294 -0.000012
    4 0.787082 -4.457595 13.090944 1.592382 -0.057240 -0.288584
  time 55
    0 -0.999512 -2.500000 5.000000 -1.570790 0.000007 -3.141584
    1 5.221351 13.674829 11.342292 -0.006999 0.000285 -6.276473
    2 -0.248215 -3.990622 28.963835 0.000000 0.000000 0.000000
    3 -0.208309 -3.980618 28.661356 1.570812 -1.555294 -0.000012
    4 0.787082 -4.457595 13.090944 1.592382 -0.057240 -0.288584
  time 56
    0 -0.999512 -2.500000 5.000000 -1.570790 0.000007 -3.141584
    1 5.221351 13.663110 11.342292 -0.006711 0.000299 -6.275994
    2 -0.248215 -3.990622 28.963835 0.000000 0.000000 0.000000
    3 -0.208309 -3.980618 28.661356 1.570812 -1.555294 -0.000012
    4 0.787082 -4.457595 13.090944 1.592382 -0.057240 -0.288584
  time 57
    0 -0.999512 -2.500000 5.000000 -1.570790 0.000007 -3.141584
    1 5.217445 13.651391 11.342292 -0.006711 0.000326 -6.275515
    2 -0.248215 -3.990622 28.963835 0.000000 0.000000 0.000000
    3 -0.208309 -3.980618 28.661356 1.570812 -1.555294 -0.000012
    4 0.787082 -4.457595 13.090944 1.592382 -0.057240 -0.288584
  time 58
    0 -0.999512 -2.500000 5.000000 -1.570790 0.000007 -3.141584
    1 5.217445 13.643578 11.342292 -0.006519 0.000326 -6.275035
    2 -0.248215 -3.990622 28.963835 0.000000 0.000000 0.000000
    3 -0.208309 -3.980618 28.661356 1.570812 -1.555294 -0.000012
    4 0.787082 -4.457595 13.090944 1.592382 -0.057240 -0.288584
  time 59
    0 -0.999512 -2.500000 5.000000 -1.570790 0.000007 -3.141584
    1 5.217445 13.635765 11.342292 -0.006424 0.000339 -6.274652
    2 -0.248215 -3.990622 28.963835 0.000000 0.000000 0.000000
    3 -0.208309 -3.980618 28.661356 1.570812 -1.555294 -0.000012
    4 0.787082 -4.457595 13.090944 1.592382 -0.057240 -0.288584
  time 60
    0 -0.999512 -2.500000 5.000000 -1.570790 0.000007 -3.141584
    1 5.221351 13.627953 11.342292 -0.006232 0.000339 -6.274364
    2 -0.248215 -3.990622 28.963835 0.000000 0.000000 0.000000
    3 -0.208309 -3.980618 28.661356 1.570812 -1.555294 -0.000012
    4 0.787082 -4.457595 13.090944 1.592382 -0.057240 -0.288584
  time 61
    0 -0.999512 -2.500000 5.000000 -1.570790 0.000007 -3.141584
    1 5.221351 13.624046 11.342292 -0.006136 0.000353 -6.273981
    2 -0.248215 -3.990622 28.963835 0.000000 0.000000 0.000000
    3 -0.208309 -3.980618 28.661356 1.570812 -1.555294 -0.000012
    4 0.787082 -4.457595 13.090944 1.592382 -0.057240 -0.288584
  time 62
    0 -0.999512 -2.500000 5.000000 -1.570790 0.000007 -3.141584
    1 5.221351 13.620140 11.342292 -0.005944 0.000353 -6.273789
    2 -0.248215 -3.990622 28.963835 0.000000 0.000000 0.000000
    3 -0.208309 -3.980618 28.661356 1.570812 -1.555294 -0.000012
    4 0.787082 -4.457595 13.090944 1.592382 -0.057240 -0.288584
  time 63
    0 -0.999512 -2.500000 5.000000 -1.570790 0.000007 -3.141584
    1 5.221351 13.612327 11.342292 -0.005848 0.000367 -6.273501
    2 -0.248215 -3.990622 28.963835 0.000000 0.000000 0.000000
    3 -0.208309 -3.980618 28.661356 1.570812 -1.555294 -0.000012
    4 0.787082 -4.457595 13.090944 1.592382 -0.057240 -0.288584
  time 64
    0 -0.999512 -2.500000 5.000000 -1.570790 0.000007 -3.141584
    1 5.221351 13.612327 11.342292 -0.005752 0.000367 -6.273214
    2 -0.248215 -3.990622 28.963835 0.000000 0.000000 0.000000
    3 -0.208309 -3.980618 28.661356 1.570812 -1.555294 -0.000012
    4 0.787082 -4.457595 13.090944 1.592382 -0.057240 -0.288584
  time 65
    0 -0.999512 -2.500000 5.000000 -1.570790 0.000007 -3.141584
    1 5.221351 13.604514 11.342292 -0.005752 0.000367 -6.273118
    2 -0.248215 -3.990622 28.963835 0.000000 0.000000 0.000000
    3 -0.208309 -3.980618 28.661356 1.570812 -1.555294 -0.000012
    4 0.787082 -4.457595 13.090944 1.592382 -0.057240 -0.288584
  time 66
    0 -0.999512 -2.500000 5.000000 -1.570790 0.000007 -3.141584
    1 5.221351 13.600608 11.342292 -0.005657 0.000367 -6.273022
    2 -0.248215 -3.990622 28.963835 0.000000 0.000000 0.000000
    3 -0.208309 -3.980618 28.661356 1.570812 -1.555294 -0.000012
    4 0.787082 -4.457595 13.090944 1.592382 -0.057240 -0.288584
  time 67
    0 -0.999512 -2.500000 5.000000 -1.570790 0.000007 -3.141584
    1 5.221351 13.596702 11.342292 -0.005561 0.000367 -6.272830
    2 -0.248215 -3.990622 28.963835 0.000000 0.000000 0.000000
    3 -0.208309 -3.980618 28.661356 1.570812 -1.555294 -0.000012
    4 0.787082 -4.457595 13.090944 1.592382 -0.057240 -0.288584
  time 68
    0 -0.999512 -2.500000 5.000000 -1.570790 0.000007 -3.141584
    1 5.221351 13.596702 11.342292 -0.005465 0.000367 -6.272734
    2 -0.248215 -3.990622 28.963835 0.000000 0.000000 0.000000
    3 -0.208309 -3.980618 28.661356 1.570812 -1.555294 -0.000012
    4 0.787082 -4.457595 13.090944 1.592382 -0.057240 -0.288584
  time 69
    0 -0.999512 -2.500000 5.000000 -1.570790 0.000007 -3.141584
    1 5.221351 13.596702 11.342292 -0.005273 0.000353 -6.272734
    2 -0.248215 -3.990622 28.963835 0.000000 0.000000 0.000000
    3 -0.208309 -3.980618 28.661356 1.570812 -1.555294 -0.000012
    4 0.787082 -4.457595 13.090944 1.592382 -0.057240 -0.288584
  time 70
    0 -0.999512 -2.500000 5.000000 -1.570790 0.000007 -3.141584
    1 5.221351 13.596702 11.342292 -0.005273 0.000353 -6.272638
    2 -0.248215 -3.990622 28.963835 0.000000 0.000000 0.000000
    3 -0.208309 -3.980618 28.661356 1.570812 -1.555294 -0.000012
    4 0.787082 -4.457595 13.090944 1.592382 -0.057240 -0.288584
  time 71
    0 -0.999512 -2.500000 5.000000 -1.570790 0.000007 -3.141584
    1 5.221351 13.596702 11.342292 -0.005177 0.000353 -6.272638
    2 -0.248215 -3.990622 28.963835 0.000000 0.000000 0.000000
    3 -0.208309 -3.980618 28.661356 1.570812 -1.555294 -0.000012
    4 0.787082 -4.457595 13.090944 1.592382 -0.057240 -0.288584
  time 72
    0 -0.999512 -2.500000 5.000000 -1.570790 0.000007 -3.141584
    1 5.221351 13.596702 11.342292 -0.004985 0.000339 -6.272638
    2 -0.248215 -3.990622 28.963835 0.000000 0.000000 0.000000
    3 -0.208309 -3.980618 28.661356 1.570812 -1.555294 -0.000012
    4 0.787082 -4.457595 13.090944 1.592382 -0.057240 -0.288584
  time 73
    0 -0.999512 -2.500000 5.000000 -1.570790 0.000007 -3.141584
    1 5.221351 13.596702 11.342292 -0.004985 0.000339 -6.272734
    2 -0.248215 -3.990622 28.963835 0.000000 0.000000 0.000000
    3 -0.208309 -3.980618 28.661356 1.570812 -1.555294 -0.000012
    4 0.787082 -4.457595 13.090944 1.592382 -0.057240 -0.288584
  time 74
    0 -0.999512 -2.500000 5.000000 -1.570790 0.000007 -3.141584
    1 5.221351 13.596702 11.342292 -0.004890 0.000326 -6.272734
    2 -0.248215 -3.990622 28.963835 0.000000 0.000000 0.000000
    3 -0.208309 -3.980618 28.661356 1.570812 -1.555294 -0.000012
    4 0.787082 -4.457595 13.090944 1.592382 -0.057240 -0.288584
  time 75
    0 -0.999512 -2.500000 5.000000 -1.570790 0.000007 -3.141584
    1 5.221351 13.600608 11.342292 -0.004794 0.000326 -6.272830
    2 -0.248215 -3.990622 28.963835 0.000000 0.000000 0.000000
    3 -0.208309 -3.980618 28.661356 1.570812 -1.555294 -0.000012
    4 0.787082 -4.457595 13.090944 1.592382 -0.057240 -0.288584
  time 76
    0 -0.999512 -2.500000 5.000000 -1.570790 0.000007 -3.141584
    1 5.221351 13.600608 11.342292 -0.004602 0.000326 -6.272926
    2 -0.248215 -3.990622 28.963835 0.000000 0.000000 0.000000
    3 -0.208309 -3.980618 28.661356 1.570812 -1.555294 -0.000012
    4 0.787082 -4.457595 13.090944 1.592382 -0.057240 -0.288584
  time 77
    0 -0.999512 -2.500000 5.000000 -1.570790 0.000007 -3.141584
    1 5.221351 13.604514 11.342292 -0.004410 0.000299 -6.273118
    2 -0.248215 -3.990622 28.963835 0.000000 0.000000 0.000000
    3 -0.208309 -3.980618 28.661356 1.570812 -1.555294 -0.000012
    4 0.787082 -4.457595 13.090944 1.592382 -0.057240 -0.288584
  time 78
    0 -0.999512 -2.500000 5.000000 -1.570790 0.000007 -3.141584
    1 5.221351 13.612327 11.342292 -0.004314 0.000299 -6.273214
    2 -0.248215 -3.990622 28.963835 0.000000 0.000000 0.000000
    3 -0.208309 -3.980618 28.661356 1.570812 -1.555294 -0.000012
    4 0.787082 -4.457595 13.090944 1.592382 -0.057240 -0.288584
  time 79
    0 -0.999512 -2.500000 5.000000 -1.570790 0.000007 -3.141584
    1 5.221351 13.612327 11.342292 -0.004218 0.000285 -6.273501
    2 -0.248215 -3.990622 28.963835 0.000000 0.000000 0.000000
    3 -0.208309 -3.980618 28.661356 1.570812 -1.555294 -0.000012
    4 0.787082 -4.457595 13.090944 1.592382 -0.057240 -0.288584
  time 80
    0 -0.999512 -2.500000 5.000000 -1.570790 0.000007 -3.141584
    1 5.221351 13.620140 11.342292 -0.004122 0.000272 -6.273693
    2 -0.248215 -3.990622 28.963835 0.000000 0.000000 0.000000
    3 -0.208309 -3.980618 28.661356 1.570812 -1.555294 -0.000012
    4 0.787082 -4.457595 13.090944 1.592382 -0.057240 -0.288584
  time 81
    0 -0.999512 -2.500000 5.000000 -1.570790 0.000007 -3.141584
    1 5.221351 13.624046 11.342292 -0.004027 0.000272 -6.273885
    2 -0.248215 -3.990622 28.963835 0.000000 0.000000 0.000000
    3 -0.208309 -3.980618 28.661356 1.570812 -1.555294 -0.000012
    4 0.787082 -4.457595 13.090944 1.592382 -0.057240 -0.288584
  time 82
    0 -0.999512 -2.500000 5.000000 -1.570790 0.000007 -3.141584
    1 5.221351 13.624046 11.342292 -0.003931 0.000258 -6.274172
    2 -0.248215 -3.990622 28.963835 0.000000 0.000000 0.000000
    3 -0.208309 -3.980618 28.661356 1.570812 -1.555294 -0.000012
    4 0.787082 -4.457595 13.090944 1.592382 -0.057240 -0.288584
  time 83
    0 -0.999512 -2.500000 5.000000 -1.570790 0.000007 -3.141584
    1 5.221351 13.627953 11.342292 -0.003835 0.000258 -6.274460
    2 -0.248215 -3.990622 28.963835 0.000000 0.000000 0.000000
    3 -0.208309 -3.980618 28.661356 1.570812 -1.555294 -0.000012
    4 0.787082 -4.457595 13.090944 1.592382 -0.057240 -0.288584
  time 84
    0 -0.999512 -2.500000 5.000000 -1.570790 0.000007 -3.141584
    1 5.221351 13.631859 11.342292 -0.003643 0.000258 -6.274748
    2 -0.248215 -3.990622 28.963835 0.000000 0.000000 0.000000
    3 -0.208309 -3.980618 28.661356 1.570812 -1.555294 -0.000012
    4 0.787082 -4.457595 13.090944 1.592382 -0.057240 -0.288584
  time 85
    0 -0.999512 -2.500000 5.000000 -1.570790 0.000007 -3.141584
    1 5.217445 13.639672 11.342292 -0.003451 0.000258 -6.275131
    2 -0.248215 -3.990622 28.963835 0.000000 0.000000 0.000000
    3 -0.208309 -3.980618 28.661356 1.570812 -1.555294 -0.000012
    4 0.787082 -4.457595 13.090944 1.592382 -0.057240 -0.288584
  time 86
    0 -0.999512 -2.500000 5.000000 -1.570790 0.000007 -3.141584
    1 5.217445 13.643578 11.342292 -0.003355 0.000231 -6.275515
    2 -0.248215 -3.990622 28.963835 0.000000 0.000000 0.000000
    3 -0.208309 -3.980618 28.661356 1.570812 -1.555294 -0.000012
    4 0.787082 -4.457595 13.090944 1.592382 -0.057240 -0.288584
  time 87
    0 -0.999512 -2.500000 5.000000 -1.570790 0.000007 -3.141584
    1 5.217445 13.651391 11.342292 -0.003068 0.000231 -6.275994
    2 -0.248215 -3.990622 28.963835 0.000000 0.000000 0.000000
    3 -0.208309 -3.980618 28.661356 1.570812 -1.555294 -0.000012
    4 0.787082 -4.457595 13.090944 1.592382 -0.057240 -0.288584
  time 88
    0 -0.999512 -2.500000 5.000000 -1.570790 0.000007 -3.141584
    1 5.217445 13.659204 11.342292 -0.002876 0.000217 -6.276473
    2 -0.248215 -3.990622 28.963835 0.000000 0.000000 0.000000
    3 -0.208309 -3.980618 28.661356 1.570812 -1.555294 -0.000012
    4 0.787082 -4.457595 13.090944 1.592382 -0.057240 -0.288584
  time 89
    0 -0.999512 -2.500000 5.000000 -1.570790 0.000007 -3.141584
    1 5.221351 13.663110 11.342292 -0.002588 0.000204 -6.276953
    2 -0.248215 -3.990622 28.963835 0.000000 0.000000 0.000000
    3 -0.208309 -3.980618 28.661356 1.570812 -1.555294 -0.000012
    4 0.787082 -4.457595 13.090944 1.592382 -0.057240 -0.288584
  time 90
    0 -0.999512 -2.500000 5.000000 -1.570790 0.000007 -3.141584
    1 5.221351 13.674829 11.342292 -0.002397 0.000190 -6.277432
    2 -0.248215 -3.990622 28.963835 0.000000 0.000000 0.000000
    3 -0.208309 -3.980618 28.661356 1.570812 -1.555294 -0.000012
    4 0.787082 -4.457595 13.090944 1.592382 -0.057240 -0.288584
  time 91
    0 -0.999512 -2.500000 5.000000 -1.570790 0.000007 -3.141584
    1 5.221351 13.678735 11.342292 -0.002109 0.000163 -6.277912
    2 -0.248215 -3.990622 28.963835 0.000000 0.000000 0.000000
    3 -0.208309 -3.980618 28.661356 1.570812 -1.555294 -0.000012
    4 0.787082 -4.457595 13.090944 1.592382 -0.057240 -0.288584
  time 92
    0 -0.999512 -2.500000 5.000000 -1.570790 0.000007 -3.141584
    1 5.221351 13.686548 11.342292 -0.001726 0.000163 -6.278583
    2 -0.248215 -3.990622 28.963835 0.000000 0.000000 0.000000
    3 -0.208309 -3.980618 28.661356 1.570812 -1.555294 -0.000012
    4 0.787082 -4.457595 13.090944 1.592382 -0.057240 -0.288584
  time 93
    0 -0.999512 -2.500000 5.000000 -1.570790 0.000007 -3.141584
    1 5.221351 13.694361 11.342292 -0.001342 0.000122 -6.279158
    2 -0.248215 -3.990622 28.963835 0.000000 0.000000 0.000000
    3 -0.208309 -3.980618 28.661356 1.570812 -1.555294 -0.000012
    4 0.787082 -4.457595 13.090944 1.592382 -0.057240 -0.288584
  time 94
    0 -0.999512 -2.500000 5.000000 -1.570790 0.000007 -3.141584
    1 5.221351 13.702174 11.342292 -0.001054 0.000109 -6.279733
    2 -0.248215 -3.990622 28.963835 0.000000 0.000000 0.000000
    3 -0.208309 -3.980618 28.661356 1.570812 -1.555294 -0.000012
    4 0.787082 -4.457595 13.090944 1.592382 -0.057240 -0.288584
  time 95
    0 -0.999512 -2.500000 5.000000 -1.570790 0.000007 -3.141584
    1 5.221351 13.713893 11.342292 -0.000863 0.000081 -6.280404
    2 -0.248215 -3.990622 28.963835 0.000000 0.000000 0.000000
    3 -0.208309 -3.980618 28.661356 1.570812 -1.555294 -0.000012
    4 0.787082 -4.457595 13.090944 1.592382 -0.057240 -0.288584
  time 96
    0 -0.999512 -2.500000 5.000000 -1.570790 0.000007 -3.141584
    1 5.221351 13.725612 11.342292 -0.000671 0.000068 -6.280980
    2 -0.248215 -3.990622 28.963835 0.000000 0.000000 0.000000
    3 -0.208309 -3.980618 28.661356 1.570812 -1.555294 -0.000012
    4 0.787082 -4.457595 13.090944 1.592382 -0.057240 -0.288584
  time 97
    0 -0.999512 -2.500000 5.000000 -1.570790 0.000007 -3.141584
    1 5.221351 13.729518 11.342292 -0.000287 0.000027 -6.281747
    2 -0.248215 -3.990622 28.963835 0.000000 0.000000 0.000000
    3 -0.208309 -3.980618 28.661356 1.570812 -1.555294 -0.000012
    4 0.787082 -4.457595 13.090944 1.592382 -0.057240 -0.288584
  time 98
    0 -0.999512 -2.500000 5.000000 -1.570790 0.000007 -3.141584
    1 5.221351 13.741237 11.342292 -0.000287 0.000000 -6.282418
    2 -0.248215 -3.990622 28.963835 0.000000 0.000000 0.000000
    3 -0.208309 -3.980618 28.661356 1.570812 -1.555294 -0.000012
    4 0.787082 -4.457595 13.090944 1.592382 -0.057240 -0.288584
  time 99
    0 -0.999512 -2.500000 5.000000 -1.570790 0.000007 -3.141584
    1 5.221351 13.749050 11.342292 0.000000 0.000000 0.000000
    2 -0.248215 -3.990622 28.963835 0.000000 0.000000 0.000000
    3 -0.208309 -3.980618 28.661356 1.570812 -1.555294 -0.000012
    4 0.787082 -4.457595 13.090944 1.592382 -0.057240 -0.288584
  time 100
    0 -0.999512 -2.500000 5.000000 -1.570790 0.000007 -3.141584
    1 5.221351 13.752957 11.342292 -6.283089 -0.000014 -0.000863
    2 -0.248215 -3.990622 28.963835 0.000000 0.000000 0.000000
    3 -0.208309 -3.980618 28.661356 1.570812 -1.555294 -0.000012
    4 0.787082 -4.457595 13.090944 1.592382 -0.057240 -0.288584
end
