// Created by CrowbarDecompiler 0.71
version 1
nodes
  0 "Scene Root" -1
  1 "bone_Weapon" 0
  2 "bone_Weapon_Main" 1
  3 "muzzle" 1
  4 "shell" 1
end
skeleton
  time 0
    0 -0.999512 -2.500000 5.000000 -1.570790 0.000007 -3.141584
    1 5.221351 13.749050 11.342292 0.000000 0.000000 0.000000
    2 -0.248215 -3.990622 28.963835 0.000000 0.000000 0.000000
    3 -0.208309 -3.980618 28.661356 1.570812 -1.555294 -0.000012
    4 0.787082 -4.457595 13.090944 1.592382 -0.057240 -0.288584
  time 1
    0 -0.999512 -2.500000 5.000000 -1.570790 0.000007 -3.141584
    1 5.221351 13.956088 11.100097 -0.044487 0.003354 -0.000287
    2 -0.248215 -3.990622 28.963835 0.000000 0.000000 0.000000
    3 -0.208309 -3.980618 28.661356 1.570812 -1.555294 -0.000012
    4 0.787082 -4.457595 13.090944 1.592382 -0.057240 -0.288584
  time 2
    0 -0.999512 -2.500000 5.000000 -1.570790 0.000007 -3.141584
    1 5.221351 14.151406 10.936029 -0.067881 0.010210 -0.000767
    2 -0.248215 -3.990622 28.963835 0.000000 0.000000 0.000000
    3 -0.208309 -3.980618 28.661356 1.570812 -1.555294 -0.000012
    4 0.787082 -4.457595 13.090944 1.592382 -0.057240 -0.288584
  time 3
    0 -0.999512 -2.500000 5.000000 -1.570790 0.000007 -3.141584
    1 5.221351 14.362350 10.853996 -0.072866 0.019429 -0.000959
    2 -0.248215 -3.990622 28.963835 0.000000 0.000000 0.000000
    3 -0.208309 -3.980618 28.661356 1.570812 -1.555294 -0.000012
    4 0.787082 -4.457595 13.090944 1.592382 -0.057240 -0.288584
  time 4
    0 -0.999512 -2.500000 5.000000 -1.570790 0.000007 -3.141584
    1 5.182288 14.635796 10.811026 -0.031927 0.033943 -0.000287
    2 -0.248215 -3.990622 28.963835 0.000000 0.000000 0.000000
    3 -0.208309 -3.980618 28.661356 1.570812 -1.555294 -0.000012
    4 0.787082 -4.457595 13.090944 1.592382 -0.057240 -0.288584
  time 5
    0 -0.999512 -2.500000 5.000000 -1.570790 0.000007 -3.141584
    1 5.131505 14.905335 10.807119 -6.238698 0.046977 -6.281171
    2 -0.248215 -3.990622 28.963835 0.000000 0.000000 0.000000
    3 -0.208309 -3.980618 28.661356 1.570812 -1.555294 -0.000012
    4 0.787082 -4.457595 13.090944 1.592382 -0.057240 -0.288584
  time 6
    0 -0.999512 -2.500000 5.000000 -1.570790 0.000007 -3.141584
    1 5.104160 15.112373 10.853996 -6.139849 0.048348 -6.270913
    2 -0.248215 -3.990622 28.963835 0.000000 0.000000 0.000000
    3 -0.208309 -3.980618 28.661356 1.570812 -1.555294 -0.000012
    4 0.787082 -4.457595 13.090944 1.592382 -0.057240 -0.288584
  time 7
    0 -0.999512 -2.500000 5.000000 -1.570790 0.000007 -3.141584
    1 5.166662 15.241283 11.029782 -6.024126 0.019184 -6.227960
    2 -0.248215 -3.990622 28.963835 0.000000 0.000000 0.000000
    3 -0.208309 -3.980618 28.661356 1.570812 -1.555294 -0.000012
    4 0.787082 -4.457595 13.090944 1.592382 -0.057240 -0.288584
  time 8
    0 -0.999512 -2.500000 5.000000 -1.570790 0.000007 -3.141584
    1 5.319011 15.311598 11.279790 -5.921154 -0.014785 -6.172255
    2 -0.248215 -3.990622 28.963835 0.000000 0.000000 0.000000
    3 -0.208309 -3.980618 28.661356 1.570812 -1.555294 -0.000012
    4 0.787082 -4.457595 13.090944 1.592382 -0.057240 -0.288584
  time 9
    0 -0.999512 -2.500000 5.000000 -1.570790 0.000007 -3.141584
    1 5.514329 15.241283 11.549329 -5.847809 -0.037351 -6.124701
    2 -0.248215 -3.990622 28.963835 0.000000 0.000000 0.000000
    3 -0.208309 -3.980618 28.661356 1.570812 -1.555294 -0.000012
    4 0.787082 -4.457595 13.090944 1.592382 -0.057240 -0.288584
  time 10
    0 -0.999512 -2.500000 5.000000 -1.570790 0.000007 -3.141584
    1 5.662771 14.893616 11.748554 -5.818854 -0.048457 -6.088459
    2 -0.248215 -3.990622 28.963835 0.000000 0.000000 0.000000
    3 -0.208309 -3.980618 28.661356 1.570812 -1.555294 -0.000012
    4 0.787082 -4.457595 13.090944 1.592382 -0.057240 -0.288584
  time 11
    0 -0.999512 -2.500000 5.000000 -1.570790 0.000007 -3.141584
    1 5.674490 14.585013 11.877464 -5.811184 -0.056454 -6.052314
    2 -0.248215 -3.990622 28.963835 0.000000 0.000000 0.000000
    3 -0.208309 -3.980618 28.661356 1.570812 -1.555294 -0.000012
    4 0.787082 -4.457595 13.090944 1.592382 -0.057240 -0.288584
  time 12
    0 -0.999512 -2.500000 5.000000 -1.570790 0.000007 -3.141584
    1 5.561206 14.311567 11.990749 -5.813197 -0.061314 -6.014442
    2 -0.248215 -3.990622 28.963835 0.000000 0.000000 0.000000
    3 -0.208309 -3.980618 28.661356 1.570812 -1.555294 -0.000012
    4 0.787082 -4.457595 13.090944 1.592382 -0.057240 -0.288584
  time 13
    0 -0.999512 -2.500000 5.000000 -1.570790 0.000007 -3.141584
    1 5.416670 14.155313 12.092315 -5.814156 -0.062903 -5.990377
    2 -0.248215 -3.990622 28.963835 0.000000 0.000000 0.000000
    3 -0.208309 -3.980618 28.661356 1.570812 -1.555294 -0.000012
    4 0.787082 -4.457595 13.090944 1.592382 -0.057240 -0.288584
  time 14
    0 -0.999512 -2.500000 5.000000 -1.570790 0.000007 -3.141584
    1 5.319011 14.135781 12.162629 -5.807061 -0.062984 -5.981461
    2 -0.248215 -3.990622 28.963835 0.000000 0.000000 0.000000
    3 -0.208309 -3.980618 28.661356 1.570812 -1.555294 -0.000012
    4 0.787082 -4.457595 13.090944 1.592382 -0.057240 -0.288584
  time 15
    0 -0.999512 -2.500000 5.000000 -1.570790 0.000007 -3.141584
    1 5.225258 14.151406 12.197787 -5.794309 -0.062563 -5.978201
    2 -0.248215 -3.990622 28.963835 0.000000 0.000000 0.000000
    3 -0.208309 -3.980618 28.661356 1.570812 -1.555294 -0.000012
    4 0.787082 -4.457595 13.090944 1.592382 -0.057240 -0.288584
  time 16
    0 -0.999512 -2.500000 5.000000 -1.570790 0.000007 -3.141584
    1 5.127599 14.182657 12.229038 -5.779065 -0.061966 -5.976283
    2 -0.248215 -3.990622 28.963835 0.000000 0.000000 0.000000
    3 -0.208309 -3.980618 28.661356 1.570812 -1.555294 -0.000012
    4 0.787082 -4.457595 13.090944 1.592382 -0.057240 -0.288584
  time 17
    0 -0.999512 -2.500000 5.000000 -1.570790 0.000007 -3.141584
    1 5.033846 14.217814 12.275914 -5.765163 -0.061301 -5.974941
    2 -0.248215 -3.990622 28.963835 0.000000 0.000000 0.000000
    3 -0.208309 -3.980618 28.661356 1.570812 -1.555294 -0.000012
    4 0.787082 -4.457595 13.090944 1.592382 -0.057240 -0.288584
  time 18
    0 -0.999512 -2.500000 5.000000 -1.570790 0.000007 -3.141584
    1 4.932280 14.252972 12.342322 -5.754233 -0.060568 -5.973407
    2 -0.248215 -3.990622 28.963835 0.000000 0.000000 0.000000
    3 -0.208309 -3.980618 28.661356 1.570812 -1.555294 -0.000012
    4 0.787082 -4.457595 13.090944 1.592382 -0.057240 -0.288584
  time 19
    0 -0.999512 -2.500000 5.000000 -1.570790 0.000007 -3.141584
    1 4.842434 14.295942 12.514203 -5.754521 -0.059902 -5.971106
    2 -0.248215 -3.990622 28.963835 0.000000 0.000000 0.000000
    3 -0.208309 -3.980618 28.661356 1.570812 -1.555294 -0.000012
    4 0.787082 -4.457595 13.090944 1.592382 -0.057240 -0.288584
  time 20
    0 -0.999512 -2.500000 5.000000 -1.570790 0.000007 -3.141584
    1 4.752587 14.319380 12.877495 -5.791912 -0.059210 -5.969093
    2 -0.248215 -3.990622 28.963835 0.000000 0.000000 0.000000
    3 -0.208309 -3.980618 28.661356 1.570812 -1.555294 -0.000012
    4 0.787082 -4.457595 13.090944 1.592382 -0.057240 -0.288584
  time 21
    0 -0.999512 -2.500000 5.000000 -1.570790 0.000007 -3.141584
    1 4.658834 14.374069 13.346259 -5.851260 -0.058354 -5.965737
    2 -0.248215 -3.990622 28.963835 0.000000 0.000000 0.000000
    3 -0.208309 -3.980618 28.661356 1.570812 -1.555294 -0.000012
    4 0.787082 -4.457595 13.090944 1.592382 -0.057240 -0.288584
  time 22
    0 -0.999512 -2.500000 5.000000 -1.570790 0.000007 -3.141584
    1 4.580707 14.510792 13.506420 -5.874271 -0.057350 -5.956437
    2 -0.248215 -3.990622 28.963835 0.000000 0.000000 0.000000
    3 -0.208309 -3.980618 28.661356 1.570812 -1.555294 -0.000012
    4 0.787082 -4.457595 13.090944 1.592382 -0.057240 -0.288584
  time 23
    0 -0.999512 -2.500000 5.000000 -1.570790 0.000007 -3.141584
    1 4.518205 14.741268 13.467357 -5.870435 -0.056236 -5.942727
    2 -0.248215 -3.990622 28.963835 0.000000 0.000000 0.000000
    3 -0.208309 -3.980618 28.661356 1.570812 -1.555294 -0.000012
    4 0.787082 -4.457595 13.090944 1.592382 -0.057240 -0.288584
  time 24
    0 -0.999512 -2.500000 5.000000 -1.570790 0.000007 -3.141584
    1 4.467422 15.030339 13.365791 -5.860081 -0.055150 -5.926332
    2 -0.248215 -3.990622 28.963835 0.000000 0.000000 0.000000
    3 -0.208309 -3.980618 28.661356 1.570812 -1.555294 -0.000012
    4 0.787082 -4.457595 13.090944 1.592382 -0.057240 -0.288584
  time 25
    0 -0.999512 -2.500000 5.000000 -1.570790 0.000007 -3.141584
    1 4.412733 15.315504 13.217349 -5.847521 -0.054105 -5.907348
    2 -0.248215 -3.990622 28.963835 0.000000 0.000000 0.000000
    3 -0.208309 -3.980618 28.661356 1.570812 -1.555294 -0.000012
    4 0.787082 -4.457595 13.090944 1.592382 -0.057240 -0.288584
  time 26
    0 -0.999512 -2.500000 5.000000 -1.570790 0.000007 -3.141584
    1 4.338512 15.553793 13.053282 -5.836687 -0.053182 -5.886351
    2 -0.248215 -3.990622 28.963835 0.000000 0.000000 0.000000
    3 -0.208309 -3.980618 28.661356 1.570812 -1.555294 -0.000012
    4 0.787082 -4.457595 13.090944 1.592382 -0.057240 -0.288584
  time 27
    0 -0.999512 -2.500000 5.000000 -1.570790 0.000007 -3.141584
    1 4.244759 15.702235 12.881401 -5.829880 -0.052340 -5.862957
    2 -0.248215 -3.990622 28.963835 0.000000 0.000000 0.000000
    3 -0.208309 -3.980618 28.661356 1.570812 -1.555294 -0.000012
    4 0.787082 -4.457595 13.090944 1.592382 -0.057240 -0.288584
  time 28
    0 -0.999512 -2.500000 5.000000 -1.570790 0.000007 -3.141584
    1 4.127568 15.682703 12.697802 -5.831126 -0.053575 -5.838221
    2 -0.248215 -3.990622 28.963835 0.000000 0.000000 0.000000
    3 -0.208309 -3.980618 28.661356 1.570812 -1.555294 -0.000012
    4 0.787082 -4.457595 13.090944 1.592382 -0.057240 -0.288584
  time 29
    0 -0.999512 -2.500000 5.000000 -1.570790 0.000007 -3.141584
    1 4.022096 15.514729 12.482952 -5.837358 -0.060282 -5.812142
    2 -0.248215 -3.990622 28.963835 0.000000 0.000000 0.000000
    3 -0.208309 -3.980618 28.661356 1.570812 -1.555294 -0.000012
    4 0.787082 -4.457595 13.090944 1.592382 -0.057240 -0.288584
  time 30
    0 -0.999512 -2.500000 5.000000 -1.570790 0.000007 -3.141584
    1 3.936156 15.249096 12.225131 -5.848192 -0.073031 -5.783379
    2 -0.248215 -3.990622 28.963835 0.000000 0.000000 0.000000
    3 -0.208309 -3.980618 28.661356 1.570812 -1.555294 -0.000012
    4 0.787082 -4.457595 13.090944 1.592382 -0.057240 -0.288584
  time 31
    0 -0.999512 -2.500000 5.000000 -1.570790 0.000007 -3.141584
    1 3.854122 14.971744 11.998562 -5.863628 -0.091089 -5.752124
    2 -0.248215 -3.990622 28.963835 0.000000 0.000000 0.000000
    3 -0.208309 -3.980618 28.661356 1.570812 -1.555294 -0.000012
    4 0.787082 -4.457595 13.090944 1.592382 -0.057240 -0.288584
  time 32
    0 -0.999512 -2.500000 5.000000 -1.570790 0.000007 -3.141584
    1 3.775995 14.741268 11.814963 -5.883187 -0.112704 -5.716649
    2 -0.248215 -3.990622 28.963835 0.000000 0.000000 0.000000
    3 -0.208309 -3.980618 28.661356 1.570812 -1.555294 -0.000012
    4 0.787082 -4.457595 13.090944 1.592382 -0.057240 -0.288584
  time 33
    0 -0.999512 -2.500000 5.000000 -1.570790 0.000007 -3.141584
    1 3.693961 14.616264 11.725116 -5.907156 -0.136885 -5.675997
    2 -0.248215 -3.990622 28.963835 0.000000 0.000000 0.000000
    3 -0.208309 -3.980618 28.661356 1.570812 -1.555294 -0.000012
    4 0.787082 -4.457595 13.090944 1.592382 -0.057240 -0.288584
  time 34
    0 -0.999512 -2.500000 5.000000 -1.570790 0.000007 -3.141584
    1 3.627553 14.635796 11.756367 -5.930934 -0.161378 -5.631607
    2 -0.248215 -3.990622 28.963835 0.000000 0.000000 0.000000
    3 -0.208309 -3.980618 28.661356 1.570812 -1.555294 -0.000012
    4 0.787082 -4.457595 13.090944 1.592382 -0.057240 -0.288584
  time 35
    0 -0.999512 -2.500000 5.000000 -1.570790 0.000007 -3.141584
    1 3.588489 14.713923 11.830588 -5.952027 -0.184269 -5.585777
    2 -0.248215 -3.990622 28.963835 0.000000 0.000000 0.000000
    3 -0.208309 -3.980618 28.661356 1.570812 -1.555294 -0.000012
    4 0.787082 -4.457595 13.090944 1.592382 -0.057240 -0.288584
  time 36
    0 -0.999512 -2.500000 5.000000 -1.570790 0.000007 -3.141584
    1 3.584583 14.811583 11.936060 -5.969764 -0.203562 -5.542729
    2 -0.248215 -3.990622 28.963835 0.000000 0.000000 0.000000
    3 -0.208309 -3.980618 28.661356 1.570812 -1.555294 -0.000012
    4 0.787082 -4.457595 13.090944 1.592382 -0.057240 -0.288584
  time 37
    0 -0.999512 -2.500000 5.000000 -1.570790 0.000007 -3.141584
    1 3.600208 14.909242 12.041532 -5.982036 -0.216894 -5.509460
    2 -0.248215 -3.990622 28.963835 0.000000 0.000000 0.000000
    3 -0.208309 -3.980618 28.661356 1.570812 -1.555294 -0.000012
    4 0.787082 -4.457595 13.090944 1.592382 -0.057240 -0.288584
  time 38
    0 -0.999512 -2.500000 5.000000 -1.570790 0.000007 -3.141584
    1 3.627553 14.979556 12.115753 -5.989898 -0.225502 -5.486929
    2 -0.248215 -3.990622 28.963835 0.000000 0.000000 0.000000
    3 -0.208309 -3.980618 28.661356 1.570812 -1.555294 -0.000012
    4 0.787082 -4.457595 13.090944 1.592382 -0.057240 -0.288584
  time 39
    0 -0.999512 -2.500000 5.000000 -1.570790 0.000007 -3.141584
    1 3.670523 14.995182 12.143098 -6.001499 -0.228231 -5.480601
    2 -0.248215 -3.990622 28.963835 0.000000 0.000000 0.000000
    3 -0.208309 -3.980618 28.661356 1.570812 -1.555294 -0.000012
    4 0.787082 -4.457595 13.090944 1.592382 -0.057240 -0.288584
  time 40
    0 -0.999512 -2.500000 5.000000 -1.570790 0.000007 -3.141584
    1 3.916624 14.772519 12.092315 -6.084720 -0.221674 -5.519623
    2 -0.248215 -3.990622 28.963835 0.000000 0.000000 0.000000
    3 -0.208309 -3.980618 28.661356 1.570812 -1.555294 -0.000012
    4 0.787082 -4.457595 13.090944 1.592382 -0.057240 -0.288584
  time 41
    0 -0.999512 -2.500000 5.000000 -1.570790 0.000007 -3.141584
    1 4.326793 14.678766 12.088408 -6.143972 -0.208259 -5.610705
    2 -0.248215 -3.990622 28.963835 0.000000 0.000000 0.000000
    3 -0.208309 -3.980618 28.661356 1.570812 -1.555294 -0.000012
    4 0.787082 -4.457595 13.090944 1.592382 -0.057240 -0.288584
  time 42
    0 -0.999512 -2.500000 5.000000 -1.570790 0.000007 -3.141584
    1 4.557269 14.854553 12.178255 -6.118660 -0.179965 -5.734195
    2 -0.248215 -3.990622 28.963835 0.000000 0.000000 0.000000
    3 -0.208309 -3.980618 28.661356 1.570812 -1.555294 -0.000012
    4 0.787082 -4.457595 13.090944 1.592382 -0.057240 -0.288584
  time 43
    0 -0.999512 -2.500000 5.000000 -1.570790 0.000007 -3.141584
    1 4.791651 15.108467 12.326697 -6.071010 -0.130707 -5.889803
    2 -0.248215 -3.990622 28.963835 0.000000 0.000000 0.000000
    3 -0.208309 -3.980618 28.661356 1.570812 -1.555294 -0.000012
    4 0.787082 -4.457595 13.090944 1.592382 -0.057240 -0.288584
  time 44
    0 -0.999512 -2.500000 5.000000 -1.570790 0.000007 -3.141584
    1 5.174475 15.280347 12.463420 -6.030262 -0.061980 -6.067558
    2 -0.248215 -3.990622 28.963835 0.000000 0.000000 0.000000
    3 -0.208309 -3.980618 28.661356 1.570812 -1.555294 -0.000012
    4 0.787082 -4.457595 13.090944 1.592382 -0.057240 -0.288584
  time 45
    0 -0.999512 -2.500000 5.000000 -1.570790 0.000007 -3.141584
    1 5.729179 15.385819 12.604049 -6.005718 0.019293 -6.253751
    2 -0.248215 -3.990622 28.963835 0.000000 0.000000 0.000000
    3 -0.208309 -3.980618 28.661356 1.570812 -1.555294 -0.000012
    4 0.787082 -4.457595 13.090944 1.592382 -0.057240 -0.288584
  time 46
    0 -0.999512 -2.500000 5.000000 -1.570790 0.000007 -3.141584
    1 6.334667 15.499104 12.768117 -6.006868 0.102114 -0.173728
    2 -0.248215 -3.990622 28.963835 0.000000 0.000000 0.000000
    3 -0.208309 -3.980618 28.661356 1.570812 -1.555294 -0.000012
    4 0.787082 -4.457595 13.090944 1.592382 -0.057240 -0.288584
  time 47
    0 -0.999512 -2.500000 5.000000 -1.570790 0.000007 -3.141584
    1 6.924528 15.608482 12.932184 -6.035439 0.173068 -0.386766
    2 -0.248215 -3.990622 28.963835 0.000000 0.000000 0.000000
    3 -0.208309 -3.980618 28.661356 1.570812 -1.555294 -0.000012
    4 0.787082 -4.457595 13.090944 1.592382 -0.057240 -0.288584
  time 48
    0 -0.999512 -2.500000 5.000000 -1.570790 0.000007 -3.141584
    1 7.479233 15.702235 13.080626 -6.085583 0.219800 -0.596736
    2 -0.248215 -3.990622 28.963835 0.000000 0.000000 0.000000
    3 -0.208309 -3.980618 28.661356 1.570812 -1.555294 -0.000012
    4 0.787082 -4.457595 13.090944 1.592382 -0.057240 -0.288584
  time 49
    0 -0.999512 -2.500000 5.000000 -1.570790 0.000007 -3.141584
    1 7.975342 15.780362 13.225162 -6.146944 0.234803 -0.794914
    2 -0.248215 -3.990622 28.963835 0.000000 0.000000 0.000000
    3 -0.208309 -3.980618 28.661356 1.570812 -1.555294 -0.000012
    4 0.787082 -4.457595 13.090944 1.592382 -0.057240 -0.288584
  time 50
    0 -0.999512 -2.500000 5.000000 -1.570790 0.000007 -3.141584
    1 8.389417 15.842864 13.338446 -6.203991 0.224973 -0.967108
    2 -0.248215 -3.990622 28.963835 0.000000 0.000000 0.000000
    3 -0.208309 -3.980618 28.661356 1.570812 -1.555294 -0.000012
    4 0.787082 -4.457595 13.090944 1.592382 -0.057240 -0.288584
  time 51
    0 -0.999512 -2.500000 5.000000 -1.570790 0.000007 -3.141584
    1 8.701926 15.885834 13.420480 -6.246752 0.199950 -1.101048
    2 -0.248215 -3.990622 28.963835 0.000000 0.000000 0.000000
    3 -0.208309 -3.980618 28.661356 1.570812 -1.555294 -0.000012
    4 0.787082 -4.457595 13.090944 1.592382 -0.057240 -0.288584
  time 52
    0 -0.999512 -2.500000 5.000000 -1.570790 0.000007 -3.141584
    1 8.811305 15.897553 13.443918 -6.268803 0.173217 -1.183694
    2 -0.248215 -3.990622 28.963835 0.000000 0.000000 0.000000
    3 -0.208309 -3.980618 28.661356 1.570812 -1.555294 -0.000012
    4 0.787082 -4.457595 13.090944 1.592382 -0.057240 -0.288584
  time 53
    0 -0.999512 -2.500000 5.000000 -1.570790 0.000007 -3.141584
    1 8.666769 15.745205 13.404855 -0.001150 0.152023 -1.225400
    2 -0.248215 -3.990622 28.963835 0.000000 0.000000 0.000000
    3 -0.208309 -3.980618 28.661356 1.570812 -1.555294 -0.000012
    4 0.787082 -4.457595 13.090944 1.592382 -0.057240 -0.288584
  time 54
    0 -0.999512 -2.500000 5.000000 -1.570790 0.000007 -3.141584
    1 8.420668 15.561605 13.232975 -6.282130 0.135812 -1.238919
    2 -0.248215 -3.990622 28.963835 0.000000 0.000000 0.000000
    3 -0.208309 -3.980618 28.661356 1.570812 -1.555294 -0.000012
    4 0.787082 -4.457595 13.090944 1.592382 -0.057240 -0.288584
  time 55
    0 -0.999512 -2.500000 5.000000 -1.570790 0.000007 -3.141584
    1 8.330821 15.604576 10.885247 -6.212524 0.119791 -1.237385
    2 -0.248215 -3.990622 28.963835 0.000000 0.000000 0.000000
    3 -0.208309 -3.980618 28.661356 1.570812 -1.555294 -0.000012
    4 0.787082 -4.457595 13.090944 1.592382 -0.057240 -0.288584
  time 56
    0 -0.999512 -2.500000 5.000000 -1.570790 0.000007 -3.141584
    1 8.319102 15.624107 9.096130 -6.148190 0.102249 -1.232783
    2 -0.248215 -3.990622 28.963835 0.000000 0.000000 0.000000
    3 -0.208309 -3.980618 28.661356 1.570812 -1.555294 -0.000012
    4 0.787082 -4.457595 13.090944 1.592382 -0.057240 -0.288584
  time 57
    0 -0.999512 -2.500000 5.000000 -1.570790 0.000007 -3.141584
    1 8.412855 15.577231 9.244572 -6.125468 0.081300 -1.225208
    2 -0.248215 -3.990622 28.963835 0.000000 0.000000 0.000000
    3 -0.208309 -3.980618 28.661356 1.570812 -1.555294 -0.000012
    4 0.787082 -4.457595 13.090944 1.592382 -0.057240 -0.288584
  time 58
    0 -0.999512 -2.500000 5.000000 -1.570790 0.000007 -3.141584
    1 8.612080 15.452227 9.760212 -6.145410 0.055734 -1.209005
    2 -0.248215 -3.990622 28.963835 0.000000 0.000000 0.000000
    3 -0.208309 -3.980618 28.661356 1.570812 -1.555294 -0.000012
    4 0.787082 -4.457595 13.090944 1.592382 -0.057240 -0.288584
  time 59
    0 -0.999512 -2.500000 5.000000 -1.570790 0.000007 -3.141584
    1 8.780054 15.292066 10.252415 -6.197279 0.032300 -1.180242
    2 -0.248215 -3.990622 28.963835 0.000000 0.000000 0.000000
    3 -0.208309 -3.980618 28.661356 1.570812 -1.555294 -0.000012
    4 0.787082 -4.457595 13.090944 1.592382 -0.057240 -0.288584
  time 60
    0 -0.999512 -2.500000 5.000000 -1.570790 0.000007 -3.141584
    1 8.826930 15.088935 10.596175 -6.267940 0.014745 -1.130195
    2 -0.248215 -3.990622 28.963835 0.000000 0.000000 0.000000
    3 -0.208309 -3.980618 28.661356 1.570812 -1.555294 -0.000012
    4 0.787082 -4.457595 13.090944 1.592382 -0.057240 -0.288584
  time 61
    0 -0.999512 -2.500000 5.000000 -1.570790 0.000007 -3.141584
    1 8.682395 14.870178 10.811026 -0.032981 0.002892 -1.031921
    2 -0.248215 -3.990622 28.963835 0.000000 0.000000 0.000000
    3 -0.208309 -3.980618 28.661356 1.570812 -1.555294 -0.000012
    4 0.787082 -4.457595 13.090944 1.592382 -0.057240 -0.288584
  time 62
    0 -0.999512 -2.500000 5.000000 -1.570790 0.000007 -3.141584
    1 8.408949 14.639702 11.021970 -0.066251 -0.005675 -0.905268
    2 -0.248215 -3.990622 28.963835 0.000000 0.000000 0.000000
    3 -0.208309 -3.980618 28.661356 1.570812 -1.555294 -0.000012
    4 0.787082 -4.457595 13.090944 1.592382 -0.057240 -0.288584
  time 63
    0 -0.999512 -2.500000 5.000000 -1.570790 0.000007 -3.141584
    1 8.041750 14.432665 11.213382 -0.088686 -0.010740 -0.771424
    2 -0.248215 -3.990622 28.963835 0.000000 0.000000 0.000000
    3 -0.208309 -3.980618 28.661356 1.570812 -1.555294 -0.000012
    4 0.787082 -4.457595 13.090944 1.592382 -0.057240 -0.288584
  time 64
    0 -0.999512 -2.500000 5.000000 -1.570790 0.000007 -3.141584
    1 7.592517 14.249065 11.373543 -0.094055 -0.008594 -0.643428
    2 -0.248215 -3.990622 28.963835 0.000000 0.000000 0.000000
    3 -0.208309 -3.980618 28.661356 1.570812 -1.555294 -0.000012
    4 0.787082 -4.457595 13.090944 1.592382 -0.057240 -0.288584
  time 65
    0 -0.999512 -2.500000 5.000000 -1.570790 0.000007 -3.141584
    1 7.143285 14.100623 11.498547 -0.090987 0.003367 -0.518980
    2 -0.248215 -3.990622 28.963835 0.000000 0.000000 0.000000
    3 -0.208309 -3.980618 28.661356 1.570812 -1.555294 -0.000012
    4 0.787082 -4.457595 13.090944 1.592382 -0.057240 -0.288584
  time 66
    0 -0.999512 -2.500000 5.000000 -1.570790 0.000007 -3.141584
    1 6.697959 13.983432 11.588393 -0.080536 0.021520 -0.393670
    2 -0.248215 -3.990622 28.963835 0.000000 0.000000 0.000000
    3 -0.208309 -3.980618 28.661356 1.570812 -1.555294 -0.000012
    4 0.787082 -4.457595 13.090944 1.592382 -0.057240 -0.288584
  time 67
    0 -0.999512 -2.500000 5.000000 -1.570790 0.000007 -3.141584
    1 6.283884 13.874054 11.623550 -0.063758 0.033373 -0.277946
    2 -0.248215 -3.990622 28.963835 0.000000 0.000000 0.000000
    3 -0.208309 -3.980618 28.661356 1.570812 -1.555294 -0.000012
    4 0.787082 -4.457595 13.090944 1.592382 -0.057240 -0.288584
  time 68
    0 -0.999512 -2.500000 5.000000 -1.570790 0.000007 -3.141584
    1 5.924498 13.768582 11.604019 -0.045445 0.034527 -0.179960
    2 -0.248215 -3.990622 28.963835 0.000000 0.000000 0.000000
    3 -0.208309 -3.980618 28.661356 1.570812 -1.555294 -0.000012
    4 0.787082 -4.457595 13.090944 1.592382 -0.057240 -0.288584
  time 69
    0 -0.999512 -2.500000 5.000000 -1.570790 0.000007 -3.141584
    1 5.619801 13.690455 11.533704 -0.027516 0.029449 -0.097219
    2 -0.248215 -3.990622 28.963835 0.000000 0.000000 0.000000
    3 -0.208309 -3.980618 28.661356 1.570812 -1.555294 -0.000012
    4 0.787082 -4.457595 13.090944 1.592382 -0.057240 -0.288584
  time 70
    0 -0.999512 -2.500000 5.000000 -1.570790 0.000007 -3.141584
    1 5.385419 13.655297 11.439951 -0.012943 0.021737 -0.037679
    2 -0.248215 -3.990622 28.963835 0.000000 0.000000 0.000000
    3 -0.208309 -3.980618 28.661356 1.570812 -1.555294 -0.000012
    4 0.787082 -4.457595 13.090944 1.592382 -0.057240 -0.288584
  time 71
    0 -0.999512 -2.500000 5.000000 -1.570790 0.000007 -3.141584
    1 5.256509 13.686548 11.381356 -0.003931 0.011215 -0.008149
    2 -0.248215 -3.990622 28.963835 0.000000 0.000000 0.000000
    3 -0.208309 -3.980618 28.661356 1.570812 -1.555294 -0.000012
    4 0.787082 -4.457595 13.090944 1.592382 -0.057240 -0.288584
  time 72
    0 -0.999512 -2.500000 5.000000 -1.570790 0.000007 -3.141584
    1 5.221351 13.749050 11.342292 0.000000 0.000000 0.000000
    2 -0.248215 -3.990622 28.963835 0.000000 0.000000 0.000000
    3 -0.208309 -3.980618 28.661356 1.570812 -1.555294 -0.000012
    4 0.787082 -4.457595 13.090944 1.592382 -0.057240 -0.288584
end
