version 1
nodes
  0 "v_weapon" -1
  1 "v_weapon.Bip01_R_Forearm" -1
  2 "v_weapon.Bip01_R_Hand" 1
  3 "v_weapon.M4A1_Parent" 2
  4 "v_weapon.M4A1_Clip" 3
  5 "v_weapon.M4A1_Bullets" 4
  6 "v_weapon.flash" 3
  7 "v_weapon.shelleject" 3
  8 "v_weapon.stattrack" 3
  9 "v_weapon.uid" 3
  10 "v_weapon.Bip01_L_Forearm" -1
  11 "v_weapon.Bip01_L_Hand" 10
  12 "v_weapon.Bip01_L_Finger0" 11
  13 "v_weapon.Bip01_L_Finger01" 12
  14 "v_weapon.Bip01_L_Finger02" 13
  15 "v_weapon.Bip01_L_Finger1" 11
  16 "v_weapon.Bip01_L_Finger11" 15
  17 "v_weapon.Bip01_L_Finger12" 16
  18 "v_weapon.Bip01_L_Finger2" 11
  19 "v_weapon.Bip01_L_Finger21" 18
  20 "v_weapon.Bip01_L_Finger22" 19
  21 "v_weapon.Bip01_L_Finger3" 11
  22 "v_weapon.Bip01_L_Finger31" 21
  23 "v_weapon.Bip01_L_Finger32" 22
  24 "v_weapon.Bip01_L_Finger4" 11
  25 "v_weapon.Bip01_L_Finger41" 24
  26 "v_weapon.Bip01_L_Finger42" 25
  27 "v_weapon.Bip01_L_ForeTwist" -1
  28 "v_weapon.M4A1_Trigger" 3
  29 "v_weapon.M4A1_Bolt" 3
  30 "v_weapon.Bip01_R_Finger0" 2
  31 "v_weapon.Bip01_R_Finger01" 30
  32 "v_weapon.Bip01_R_Finger02" 31
  33 "v_weapon.Bip01_R_Finger1" 2
  34 "v_weapon.Bip01_R_Finger11" 33
  35 "v_weapon.Bip01_R_Finger12" 34
  36 "v_weapon.Bip01_R_Finger2" 2
  37 "v_weapon.Bip01_R_Finger21" 36
  38 "v_weapon.Bip01_R_Finger22" 37
  39 "v_weapon.Bip01_R_Finger3" 2
  40 "v_weapon.Bip01_R_Finger31" 39
  41 "v_weapon.Bip01_R_Finger32" 40
  42 "v_weapon.Bip01_R_Finger4" 2
  43 "v_weapon.Bip01_R_Finger41" 42
  44 "v_weapon.Bip01_R_Finger42" 43
  45 "v_weapon.Bip01_R_ForeTwist" -1
  46 "v_weapon.Bip01" -1
  47 "v_weapon.Bip01_Pelvis" 46
  48 "v_weapon.Bip01_Spine" 47
  49 "v_weapon.Bip01_Spine1" 48
  50 "v_weapon.Bip01_Spine2" 49
  51 "v_weapon.Bip01_Spine3" 50
  52 "v_weapon.Bip01_Neck" 51
  53 "v_weapon.Bip01_L_Clavicle" 52
  54 "v_weapon.Bip01_L_UpperArm" 53
  55 "v_weapon.Bip01_R_Clavicle" 52
  56 "v_weapon.Bip01_R_UpperArm" 55
end
skeleton
  time 0
    0 -1.999023 -6.500000 -2.000000 1.570624 -0.000086 0.000086
    1 -8.304688 -2.449219 -14.281250 -2.059783 -0.606694 -1.277266
    2 10.295582 -0.000000 0.000000 1.935044 0.095507 0.566453
    3 4.480469 1.199219 -0.714844 1.700995 -0.064703 1.621977
    4 0.000000 1.830078 4.105469 -1.570796 0.000000 0.000000
    5 0.000000 0.000000 2.771000 0.000000 0.000000 0.000000
    6 0.015810 5.098120 20.550781 -0.000000 -1.570451 -1.570796
    7 -0.719085 5.300998 3.836287 0.000000 0.000000 2.792527
    8 0.587728 4.545159 4.786211 -1.570796 0.000000 0.000000
    9 0.730970 5.057620 -0.080116 -1.570796 0.000000 0.000000
    10 1.519531 -15.289063 -9.445313 -1.473649 -0.392482 -2.120377
    11 10.295583 0.000001 -0.000000 -2.621346 -0.233064 0.376938
    12 1.149521 0.416497 -1.414117 2.311615 0.381404 0.304903
    13 1.263878 0.000000 0.000000 -0.817992 -0.119931 0.240711
    14 1.188944 -0.000000 -0.000000 -0.009855 0.001996 0.251367
    15 3.773754 0.133216 -0.970574 0.097014 -0.244099 -0.063288
    16 1.433456 0.000000 0.000001 0.000000 -0.000000 0.202862
    17 1.019161 -0.000000 -0.000000 0.000000 0.000000 0.719251
    18 3.799511 0.014954 -0.039958 -0.044296 -0.215296 0.309279
    19 1.774879 0.000003 0.000001 -0.016130 0.009843 0.606560
    20 1.008846 0.000002 0.000000 -0.016522 0.009168 0.565194
    21 3.632763 0.059050 0.757493 -0.238474 -0.119428 0.437679
    22 1.500139 -0.000002 -0.000001 -0.068328 0.032773 0.726273
    23 0.905663 -0.000002 -0.000000 -0.068931 0.031486 0.707527
    24 3.323330 0.233746 1.479075 -0.262899 0.125640 0.703036
    25 0.963099 0.000000 -0.000000 -0.095942 0.008840 0.540657
    26 0.682895 0.000000 -0.000001 -0.095942 0.008841 0.540675
    27 1.519531 -15.289063 -9.445313 -2.416027 -0.392407 -2.120290
    28 -0.000000 2.627979 0.988434 -1.570796 0.000000 0.000000
    29 0.000000 6.086907 -2.262866 -1.570796 0.000000 0.000000
    30 1.149523 0.416497 1.414116 -1.769998 -0.202447 0.792236
    31 1.263877 0.000001 0.000000 -0.034282 0.189584 0.555298
    32 1.188943 0.000000 0.000000 0.000000 0.000000 0.295212
    33 3.773755 0.133215 0.970574 -0.000422 -0.025468 -0.121346
    34 1.433459 0.000001 0.000000 0.014514 -0.009810 0.847667
    35 1.019161 -0.000001 0.000000 0.014478 -0.008837 0.835823
    36 3.799515 0.014952 0.039958 0.279665 0.171546 1.103439
    37 1.774881 0.000000 0.000000 0.015535 -0.040082 1.379122
    38 1.008846 0.000001 0.000000 0.033698 -0.026693 0.847881
    39 3.632765 0.059049 -0.757494 0.369431 0.065606 1.386970
    40 1.500137 0.000001 0.000001 0.061148 -0.055642 1.125235
    41 0.905663 0.000000 -0.000001 0.079350 -0.023148 0.671075
    42 3.323330 0.233745 -1.479076 0.453115 -0.018233 1.420788
    43 0.963099 -0.000001 0.000000 0.056283 -0.006181 0.656341
    44 0.682895 -0.000000 -0.000000 0.051699 -0.023100 0.966916
    45 -8.304688 -2.449219 -14.281250 -1.671633 -0.606680 -1.277197
    46 5.104027 -3.706409 -19.918226 0.008345 0.048533 -3.866102
    47 -0.000001 -0.000000 0.000000 -1.570793 -1.570796 0.000000
    48 3.562498 -0.816636 -0.000028 0.009806 -0.004018 0.021400
    49 4.004024 -0.003177 -0.000071 0.021977 0.004684 0.085524
    50 4.004028 -0.003176 -0.000071 0.022101 0.004692 0.085492
    51 4.003751 -0.003187 0.000000 -0.000001 0.000000 0.000000
    52 5.029972 -0.763043 -0.000584 0.165519 0.064872 0.682733
    53 -0.905726 0.793273 1.051288 0.177606 -1.053522 2.301890
    54 5.773743 0.000002 -0.000000 -1.188010 0.163262 -1.320256
    55 -0.747116 0.391015 -1.356800 0.414242 1.351996 2.862079
    56 5.773742 -0.000001 -0.000001 0.284479 -0.686679 -1.194730
  time 1
    0 -1.999023 -6.500000 -2.000000 1.570624 -0.000086 0.000086
    1 -8.302100 -2.085621 -14.294834 -2.059781 -0.606693 -1.277267
    2 10.295616 0.000002 -0.000005 1.935044 0.095506 0.566451
    3 4.480487 1.199186 -0.714852 1.700995 -0.064702 1.621976
    4 0.016560 2.224631 3.115414 -1.618785 0.000663 -0.000549
    5 0.000000 0.000000 2.771000 0.000000 0.000000 0.000000
    6 0.015810 5.098120 20.550781 -0.000000 -1.570451 -1.570796
    7 -0.719085 5.300998 3.836287 0.000000 0.000000 2.792527
    8 0.587728 4.545159 4.786211 -1.570796 0.000000 0.000000
    9 0.730970 5.057620 -0.080116 -1.570796 0.000000 0.000000
    10 -0.014597 -16.876885 -9.416626 -1.427369 -0.595029 -2.351623
    11 7.525633 -0.160316 1.189142 -2.617548 -0.422886 0.561299
    12 1.149521 0.416495 -1.414117 2.311615 0.381404 0.304903
    13 1.263878 0.000000 0.000000 -0.817992 -0.119931 0.240711
    14 1.188944 -0.000000 -0.000000 -0.009855 0.001996 0.251367
    15 3.773754 0.133216 -0.970574 0.097014 -0.244099 -0.063288
    16 1.433456 0.000000 0.000001 0.000000 0.000000 0.202862
    17 1.019161 -0.000000 0.000000 0.000000 0.000000 0.719251
    18 3.799513 0.014953 -0.039957 -0.044296 -0.215296 0.309279
    19 1.774848 -0.000005 0.000005 -0.016130 0.009843 0.606558
    20 1.008877 -0.000010 -0.000004 -0.016522 0.009168 0.565196
    21 3.632763 0.059050 0.757495 -0.238474 -0.119428 0.437679
    22 1.500139 -0.000004 -0.000001 -0.068328 0.032773 0.726273
    23 0.905664 -0.000003 0.000000 -0.068931 0.031486 0.707527
    24 3.323330 0.233744 1.479075 -0.262899 0.125640 0.703036
    25 0.963099 0.000000 0.000000 -0.095942 0.008840 0.540657
    26 0.682895 -0.000000 -0.000001 -0.095942 0.008841 0.540675
    27 0.061656 -17.469505 -9.418870 -2.344609 -0.611192 -2.339282
    28 0.000000 2.627979 0.988434 -1.570796 0.000000 0.000000
    29 0.014373 6.171067 -3.449794 -1.618785 0.000663 -0.000549
    30 1.149523 0.416497 1.414116 -1.769998 -0.202447 0.792236
    31 1.263877 -0.000001 -0.000001 -0.034282 0.189584 0.555298
    32 1.188943 -0.000000 0.000000 0.000000 0.000000 0.295212
    33 3.773757 0.133216 0.970574 -0.000422 -0.025468 -0.121346
    34 1.433459 0.000001 0.000000 0.014514 -0.009810 0.847667
    35 1.019161 -0.000001 0.000000 0.014478 -0.008837 0.835823
    36 3.799516 0.014950 0.039958 0.279665 0.171546 1.103439
    37 1.774881 0.000000 0.000000 0.015535 -0.040082 1.379122
    38 1.008846 0.000001 0.000000 0.033698 -0.026693 0.847881
    39 3.632765 0.059049 -0.757494 0.369431 0.065606 1.386970
    40 1.500135 0.000001 0.000001 0.061148 -0.055642 1.125235
    41 0.905663 0.000000 -0.000001 0.079350 -0.023148 0.671075
    42 3.323330 0.233745 -1.479076 0.453115 -0.018233 1.420788
    43 0.963099 -0.000001 -0.000000 0.056283 -0.006181 0.656341
    44 0.682895 0.000000 -0.000000 0.051699 -0.023100 0.966916
    45 -8.302100 -2.085621 -14.294834 -1.671631 -0.606679 -1.277198
    46 5.104027 -3.706409 -19.918226 0.008345 0.048533 -3.866102
    47 -0.000001 -0.000000 0.000000 -1.570793 -1.570796 0.000000
    48 3.562498 -0.816636 -0.000028 0.009806 -0.004018 0.021400
    49 4.004024 -0.003177 -0.000071 0.021977 0.004684 0.085524
    50 4.004028 -0.003176 -0.000071 0.022101 0.004692 0.085492
    51 4.003751 -0.003187 0.000000 -0.000001 0.000000 0.000000
    52 5.029972 -0.763043 -0.000584 0.165519 0.064872 0.682733
    53 -0.905726 0.793273 1.051288 0.177606 -1.053522 2.301890
    54 5.773743 0.000002 -0.000000 -1.188010 0.163262 -1.320256
    55 -0.747116 0.391015 -1.356800 0.414242 1.351996 2.862079
    56 5.773742 -0.000001 -0.000001 0.284479 -0.686679 -1.194730
  time 2
    0 -1.999023 -6.500000 -2.000000 1.570624 -0.000086 0.000086
    1 -8.296719 -1.318217 -14.323508 -2.059783 -0.606694 -1.277266
    2 10.295581 -0.000002 -0.000001 1.935044 0.095507 0.566453
    3 4.480470 1.199219 -0.714843 1.700995 -0.064703 1.621977
    4 0.011117 2.381779 3.804649 -1.588245 0.000244 -0.000196
    5 -0.000000 -0.000000 2.771000 0.000000 0.000000 0.000000
    6 0.015810 5.098120 20.550781 -0.000000 -1.570451 -1.570796
    7 -0.719085 5.300998 3.836287 0.000000 0.000000 2.792527
    8 0.587728 4.545159 4.786211 -1.570796 0.000000 0.000000
    9 0.730970 5.057620 -0.080116 -1.570796 0.000000 0.000000
    10 0.692859 -15.229498 -9.180827 -1.469413 -0.486342 -2.183384
    11 8.956029 -0.030839 0.478230 -2.610723 -0.286373 0.458238
    12 1.149487 0.416485 -1.414113 2.311615 0.381402 0.304902
    13 1.263878 0.000000 0.000000 -0.817992 -0.119931 0.240711
    14 1.188944 -0.000000 -0.000000 -0.009855 0.001996 0.251367
    15 3.773756 0.133216 -0.970574 0.097014 -0.244099 -0.063288
    16 1.433456 0.000000 0.000001 0.000000 -0.000000 0.202862
    17 1.019161 0.000000 0.000000 0.000000 0.000000 0.719251
    18 3.799511 0.014953 -0.039956 -0.044296 -0.215296 0.309279
    19 1.774850 -0.000006 0.000005 -0.016130 0.009843 0.606558
    20 1.008875 -0.000008 -0.000004 -0.016522 0.009168 0.565196
    21 3.632763 0.059049 0.757495 -0.238474 -0.119428 0.437679
    22 1.500137 -0.000003 -0.000001 -0.068328 0.032773 0.726273
    23 0.905664 -0.000001 0.000000 -0.068931 0.031486 0.707527
    24 3.323332 0.233745 1.479076 -0.262899 0.125640 0.703036
    25 0.963099 0.000000 -0.000000 -0.095942 0.008840 0.540657
    26 0.682894 0.000001 -0.000002 -0.095942 0.008841 0.540675
    27 0.729748 -15.363794 -9.196250 -2.405631 -0.489948 -2.180397
    28 -0.000000 2.627979 0.988434 -1.570796 0.000000 0.000000
    29 0.010356 6.526842 -2.636994 -1.588245 0.000244 -0.000196
    30 1.149523 0.416497 1.414116 -1.769998 -0.202447 0.792236
    31 1.263877 -0.000001 -0.000001 -0.034282 0.189584 0.555298
    32 1.188943 0.000000 0.000000 0.000000 0.000000 0.295212
    33 3.773755 0.133215 0.970572 -0.000422 -0.025468 -0.121346
    34 1.433459 0.000001 -0.000000 0.014514 -0.009810 0.847667
    35 1.019161 -0.000001 0.000000 0.014478 -0.008837 0.835823
    36 3.799516 0.014950 0.039958 0.279665 0.171546 1.103439
    37 1.774881 0.000000 0.000000 0.015535 -0.040082 1.379122
    38 1.008846 0.000001 0.000000 0.033698 -0.026693 0.847881
    39 3.632763 0.059048 -0.757494 0.369431 0.065606 1.386970
    40 1.500137 0.000001 0.000003 0.061148 -0.055642 1.125235
    41 0.905663 0.000000 -0.000001 0.079350 -0.023148 0.671075
    42 3.323330 0.233745 -1.479076 0.453115 -0.018233 1.420788
    43 0.963099 -0.000001 0.000000 0.056283 -0.006181 0.656341
    44 0.682895 -0.000000 -0.000000 0.051699 -0.023100 0.966916
    45 -8.296719 -1.318217 -14.323508 -1.671633 -0.606680 -1.277197
    46 5.104027 -3.706409 -19.918226 0.008345 0.048533 -3.866102
    47 -0.000001 -0.000000 0.000000 -1.570793 -1.570796 0.000000
    48 3.562498 -0.816636 -0.000028 0.009806 -0.004018 0.021400
    49 4.004024 -0.003177 -0.000071 0.021977 0.004684 0.085524
    50 4.004028 -0.003176 -0.000071 0.022101 0.004692 0.085492
    51 4.003751 -0.003187 0.000000 -0.000001 0.000000 0.000000
    52 5.029972 -0.763043 -0.000584 0.165519 0.064872 0.682733
    53 -0.905726 0.793273 1.051288 0.177606 -1.053522 2.301890
    54 5.773743 0.000002 -0.000000 -1.188010 0.163262 -1.320256
    55 -0.747116 0.391015 -1.356800 0.414242 1.351996 2.862079
    56 5.773742 -0.000001 -0.000001 0.284479 -0.686679 -1.194730
  time 3
    0 -1.999023 -6.500000 -2.000000 1.570624 -0.000086 0.000086
    1 -8.304688 -2.449219 -14.281250 -2.059783 -0.606694 -1.277266
    2 10.295582 -0.000000 0.000000 1.935044 0.095507 0.566453
    3 4.480469 1.199219 -0.714844 1.700995 -0.064703 1.621977
    4 0.006259 2.055192 3.827490 -1.575521 0.000066 -0.000053
    5 0.000000 0.000000 2.771000 0.000000 0.000000 0.000000
    6 0.015810 5.098120 20.550781 -0.000000 -1.570451 -1.570796
    7 -0.719085 5.300998 3.836287 0.000000 0.000000 2.792527
    8 0.587728 4.545159 4.786211 -1.570796 0.000000 0.000000
    9 0.730970 5.057620 -0.080116 -1.570796 0.000000 0.000000
    10 1.121903 -15.863053 -9.376403 -1.470660 -0.443598 -2.160299
    11 9.509473 -0.013582 0.233579 -2.618975 -0.267244 0.426722
    12 1.149521 0.416497 -1.414117 2.311615 0.381404 0.304903
    13 1.263878 0.000000 0.000000 -0.817992 -0.119931 0.240711
    14 1.188944 -0.000000 -0.000000 -0.009855 0.001996 0.251367
    15 3.773754 0.133218 -0.970574 0.097014 -0.244099 -0.063288
    16 1.433456 0.000000 0.000001 0.000000 0.000000 0.202862
    17 1.019161 -0.000000 -0.000000 0.000000 0.000000 0.719251
    18 3.799511 0.014954 -0.039958 -0.044296 -0.215296 0.309279
    19 1.774848 -0.000005 0.000005 -0.016130 0.009843 0.606558
    20 1.008875 -0.000008 -0.000004 -0.016522 0.009168 0.565196
    21 3.632763 0.059050 0.757495 -0.238474 -0.119428 0.437679
    22 1.500137 -0.000003 -0.000001 -0.068328 0.032773 0.726273
    23 0.905663 -0.000002 -0.000000 -0.068931 0.031486 0.707527
    24 3.323330 0.233744 1.479075 -0.262899 0.125640 0.703036
    25 0.963098 -0.000002 -0.000000 -0.095942 0.008840 0.540657
    26 0.682895 -0.000000 -0.000001 -0.095942 0.008841 0.540675
    27 1.144011 -15.936205 -9.387162 -2.409571 -0.445546 -2.158645
    28 -0.000000 2.627979 0.988434 -1.570796 0.000000 0.000000
    29 0.006057 6.281884 -2.560888 -1.575521 0.000066 -0.000053
    30 1.149523 0.416497 1.414116 -1.769998 -0.202447 0.792236
    31 1.263877 0.000001 0.000000 -0.034282 0.189584 0.555298
    32 1.188943 0.000000 0.000000 0.000000 0.000000 0.295212
    33 3.773755 0.133215 0.970574 -0.000422 -0.025468 -0.121346
    34 1.433459 0.000001 0.000000 0.014514 -0.009810 0.847667
    35 1.019161 -0.000001 0.000000 0.014478 -0.008837 0.835823
    36 3.799515 0.014952 0.039958 0.279665 0.171546 1.103439
    37 1.774881 0.000000 0.000000 0.015535 -0.040082 1.379122
    38 1.008846 0.000001 0.000000 0.033698 -0.026693 0.847881
    39 3.632765 0.059049 -0.757494 0.369431 0.065606 1.386970
    40 1.500137 0.000001 0.000001 0.061148 -0.055642 1.125235
    41 0.905663 0.000000 -0.000001 0.079350 -0.023148 0.671075
    42 3.323330 0.233745 -1.479076 0.453115 -0.018233 1.420788
    43 0.963099 -0.000001 0.000000 0.056283 -0.006181 0.656341
    44 0.682895 -0.000000 -0.000000 0.051699 -0.023100 0.966916
    45 -8.304688 -2.449219 -14.281250 -1.671633 -0.606680 -1.277197
    46 5.104027 -3.706409 -19.918226 0.008345 0.048533 -3.866102
    47 -0.000001 -0.000000 0.000000 -1.570793 -1.570796 0.000000
    48 3.562498 -0.816636 -0.000028 0.009806 -0.004018 0.021400
    49 4.004024 -0.003177 -0.000071 0.021977 0.004684 0.085524
    50 4.004028 -0.003176 -0.000071 0.022101 0.004692 0.085492
    51 4.003751 -0.003187 0.000000 -0.000001 0.000000 0.000000
    52 5.029972 -0.763043 -0.000584 0.165519 0.064872 0.682733
    53 -0.905726 0.793273 1.051288 0.177606 -1.053522 2.301890
    54 5.773743 0.000002 -0.000000 -1.188010 0.163262 -1.320256
    55 -0.747116 0.391015 -1.356800 0.414242 1.351996 2.862079
    56 5.773742 -0.000001 -0.000001 0.284479 -0.686679 -1.194730
  time 4
    0 -1.999023 -6.500000 -2.000000 1.570624 -0.000086 0.000086
    1 -8.304688 -2.449219 -14.281250 -2.059783 -0.606694 -1.277266
    2 10.295582 -0.000000 0.000000 1.935044 0.095507 0.566453
    3 4.480469 1.199219 -0.714844 1.700995 -0.064703 1.621977
    4 0.000000 1.830078 4.105469 -1.570796 0.000000 0.000000
    5 0.000000 0.000000 2.771000 0.000000 0.000000 0.000000
    6 0.015810 5.098120 20.550781 -0.000000 -1.570451 -1.570796
    7 -0.719085 5.300998 3.836287 0.000000 0.000000 2.792527
    8 0.587728 4.545159 4.786211 -1.570796 0.000000 0.000000
    9 0.730970 5.057620 -0.080116 -1.570796 0.000000 0.000000
    10 1.519531 -15.289063 -9.445313 -1.473649 -0.392482 -2.120377
    11 10.295583 0.000001 -0.000000 -2.621346 -0.233064 0.376938
    12 1.149521 0.416497 -1.414117 2.311615 0.381404 0.304903
    13 1.263878 0.000000 0.000000 -0.817992 -0.119931 0.240711
    14 1.188944 -0.000000 -0.000000 -0.009855 0.001996 0.251367
    15 3.773754 0.133216 -0.970574 0.097014 -0.244099 -0.063288
    16 1.433456 0.000000 0.000001 0.000000 -0.000000 0.202862
    17 1.019161 -0.000000 -0.000000 0.000000 0.000000 0.719251
    18 3.799511 0.014954 -0.039958 -0.044296 -0.215296 0.309279
    19 1.774879 0.000003 0.000001 -0.016130 0.009843 0.606560
    20 1.008846 0.000002 0.000000 -0.016522 0.009168 0.565194
    21 3.632763 0.059050 0.757493 -0.238474 -0.119428 0.437679
    22 1.500139 -0.000002 -0.000001 -0.068328 0.032773 0.726273
    23 0.905663 -0.000002 -0.000000 -0.068931 0.031486 0.707527
    24 3.323330 0.233746 1.479075 -0.262899 0.125640 0.703036
    25 0.963099 0.000000 -0.000000 -0.095942 0.008840 0.540657
    26 0.682895 0.000000 -0.000001 -0.095942 0.008841 0.540675
    27 1.519531 -15.289063 -9.445313 -2.416027 -0.392407 -2.120290
    28 -0.000000 2.627979 0.988434 -1.570796 0.000000 0.000000
    29 0.000000 6.086907 -2.262866 -1.570796 0.000000 0.000000
    30 1.149523 0.416497 1.414116 -1.769998 -0.202447 0.792236
    31 1.263877 0.000001 0.000000 -0.034282 0.189584 0.555298
    32 1.188943 0.000000 0.000000 0.000000 0.000000 0.295212
    33 3.773755 0.133215 0.970574 -0.000422 -0.025468 -0.121346
    34 1.433459 0.000001 0.000000 0.014514 -0.009810 0.847667
    35 1.019161 -0.000001 0.000000 0.014478 -0.008837 0.835823
    36 3.799515 0.014952 0.039958 0.279665 0.171546 1.103439
    37 1.774881 0.000000 0.000000 0.015535 -0.040082 1.379122
    38 1.008846 0.000001 0.000000 0.033698 -0.026693 0.847881
    39 3.632765 0.059049 -0.757494 0.369431 0.065606 1.386970
    40 1.500137 0.000001 0.000001 0.061148 -0.055642 1.125235
    41 0.905663 0.000000 -0.000001 0.079350 -0.023148 0.671075
    42 3.323330 0.233745 -1.479076 0.453115 -0.018233 1.420788
    43 0.963099 -0.000001 0.000000 0.056283 -0.006181 0.656341
    44 0.682895 -0.000000 -0.000000 0.051699 -0.023100 0.966916
    45 -8.304688 -2.449219 -14.281250 -1.671633 -0.606680 -1.277197
    46 5.104027 -3.706409 -19.918226 0.008345 0.048533 -3.866102
    47 -0.000001 -0.000000 0.000000 -1.570793 -1.570796 0.000000
    48 3.562498 -0.816636 -0.000028 0.009806 -0.004018 0.021400
    49 4.004024 -0.003177 -0.000071 0.021977 0.004684 0.085524
    50 4.004028 -0.003176 -0.000071 0.022101 0.004692 0.085492
    51 4.003751 -0.003187 0.000000 -0.000001 0.000000 0.000000
    52 5.029972 -0.763043 -0.000584 0.165519 0.064872 0.682733
    53 -0.905726 0.793273 1.051288 0.177606 -1.053522 2.301890
    54 5.773743 0.000002 -0.000000 -1.188010 0.163262 -1.320256
    55 -0.747116 0.391015 -1.356800 0.414242 1.351996 2.862079
    56 5.773742 -0.000001 -0.000001 0.284479 -0.686679 -1.194730
end
