// Created by CrowbarDecompiler 0.71
version 1
nodes
  0 "v_weapon" -1
  1 "v_weapon.Bip01" 0
  2 "v_weapon.Bip01_Pelvis" 1
  3 "v_weapon.Bip01_Spine" 2
  4 "v_weapon.Bip01_Spine1" 3
  5 "v_weapon.Bip01_Spine2" 4
  6 "v_weapon.Bip01_Spine3" 5
  7 "v_weapon.Bip01_Neck" 6
  8 "v_weapon.Bip01_L_Clavicle" 7
  9 "v_weapon.Bip01_L_UpperArm" 8
  10 "v_weapon.Bip01_L_Forearm" 9
  11 "v_weapon.Bip01_L_Hand" 10
  12 "v_weapon.Bip01_L_Finger0" 11
  13 "v_weapon.Bip01_L_Finger01" 12
  14 "v_weapon.Bip01_L_Finger02" 13
  15 "v_weapon.Bip01_L_Finger1" 11
  16 "v_weapon.Bip01_L_Finger11" 15
  17 "v_weapon.Bip01_L_Finger12" 16
  18 "v_weapon.Bip01_L_Finger2" 11
  19 "v_weapon.Bip01_L_Finger21" 18
  20 "v_weapon.Bip01_L_Finger22" 19
  21 "v_weapon.Bip01_L_Finger3" 11
  22 "v_weapon.Bip01_L_Finger31" 21
  23 "v_weapon.Bip01_L_Finger32" 22
  24 "v_weapon.Bip01_L_Finger4" 11
  25 "v_weapon.Bip01_L_Finger41" 24
  26 "v_weapon.Bip01_L_Finger42" 25
  27 "v_weapon.Bip01_L_ForeTwist" 9
  28 "v_weapon.Bip01_R_Clavicle" 7
  29 "v_weapon.Bip01_R_UpperArm" 28
  30 "v_weapon.Bip01_R_Forearm" 29
  31 "v_weapon.Bip01_R_Hand" 30
  32 "v_weapon.Bip01_R_Finger0" 31
  33 "v_weapon.Bip01_R_Finger01" 32
  34 "v_weapon.Bip01_R_Finger02" 33
  35 "v_weapon.Bip01_R_Finger1" 31
  36 "v_weapon.Bip01_R_Finger11" 35
  37 "v_weapon.Bip01_R_Finger12" 36
  38 "v_weapon.Bip01_R_Finger2" 31
  39 "v_weapon.Bip01_R_Finger21" 38
  40 "v_weapon.Bip01_R_Finger22" 39
  41 "v_weapon.Bip01_R_Finger3" 31
  42 "v_weapon.Bip01_R_Finger31" 41
  43 "v_weapon.Bip01_R_Finger32" 42
  44 "v_weapon.Bip01_R_Finger4" 31
  45 "v_weapon.Bip01_R_Finger41" 44
  46 "v_weapon.Bip01_R_Finger42" 45
  47 "v_weapon.Bip01_R_ForeTwist" 29
end
skeleton
  time 0
    0 0.000000 0.000000 0.000000 0.000000 0.000000 0.000031
    1 0.000000 0.000000 0.000000 0.000000 -1.570796 -1.570796
    2 0.000000 0.000000 0.000000 0.000000 -1.570796 -1.570795
    3 3.562428 -0.816635 0.000007 -0.000004 -0.000001 0.000796
    4 4.003750 -0.003188 0.000000 0.000000 0.000000 0.000000
    5 4.003753 -0.003188 0.000000 0.000000 0.000000 0.000000
    6 4.003754 -0.003188 0.000000 0.000000 0.000000 0.000000
    7 5.028769 -0.763714 -0.000001 0.000000 -0.000001 0.278578
    8 -0.999638 0.234795 1.223300 0.000001 -1.215149 2.862218
    9 5.773739 0.000000 0.000000 0.010429 0.395203 0.006714
    10 11.576879 0.000000 0.000004 0.000000 0.000000 -0.000733
    11 10.295582 0.000000 -0.000002 -1.563506 -0.043612 -0.021680
    12 1.149526 0.416498 -1.414117 1.407288 0.320852 0.235478
    13 1.263882 0.000001 0.000000 0.000000 0.000000 0.000000
    14 1.188944 0.000000 0.000000 0.000000 0.000000 -0.008520
    15 3.773759 0.133217 -0.970575 0.009201 0.142462 0.005942
    16 1.433458 0.000000 0.000000 0.000000 0.000000 0.025279
    17 1.019165 0.000008 0.000000 0.000000 0.000000 0.025279
    18 3.799514 0.014956 -0.039958 -0.008703 -0.034651 0.022689
    19 1.774879 0.000002 0.000000 0.000000 0.000000 0.025279
    20 1.008841 0.000002 0.000000 0.000000 0.000000 0.025279
    21 3.632764 0.059050 0.757493 -0.016389 -0.163096 0.042929
    22 1.500134 0.000002 0.000000 0.000000 0.000000 0.025279
    23 0.905666 0.000000 -0.000001 0.000000 0.000000 0.025279
    24 3.323329 0.233744 1.479075 -0.032424 -0.324218 0.031462
    25 0.963097 0.000006 0.000000 0.000000 0.000000 0.025279
    26 0.682896 0.000000 0.000000 0.000000 0.000000 0.025279
    27 11.576879 0.000000 0.000004 0.006830 0.000000 -0.000733
    28 -0.999638 0.234802 -1.223300 -0.000013 1.215147 2.862206
    29 5.773738 0.000000 0.000004 -0.010429 -0.395202 0.006714
    30 11.576878 0.000000 0.000000 0.000000 0.000000 -0.000733
    31 10.295580 0.000000 0.000000 1.563506 0.043612 -0.021680
    32 1.149520 0.416502 1.414117 -1.407288 -0.320852 0.235478
    33 1.263883 0.000000 -0.000006 0.000000 0.000000 -0.008520
    34 1.188940 -0.000002 0.000006 0.000000 0.000000 -0.008520
    35 3.773755 0.133215 0.970574 -0.009201 -0.142462 0.005942
    36 1.433455 0.000000 0.000000 0.000000 0.000000 0.025279
    37 1.019165 -0.000002 0.000000 0.000000 0.000000 0.025279
    38 3.799514 0.014957 0.039959 0.008703 0.034651 0.022689
    39 1.774878 0.000000 0.000000 0.000000 0.000000 0.025279
    40 1.008842 -0.000004 0.000000 0.000000 0.000000 0.025279
    41 3.632764 0.059050 -0.757493 0.016389 0.163096 0.042929
    42 1.500139 0.000000 0.000000 0.000000 0.000000 0.025279
    43 0.905663 -0.000002 0.000000 0.000000 0.000000 0.025279
    44 3.323327 0.233747 -1.479075 0.032424 0.324218 0.031462
    45 0.963099 0.000006 0.000000 0.000000 0.000000 0.025279
    46 0.682892 -0.000002 -0.000001 0.000000 0.000000 0.025279
    47 11.576878 0.000000 0.000000 -0.006830 0.000000 -0.000733
end
