// Created by CrowbarDecompiler 0.71
version 1
nodes
  0 "v_weapon" -1
  1 "v_weapon.knife" 0
  2 "v_weapon.Bip01_R_Forearm" -1
  3 "v_weapon.Bip01_R_Hand" 2
  4 "v_weapon.Bip01_R_Finger4" 3
  5 "v_weapon.Bip01_R_Finger41" 4
  6 "v_weapon.Bip01_R_Finger42" 5
  7 "v_weapon.Bip01_L_Forearm" -1
  8 "v_weapon.Bip01_L_Hand" 7
  9 "v_weapon.Bip01_L_Finger0" 8
  10 "v_weapon.Bip01_L_Finger01" 9
  11 "v_weapon.Bip01_L_Finger02" 10
  12 "v_weapon.Bip01_L_Finger1" 8
  13 "v_weapon.Bip01_L_Finger11" 12
  14 "v_weapon.Bip01_L_Finger12" 13
  15 "v_weapon.Bip01_L_Finger2" 8
  16 "v_weapon.Bip01_L_Finger21" 15
  17 "v_weapon.Bip01_L_Finger22" 16
  18 "v_weapon.Bip01_L_Finger3" 8
  19 "v_weapon.Bip01_L_Finger31" 18
  20 "v_weapon.Bip01_L_Finger32" 19
  21 "v_weapon.Bip01_L_Finger4" 8
  22 "v_weapon.Bip01_L_Finger41" 21
  23 "v_weapon.Bip01_L_Finger42" 22
  24 "v_weapon.Bip01_L_ForeTwist" -1
  25 "v_weapon.Bip01_R_Finger0" 3
  26 "v_weapon.Bip01_R_Finger01" 25
  27 "v_weapon.Bip01_R_Finger02" 26
  28 "v_weapon.Bip01_R_Finger1" 3
  29 "v_weapon.Bip01_R_Finger11" 28
  30 "v_weapon.Bip01_R_Finger12" 29
  31 "v_weapon.Bip01_R_Finger2" 3
  32 "v_weapon.Bip01_R_Finger21" 31
  33 "v_weapon.Bip01_R_Finger22" 32
  34 "v_weapon.Bip01_R_Finger3" 3
  35 "v_weapon.Bip01_R_Finger31" 34
  36 "v_weapon.Bip01_R_Finger32" 35
  37 "v_weapon.Bip01_R_ForeTwist" -1
  38 "v_weapon.Bip01" -1
  39 "v_weapon.Bip01_Neck" 38
  40 "v_weapon.Bip01_L_Clavicle" 39
  41 "v_weapon.Bip01_L_UpperArm" 40
  42 "v_weapon.Bip01_R_Clavicle" 39
  43 "v_weapon.Bip01_R_UpperArm" 42
end
skeleton
  time 0
    0 0.000000 0.000000 0.000000 1.570796 0.000000 -1.570796
    1 11.273438 -11.007813 -7.394531 -3.060987 0.111378 -1.178800
    2 -1.429688 -4.562500 -12.898438 -1.603229 -0.223851 -0.926555
    3 10.295581 -0.000001 0.000000 0.211706 -1.246363 -0.596643
    4 3.323331 0.233747 -1.479074 0.059050 -0.114598 1.951433
    5 0.963099 0.000000 0.000000 0.060681 0.054908 0.140673
    6 0.682895 0.000000 -0.000001 0.068215 -0.045203 1.459661
    7 11.781250 -9.835938 -13.609375 -1.273392 0.200736 -3.066775
    8 10.295580 -0.000001 0.000002 -0.279921 0.283443 -0.171122
    9 1.149522 0.416496 -1.414117 1.695933 0.643527 0.384539
    10 1.263878 0.000000 -0.000001 -0.009278 0.006427 0.476149
    11 1.188943 0.000000 -0.000001 -0.011332 0.002002 0.214578
    12 3.773755 0.133215 -0.970574 0.032735 0.177498 0.050244
    13 1.433458 -0.000004 0.000000 -0.035242 0.013160 0.452336
    14 1.019160 0.000002 0.000000 -0.035242 0.013160 0.452336
    15 3.799514 0.014949 -0.039959 -0.033373 -0.011831 0.276498
    16 1.774881 0.000002 0.000000 -0.022563 0.008945 0.454989
    17 1.008844 0.000000 0.000000 -0.022563 0.008945 0.454989
    18 3.632765 0.059053 0.757494 -0.281288 -0.185846 0.459493
    19 1.500135 -0.000001 0.000000 -0.017137 0.006526 0.425295
    20 0.905664 0.000000 0.000000 -0.017137 0.006527 0.425383
    21 3.323329 0.233740 1.479076 -0.399046 -0.449264 0.621659
    22 0.963099 0.000004 -0.000001 -0.017974 0.009102 0.549391
    23 0.682896 0.000001 -0.000001 -0.017974 0.009102 0.549391
    24 11.781250 -9.835938 -13.609375 -0.179440 0.200652 -3.066848
    25 1.149523 0.416495 1.414116 -2.019739 -0.212449 0.859796
    26 1.263878 0.000000 0.000000 0.010488 -0.004338 0.261169
    27 1.188945 0.000001 0.000001 0.004538 -0.004536 0.884275
    28 3.773758 0.133214 0.970576 0.131616 0.113951 1.125673
    29 1.433460 -0.000001 0.000000 0.081937 -0.026934 1.413360
    30 1.019162 0.000004 -0.000001 0.111175 -0.008556 1.181945
    31 3.799517 0.014954 0.039958 0.061647 0.037744 1.689926
    32 1.774879 0.000000 0.000000 0.019509 -0.092223 1.500639
    33 1.008848 0.000001 0.000000 0.102219 -0.036441 0.427842
    34 3.632765 0.059046 -0.757493 -0.011589 -0.049002 1.870094
    35 1.500136 0.000000 -0.000001 0.117923 -0.032132 0.855674
    36 0.905664 -0.000002 0.000003 0.110578 -0.052126 1.029632
    37 -1.429688 -4.562500 -12.898438 -3.054840 -0.223738 -0.926572
    38 3.705078 0.104004 -19.828125 0.007965 0.032571 -2.314305
    39 3.316835 2.730490 19.763479 -1.700505 -0.671180 0.797707
    40 -0.706055 0.612793 1.320313 1.595210 -1.136201 1.179891
    41 5.773738 -0.000001 0.000000 0.231499 0.700692 -0.750452
    42 -1.243164 0.160767 -1.022461 0.531815 1.117297 -3.049704
    43 5.773737 0.000000 0.000000 0.636444 -0.882245 -1.731302
  time 1
    0 0.000000 0.000000 0.000000 1.570796 0.000000 -1.570796
    1 13.562500 -9.429688 -6.046875 -2.870252 0.023440 -1.038290
    2 -2.007813 -5.968750 -12.476563 -1.679455 -0.351690 -1.020759
    3 10.295581 -0.000001 0.000000 0.037377 -1.176655 -0.407740
    4 3.323331 0.233747 -1.479074 0.059050 -0.114598 1.951433
    5 0.963099 0.000000 0.000000 0.060681 0.054908 0.140673
    6 0.682895 0.000000 -0.000001 0.068215 -0.045203 1.459661
    7 12.476563 -10.804688 -13.085938 -1.162823 0.148191 -3.006265
    8 10.295580 -0.000001 0.000002 -0.316372 0.200226 -0.114115
    9 1.149522 0.416496 -1.414117 1.704837 0.660701 0.402434
    10 1.263878 0.000000 -0.000001 -0.009204 0.006586 0.492421
    11 1.188943 0.000000 -0.000001 -0.011333 0.002000 0.214231
    12 3.773755 0.133215 -0.970574 0.038824 0.188795 0.066391
    13 1.433458 -0.000004 0.000000 -0.034901 0.013969 0.475658
    14 1.019160 0.000002 0.000000 -0.034901 0.013969 0.475658
    15 3.799514 0.014949 -0.039959 -0.033628 -0.011075 0.299781
    16 1.774881 0.000002 0.000000 -0.022313 0.009438 0.478234
    17 1.008844 0.000000 0.000000 -0.022313 0.009438 0.478234
    18 3.632765 0.059053 0.757494 -0.284816 -0.202242 0.456285
    19 1.500135 -0.000001 0.000000 -0.016918 0.006959 0.448638
    20 0.905664 0.000000 0.000000 -0.016918 0.006959 0.448638
    21 3.323329 0.233740 1.479076 -0.421790 -0.468913 0.658836
    22 0.963099 0.000004 -0.000001 -0.017818 0.009476 0.572658
    23 0.682896 0.000001 -0.000001 -0.017818 0.009476 0.572658
    24 12.476563 -10.804688 -13.085938 -0.068800 0.148098 -3.006268
    25 1.149523 0.416495 1.414116 -2.019739 -0.212449 0.859796
    26 1.263878 0.000000 0.000000 0.010488 -0.004338 0.261169
    27 1.188945 0.000001 0.000001 0.004538 -0.004536 0.884275
    28 3.773758 0.133214 0.970576 0.126983 0.109855 1.148302
    29 1.433460 -0.000001 0.000000 0.081950 -0.026896 1.412452
    30 1.019162 0.000004 -0.000001 0.111226 -0.008438 1.181120
    31 3.799517 0.014954 0.039958 0.061647 0.037744 1.689926
    32 1.774879 0.000000 0.000000 0.019509 -0.092223 1.500639
    33 1.008848 0.000001 0.000000 0.102219 -0.036441 0.427842
    34 3.632765 0.059046 -0.757493 -0.011589 -0.049002 1.870094
    35 1.500136 0.000000 -0.000001 0.117923 -0.032132 0.855674
    36 0.905664 -0.000002 0.000003 0.110578 -0.052126 1.029632
    37 -2.007813 -5.968750 -12.476563 -3.130882 -0.351645 -1.020797
    38 3.705078 0.104004 -19.828125 0.007965 0.032571 -2.314305
    39 3.316835 2.730490 19.763479 -1.695594 -0.688486 0.796643
    40 -0.720215 0.605957 1.316406 1.585302 -1.133401 1.205890
    41 5.773738 -0.000001 0.000000 0.180802 0.594649 -0.703387
    42 -1.242188 0.135254 -1.026367 0.542061 1.119781 -3.023364
    43 5.773737 0.000000 0.000000 0.719716 -0.745916 -1.721315
  time 2
    0 0.000000 0.000000 0.000000 1.570796 0.000000 -1.570796
    1 15.992188 -7.730469 -3.669922 -2.614088 -0.095491 -0.903447
    2 -3.195313 -7.296875 -11.882813 -1.769064 -0.456278 -1.148564
    3 10.295581 -0.000001 0.000000 -0.059153 -1.049438 -0.344562
    4 3.323331 0.233747 -1.479074 0.059050 -0.114598 1.951433
    5 0.963099 0.000000 0.000000 0.060681 0.054908 0.140673
    6 0.682895 0.000000 -0.000001 0.068215 -0.045203 1.459661
    7 13.093750 -11.718750 -12.437500 -1.040797 0.100782 -2.930650
    8 10.295580 -0.000001 0.000002 -0.350273 0.135276 -0.069049
    9 1.149522 0.416496 -1.414117 1.714395 0.677808 0.420743
    10 1.263878 0.000000 -0.000001 -0.009129 0.006744 0.508638
    11 1.188943 0.000000 -0.000001 -0.011333 0.001999 0.213971
    12 3.773755 0.133215 -0.970574 0.045196 0.200011 0.082572
    13 1.433458 -0.000004 0.000000 -0.034546 0.014770 0.498868
    14 1.019160 0.000002 0.000000 -0.034546 0.014770 0.498868
    15 3.799514 0.014949 -0.039959 -0.033869 -0.010315 0.323017
    16 1.774881 0.000002 0.000000 -0.022137 0.009948 0.501455
    17 1.008844 0.000000 0.000000 -0.022137 0.009948 0.501455
    18 3.632765 0.059053 0.757494 -0.287943 -0.219114 0.451570
    19 1.500135 -0.000001 0.000000 -0.016796 0.007323 0.471867
    20 0.905664 0.000000 0.000000 -0.016796 0.007323 0.471867
    21 3.323329 0.233740 1.479076 -0.445494 -0.487675 0.696760
    22 0.963099 0.000004 -0.000001 -0.017548 0.009905 0.595914
    23 0.682896 0.000001 -0.000001 -0.017548 0.009905 0.595914
    24 13.093750 -11.718750 -12.437500 0.053265 0.100701 -2.930641
    25 1.149523 0.416495 1.414116 -2.019739 -0.212449 0.859796
    26 1.263878 0.000000 0.000000 0.010488 -0.004338 0.261169
    27 1.188945 0.000001 0.000001 0.004538 -0.004536 0.884275
    28 3.773758 0.133214 0.970576 0.122500 0.105731 1.171032
    29 1.433460 -0.000001 0.000000 0.082016 -0.026798 1.411661
    30 1.019162 0.000004 -0.000001 0.111158 -0.008343 1.180290
    31 3.799517 0.014954 0.039958 0.061647 0.037744 1.689926
    32 1.774879 0.000000 0.000000 0.019509 -0.092223 1.500639
    33 1.008848 0.000001 0.000000 0.102219 -0.036441 0.427842
    34 3.632765 0.059046 -0.757493 -0.011589 -0.049002 1.870094
    35 1.500136 0.000000 -0.000001 0.117923 -0.032132 0.855674
    36 0.905664 -0.000002 0.000003 0.110578 -0.052126 1.029632
    37 -3.195313 -7.296875 -11.882813 3.062714 -0.456283 -1.148600
    38 3.705078 0.104004 -19.828125 0.007965 0.032571 -2.314305
    39 3.316835 2.730490 19.763479 -1.690809 -0.712540 0.797605
    40 -0.737305 0.595703 1.311523 1.575901 -1.129059 1.238413
    41 5.773738 -0.000001 0.000000 0.098110 0.488216 -0.666826
    42 -1.242188 0.099854 -1.029297 0.555087 1.121276 -2.987618
    43 5.773737 0.000000 0.000000 0.803987 -0.591980 -1.656446
  time 3
    0 0.000000 0.000000 0.000000 1.570796 0.000000 -1.570796
    1 18.421875 -5.917969 -0.835449 -2.315182 -0.291490 -0.821922
    2 -4.437500 -8.539063 -10.960938 -1.836479 -0.527872 -1.289500
    3 10.295581 -0.000001 0.000000 -0.219613 -0.875289 -0.241824
    4 3.323331 0.233747 -1.479074 0.059050 -0.114598 1.951433
    5 0.963099 0.000000 0.000000 0.060681 0.054908 0.140673
    6 0.682895 0.000000 -0.000001 0.068215 -0.045203 1.459661
    7 13.593750 -12.523438 -11.750000 -0.920226 0.056557 -2.840154
    8 10.295580 -0.000001 0.000002 -0.376657 0.088990 -0.038259
    9 1.149522 0.416496 -1.414117 1.724432 0.694543 0.439442
    10 1.263878 0.000000 -0.000001 -0.009051 0.006901 0.524888
    11 1.188943 0.000000 -0.000001 -0.011333 0.001997 0.213623
    12 3.773755 0.133215 -0.970574 0.051680 0.211060 0.098860
    13 1.433458 -0.000004 0.000000 -0.034261 0.015587 0.522057
    14 1.019160 0.000002 0.000000 -0.034261 0.015587 0.522057
    15 3.799514 0.014949 -0.039959 -0.034082 -0.009466 0.346207
    16 1.774881 0.000002 0.000000 -0.021870 0.010431 0.524657
    17 1.008844 0.000000 0.000000 -0.021870 0.010431 0.524657
    18 3.632765 0.059053 0.757494 -0.291162 -0.235711 0.447707
    19 1.500135 -0.000001 0.000000 -0.016563 0.007747 0.494982
    20 0.905664 0.000000 0.000000 -0.016563 0.007747 0.494982
    21 3.323329 0.233740 1.479076 -0.470116 -0.505627 0.735467
    22 0.963099 0.000004 -0.000001 -0.017354 0.010354 0.619073
    23 0.682896 0.000001 -0.000001 -0.017354 0.010354 0.619073
    24 13.593750 -12.523438 -11.750000 0.173755 0.056546 -2.840129
    25 1.149523 0.416495 1.414116 -2.019739 -0.212449 0.859796
    26 1.263878 0.000000 0.000000 0.010488 -0.004338 0.261169
    27 1.188945 0.000001 0.000001 0.004538 -0.004536 0.884275
    28 3.773758 0.133214 0.970576 0.118003 0.101689 1.193548
    29 1.433460 -0.000001 0.000000 0.082028 -0.026761 1.410754
    30 1.019162 0.000004 -0.000001 0.111210 -0.008220 1.179361
    31 3.799517 0.014954 0.039958 0.061647 0.037744 1.689926
    32 1.774879 0.000000 0.000000 0.019509 -0.092223 1.500639
    33 1.008848 0.000001 0.000000 0.102219 -0.036441 0.427842
    34 3.632765 0.059046 -0.757493 -0.011589 -0.049002 1.870094
    35 1.500136 0.000000 -0.000001 0.117923 -0.032132 0.855674
    36 0.905664 -0.000002 0.000003 0.110578 -0.052126 1.029632
    37 -4.437500 -8.539063 -10.960938 3.002369 -0.527962 -1.289535
    38 3.705078 0.104004 -19.828125 0.007965 0.032571 -2.314305
    39 3.316835 2.730490 19.763479 -1.685911 -0.739592 0.799615
    40 -0.755371 0.583496 1.306641 1.567657 -1.123755 1.272952
    41 5.773738 -0.000001 0.000000 -0.006613 0.390569 -0.640074
    42 -1.243164 0.059814 -1.032227 0.569667 1.121878 -2.947422
    43 5.773737 0.000000 0.000000 0.905662 -0.426766 -1.603158
  time 4
    0 0.000000 0.000000 0.000000 1.570796 0.000000 -1.570796
    1 20.093750 -4.796875 1.672852 -1.986737 -0.510155 -0.840158
    2 -5.320313 -9.140625 -10.289063 -1.861389 -0.543187 -1.397428
    3 10.295581 -0.000001 0.000000 -0.412323 -0.643370 -0.141824
    4 3.323331 0.233747 -1.479074 0.059050 -0.114598 1.951433
    5 0.963099 0.000000 0.000000 0.060681 0.054908 0.140673
    6 0.682895 0.000000 -0.000001 0.068215 -0.045203 1.459661
    7 13.929688 -13.187500 -11.093750 -0.813573 0.012521 -2.737950
    8 10.295580 -0.000001 0.000002 -0.390773 0.055483 -0.022076
    9 1.149522 0.416496 -1.414117 1.735110 0.711476 0.458902
    10 1.263878 0.000000 -0.000001 -0.008888 0.007035 0.541354
    11 1.188943 0.000000 -0.000001 -0.011334 0.001995 0.213276
    12 3.773755 0.133215 -0.970574 0.058483 0.222101 0.115460
    13 1.433458 -0.000004 0.000000 -0.033877 0.016380 0.545500
    14 1.019160 0.000002 0.000000 -0.033877 0.016380 0.545500
    15 3.799514 0.014949 -0.039959 -0.034297 -0.008695 0.369622
    16 1.774881 0.000002 0.000000 -0.021593 0.010913 0.548112
    17 1.008844 0.000000 0.000000 -0.021593 0.010913 0.548112
    18 3.632765 0.059053 0.757494 -0.295109 -0.251638 0.446883
    19 1.500135 -0.000001 0.000000 -0.016427 0.008108 0.518523
    20 0.905664 0.000000 0.000000 -0.016427 0.008108 0.518523
    21 3.323329 0.233740 1.479076 -0.496193 -0.522964 0.775638
    22 0.963099 0.000004 -0.000001 -0.017094 0.010694 0.642591
    23 0.682896 0.000001 -0.000001 -0.017094 0.010694 0.642591
    24 13.929688 -13.187500 -11.093750 0.280294 0.012552 -2.737909
    25 1.149523 0.416495 1.414116 -2.019739 -0.212449 0.859796
    26 1.263878 0.000000 0.000000 0.010488 -0.004338 0.261169
    27 1.188945 0.000001 0.000001 0.004538 -0.004536 0.884275
    28 3.773758 0.133214 0.970576 0.113636 0.097724 1.216282
    29 1.433460 -0.000001 0.000000 0.082096 -0.026658 1.409850
    30 1.019162 0.000004 -0.000001 0.111213 -0.008174 1.178532
    31 3.799517 0.014954 0.039958 0.061647 0.037744 1.689926
    32 1.774879 0.000000 0.000000 0.019509 -0.092223 1.500639
    33 1.008848 0.000001 0.000000 0.102219 -0.036441 0.427842
    34 3.632765 0.059046 -0.757493 -0.011589 -0.049002 1.870094
    35 1.500136 0.000000 -0.000001 0.117923 -0.032132 0.855674
    36 0.905664 -0.000002 0.000003 0.110578 -0.052126 1.029632
    37 -5.320313 -9.140625 -10.289063 2.986511 -0.543286 -1.397491
    38 3.705078 0.104004 -19.828125 0.007965 0.032571 -2.314305
    39 3.316835 2.730490 19.763479 -1.681155 -0.766634 0.801866
    40 -0.772949 0.571289 1.301758 1.560517 -1.118021 1.306414
    41 5.773738 -0.000001 0.000000 -0.121885 0.305791 -0.624076
    42 -1.242188 0.019638 -1.034180 0.584710 1.121893 -2.906852
    43 5.773737 0.000000 0.000000 0.972118 -0.325042 -1.560940
  time 5
    0 0.000000 0.000000 0.000000 1.570796 0.000000 -1.570796
    1 20.656250 -4.394531 3.386719 -1.603498 -0.523171 -1.017126
    2 -5.789063 -9.125000 -10.187500 -1.867017 -0.534976 -1.453382
    3 10.295581 -0.000001 0.000000 -0.395138 -0.354622 -0.115463
    4 3.323331 0.233747 -1.479074 0.059050 -0.114598 1.951433
    5 0.963099 0.000000 0.000000 0.060681 0.054908 0.140673
    6 0.682895 0.000000 -0.000001 0.068215 -0.045203 1.459661
    7 14.101563 -13.750000 -10.507813 -0.731036 -0.030725 -2.631878
    8 10.295580 -0.000001 0.000002 -0.390995 0.025739 -0.019795
    9 1.149522 0.416496 -1.414117 1.746382 0.728756 0.479034
    10 1.263878 0.000000 -0.000001 -0.008805 0.007192 0.558037
    11 1.188943 0.000000 -0.000001 -0.011334 0.001992 0.212842
    12 3.773755 0.133215 -0.970574 0.065559 0.233300 0.132558
    13 1.433458 -0.000004 0.000000 -0.033474 0.017175 0.569469
    14 1.019160 0.000002 0.000000 -0.033474 0.017175 0.569469
    15 3.799514 0.014949 -0.039959 -0.034585 -0.007894 0.393615
    16 1.774881 0.000002 0.000000 -0.021363 0.011503 0.572093
    17 1.008844 0.000000 0.000000 -0.021363 0.011503 0.572093
    18 3.632765 0.059053 0.757494 -0.300326 -0.266507 0.451387
    19 1.500135 -0.000001 0.000000 -0.016176 0.008531 0.542495
    20 0.905664 0.000000 0.000000 -0.016176 0.008531 0.542495
    21 3.323329 0.233740 1.479076 -0.523897 -0.539635 0.817598
    22 0.963099 0.000004 -0.000001 -0.016799 0.011114 0.666568
    23 0.682896 0.000001 -0.000001 -0.016799 0.011114 0.666568
    24 14.101563 -13.750000 -10.507813 0.362897 -0.030804 -2.631914
    25 1.149523 0.416495 1.414116 -2.019739 -0.212449 0.859796
    26 1.263878 0.000000 0.000000 0.010488 -0.004338 0.261169
    27 1.188945 0.000001 0.000001 0.004538 -0.004536 0.884275
    28 3.773758 0.133214 0.970576 0.109287 0.093703 1.239008
    29 1.433460 -0.000001 0.000000 0.082107 -0.026626 1.409057
    30 1.019162 0.000004 -0.000001 0.111264 -0.008056 1.177707
    31 3.799517 0.014954 0.039958 0.061647 0.037744 1.689926
    32 1.774879 0.000000 0.000000 0.019509 -0.092223 1.500639
    33 1.008848 0.000001 0.000000 0.102219 -0.036441 0.427842
    34 3.632765 0.059046 -0.757493 -0.011589 -0.049002 1.870094
    35 1.500136 0.000000 -0.000001 0.117923 -0.032132 0.855674
    36 0.905664 -0.000002 0.000003 0.110578 -0.052126 1.029632
    37 -5.789063 -9.125000 -10.187500 3.001030 -0.535073 -1.453418
    38 3.705078 0.104004 -19.828125 0.007965 0.032571 -2.314305
    39 3.316835 2.730490 19.763479 -1.676335 -0.790227 0.803423
    40 -0.788086 0.560547 1.296875 1.553752 -1.112649 1.336084
    41 5.773738 -0.000001 0.000000 -0.234458 0.234540 -0.619181
    42 -1.241211 -0.015778 -1.036133 0.598881 1.121923 -2.870448
    43 5.773737 0.000000 0.000000 0.997329 -0.303411 -1.523623
  time 6
    0 0.000000 0.000000 0.000000 1.570796 0.000000 -1.570796
    1 20.625000 -4.093750 4.578125 -1.312461 -0.327882 -1.075170
    2 -6.082031 -8.906250 -10.289063 -1.869421 -0.524940 -1.486304
    3 10.295581 -0.000001 0.000000 -0.227257 -0.072579 -0.181359
    4 3.323331 0.233747 -1.479074 0.059050 -0.114598 1.951433
    5 0.963099 0.000000 0.000000 0.060681 0.054908 0.140673
    6 0.682895 0.000000 -0.000001 0.068215 -0.045203 1.459661
    7 14.164063 -14.210938 -10.015625 -0.675777 -0.069231 -2.531805
    8 10.295580 -0.000001 0.000002 -0.382506 -0.009200 -0.029347
    9 1.149522 0.416496 -1.414117 1.683624 0.796277 0.426119
    10 1.263878 0.000000 -0.000001 -0.008845 0.007143 0.546821
    11 1.188943 0.000000 -0.000001 -0.011377 0.001660 0.184648
    12 3.773755 0.133215 -0.970574 0.073499 0.245111 0.150958
    13 1.433458 -0.000004 0.000000 -0.033043 0.017989 0.595059
    14 1.019160 0.000002 0.000000 -0.033043 0.017989 0.595059
    15 3.799514 0.014949 -0.039959 -0.034763 -0.006992 0.419253
    16 1.774881 0.000002 0.000000 -0.021055 0.011997 0.597695
    17 1.008844 0.000000 0.000000 -0.021055 0.011997 0.597695
    18 3.632765 0.059053 0.757494 -0.310575 -0.276230 0.476583
    19 1.500135 -0.000001 0.000000 -0.015963 0.009038 0.574645
    20 0.905664 0.000000 0.000000 -0.015941 0.009076 0.579418
    21 3.323329 0.233740 1.479076 -0.554672 -0.556291 0.863381
    22 0.963099 0.000004 -0.000001 -0.016486 0.011543 0.692204
    23 0.682896 0.000001 -0.000001 -0.016486 0.011543 0.692204
    24 14.164063 -14.210938 -10.015625 0.418155 -0.069237 -2.531826
    25 1.149523 0.416495 1.414116 -2.019739 -0.212449 0.859796
    26 1.263878 0.000000 0.000000 0.010488 -0.004338 0.261169
    27 1.188945 0.000001 0.000001 0.004538 -0.004536 0.884275
    28 3.773758 0.133214 0.970576 0.103943 0.090533 1.258300
    29 1.433460 -0.000001 0.000000 0.082119 -0.026588 1.408151
    30 1.019162 0.000004 -0.000001 0.111196 -0.007962 1.176878
    31 3.799517 0.014954 0.039958 0.061647 0.037744 1.689926
    32 1.774879 0.000000 0.000000 0.019509 -0.092223 1.500639
    33 1.008848 0.000001 0.000000 0.102219 -0.036441 0.427842
    34 3.632765 0.059046 -0.757493 -0.011589 -0.049002 1.870094
    35 1.500136 0.000000 -0.000001 0.117923 -0.032132 0.855674
    36 0.905664 -0.000002 0.000003 0.110578 -0.052126 1.029632
    37 -6.082031 -8.906250 -10.289063 3.046404 -0.524930 -1.486318
    38 3.705078 0.104004 -19.828125 0.007965 0.032571 -2.314305
    39 3.316835 2.730490 19.763479 -1.670971 -0.807017 0.802758
    40 -0.800293 0.553711 1.292969 1.546720 -1.108448 1.359039
    41 5.773738 -0.000001 0.000000 -0.331971 0.176092 -0.622213
    42 -1.238281 -0.041412 -1.039063 0.610812 1.122540 -2.843083
    43 5.773737 0.000000 0.000000 1.007336 -0.310537 -1.489865
  time 7
    0 0.000000 0.000000 0.000000 1.570796 0.000000 -1.570796
    1 20.265625 -3.789063 5.363281 -1.151505 -0.156337 -0.969933
    2 -6.273438 -8.664063 -10.437500 -1.871229 -0.517431 -1.506106
    3 10.295581 -0.000001 0.000000 -0.096516 0.137651 -0.299565
    4 3.323331 0.233747 -1.479074 0.059050 -0.114598 1.951433
    5 0.963099 0.000000 0.000000 0.060681 0.054908 0.140673
    6 0.682895 0.000000 -0.000001 0.068215 -0.045203 1.459661
    7 14.164063 -14.570313 -9.617188 -0.643216 -0.098691 -2.445560
    8 10.295580 -0.000001 0.000002 -0.374301 -0.056252 -0.047803
    9 1.149522 0.416496 -1.414117 1.591419 0.872242 0.348853
    10 1.263878 0.000000 -0.000001 -0.009002 0.007019 0.532490
    11 1.188943 0.000000 -0.000001 -0.011415 0.001303 0.152075
    12 3.773755 0.133215 -0.970574 0.081917 0.257294 0.170196
    13 1.433458 -0.000004 0.000000 -0.032477 0.018869 0.621747
    14 1.019160 0.000002 0.000000 -0.032477 0.018869 0.621747
    15 3.799514 0.014949 -0.039959 -0.034925 -0.006070 0.445845
    16 1.774881 0.000002 0.000000 -0.020705 0.012579 0.624397
    17 1.008844 0.000000 0.000000 -0.020705 0.012579 0.624397
    18 3.632765 0.059053 0.757494 -0.323979 -0.282961 0.513628
    19 1.500135 -0.000001 0.000000 -0.015738 0.009338 0.594748
    20 0.905664 0.000000 0.000000 -0.015738 0.009338 0.594748
    21 3.323329 0.233740 1.479076 -0.587934 -0.572450 0.912229
    22 0.963099 0.000004 -0.000001 -0.016239 0.012004 0.718881
    23 0.682896 0.000001 -0.000001 -0.016239 0.012004 0.718881
    24 14.164063 -14.570313 -9.617188 0.450696 -0.098687 -2.445541
    25 1.149523 0.416495 1.414116 -2.019739 -0.212449 0.859796
    26 1.263878 0.000000 0.000000 0.010488 -0.004338 0.261169
    27 1.188945 0.000001 0.000001 0.004538 -0.004536 0.884275
    28 3.773758 0.133214 0.970576 0.098934 0.087151 1.280026
    29 1.433460 -0.000001 0.000000 0.082119 -0.026434 1.407362
    30 1.019162 0.000004 -0.000001 0.111247 -0.007838 1.175951
    31 3.799517 0.014954 0.039958 0.061647 0.037744 1.689926
    32 1.774879 0.000000 0.000000 0.019509 -0.092223 1.500639
    33 1.008848 0.000001 0.000000 0.102219 -0.036441 0.427842
    34 3.632765 0.059046 -0.757493 -0.011589 -0.049002 1.870094
    35 1.500136 0.000000 -0.000001 0.117923 -0.032132 0.855674
    36 0.905664 -0.000002 0.000003 0.110578 -0.052126 1.029632
    37 -6.273438 -8.664063 -10.437500 3.110726 -0.517463 -1.506176
    38 3.705078 0.104004 -19.828125 0.007965 0.032571 -2.314305
    39 3.316835 2.730490 19.763479 -1.665425 -0.813863 0.798987
    40 -0.808105 0.551758 1.288086 1.538314 -1.106336 1.373133
    41 5.773738 -0.000001 0.000000 -0.407840 0.130013 -0.627089
    42 -1.234375 -0.052521 -1.042969 0.619598 1.124904 -2.828574
    43 5.773737 0.000000 0.000000 1.010834 -0.324901 -1.462925
  time 8
    0 0.000000 0.000000 0.000000 1.570796 0.000000 -1.570796
    1 19.859375 -3.619141 5.882813 -1.063941 -0.069953 -0.852120
    2 -6.410156 -8.445313 -10.578125 -1.872978 -0.512275 -1.520303
    3 10.295581 -0.000001 0.000000 -0.034579 0.262704 -0.403551
    4 3.323331 0.233747 -1.479074 0.059050 -0.114598 1.951433
    5 0.963099 0.000000 0.000000 0.060681 0.054908 0.140673
    6 0.682895 0.000000 -0.000001 0.068215 -0.045203 1.459661
    7 14.218750 -14.789063 -9.320313 -0.624762 -0.117911 -2.377773
    8 10.295580 -0.000001 0.000002 -0.379042 -0.125259 -0.071266
    9 1.149522 0.416496 -1.414117 1.468019 0.948280 0.246048
    10 1.263878 0.000000 -0.000001 -0.009165 0.006883 0.516044
    11 1.188943 0.000000 -0.000001 -0.011447 0.000928 0.116689
    12 3.773755 0.133215 -0.970574 0.090465 0.269108 0.189329
    13 1.433458 -0.000004 0.000000 -0.031981 0.019756 0.647913
    14 1.019160 0.000002 0.000000 -0.031980 0.019757 0.648004
    15 3.799514 0.014949 -0.039959 -0.035069 -0.005151 0.472074
    16 1.774881 0.000002 0.000000 -0.020347 0.013149 0.650577
    17 1.008844 0.000000 0.000000 -0.020347 0.013149 0.650577
    18 3.632765 0.059053 0.757494 -0.336363 -0.290689 0.545120
    19 1.500135 -0.000001 0.000000 -0.016201 0.008444 0.542048
    20 0.905664 0.000000 0.000000 -0.016704 0.007606 0.485639
    21 3.323329 0.233740 1.479076 -0.621903 -0.586828 0.961359
    22 0.963099 0.000004 -0.000001 -0.015906 0.012426 0.745137
    23 0.682896 0.000001 -0.000001 -0.015906 0.012426 0.745137
    24 14.218750 -14.789063 -9.320313 0.469193 -0.117923 -2.377771
    25 1.149523 0.416495 1.414116 -2.019739 -0.212449 0.859796
    26 1.263878 0.000000 0.000000 0.010488 -0.004338 0.261169
    27 1.188945 0.000001 0.000001 0.004538 -0.004536 0.884275
    28 3.773758 0.133214 0.970576 0.094060 0.083618 1.302716
    29 1.433460 -0.000001 0.000000 0.082131 -0.026397 1.406456
    30 1.019162 0.000004 -0.000001 0.111251 -0.007792 1.175122
    31 3.799517 0.014954 0.039958 0.061647 0.037744 1.689926
    32 1.774879 0.000000 0.000000 0.019509 -0.092223 1.500639
    33 1.008848 0.000001 0.000000 0.102219 -0.036441 0.427842
    34 3.632765 0.059046 -0.757493 -0.011589 -0.049002 1.870094
    35 1.500136 0.000000 -0.000001 0.117923 -0.032132 0.855674
    36 0.905664 -0.000002 0.000003 0.110578 -0.052126 1.029632
    37 -6.410156 -8.445313 -10.578125 -3.121603 -0.512301 -1.520338
    38 3.705078 0.104004 -19.828125 0.007965 0.032571 -2.314305
    39 3.316835 2.730490 19.763479 -1.659061 -0.807288 0.790536
    40 -0.810547 0.558105 1.284180 1.527103 -1.107167 1.376094
    41 5.773738 -0.000001 0.000000 -0.460870 0.097377 -0.625634
    42 -1.229492 -0.043976 -1.048828 0.623585 1.129711 -2.832081
    43 5.773737 0.000000 0.000000 1.012374 -0.339189 -1.440753
  time 9
    0 0.000000 0.000000 0.000000 1.570796 0.000000 -1.570796
    1 19.531250 -3.625000 6.242188 -1.017778 0.043133 -0.783708
    2 -6.531250 -8.234375 -10.703125 -1.874587 -0.507224 -1.533113
    3 10.295581 -0.000001 0.000000 0.073394 0.340339 -0.445395
    4 3.323331 0.233747 -1.479074 0.059050 -0.114598 1.951433
    5 0.963099 0.000000 0.000000 0.060681 0.054908 0.140673
    6 0.682895 0.000000 -0.000001 0.068215 -0.045203 1.459661
    7 14.335938 -14.882813 -9.101563 -0.612972 -0.129610 -2.326542
    8 10.295580 -0.000001 0.000002 -0.399118 -0.215046 -0.102429
    9 1.149522 0.416496 -1.414117 1.316674 1.015631 0.119984
    10 1.263878 0.000000 -0.000001 -0.009246 0.006720 0.498832
    11 1.188943 0.000000 -0.000001 -0.011472 0.000461 0.080390
    12 3.773755 0.133215 -0.970574 0.094935 0.281146 0.182186
    13 1.433458 -0.000004 0.000000 -0.031870 0.019971 0.656297
    14 1.019160 0.000002 0.000000 -0.031712 0.020102 0.661132
    15 3.799514 0.014949 -0.039959 -0.035067 -0.005163 0.471364
    16 1.774881 0.000002 0.000000 -0.020255 0.013328 0.660150
    17 1.008844 0.000000 0.000000 -0.020406 0.013017 0.645659
    18 3.632765 0.059053 0.757494 -0.346800 -0.299822 0.565757
    19 1.500135 -0.000001 0.000000 -0.016098 0.008715 0.555050
    20 0.905664 0.000000 0.000000 -0.016600 0.007628 0.490799
    21 3.323329 0.233740 1.479076 -0.654174 -0.598870 1.007461
    22 0.963099 0.000004 -0.000001 -0.015578 0.012824 0.769200
    23 0.682896 0.000001 -0.000001 -0.015578 0.012824 0.769200
    24 14.335938 -14.882813 -9.101563 0.481026 -0.129597 -2.326532
    25 1.149523 0.416495 1.414116 -2.019739 -0.212449 0.859796
    26 1.263878 0.000000 0.000000 0.010488 -0.004338 0.261169
    27 1.188945 0.000001 0.000001 0.004538 -0.004536 0.884275
    28 3.773758 0.133214 0.970576 0.089208 0.080262 1.324552
    29 1.433460 -0.000001 0.000000 0.082198 -0.026299 1.405667
    30 1.019162 0.000004 -0.000001 0.111302 -0.007674 1.174299
    31 3.799517 0.014954 0.039958 0.061647 0.037744 1.689926
    32 1.774879 0.000000 0.000000 0.019509 -0.092223 1.500639
    33 1.008848 0.000001 0.000000 0.102219 -0.036441 0.427842
    34 3.632765 0.059046 -0.757493 -0.011589 -0.049002 1.870094
    35 1.500136 0.000000 -0.000001 0.117923 -0.032132 0.855674
    36 0.905664 -0.000002 0.000003 0.110578 -0.052126 1.029632
    37 -6.531250 -8.234375 -10.703125 -3.087116 -0.507293 -1.533174
    38 3.705078 0.104004 -19.828125 0.007965 0.032571 -2.314305
    39 3.316835 2.730490 19.763479 -1.653110 -0.783871 0.777440
    40 -0.806152 0.573242 1.280273 1.512655 -1.111877 1.364895
    41 5.773738 -0.000001 0.000000 -0.496348 0.076553 -0.615649
    42 -1.222656 -0.010796 -1.057617 0.620857 1.137563 -2.858667
    43 5.773737 0.000000 0.000000 1.013197 -0.353139 -1.419980
  time 10
    0 0.000000 0.000000 0.000000 1.570796 0.000000 -1.570796
    1 19.359375 -3.699219 6.464844 -0.994376 0.251872 -0.759034
    2 -6.628906 -8.078125 -10.789063 -1.875950 -0.504114 -1.543703
    3 10.295581 -0.000001 0.000000 0.296833 0.394932 -0.407275
    4 3.323331 0.233747 -1.479074 0.079480 -0.101514 1.762450
    5 0.963099 0.000000 0.000000 0.060681 0.054908 0.140673
    6 0.682895 0.000000 -0.000001 0.068215 -0.045203 1.459661
    7 14.523438 -14.882813 -8.953125 -0.603786 -0.135538 -2.288448
    8 10.295580 -0.000001 0.000002 -0.428030 -0.314647 -0.145668
    9 1.149522 0.416496 -1.414117 1.147591 1.068779 -0.021157
    10 1.263878 0.000000 -0.000001 -0.009407 0.006578 0.481746
    11 1.188943 0.000000 -0.000001 -0.011480 0.000170 0.044634
    12 3.773755 0.133215 -0.970574 0.098799 0.293678 0.171263
    13 1.433458 -0.000004 0.000000 -0.031670 0.020205 0.662500
    14 1.019160 0.000002 0.000000 -0.031501 0.020543 0.673556
    15 3.799514 0.014949 -0.039959 -0.034991 -0.005348 0.466751
    16 1.774881 0.000002 0.000000 -0.020178 0.013484 0.667546
    17 1.008844 0.000000 0.000000 -0.020575 0.012868 0.636472
    18 3.632765 0.059053 0.757494 -0.357405 -0.309142 0.585499
    19 1.500135 -0.000001 0.000000 -0.015961 0.009041 0.575005
    20 0.905664 0.000000 0.000000 -0.016491 0.007937 0.507903
    21 3.323329 0.233740 1.479076 -0.687167 -0.609625 1.054211
    22 0.963099 0.000004 -0.000001 -0.015276 0.013137 0.793288
    23 0.682896 0.000001 -0.000001 -0.015276 0.013137 0.793288
    24 14.523438 -14.882813 -8.953125 0.490158 -0.135492 -2.288400
    25 1.149523 0.416495 1.414116 -2.019739 -0.212449 0.859796
    26 1.263878 0.000000 0.000000 0.010488 -0.004338 0.261169
    27 1.188945 0.000001 0.000001 0.004538 -0.004536 0.884275
    28 3.773758 0.133214 0.970576 0.084217 0.077112 1.344289
    29 1.433460 -0.000001 0.000000 0.082209 -0.026261 1.404763
    30 1.019162 0.000004 -0.000001 0.111233 -0.007580 1.173471
    31 3.799517 0.014954 0.039958 0.061647 0.037744 1.689926
    32 1.774879 0.000000 0.000000 0.019509 -0.092223 1.500639
    33 1.008848 0.000001 0.000000 0.102219 -0.036441 0.427842
    34 3.632765 0.059046 -0.757493 -0.011589 -0.049002 1.870094
    35 1.500136 0.000000 -0.000001 0.117923 -0.032132 0.855674
    36 0.905664 -0.000002 0.000003 0.110578 -0.052126 1.029632
    37 -6.628906 -8.078125 -10.789063 -3.051640 -0.504118 -1.543648
    38 3.705078 0.104004 -19.828125 0.007965 0.032571 -2.314305
    39 3.316835 2.730490 19.763479 -1.653606 -0.757432 0.769891
    40 -0.794922 0.587402 1.281250 1.508373 -1.118137 1.341985
    41 5.773738 -0.000001 0.000000 -0.519084 0.065160 -0.598903
    42 -1.218750 0.027893 -1.061523 0.609588 1.142124 -2.895650
    43 5.773737 0.000000 0.000000 1.014621 -0.362401 -1.404418
  time 11
    0 0.000000 0.000000 0.000000 1.570796 0.000000 -1.570796
    1 19.328125 -3.755859 6.632813 -0.966911 0.378880 -0.755871
    2 -6.683594 -8.007813 -10.820313 -1.876848 -0.503710 -1.550164
    3 10.295581 -0.000001 0.000000 0.439315 0.426466 -0.353835
    4 3.323331 0.233747 -1.479074 0.113571 -0.060972 1.347465
    5 0.963099 0.000000 0.000000 0.060681 0.054908 0.140673
    6 0.682895 0.000000 -0.000001 0.068215 -0.045203 1.459661
    7 14.734375 -14.820313 -8.851563 -0.595835 -0.136799 -2.260207
    8 10.295580 -0.000001 0.000002 -0.456907 -0.412396 -0.202286
    9 1.149522 0.416496 -1.414117 0.984306 1.105390 -0.157317
    10 1.263878 0.000000 -0.000001 -0.009478 0.006420 0.466028
    11 1.188943 0.000000 -0.000001 -0.011483 -0.000196 0.011051
    12 3.773755 0.133215 -0.970574 0.102277 0.306067 0.159344
    13 1.433458 -0.000004 0.000000 -0.031588 0.020371 0.667797
    14 1.019160 0.000002 0.000000 -0.031216 0.020935 0.684817
    15 3.799514 0.014949 -0.039959 -0.034996 -0.005529 0.461254
    16 1.774881 0.000002 0.000000 -0.020023 0.013604 0.674220
    17 1.008844 0.000000 0.000000 -0.020694 0.012597 0.626121
    18 3.632765 0.059053 0.757494 -0.368109 -0.318253 0.604700
    19 1.500135 -0.000001 0.000000 -0.015718 0.009371 0.598993
    20 0.905664 0.000000 0.000000 -0.016349 0.008301 0.531931
    21 3.323329 0.233740 1.479076 -0.720889 -0.619022 1.101567
    22 0.963099 0.000004 -0.000001 -0.014935 0.013522 0.817216
    23 0.682896 0.000001 -0.000001 -0.014935 0.013522 0.817216
    24 14.734375 -14.820313 -8.851563 0.498126 -0.136751 -2.260170
    25 1.149523 0.416495 1.414116 -2.025761 -0.211879 0.884408
    26 1.263878 0.000000 0.000000 0.008909 -0.004791 0.235418
    27 1.188945 0.000001 0.000001 0.003663 0.000185 0.826503
    28 3.773758 0.133214 0.970576 0.084106 0.075129 1.360301
    29 1.433460 -0.000001 0.000000 0.082211 -0.026257 1.404650
    30 1.019162 0.000004 -0.000001 0.111234 -0.007569 1.173264
    31 3.799517 0.014954 0.039958 0.061647 0.037744 1.689926
    32 1.774879 0.000000 0.000000 0.019509 -0.092223 1.500639
    33 1.008848 0.000001 0.000000 0.102219 -0.036441 0.427842
    34 3.632765 0.059046 -0.757493 -0.003947 -0.050211 1.715523
    35 1.500136 0.000000 -0.000001 0.117923 -0.032132 0.855674
    36 0.905664 -0.000002 0.000003 0.110578 -0.052126 1.029632
    37 -6.683594 -8.007813 -10.820313 -3.016197 -0.503765 -1.550233
    38 3.705078 0.104004 -19.828125 0.007965 0.032571 -2.314305
    39 3.316835 2.730490 19.763479 -1.662531 -0.741276 0.773929
    40 -0.780273 0.591797 1.288086 1.521414 -1.123050 1.314294
    41 5.773738 -0.000001 0.000000 -0.532441 0.060325 -0.578555
    42 -1.222656 0.053833 -1.055664 0.592988 1.139330 -2.926604
    43 5.773737 0.000000 0.000000 1.016683 -0.365328 -1.396571
  time 12
    0 0.000000 0.000000 0.000000 1.570796 0.000000 -1.570796
    1 19.312500 -3.802734 6.773438 -0.931685 0.397603 -0.751136
    2 -6.707031 -7.976563 -10.835938 -1.877186 -0.503443 -1.552541
    3 10.295581 -0.000001 0.000000 0.462800 0.455192 -0.329622
    4 3.323331 0.233747 -1.479074 0.128406 -0.010310 0.937231
    5 0.963099 0.000000 0.000000 0.060681 0.054908 0.140673
    6 0.682895 0.000000 -0.000001 0.068215 -0.045203 1.459661
    7 14.937500 -14.726563 -8.789063 -0.588893 -0.134424 -2.238375
    8 10.295580 -0.000001 0.000002 -0.477334 -0.496480 -0.269031
    9 1.149522 0.416496 -1.414117 0.860828 1.128407 -0.259171
    10 1.263878 0.000000 -0.000001 -0.009624 0.006292 0.452907
    11 1.188943 0.000000 -0.000001 -0.011477 -0.000538 -0.018471
    12 3.773755 0.133215 -0.970574 0.105850 0.317797 0.149709
    13 1.433458 -0.000004 0.000000 -0.031501 0.020543 0.673556
    14 1.019160 0.000002 0.000000 -0.031056 0.021249 0.694539
    15 3.799514 0.014949 -0.039959 -0.034987 -0.005586 0.457974
    16 1.774881 0.000002 0.000000 -0.019944 0.013759 0.681542
    17 1.008844 0.000000 0.000000 -0.020775 0.012426 0.617507
    18 3.632765 0.059053 0.757494 -0.378807 -0.327000 0.624031
    19 1.500135 -0.000001 0.000000 -0.015440 0.009785 0.623705
    20 0.905664 0.000000 0.000000 -0.016088 0.008735 0.557474
    21 3.323329 0.233740 1.479076 -0.754711 -0.626985 1.148709
    22 0.963099 0.000004 -0.000001 -0.014590 0.013899 0.840796
    23 0.682896 0.000001 -0.000001 -0.014590 0.013899 0.840796
    24 14.937500 -14.726563 -8.789063 0.505140 -0.134418 -2.238407
    25 1.149523 0.416495 1.414116 -2.040807 -0.209963 0.942271
    26 1.263878 0.000000 0.000000 0.005209 -0.005829 0.174586
    27 1.188945 0.000001 0.000001 0.001823 0.011454 0.689991
    28 3.773758 0.133214 0.970576 0.083497 0.073713 1.371064
    29 1.433460 -0.000001 0.000000 0.082214 -0.026247 1.404423
    30 1.019162 0.000004 -0.000001 0.111234 -0.007557 1.173057
    31 3.799517 0.014954 0.039958 0.061647 0.037744 1.689926
    32 1.774879 0.000000 0.000000 0.019509 -0.092223 1.500639
    33 1.008848 0.000001 0.000000 0.102219 -0.036441 0.427842
    34 3.632765 0.059046 -0.757493 0.012919 -0.048678 1.378385
    35 1.500136 0.000000 -0.000001 0.117923 -0.032132 0.855674
    36 0.905664 -0.000002 0.000003 0.110578 -0.052126 1.029632
    37 -6.707031 -7.976563 -10.835938 -2.982521 -0.503462 -1.552597
    38 3.705078 0.104004 -19.828125 0.007965 0.032571 -2.314305
    39 3.316835 2.730490 19.763479 -1.675273 -0.729826 0.783656
    40 -0.763184 0.591797 1.297852 1.543890 -1.126861 1.283401
    41 5.773738 -0.000001 0.000000 -0.539464 0.058827 -0.558424
    42 -1.231445 0.073486 -1.045898 0.574438 1.132398 -2.954111
    43 5.773737 0.000000 0.000000 1.017102 -0.367381 -1.393099
  time 13
    0 0.000000 0.000000 0.000000 1.570796 0.000000 -1.570796
    1 19.296875 -3.839844 6.859375 -0.901053 0.410081 -0.744761
    2 -6.710938 -7.960938 -10.851563 -1.877305 -0.502982 -1.552837
    3 10.295581 -0.000001 0.000000 0.478029 0.480873 -0.311450
    4 3.323331 0.233747 -1.479074 0.128086 0.013815 0.750495
    5 0.963099 0.000000 0.000000 0.060681 0.054908 0.140673
    6 0.682895 0.000000 -0.000001 0.068215 -0.045203 1.459661
    7 15.093750 -14.648438 -8.734375 -0.583166 -0.129731 -2.219291
    8 10.295580 -0.000001 0.000002 -0.484310 -0.558032 -0.338946
    9 1.149522 0.416496 -1.414117 0.808844 1.143874 -0.298792
    10 1.263878 0.000000 -0.000001 -0.009673 0.006162 0.443256
    11 1.188943 0.000000 -0.000001 -0.011466 -0.000849 -0.042644
    12 3.773755 0.133215 -0.970574 0.109927 0.328263 0.145286
    13 1.433458 -0.000004 0.000000 -0.031285 0.020794 0.680969
    14 1.019160 0.000002 0.000000 -0.030862 0.021421 0.702349
    15 3.799514 0.014949 -0.039959 -0.034992 -0.005552 0.459924
    16 1.774881 0.000002 0.000000 -0.019848 0.013936 0.691168
    17 1.008844 0.000000 0.000000 -0.020825 0.012302 0.613522
    18 3.632765 0.059053 0.757494 -0.389885 -0.335141 0.644356
    19 1.500135 -0.000001 0.000000 -0.015273 0.010123 0.646422
    20 0.905664 0.000000 0.000000 -0.015940 0.009079 0.579778
    21 3.323329 0.233740 1.479076 -0.788809 -0.633540 1.195896
    22 0.963099 0.000004 -0.000001 -0.014277 0.014188 0.864120
    23 0.682896 0.000001 -0.000001 -0.014277 0.014188 0.864120
    24 15.093750 -14.648438 -8.734375 0.510767 -0.129712 -2.219360
    25 1.149523 0.416495 1.414116 -2.060284 -0.206458 1.011391
    26 1.263878 0.000000 0.000000 0.000679 -0.007036 0.101734
    27 1.188945 0.000001 0.000001 -0.000649 0.025120 0.526644
    28 3.773758 0.133214 0.970576 0.082447 0.073185 1.374971
    29 1.433460 -0.000001 0.000000 0.082215 -0.026243 1.404310
    30 1.019162 0.000004 -0.000001 0.111235 -0.007552 1.172954
    31 3.799517 0.014954 0.039958 0.051946 0.050253 1.470022
    32 1.774879 0.000000 0.000000 0.019509 -0.092223 1.500639
    33 1.008848 0.000001 0.000000 0.102219 -0.036441 0.427842
    34 3.632765 0.059046 -0.757493 0.028269 -0.041670 1.040598
    35 1.500136 0.000000 -0.000001 0.117923 -0.032132 0.855674
    36 0.905664 -0.000002 0.000003 0.110578 -0.052126 1.029632
    37 -6.710938 -7.960938 -10.851563 -2.951842 -0.502969 -1.552901
    38 3.705078 0.104004 -19.828125 0.007965 0.032571 -2.314305
    39 3.316835 2.730490 19.763479 -1.688420 -0.717747 0.794270
    40 -0.744629 0.592285 1.308594 1.568779 -1.129999 1.249754
    41 5.773738 -0.000001 0.000000 -0.543541 0.057586 -0.542618
    42 -1.240234 0.093628 -1.033203 0.556428 1.124382 -2.981536
    43 5.773737 0.000000 0.000000 1.016653 -0.368897 -1.391775
  time 14
    0 0.000000 0.000000 0.000000 1.570796 0.000000 -1.570796
    1 19.296875 -3.867188 6.910156 -0.873915 0.426028 -0.733288
    2 -6.699219 -7.949219 -10.859375 -1.877222 -0.502204 -1.551515
    3 10.295581 -0.000001 0.000000 0.495700 0.505876 -0.298785
    4 3.323331 0.233747 -1.479074 0.128791 -0.002398 0.875669
    5 0.963099 0.000000 0.000000 0.060681 0.054908 0.140673
    6 0.682895 0.000000 -0.000001 0.068215 -0.045203 1.459661
    7 15.164063 -14.640625 -8.679688 -0.579590 -0.124227 -2.199364
    8 10.295580 -0.000001 0.000002 -0.476353 -0.589325 -0.400303
    9 1.149522 0.416496 -1.414117 0.866738 1.154411 -0.242365
    10 1.263878 0.000000 -0.000001 -0.009688 0.006138 0.438390
    11 1.188943 0.000000 -0.000001 -0.011456 -0.001032 -0.059569
    12 3.773755 0.133215 -0.970574 0.115230 0.337180 0.148831
    13 1.433458 -0.000004 0.000000 -0.031095 0.021190 0.690776
    14 1.019160 0.000002 0.000000 -0.030787 0.021566 0.706487
    15 3.799514 0.014949 -0.039959 -0.034973 -0.005249 0.467636
    16 1.774881 0.000002 0.000000 -0.019612 0.014203 0.704764
    17 1.008844 0.000000 0.000000 -0.020781 0.012415 0.616510
    18 3.632765 0.059053 0.757494 -0.400314 -0.339423 0.668424
    19 1.500135 -0.000001 0.000000 -0.015036 0.010406 0.665846
    20 0.905664 0.000000 0.000000 -0.015717 0.009373 0.599264
    21 3.323329 0.233740 1.479076 -0.817532 -0.638035 1.235531
    22 0.963099 0.000004 -0.000001 -0.014064 0.014483 0.883558
    23 0.682896 0.000001 -0.000001 -0.014064 0.014483 0.883558
    24 15.164063 -14.640625 -8.679688 0.514296 -0.124154 -2.199403
    25 1.149523 0.416495 1.414116 -2.077558 -0.202496 1.069251
    26 1.263878 0.000000 0.000000 -0.003015 -0.008141 0.040675
    27 1.188945 0.000001 0.000001 -0.002888 0.036648 0.389646
    28 3.773758 0.133214 0.970576 0.066481 0.093027 1.210409
    29 1.433460 -0.000001 0.000000 0.082218 -0.026233 1.404084
    30 1.019162 0.000004 -0.000001 0.111236 -0.007540 1.172747
    31 3.799517 0.014954 0.039958 0.027726 0.066731 1.060670
    32 1.774879 0.000000 0.000000 0.019509 -0.092223 1.500639
    33 1.008848 0.000001 0.000000 0.102219 -0.036441 0.427842
    34 3.632765 0.059046 -0.757493 0.034298 -0.036856 0.887389
    35 1.500136 0.000000 -0.000001 0.117923 -0.032132 0.855674
    36 0.905664 -0.000002 0.000003 0.110578 -0.052126 1.029632
    37 -6.699219 -7.949219 -10.859375 -2.925675 -0.502245 -1.551549
    38 3.705078 0.104004 -19.828125 0.007965 0.032571 -2.314305
    39 3.316835 2.730490 19.763479 -1.698003 -0.699898 0.800357
    40 -0.725098 0.597656 1.317383 1.588406 -1.132885 1.214825
    41 5.773738 -0.000001 0.000000 -0.548236 0.053454 -0.535704
    42 -1.245117 0.120667 -1.024414 0.541784 1.118380 -3.011929
    43 5.773737 0.000000 0.000000 1.015468 -0.370363 -1.391905
  time 15
    0 0.000000 0.000000 0.000000 1.570796 0.000000 -1.570796
    1 19.265625 -3.886719 6.929688 -0.848706 0.454681 -0.713896
    2 -6.683594 -7.937500 -10.875000 -1.877040 -0.501061 -1.549064
    3 10.295581 -0.000001 0.000000 0.526788 0.531000 -0.289334
    4 3.323331 0.233747 -1.479074 0.122470 -0.040013 1.171302
    5 0.963099 0.000000 0.000000 0.060681 0.054908 0.140673
    6 0.682895 0.000000 -0.000001 0.068215 -0.045203 1.459661
    7 15.156250 -14.687500 -8.625000 -0.578297 -0.115689 -2.181128
    8 10.295580 -0.000001 0.000002 -0.458014 -0.591651 -0.442956
    9 1.149522 0.416496 -1.414117 1.030094 1.154081 -0.092216
    10 1.263878 0.000000 -0.000001 -0.009685 0.006143 0.439363
    11 1.188943 0.000000 -0.000001 -0.011449 -0.001165 -0.067687
    12 3.773755 0.133215 -0.970574 0.121332 0.344525 0.158354
    13 1.433458 -0.000004 0.000000 -0.030776 0.021660 0.702071
    14 1.019160 0.000002 0.000000 -0.030779 0.021578 0.707224
    15 3.799514 0.014949 -0.039959 -0.035046 -0.004859 0.479176
    16 1.774881 0.000002 0.000000 -0.019434 0.014526 0.721253
    17 1.008844 0.000000 0.000000 -0.020732 0.012496 0.624307
    18 3.632765 0.059053 0.757494 -0.409821 -0.342614 0.690671
    19 1.500135 -0.000001 0.000000 -0.014888 0.010697 0.682952
    20 0.905664 0.000000 0.000000 -0.015442 0.009781 0.623161
    21 3.323329 0.233740 1.479076 -0.843165 -0.641380 1.270864
    22 0.963099 0.000004 -0.000001 -0.013787 0.014720 0.900688
    23 0.682896 0.000001 -0.000001 -0.013787 0.014720 0.900688
    24 15.156250 -14.687500 -8.625000 0.515658 -0.115666 -2.181143
    25 1.149523 0.416495 1.414116 -2.085126 -0.200474 1.093318
    26 1.263878 0.000000 0.000000 -0.004641 -0.008598 0.015214
    27 1.188945 0.000001 0.000001 -0.003817 0.041433 0.332409
    28 3.773758 0.133214 0.970576 0.030557 0.122344 0.905787
    29 1.433460 -0.000001 0.000000 0.082220 -0.026229 1.403971
    30 1.019162 0.000004 -0.000001 0.111284 -0.007463 1.172649
    31 3.799517 0.014954 0.039958 0.012544 0.071196 0.840936
    32 1.774879 0.000000 0.000000 0.019509 -0.092223 1.500639
    33 1.008848 0.000001 0.000000 0.102219 -0.036441 0.427842
    34 3.632765 0.059046 -0.757493 0.030435 -0.040155 0.989287
    35 1.500136 0.000000 -0.000001 0.117923 -0.032132 0.855674
    36 0.905664 -0.000002 0.000003 0.110578 -0.052126 1.029632
    37 -6.683594 -7.937500 -10.875000 -2.905767 -0.501065 -1.549140
    38 3.705078 0.104004 -19.828125 0.007965 0.032571 -2.314305
    39 3.316835 2.730490 19.763479 -1.700505 -0.671180 0.797707
    40 -0.706055 0.612793 1.320313 1.595210 -1.136201 1.179891
    41 5.773738 -0.000001 0.000000 -0.550244 0.047873 -0.537088
    42 -1.243164 0.160767 -1.022461 0.531815 1.117297 -3.049704
    43 5.773737 0.000000 0.000000 1.013497 -0.372539 -1.392510
  time 16
    0 0.000000 0.000000 0.000000 1.570796 0.000000 -1.570796
    1 19.218750 -3.894531 6.937500 -0.828674 0.455009 -0.690417
    2 -6.664063 -7.921875 -10.898438 -1.876796 -0.499596 -1.546171
    3 10.295581 -0.000001 0.000000 0.524400 0.554620 -0.300599
    4 3.323331 0.233747 -1.479074 0.100932 -0.080195 1.526496
    5 0.963099 0.000000 0.000000 0.060681 0.054908 0.140673
    6 0.682895 0.000000 -0.000001 0.068215 -0.045203 1.459661
    7 15.109375 -14.734375 -8.601563 -0.577989 -0.102001 -2.168643
    8 10.295580 -0.000001 0.000002 -0.434686 -0.574568 -0.466884
    9 1.149522 0.416496 -1.414117 1.253354 1.131643 0.111887
    10 1.263878 0.000000 -0.000001 -0.009612 0.006311 0.456717
    11 1.188943 0.000000 -0.000001 -0.011460 -0.000988 -0.051883
    12 3.773755 0.133215 -0.970574 0.127594 0.350621 0.170869
    13 1.433458 -0.000004 0.000000 -0.030472 0.022059 0.714219
    14 1.019160 0.000002 0.000000 -0.030780 0.021576 0.707131
    15 3.799514 0.014949 -0.039959 -0.035100 -0.004334 0.493577
    16 1.774881 0.000002 0.000000 -0.019167 0.014819 0.738164
    17 1.008844 0.000000 0.000000 -0.020645 0.012677 0.633838
    18 3.632765 0.059053 0.757494 -0.419950 -0.333466 0.741888
    19 1.500135 -0.000001 0.000000 -0.014568 0.011115 0.710689
    20 0.905664 0.000000 0.000000 -0.015200 0.010273 0.655351
    21 3.323329 0.233740 1.479076 -0.870952 -0.644281 1.309234
    22 0.963099 0.000004 -0.000001 -0.013496 0.014964 0.919237
    23 0.682896 0.000001 -0.000001 -0.013496 0.014964 0.919237
    24 15.109375 -14.734375 -8.601563 0.515933 -0.101952 -2.168584
    25 1.149523 0.416495 1.414116 -2.077552 -0.202443 1.069160
    26 1.263878 0.000000 0.000000 -0.003015 -0.008141 0.040761
    27 1.188945 0.000001 0.000001 -0.002902 0.036564 0.389821
    28 3.773758 0.133214 0.970576 0.007197 0.133344 0.740551
    29 1.433460 -0.000001 0.000000 0.082223 -0.026220 1.403745
    30 1.019162 0.000004 -0.000001 0.111285 -0.007451 1.172442
    31 3.799517 0.014954 0.039958 0.018770 0.069798 0.929372
    32 1.774879 0.000000 0.000000 0.019509 -0.092223 1.500639
    33 1.008848 0.000001 0.000000 0.102219 -0.036441 0.427842
    34 3.632765 0.059046 -0.757493 0.019789 -0.046295 1.232955
    35 1.500136 0.000000 -0.000001 0.117923 -0.032132 0.855674
    36 0.905664 -0.000002 0.000003 0.110578 -0.052126 1.029632
    37 -6.664063 -7.921875 -10.898438 -2.893251 -0.499540 -1.546214
    38 3.705078 0.104004 -19.828125 0.007965 0.032571 -2.314305
    39 3.316835 2.730490 19.763479 -1.700505 -0.671180 0.797707
    40 -0.706055 0.612793 1.320313 1.595210 -1.136201 1.179891
    41 5.773738 -0.000001 0.000000 -0.545515 0.044105 -0.542220
    42 -1.243164 0.160767 -1.022461 0.531815 1.117297 -3.049704
    43 5.773737 0.000000 0.000000 1.011111 -0.375325 -1.393144
  time 17
    0 0.000000 0.000000 0.000000 1.570796 0.000000 -1.570796
    1 19.140625 -3.859375 6.917969 -0.825176 0.416222 -0.660868
    2 -6.640625 -7.902344 -10.914063 -1.876533 -0.497616 -1.543237
    3 10.295581 -0.000001 0.000000 0.472497 0.569489 -0.350210
    4 3.323331 0.233747 -1.479074 0.072896 -0.106327 1.826046
    5 0.963099 0.000000 0.000000 0.060681 0.054908 0.140673
    6 0.682895 0.000000 -0.000001 0.068215 -0.045203 1.459661
    7 15.031250 -14.789063 -8.609375 -0.578404 -0.084877 -2.160841
    8 10.295580 -0.000001 0.000002 -0.407957 -0.543436 -0.475174
    9 1.149522 0.416496 -1.414117 1.478208 1.082308 0.317141
    10 1.263878 0.000000 -0.000001 -0.009347 0.006717 0.493667
    11 1.188943 0.000000 -0.000001 -0.011480 -0.000471 -0.006817
    12 3.773755 0.133215 -0.970574 0.132935 0.355715 0.182752
    13 1.433458 -0.000004 0.000000 -0.030369 0.022162 0.726306
    14 1.019160 0.000002 0.000000 -0.030734 0.021681 0.708695
    15 3.799514 0.014949 -0.039959 -0.035153 -0.003772 0.510057
    16 1.774881 0.000002 0.000000 -0.018996 0.015119 0.752717
    17 1.008844 0.000000 0.000000 -0.020541 0.012921 0.641655
    18 3.632765 0.059053 0.757494 -0.429872 -0.321895 0.798453
    19 1.500135 -0.000001 0.000000 -0.014226 0.011542 0.740607
    20 0.905664 0.000000 0.000000 -0.014825 0.010825 0.689277
    21 3.323329 0.233740 1.479076 -0.892009 -0.645810 1.338161
    22 0.963099 0.000004 -0.000001 -0.013313 0.015212 0.933230
    23 0.682896 0.000001 -0.000001 -0.013236 0.015173 0.933230
    24 15.031250 -14.789063 -8.609375 0.515580 -0.084860 -2.160824
    25 1.149523 0.416495 1.414116 -2.060221 -0.206463 1.011164
    26 1.263878 0.000000 0.000000 0.000678 -0.007036 0.101993
    27 1.188945 0.000001 0.000001 -0.000665 0.025037 0.527180
    28 3.773758 0.133214 0.970576 0.019725 0.126845 0.843475
    29 1.433460 -0.000001 0.000000 0.082224 -0.026215 1.403632
    30 1.019162 0.000004 -0.000001 0.111285 -0.007440 1.172235
    31 3.799517 0.014954 0.039958 0.032964 0.064320 1.140852
    32 1.774879 0.000000 0.000000 0.019509 -0.092223 1.500639
    33 1.008848 0.000001 0.000000 0.102219 -0.036441 0.427842
    34 3.632765 0.059046 -0.757493 0.005675 -0.050064 1.524645
    35 1.500136 0.000000 -0.000001 0.117923 -0.032132 0.855674
    36 0.905664 -0.000002 0.000003 0.110578 -0.052126 1.029632
    37 -6.640625 -7.902344 -10.914063 -2.898153 -0.497627 -1.543307
    38 3.705078 0.104004 -19.828125 0.007965 0.032571 -2.314305
    39 3.316835 2.730490 19.763479 -1.701261 -0.685309 0.801058
    40 -0.713379 0.604492 1.320313 1.595881 -1.134691 1.193583
    41 5.773738 -0.000001 0.000000 -0.536109 0.041924 -0.550148
    42 -1.246094 0.141479 -1.021484 0.534633 1.116294 -3.032824
    43 5.773737 0.000000 0.000000 1.008430 -0.378398 -1.393667
  time 18
    0 0.000000 0.000000 0.000000 1.570796 0.000000 -1.570796
    1 19.031250 -3.789063 6.824219 -0.846115 0.372262 -0.625823
    2 -6.617188 -7.886719 -10.937500 -1.876035 -0.495053 -1.540266
    3 10.295581 -0.000001 0.000000 0.409376 0.565029 -0.425588
    4 3.323331 0.233747 -1.479074 0.059050 -0.114598 1.951433
    5 0.963099 0.000000 0.000000 0.060681 0.054908 0.140673
    6 0.682895 0.000000 -0.000001 0.068215 -0.045203 1.459661
    7 14.937500 -14.843750 -8.625000 -0.579326 -0.066469 -2.156823
    8 10.295580 -0.000001 0.000002 -0.378758 -0.503734 -0.472652
    9 1.149522 0.416496 -1.414117 1.661848 1.013543 0.485199
    10 1.263878 0.000000 -0.000001 -0.009059 0.007075 0.540010
    11 1.188943 0.000000 -0.000001 -0.011480 0.000218 0.053096
    12 3.773755 0.133215 -0.970574 0.131969 0.351916 0.196896
    13 1.433458 -0.000004 0.000000 -0.031067 0.020657 0.739730
    14 1.019160 0.000002 0.000000 -0.030770 0.022436 0.718362
    15 3.799514 0.014949 -0.039959 -0.035284 -0.003166 0.527734
    16 1.774881 0.000002 0.000000 -0.018781 0.015335 0.762008
    17 1.008844 0.000000 0.000000 -0.020414 0.013005 0.644476
    18 3.632765 0.059053 0.757494 -0.438144 -0.309797 0.852128
    19 1.500135 -0.000001 0.000000 -0.013881 0.011953 0.769303
    20 0.905664 0.000000 0.000000 -0.014473 0.011279 0.722119
    21 3.323329 0.233740 1.479076 -0.897136 -0.645519 1.344651
    22 0.963099 0.000004 -0.000001 -0.013213 0.015194 0.936325
    23 0.682896 0.000001 -0.000001 -0.013213 0.015194 0.936325
    24 14.937500 -14.843750 -8.625000 0.514654 -0.066401 -2.156774
    25 1.149523 0.416495 1.414116 -2.040807 -0.209963 0.942271
    26 1.263878 0.000000 0.000000 0.005209 -0.005829 0.174586
    27 1.188945 0.000001 0.000001 0.001823 0.011454 0.689991
    28 3.773758 0.133214 0.970576 0.045905 0.107966 1.067891
    29 1.433460 -0.000001 0.000000 0.082283 -0.026140 1.403409
    30 1.019162 0.000004 -0.000001 0.111286 -0.007434 1.172131
    31 3.799517 0.014954 0.039958 0.047854 0.054215 1.391325
    32 1.774879 0.000000 0.000000 0.019509 -0.092223 1.500639
    33 1.008848 0.000001 0.000000 0.102219 -0.036441 0.427842
    34 3.632765 0.059046 -0.757493 -0.006596 -0.049958 1.767865
    35 1.500136 0.000000 -0.000001 0.117923 -0.032132 0.855674
    36 0.905664 -0.000002 0.000003 0.110578 -0.052126 1.029632
    37 -6.617188 -7.886719 -10.937500 -2.923451 -0.495092 -1.540239
    38 3.705078 0.104004 -19.828125 0.007965 0.032571 -2.314305
    39 3.316835 2.730490 19.763479 -1.701376 -0.685198 0.801148
    40 -0.713379 0.604492 1.320313 1.596146 -1.134667 1.193318
    41 5.773738 -0.000001 0.000000 -0.523926 0.041203 -0.559715
    42 -1.246094 0.141602 -1.021484 0.534633 1.116294 -3.032824
    43 5.773737 0.000000 0.000000 1.005722 -0.381377 -1.394470
  time 19
    0 0.000000 0.000000 0.000000 1.570796 0.000000 -1.570796
    1 18.921875 -3.722656 6.648438 -0.893377 0.328469 -0.599650
    2 -6.593750 -7.871094 -10.953125 -1.875544 -0.492188 -1.536959
    3 10.295581 -0.000001 0.000000 0.346336 0.533469 -0.505227
    4 3.323331 0.233747 -1.479074 0.059050 -0.114598 1.951433
    5 0.963099 0.000000 0.000000 0.060681 0.054908 0.140673
    6 0.682895 0.000000 -0.000001 0.068215 -0.045203 1.459661
    7 14.835938 -14.890625 -8.656250 -0.580538 -0.048277 -2.155670
    8 10.295580 -0.000001 0.000002 -0.348133 -0.459960 -0.463961
    9 1.149522 0.416496 -1.414117 1.795490 0.938563 0.609118
    10 1.263878 0.000000 -0.000001 -0.008653 0.007481 0.586202
    11 1.188943 0.000000 -0.000001 -0.011448 0.000918 0.114960
    12 3.773755 0.133215 -0.970574 0.127336 0.342514 0.218115
    13 1.433458 -0.000004 0.000000 -0.032478 0.017946 0.743556
    14 1.019160 0.000002 0.000000 -0.030989 0.023255 0.722966
    15 3.799514 0.014949 -0.039959 -0.035603 -0.002513 0.550027
    16 1.774881 0.000002 0.000000 -0.018620 0.015483 0.764147
    17 1.008844 0.000000 0.000000 -0.020440 0.012963 0.640382
    18 3.632765 0.059053 0.757494 -0.444103 -0.299206 0.895768
    19 1.500135 -0.000001 0.000000 -0.013587 0.012249 0.793953
    20 0.905664 0.000000 0.000000 -0.014131 0.011700 0.751546
    21 3.323329 0.233740 1.479076 -0.887430 -0.643446 1.330071
    22 0.963099 0.000004 -0.000001 -0.013305 0.015069 0.929172
    23 0.682896 0.000001 -0.000001 -0.013305 0.015069 0.929172
    24 14.835938 -14.890625 -8.656250 0.513410 -0.048269 -2.155637
    25 1.149523 0.416495 1.414116 -2.025689 -0.211882 0.884186
    26 1.263878 0.000000 0.000000 0.008908 -0.004792 0.235592
    27 1.188945 0.000001 0.000001 0.003628 0.000105 0.826880
    28 3.773758 0.133214 0.970576 0.067391 0.083153 1.294142
    29 1.433460 -0.000001 0.000000 0.082284 -0.026135 1.403296
    30 1.019162 0.000004 -0.000001 0.111287 -0.007422 1.171924
    31 3.799517 0.014954 0.039958 0.058071 0.042957 1.601703
    32 1.774879 0.000000 0.000000 0.019509 -0.092223 1.500639
    33 1.008848 0.000001 0.000000 0.102219 -0.036441 0.427842
    34 3.632765 0.059046 -0.757493 -0.011589 -0.049002 1.870094
    35 1.500136 0.000000 -0.000001 0.117923 -0.032132 0.855674
    36 0.905664 -0.000002 0.000003 0.110578 -0.052126 1.029632
    37 -6.593750 -7.871094 -10.953125 -2.960799 -0.492182 -1.537051
    38 3.705078 0.104004 -19.828125 0.007965 0.032571 -2.314305
    39 3.316835 2.730490 19.763479 -1.700777 -0.676794 0.799062
    40 -0.708984 0.609375 1.320313 1.595581 -1.135664 1.185219
    41 5.773738 -0.000001 0.000000 -0.510756 0.041672 -0.569887
    42 -1.244141 0.153076 -1.021484 0.533031 1.116942 -3.042858
    43 5.773737 0.000000 0.000000 1.002786 -0.384084 -1.395678
  time 20
    0 0.000000 0.000000 0.000000 1.570796 0.000000 -1.570796
    1 18.875000 -3.695313 6.398438 -0.959483 0.289702 -0.593912
    2 -6.562500 -7.863281 -10.968750 -1.874945 -0.489078 -1.533274
    3 10.295581 -0.000001 0.000000 0.295616 0.477453 -0.565330
    4 3.323331 0.233747 -1.479074 0.059050 -0.114598 1.951433
    5 0.963099 0.000000 0.000000 0.060681 0.054908 0.140673
    6 0.682895 0.000000 -0.000001 0.068215 -0.045203 1.459661
    7 14.734375 -14.937500 -8.695313 -0.581997 -0.032059 -2.156479
    8 10.295580 -0.000001 0.000002 -0.317509 -0.417248 -0.453168
    9 1.149522 0.416496 -1.414117 1.883214 0.872123 0.692787
    10 1.263878 0.000000 -0.000001 -0.008355 0.007857 0.622462
    11 1.188943 0.000000 -0.000001 -0.011400 0.001462 0.164978
    12 3.773755 0.133215 -0.970574 0.121879 0.332135 0.240468
    13 1.433458 -0.000004 0.000000 -0.033947 0.015123 0.745167
    14 1.019160 0.000002 0.000000 -0.031303 0.024083 0.726094
    15 3.799514 0.014949 -0.039959 -0.036164 -0.001693 0.577071
    16 1.774881 0.000002 0.000000 -0.018472 0.015657 0.760427
    17 1.008844 0.000000 0.000000 -0.020473 0.012951 0.631202
    18 3.632765 0.059053 0.757494 -0.446009 -0.294055 0.914712
    19 1.500135 -0.000001 0.000000 -0.013417 0.012519 0.810457
    20 0.905664 0.000000 0.000000 -0.013849 0.011990 0.774708
    21 3.323329 0.233740 1.479076 -0.869644 -0.639892 1.303799
    22 0.963099 0.000004 -0.000001 -0.013441 0.014906 0.916253
    23 0.682896 0.000001 -0.000001 -0.013441 0.014906 0.916253
    24 14.734375 -14.937500 -8.695313 0.511886 -0.032077 -2.156457
    25 1.149523 0.416495 1.414116 -2.019739 -0.212449 0.859796
    26 1.263878 0.000000 0.000000 0.010488 -0.004338 0.261169
    27 1.188945 0.000001 0.000001 0.004538 -0.004536 0.884275
    28 3.773758 0.133214 0.970576 0.074854 0.069560 1.401727
    29 1.433460 -0.000001 0.000000 0.082287 -0.026126 1.403070
    30 1.019162 0.000004 -0.000001 0.111287 -0.007411 1.171717
    31 3.799517 0.014954 0.039958 0.061647 0.037744 1.689926
    32 1.774879 0.000000 0.000000 0.019509 -0.092223 1.500639
    33 1.008848 0.000001 0.000000 0.102219 -0.036441 0.427842
    34 3.632765 0.059046 -0.757493 -0.011589 -0.049002 1.870094
    35 1.500136 0.000000 -0.000001 0.117923 -0.032132 0.855674
    36 0.905664 -0.000002 0.000003 0.110578 -0.052126 1.029632
    37 -6.562500 -7.863281 -10.968750 -3.001468 -0.489077 -1.533387
    38 3.705078 0.104004 -19.828125 0.007965 0.032571 -2.314305
    39 3.316835 2.730490 19.763479 -1.700151 -0.665462 0.796311
    40 -0.702637 0.616211 1.321289 1.595075 -1.136774 1.174264
    41 5.773738 -0.000001 0.000000 -0.498337 0.042928 -0.579594
    42 -1.241211 0.168457 -1.022461 0.530696 1.117631 -3.056392
    43 5.773737 0.000000 0.000000 0.999821 -0.386507 -1.397640
  time 21
    0 0.000000 0.000000 0.000000 1.570796 0.000000 -1.570796
    1 18.875000 -3.728516 6.125000 -1.028927 0.257758 -0.612887
    2 -6.527344 -7.867188 -10.984375 -1.874300 -0.486096 -1.529138
    3 10.295581 -0.000001 0.000000 0.261973 0.411082 -0.592015
    4 3.323331 0.233747 -1.479074 0.059050 -0.114598 1.951433
    5 0.963099 0.000000 0.000000 0.060681 0.054908 0.140673
    6 0.682895 0.000000 -0.000001 0.068215 -0.045203 1.459661
    7 14.656250 -14.960938 -8.726563 -0.583456 -0.019568 -2.158786
    8 10.295580 -0.000001 0.000002 -0.289247 -0.381546 -0.443367
    9 1.149522 0.416496 -1.414117 1.858479 0.851937 0.656742
    10 1.263878 0.000000 -0.000001 -0.008523 0.007735 0.606974
    11 1.188943 0.000000 -0.000001 -0.011397 0.001486 0.169136
    12 3.773755 0.133215 -0.970574 0.116393 0.321930 0.257585
    13 1.433458 -0.000004 0.000000 -0.035011 0.012873 0.741678
    14 1.019160 0.000002 0.000000 -0.032090 0.024021 0.722028
    15 3.799514 0.014949 -0.039959 -0.036544 -0.000932 0.602958
    16 1.774881 0.000002 0.000000 -0.018499 0.015669 0.752994
    17 1.008844 0.000000 0.000000 -0.020524 0.012911 0.619226
    18 3.632765 0.059053 0.757494 -0.442329 -0.291276 0.909727
    19 1.500135 -0.000001 0.000000 -0.013326 0.012497 0.812242
    20 0.905664 0.000000 0.000000 -0.013676 0.012106 0.784695
    21 3.323329 0.233740 1.479076 -0.844011 -0.635144 1.266585
    22 0.963099 0.000004 -0.000001 -0.013730 0.014664 0.897908
    23 0.682896 0.000001 -0.000001 -0.013730 0.014664 0.897908
    24 14.656250 -14.960938 -8.726563 0.510517 -0.019591 -2.158703
    25 1.149523 0.416495 1.414116 -2.019739 -0.212449 0.859796
    26 1.263878 0.000000 0.000000 0.010488 -0.004338 0.261169
    27 1.188945 0.000001 0.000001 0.004538 -0.004536 0.884275
    28 3.773758 0.133214 0.970576 0.074064 0.068581 1.409191
    29 1.433460 -0.000001 0.000000 0.082223 -0.026065 1.402958
    30 1.019162 0.000004 -0.000001 0.111288 -0.007405 1.171614
    31 3.799517 0.014954 0.039958 0.061647 0.037744 1.689926
    32 1.774879 0.000000 0.000000 0.019509 -0.092223 1.500639
    33 1.008848 0.000001 0.000000 0.102219 -0.036441 0.427842
    34 3.632765 0.059046 -0.757493 -0.011589 -0.049002 1.870094
    35 1.500136 0.000000 -0.000001 0.117923 -0.032132 0.855674
    36 0.905664 -0.000002 0.000003 0.110578 -0.052126 1.029632
    37 -6.527344 -7.867188 -10.984375 -3.036467 -0.486169 -1.529193
    38 3.705078 0.104004 -19.828125 0.007965 0.032571 -2.314305
    39 3.316835 2.730490 19.763479 -1.699612 -0.657092 0.794312
    40 -0.698242 0.621094 1.321289 1.594871 -1.137663 1.165851
    41 5.773738 -0.000001 0.000000 -0.488119 0.044721 -0.587230
    42 -1.239258 0.179810 -1.022461 0.529145 1.118192 -3.066331
    43 5.773737 0.000000 0.000000 0.996831 -0.388494 -1.400382
  time 22
    0 0.000000 0.000000 0.000000 1.570796 0.000000 -1.570796
    1 18.968750 -3.820313 5.863281 -1.086488 0.232419 -0.652393
    2 -6.484375 -7.875000 -10.992188 -1.873387 -0.483406 -1.523943
    3 10.295581 -0.000001 0.000000 0.241600 0.350396 -0.585447
    4 3.323331 0.233747 -1.479074 0.059050 -0.114598 1.951433
    5 0.963099 0.000000 0.000000 0.060681 0.054908 0.140673
    6 0.682895 0.000000 -0.000001 0.068215 -0.045203 1.459661
    7 14.609375 -14.968750 -8.757813 -0.584477 -0.012343 -2.161875
    8 10.295580 -0.000001 0.000002 -0.265741 -0.358046 -0.437114
    9 1.149522 0.416496 -1.414117 1.833415 0.829351 0.619291
    10 1.263878 0.000000 -0.000001 -0.008636 0.007501 0.590892
    11 1.188943 0.000000 -0.000001 -0.011385 0.001601 0.174161
    12 3.773755 0.133215 -0.970574 0.112577 0.312599 0.266890
    13 1.433458 -0.000004 0.000000 -0.035359 0.011702 0.727264
    14 1.019160 0.000002 0.000000 -0.034130 0.021269 0.703715
    15 3.799514 0.014949 -0.039959 -0.036554 -0.000307 0.622235
    16 1.774881 0.000002 0.000000 -0.018745 0.015374 0.743812
    17 1.008844 0.000000 0.000000 -0.020470 0.012921 0.606729
    18 3.632765 0.059053 0.757494 -0.433171 -0.286792 0.889543
    19 1.500135 -0.000001 0.000000 -0.013575 0.012262 0.795919
    20 0.905664 0.000000 0.000000 -0.013785 0.012106 0.779932
    21 3.323329 0.233740 1.479076 -0.810033 -0.628744 1.218042
    22 0.963099 0.000004 -0.000001 -0.014014 0.014263 0.873924
    23 0.682896 0.000001 -0.000001 -0.014014 0.014263 0.873924
    24 14.609375 -14.968750 -8.757813 0.509403 -0.012312 -2.161817
    25 1.149523 0.416495 1.414116 -2.019739 -0.212449 0.859796
    26 1.263878 0.000000 0.000000 0.010488 -0.004338 0.261169
    27 1.188945 0.000001 0.000001 0.004538 -0.004536 0.884275
    28 3.773758 0.133214 0.970576 0.073053 0.067925 1.414414
    29 1.433460 -0.000001 0.000000 0.082226 -0.026056 1.402732
    30 1.019162 0.000004 -0.000001 0.111288 -0.007393 1.171407
    31 3.799517 0.014954 0.039958 0.061647 0.037744 1.689926
    32 1.774879 0.000000 0.000000 0.019509 -0.092223 1.500639
    33 1.008848 0.000001 0.000000 0.102219 -0.036441 0.427842
    34 3.632765 0.059046 -0.757493 -0.011589 -0.049002 1.870094
    35 1.500136 0.000000 -0.000001 0.117923 -0.032132 0.855674
    36 0.905664 -0.000002 0.000003 0.110578 -0.052126 1.029632
    37 -6.484375 -7.875000 -10.992188 -3.057494 -0.483418 -1.523988
    38 3.705078 0.104004 -19.828125 0.007965 0.032571 -2.314305
    39 3.316835 2.730490 19.763479 -1.699727 -0.656982 0.794401
    40 -0.698242 0.621094 1.321289 1.594874 -1.137724 1.165787
    41 5.773738 -0.000001 0.000000 -0.481397 0.046519 -0.591576
    42 -1.239258 0.179932 -1.022461 0.529051 1.118218 -3.066487
    43 5.773737 0.000000 0.000000 0.993408 -0.390354 -1.403980
  time 23
    0 0.000000 0.000000 0.000000 1.570796 0.000000 -1.570796
    1 19.078125 -3.949219 5.648438 -1.122340 0.213952 -0.702793
    2 -6.433594 -7.882813 -11.000000 -1.872549 -0.481005 -1.517606
    3 10.295581 -0.000001 0.000000 0.229285 0.307503 -0.554704
    4 3.323331 0.233747 -1.479074 0.059050 -0.114598 1.951433
    5 0.963099 0.000000 0.000000 0.060681 0.054908 0.140673
    6 0.682895 0.000000 -0.000001 0.068215 -0.045203 1.459661
    7 14.601563 -14.953125 -8.789063 -0.585605 -0.010796 -2.168379
    8 10.295580 -0.000001 0.000002 -0.249060 -0.345860 -0.430985
    9 1.149522 0.416496 -1.414117 1.808756 0.804737 0.581408
    10 1.263878 0.000000 -0.000001 -0.008721 0.007347 0.574490
    11 1.188943 0.000000 -0.000001 -0.011381 0.001632 0.179707
    12 3.773755 0.133215 -0.970574 0.106875 0.301516 0.260372
    13 1.433458 -0.000004 0.000000 -0.035153 0.011716 0.703942
    14 1.019160 0.000002 0.000000 -0.035934 0.018095 0.670371
    15 3.799514 0.014949 -0.039959 -0.034319 -0.000261 0.598052
    16 1.774881 0.000002 0.000000 -0.020341 0.013138 0.715819
    17 1.008844 0.000000 0.000000 -0.020223 0.013387 0.584510
    18 3.632765 0.059053 0.757494 -0.417371 -0.280273 0.849421
    19 1.500135 -0.000001 0.000000 -0.013958 0.011821 0.761858
    20 0.905664 0.000000 0.000000 -0.014031 0.011691 0.754796
    21 3.323329 0.233740 1.479076 -0.767492 -0.620383 1.158316
    22 0.963099 0.000004 -0.000001 -0.014487 0.013889 0.844296
    23 0.682896 0.000001 -0.000001 -0.014487 0.013889 0.844296
    24 14.601563 -14.953125 -8.789063 0.508278 -0.010767 -2.168403
    25 1.149523 0.416495 1.414116 -2.019739 -0.212449 0.859796
    26 1.263878 0.000000 0.000000 0.010488 -0.004338 0.261169
    27 1.188945 0.000001 0.000001 0.004538 -0.004536 0.884275
    28 3.773758 0.133214 0.970576 0.071976 0.067453 1.418064
    29 1.433460 -0.000001 0.000000 0.082227 -0.026051 1.402619
    30 1.019162 0.000004 -0.000001 0.111289 -0.007388 1.171303
    31 3.799517 0.014954 0.039958 0.061647 0.037744 1.689926
    32 1.774879 0.000000 0.000000 0.019509 -0.092223 1.500639
    33 1.008848 0.000001 0.000000 0.102219 -0.036441 0.427842
    34 3.632765 0.059046 -0.757493 -0.011589 -0.049002 1.870094
    35 1.500136 0.000000 -0.000001 0.117923 -0.032132 0.855674
    36 0.905664 -0.000002 0.000003 0.110578 -0.052126 1.029632
    37 -6.433594 -7.882813 -11.000000 -3.065764 -0.481018 -1.517698
    38 3.705078 0.104004 -19.828125 0.007965 0.032571 -2.314305
    39 3.316835 2.730490 19.763479 -1.700505 -0.671180 0.797707
    40 -0.706055 0.612793 1.320313 1.595210 -1.136201 1.179891
    41 5.773738 -0.000001 0.000000 -0.477157 0.049439 -0.592078
    42 -1.243164 0.160645 -1.022461 0.531907 1.117270 -3.049548
    43 5.773737 0.000000 0.000000 0.989645 -0.392439 -1.408480
  time 24
    0 0.000000 0.000000 0.000000 1.570796 0.000000 -1.570796
    1 19.203125 -4.085938 5.488281 -1.136184 0.203127 -0.753983
    2 -6.378906 -7.894531 -11.015625 -1.871483 -0.479118 -1.510801
    3 10.295581 -0.000001 0.000000 0.222658 0.285867 -0.511875
    4 3.323331 0.233747 -1.479074 0.059050 -0.114598 1.951433
    5 0.963099 0.000000 0.000000 0.060681 0.054908 0.140673
    6 0.682895 0.000000 -0.000001 0.068215 -0.045203 1.459661
    7 14.617188 -14.914063 -8.820313 -0.587233 -0.013397 -2.179932
    8 10.295580 -0.000001 0.000002 -0.238912 -0.339139 -0.421349
    9 1.149522 0.416496 -1.414117 1.785361 0.778711 0.544201
    10 1.263878 0.000000 -0.000001 -0.008806 0.007191 0.557857
    11 1.188943 0.000000 -0.000001 -0.011376 0.001666 0.185602
    12 3.773755 0.133215 -0.970574 0.097744 0.287369 0.237914
    13 1.433458 -0.000004 0.000000 -0.034781 0.012475 0.679333
    14 1.019160 0.000002 0.000000 -0.036244 0.016434 0.625217
    15 3.799514 0.014949 -0.039959 -0.035014 -0.001693 0.565546
    16 1.774881 0.000002 0.000000 -0.019242 0.014753 0.700715
    17 1.008844 0.000000 0.000000 -0.022452 0.009097 0.555665
    18 3.632765 0.059053 0.757494 -0.397229 -0.270774 0.797002
    19 1.500135 -0.000001 0.000000 -0.014498 0.011247 0.717692
    20 0.905664 0.000000 0.000000 -0.014554 0.011133 0.713084
    21 3.323329 0.233740 1.479076 -0.717804 -0.609055 1.089105
    22 0.963099 0.000004 -0.000001 -0.014942 0.013351 0.809509
    23 0.682896 0.000001 -0.000001 -0.014942 0.013351 0.809509
    24 14.617188 -14.914063 -8.820313 0.506744 -0.013401 -2.179974
    25 1.149523 0.416495 1.414116 -2.019739 -0.212449 0.859796
    26 1.263878 0.000000 0.000000 0.010488 -0.004338 0.261169
    27 1.188945 0.000001 0.000001 0.004538 -0.004536 0.884275
    28 3.773758 0.133214 0.970576 0.070851 0.067147 1.420590
    29 1.433460 -0.000001 0.000000 0.082230 -0.026042 1.402393
    30 1.019162 0.000004 -0.000001 0.111218 -0.007328 1.171097
    31 3.799517 0.014954 0.039958 0.061647 0.037744 1.689926
    32 1.774879 0.000000 0.000000 0.019509 -0.092223 1.500639
    33 1.008848 0.000001 0.000000 0.102219 -0.036441 0.427842
    34 3.632765 0.059046 -0.757493 -0.011589 -0.049002 1.870094
    35 1.500136 0.000000 -0.000001 0.117923 -0.032132 0.855674
    36 0.905664 -0.000002 0.000003 0.110578 -0.052126 1.029632
    37 -6.378906 -7.894531 -11.015625 -3.068989 -0.479152 -1.510892
    38 3.705078 0.104004 -19.828125 0.007965 0.032571 -2.314305
    39 3.316835 2.730490 19.763479 -1.701261 -0.685309 0.801058
    40 -0.713379 0.604492 1.320313 1.595881 -1.134691 1.193583
    41 5.773738 -0.000001 0.000000 -0.473597 0.053884 -0.589961
    42 -1.246094 0.141479 -1.021484 0.534633 1.116294 -3.032824
    43 5.773737 0.000000 0.000000 0.985668 -0.394620 -1.413273
  time 25
    0 0.000000 0.000000 0.000000 1.570796 0.000000 -1.570796
    1 19.312500 -4.214844 5.371094 -1.135571 0.199970 -0.800873
    2 -6.320313 -7.902344 -11.023438 -1.870470 -0.477722 -1.503781
    3 10.295581 -0.000001 0.000000 0.220862 0.279595 -0.466078
    4 3.323331 0.233747 -1.479074 0.059050 -0.114598 1.951433
    5 0.963099 0.000000 0.000000 0.060681 0.054908 0.140673
    6 0.682895 0.000000 -0.000001 0.068215 -0.045203 1.459661
    7 14.656250 -14.859375 -8.867188 -0.589002 -0.019016 -2.194315
    8 10.295580 -0.000001 0.000002 -0.234239 -0.336532 -0.409668
    9 1.149522 0.416496 -1.414117 1.763284 0.751436 0.507865
    10 1.263878 0.000000 -0.000001 -0.008972 0.007057 0.540996
    11 1.188943 0.000000 -0.000001 -0.011363 0.001787 0.191758
    12 3.773755 0.133215 -0.970574 0.088036 0.272126 0.209660
    13 1.433458 -0.000004 0.000000 -0.034275 0.013718 0.653731
    14 1.019160 0.000002 0.000000 -0.036207 0.015183 0.573721
    15 3.799514 0.014949 -0.039959 -0.035298 -0.003338 0.522730
    16 1.774881 0.000002 0.000000 -0.019679 0.014415 0.690339
    17 1.008844 0.000000 0.000000 -0.022690 0.008385 0.522084
    18 3.632765 0.059053 0.757494 -0.376590 -0.259757 0.741991
    19 1.500135 -0.000001 0.000000 -0.014980 0.010527 0.671054
    20 0.905664 0.000000 0.000000 -0.015024 0.010422 0.668038
    21 3.323329 0.233740 1.479076 -0.662843 -0.593300 1.012233
    22 0.963099 0.000004 -0.000001 -0.015524 0.012720 0.770226
    23 0.682896 0.000001 -0.000001 -0.015524 0.012720 0.770226
    24 14.656250 -14.859375 -8.867188 0.504969 -0.018986 -2.194363
    25 1.149523 0.416495 1.414116 -2.019739 -0.212449 0.859796
    26 1.263878 0.000000 0.000000 0.010488 -0.004338 0.261169
    27 1.188945 0.000001 0.000001 0.004538 -0.004536 0.884275
    28 3.773758 0.133214 0.970576 0.069661 0.066787 1.422884
    29 1.433460 -0.000001 0.000000 0.082232 -0.026037 1.402280
    30 1.019162 0.000004 -0.000001 0.111218 -0.007317 1.170890
    31 3.799517 0.014954 0.039958 0.061647 0.037744 1.689926
    32 1.774879 0.000000 0.000000 0.019509 -0.092223 1.500639
    33 1.008848 0.000001 0.000000 0.102219 -0.036441 0.427842
    34 3.632765 0.059046 -0.757493 -0.011589 -0.049002 1.870094
    35 1.500136 0.000000 -0.000001 0.117923 -0.032132 0.855674
    36 0.905664 -0.000002 0.000003 0.110578 -0.052126 1.029632
    37 -6.320313 -7.902344 -11.023438 -3.068627 -0.477700 -1.503820
    38 3.705078 0.104004 -19.828125 0.007965 0.032571 -2.314305
    39 3.316835 2.730490 19.763479 -1.701376 -0.685198 0.801148
    40 -0.713379 0.604492 1.320313 1.596146 -1.134667 1.193318
    41 5.773738 -0.000001 0.000000 -0.470846 0.059137 -0.586080
    42 -1.246094 0.141602 -1.021484 0.534633 1.116294 -3.032824
    43 5.773737 0.000000 0.000000 0.981718 -0.396812 -1.418089
  time 26
    0 0.000000 0.000000 0.000000 1.570796 0.000000 -1.570796
    1 19.421875 -4.332031 5.265625 -1.131010 0.201646 -0.842646
    2 -6.265625 -7.914063 -11.039063 -1.869559 -0.476567 -1.497017
    3 10.295581 -0.000001 0.000000 0.222733 0.279002 -0.422951
    4 3.323331 0.233747 -1.479074 0.059050 -0.114598 1.951433
    5 0.963099 0.000000 0.000000 0.060681 0.054908 0.140673
    6 0.682895 0.000000 -0.000001 0.068215 -0.045203 1.459661
    7 14.703125 -14.804688 -8.898438 -0.590785 -0.026431 -2.209443
    8 10.295580 -0.000001 0.000002 -0.233899 -0.336611 -0.397693
    9 1.149522 0.416496 -1.414117 1.743023 0.723452 0.473007
    10 1.263878 0.000000 -0.000001 -0.009054 0.006897 0.524084
    11 1.188943 0.000000 -0.000001 -0.011357 0.001822 0.198003
    12 3.773755 0.133215 -0.970574 0.077968 0.255630 0.178504
    13 1.433458 -0.000004 0.000000 -0.033826 0.014928 0.625336
    14 1.019160 0.000002 0.000000 -0.035965 0.014209 0.524219
    15 3.799514 0.014949 -0.039959 -0.035066 -0.005170 0.471009
    16 1.774881 0.000002 0.000000 -0.020377 0.013375 0.645930
    17 1.008844 0.000000 0.000000 -0.022327 0.009307 0.539432
    18 3.632765 0.059053 0.757494 -0.355989 -0.247347 0.685302
    19 1.500135 -0.000001 0.000000 -0.015445 0.009776 0.622617
    20 0.905664 0.000000 0.000000 -0.015455 0.009760 0.620532
    21 3.323329 0.233740 1.479076 -0.605429 -0.572532 0.930913
    22 0.963099 0.000004 -0.000001 -0.015995 0.012094 0.727558
    23 0.682896 0.000001 -0.000001 -0.015995 0.012094 0.727558
    24 14.703125 -14.804688 -8.898438 0.503231 -0.026419 -2.209441
    25 1.149523 0.416495 1.414116 -2.019739 -0.212449 0.859796
    26 1.263878 0.000000 0.000000 0.010488 -0.004338 0.261169
    27 1.188945 0.000001 0.000001 0.004538 -0.004536 0.884275
    28 3.773758 0.133214 0.970576 0.068531 0.066490 1.425303
    29 1.433460 -0.000001 0.000000 0.082234 -0.026028 1.402054
    30 1.019162 0.000004 -0.000001 0.111266 -0.007239 1.170792
    31 3.799517 0.014954 0.039958 0.061647 0.037744 1.689926
    32 1.774879 0.000000 0.000000 0.019509 -0.092223 1.500639
    33 1.008848 0.000001 0.000000 0.102219 -0.036441 0.427842
    34 3.632765 0.059046 -0.757493 -0.011589 -0.049002 1.870094
    35 1.500136 0.000000 -0.000001 0.117923 -0.032132 0.855674
    36 0.905664 -0.000002 0.000003 0.110578 -0.052126 1.029632
    37 -6.265625 -7.914063 -11.039063 -3.065609 -0.476543 -1.497042
    38 3.705078 0.104004 -19.828125 0.007965 0.032571 -2.314305
    39 3.316835 2.730490 19.763479 -1.700789 -0.676712 0.798979
    40 -0.708984 0.609375 1.320313 1.595466 -1.135607 1.185268
    41 5.773738 -0.000001 0.000000 -0.469038 0.064487 -0.581301
    42 -1.244141 0.153198 -1.021484 0.532939 1.116969 -3.043013
    43 5.773737 0.000000 0.000000 0.978079 -0.398929 -1.422922
  time 27
    0 0.000000 0.000000 0.000000 1.570796 0.000000 -1.570796
    1 19.500000 -4.437500 5.167969 -1.129224 0.205285 -0.878845
    2 -6.218750 -7.925781 -11.046875 -1.868751 -0.475720 -1.491005
    3 10.295581 -0.000001 0.000000 0.226823 0.277071 -0.385802
    4 3.323331 0.233747 -1.479074 0.059050 -0.114598 1.951433
    5 0.963099 0.000000 0.000000 0.060681 0.054908 0.140673
    6 0.682895 0.000000 -0.000001 0.068215 -0.045203 1.459661
    7 14.742188 -14.750000 -8.937500 -0.592065 -0.034521 -2.223140
    8 10.295580 -0.000001 0.000002 -0.245535 -0.337871 -0.387025
    9 1.149522 0.416496 -1.414117 1.724830 0.695475 0.440336
    10 1.263878 0.000000 -0.000001 -0.009133 0.006738 0.507300
    11 1.188943 0.000000 -0.000001 -0.011343 0.001942 0.204076
    12 3.773755 0.133215 -0.970574 0.067672 0.238364 0.147668
    13 1.433458 -0.000004 0.000000 -0.033690 0.015608 0.592382
    14 1.019160 0.000002 0.000000 -0.035711 0.013465 0.485264
    15 3.799514 0.014949 -0.039959 -0.034763 -0.006992 0.419253
    16 1.774881 0.000002 0.000000 -0.021099 0.012168 0.595797
    17 1.008844 0.000000 0.000000 -0.021979 0.010158 0.550809
    18 3.632765 0.059053 0.757494 -0.335926 -0.233576 0.628295
    19 1.500135 -0.000001 0.000000 -0.015969 0.009028 0.573385
    20 0.905664 0.000000 0.000000 -0.015976 0.009016 0.571855
    21 3.323329 0.233740 1.479076 -0.548483 -0.547176 0.848989
    22 0.963099 0.000004 -0.000001 -0.016567 0.011387 0.683126
    23 0.682896 0.000001 -0.000001 -0.016567 0.011387 0.683126
    24 14.742188 -14.750000 -8.937500 0.501903 -0.034531 -2.223067
    25 1.149523 0.416495 1.414116 -2.019739 -0.212449 0.859796
    26 1.263878 0.000000 0.000000 0.010488 -0.004338 0.261169
    27 1.188945 0.000001 0.000001 0.004538 -0.004536 0.884275
    28 3.773758 0.133214 0.970576 0.067436 0.066048 1.428518
    29 1.433460 -0.000001 0.000000 0.082236 -0.026024 1.401941
    30 1.019162 0.000004 -0.000001 0.111267 -0.007228 1.170585
    31 3.799517 0.014954 0.039958 0.061647 0.037744 1.689926
    32 1.774879 0.000000 0.000000 0.019509 -0.092223 1.500639
    33 1.008848 0.000001 0.000000 0.102219 -0.036441 0.427842
    34 3.632765 0.059046 -0.757493 -0.011589 -0.049002 1.870094
    35 1.500136 0.000000 -0.000001 0.117923 -0.032132 0.855674
    36 0.905664 -0.000002 0.000003 0.110578 -0.052126 1.029632
    37 -6.218750 -7.925781 -11.046875 -3.061251 -0.475797 -1.491041
    38 3.705078 0.104004 -19.828125 0.007965 0.032571 -2.314305
    39 3.316835 2.730490 19.763479 -1.700138 -0.665545 0.796393
    40 -0.702637 0.616211 1.321289 1.595075 -1.136774 1.174264
    41 5.773738 -0.000001 0.000000 -0.468267 0.069076 -0.576443
    42 -1.241211 0.168335 -1.022461 0.530696 1.117631 -3.056392
    43 5.773737 0.000000 0.000000 0.974835 -0.400732 -1.427068
  time 28
    0 0.000000 0.000000 0.000000 1.570796 0.000000 -1.570796
    1 19.546875 -4.519531 5.078125 -1.131919 0.208817 -0.908326
    2 -6.179688 -7.929688 -11.046875 -1.868074 -0.475175 -1.486182
    3 10.295581 -0.000001 0.000000 0.231236 0.271975 -0.357094
    4 3.323331 0.233747 -1.479074 0.059050 -0.114598 1.951433
    5 0.963099 0.000000 0.000000 0.060681 0.054908 0.140673
    6 0.682895 0.000000 -0.000001 0.068215 -0.045203 1.459661
    7 14.789063 -14.703125 -8.953125 -0.592824 -0.042262 -2.233408
    8 10.295580 -0.000001 0.000002 -0.269731 -0.339225 -0.378743
    9 1.149522 0.416496 -1.414117 1.709389 0.669057 0.411273
    10 1.263878 0.000000 -0.000001 -0.009207 0.006582 0.491531
    11 1.188943 0.000000 -0.000001 -0.011337 0.001973 0.209543
    12 3.773755 0.133215 -0.970574 0.050443 0.209525 0.100245
    13 1.433458 -0.000004 0.000000 -0.034362 0.014822 0.527343
    14 1.019160 0.000002 0.000000 -0.035430 0.013021 0.461291
    15 3.799514 0.014949 -0.039959 -0.034174 -0.009426 0.347697
    16 1.774881 0.000002 0.000000 -0.021842 0.010527 0.525729
    17 1.008844 0.000000 0.000000 -0.022181 0.009710 0.510196
    18 3.632765 0.059053 0.757494 -0.316608 -0.218499 0.571012
    19 1.500135 -0.000001 0.000000 -0.016383 0.008233 0.523615
    20 0.905664 0.000000 0.000000 -0.016411 0.008140 0.522453
    21 3.323329 0.233740 1.479076 -0.494020 -0.517400 0.768643
    22 0.963099 0.000004 -0.000001 -0.017039 0.010625 0.637681
    23 0.682896 0.000001 -0.000001 -0.017039 0.010625 0.637681
    24 14.789063 -14.703125 -8.953125 0.501057 -0.042218 -2.233454
    25 1.149523 0.416495 1.414116 -2.019739 -0.212449 0.859796
    26 1.263878 0.000000 0.000000 0.010488 -0.004338 0.261169
    27 1.188945 0.000001 0.000001 0.004538 -0.004536 0.884275
    28 3.773758 0.133214 0.970576 0.066446 0.065511 1.432999
    29 1.433460 -0.000001 0.000000 0.082239 -0.026014 1.401715
    30 1.019162 0.000004 -0.000001 0.111267 -0.007222 1.170482
    31 3.799517 0.014954 0.039958 0.061647 0.037744 1.689926
    32 1.774879 0.000000 0.000000 0.019509 -0.092223 1.500639
    33 1.008848 0.000001 0.000000 0.102219 -0.036441 0.427842
    34 3.632765 0.059046 -0.757493 -0.011589 -0.049002 1.870094
    35 1.500136 0.000000 -0.000001 0.117923 -0.032132 0.855674
    36 0.905664 -0.000002 0.000003 0.110578 -0.052126 1.029632
    37 -6.179688 -7.929688 -11.046875 -3.056618 -0.475216 -1.486174
    38 3.705078 0.104004 -19.828125 0.007965 0.032571 -2.314305
    39 3.316835 2.730490 19.763479 -1.699612 -0.657092 0.794312
    40 -0.698242 0.621094 1.321289 1.594871 -1.137663 1.165851
    41 5.773738 -0.000001 0.000000 -0.468908 0.072378 -0.572159
    42 -1.239258 0.179810 -1.022461 0.529145 1.118192 -3.066331
    43 5.773737 0.000000 0.000000 0.972414 -0.402115 -1.430596
  time 29
    0 0.000000 0.000000 0.000000 1.570796 0.000000 -1.570796
    1 19.593750 -4.574219 5.007813 -1.136751 0.211179 -0.927980
    2 -6.156250 -7.937500 -11.054688 -1.867560 -0.474924 -1.482986
    3 10.295581 -0.000001 0.000000 0.234653 0.265908 -0.338961
    4 3.323331 0.233747 -1.479074 0.059050 -0.114598 1.951433
    5 0.963099 0.000000 0.000000 0.060681 0.054908 0.140673
    6 0.682895 0.000000 -0.000001 0.068215 -0.045203 1.459661
    7 14.812500 -14.679688 -8.960938 -0.593191 -0.048088 -2.239744
    8 10.295580 -0.000001 0.000002 -0.293884 -0.339983 -0.373526
    9 1.149522 0.416496 -1.414117 1.699385 0.650264 0.391513
    10 1.263878 0.000000 -0.000001 -0.009265 0.006446 0.480236
    11 1.188943 0.000000 -0.000001 -0.011334 0.001995 0.213276
    12 3.773755 0.133215 -0.970574 0.037156 0.186116 0.063485
    13 1.433458 -0.000004 0.000000 -0.035008 0.013569 0.471933
    14 1.019160 0.000002 0.000000 -0.035322 0.013158 0.455880
    15 3.799514 0.014949 -0.039959 -0.033618 -0.011229 0.295680
    16 1.774881 0.000002 0.000000 -0.022333 0.009391 0.473970
    17 1.008844 0.000000 0.000000 -0.022501 0.009100 0.468734
    18 3.632765 0.059053 0.757494 -0.298270 -0.202529 0.514354
    19 1.500135 -0.000001 0.000000 -0.016789 0.007340 0.473909
    20 0.905664 0.000000 0.000000 -0.016791 0.007334 0.473110
    21 3.323329 0.233740 1.479076 -0.443555 -0.484203 0.691922
    22 0.963099 0.000004 -0.000001 -0.017564 0.009876 0.592664
    23 0.682896 0.000001 -0.000001 -0.017564 0.009876 0.592664
    24 14.812500 -14.679688 -8.960938 0.500810 -0.048102 -2.239775
    25 1.149523 0.416495 1.414116 -2.019739 -0.212449 0.859796
    26 1.263878 0.000000 0.000000 0.010488 -0.004338 0.261169
    27 1.188945 0.000001 0.000001 0.004538 -0.004536 0.884275
    28 3.773758 0.133214 0.970576 0.065462 0.064856 1.437483
    29 1.433460 -0.000001 0.000000 0.082240 -0.026010 1.401602
    30 1.019162 0.000004 -0.000001 0.111268 -0.007211 1.170275
    31 3.799517 0.014954 0.039958 0.061647 0.037744 1.689926
    32 1.774879 0.000000 0.000000 0.019509 -0.092223 1.500639
    33 1.008848 0.000001 0.000000 0.102219 -0.036441 0.427842
    34 3.632765 0.059046 -0.757493 -0.011589 -0.049002 1.870094
    35 1.500136 0.000000 -0.000001 0.117923 -0.032132 0.855674
    36 0.905664 -0.000002 0.000003 0.110578 -0.052126 1.029632
    37 -6.156250 -7.937500 -11.054688 -3.052909 -0.474961 -1.483050
    38 3.705078 0.104004 -19.828125 0.007965 0.032571 -2.314305
    39 3.316835 2.730490 19.763479 -1.699733 -0.657046 0.794347
    40 -0.698242 0.621094 1.321289 1.594871 -1.137663 1.165851
    41 5.773738 -0.000001 0.000000 -0.470063 0.074244 -0.569054
    42 -1.239258 0.179810 -1.022461 0.529051 1.118218 -3.066487
    43 5.773737 0.000000 0.000000 0.970699 -0.403118 -1.432859
  time 30
    0 0.000000 0.000000 0.000000 1.570796 0.000000 -1.570796
    1 19.593750 -4.593750 4.980469 -1.139376 0.211964 -0.935168
    2 -6.144531 -7.937500 -11.054688 -1.867376 -0.474883 -1.481769
    3 10.295581 -0.000001 0.000000 0.235897 0.262963 -0.332771
    4 3.323331 0.233747 -1.479074 0.059019 -0.114638 1.951404
    5 0.963099 0.000000 0.000000 0.060681 0.054908 0.140673
    6 0.682895 0.000000 -0.000001 0.068215 -0.045203 1.459661
    7 14.828125 -14.664063 -8.968750 -0.593219 -0.050492 -2.241906
    8 10.295580 -0.000001 0.000002 -0.304782 -0.340279 -0.371741
    9 1.149522 0.416496 -1.414117 1.696019 0.643582 0.384615
    10 1.263878 0.000000 -0.000001 -0.009350 0.006492 0.476150
    11 1.188943 0.000000 -0.000001 -0.011354 0.002066 0.214641
    12 3.773755 0.133215 -0.970574 0.032766 0.177577 0.050285
    13 1.433458 -0.000004 0.000000 -0.035262 0.013187 0.452416
    14 1.019160 0.000002 0.000000 -0.035262 0.013188 0.452420
    15 3.799514 0.014949 -0.039959 -0.033430 -0.011890 0.276559
    16 1.774881 0.000002 0.000000 -0.022577 0.008955 0.455009
    17 1.008844 0.000000 0.000000 -0.022576 0.008954 0.455011
    18 3.632765 0.059053 0.757494 -0.281334 -0.185857 0.459530
    19 1.500135 -0.000001 0.000000 -0.017137 0.006595 0.425382
    20 0.905664 0.000000 0.000000 -0.017137 0.006595 0.425384
    21 3.323329 0.233740 1.479076 -0.399134 -0.449302 0.621707
    22 0.963099 0.000004 -0.000001 -0.018032 0.009137 0.549448
    23 0.682896 0.000001 -0.000001 -0.018031 0.009135 0.549450
    24 14.828125 -14.664063 -8.968750 0.500746 -0.050438 -2.241890
    25 1.149523 0.416495 1.414116 -2.019649 -0.212497 0.859880
    26 1.263878 0.000000 0.000000 0.010520 -0.004350 0.261189
    27 1.188945 0.000001 0.000001 0.004532 -0.004591 0.884320
    28 3.773758 0.133214 0.970576 0.064411 0.064263 1.441976
    29 1.433460 -0.000001 0.000000 0.082243 -0.026000 1.401376
    30 1.019162 0.000004 -0.000001 0.111269 -0.007199 1.170068
    31 3.799517 0.014954 0.039958 0.061707 0.037703 1.689815
    32 1.774879 0.000000 0.000000 0.019509 -0.092223 1.500639
    33 1.008848 0.000001 0.000000 0.102219 -0.036441 0.427842
    34 3.632765 0.059046 -0.757493 -0.011649 -0.049057 1.870066
    35 1.500136 0.000000 -0.000001 0.117923 -0.032132 0.855674
    36 0.905664 -0.000002 0.000003 0.110578 -0.052126 1.029632
    37 -6.144531 -7.937500 -11.054688 -3.051425 -0.474845 -1.481800
    38 3.705078 0.104004 -19.828125 0.007965 0.032571 -2.314305
    39 3.316835 2.730490 19.763479 -1.700564 -0.671118 0.797767
    40 -0.706190 0.613039 1.321222 1.595147 -1.136163 1.179928
    41 5.773738 -0.000001 0.000000 -0.470771 0.074864 -0.567900
    42 -1.243242 0.160811 -1.022500 0.531904 1.117355 -3.049637
    43 5.773737 0.000000 0.000000 0.970139 -0.403420 -1.433680
end
