// Created by CrowbarDecompiler 0.71
version 1
nodes
  0 "v_weapon" -1
  1 "v_weapon.Bip01" 0
  2 "v_weapon.Bip01_Pelvis" 1
  3 "v_weapon.Bip01_Spine" 2
  4 "v_weapon.Bip01_Spine1" 3
  5 "v_weapon.Bip01_Spine2" 4
  6 "v_weapon.Bip01_Spine3" 5
  7 "v_weapon.Bip01_Neck" 6
  8 "v_weapon.Bip01_L_Clavicle" 7
  9 "v_weapon.Bip01_L_UpperArm" 8
  10 "v_weapon.Bip01_L_Forearm" 9
  11 "v_weapon.Bip01_L_Hand" 10
  12 "v_weapon.Bip01_L_ForeTwist" 9
  13 "v_weapon.Bip01_R_Clavicle" 7
  14 "v_weapon.Bip01_R_UpperArm" 13
  15 "v_weapon.Bip01_R_Forearm" 14
  16 "v_weapon.Bip01_R_Hand" 15
  17 "v_weapon.Bip01_R_ForeTwist" 14
end
skeleton
  time 0
    0 0.000000 0.000000 0.000000 0.000000 0.000000 -0.000001
    1 0.000000 0.000000 0.000000 0.000000 -1.570796 -1.570796
    2 0.000000 0.000000 0.000000 0.000000 -1.570796 -1.570795
    3 3.562428 -0.816635 0.000008 -0.000004 -0.000001 0.000796
    4 4.003749 -0.003188 0.000000 0.000000 0.000000 0.000000
    5 4.003753 -0.003188 0.000000 0.000000 0.000000 0.000000
    6 4.003755 -0.003188 0.000000 0.000000 0.000000 0.000000
    7 5.028769 -0.763714 -0.000001 0.000000 -0.000001 0.278578
    8 -0.999640 0.234795 1.223300 0.000001 -1.215149 2.862219
    9 5.773739 -0.000001 0.000000 0.010429 0.395203 0.006714
    10 11.576873 0.000000 0.000002 0.000000 0.000000 -0.000733
    11 10.295579 0.000000 0.000000 -1.563506 -0.043612 -0.021680
    12 11.576876 0.000000 0.000006 0.006830 0.000000 -0.000733
    13 -0.999640 0.234802 -1.223299 -0.000013 1.215147 2.862206
    14 5.773738 0.000000 0.000004 -0.010429 -0.395202 0.006714
    15 11.576876 0.000000 0.000002 0.000000 0.000000 -0.000733
    16 10.295580 0.000000 -0.000002 1.563506 0.043612 -0.021680
    17 11.576878 0.000000 0.000002 -0.006830 0.000000 -0.000733
end
