version 1
nodes
  0 "v_weapon" -1
  1 "v_weapon.Bip01" 0
  2 "v_weapon.Bip01_Pelvis" 0
  3 "v_weapon.Bip01_Spine" 0
  4 "v_weapon.Bip01_Spine1" 0
  5 "v_weapon.Bip01_Spine2" 0
  6 "v_weapon.Bip01_Spine3" 0
  7 "v_weapon.Bip01_Neck" 0
  8 "v_weapon.Bip01_L_Clavicle" 0
  9 "v_weapon.Bip01_L_UpperArm" 0
  10 "v_weapon.Bip01_L_Forearm" 0
  11 "v_weapon.Bip01_L_Hand" 0
  12 "v_weapon.Bip01_L_ForeTwist" 0
  13 "v_weapon.Bip01_R_Clavicle" 0
  14 "v_weapon.Bip01_R_UpperArm" 0
  15 "v_weapon.Bip01_R_Forearm" 0
  16 "v_weapon.Bip01_R_Hand" 0
  17 "v_weapon.Bip01_R_ForeTwist" 0
  18 "v_weapon.Bip01_L_Finger0" 0
  19 "v_weapon.Bip01_L_Finger01" 0
  20 "v_weapon.Bip01_L_Finger02" 0
  21 "v_weapon.Bip01_L_Finger1" 0
  22 "v_weapon.Bip01_L_Finger11" 0
  23 "v_weapon.Bip01_L_Finger12" 0
  24 "v_weapon.Bip01_L_Finger2" 0
  25 "v_weapon.Bip01_L_Finger21" 0
  26 "v_weapon.Bip01_L_Finger22" 0
  27 "v_weapon.Bip01_L_Finger3" 0
  28 "v_weapon.Bip01_L_Finger31" 0
  29 "v_weapon.Bip01_L_Finger32" 0
  30 "v_weapon.Bip01_L_Finger4" 0
  31 "v_weapon.Bip01_L_Finger41" 0
  32 "v_weapon.Bip01_L_Finger42" 0
  33 "v_weapon.Bip01_R_Finger0" 0
  34 "v_weapon.Bip01_R_Finger01" 0
  35 "v_weapon.Bip01_R_Finger02" 0
  36 "v_weapon.Bip01_R_Finger1" 0
  37 "v_weapon.Bip01_R_Finger11" 0
  38 "v_weapon.Bip01_R_Finger12" 0
  39 "v_weapon.Bip01_R_Finger2" 0
  40 "v_weapon.Bip01_R_Finger21" 0
  41 "v_weapon.Bip01_R_Finger22" 0
  42 "v_weapon.Bip01_R_Finger3" 0
  43 "v_weapon.Bip01_R_Finger31" 0
  44 "v_weapon.Bip01_R_Finger32" 0
  45 "v_weapon.Bip01_R_Finger4" 0
  46 "v_weapon.Bip01_R_Finger41" 0
  47 "v_weapon.Bip01_R_Finger42" 0
  48 "FvARM-bone" 0
  49 "FvARM-bone Pelvis" 48
  50 "FvARM-bone Spine" 49
  51 "FvARM-bone Spine1" 50
  52 "FvARM-bone Neck" 51
  53 "FvARM-bone L Clavicle" 52
  54 "FvARM-bone L UpperArm" 53
  55 "FvARM-bone L ForeArm" 54
  56 "FvARM-bone L Hand" 55
  57 "FvARM-bone L Finger0" 56
  58 "FvARM-bone L Finger01" 57
  59 "FvARM-bone L Finger02" 58
  60 "FvARM-bone L Finger1" 56
  61 "FvARM-bone L Finger11" 60
  62 "FvARM-bone L Finger12" 61
  63 "FvARM-bone L Finger2" 56
  64 "FvARM-bone L Finger21" 63
  65 "FvARM-bone L Finger22" 64
  66 "FvARM-bone L Finger3" 56
  67 "FvARM-bone L Finger31" 66
  68 "FvARM-bone L Finger32" 67
  69 "FvARM-bone L Finger4" 56
  70 "FvARM-bone L Finger41" 69
  71 "FvARM-bone L Finger42" 70
  72 "FvARM-bone L ForeTwist" 54
  73 "FvARM-bone R Clavicle" 52
  74 "FvARM-bone R UpperArm" 73
  75 "FvARM-bone R ForeArm" 74
  76 "FvARM-bone R Hand" 75
  77 "FvARM-bone R Finger0" 76
  78 "FvARM-bone R Finger01" 77
  79 "FvARM-bone R Finger02" 78
  80 "FvARM-bone R Finger1" 76
  81 "FvARM-bone R Finger11" 80
  82 "FvARM-bone R Finger12" 81
  83 "FvARM-bone R Finger2" 76
  84 "FvARM-bone R Finger21" 83
  85 "FvARM-bone R Finger22" 84
  86 "FvARM-bone R Finger3" 76
  87 "FvARM-bone R Finger31" 86
  88 "FvARM-bone R Finger32" 87
  89 "FvARM-bone R Finger4" 76
  90 "FvARM-bone R Finger41" 89
  91 "FvARM-bone R Finger42" 90
  92 "FvARM-bone R ForeTwist" 74
  93 "Box001" 0
  94 "Dummy004" 93
  95 "Dummy005" 94
  96 "Mag_Dummy" 0
  97 "Dummy001" 0
  98 "Dummy002" 0
  99 "Dummy003" 0
  100 "Dummy006" 0
  101 "Dummy007" 0
  102 "Dummy008" 0
  103 "v_weapon.flash" 93
  104 "v_weapon.shelleject" 93
  105 "v_weapon.stattrack" 93
  106 "v_weapon.uid" 93
  107 "v_weapon.galilar_parent" 93
end
skeleton
  time 0
    0 0.000000 0.000000 0.000000 0.000000 0.000000 0.000000
    1 0.000000 500.000000 0.000000 0.000000 -0.000000 0.000000
    2 0.000000 500.000000 0.000000 0.000000 -0.000000 0.000000
    3 0.000000 500.000000 0.000000 0.000000 -0.000000 0.000000
    4 0.000000 500.000000 0.000000 0.000000 -0.000000 0.000000
    5 0.000000 500.000000 0.000000 0.000000 -0.000000 0.000000
    6 0.000000 500.000000 0.000000 0.000000 -0.000000 0.000000
    7 0.000000 500.000000 0.000000 0.000000 -0.000000 0.000000
    8 0.000000 500.000000 0.000000 0.000000 -0.000000 0.000000
    9 0.000000 500.000000 0.000000 0.000000 -0.000000 0.000000
    10 0.000000 500.000000 0.000000 0.000000 -0.000000 0.000000
    11 0.000000 500.000000 0.000000 0.000000 -0.000000 0.000000
    12 0.000000 500.000000 0.000000 0.000000 -0.000000 0.000000
    13 0.000000 500.000000 0.000000 0.000000 -0.000000 0.000000
    14 0.000000 500.000000 0.000000 0.000000 -0.000000 0.000000
    15 0.000000 500.000000 0.000000 0.000000 -0.000000 0.000000
    16 0.000000 500.000000 0.000000 0.000000 -0.000000 0.000000
    17 0.000000 500.000000 0.000000 0.000000 -0.000000 0.000000
    18 0.000000 500.000000 0.000000 0.000000 -0.000000 0.000000
    19 0.000000 500.000000 0.000000 0.000000 -0.000000 0.000000
    20 0.000000 500.000000 0.000000 0.000000 -0.000000 0.000000
    21 0.000000 500.000000 0.000000 0.000000 -0.000000 0.000000
    22 0.000000 500.000000 0.000000 0.000000 -0.000000 0.000000
    23 0.000000 500.000000 0.000000 0.000000 -0.000000 0.000000
    24 0.000000 500.000000 0.000000 0.000000 -0.000000 0.000000
    25 0.000000 500.000000 0.000000 0.000000 -0.000000 0.000000
    26 0.000000 500.000000 0.000000 0.000000 -0.000000 0.000000
    27 0.000000 500.000000 0.000000 0.000000 -0.000000 0.000000
    28 0.000000 500.000000 0.000000 0.000000 -0.000000 0.000000
    29 0.000000 500.000000 0.000000 0.000000 -0.000000 0.000000
    30 0.000000 500.000000 0.000000 0.000000 -0.000000 0.000000
    31 0.000000 500.000000 0.000000 0.000000 -0.000000 0.000000
    32 0.000000 500.000000 0.000000 0.000000 -0.000000 0.000000
    33 0.000000 500.000000 0.000000 0.000000 -0.000000 0.000000
    34 0.000000 500.000000 0.000000 0.000000 -0.000000 0.000000
    35 0.000000 500.000000 0.000000 0.000000 -0.000000 0.000000
    36 0.000000 500.000000 0.000000 0.000000 -0.000000 0.000000
    37 0.000000 500.000000 0.000000 0.000000 -0.000000 0.000000
    38 0.000000 500.000000 0.000000 0.000000 -0.000000 0.000000
    39 0.000000 500.000000 0.000000 0.000000 -0.000000 0.000000
    40 0.000000 500.000000 0.000000 0.000000 -0.000000 0.000000
    41 0.000000 500.000000 0.000000 0.000000 -0.000000 0.000000
    42 0.000000 500.000000 0.000000 0.000000 -0.000000 0.000000
    43 0.000000 500.000000 0.000000 0.000000 -0.000000 0.000000
    44 0.000000 500.000000 0.000000 0.000000 -0.000000 0.000000
    45 0.000000 500.000000 0.000000 0.000000 -0.000000 0.000000
    46 0.000000 500.000000 0.000000 0.000000 -0.000000 0.000000
    47 0.000000 500.000000 0.000000 0.000000 -0.000000 0.000000
    48 -5.939825 -11.298932 -22.801002 0.043781 0.024714 1.570710
    49 4.001291 0.399991 4.195612 -0.005882 1.526905 -1.618466
    50 -4.641472 0.171889 0.038418 0.000012 0.000029 0.000795
    51 -4.355372 1.781638 2.505886 0.471209 -0.002912 -0.005138
    52 -9.749261 1.090351 0.054880 0.000015 0.001709 -0.000059
    53 9.044740 -11.516981 6.001635 0.739793 0.623811 -2.677512
    54 0.863825 -6.806672 4.511651 0.732480 -0.586866 -1.858799
    55 -4.963166 -2.206898 0.122964 0.006688 -0.031998 -0.955225
    56 -5.753795 -5.034805 11.032015 2.721642 0.091818 0.681544
    57 0.980911 -10.020344 -0.001086 -1.663757 -0.317697 0.027725
    58 -2.171368 0.032434 0.019607 0.002054 0.005545 0.166461
    59 0.101959 -0.233812 0.007038 -0.001283 -0.008331 -0.237567
    60 -4.273705 1.734244 0.127050 0.238144 0.351445 0.004907
    61 -3.532558 -0.430258 0.048446 0.010671 0.017073 0.574029
    62 -3.974843 -0.667493 0.060794 0.013684 0.019465 0.682300
    63 -6.575479 1.193095 1.234839 0.300396 0.160752 0.577943
    64 -4.353477 -0.847852 0.070584 0.015811 0.020862 0.753913
    65 -4.511207 -1.037175 0.078575 0.017916 0.022042 0.821808
    66 -7.412551 0.627864 2.304764 0.353634 0.090874 0.804617
    67 -4.060466 -0.737966 0.064023 0.014523 0.020042 0.710965
    68 -5.202825 -1.822374 0.112076 0.025890 0.025019 1.061854
    69 -8.791656 -0.768469 4.108790 0.526908 -0.050203 1.204266
    70 -3.195772 -0.384092 0.043651 0.010016 0.016478 0.549173
    71 -5.065944 -1.834449 0.111180 0.025995 0.025045 1.064879
    72 -3.726137 -1.289787 2.171067 0.406261 -0.034288 -0.959465
    73 -3.500910 -8.845145 2.535794 0.176081 -1.378908 2.995504
    74 -2.208391 1.553279 4.196848 0.767569 0.713855 -0.460956
    75 -5.553547 -7.323200 0.303891 0.046450 -0.042927 -2.192774
    76 -4.475634 -9.774928 4.557554 -2.191579 -0.456170 0.423555
    77 0.378981 -5.365440 12.653507 2.608676 0.005561 0.674199
    78 -4.138612 -0.548930 0.058292 0.012254 0.018395 0.632065
    79 -3.852729 -0.688842 0.060358 0.013926 0.019635 0.690642
    80 -3.350702 1.195898 1.458882 0.087571 0.115823 -0.018857
    81 -3.724738 -0.739292 -0.099232 -0.022240 0.046640 0.617429
    82 -5.923648 -3.650089 0.154219 0.034385 0.011520 1.525668
    83 -6.904573 -0.994499 0.100725 -0.040263 -0.087666 1.183998
    84 -4.385941 -0.872363 0.071731 0.016090 0.021029 0.763068
    85 -5.170793 -1.742493 0.109036 0.025125 0.024825 1.039623
    86 -7.164206 -3.021405 -0.982832 -0.107285 -0.004248 1.578518
    87 -3.460446 -0.393482 0.046496 0.010172 0.016622 0.555127
    88 -5.102406 -1.687409 0.106496 0.024588 0.024678 1.023977
    89 -6.819375 -4.001986 -1.838337 -0.137989 0.066793 1.719077
    90 -2.163849 -0.047946 0.022285 0.004435 0.009831 0.304441
    91 -4.204585 -0.926516 0.071859 0.016679 0.021371 0.782213
    92 -6.302398 -6.807953 -0.424828 -0.134263 -0.041442 -2.191165
    93 -0.314723 -13.866685 -10.263714 -1.561855 0.047310 1.572491
    94 3.626515 -1.917031 9.457357 -3.072956 0.000516 3.126571
    95 -0.321714 1.487124 9.371828 -3.072956 0.000516 3.126571
    96 -0.368880 -16.707155 -9.063620 -1.610954 -1.092808 1.634630
    97 -0.503827 -26.867519 -6.458133 -1.561856 0.047311 1.572490
    98 -0.513365 -27.967550 -6.371463 -1.562500 -0.022628 1.574283
    99 -0.523304 -28.951489 -6.238824 -1.563594 -0.118314 1.576824
    100 -1.822515 -26.326810 -5.810447 -1.602012 -0.784818 0.045386
    101 -7.906605 -21.263957 -6.809881 -1.581713 0.749456 -0.031451
    102 -0.872284 -22.857800 -2.599333 2.820327 -1.518433 1.918928
    103 -22.475196 -5.534498 4.942818 1.526904 0.000097 -0.043110
    104 -5.720407 -7.121381 4.524736 -1.570586 -1.090572 1.527501
    105 1.047668 -6.302982 5.713221 -0.002214 1.526900 -1.616118
    106 -0.733949 -7.857287 5.358674 -0.002214 1.526900 -1.616118
    107 -0.000000 -0.000000 0.000000 0.000000 -0.000000 -0.000000
  time 1
    0 0.000000 0.000000 0.000000 0.000000 0.000000 0.000000
    1 0.000000 500.000000 0.000000 0.000000 -0.000000 0.000000
    2 0.000000 500.000000 0.000000 0.000000 -0.000000 0.000000
    3 0.000000 500.000000 0.000000 0.000000 -0.000000 0.000000
    4 0.000000 500.000000 0.000000 0.000000 -0.000000 0.000000
    5 0.000000 500.000000 0.000000 0.000000 -0.000000 0.000000
    6 0.000000 500.000000 0.000000 0.000000 -0.000000 0.000000
    7 0.000000 500.000000 0.000000 0.000000 -0.000000 0.000000
    8 0.000000 500.000000 0.000000 0.000000 -0.000000 0.000000
    9 0.000000 500.000000 0.000000 0.000000 -0.000000 0.000000
    10 0.000000 500.000000 0.000000 0.000000 -0.000000 0.000000
    11 0.000000 500.000000 0.000000 0.000000 -0.000000 0.000000
    12 0.000000 500.000000 0.000000 0.000000 -0.000000 0.000000
    13 0.000000 500.000000 0.000000 0.000000 -0.000000 0.000000
    14 0.000000 500.000000 0.000000 0.000000 -0.000000 0.000000
    15 0.000000 500.000000 0.000000 0.000000 -0.000000 0.000000
    16 0.000000 500.000000 0.000000 0.000000 -0.000000 0.000000
    17 0.000000 500.000000 0.000000 0.000000 -0.000000 0.000000
    18 0.000000 500.000000 0.000000 0.000000 -0.000000 0.000000
    19 0.000000 500.000000 0.000000 0.000000 -0.000000 0.000000
    20 0.000000 500.000000 0.000000 0.000000 -0.000000 0.000000
    21 0.000000 500.000000 0.000000 0.000000 -0.000000 0.000000
    22 0.000000 500.000000 0.000000 0.000000 -0.000000 0.000000
    23 0.000000 500.000000 0.000000 0.000000 -0.000000 0.000000
    24 0.000000 500.000000 0.000000 0.000000 -0.000000 0.000000
    25 0.000000 500.000000 0.000000 0.000000 -0.000000 0.000000
    26 0.000000 500.000000 0.000000 0.000000 -0.000000 0.000000
    27 0.000000 500.000000 0.000000 0.000000 -0.000000 0.000000
    28 0.000000 500.000000 0.000000 0.000000 -0.000000 0.000000
    29 0.000000 500.000000 0.000000 0.000000 -0.000000 0.000000
    30 0.000000 500.000000 0.000000 0.000000 -0.000000 0.000000
    31 0.000000 500.000000 0.000000 0.000000 -0.000000 0.000000
    32 0.000000 500.000000 0.000000 0.000000 -0.000000 0.000000
    33 0.000000 500.000000 0.000000 0.000000 -0.000000 0.000000
    34 0.000000 500.000000 0.000000 0.000000 -0.000000 0.000000
    35 0.000000 500.000000 0.000000 0.000000 -0.000000 0.000000
    36 0.000000 500.000000 0.000000 0.000000 -0.000000 0.000000
    37 0.000000 500.000000 0.000000 0.000000 -0.000000 0.000000
    38 0.000000 500.000000 0.000000 0.000000 -0.000000 0.000000
    39 0.000000 500.000000 0.000000 0.000000 -0.000000 0.000000
    40 0.000000 500.000000 0.000000 0.000000 -0.000000 0.000000
    41 0.000000 500.000000 0.000000 0.000000 -0.000000 0.000000
    42 0.000000 500.000000 0.000000 0.000000 -0.000000 0.000000
    43 0.000000 500.000000 0.000000 0.000000 -0.000000 0.000000
    44 0.000000 500.000000 0.000000 0.000000 -0.000000 0.000000
    45 0.000000 500.000000 0.000000 0.000000 -0.000000 0.000000
    46 0.000000 500.000000 0.000000 0.000000 -0.000000 0.000000
    47 0.000000 500.000000 0.000000 0.000000 -0.000000 0.000000
    48 -5.939825 -11.298932 -22.801002 0.043781 0.024714 1.570710
    49 4.001291 0.399991 4.195612 -0.005882 1.526905 -1.618466
    50 -4.641472 0.171889 0.038418 0.000012 0.000029 0.000795
    51 -4.355372 1.781638 2.505886 0.471209 -0.002912 -0.005138
    52 -9.749261 1.090351 0.054880 0.000015 0.001709 -0.000059
    53 9.044740 -11.516981 6.001635 0.739793 0.623811 -2.677512
    54 0.857801 -6.812240 4.460707 0.718314 -0.615585 -1.850016
    55 -4.844769 -2.437404 0.129732 0.008044 -0.033567 -1.013558
    56 -5.481302 -5.040886 10.935670 2.754173 0.120562 0.700964
    57 0.980912 -10.020343 -0.001086 -1.663757 -0.317697 0.027725
    58 -2.171367 0.032434 0.019607 0.002054 0.005545 0.166461
    59 0.101959 -0.233812 0.007038 -0.001283 -0.008331 -0.237567
    60 -4.273706 1.734244 0.127049 0.238144 0.351445 0.004907
    61 -3.532560 -0.430259 0.048446 0.010671 0.017073 0.574030
    62 -3.974844 -0.667493 0.060793 0.013684 0.019465 0.682300
    63 -6.575479 1.193095 1.234839 0.300396 0.160752 0.577943
    64 -4.353476 -0.847852 0.070585 0.015811 0.020862 0.753913
    65 -4.511206 -1.037175 0.078575 0.017916 0.022042 0.821808
    66 -7.412551 0.627864 2.304764 0.353634 0.090874 0.804617
    67 -4.060465 -0.737967 0.064023 0.014523 0.020042 0.710965
    68 -5.202824 -1.822373 0.112075 0.025890 0.025019 1.061854
    69 -8.791655 -0.768469 4.108791 0.526908 -0.050203 1.204266
    70 -3.195772 -0.384092 0.043651 0.010016 0.016478 0.549173
    71 -5.065942 -1.834448 0.111181 0.025995 0.025045 1.064879
    72 -3.551141 -1.586984 2.203088 0.411582 -0.036095 -1.017841
    73 -3.500910 -8.845145 2.535794 0.176081 -1.378908 2.995504
    74 -2.367669 1.651604 4.417116 0.811739 0.685295 -0.401043
    75 -5.664002 -7.441345 0.308993 0.047658 -0.042461 -2.229208
    76 -4.465876 -9.747398 4.311500 -2.149828 -0.449027 0.408972
    77 0.378981 -5.365440 12.653507 2.608676 0.005561 0.674199
    78 -4.138609 -0.548929 0.058292 0.012254 0.018395 0.632064
    79 -3.852729 -0.688842 0.060358 0.013926 0.019635 0.690642
    80 -3.350701 1.195898 1.458882 0.087571 0.115823 -0.018857
    81 -3.738791 -0.749286 -0.099971 -0.022397 0.047047 0.621095
    82 -5.922341 -3.643888 0.153787 0.034277 0.011400 1.524380
    83 -6.904573 -0.994499 0.100725 -0.040263 -0.087666 1.183998
    84 -4.385941 -0.872363 0.071731 0.016090 0.021029 0.763068
    85 -5.170793 -1.742493 0.109035 0.025125 0.024825 1.039623
    86 -7.164205 -3.021405 -0.982832 -0.107285 -0.004248 1.578518
    87 -3.460446 -0.393483 0.046497 0.010172 0.016622 0.555127
    88 -5.102406 -1.687409 0.106495 0.024588 0.024678 1.023977
    89 -6.819375 -4.001986 -1.838338 -0.137989 0.066793 1.719077
    90 -2.163849 -0.047946 0.022285 0.004435 0.009831 0.304441
    91 -4.204585 -0.926517 0.071859 0.016679 0.021371 0.782213
    92 -6.347034 -6.936415 -0.381045 -0.122088 -0.041475 -2.227691
    93 -0.604293 -13.513310 -10.427898 -1.527209 0.045228 1.576496
    94 3.626515 -1.917031 9.457356 -3.072956 0.000516 3.126571
    95 -0.321714 1.487124 9.371828 -3.072956 0.000516 3.126571
    96 -0.610543 -16.356272 -9.230876 -1.535634 -1.095855 1.570094
    97 -0.631910 -26.550632 -6.651551 -1.527115 0.051658 1.576399
    98 -0.636231 -27.672523 -6.571995 -1.527791 -0.012480 1.576624
    99 -0.639748 -28.741132 -6.464152 -1.528554 -0.088656 1.575906
    100 -1.996013 -25.988037 -6.031195 -1.595768 -0.727089 0.042643
    101 -7.973299 -20.937717 -6.795260 -1.579551 0.760868 -0.026710
    102 -0.875240 -22.520135 -2.770196 3.509636 -1.520695 1.232855
    103 -22.475196 -5.534498 4.942818 1.526904 0.000097 -0.043110
    104 -5.720407 -7.121381 4.524736 -1.570586 -1.090572 1.527501
    105 1.047668 -6.302982 5.713221 -0.002214 1.526900 -1.616118
    106 -0.733949 -7.857287 5.358674 -0.002214 1.526900 -1.616118
    107 0.000000 -0.000000 0.000000 0.000000 -0.000000 -0.000000
  time 2
    0 0.000000 0.000000 0.000000 0.000000 0.000000 0.000000
    1 0.000000 500.000000 0.000000 0.000000 -0.000000 0.000000
    2 0.000000 500.000000 0.000000 0.000000 -0.000000 0.000000
    3 0.000000 500.000000 0.000000 0.000000 -0.000000 0.000000
    4 0.000000 500.000000 0.000000 0.000000 -0.000000 0.000000
    5 0.000000 500.000000 0.000000 0.000000 -0.000000 0.000000
    6 0.000000 500.000000 0.000000 0.000000 -0.000000 0.000000
    7 0.000000 500.000000 0.000000 0.000000 -0.000000 0.000000
    8 0.000000 500.000000 0.000000 0.000000 -0.000000 0.000000
    9 0.000000 500.000000 0.000000 0.000000 -0.000000 0.000000
    10 0.000000 500.000000 0.000000 0.000000 -0.000000 0.000000
    11 0.000000 500.000000 0.000000 0.000000 -0.000000 0.000000
    12 0.000000 500.000000 0.000000 0.000000 -0.000000 0.000000
    13 0.000000 500.000000 0.000000 0.000000 -0.000000 0.000000
    14 0.000000 500.000000 0.000000 0.000000 -0.000000 0.000000
    15 0.000000 500.000000 0.000000 0.000000 -0.000000 0.000000
    16 0.000000 500.000000 0.000000 0.000000 -0.000000 0.000000
    17 0.000000 500.000000 0.000000 0.000000 -0.000000 0.000000
    18 0.000000 500.000000 0.000000 0.000000 -0.000000 0.000000
    19 0.000000 500.000000 0.000000 0.000000 -0.000000 0.000000
    20 0.000000 500.000000 0.000000 0.000000 -0.000000 0.000000
    21 0.000000 500.000000 0.000000 0.000000 -0.000000 0.000000
    22 0.000000 500.000000 0.000000 0.000000 -0.000000 0.000000
    23 0.000000 500.000000 0.000000 0.000000 -0.000000 0.000000
    24 0.000000 500.000000 0.000000 0.000000 -0.000000 0.000000
    25 0.000000 500.000000 0.000000 0.000000 -0.000000 0.000000
    26 0.000000 500.000000 0.000000 0.000000 -0.000000 0.000000
    27 0.000000 500.000000 0.000000 0.000000 -0.000000 0.000000
    28 0.000000 500.000000 0.000000 0.000000 -0.000000 0.000000
    29 0.000000 500.000000 0.000000 0.000000 -0.000000 0.000000
    30 0.000000 500.000000 0.000000 0.000000 -0.000000 0.000000
    31 0.000000 500.000000 0.000000 0.000000 -0.000000 0.000000
    32 0.000000 500.000000 0.000000 0.000000 -0.000000 0.000000
    33 0.000000 500.000000 0.000000 0.000000 -0.000000 0.000000
    34 0.000000 500.000000 0.000000 0.000000 -0.000000 0.000000
    35 0.000000 500.000000 0.000000 0.000000 -0.000000 0.000000
    36 0.000000 500.000000 0.000000 0.000000 -0.000000 0.000000
    37 0.000000 500.000000 0.000000 0.000000 -0.000000 0.000000
    38 0.000000 500.000000 0.000000 0.000000 -0.000000 0.000000
    39 0.000000 500.000000 0.000000 0.000000 -0.000000 0.000000
    40 0.000000 500.000000 0.000000 0.000000 -0.000000 0.000000
    41 0.000000 500.000000 0.000000 0.000000 -0.000000 0.000000
    42 0.000000 500.000000 0.000000 0.000000 -0.000000 0.000000
    43 0.000000 500.000000 0.000000 0.000000 -0.000000 0.000000
    44 0.000000 500.000000 0.000000 0.000000 -0.000000 0.000000
    45 0.000000 500.000000 0.000000 0.000000 -0.000000 0.000000
    46 0.000000 500.000000 0.000000 0.000000 -0.000000 0.000000
    47 0.000000 500.000000 0.000000 0.000000 -0.000000 0.000000
    48 -5.939825 -11.298932 -22.801002 0.043781 0.024714 1.570710
    49 4.001291 0.399991 4.195612 -0.005882 1.526905 -1.618466
    50 -4.641472 0.171889 0.038418 0.000012 0.000029 0.000795
    51 -4.355372 1.781638 2.505886 0.471209 -0.002912 -0.005138
    52 -9.749261 1.090351 0.054880 0.000015 0.001709 -0.000059
    53 9.044740 -11.516981 6.001635 0.739793 0.623811 -2.677512
    54 0.850804 -6.819047 4.410038 0.703533 -0.644196 -1.840539
    55 -4.740014 -2.674412 0.136853 0.009490 -0.035053 -1.071895
    56 -5.213120 -5.041974 10.827739 2.787387 0.148655 0.721393
    57 0.980912 -10.020343 -0.001085 -1.663757 -0.317697 0.027725
    58 -2.171367 0.032434 0.019607 0.002054 0.005545 0.166461
    59 0.101958 -0.233812 0.007038 -0.001283 -0.008331 -0.237567
    60 -4.273706 1.734244 0.127049 0.238144 0.351445 0.004907
    61 -3.532561 -0.430260 0.048446 0.010671 0.017073 0.574030
    62 -3.974845 -0.667493 0.060793 0.013684 0.019465 0.682300
    63 -6.575479 1.193095 1.234839 0.300396 0.160752 0.577943
    64 -4.353476 -0.847853 0.070585 0.015811 0.020862 0.753913
    65 -4.511205 -1.037174 0.078574 0.017916 0.022042 0.821808
    66 -7.412551 0.627864 2.304764 0.353634 0.090874 0.804617
    67 -4.060465 -0.737967 0.064024 0.014523 0.020042 0.710965
    68 -5.202824 -1.822373 0.112075 0.025890 0.025019 1.061854
    69 -8.791655 -0.768469 4.108792 0.526908 -0.050203 1.204266
    70 -3.195772 -0.384092 0.043650 0.010016 0.016478 0.549173
    71 -5.065940 -1.834448 0.111183 0.025995 0.025045 1.064878
    72 -3.393901 -1.893896 2.235585 0.417000 -0.037589 -1.076229
    73 -3.500910 -8.845145 2.535794 0.176081 -1.378908 2.995504
    74 -2.538624 1.740641 4.632526 0.852658 0.654811 -0.344160
    75 -5.778687 -7.555392 0.313996 0.048848 -0.041951 -2.265640
    76 -4.461568 -9.712115 4.066282 -2.108343 -0.441344 0.394783
    77 0.378981 -5.365439 12.653506 2.608676 0.005561 0.674199
    78 -4.138607 -0.548928 0.058292 0.012253 0.018395 0.632064
    79 -3.852729 -0.688842 0.060357 0.013926 0.019635 0.690642
    80 -3.350700 1.195898 1.458882 0.087571 0.115823 -0.018857
    81 -3.752808 -0.759331 -0.100704 -0.022553 0.047454 0.624761
    82 -5.921027 -3.637688 0.153356 0.034168 0.011279 1.523091
    83 -6.904573 -0.994499 0.100725 -0.040263 -0.087666 1.183998
    84 -4.385942 -0.872363 0.071731 0.016090 0.021029 0.763068
    85 -5.170793 -1.742493 0.109034 0.025125 0.024825 1.039623
    86 -7.164204 -3.021405 -0.982832 -0.107285 -0.004248 1.578518
    87 -3.460446 -0.393484 0.046498 0.010172 0.016622 0.555127
    88 -5.102406 -1.687409 0.106495 0.024588 0.024678 1.023977
    89 -6.819375 -4.001986 -1.838339 -0.137989 0.066793 1.719077
    90 -2.163849 -0.047946 0.022285 0.004435 0.009831 0.304441
    91 -4.204585 -0.926518 0.071860 0.016679 0.021371 0.782213
    92 -6.396690 -7.062859 -0.336793 -0.109920 -0.041064 -2.264214
    93 -0.899486 -13.159994 -10.586656 -1.492574 0.043010 1.580426
    94 3.626515 -1.917031 9.457355 -3.072956 0.000516 3.126571
    95 -0.321714 1.487124 9.371828 -3.072956 0.000516 3.126571
    96 -0.857604 -16.005245 -9.395817 -1.459759 -1.096657 1.504998
    97 -0.765625 -26.234816 -6.839520 -1.492349 0.055868 1.580459
    98 -0.764800 -27.379680 -6.766793 -1.493060 -0.002419 1.579316
    99 -0.762389 -28.536802 -6.680567 -1.493618 -0.058985 1.576031
    100 -2.181106 -25.649100 -6.243021 -1.590020 -0.669349 0.040488
    101 -8.039741 -20.611591 -6.780388 -1.577290 0.772273 -0.021881
    102 -0.883816 -22.182077 -2.942150 4.019077 -1.502439 0.726651
    103 -22.475196 -5.534498 4.942818 1.526904 0.000097 -0.043110
    104 -5.720407 -7.121381 4.524736 -1.570586 -1.090572 1.527501
    105 1.047668 -6.302982 5.713221 -0.002214 1.526900 -1.616118
    106 -0.733949 -7.857287 5.358674 -0.002214 1.526900 -1.616118
    107 0.000000 0.000000 -0.000000 -0.000000 0.000000 -0.000000
  time 3
    0 0.000000 0.000000 0.000000 0.000000 0.000000 0.000000
    1 0.000000 500.000000 0.000000 0.000000 -0.000000 0.000000
    2 0.000000 500.000000 0.000000 0.000000 -0.000000 0.000000
    3 0.000000 500.000000 0.000000 0.000000 -0.000000 0.000000
    4 0.000000 500.000000 0.000000 0.000000 -0.000000 0.000000
    5 0.000000 500.000000 0.000000 0.000000 -0.000000 0.000000
    6 0.000000 500.000000 0.000000 0.000000 -0.000000 0.000000
    7 0.000000 500.000000 0.000000 0.000000 -0.000000 0.000000
    8 0.000000 500.000000 0.000000 0.000000 -0.000000 0.000000
    9 0.000000 500.000000 0.000000 0.000000 -0.000000 0.000000
    10 0.000000 500.000000 0.000000 0.000000 -0.000000 0.000000
    11 0.000000 500.000000 0.000000 0.000000 -0.000000 0.000000
    12 0.000000 500.000000 0.000000 0.000000 -0.000000 0.000000
    13 0.000000 500.000000 0.000000 0.000000 -0.000000 0.000000
    14 0.000000 500.000000 0.000000 0.000000 -0.000000 0.000000
    15 0.000000 500.000000 0.000000 0.000000 -0.000000 0.000000
    16 0.000000 500.000000 0.000000 0.000000 -0.000000 0.000000
    17 0.000000 500.000000 0.000000 0.000000 -0.000000 0.000000
    18 0.000000 500.000000 0.000000 0.000000 -0.000000 0.000000
    19 0.000000 500.000000 0.000000 0.000000 -0.000000 0.000000
    20 0.000000 500.000000 0.000000 0.000000 -0.000000 0.000000
    21 0.000000 500.000000 0.000000 0.000000 -0.000000 0.000000
    22 0.000000 500.000000 0.000000 0.000000 -0.000000 0.000000
    23 0.000000 500.000000 0.000000 0.000000 -0.000000 0.000000
    24 0.000000 500.000000 0.000000 0.000000 -0.000000 0.000000
    25 0.000000 500.000000 0.000000 0.000000 -0.000000 0.000000
    26 0.000000 500.000000 0.000000 0.000000 -0.000000 0.000000
    27 0.000000 500.000000 0.000000 0.000000 -0.000000 0.000000
    28 0.000000 500.000000 0.000000 0.000000 -0.000000 0.000000
    29 0.000000 500.000000 0.000000 0.000000 -0.000000 0.000000
    30 0.000000 500.000000 0.000000 0.000000 -0.000000 0.000000
    31 0.000000 500.000000 0.000000 0.000000 -0.000000 0.000000
    32 0.000000 500.000000 0.000000 0.000000 -0.000000 0.000000
    33 0.000000 500.000000 0.000000 0.000000 -0.000000 0.000000
    34 0.000000 500.000000 0.000000 0.000000 -0.000000 0.000000
    35 0.000000 500.000000 0.000000 0.000000 -0.000000 0.000000
    36 0.000000 500.000000 0.000000 0.000000 -0.000000 0.000000
    37 0.000000 500.000000 0.000000 0.000000 -0.000000 0.000000
    38 0.000000 500.000000 0.000000 0.000000 -0.000000 0.000000
    39 0.000000 500.000000 0.000000 0.000000 -0.000000 0.000000
    40 0.000000 500.000000 0.000000 0.000000 -0.000000 0.000000
    41 0.000000 500.000000 0.000000 0.000000 -0.000000 0.000000
    42 0.000000 500.000000 0.000000 0.000000 -0.000000 0.000000
    43 0.000000 500.000000 0.000000 0.000000 -0.000000 0.000000
    44 0.000000 500.000000 0.000000 0.000000 -0.000000 0.000000
    45 0.000000 500.000000 0.000000 0.000000 -0.000000 0.000000
    46 0.000000 500.000000 0.000000 0.000000 -0.000000 0.000000
    47 0.000000 500.000000 0.000000 0.000000 -0.000000 0.000000
    48 -5.939825 -11.298932 -22.801002 0.043781 0.024714 1.570710
    49 4.001291 0.399991 4.195612 -0.005882 1.526905 -1.618466
    50 -4.641472 0.171889 0.038418 0.000012 0.000029 0.000795
    51 -4.355372 1.781638 2.505886 0.471209 -0.002912 -0.005138
    52 -9.749261 1.090351 0.054880 0.000015 0.001709 -0.000059
    53 9.044740 -11.516981 6.001635 0.739793 0.623811 -2.677512
    54 0.842841 -6.827088 4.359694 0.688076 -0.672689 -1.830310
    55 -4.649259 -2.917116 0.144303 0.011020 -0.036453 -1.130238
    56 -4.949821 -5.038069 10.708450 2.821328 0.176053 0.742852
    57 0.980913 -10.020342 -0.001085 -1.663757 -0.317697 0.027725
    58 -2.171366 0.032434 0.019607 0.002054 0.005545 0.166461
    59 0.101957 -0.233812 0.007038 -0.001283 -0.008331 -0.237567
    60 -4.273707 1.734244 0.127048 0.238144 0.351445 0.004907
    61 -3.532563 -0.430260 0.048446 0.010671 0.017073 0.574031
    62 -3.974845 -0.667493 0.060792 0.013684 0.019465 0.682300
    63 -6.575479 1.193095 1.234839 0.300396 0.160752 0.577943
    64 -4.353475 -0.847854 0.070586 0.015811 0.020862 0.753913
    65 -4.511205 -1.037174 0.078573 0.017916 0.022042 0.821808
    66 -7.412551 0.627864 2.304764 0.353634 0.090874 0.804617
    67 -4.060464 -0.737968 0.064024 0.014523 0.020042 0.710965
    68 -5.202823 -1.822372 0.112074 0.025890 0.025019 1.061854
    69 -8.791655 -0.768469 4.108793 0.526908 -0.050203 1.204266
    70 -3.195772 -0.384092 0.043649 0.010016 0.016478 0.549173
    71 -5.065938 -1.834447 0.111184 0.025995 0.025045 1.064878
    72 -3.254954 -2.209474 2.268447 0.422497 -0.038764 -1.134627
    73 -3.500910 -8.845145 2.535794 0.176081 -1.378908 2.995504
    74 -2.720754 1.820130 4.842444 0.890438 0.622597 -0.290165
    75 -5.897451 -7.665190 0.318891 0.050019 -0.041398 -2.302071
    76 -4.462717 -9.669131 3.822260 -2.067136 -0.433139 0.381009
    77 0.378981 -5.365438 12.653505 2.608676 0.005561 0.674199
    78 -4.138605 -0.548926 0.058292 0.012253 0.018395 0.632063
    79 -3.852729 -0.688842 0.060356 0.013926 0.019635 0.690642
    80 -3.350699 1.195898 1.458882 0.087571 0.115823 -0.018857
    81 -3.766788 -0.769428 -0.101430 -0.022707 0.047862 0.628428
    82 -5.919704 -3.631489 0.152926 0.034060 0.011159 1.521803
    83 -6.904573 -0.994499 0.100725 -0.040263 -0.087666 1.183998
    84 -4.385943 -0.872363 0.071731 0.016090 0.021029 0.763068
    85 -5.170793 -1.742493 0.109034 0.025125 0.024825 1.039623
    86 -7.164204 -3.021405 -0.982832 -0.107285 -0.004248 1.578518
    87 -3.460446 -0.393484 0.046498 0.010172 0.016622 0.555127
    88 -5.102406 -1.687409 0.106494 0.024588 0.024678 1.023977
    89 -6.819375 -4.001986 -1.838339 -0.137989 0.066793 1.719077
    90 -2.163849 -0.047946 0.022285 0.004435 0.009831 0.304441
    91 -4.204585 -0.926518 0.071861 0.016679 0.021371 0.782213
    92 -6.451296 -7.187100 -0.292137 -0.097775 -0.040209 -2.300729
    93 -1.200111 -12.806762 -10.739796 -1.457952 0.040657 1.584276
    94 3.626515 -1.917031 9.457355 -3.072956 0.000516 3.126571
    95 -0.321714 1.487124 9.371828 -3.072956 0.000516 3.126571
    96 -1.109981 -15.654092 -9.558257 -1.383979 -1.095202 1.439998
    97 -0.904777 -25.920057 -7.021842 -1.457559 0.059933 1.584663
    98 -0.898865 -27.088978 -6.955642 -1.458301 0.007542 1.582356
    99 -0.890895 -28.338243 -6.887685 -1.458724 -0.029335 1.577192
    100 -2.377258 -25.310037 -6.445269 -1.584667 -0.611601 0.038830
    101 -8.105926 -20.285579 -6.765269 -1.574926 0.783669 -0.016962
    102 -0.898048 -21.843638 -3.115001 4.277163 -1.474724 0.471806
    103 -22.475196 -5.534498 4.942818 1.526904 0.000097 -0.043110
    104 -5.720407 -7.121381 4.524736 -1.570586 -1.090572 1.527501
    105 1.047668 -6.302982 5.713221 -0.002214 1.526900 -1.616118
    106 -0.733949 -7.857287 5.358674 -0.002214 1.526900 -1.616118
    107 -0.000000 -0.000000 0.000000 0.000000 -0.000000 0.000000
  time 4
    0 0.000000 0.000000 0.000000 0.000000 0.000000 0.000000
    1 0.000000 500.000000 0.000000 0.000000 -0.000000 0.000000
    2 0.000000 500.000000 0.000000 0.000000 -0.000000 0.000000
    3 0.000000 500.000000 0.000000 0.000000 -0.000000 0.000000
    4 0.000000 500.000000 0.000000 0.000000 -0.000000 0.000000
    5 0.000000 500.000000 0.000000 0.000000 -0.000000 0.000000
    6 0.000000 500.000000 0.000000 0.000000 -0.000000 0.000000
    7 0.000000 500.000000 0.000000 0.000000 -0.000000 0.000000
    8 0.000000 500.000000 0.000000 0.000000 -0.000000 0.000000
    9 0.000000 500.000000 0.000000 0.000000 -0.000000 0.000000
    10 0.000000 500.000000 0.000000 0.000000 -0.000000 0.000000
    11 0.000000 500.000000 0.000000 0.000000 -0.000000 0.000000
    12 0.000000 500.000000 0.000000 0.000000 -0.000000 0.000000
    13 0.000000 500.000000 0.000000 0.000000 -0.000000 0.000000
    14 0.000000 500.000000 0.000000 0.000000 -0.000000 0.000000
    15 0.000000 500.000000 0.000000 0.000000 -0.000000 0.000000
    16 0.000000 500.000000 0.000000 0.000000 -0.000000 0.000000
    17 0.000000 500.000000 0.000000 0.000000 -0.000000 0.000000
    18 0.000000 500.000000 0.000000 0.000000 -0.000000 0.000000
    19 0.000000 500.000000 0.000000 0.000000 -0.000000 0.000000
    20 0.000000 500.000000 0.000000 0.000000 -0.000000 0.000000
    21 0.000000 500.000000 0.000000 0.000000 -0.000000 0.000000
    22 0.000000 500.000000 0.000000 0.000000 -0.000000 0.000000
    23 0.000000 500.000000 0.000000 0.000000 -0.000000 0.000000
    24 0.000000 500.000000 0.000000 0.000000 -0.000000 0.000000
    25 0.000000 500.000000 0.000000 0.000000 -0.000000 0.000000
    26 0.000000 500.000000 0.000000 0.000000 -0.000000 0.000000
    27 0.000000 500.000000 0.000000 0.000000 -0.000000 0.000000
    28 0.000000 500.000000 0.000000 0.000000 -0.000000 0.000000
    29 0.000000 500.000000 0.000000 0.000000 -0.000000 0.000000
    30 0.000000 500.000000 0.000000 0.000000 -0.000000 0.000000
    31 0.000000 500.000000 0.000000 0.000000 -0.000000 0.000000
    32 0.000000 500.000000 0.000000 0.000000 -0.000000 0.000000
    33 0.000000 500.000000 0.000000 0.000000 -0.000000 0.000000
    34 0.000000 500.000000 0.000000 0.000000 -0.000000 0.000000
    35 0.000000 500.000000 0.000000 0.000000 -0.000000 0.000000
    36 0.000000 500.000000 0.000000 0.000000 -0.000000 0.000000
    37 0.000000 500.000000 0.000000 0.000000 -0.000000 0.000000
    38 0.000000 500.000000 0.000000 0.000000 -0.000000 0.000000
    39 0.000000 500.000000 0.000000 0.000000 -0.000000 0.000000
    40 0.000000 500.000000 0.000000 0.000000 -0.000000 0.000000
    41 0.000000 500.000000 0.000000 0.000000 -0.000000 0.000000
    42 0.000000 500.000000 0.000000 0.000000 -0.000000 0.000000
    43 0.000000 500.000000 0.000000 0.000000 -0.000000 0.000000
    44 0.000000 500.000000 0.000000 0.000000 -0.000000 0.000000
    45 0.000000 500.000000 0.000000 0.000000 -0.000000 0.000000
    46 0.000000 500.000000 0.000000 0.000000 -0.000000 0.000000
    47 0.000000 500.000000 0.000000 0.000000 -0.000000 0.000000
    48 -5.939825 -11.298932 -22.801002 0.043781 0.024714 1.570710
    49 4.001291 0.399991 4.195612 -0.005882 1.526905 -1.618466
    50 -4.641472 0.171889 0.038418 0.000012 0.000029 0.000795
    51 -4.355372 1.781638 2.505886 0.471209 -0.002912 -0.005138
    52 -9.749261 1.090351 0.054880 0.000015 0.001709 -0.000059
    53 9.044740 -11.516981 6.001635 0.739793 0.623811 -2.677512
    54 0.852341 -6.806387 4.363927 0.690127 -0.666689 -1.828571
    55 -4.651458 -2.910685 0.144103 0.010978 -0.036417 -1.128708
    56 -5.179686 -4.839660 10.838842 2.774348 0.161749 0.756315
    57 0.980913 -10.020343 -0.001085 -1.663757 -0.317697 0.027725
    58 -2.171366 0.032434 0.019606 0.002054 0.005545 0.166461
    59 0.101956 -0.233811 0.007038 -0.001283 -0.008331 -0.237567
    60 -4.273707 1.734244 0.127048 0.238144 0.351445 0.004907
    61 -3.532561 -0.430260 0.048446 0.010671 0.017073 0.574030
    62 -3.974845 -0.667493 0.060791 0.013684 0.019465 0.682300
    63 -6.575478 1.193095 1.234839 0.300396 0.160752 0.577943
    64 -4.353475 -0.847854 0.070585 0.015811 0.020862 0.753913
    65 -4.511205 -1.037173 0.078575 0.017916 0.022042 0.821808
    66 -7.412551 0.627864 2.304763 0.353634 0.090874 0.804617
    67 -4.060465 -0.737967 0.064023 0.014523 0.020042 0.710965
    68 -5.202823 -1.822372 0.112075 0.025890 0.025019 1.061854
    69 -8.791654 -0.768469 4.108787 0.526908 -0.050204 1.204266
    70 -3.195772 -0.384092 0.043650 0.010016 0.016478 0.549173
    71 -5.065940 -1.834448 0.111183 0.025995 0.025045 1.064878
    72 -3.276809 -2.211016 2.222293 0.414622 -0.038714 -1.133006
    73 -3.500910 -8.845145 2.535794 0.176081 -1.378908 2.995504
    74 -2.655449 1.794752 4.903161 0.904971 0.649895 -0.292481
    75 -5.799158 -7.574895 0.314860 0.049055 -0.041858 -2.272008
    76 -4.688250 -9.815069 3.912445 -2.078714 -0.457305 0.340307
    77 0.378981 -5.365439 12.653506 2.608676 0.005561 0.674199
    78 -4.138605 -0.548926 0.058291 0.012253 0.018395 0.632063
    79 -3.852729 -0.688842 0.060357 0.013926 0.019635 0.690642
    80 -3.350703 1.195899 1.458883 0.087571 0.115823 -0.018857
    81 -3.781205 -0.779922 -0.102173 -0.022866 0.048284 0.632219
    82 -5.918327 -3.625078 0.152483 0.033949 0.011034 1.520470
    83 -6.904573 -0.994499 0.100725 -0.040263 -0.087666 1.183998
    84 -4.385943 -0.872363 0.071732 0.016090 0.021029 0.763068
    85 -5.170793 -1.742493 0.109033 0.025125 0.024825 1.039623
    86 -7.164204 -3.021405 -0.982832 -0.107285 -0.004248 1.578518
    87 -3.460445 -0.393484 0.046498 0.010172 0.016622 0.555127
    88 -5.102405 -1.687409 0.106493 0.024588 0.024678 1.023977
    89 -6.819375 -4.001986 -1.838339 -0.137989 0.066793 1.719077
    90 -2.163848 -0.047946 0.022285 0.004435 0.009831 0.304441
    91 -4.204585 -0.926518 0.071861 0.016679 0.021371 0.782213
    92 -6.368732 -7.112712 -0.296352 -0.098980 -0.040672 -2.270665
    93 -0.873883 -12.909463 -10.651219 -1.507043 0.052276 1.582396
    94 3.626515 -1.917031 9.457355 -3.072956 0.000516 3.126571
    95 -0.321714 1.487124 9.371828 -3.072956 0.000516 3.126571
    96 -0.844972 -15.742781 -9.431455 -1.492319 -1.088282 1.536565
    97 -0.766486 -25.944037 -6.786563 -1.506862 0.063984 1.582002
    98 -0.764796 -27.205344 -6.714198 -1.507196 0.031807 1.582116
    99 -0.759867 -28.550544 -6.643261 -1.507646 0.014911 1.577623
    100 -2.341626 -25.368874 -6.362895 -1.599563 -0.636243 0.046730
    101 -7.878183 -20.351940 -7.006068 -1.587819 0.710234 -0.024121
    102 -0.947977 -21.861390 -2.928049 3.765140 -1.505138 0.982684
    103 -22.475196 -5.534498 4.942818 1.526904 0.000097 -0.043110
    104 -5.720407 -7.121381 4.524736 -1.570586 -1.090572 1.527501
    105 1.047668 -6.302982 5.713221 -0.002214 1.526900 -1.616118
    106 -0.733949 -7.857287 5.358674 -0.002214 1.526900 -1.616118
    107 -0.000000 0.000000 -0.000000 -0.000000 0.000000 0.000000
  time 5
    0 0.000000 0.000000 0.000000 0.000000 0.000000 0.000000
    1 0.000000 500.000000 0.000000 0.000000 -0.000000 0.000000
    2 0.000000 500.000000 0.000000 0.000000 -0.000000 0.000000
    3 0.000000 500.000000 0.000000 0.000000 -0.000000 0.000000
    4 0.000000 500.000000 0.000000 0.000000 -0.000000 0.000000
    5 0.000000 500.000000 0.000000 0.000000 -0.000000 0.000000
    6 0.000000 500.000000 0.000000 0.000000 -0.000000 0.000000
    7 0.000000 500.000000 0.000000 0.000000 -0.000000 0.000000
    8 0.000000 500.000000 0.000000 0.000000 -0.000000 0.000000
    9 0.000000 500.000000 0.000000 0.000000 -0.000000 0.000000
    10 0.000000 500.000000 0.000000 0.000000 -0.000000 0.000000
    11 0.000000 500.000000 0.000000 0.000000 -0.000000 0.000000
    12 0.000000 500.000000 0.000000 0.000000 -0.000000 0.000000
    13 0.000000 500.000000 0.000000 0.000000 -0.000000 0.000000
    14 0.000000 500.000000 0.000000 0.000000 -0.000000 0.000000
    15 0.000000 500.000000 0.000000 0.000000 -0.000000 0.000000
    16 0.000000 500.000000 0.000000 0.000000 -0.000000 0.000000
    17 0.000000 500.000000 0.000000 0.000000 -0.000000 0.000000
    18 0.000000 500.000000 0.000000 0.000000 -0.000000 0.000000
    19 0.000000 500.000000 0.000000 0.000000 -0.000000 0.000000
    20 0.000000 500.000000 0.000000 0.000000 -0.000000 0.000000
    21 0.000000 500.000000 0.000000 0.000000 -0.000000 0.000000
    22 0.000000 500.000000 0.000000 0.000000 -0.000000 0.000000
    23 0.000000 500.000000 0.000000 0.000000 -0.000000 0.000000
    24 0.000000 500.000000 0.000000 0.000000 -0.000000 0.000000
    25 0.000000 500.000000 0.000000 0.000000 -0.000000 0.000000
    26 0.000000 500.000000 0.000000 0.000000 -0.000000 0.000000
    27 0.000000 500.000000 0.000000 0.000000 -0.000000 0.000000
    28 0.000000 500.000000 0.000000 0.000000 -0.000000 0.000000
    29 0.000000 500.000000 0.000000 0.000000 -0.000000 0.000000
    30 0.000000 500.000000 0.000000 0.000000 -0.000000 0.000000
    31 0.000000 500.000000 0.000000 0.000000 -0.000000 0.000000
    32 0.000000 500.000000 0.000000 0.000000 -0.000000 0.000000
    33 0.000000 500.000000 0.000000 0.000000 -0.000000 0.000000
    34 0.000000 500.000000 0.000000 0.000000 -0.000000 0.000000
    35 0.000000 500.000000 0.000000 0.000000 -0.000000 0.000000
    36 0.000000 500.000000 0.000000 0.000000 -0.000000 0.000000
    37 0.000000 500.000000 0.000000 0.000000 -0.000000 0.000000
    38 0.000000 500.000000 0.000000 0.000000 -0.000000 0.000000
    39 0.000000 500.000000 0.000000 0.000000 -0.000000 0.000000
    40 0.000000 500.000000 0.000000 0.000000 -0.000000 0.000000
    41 0.000000 500.000000 0.000000 0.000000 -0.000000 0.000000
    42 0.000000 500.000000 0.000000 0.000000 -0.000000 0.000000
    43 0.000000 500.000000 0.000000 0.000000 -0.000000 0.000000
    44 0.000000 500.000000 0.000000 0.000000 -0.000000 0.000000
    45 0.000000 500.000000 0.000000 0.000000 -0.000000 0.000000
    46 0.000000 500.000000 0.000000 0.000000 -0.000000 0.000000
    47 0.000000 500.000000 0.000000 0.000000 -0.000000 0.000000
    48 -5.939825 -11.298932 -22.801002 0.043781 0.024714 1.570710
    49 4.001291 0.399991 4.195612 -0.005882 1.526905 -1.618466
    50 -4.641472 0.171889 0.038418 0.000012 0.000029 0.000795
    51 -4.355372 1.781638 2.505886 0.471209 -0.002912 -0.005138
    52 -9.749261 1.090351 0.054880 0.000015 0.001709 -0.000059
    53 9.044740 -11.516981 6.001635 0.739793 0.623811 -2.677512
    54 0.861767 -6.785680 4.368301 0.692182 -0.660691 -1.826825
    55 -4.653666 -2.904258 0.143904 0.010937 -0.036381 -1.127178
    56 -5.418942 -4.643289 10.954605 2.727279 0.148086 0.770414
    57 0.980913 -10.020344 -0.001086 -1.663757 -0.317697 0.027725
    58 -2.171366 0.032434 0.019606 0.002054 0.005545 0.166461
    59 0.101955 -0.233811 0.007038 -0.001283 -0.008331 -0.237567
    60 -4.273707 1.734244 0.127048 0.238144 0.351445 0.004907
    61 -3.532558 -0.430259 0.048445 0.010671 0.017073 0.574030
    62 -3.974845 -0.667493 0.060791 0.013684 0.019465 0.682300
    63 -6.575477 1.193095 1.234838 0.300396 0.160752 0.577943
    64 -4.353475 -0.847854 0.070583 0.015811 0.020862 0.753913
    65 -4.511205 -1.037173 0.078576 0.017916 0.022042 0.821808
    66 -7.412550 0.627864 2.304762 0.353634 0.090874 0.804617
    67 -4.060465 -0.737967 0.064022 0.014523 0.020042 0.710965
    68 -5.202824 -1.822371 0.112075 0.025890 0.025019 1.061853
    69 -8.791653 -0.768469 4.108781 0.526907 -0.050204 1.204266
    70 -3.195772 -0.384092 0.043651 0.010016 0.016478 0.549173
    71 -5.065942 -1.834450 0.111183 0.025995 0.025045 1.064879
    72 -3.298991 -2.212738 2.176302 0.406747 -0.038650 -1.131385
    73 -3.500910 -8.845145 2.535794 0.176081 -1.378908 2.995504
    74 -2.589071 1.767517 4.961877 0.919737 0.677217 -0.294337
    75 -5.703624 -7.481689 0.310755 0.048076 -0.042288 -2.241945
    76 -4.922504 -9.950393 3.996757 -2.089317 -0.481878 0.299417
    77 0.378981 -5.365440 12.653507 2.608676 0.005561 0.674199
    78 -4.138605 -0.548926 0.058291 0.012253 0.018395 0.632063
    79 -3.852729 -0.688842 0.060358 0.013926 0.019635 0.690642
    80 -3.350706 1.195899 1.458883 0.087571 0.115823 -0.018856
    81 -3.795582 -0.790472 -0.102910 -0.023022 0.048706 0.636011
    82 -5.916941 -3.618668 0.152040 0.033837 0.010908 1.519136
    83 -6.904573 -0.994499 0.100725 -0.040263 -0.087666 1.183998
    84 -4.385943 -0.872363 0.071733 0.016090 0.021029 0.763068
    85 -5.170793 -1.742493 0.109032 0.025125 0.024825 1.039623
    86 -7.164205 -3.021405 -0.982831 -0.107285 -0.004248 1.578518
    87 -3.460445 -0.393483 0.046497 0.010172 0.016622 0.555127
    88 -5.102404 -1.687409 0.106493 0.024588 0.024678 1.023977
    89 -6.819375 -4.001986 -1.838338 -0.137989 0.066793 1.719077
    90 -2.163848 -0.047946 0.022285 0.004435 0.009831 0.304441
    91 -4.204585 -0.926518 0.071861 0.016679 0.021371 0.782213
    92 -6.288442 -7.035877 -0.300632 -0.100198 -0.041098 -2.240601
    93 -0.558558 -13.009630 -10.551058 -1.556188 0.063790 1.579946
    94 3.626515 -1.917031 9.457356 -3.072956 0.000516 3.126571
    95 -0.321714 1.487124 9.371828 -3.072956 0.000516 3.126571
    96 -0.588973 -15.829420 -9.300322 -1.596892 -1.076669 1.629337
    97 -0.639254 -25.967158 -6.540143 -1.556189 0.067899 1.579143
    98 -0.641292 -27.316419 -6.459249 -1.556148 0.056032 1.580687
    99 -0.639017 -28.753733 -6.379031 -1.556629 0.059124 1.575887
    100 -2.309282 -25.426340 -6.278302 -1.614985 -0.660785 0.055243
    101 -7.640908 -20.419300 -7.227315 -1.599323 0.636740 -0.029695
    102 -1.011178 -21.876184 -2.742409 2.984485 -1.503955 1.762196
    103 -22.475196 -5.534498 4.942818 1.526904 0.000097 -0.043110
    104 -5.720407 -7.121381 4.524736 -1.570586 -1.090572 1.527501
    105 1.047668 -6.302982 5.713221 -0.002214 1.526900 -1.616118
    106 -0.733949 -7.857287 5.358674 -0.002214 1.526900 -1.616118
    107 -0.000000 -0.000000 -0.000000 0.000000 -0.000000 -0.000000
  time 6
    0 0.000000 0.000000 0.000000 0.000000 0.000000 0.000000
    1 0.000000 500.000000 0.000000 0.000000 -0.000000 0.000000
    2 0.000000 500.000000 0.000000 0.000000 -0.000000 0.000000
    3 0.000000 500.000000 0.000000 0.000000 -0.000000 0.000000
    4 0.000000 500.000000 0.000000 0.000000 -0.000000 0.000000
    5 0.000000 500.000000 0.000000 0.000000 -0.000000 0.000000
    6 0.000000 500.000000 0.000000 0.000000 -0.000000 0.000000
    7 0.000000 500.000000 0.000000 0.000000 -0.000000 0.000000
    8 0.000000 500.000000 0.000000 0.000000 -0.000000 0.000000
    9 0.000000 500.000000 0.000000 0.000000 -0.000000 0.000000
    10 0.000000 500.000000 0.000000 0.000000 -0.000000 0.000000
    11 0.000000 500.000000 0.000000 0.000000 -0.000000 0.000000
    12 0.000000 500.000000 0.000000 0.000000 -0.000000 0.000000
    13 0.000000 500.000000 0.000000 0.000000 -0.000000 0.000000
    14 0.000000 500.000000 0.000000 0.000000 -0.000000 0.000000
    15 0.000000 500.000000 0.000000 0.000000 -0.000000 0.000000
    16 0.000000 500.000000 0.000000 0.000000 -0.000000 0.000000
    17 0.000000 500.000000 0.000000 0.000000 -0.000000 0.000000
    18 0.000000 500.000000 0.000000 0.000000 -0.000000 0.000000
    19 0.000000 500.000000 0.000000 0.000000 -0.000000 0.000000
    20 0.000000 500.000000 0.000000 0.000000 -0.000000 0.000000
    21 0.000000 500.000000 0.000000 0.000000 -0.000000 0.000000
    22 0.000000 500.000000 0.000000 0.000000 -0.000000 0.000000
    23 0.000000 500.000000 0.000000 0.000000 -0.000000 0.000000
    24 0.000000 500.000000 0.000000 0.000000 -0.000000 0.000000
    25 0.000000 500.000000 0.000000 0.000000 -0.000000 0.000000
    26 0.000000 500.000000 0.000000 0.000000 -0.000000 0.000000
    27 0.000000 500.000000 0.000000 0.000000 -0.000000 0.000000
    28 0.000000 500.000000 0.000000 0.000000 -0.000000 0.000000
    29 0.000000 500.000000 0.000000 0.000000 -0.000000 0.000000
    30 0.000000 500.000000 0.000000 0.000000 -0.000000 0.000000
    31 0.000000 500.000000 0.000000 0.000000 -0.000000 0.000000
    32 0.000000 500.000000 0.000000 0.000000 -0.000000 0.000000
    33 0.000000 500.000000 0.000000 0.000000 -0.000000 0.000000
    34 0.000000 500.000000 0.000000 0.000000 -0.000000 0.000000
    35 0.000000 500.000000 0.000000 0.000000 -0.000000 0.000000
    36 0.000000 500.000000 0.000000 0.000000 -0.000000 0.000000
    37 0.000000 500.000000 0.000000 0.000000 -0.000000 0.000000
    38 0.000000 500.000000 0.000000 0.000000 -0.000000 0.000000
    39 0.000000 500.000000 0.000000 0.000000 -0.000000 0.000000
    40 0.000000 500.000000 0.000000 0.000000 -0.000000 0.000000
    41 0.000000 500.000000 0.000000 0.000000 -0.000000 0.000000
    42 0.000000 500.000000 0.000000 0.000000 -0.000000 0.000000
    43 0.000000 500.000000 0.000000 0.000000 -0.000000 0.000000
    44 0.000000 500.000000 0.000000 0.000000 -0.000000 0.000000
    45 0.000000 500.000000 0.000000 0.000000 -0.000000 0.000000
    46 0.000000 500.000000 0.000000 0.000000 -0.000000 0.000000
    47 0.000000 500.000000 0.000000 0.000000 -0.000000 0.000000
    48 -5.939825 -11.298932 -22.801002 0.043781 0.024714 1.570710
    49 4.001291 0.399991 4.195612 -0.005882 1.526905 -1.618466
    50 -4.641472 0.171889 0.038418 0.000012 0.000029 0.000795
    51 -4.355372 1.781638 2.505886 0.471209 -0.002912 -0.005138
    52 -9.749261 1.090351 0.054880 0.000015 0.001709 -0.000059
    53 9.044740 -11.516981 6.001635 0.739793 0.623811 -2.677512
    54 0.870299 -6.767641 4.376543 0.695265 -0.653195 -1.826256
    55 -4.663534 -2.875923 0.143028 0.010757 -0.036223 -1.120423
    56 -5.640407 -4.492409 11.044456 2.686888 0.134916 0.779809
    57 0.980913 -10.020344 -0.001086 -1.663757 -0.317697 0.027725
    58 -2.171366 0.032434 0.019605 0.002054 0.005545 0.166461
    59 0.101953 -0.233810 0.007038 -0.001283 -0.008331 -0.237567
    60 -4.273707 1.734244 0.127048 0.238144 0.351445 0.004907
    61 -3.532556 -0.430258 0.048444 0.010671 0.017073 0.574029
    62 -3.974845 -0.667493 0.060790 0.013684 0.019465 0.682300
    63 -6.575477 1.193094 1.234837 0.300396 0.160752 0.577943
    64 -4.353475 -0.847854 0.070582 0.015811 0.020862 0.753913
    65 -4.511205 -1.037173 0.078577 0.017916 0.022042 0.821808
    66 -7.412550 0.627864 2.304762 0.353634 0.090874 0.804617
    67 -4.060466 -0.737966 0.064021 0.014523 0.020042 0.710965
    68 -5.202824 -1.822370 0.112076 0.025890 0.025019 1.061853
    69 -8.791652 -0.768469 4.108777 0.526906 -0.050204 1.204266
    70 -3.195772 -0.384092 0.043651 0.010016 0.016478 0.549173
    71 -5.065944 -1.834451 0.111182 0.025995 0.025045 1.064879
    72 -3.329132 -2.183978 2.137289 0.400061 -0.038415 -1.124556
    73 -3.500910 -8.845145 2.535794 0.176081 -1.378908 2.995504
    74 -2.529599 1.742369 4.985139 0.927852 0.703711 -0.298847
    75 -5.618364 -7.393570 0.306922 0.047167 -0.042657 -2.214325
    76 -5.116442 -10.052243 4.067806 -2.098700 -0.500714 0.267292
    77 0.378981 -5.365440 12.653507 2.608676 0.005561 0.674199
    78 -4.138605 -0.548926 0.058290 0.012253 0.018395 0.632063
    79 -3.852729 -0.688842 0.060358 0.013926 0.019635 0.690642
    80 -3.350708 1.195899 1.458883 0.087571 0.115823 -0.018855
    81 -3.805807 -0.798026 -0.103430 -0.023133 0.049007 0.638714
    82 -5.915948 -3.614099 0.151725 0.033758 0.010819 1.518186
    83 -6.904573 -0.994499 0.100725 -0.040263 -0.087666 1.183998
    84 -4.385943 -0.872363 0.071733 0.016090 0.021029 0.763068
    85 -5.170793 -1.742493 0.109032 0.025125 0.024825 1.039623
    86 -7.164206 -3.021405 -0.982830 -0.107285 -0.004248 1.578518
    87 -3.460444 -0.393482 0.046496 0.010172 0.016622 0.555127
    88 -5.102404 -1.687409 0.106492 0.024588 0.024678 1.023977
    89 -6.819375 -4.001986 -1.838337 -0.137989 0.066793 1.719077
    90 -2.163847 -0.047946 0.022285 0.004435 0.009831 0.304441
    91 -4.204585 -0.926518 0.071861 0.016679 0.021371 0.782213
    92 -6.218981 -6.961607 -0.306563 -0.101849 -0.041458 -2.212976
    93 -0.290077 -13.122693 -10.451172 -1.598100 0.073161 1.577142
    94 3.626515 -1.917031 9.457356 -3.072956 0.000516 3.126571
    95 -0.321715 1.487124 9.371828 -3.072956 0.000516 3.126571
    96 -0.369968 -15.931757 -9.180689 -1.681970 -1.063644 1.704051
    97 -0.534470 -26.011068 -6.319563 -1.598235 0.069362 1.576346
    98 -0.539709 -27.425299 -6.229760 -1.597971 0.073326 1.578327
    99 -0.540041 -28.938525 -6.137743 -1.598555 0.093780 1.572619
    100 -2.289151 -25.505413 -6.213321 -1.627860 -0.678219 0.062116
    101 -7.412075 -20.506609 -7.402926 -1.607767 0.570713 -0.033242
    102 -1.068835 -21.918710 -2.582631 2.543897 -1.478308 2.201530
    103 -22.475196 -5.534498 4.942818 1.526904 0.000097 -0.043110
    104 -5.720407 -7.121381 4.524736 -1.570586 -1.090572 1.527501
    105 1.047668 -6.302982 5.713221 -0.002214 1.526900 -1.616118
    106 -0.733949 -7.857287 5.358674 -0.002214 1.526900 -1.616118
    107 0.000000 -0.000000 0.000000 0.000000 0.000000 -0.000000
  time 7
    0 0.000000 0.000000 0.000000 0.000000 0.000000 0.000000
    1 0.000000 500.000000 0.000000 0.000000 -0.000000 0.000000
    2 0.000000 500.000000 0.000000 0.000000 -0.000000 0.000000
    3 0.000000 500.000000 0.000000 0.000000 -0.000000 0.000000
    4 0.000000 500.000000 0.000000 0.000000 -0.000000 0.000000
    5 0.000000 500.000000 0.000000 0.000000 -0.000000 0.000000
    6 0.000000 500.000000 0.000000 0.000000 -0.000000 0.000000
    7 0.000000 500.000000 0.000000 0.000000 -0.000000 0.000000
    8 0.000000 500.000000 0.000000 0.000000 -0.000000 0.000000
    9 0.000000 500.000000 0.000000 0.000000 -0.000000 0.000000
    10 0.000000 500.000000 0.000000 0.000000 -0.000000 0.000000
    11 0.000000 500.000000 0.000000 0.000000 -0.000000 0.000000
    12 0.000000 500.000000 0.000000 0.000000 -0.000000 0.000000
    13 0.000000 500.000000 0.000000 0.000000 -0.000000 0.000000
    14 0.000000 500.000000 0.000000 0.000000 -0.000000 0.000000
    15 0.000000 500.000000 0.000000 0.000000 -0.000000 0.000000
    16 0.000000 500.000000 0.000000 0.000000 -0.000000 0.000000
    17 0.000000 500.000000 0.000000 0.000000 -0.000000 0.000000
    18 0.000000 500.000000 0.000000 0.000000 -0.000000 0.000000
    19 0.000000 500.000000 0.000000 0.000000 -0.000000 0.000000
    20 0.000000 500.000000 0.000000 0.000000 -0.000000 0.000000
    21 0.000000 500.000000 0.000000 0.000000 -0.000000 0.000000
    22 0.000000 500.000000 0.000000 0.000000 -0.000000 0.000000
    23 0.000000 500.000000 0.000000 0.000000 -0.000000 0.000000
    24 0.000000 500.000000 0.000000 0.000000 -0.000000 0.000000
    25 0.000000 500.000000 0.000000 0.000000 -0.000000 0.000000
    26 0.000000 500.000000 0.000000 0.000000 -0.000000 0.000000
    27 0.000000 500.000000 0.000000 0.000000 -0.000000 0.000000
    28 0.000000 500.000000 0.000000 0.000000 -0.000000 0.000000
    29 0.000000 500.000000 0.000000 0.000000 -0.000000 0.000000
    30 0.000000 500.000000 0.000000 0.000000 -0.000000 0.000000
    31 0.000000 500.000000 0.000000 0.000000 -0.000000 0.000000
    32 0.000000 500.000000 0.000000 0.000000 -0.000000 0.000000
    33 0.000000 500.000000 0.000000 0.000000 -0.000000 0.000000
    34 0.000000 500.000000 0.000000 0.000000 -0.000000 0.000000
    35 0.000000 500.000000 0.000000 0.000000 -0.000000 0.000000
    36 0.000000 500.000000 0.000000 0.000000 -0.000000 0.000000
    37 0.000000 500.000000 0.000000 0.000000 -0.000000 0.000000
    38 0.000000 500.000000 0.000000 0.000000 -0.000000 0.000000
    39 0.000000 500.000000 0.000000 0.000000 -0.000000 0.000000
    40 0.000000 500.000000 0.000000 0.000000 -0.000000 0.000000
    41 0.000000 500.000000 0.000000 0.000000 -0.000000 0.000000
    42 0.000000 500.000000 0.000000 0.000000 -0.000000 0.000000
    43 0.000000 500.000000 0.000000 0.000000 -0.000000 0.000000
    44 0.000000 500.000000 0.000000 0.000000 -0.000000 0.000000
    45 0.000000 500.000000 0.000000 0.000000 -0.000000 0.000000
    46 0.000000 500.000000 0.000000 0.000000 -0.000000 0.000000
    47 0.000000 500.000000 0.000000 0.000000 -0.000000 0.000000
    48 -5.939825 -11.298932 -22.801002 0.043781 0.024714 1.570710
    49 4.001291 0.399991 4.195612 -0.005882 1.526905 -1.618466
    50 -4.641472 0.171889 0.038418 0.000012 0.000029 0.000795
    51 -4.355372 1.781638 2.505886 0.471209 -0.002912 -0.005138
    52 -9.749261 1.090351 0.054880 0.000015 0.001709 -0.000059
    53 9.044740 -11.516981 6.001635 0.739793 0.623811 -2.677512
    54 0.871094 -6.774064 4.418344 0.707322 -0.632128 -1.836089
    55 -4.748875 -2.652836 0.136198 0.009356 -0.034923 -1.066645
    56 -5.632379 -4.728967 11.025643 2.707721 0.120894 0.741564
    57 0.980912 -10.020343 -0.001086 -1.663757 -0.317697 0.027725
    58 -2.171365 0.032434 0.019605 0.002054 0.005545 0.166461
    59 0.101955 -0.233811 0.007038 -0.001283 -0.008331 -0.237567
    60 -4.273707 1.734244 0.127049 0.238144 0.351445 0.004907
    61 -3.532556 -0.430257 0.048445 0.010671 0.017073 0.574029
    62 -3.974845 -0.667494 0.060790 0.013684 0.019465 0.682300
    63 -6.575477 1.193095 1.234838 0.300396 0.160752 0.577943
    64 -4.353475 -0.847854 0.070583 0.015811 0.020862 0.753913
    65 -4.511205 -1.037173 0.078577 0.017916 0.022042 0.821808
    66 -7.412550 0.627864 2.304763 0.353634 0.090874 0.804617
    67 -4.060466 -0.737965 0.064021 0.014523 0.020042 0.710965
    68 -5.202824 -1.822371 0.112077 0.025890 0.025019 1.061853
    69 -8.791653 -0.768468 4.108782 0.526907 -0.050204 1.204266
    70 -3.195772 -0.384092 0.043651 0.010016 0.016478 0.549173
    71 -5.065943 -1.834451 0.111183 0.025995 0.025045 1.064879
    72 -3.437118 -1.882491 2.160038 0.404124 -0.036860 -1.070845
    73 -3.500910 -8.845145 2.535794 0.176081 -1.378908 2.995504
    74 -2.545531 1.746466 4.707038 0.872886 0.721844 -0.332412
    75 -5.601328 -7.375367 0.306135 0.046981 -0.042729 -2.208709
    76 -4.881066 -9.940789 4.066407 -2.104612 -0.464630 0.315515
    77 0.378981 -5.365439 12.653507 2.608676 0.005561 0.674199
    78 -4.138605 -0.548926 0.058291 0.012253 0.018395 0.632063
    79 -3.852729 -0.688842 0.060358 0.013926 0.019635 0.690642
    80 -3.350705 1.195899 1.458883 0.087571 0.115823 -0.018856
    81 -3.778923 -0.778255 -0.102056 -0.022841 0.048216 0.631619
    82 -5.918544 -3.626089 0.152553 0.033966 0.011053 1.520680
    83 -6.904573 -0.994499 0.100726 -0.040263 -0.087666 1.183998
    84 -4.385942 -0.872362 0.071734 0.016090 0.021029 0.763068
    85 -5.170793 -1.742493 0.109032 0.025125 0.024825 1.039623
    86 -7.164206 -3.021405 -0.982831 -0.107285 -0.004248 1.578518
    87 -3.460445 -0.393483 0.046496 0.010172 0.016622 0.555127
    88 -5.102404 -1.687409 0.106493 0.024588 0.024678 1.023977
    89 -6.819375 -4.001986 -1.838337 -0.137989 0.066793 1.719077
    90 -2.163848 -0.047946 0.022285 0.004435 0.009831 0.304441
    91 -4.204584 -0.926518 0.071860 0.016679 0.021371 0.782213
    92 -6.227061 -6.930744 -0.326746 -0.107284 -0.041512 -2.207317
    93 -0.346841 -13.373758 -10.446618 -1.574341 0.064399 1.575887
    94 3.626515 -1.917031 9.457356 -3.072956 0.000516 3.126571
    95 -0.321715 1.487124 9.371828 -3.072956 0.000516 3.126571
    96 -0.406236 -16.192849 -9.197393 -1.634858 -1.074853 1.659851
    97 -0.534128 -26.248389 -6.420144 -1.574552 0.050004 1.575493
    98 -0.540849 -27.559490 -6.333935 -1.574665 0.029092 1.577176
    99 -0.544378 -29.039591 -6.257502 -1.574946 0.043546 1.573531
    100 -2.355088 -25.789663 -6.339073 -1.613618 -0.632534 0.049360
    101 -7.328690 -20.766645 -7.340251 -1.597698 0.572242 -0.029497
    102 -0.965664 -22.235253 -2.638986 2.739030 -1.497884 2.004164
    103 -22.475196 -5.534498 4.942818 1.526904 0.000097 -0.043110
    104 -5.720407 -7.121381 4.524736 -1.570586 -1.090572 1.527501
    105 1.047668 -6.302982 5.713221 -0.002214 1.526900 -1.616118
    106 -0.733949 -7.857287 5.358674 -0.002214 1.526900 -1.616118
    107 0.000000 0.000000 0.000000 -0.000000 0.000000 0.000000
  time 8
    0 0.000000 0.000000 0.000000 0.000000 0.000000 0.000000
    1 0.000000 500.000000 0.000000 0.000000 -0.000000 0.000000
    2 0.000000 500.000000 0.000000 0.000000 -0.000000 0.000000
    3 0.000000 500.000000 0.000000 0.000000 -0.000000 0.000000
    4 0.000000 500.000000 0.000000 0.000000 -0.000000 0.000000
    5 0.000000 500.000000 0.000000 0.000000 -0.000000 0.000000
    6 0.000000 500.000000 0.000000 0.000000 -0.000000 0.000000
    7 0.000000 500.000000 0.000000 0.000000 -0.000000 0.000000
    8 0.000000 500.000000 0.000000 0.000000 -0.000000 0.000000
    9 0.000000 500.000000 0.000000 0.000000 -0.000000 0.000000
    10 0.000000 500.000000 0.000000 0.000000 -0.000000 0.000000
    11 0.000000 500.000000 0.000000 0.000000 -0.000000 0.000000
    12 0.000000 500.000000 0.000000 0.000000 -0.000000 0.000000
    13 0.000000 500.000000 0.000000 0.000000 -0.000000 0.000000
    14 0.000000 500.000000 0.000000 0.000000 -0.000000 0.000000
    15 0.000000 500.000000 0.000000 0.000000 -0.000000 0.000000
    16 0.000000 500.000000 0.000000 0.000000 -0.000000 0.000000
    17 0.000000 500.000000 0.000000 0.000000 -0.000000 0.000000
    18 0.000000 500.000000 0.000000 0.000000 -0.000000 0.000000
    19 0.000000 500.000000 0.000000 0.000000 -0.000000 0.000000
    20 0.000000 500.000000 0.000000 0.000000 -0.000000 0.000000
    21 0.000000 500.000000 0.000000 0.000000 -0.000000 0.000000
    22 0.000000 500.000000 0.000000 0.000000 -0.000000 0.000000
    23 0.000000 500.000000 0.000000 0.000000 -0.000000 0.000000
    24 0.000000 500.000000 0.000000 0.000000 -0.000000 0.000000
    25 0.000000 500.000000 0.000000 0.000000 -0.000000 0.000000
    26 0.000000 500.000000 0.000000 0.000000 -0.000000 0.000000
    27 0.000000 500.000000 0.000000 0.000000 -0.000000 0.000000
    28 0.000000 500.000000 0.000000 0.000000 -0.000000 0.000000
    29 0.000000 500.000000 0.000000 0.000000 -0.000000 0.000000
    30 0.000000 500.000000 0.000000 0.000000 -0.000000 0.000000
    31 0.000000 500.000000 0.000000 0.000000 -0.000000 0.000000
    32 0.000000 500.000000 0.000000 0.000000 -0.000000 0.000000
    33 0.000000 500.000000 0.000000 0.000000 -0.000000 0.000000
    34 0.000000 500.000000 0.000000 0.000000 -0.000000 0.000000
    35 0.000000 500.000000 0.000000 0.000000 -0.000000 0.000000
    36 0.000000 500.000000 0.000000 0.000000 -0.000000 0.000000
    37 0.000000 500.000000 0.000000 0.000000 -0.000000 0.000000
    38 0.000000 500.000000 0.000000 0.000000 -0.000000 0.000000
    39 0.000000 500.000000 0.000000 0.000000 -0.000000 0.000000
    40 0.000000 500.000000 0.000000 0.000000 -0.000000 0.000000
    41 0.000000 500.000000 0.000000 0.000000 -0.000000 0.000000
    42 0.000000 500.000000 0.000000 0.000000 -0.000000 0.000000
    43 0.000000 500.000000 0.000000 0.000000 -0.000000 0.000000
    44 0.000000 500.000000 0.000000 0.000000 -0.000000 0.000000
    45 0.000000 500.000000 0.000000 0.000000 -0.000000 0.000000
    46 0.000000 500.000000 0.000000 0.000000 -0.000000 0.000000
    47 0.000000 500.000000 0.000000 0.000000 -0.000000 0.000000
    48 -5.939825 -11.298932 -22.801002 0.043781 0.024714 1.570710
    49 4.001291 0.399991 4.195612 -0.005882 1.526905 -1.618466
    50 -4.641472 0.171889 0.038418 0.000012 0.000029 0.000795
    51 -4.355372 1.781638 2.505886 0.471209 -0.002912 -0.005138
    52 -9.749261 1.090351 0.054880 0.000015 0.001709 -0.000059
    53 9.044740 -11.516981 6.001635 0.739793 0.623811 -2.677512
    54 0.871256 -6.781235 4.460031 0.718945 -0.610969 -1.845464
    55 -4.846085 -2.434651 0.129650 0.008028 -0.033549 -1.012871
    56 -5.634109 -4.965118 11.000994 2.729046 0.107674 0.703093
    57 0.980912 -10.020343 -0.001086 -1.663757 -0.317697 0.027725
    58 -2.171365 0.032434 0.019605 0.002054 0.005545 0.166461
    59 0.101956 -0.233811 0.007038 -0.001283 -0.008331 -0.237567
    60 -4.273707 1.734244 0.127049 0.238144 0.351445 0.004907
    61 -3.532556 -0.430256 0.048446 0.010671 0.017073 0.574029
    62 -3.974844 -0.667494 0.060790 0.013684 0.019465 0.682300
    63 -6.575477 1.193095 1.234839 0.300396 0.160752 0.577943
    64 -4.353475 -0.847854 0.070583 0.015811 0.020862 0.753913
    65 -4.511205 -1.037173 0.078576 0.017916 0.022042 0.821808
    66 -7.412551 0.627864 2.304763 0.353634 0.090874 0.804617
    67 -4.060466 -0.737965 0.064021 0.014523 0.020042 0.710965
    68 -5.202824 -1.822372 0.112077 0.025890 0.025019 1.061853
    69 -8.791654 -0.768468 4.108787 0.526908 -0.050204 1.204266
    70 -3.195772 -0.384092 0.043650 0.010016 0.016478 0.549173
    71 -5.065943 -1.834451 0.111185 0.025995 0.025045 1.064879
    72 -3.561243 -1.587330 2.183415 0.408264 -0.035526 -1.017131
    73 -3.500910 -8.845145 2.535794 0.176081 -1.378908 2.995504
    74 -2.569835 1.741095 4.429565 0.816265 0.738532 -0.367799
    75 -5.584395 -7.357069 0.305346 0.046794 -0.042800 -2.203093
    76 -4.651202 -9.818848 4.055519 -2.108504 -0.428338 0.362675
    77 0.378981 -5.365439 12.653507 2.608676 0.005561 0.674199
    78 -4.138605 -0.548926 0.058291 0.012253 0.018395 0.632063
    79 -3.852729 -0.688842 0.060358 0.013926 0.019635 0.690642
    80 -3.350702 1.195899 1.458883 0.087571 0.115823 -0.018857
    81 -3.751900 -0.758677 -0.100656 -0.022543 0.047427 0.624524
    82 -5.921110 -3.638085 0.153383 0.034175 0.011287 1.523174
    83 -6.904573 -0.994499 0.100726 -0.040263 -0.087666 1.183998
    84 -4.385941 -0.872361 0.071735 0.016090 0.021029 0.763068
    85 -5.170793 -1.742493 0.109033 0.025125 0.024825 1.039623
    86 -7.164206 -3.021405 -0.982832 -0.107285 -0.004248 1.578518
    87 -3.460445 -0.393484 0.046495 0.010172 0.016622 0.555127
    88 -5.102405 -1.687409 0.106493 0.024588 0.024678 1.023977
    89 -6.819375 -4.001986 -1.838337 -0.137989 0.066793 1.719077
    90 -2.163848 -0.047946 0.022285 0.004435 0.009831 0.304441
    91 -4.204583 -0.926517 0.071859 0.016679 0.021371 0.782213
    92 -6.235398 -6.899861 -0.346795 -0.112720 -0.041535 -2.201657
    93 -0.406247 -13.623549 -10.439481 -1.550583 0.055670 1.574425
    94 3.626515 -1.917031 9.457355 -3.072956 0.000516 3.126571
    95 -0.321716 1.487124 9.371828 -3.072956 0.000516 3.126571
    96 -0.444357 -16.453202 -9.213555 -1.585781 -1.085029 1.613678
    97 -0.536254 -26.483353 -6.516982 -1.550870 0.030671 1.574182
    98 -0.543916 -27.689078 -6.428028 -1.551315 -0.015103 1.574995
    99 -0.550966 -29.135497 -6.364364 -1.551404 -0.006696 1.573257
    100 -2.429353 -26.071685 -6.457381 -1.600524 -0.586715 0.037787
    101 -7.245296 -21.026323 -7.277263 -1.587612 0.573740 -0.025730
    102 -0.865983 -22.550573 -2.695701 3.054119 -1.512813 1.686842
    103 -22.475196 -5.534498 4.942818 1.526904 0.000097 -0.043110
    104 -5.720407 -7.121381 4.524736 -1.570586 -1.090572 1.527501
    105 1.047668 -6.302982 5.713221 -0.002214 1.526900 -1.616118
    106 -0.733949 -7.857287 5.358674 -0.002214 1.526900 -1.616118
    107 0.000000 -0.000000 -0.000000 -0.000000 -0.000000 -0.000000
  time 9
    0 0.000000 0.000000 0.000000 0.000000 0.000000 0.000000
    1 0.000000 500.000000 0.000000 0.000000 -0.000000 0.000000
    2 0.000000 500.000000 0.000000 0.000000 -0.000000 0.000000
    3 0.000000 500.000000 0.000000 0.000000 -0.000000 0.000000
    4 0.000000 500.000000 0.000000 0.000000 -0.000000 0.000000
    5 0.000000 500.000000 0.000000 0.000000 -0.000000 0.000000
    6 0.000000 500.000000 0.000000 0.000000 -0.000000 0.000000
    7 0.000000 500.000000 0.000000 0.000000 -0.000000 0.000000
    8 0.000000 500.000000 0.000000 0.000000 -0.000000 0.000000
    9 0.000000 500.000000 0.000000 0.000000 -0.000000 0.000000
    10 0.000000 500.000000 0.000000 0.000000 -0.000000 0.000000
    11 0.000000 500.000000 0.000000 0.000000 -0.000000 0.000000
    12 0.000000 500.000000 0.000000 0.000000 -0.000000 0.000000
    13 0.000000 500.000000 0.000000 0.000000 -0.000000 0.000000
    14 0.000000 500.000000 0.000000 0.000000 -0.000000 0.000000
    15 0.000000 500.000000 0.000000 0.000000 -0.000000 0.000000
    16 0.000000 500.000000 0.000000 0.000000 -0.000000 0.000000
    17 0.000000 500.000000 0.000000 0.000000 -0.000000 0.000000
    18 0.000000 500.000000 0.000000 0.000000 -0.000000 0.000000
    19 0.000000 500.000000 0.000000 0.000000 -0.000000 0.000000
    20 0.000000 500.000000 0.000000 0.000000 -0.000000 0.000000
    21 0.000000 500.000000 0.000000 0.000000 -0.000000 0.000000
    22 0.000000 500.000000 0.000000 0.000000 -0.000000 0.000000
    23 0.000000 500.000000 0.000000 0.000000 -0.000000 0.000000
    24 0.000000 500.000000 0.000000 0.000000 -0.000000 0.000000
    25 0.000000 500.000000 0.000000 0.000000 -0.000000 0.000000
    26 0.000000 500.000000 0.000000 0.000000 -0.000000 0.000000
    27 0.000000 500.000000 0.000000 0.000000 -0.000000 0.000000
    28 0.000000 500.000000 0.000000 0.000000 -0.000000 0.000000
    29 0.000000 500.000000 0.000000 0.000000 -0.000000 0.000000
    30 0.000000 500.000000 0.000000 0.000000 -0.000000 0.000000
    31 0.000000 500.000000 0.000000 0.000000 -0.000000 0.000000
    32 0.000000 500.000000 0.000000 0.000000 -0.000000 0.000000
    33 0.000000 500.000000 0.000000 0.000000 -0.000000 0.000000
    34 0.000000 500.000000 0.000000 0.000000 -0.000000 0.000000
    35 0.000000 500.000000 0.000000 0.000000 -0.000000 0.000000
    36 0.000000 500.000000 0.000000 0.000000 -0.000000 0.000000
    37 0.000000 500.000000 0.000000 0.000000 -0.000000 0.000000
    38 0.000000 500.000000 0.000000 0.000000 -0.000000 0.000000
    39 0.000000 500.000000 0.000000 0.000000 -0.000000 0.000000
    40 0.000000 500.000000 0.000000 0.000000 -0.000000 0.000000
    41 0.000000 500.000000 0.000000 0.000000 -0.000000 0.000000
    42 0.000000 500.000000 0.000000 0.000000 -0.000000 0.000000
    43 0.000000 500.000000 0.000000 0.000000 -0.000000 0.000000
    44 0.000000 500.000000 0.000000 0.000000 -0.000000 0.000000
    45 0.000000 500.000000 0.000000 0.000000 -0.000000 0.000000
    46 0.000000 500.000000 0.000000 0.000000 -0.000000 0.000000
    47 0.000000 500.000000 0.000000 0.000000 -0.000000 0.000000
    48 -5.939825 -11.298932 -22.801002 0.043781 0.024714 1.570710
    49 4.001291 0.399991 4.195612 -0.005882 1.526905 -1.618466
    50 -4.641472 0.171889 0.038418 0.000012 0.000029 0.000795
    51 -4.355372 1.781638 2.505886 0.471209 -0.002912 -0.005138
    52 -9.749261 1.090351 0.054880 0.000015 0.001709 -0.000059
    53 9.044740 -11.516981 6.001635 0.739793 0.623811 -2.677512
    54 0.870784 -6.789149 4.501580 0.730160 -0.589725 -1.854407
    55 -4.954884 -2.221999 0.123403 0.006775 -0.032105 -0.959102
    56 -5.645592 -5.200320 10.970563 2.750838 0.095281 0.664397
    57 0.980911 -10.020342 -0.001087 -1.663757 -0.317697 0.027725
    58 -2.171364 0.032434 0.019605 0.002054 0.005545 0.166461
    59 0.101957 -0.233812 0.007038 -0.001283 -0.008331 -0.237567
    60 -4.273707 1.734244 0.127050 0.238144 0.351445 0.004907
    61 -3.532556 -0.430256 0.048446 0.010671 0.017073 0.574029
    62 -3.974843 -0.667495 0.060790 0.013684 0.019465 0.682300
    63 -6.575477 1.193095 1.234839 0.300396 0.160752 0.577943
    64 -4.353475 -0.847854 0.070584 0.015811 0.020862 0.753913
    65 -4.511205 -1.037173 0.078575 0.017916 0.022042 0.821808
    66 -7.412551 0.627864 2.304764 0.353634 0.090874 0.804617
    67 -4.060466 -0.737964 0.064021 0.014523 0.020042 0.710965
    68 -5.202824 -1.822372 0.112078 0.025890 0.025019 1.061853
    69 -8.791655 -0.768467 4.108792 0.526908 -0.050203 1.204266
    70 -3.195772 -0.384092 0.043649 0.010016 0.016478 0.549173
    71 -5.065942 -1.834451 0.111186 0.025995 0.025045 1.064879
    72 -3.701146 -1.299358 2.207351 0.412469 -0.034416 -0.963414
    73 -3.500910 -8.845145 2.535794 0.176081 -1.378908 2.995504
    74 -2.602462 1.726269 4.153292 0.758032 0.753680 -0.404947
    75 -5.567565 -7.338677 0.304555 0.046607 -0.042870 -2.197477
    76 -4.427629 -9.686834 4.035179 -2.110480 -0.391921 0.408942
    77 0.378981 -5.365438 12.653507 2.608676 0.005561 0.674199
    78 -4.138605 -0.548926 0.058292 0.012253 0.018395 0.632063
    79 -3.852729 -0.688842 0.060358 0.013926 0.019635 0.690642
    80 -3.350699 1.195898 1.458882 0.087571 0.115823 -0.018857
    81 -3.724740 -0.739292 -0.099230 -0.022240 0.046640 0.617429
    82 -5.923646 -3.650087 0.154217 0.034385 0.011520 1.525668
    83 -6.904573 -0.994499 0.100727 -0.040263 -0.087666 1.183998
    84 -4.385941 -0.872361 0.071735 0.016090 0.021029 0.763068
    85 -5.170793 -1.742493 0.109034 0.025125 0.024825 1.039623
    86 -7.164206 -3.021405 -0.982832 -0.107285 -0.004248 1.578518
    87 -3.460446 -0.393484 0.046494 0.010172 0.016622 0.555127
    88 -5.102406 -1.687409 0.106494 0.024588 0.024678 1.023977
    89 -6.819375 -4.001986 -1.838337 -0.137989 0.066793 1.719077
    90 -2.163849 -0.047946 0.022285 0.004435 0.009831 0.304441
    91 -4.204583 -0.926516 0.071859 0.016679 0.021371 0.782213
    92 -6.243990 -6.868961 -0.366708 -0.118156 -0.041528 -2.195998
    93 -0.468230 -13.872082 -10.429689 -1.526823 0.046978 1.572757
    94 3.626515 -1.917031 9.457355 -3.072956 0.000516 3.126571
    95 -0.321716 1.487124 9.371828 -3.072956 0.000516 3.126571
    96 -0.484317 -16.712816 -9.229127 -1.534822 -1.094103 1.565616
    97 -0.540752 -26.716028 -6.609974 -1.527173 0.011375 1.572414
    98 -0.548659 -27.814510 -6.511803 -1.527831 -0.059235 1.571777
    99 -0.559494 -29.226897 -6.458037 -1.527810 -0.056916 1.571798
    100 -2.511584 -26.351513 -6.567850 -1.588424 -0.540780 0.027246
    101 -7.161891 -21.285647 -7.213956 -1.577510 0.575206 -0.021942
    102 -0.769795 -22.864656 -2.752683 3.505256 -1.518917 1.233473
    103 -22.475196 -5.534498 4.942818 1.526904 0.000097 -0.043110
    104 -5.720407 -7.121381 4.524736 -1.570586 -1.090572 1.527501
    105 1.047668 -6.302982 5.713221 -0.002214 1.526900 -1.616118
    106 -0.733949 -7.857287 5.358674 -0.002214 1.526900 -1.616118
    107 0.000000 -0.000000 0.000000 0.000000 -0.000000 -0.000000
end
