version 1
nodes
  0 "v_weapon" -1
  1 "v_weapon.Bip01" 0
  2 "v_weapon.Bip01_Pelvis" 0
  3 "v_weapon.Bip01_Spine" 0
  4 "v_weapon.Bip01_Spine1" 0
  5 "v_weapon.Bip01_Spine2" 0
  6 "v_weapon.Bip01_Spine3" 0
  7 "v_weapon.Bip01_Neck" 0
  8 "v_weapon.Bip01_L_Clavicle" 0
  9 "v_weapon.Bip01_L_UpperArm" 0
  10 "v_weapon.Bip01_L_Forearm" 0
  11 "v_weapon.Bip01_L_Hand" 0
  12 "v_weapon.Bip01_L_ForeTwist" 0
  13 "v_weapon.Bip01_R_Clavicle" 0
  14 "v_weapon.Bip01_R_UpperArm" 0
  15 "v_weapon.Bip01_R_Forearm" 0
  16 "v_weapon.Bip01_R_Hand" 0
  17 "v_weapon.Bip01_R_ForeTwist" 0
  18 "v_weapon.Bip01_L_Finger0" 0
  19 "v_weapon.Bip01_L_Finger01" 0
  20 "v_weapon.Bip01_L_Finger02" 0
  21 "v_weapon.Bip01_L_Finger1" 0
  22 "v_weapon.Bip01_L_Finger11" 0
  23 "v_weapon.Bip01_L_Finger12" 0
  24 "v_weapon.Bip01_L_Finger2" 0
  25 "v_weapon.Bip01_L_Finger21" 0
  26 "v_weapon.Bip01_L_Finger22" 0
  27 "v_weapon.Bip01_L_Finger3" 0
  28 "v_weapon.Bip01_L_Finger31" 0
  29 "v_weapon.Bip01_L_Finger32" 0
  30 "v_weapon.Bip01_L_Finger4" 0
  31 "v_weapon.Bip01_L_Finger41" 0
  32 "v_weapon.Bip01_L_Finger42" 0
  33 "v_weapon.Bip01_R_Finger0" 0
  34 "v_weapon.Bip01_R_Finger01" 0
  35 "v_weapon.Bip01_R_Finger02" 0
  36 "v_weapon.Bip01_R_Finger1" 0
  37 "v_weapon.Bip01_R_Finger11" 0
  38 "v_weapon.Bip01_R_Finger12" 0
  39 "v_weapon.Bip01_R_Finger2" 0
  40 "v_weapon.Bip01_R_Finger21" 0
  41 "v_weapon.Bip01_R_Finger22" 0
  42 "v_weapon.Bip01_R_Finger3" 0
  43 "v_weapon.Bip01_R_Finger31" 0
  44 "v_weapon.Bip01_R_Finger32" 0
  45 "v_weapon.Bip01_R_Finger4" 0
  46 "v_weapon.Bip01_R_Finger41" 0
  47 "v_weapon.Bip01_R_Finger42" 0
  48 "FvARM-bone" 0
  49 "FvARM-bone Pelvis" 48
  50 "FvARM-bone Spine" 49
  51 "FvARM-bone Spine1" 50
  52 "FvARM-bone Neck" 51
  53 "FvARM-bone L Clavicle" 52
  54 "FvARM-bone L UpperArm" 53
  55 "FvARM-bone L ForeArm" 54
  56 "FvARM-bone L Hand" 55
  57 "FvARM-bone L Finger0" 56
  58 "FvARM-bone L Finger01" 57
  59 "FvARM-bone L Finger02" 58
  60 "FvARM-bone L Finger1" 56
  61 "FvARM-bone L Finger11" 60
  62 "FvARM-bone L Finger12" 61
  63 "FvARM-bone L Finger2" 56
  64 "FvARM-bone L Finger21" 63
  65 "FvARM-bone L Finger22" 64
  66 "FvARM-bone L Finger3" 56
  67 "FvARM-bone L Finger31" 66
  68 "FvARM-bone L Finger32" 67
  69 "FvARM-bone L Finger4" 56
  70 "FvARM-bone L Finger41" 69
  71 "FvARM-bone L Finger42" 70
  72 "FvARM-bone L ForeTwist" 54
  73 "FvARM-bone R Clavicle" 52
  74 "FvARM-bone R UpperArm" 73
  75 "FvARM-bone R ForeArm" 74
  76 "FvARM-bone R Hand" 75
  77 "FvARM-bone R Finger0" 76
  78 "FvARM-bone R Finger01" 77
  79 "FvARM-bone R Finger02" 78
  80 "FvARM-bone R Finger1" 76
  81 "FvARM-bone R Finger11" 80
  82 "FvARM-bone R Finger12" 81
  83 "FvARM-bone R Finger2" 76
  84 "FvARM-bone R Finger21" 83
  85 "FvARM-bone R Finger22" 84
  86 "FvARM-bone R Finger3" 76
  87 "FvARM-bone R Finger31" 86
  88 "FvARM-bone R Finger32" 87
  89 "FvARM-bone R Finger4" 76
  90 "FvARM-bone R Finger41" 89
  91 "FvARM-bone R Finger42" 90
  92 "FvARM-bone R ForeTwist" 74
  93 "Box001" 0
  94 "Dummy004" 93
  95 "Dummy005" 94
  96 "Mag_Dummy" 0
  97 "Dummy001" 0
  98 "Dummy002" 0
  99 "Dummy003" 0
  100 "Dummy006" 0
  101 "Dummy007" 0
  102 "Dummy008" 0
  103 "v_weapon.flash" 93
  104 "v_weapon.shelleject" 93
  105 "v_weapon.stattrack" 93
  106 "v_weapon.uid" 93
  107 "v_weapon.galilar_parent" 93
  108 "fx_fix_effect_3" 93
  109 "fx_fix_effect_5" 93
  110 "fx_fix_effect_8" 93
  111 "fx_fix_effect_9" 93
  112 "fx_fix_effect_10" 93
  113 "fx_fix_effect_11" 93
  114 "fx_fix_effect_12" 93
  115 "fx_fix_effect_15" 93
  116 "fx_fix_effect_16" 93
  117 "fx_fix_effect_17" 93
  118 "fx_fix_effect_19" 93
  119 "fx_fix_effect_22" 93
  120 "fx_fix_effect_23" 93
  121 "fx_fix_effect_34" 93
  122 "fx_fix_effect_35" 93
end
skeleton
  time 0
    0 0.000000 0.000000 0.000000 0.000000 0.000000 0.000000
    1 0.000000 500.000000 0.000000 0.000000 -0.000000 0.000000
    2 0.000000 500.000000 0.000000 0.000000 -0.000000 0.000000
    3 0.000000 500.000000 0.000000 0.000000 -0.000000 0.000000
    4 0.000000 500.000000 0.000000 0.000000 -0.000000 0.000000
    5 0.000000 500.000000 0.000000 0.000000 -0.000000 0.000000
    6 0.000000 500.000000 0.000000 0.000000 -0.000000 0.000000
    7 0.000000 500.000000 0.000000 0.000000 -0.000000 0.000000
    8 0.000000 500.000000 0.000000 0.000000 -0.000000 0.000000
    9 0.000000 500.000000 0.000000 0.000000 -0.000000 0.000000
    10 0.000000 500.000000 0.000000 0.000000 -0.000000 0.000000
    11 0.000000 500.000000 0.000000 0.000000 -0.000000 0.000000
    12 0.000000 500.000000 0.000000 0.000000 -0.000000 0.000000
    13 0.000000 500.000000 0.000000 0.000000 -0.000000 0.000000
    14 0.000000 500.000000 0.000000 0.000000 -0.000000 0.000000
    15 0.000000 500.000000 0.000000 0.000000 -0.000000 0.000000
    16 0.000000 500.000000 0.000000 0.000000 -0.000000 0.000000
    17 0.000000 500.000000 0.000000 0.000000 -0.000000 0.000000
    18 0.000000 500.000000 0.000000 0.000000 -0.000000 0.000000
    19 0.000000 500.000000 0.000000 0.000000 -0.000000 0.000000
    20 0.000000 500.000000 0.000000 0.000000 -0.000000 0.000000
    21 0.000000 500.000000 0.000000 0.000000 -0.000000 0.000000
    22 0.000000 500.000000 0.000000 0.000000 -0.000000 0.000000
    23 0.000000 500.000000 0.000000 0.000000 -0.000000 0.000000
    24 0.000000 500.000000 0.000000 0.000000 -0.000000 0.000000
    25 0.000000 500.000000 0.000000 0.000000 -0.000000 0.000000
    26 0.000000 500.000000 0.000000 0.000000 -0.000000 0.000000
    27 0.000000 500.000000 0.000000 0.000000 -0.000000 0.000000
    28 0.000000 500.000000 0.000000 0.000000 -0.000000 0.000000
    29 0.000000 500.000000 0.000000 0.000000 -0.000000 0.000000
    30 0.000000 500.000000 0.000000 0.000000 -0.000000 0.000000
    31 0.000000 500.000000 0.000000 0.000000 -0.000000 0.000000
    32 0.000000 500.000000 0.000000 0.000000 -0.000000 0.000000
    33 0.000000 500.000000 0.000000 0.000000 -0.000000 0.000000
    34 0.000000 500.000000 0.000000 0.000000 -0.000000 0.000000
    35 0.000000 500.000000 0.000000 0.000000 -0.000000 0.000000
    36 0.000000 500.000000 0.000000 0.000000 -0.000000 0.000000
    37 0.000000 500.000000 0.000000 0.000000 -0.000000 0.000000
    38 0.000000 500.000000 0.000000 0.000000 -0.000000 0.000000
    39 0.000000 500.000000 0.000000 0.000000 -0.000000 0.000000
    40 0.000000 500.000000 0.000000 0.000000 -0.000000 0.000000
    41 0.000000 500.000000 0.000000 0.000000 -0.000000 0.000000
    42 0.000000 500.000000 0.000000 0.000000 -0.000000 0.000000
    43 0.000000 500.000000 0.000000 0.000000 -0.000000 0.000000
    44 0.000000 500.000000 0.000000 0.000000 -0.000000 0.000000
    45 0.000000 500.000000 0.000000 0.000000 -0.000000 0.000000
    46 0.000000 500.000000 0.000000 0.000000 -0.000000 0.000000
    47 0.000000 500.000000 0.000000 0.000000 -0.000000 0.000000
    48 -5.939825 -11.298932 -22.801002 0.043781 0.024714 1.570710
    49 4.001291 0.399991 4.195612 -0.005882 1.526905 -1.618466
    50 -4.641472 0.171889 0.038418 0.000012 0.000029 0.000795
    51 -4.355372 1.781638 2.505886 0.471209 -0.002912 -0.005138
    52 -9.749261 1.090351 0.054880 0.000015 0.001709 -0.000059
    53 9.044740 -11.516981 6.001635 0.739793 0.623811 -2.677512
    54 0.856360 -6.829915 4.555794 0.744073 -0.563317 -1.870263
    55 -5.139860 -1.913590 0.114601 0.005041 -0.029810 -0.878149
    56 -5.767899 -5.345746 10.985788 2.750037 0.081557 0.615306
    57 0.978050 -10.023913 0.002829 -1.664631 -0.317428 0.027610
    58 -2.171368 0.032434 0.019605 0.002054 0.005545 0.166461
    59 0.101957 -0.233812 0.007038 -0.001283 -0.008331 -0.237567
    60 -4.273709 1.734246 0.127048 0.238144 0.351445 0.004907
    61 -3.532558 -0.430260 0.048442 0.010671 0.017073 0.574029
    62 -3.974843 -0.667495 0.060794 0.013684 0.019465 0.682300
    63 -6.575479 1.193096 1.234837 0.300396 0.160752 0.577943
    64 -4.353477 -0.847854 0.070586 0.015811 0.020862 0.753913
    65 -4.511205 -1.037172 0.078573 0.017916 0.022042 0.821808
    66 -7.412551 0.627864 2.304762 0.353634 0.090874 0.804617
    67 -4.060464 -0.737968 0.064024 0.014523 0.020042 0.710965
    68 -5.202824 -1.822370 0.112076 0.025890 0.025019 1.061853
    69 -8.791658 -0.768469 4.108793 0.526908 -0.050203 1.204266
    70 -3.195772 -0.384092 0.043647 0.010016 0.016478 0.549173
    71 -5.065944 -1.834453 0.111186 0.025995 0.025045 1.064879
    72 -3.960378 -0.895283 2.191888 0.410033 -0.032126 -0.882447
    73 -3.500910 -8.845145 2.535794 0.176081 -1.378908 2.995504
    74 -2.191012 1.501594 3.906302 0.707589 0.714960 -0.506552
    75 -5.470669 -7.228589 0.299861 0.045499 -0.043259 -2.164439
    76 -4.360484 -9.705205 4.546911 -2.193837 -0.420856 0.447394
    77 0.378980 -5.365436 12.653508 2.608675 0.005562 0.674199
    78 -4.138612 -0.548930 0.058292 0.012254 0.018395 0.632065
    79 -3.852729 -0.688840 0.060358 0.013926 0.019635 0.690642
    80 -3.350711 1.195899 1.458883 0.087571 0.115823 -0.018855
    81 -2.035898 0.009483 0.019097 0.002930 0.007288 0.221334
    82 -6.017046 -4.327311 0.205670 0.046960 0.023666 1.664934
    83 -6.904573 -0.994499 0.100725 -0.040263 -0.087666 1.183998
    84 -4.385941 -0.872365 0.071733 0.016090 0.021029 0.763068
    85 -5.170793 -1.742493 0.109034 0.025125 0.024825 1.039623
    86 -7.164206 -3.021405 -0.982832 -0.107285 -0.004248 1.578518
    87 -3.460444 -0.393482 0.046496 0.010172 0.016622 0.555127
    88 -5.102404 -1.687409 0.106492 0.024588 0.024678 1.023977
    89 -6.819375 -4.001984 -1.838339 -0.137989 0.066793 1.719077
    90 -2.163849 -0.047946 0.022287 0.004435 0.009831 0.304441
    91 -4.204585 -0.926516 0.071861 0.016679 0.021371 0.782213
    92 -6.258530 -6.718828 -0.446879 -0.140537 -0.041724 -2.162785
    93 -0.470778 -14.203348 -10.415954 -1.526870 0.041744 1.572889
    94 3.626515 -1.917029 9.457354 -3.072956 0.000516 3.126571
    95 -0.321714 1.487124 9.371828 -3.072956 0.000516 3.126571
    96 -0.486521 -17.050335 -9.230291 -1.534835 -1.099338 1.565761
    97 -0.543065 -27.224770 -6.677375 -1.526870 0.041744 1.572889
    98 -0.553668 -28.634475 -6.628971 -1.526870 0.041744 1.572889
    99 -0.564218 -30.036971 -6.580808 -1.526870 0.041744 1.572889
    100 -4.793733 -26.716667 -7.514559 -1.570710 0.017109 0.001434
    101 -4.754799 -21.668073 -7.688347 -1.570712 0.017109 0.001434
    102 -0.771395 -23.236020 -2.786142 -2.741714 -1.523839 1.197437
    103 -22.475196 -5.534498 4.942818 1.526904 0.000097 -0.043110
    104 -5.720407 -7.121381 4.524736 -1.570586 -1.090572 1.527501
    105 1.047668 -6.302982 5.713221 -0.002214 1.526900 -1.616118
    106 -0.733949 -7.857287 5.358674 -0.002214 1.526900 -1.616118
    107 -0.000000 0.000000 -0.000000 -0.000000 0.000000 0.000000
    108 -4.073375 -6.726818 4.979191 -0.000000 0.000000 0.000000
    109 -0.450375 -4.253520 4.859886 -0.005882 1.526907 -1.618468
    110 -4.285816 -6.866449 3.783758 -0.075226 1.527623 -1.600534
    111 -0.676709 -6.487596 3.936718 0.163136 -0.847672 1.522020
    112 -1.485058 -8.727761 5.043091 1.657969 0.002271 -0.017757
    113 -1.525105 -8.727448 5.043462 1.657969 0.002271 -0.017757
    114 -14.478848 -6.134610 5.358737 -0.000000 0.000000 0.000000
    115 -15.998271 -6.867840 4.095924 -0.000000 0.000000 0.000000
    116 -16.505531 -6.614082 4.094388 -0.000000 0.000000 0.000000
    117 -3.087721 -8.056040 4.414207 -0.000000 0.000000 0.000000
    118 1.520808 -7.496566 4.210808 -0.000000 0.000000 0.000000
    119 -5.266429 -6.843217 5.996432 -0.005882 1.526907 -1.618468
    120 -0.360728 -6.881669 5.950946 0.105159 -1.545949 1.492327
    121 0.923963 -7.770102 4.867071 -0.000000 0.000000 0.000000
    122 0.984032 -7.770573 4.866514 -0.000000 0.000000 0.000000
end
