// Created by CrowbarDecompiler 0.71
version 1
nodes
  0 "Scene Root" -1
  1 "bone_Weapon" 0
  2 "bone_Weapon_Main" 1
  3 "muzzle" 1
  4 "shell" 1
end
skeleton
  time 0
    0 0.000000 -7.179676 11.100285 -1.570796 -0.000001 3.141592
    1 -5.224280 13.749050 -11.345901 -3.141592 0.000000 -3.141592
    2 -0.248215 -3.990622 28.963835 0.000000 0.000000 0.000000
    3 -0.208309 -3.980618 28.661356 1.570812 -1.555294 -0.000012
    4 0.787082 -4.457595 13.090944 1.592382 -0.057240 -0.288584
end
triangles
end
