// Created by CrowbarDecompiler 0.71
version 1
nodes
  0 "v_weapon" -1
  1 "v_weapon.Bip01" 0
  2 "v_weapon.Bip01_Pelvis" 0
  3 "v_weapon.Bip01_Spine" 0
  4 "v_weapon.Bip01_Spine1" 0
  5 "v_weapon.Bip01_Spine2" 0
  6 "v_weapon.Bip01_Spine3" 0
  7 "v_weapon.Bip01_Neck" 0
  8 "v_weapon.Bip01_L_Clavicle" 0
  9 "v_weapon.Bip01_L_UpperArm" 0
  10 "v_weapon.Bip01_L_Forearm" 0
  11 "v_weapon.Bip01_L_Hand" 0
  12 "v_weapon.Bip01_L_ForeTwist" 0
  13 "v_weapon.Bip01_R_Clavicle" 0
  14 "v_weapon.Bip01_R_UpperArm" 0
  15 "v_weapon.Bip01_R_Forearm" 0
  16 "v_weapon.Bip01_R_Hand" 0
  17 "v_weapon.Bip01_R_ForeTwist" 0
  18 "v_weapon.Bip01_L_Finger0" 0
  19 "v_weapon.Bip01_L_Finger01" 0
  20 "v_weapon.Bip01_L_Finger02" 0
  21 "v_weapon.Bip01_L_Finger1" 0
  22 "v_weapon.Bip01_L_Finger11" 0
  23 "v_weapon.Bip01_L_Finger12" 0
  24 "v_weapon.Bip01_L_Finger2" 0
  25 "v_weapon.Bip01_L_Finger21" 0
  26 "v_weapon.Bip01_L_Finger22" 0
  27 "v_weapon.Bip01_L_Finger3" 0
  28 "v_weapon.Bip01_L_Finger31" 0
  29 "v_weapon.Bip01_L_Finger32" 0
  30 "v_weapon.Bip01_L_Finger4" 0
  31 "v_weapon.Bip01_L_Finger41" 0
  32 "v_weapon.Bip01_L_Finger42" 0
  33 "v_weapon.Bip01_R_Finger0" 0
  34 "v_weapon.Bip01_R_Finger01" 0
  35 "v_weapon.Bip01_R_Finger02" 0
  36 "v_weapon.Bip01_R_Finger1" 0
  37 "v_weapon.Bip01_R_Finger11" 0
  38 "v_weapon.Bip01_R_Finger12" 0
  39 "v_weapon.Bip01_R_Finger2" 0
  40 "v_weapon.Bip01_R_Finger21" 0
  41 "v_weapon.Bip01_R_Finger22" 0
  42 "v_weapon.Bip01_R_Finger3" 0
  43 "v_weapon.Bip01_R_Finger31" 0
  44 "v_weapon.Bip01_R_Finger32" 0
  45 "v_weapon.Bip01_R_Finger4" 0
  46 "v_weapon.Bip01_R_Finger41" 0
  47 "v_weapon.Bip01_R_Finger42" 0
  48 "FvARM-bone" 0
  49 "FvARM-bone Pelvis" 48
  50 "FvARM-bone Spine" 49
  51 "FvARM-bone Spine1" 50
  52 "FvARM-bone Neck" 51
  53 "FvARM-bone L Clavicle" 52
  54 "FvARM-bone L UpperArm" 53
  55 "FvARM-bone L ForeArm" 54
  56 "FvARM-bone L Hand" 55
  57 "FvARM-bone L Finger0" 56
  58 "FvARM-bone L Finger01" 57
  59 "FvARM-bone L Finger02" 58
  60 "FvARM-bone L Finger1" 56
  61 "FvARM-bone L Finger11" 60
  62 "FvARM-bone L Finger12" 61
  63 "FvARM-bone L Finger2" 56
  64 "FvARM-bone L Finger21" 63
  65 "FvARM-bone L Finger22" 64
  66 "FvARM-bone L Finger3" 56
  67 "FvARM-bone L Finger31" 66
  68 "FvARM-bone L Finger32" 67
  69 "FvARM-bone L Finger4" 56
  70 "FvARM-bone L Finger41" 69
  71 "FvARM-bone L Finger42" 70
  72 "FvARM-bone L ForeTwist" 54
  73 "FvARM-bone R Clavicle" 52
  74 "FvARM-bone R UpperArm" 73
  75 "FvARM-bone R ForeArm" 74
  76 "FvARM-bone R Hand" 75
  77 "FvARM-bone R Finger0" 76
  78 "FvARM-bone R Finger01" 77
  79 "FvARM-bone R Finger02" 78
  80 "FvARM-bone R Finger1" 76
  81 "FvARM-bone R Finger11" 80
  82 "FvARM-bone R Finger12" 81
  83 "FvARM-bone R Finger2" 76
  84 "FvARM-bone R Finger21" 83
  85 "FvARM-bone R Finger22" 84
  86 "FvARM-bone R Finger3" 76
  87 "FvARM-bone R Finger31" 86
  88 "FvARM-bone R Finger32" 87
  89 "FvARM-bone R Finger4" 76
  90 "FvARM-bone R Finger41" 89
  91 "FvARM-bone R Finger42" 90
  92 "FvARM-bone R ForeTwist" 74
  93 "FvARM-bone Prop1" 48
  94 "Dummy01" 93
  95 "Bone02" 94
  96 "Box001" 95
  97 "Box002" 95
  98 "Box003" 95
  99 "Box005" 95
  100 "Box006" 95
  101 "Box004" 95
  102 "Bone04" 94
  103 "Bone06" 94
  104 "v_weapon.flash" 94
  105 "v_weapon.shelleject" 94
  106 "v_weapon.stattrack" 94
  107 "v_weapon.uid" 94
end
skeleton
  time 0
    0 0.000000 0.000000 0.000000 0.000000 0.000000 0.000031
    1 0.000000 500.000000 0.000000 0.000000 0.000000 0.000000
    2 0.000000 500.000000 0.000000 0.000000 0.000000 0.000000
    3 0.000000 500.000000 0.000000 0.000000 0.000000 0.000000
    4 0.000000 500.000000 0.000000 0.000000 0.000000 0.000000
    5 0.000000 500.000000 0.000000 0.000000 0.000000 0.000000
    6 0.000000 500.000000 0.000000 0.000000 0.000000 0.000000
    7 0.000000 500.000000 0.000000 0.000000 0.000000 0.000000
    8 0.000000 500.000000 0.000000 0.000000 0.000000 0.000000
    9 0.000000 500.000000 0.000000 0.000000 0.000000 0.000000
    10 0.000000 500.000000 0.000000 0.000000 0.000000 0.000000
    11 0.000000 500.000000 0.000000 0.000000 0.000000 0.000000
    12 0.000000 500.000000 0.000000 0.000000 0.000000 0.000000
    13 0.000000 500.000000 0.000000 0.000000 0.000000 0.000000
    14 0.000000 500.000000 0.000000 0.000000 0.000000 0.000000
    15 0.000000 500.000000 0.000000 0.000000 0.000000 0.000000
    16 0.000000 500.000000 0.000000 0.000000 0.000000 0.000000
    17 0.000000 500.000000 0.000000 0.000000 0.000000 0.000000
    18 0.000000 500.000000 0.000000 0.000000 0.000000 0.000000
    19 0.000000 500.000000 0.000000 0.000000 0.000000 0.000000
    20 0.000000 500.000000 0.000000 0.000000 0.000000 0.000000
    21 0.000000 500.000000 0.000000 0.000000 0.000000 0.000000
    22 0.000000 500.000000 0.000000 0.000000 0.000000 0.000000
    23 0.000000 500.000000 0.000000 0.000000 0.000000 0.000000
    24 0.000000 500.000000 0.000000 0.000000 0.000000 0.000000
    25 0.000000 500.000000 0.000000 0.000000 0.000000 0.000000
    26 0.000000 500.000000 0.000000 0.000000 0.000000 0.000000
    27 0.000000 500.000000 0.000000 0.000000 0.000000 0.000000
    28 0.000000 500.000000 0.000000 0.000000 0.000000 0.000000
    29 0.000000 500.000000 0.000000 0.000000 0.000000 0.000000
    30 0.000000 500.000000 0.000000 0.000000 0.000000 0.000000
    31 0.000000 500.000000 0.000000 0.000000 0.000000 0.000000
    32 0.000000 500.000000 0.000000 0.000000 0.000000 0.000000
    33 0.000000 500.000000 0.000000 0.000000 0.000000 0.000000
    34 0.000000 500.000000 0.000000 0.000000 0.000000 0.000000
    35 0.000000 500.000000 0.000000 0.000000 0.000000 0.000000
    36 0.000000 500.000000 0.000000 0.000000 0.000000 0.000000
    37 0.000000 500.000000 0.000000 0.000000 0.000000 0.000000
    38 0.000000 500.000000 0.000000 0.000000 0.000000 0.000000
    39 0.000000 500.000000 0.000000 0.000000 0.000000 0.000000
    40 0.000000 500.000000 0.000000 0.000000 0.000000 0.000000
    41 0.000000 500.000000 0.000000 0.000000 0.000000 0.000000
    42 0.000000 500.000000 0.000000 0.000000 0.000000 0.000000
    43 0.000000 500.000000 0.000000 0.000000 0.000000 0.000000
    44 0.000000 500.000000 0.000000 0.000000 0.000000 0.000000
    45 0.000000 500.000000 0.000000 0.000000 0.000000 0.000000
    46 0.000000 500.000000 0.000000 0.000000 0.000000 0.000000
    47 0.000000 500.000000 0.000000 0.000000 0.000000 0.000000
    48 -16.062500 -6.707031 -19.593750 0.092278 -0.023794 1.567425
    49 11.937500 -10.742188 0.710938 -0.563373 1.459520 -2.163303
    50 -4.141209 0.112331 0.237204 0.000050 0.000028 0.000794
    51 -3.529297 0.044556 6.765625 0.470351 0.006988 -0.026200
    52 -8.706123 0.886986 0.476287 0.000099 0.000058 0.001707
    53 7.066406 -27.875000 10.000000 1.117471 0.934711 -2.118883
    54 5.750000 -17.671875 10.906250 0.778482 -0.379487 -2.000458
    55 3.542969 -8.515625 0.085205 -0.033286 -0.058728 -1.048075
    56 2.736328 -22.671875 3.158203 -2.857961 0.135630 0.766417
    57 0.604004 -20.718750 -10.015625 -1.804743 -0.086542 -0.018616
    58 -2.169922 0.087463 0.123291 0.003780 0.002037 0.064933
    59 3.009766 -1.094727 -0.137573 -0.015087 -0.012047 -0.288300
    60 2.738281 -1.159180 -0.537109 0.013089 -0.070032 -0.400912
    61 -1.671497 0.076294 0.094650 0.003144 0.001739 0.053237
    62 -3.178663 0.115002 0.181051 0.009742 0.004720 0.160557
    63 -2.698563 0.802040 0.092733 0.007788 -0.025632 0.004464
    64 -1.467802 0.045677 0.083841 0.001723 0.000979 0.029369
    65 -2.685816 0.119484 0.152210 0.007362 0.003743 0.122432
    66 -2.906984 0.736820 0.623272 0.007419 0.070271 0.001414
    67 -1.978821 0.097282 0.111826 0.004471 0.002407 0.075245
    68 -3.784428 0.085674 0.217299 0.012464 0.005713 0.203486
    69 -3.208876 0.679897 1.061349 0.005229 0.223163 -0.003848
    70 -2.278631 0.117950 0.128557 0.006741 0.003470 0.112378
    71 -3.025912 0.116207 0.172117 0.009579 0.004656 0.157969
    72 3.451172 -8.562500 8.078125 0.545490 -0.049089 -1.079857
    73 -3.350006 -27.453901 3.507052 0.434262 -1.472152 2.744443
    74 5.648438 -5.523438 5.910156 0.574712 0.742359 -0.644037
    75 0.732422 -23.328125 0.755371 0.007434 -0.119915 -2.202189
    76 2.121094 -20.312500 -3.244141 -2.288005 -0.310648 0.659447
    77 -1.374023 -9.257813 18.078125 1.555016 0.107899 0.601376
    78 -8.750000 -1.085938 0.546387 0.035570 0.009295 0.552755
    79 -12.992188 -4.539063 0.911621 0.063218 0.002677 0.977051
    80 -2.042969 0.606445 1.114258 -0.011660 -0.096800 -0.012659
    81 -11.359375 -2.876953 0.759277 0.052225 0.006828 0.802343
    82 -11.218750 -2.751953 0.747070 0.051290 0.007109 0.787727
    83 -9.328125 0.401611 3.923828 0.206081 -0.433193 0.484294
    84 -14.078125 -5.593750 1.010742 0.069006 -0.000407 1.074611
    85 -14.460938 -6.261719 1.055664 0.072370 -0.002531 1.132734
    86 -12.937500 -2.878906 -1.896484 -0.218548 -0.448302 1.031973
    87 -13.906250 -5.523438 0.998047 0.068621 -0.000158 1.068183
    88 -14.648438 -6.601563 1.078125 0.073908 -0.003681 1.161524
    89 -16.234375 -9.843750 -4.324219 -0.322597 -0.301590 1.624481
    90 -9.218750 -1.593750 0.591309 0.041105 0.008940 0.634977
    91 -9.882813 -1.911133 0.640625 0.044148 0.008548 0.680621
    92 -0.258545 -22.828125 -2.230469 -0.221374 -0.119080 -2.188929
    93 -1.125000 -12.570313 -0.282715 -1.567350 0.055782 0.060621
    94 -8.726563 -2.142578 -0.225098 0.000000 0.000000 0.000000
    95 14.935091 -0.802353 -0.822908 0.001790 0.001016 0.030483
    96 2.214844 -11.312500 1.306641 -0.549153 1.458610 -2.175688
    97 3.244568 -11.142443 0.450475 -0.546671 1.458644 -2.177189
    98 -7.299834 -11.213004 4.990924 -3.001123 0.963725 1.632589
    99 -5.319552 -11.666334 5.222860 -3.022048 0.789986 1.606449
    100 -5.342485 -15.355699 6.643841 -3.041200 -0.603432 1.508353
    101 -7.344713 -15.620131 6.382824 -3.031669 -0.777526 1.492267
    102 8.947673 -2.401020 -0.374526 -0.001519 -0.000920 -0.026309
    103 -13.210314 -6.138286 0.950758 0.092278 -0.023794 1.567425
    104 -16.202723 -14.204307 4.478217 1.510276 0.063891 -0.035615
    105 0.412525 -15.037656 2.690875 -1.411442 -1.156554 1.389450
    106 -0.425135 -14.174113 4.007698 -0.813815 1.482820 -2.417947
    107 4.421609 -14.848303 3.870502 -0.813815 1.482820 -2.417947
  time 1
    0 0.000000 0.000000 0.000000 0.000000 0.000000 0.000031
    1 0.000000 500.000000 0.000000 0.000000 0.000000 0.000000
    2 0.000000 500.000000 0.000000 0.000000 0.000000 0.000000
    3 0.000000 500.000000 0.000000 0.000000 0.000000 0.000000
    4 0.000000 500.000000 0.000000 0.000000 0.000000 0.000000
    5 0.000000 500.000000 0.000000 0.000000 0.000000 0.000000
    6 0.000000 500.000000 0.000000 0.000000 0.000000 0.000000
    7 0.000000 500.000000 0.000000 0.000000 0.000000 0.000000
    8 0.000000 500.000000 0.000000 0.000000 0.000000 0.000000
    9 0.000000 500.000000 0.000000 0.000000 0.000000 0.000000
    10 0.000000 500.000000 0.000000 0.000000 0.000000 0.000000
    11 0.000000 500.000000 0.000000 0.000000 0.000000 0.000000
    12 0.000000 500.000000 0.000000 0.000000 0.000000 0.000000
    13 0.000000 500.000000 0.000000 0.000000 0.000000 0.000000
    14 0.000000 500.000000 0.000000 0.000000 0.000000 0.000000
    15 0.000000 500.000000 0.000000 0.000000 0.000000 0.000000
    16 0.000000 500.000000 0.000000 0.000000 0.000000 0.000000
    17 0.000000 500.000000 0.000000 0.000000 0.000000 0.000000
    18 0.000000 500.000000 0.000000 0.000000 0.000000 0.000000
    19 0.000000 500.000000 0.000000 0.000000 0.000000 0.000000
    20 0.000000 500.000000 0.000000 0.000000 0.000000 0.000000
    21 0.000000 500.000000 0.000000 0.000000 0.000000 0.000000
    22 0.000000 500.000000 0.000000 0.000000 0.000000 0.000000
    23 0.000000 500.000000 0.000000 0.000000 0.000000 0.000000
    24 0.000000 500.000000 0.000000 0.000000 0.000000 0.000000
    25 0.000000 500.000000 0.000000 0.000000 0.000000 0.000000
    26 0.000000 500.000000 0.000000 0.000000 0.000000 0.000000
    27 0.000000 500.000000 0.000000 0.000000 0.000000 0.000000
    28 0.000000 500.000000 0.000000 0.000000 0.000000 0.000000
    29 0.000000 500.000000 0.000000 0.000000 0.000000 0.000000
    30 0.000000 500.000000 0.000000 0.000000 0.000000 0.000000
    31 0.000000 500.000000 0.000000 0.000000 0.000000 0.000000
    32 0.000000 500.000000 0.000000 0.000000 0.000000 0.000000
    33 0.000000 500.000000 0.000000 0.000000 0.000000 0.000000
    34 0.000000 500.000000 0.000000 0.000000 0.000000 0.000000
    35 0.000000 500.000000 0.000000 0.000000 0.000000 0.000000
    36 0.000000 500.000000 0.000000 0.000000 0.000000 0.000000
    37 0.000000 500.000000 0.000000 0.000000 0.000000 0.000000
    38 0.000000 500.000000 0.000000 0.000000 0.000000 0.000000
    39 0.000000 500.000000 0.000000 0.000000 0.000000 0.000000
    40 0.000000 500.000000 0.000000 0.000000 0.000000 0.000000
    41 0.000000 500.000000 0.000000 0.000000 0.000000 0.000000
    42 0.000000 500.000000 0.000000 0.000000 0.000000 0.000000
    43 0.000000 500.000000 0.000000 0.000000 0.000000 0.000000
    44 0.000000 500.000000 0.000000 0.000000 0.000000 0.000000
    45 0.000000 500.000000 0.000000 0.000000 0.000000 0.000000
    46 0.000000 500.000000 0.000000 0.000000 0.000000 0.000000
    47 0.000000 500.000000 0.000000 0.000000 0.000000 0.000000
    48 -16.062500 -6.542969 -19.593750 0.092278 -0.023794 1.567425
    49 11.937500 -10.742188 0.710938 -0.563373 1.459520 -2.163303
    50 -4.141209 0.112331 0.237204 0.000050 0.000028 0.000794
    51 -3.529297 0.044556 6.765625 0.470351 0.006988 -0.026200
    52 -8.706123 0.886986 0.476287 0.000099 0.000058 0.001707
    53 7.066406 -27.875000 10.000000 1.117471 0.934711 -2.118883
    54 5.851563 -17.640625 10.757813 0.767726 -0.401361 -2.003713
    55 4.160156 -10.398438 0.113831 -0.032542 -0.068364 -1.191228
    56 3.707031 -21.343750 3.117188 -2.858144 0.164027 0.883576
    57 0.604004 -20.718750 -10.015625 -1.804743 -0.086542 -0.018616
    58 -2.169922 0.087463 0.123291 0.003780 0.002037 0.064933
    59 3.009766 -1.094727 -0.137573 -0.015087 -0.012047 -0.288300
    60 2.738281 -1.159180 -0.537109 0.013089 -0.070032 -0.400912
    61 -1.671497 0.076294 0.094650 0.003144 0.001739 0.053237
    62 -3.178663 0.115002 0.181051 0.009742 0.004720 0.160557
    63 -2.698563 0.802040 0.092733 0.007788 -0.025632 0.004464
    64 -1.467802 0.045677 0.083841 0.001723 0.000979 0.029369
    65 -2.685816 0.119484 0.152210 0.007362 0.003743 0.122432
    66 -2.906984 0.736820 0.623272 0.007419 0.070271 0.001414
    67 -1.978821 0.097282 0.111826 0.004471 0.002407 0.075245
    68 -3.784428 0.085674 0.217299 0.012464 0.005713 0.203486
    69 -3.208876 0.679897 1.061349 0.005229 0.223163 -0.003848
    70 -2.278631 0.117950 0.128557 0.006741 0.003470 0.112378
    71 -3.025912 0.116207 0.172117 0.009579 0.004656 0.157969
    72 4.093750 -10.351563 7.875000 0.529524 -0.057850 -1.222319
    73 -3.350006 -27.453901 3.507052 0.434262 -1.472152 2.744443
    74 5.648438 -5.523438 5.910156 0.574712 0.742359 -0.644037
    75 0.732422 -23.328125 0.755371 0.007434 -0.119915 -2.202189
    76 2.121094 -20.312500 -3.244141 -2.288005 -0.310648 0.659447
    77 -1.374023 -9.257813 18.078125 1.555016 0.107899 0.601376
    78 -8.750000 -1.085938 0.546387 0.035570 0.009295 0.552755
    79 -12.992188 -4.539063 0.911621 0.063218 0.002677 0.977051
    80 -2.042969 0.606445 1.114258 -0.011660 -0.096800 -0.012659
    81 -11.359375 -2.876953 0.759277 0.052225 0.006828 0.802343
    82 -11.218750 -2.751953 0.747070 0.051290 0.007109 0.787727
    83 -9.328125 0.401611 3.923828 0.206081 -0.433193 0.484294
    84 -14.078125 -5.593750 1.010742 0.069006 -0.000407 1.074611
    85 -14.460938 -6.261719 1.055664 0.072370 -0.002531 1.132734
    86 -12.937500 -2.878906 -1.896484 -0.218548 -0.448302 1.031973
    87 -13.906250 -5.523438 0.998047 0.068621 -0.000158 1.068183
    88 -14.648438 -6.601563 1.078125 0.073908 -0.003681 1.161524
    89 -16.234375 -9.843750 -4.324219 -0.322597 -0.301590 1.624481
    90 -9.218750 -1.593750 0.591309 0.041105 0.008940 0.634977
    91 -9.882813 -1.911133 0.640625 0.044148 0.008548 0.680621
    92 -0.258545 -22.828125 -2.230469 -0.221374 -0.119080 -2.188929
    93 -1.125000 -12.570313 -0.282715 -1.567350 0.055782 0.060621
    94 -8.195313 -2.298828 -0.250732 0.001216 0.000677 0.021755
    95 14.935091 -0.802353 -0.822908 0.001790 0.001016 0.030483
    96 2.414063 -11.320313 1.295898 -0.549153 1.458610 -2.175688
    97 3.244568 -11.142443 0.450475 -0.546671 1.458644 -2.177189
    98 -7.299834 -11.213004 4.990924 -3.001123 0.963725 1.632589
    99 -5.319552 -11.666334 5.222860 -3.022048 0.789986 1.606449
    100 -5.342485 -15.355699 6.643841 -3.041200 -0.603432 1.508353
    101 -7.344713 -15.620131 6.382824 -3.031669 -0.777526 1.492267
    102 8.947673 -2.401020 -0.374526 -0.001519 -0.000920 -0.026309
    103 -13.210314 -6.138286 0.950758 0.092278 -0.023794 1.567425
    104 -16.202723 -14.204307 4.478217 1.510276 0.063891 -0.035615
    105 0.412525 -15.037656 2.690875 -1.411442 -1.156554 1.389450
    106 -0.425135 -14.174113 4.007698 -0.813815 1.482820 -2.417947
    107 4.421609 -14.848303 3.870502 -0.813815 1.482820 -2.417947
  time 2
    0 0.000000 0.000000 0.000000 0.000000 0.000000 0.000031
    1 0.000000 500.000000 0.000000 0.000000 0.000000 0.000000
    2 0.000000 500.000000 0.000000 0.000000 0.000000 0.000000
    3 0.000000 500.000000 0.000000 0.000000 0.000000 0.000000
    4 0.000000 500.000000 0.000000 0.000000 0.000000 0.000000
    5 0.000000 500.000000 0.000000 0.000000 0.000000 0.000000
    6 0.000000 500.000000 0.000000 0.000000 0.000000 0.000000
    7 0.000000 500.000000 0.000000 0.000000 0.000000 0.000000
    8 0.000000 500.000000 0.000000 0.000000 0.000000 0.000000
    9 0.000000 500.000000 0.000000 0.000000 0.000000 0.000000
    10 0.000000 500.000000 0.000000 0.000000 0.000000 0.000000
    11 0.000000 500.000000 0.000000 0.000000 0.000000 0.000000
    12 0.000000 500.000000 0.000000 0.000000 0.000000 0.000000
    13 0.000000 500.000000 0.000000 0.000000 0.000000 0.000000
    14 0.000000 500.000000 0.000000 0.000000 0.000000 0.000000
    15 0.000000 500.000000 0.000000 0.000000 0.000000 0.000000
    16 0.000000 500.000000 0.000000 0.000000 0.000000 0.000000
    17 0.000000 500.000000 0.000000 0.000000 0.000000 0.000000
    18 0.000000 500.000000 0.000000 0.000000 0.000000 0.000000
    19 0.000000 500.000000 0.000000 0.000000 0.000000 0.000000
    20 0.000000 500.000000 0.000000 0.000000 0.000000 0.000000
    21 0.000000 500.000000 0.000000 0.000000 0.000000 0.000000
    22 0.000000 500.000000 0.000000 0.000000 0.000000 0.000000
    23 0.000000 500.000000 0.000000 0.000000 0.000000 0.000000
    24 0.000000 500.000000 0.000000 0.000000 0.000000 0.000000
    25 0.000000 500.000000 0.000000 0.000000 0.000000 0.000000
    26 0.000000 500.000000 0.000000 0.000000 0.000000 0.000000
    27 0.000000 500.000000 0.000000 0.000000 0.000000 0.000000
    28 0.000000 500.000000 0.000000 0.000000 0.000000 0.000000
    29 0.000000 500.000000 0.000000 0.000000 0.000000 0.000000
    30 0.000000 500.000000 0.000000 0.000000 0.000000 0.000000
    31 0.000000 500.000000 0.000000 0.000000 0.000000 0.000000
    32 0.000000 500.000000 0.000000 0.000000 0.000000 0.000000
    33 0.000000 500.000000 0.000000 0.000000 0.000000 0.000000
    34 0.000000 500.000000 0.000000 0.000000 0.000000 0.000000
    35 0.000000 500.000000 0.000000 0.000000 0.000000 0.000000
    36 0.000000 500.000000 0.000000 0.000000 0.000000 0.000000
    37 0.000000 500.000000 0.000000 0.000000 0.000000 0.000000
    38 0.000000 500.000000 0.000000 0.000000 0.000000 0.000000
    39 0.000000 500.000000 0.000000 0.000000 0.000000 0.000000
    40 0.000000 500.000000 0.000000 0.000000 0.000000 0.000000
    41 0.000000 500.000000 0.000000 0.000000 0.000000 0.000000
    42 0.000000 500.000000 0.000000 0.000000 0.000000 0.000000
    43 0.000000 500.000000 0.000000 0.000000 0.000000 0.000000
    44 0.000000 500.000000 0.000000 0.000000 0.000000 0.000000
    45 0.000000 500.000000 0.000000 0.000000 0.000000 0.000000
    46 0.000000 500.000000 0.000000 0.000000 0.000000 0.000000
    47 0.000000 500.000000 0.000000 0.000000 0.000000 0.000000
    48 -16.062500 -6.375000 -19.593750 0.092278 -0.023794 1.567425
    49 11.937500 -10.742188 0.710938 -0.563373 1.459520 -2.163303
    50 -4.141209 0.112331 0.237204 0.000050 0.000028 0.000794
    51 -3.529297 0.044556 6.765625 0.470351 0.006988 -0.026200
    52 -8.706123 0.886986 0.476287 0.000099 0.000058 0.001707
    53 7.066406 -27.875000 10.000000 1.117471 0.934711 -2.118883
    54 5.949219 -17.625000 10.609375 0.756907 -0.423230 -2.006730
    55 4.500000 -12.359375 0.160767 -0.030399 -0.077810 -1.334581
    56 4.511719 -19.921875 3.031250 -2.854955 0.192281 1.001296
    57 0.604004 -20.718750 -10.015625 -1.804743 -0.086542 -0.018616
    58 -2.169922 0.087463 0.123291 0.003780 0.002037 0.064933
    59 3.009766 -1.094727 -0.137573 -0.015087 -0.012047 -0.288300
    60 2.738281 -1.159180 -0.537109 0.013089 -0.070032 -0.400912
    61 -1.671497 0.076294 0.094650 0.003144 0.001739 0.053237
    62 -3.178663 0.115002 0.181051 0.009742 0.004720 0.160557
    63 -2.698563 0.802040 0.092733 0.007788 -0.025632 0.004464
    64 -1.467802 0.045677 0.083841 0.001723 0.000979 0.029369
    65 -2.685816 0.119484 0.152210 0.007362 0.003743 0.122432
    66 -2.906984 0.736820 0.623272 0.007419 0.070271 0.001414
    67 -1.978821 0.097282 0.111826 0.004471 0.002407 0.075245
    68 -3.784428 0.085674 0.217299 0.012464 0.005713 0.203486
    69 -3.208876 0.679897 1.061349 0.005229 0.223163 -0.003848
    70 -2.278631 0.117950 0.128557 0.006741 0.003470 0.112378
    71 -3.025912 0.116207 0.172117 0.009579 0.004656 0.157969
    72 4.476563 -12.210938 7.695313 0.514959 -0.068661 -1.364693
    73 -3.350006 -27.453901 3.507052 0.434262 -1.472152 2.744443
    74 5.648438 -5.523438 5.910156 0.574712 0.742359 -0.644037
    75 0.732422 -23.328125 0.755371 0.007434 -0.119915 -2.202189
    76 2.121094 -20.312500 -3.244141 -2.288005 -0.310648 0.659447
    77 -1.374023 -9.257813 18.078125 1.555016 0.107899 0.601376
    78 -8.750000 -1.085938 0.546387 0.035570 0.009295 0.552755
    79 -12.992188 -4.539063 0.911621 0.063218 0.002677 0.977051
    80 -2.042969 0.606445 1.114258 -0.011660 -0.096800 -0.012659
    81 -11.359375 -2.876953 0.759277 0.052225 0.006828 0.802343
    82 -11.218750 -2.751953 0.747070 0.051290 0.007109 0.787727
    83 -9.328125 0.401611 3.923828 0.206081 -0.433193 0.484294
    84 -14.078125 -5.593750 1.010742 0.069006 -0.000407 1.074611
    85 -14.460938 -6.261719 1.055664 0.072370 -0.002531 1.132734
    86 -12.937500 -2.878906 -1.896484 -0.218548 -0.448302 1.031973
    87 -13.906250 -5.523438 0.998047 0.068621 -0.000158 1.068183
    88 -14.648438 -6.601563 1.078125 0.073908 -0.003681 1.161524
    89 -16.234375 -9.843750 -4.324219 -0.322597 -0.301590 1.624481
    90 -9.218750 -1.593750 0.591309 0.041105 0.008940 0.634977
    91 -9.882813 -1.911133 0.640625 0.044148 0.008548 0.680621
    92 -0.258545 -22.828125 -2.230469 -0.221374 -0.119080 -2.188929
    93 -1.125000 -12.570313 -0.282715 -1.567350 0.055782 0.060621
    94 -7.667969 -2.462891 -0.275879 0.002535 0.001413 0.043514
    95 14.935091 -0.802353 -0.822908 0.001790 0.001016 0.030483
    96 2.615234 -11.320313 1.284180 -0.549153 1.458610 -2.175688
    97 3.244568 -11.142443 0.450475 -0.546671 1.458644 -2.177189
    98 -7.299834 -11.213004 4.990924 -3.001123 0.963725 1.632589
    99 -5.319552 -11.666334 5.222860 -3.022048 0.789986 1.606449
    100 -5.342485 -15.355699 6.643841 -3.041200 -0.603432 1.508353
    101 -7.344713 -15.620131 6.382824 -3.031669 -0.777526 1.492267
    102 8.947673 -2.401020 -0.374526 -0.001519 -0.000920 -0.026309
    103 -13.210314 -6.138286 0.950758 0.092278 -0.023794 1.567425
    104 -16.202723 -14.204307 4.478217 1.510276 0.063891 -0.035615
    105 0.412525 -15.037656 2.690875 -1.411442 -1.156554 1.389450
    106 -0.425135 -14.174113 4.007698 -0.813815 1.482820 -2.417947
    107 4.421609 -14.848303 3.870502 -0.813815 1.482820 -2.417947
  time 3
    0 0.000000 0.000000 0.000000 0.000000 0.000000 0.000031
    1 0.000000 500.000000 0.000000 0.000000 0.000000 0.000000
    2 0.000000 500.000000 0.000000 0.000000 0.000000 0.000000
    3 0.000000 500.000000 0.000000 0.000000 0.000000 0.000000
    4 0.000000 500.000000 0.000000 0.000000 0.000000 0.000000
    5 0.000000 500.000000 0.000000 0.000000 0.000000 0.000000
    6 0.000000 500.000000 0.000000 0.000000 0.000000 0.000000
    7 0.000000 500.000000 0.000000 0.000000 0.000000 0.000000
    8 0.000000 500.000000 0.000000 0.000000 0.000000 0.000000
    9 0.000000 500.000000 0.000000 0.000000 0.000000 0.000000
    10 0.000000 500.000000 0.000000 0.000000 0.000000 0.000000
    11 0.000000 500.000000 0.000000 0.000000 0.000000 0.000000
    12 0.000000 500.000000 0.000000 0.000000 0.000000 0.000000
    13 0.000000 500.000000 0.000000 0.000000 0.000000 0.000000
    14 0.000000 500.000000 0.000000 0.000000 0.000000 0.000000
    15 0.000000 500.000000 0.000000 0.000000 0.000000 0.000000
    16 0.000000 500.000000 0.000000 0.000000 0.000000 0.000000
    17 0.000000 500.000000 0.000000 0.000000 0.000000 0.000000
    18 0.000000 500.000000 0.000000 0.000000 0.000000 0.000000
    19 0.000000 500.000000 0.000000 0.000000 0.000000 0.000000
    20 0.000000 500.000000 0.000000 0.000000 0.000000 0.000000
    21 0.000000 500.000000 0.000000 0.000000 0.000000 0.000000
    22 0.000000 500.000000 0.000000 0.000000 0.000000 0.000000
    23 0.000000 500.000000 0.000000 0.000000 0.000000 0.000000
    24 0.000000 500.000000 0.000000 0.000000 0.000000 0.000000
    25 0.000000 500.000000 0.000000 0.000000 0.000000 0.000000
    26 0.000000 500.000000 0.000000 0.000000 0.000000 0.000000
    27 0.000000 500.000000 0.000000 0.000000 0.000000 0.000000
    28 0.000000 500.000000 0.000000 0.000000 0.000000 0.000000
    29 0.000000 500.000000 0.000000 0.000000 0.000000 0.000000
    30 0.000000 500.000000 0.000000 0.000000 0.000000 0.000000
    31 0.000000 500.000000 0.000000 0.000000 0.000000 0.000000
    32 0.000000 500.000000 0.000000 0.000000 0.000000 0.000000
    33 0.000000 500.000000 0.000000 0.000000 0.000000 0.000000
    34 0.000000 500.000000 0.000000 0.000000 0.000000 0.000000
    35 0.000000 500.000000 0.000000 0.000000 0.000000 0.000000
    36 0.000000 500.000000 0.000000 0.000000 0.000000 0.000000
    37 0.000000 500.000000 0.000000 0.000000 0.000000 0.000000
    38 0.000000 500.000000 0.000000 0.000000 0.000000 0.000000
    39 0.000000 500.000000 0.000000 0.000000 0.000000 0.000000
    40 0.000000 500.000000 0.000000 0.000000 0.000000 0.000000
    41 0.000000 500.000000 0.000000 0.000000 0.000000 0.000000
    42 0.000000 500.000000 0.000000 0.000000 0.000000 0.000000
    43 0.000000 500.000000 0.000000 0.000000 0.000000 0.000000
    44 0.000000 500.000000 0.000000 0.000000 0.000000 0.000000
    45 0.000000 500.000000 0.000000 0.000000 0.000000 0.000000
    46 0.000000 500.000000 0.000000 0.000000 0.000000 0.000000
    47 0.000000 500.000000 0.000000 0.000000 0.000000 0.000000
    48 -16.062500 -6.078125 -19.609375 0.092278 -0.023794 1.567425
    49 11.937500 -10.742188 0.710938 -0.563373 1.459520 -2.163303
    50 -4.141209 0.112331 0.237204 0.000050 0.000028 0.000794
    51 -3.529297 0.044556 6.765625 0.470351 0.006988 -0.026200
    52 -8.706123 0.886986 0.476287 0.000099 0.000058 0.001707
    53 7.066406 -27.875000 10.000000 1.117471 0.934711 -2.118883
    54 5.839844 -17.718750 10.734375 0.765664 -0.404042 -2.010426
    55 4.414063 -11.664063 0.142212 -0.031310 -0.074516 -1.284167
    56 4.316406 -20.312500 3.095703 -2.858005 0.176488 0.969327
    57 0.604004 -20.718750 -10.015625 -1.804743 -0.086542 -0.018616
    58 -2.169922 0.087463 0.123291 0.003780 0.002037 0.064933
    59 3.009766 -1.094727 -0.137573 -0.015087 -0.012047 -0.288300
    60 2.738281 -1.159180 -0.537109 0.013089 -0.070032 -0.400912
    61 -1.671497 0.076294 0.094650 0.003144 0.001739 0.053237
    62 -3.178663 0.115002 0.181051 0.009742 0.004720 0.160557
    63 -2.698563 0.802040 0.092733 0.007788 -0.025632 0.004464
    64 -1.467802 0.045677 0.083841 0.001723 0.000979 0.029369
    65 -2.685816 0.119484 0.152210 0.007362 0.003743 0.122432
    66 -2.906984 0.736820 0.623272 0.007419 0.070271 0.001414
    67 -1.978821 0.097282 0.111826 0.004471 0.002407 0.075245
    68 -3.784428 0.085674 0.217299 0.012464 0.005713 0.203486
    69 -3.208876 0.679897 1.061349 0.005229 0.223163 -0.003848
    70 -2.278631 0.117950 0.128557 0.006741 0.003470 0.112378
    71 -3.025912 0.116207 0.172117 0.009579 0.004656 0.157969
    72 4.371094 -11.546875 7.765625 0.520509 -0.064947 -1.314589
    73 -3.350006 -27.453901 3.507052 0.434262 -1.472152 2.744443
    74 5.648438 -5.523438 5.910156 0.574712 0.742359 -0.644037
    75 0.732422 -23.328125 0.755371 0.007434 -0.119915 -2.202189
    76 2.121094 -20.312500 -3.244141 -2.288005 -0.310648 0.659447
    77 -1.374023 -9.257813 18.078125 1.555016 0.107899 0.601376
    78 -8.750000 -1.085938 0.546387 0.035570 0.009295 0.552755
    79 -12.992188 -4.539063 0.911621 0.063218 0.002677 0.977051
    80 -2.042969 0.606445 1.114258 -0.011660 -0.096800 -0.012659
    81 -11.359375 -2.876953 0.759277 0.052225 0.006828 0.802343
    82 -11.218750 -2.751953 0.747070 0.051290 0.007109 0.787727
    83 -9.328125 0.401611 3.923828 0.206081 -0.433193 0.484294
    84 -14.078125 -5.593750 1.010742 0.069006 -0.000407 1.074611
    85 -14.460938 -6.261719 1.055664 0.072370 -0.002531 1.132734
    86 -12.937500 -2.878906 -1.896484 -0.218548 -0.448302 1.031973
    87 -13.906250 -5.523438 0.998047 0.068621 -0.000158 1.068183
    88 -14.648438 -6.601563 1.078125 0.073908 -0.003681 1.161524
    89 -16.234375 -9.843750 -4.324219 -0.322597 -0.301590 1.624481
    90 -9.218750 -1.593750 0.591309 0.041105 0.008940 0.634977
    91 -9.882813 -1.911133 0.640625 0.044148 0.008548 0.680621
    92 -0.258545 -22.828125 -2.230469 -0.221374 -0.119080 -2.188929
    93 -1.125000 -12.570313 -0.282715 -1.567350 0.055782 0.060621
    94 -7.847656 -2.558594 -0.262451 0.002180 0.001168 0.037210
    95 14.935091 -0.802353 -0.822908 0.001790 0.001016 0.030483
    96 3.136719 -11.335938 1.253906 -0.549153 1.458610 -2.175688
    97 3.244568 -11.142443 0.450475 -0.546671 1.458644 -2.177189
    98 -7.299834 -11.213004 4.990924 -3.001123 0.963725 1.632589
    99 -5.319552 -11.666334 5.222860 -3.022048 0.789986 1.606449
    100 -5.342485 -15.355699 6.643841 -3.041200 -0.603432 1.508353
    101 -7.344713 -15.620131 6.382824 -3.031669 -0.777526 1.492267
    102 8.947673 -2.401020 -0.374526 -0.001519 -0.000920 -0.026309
    103 -13.210314 -6.138286 0.950758 0.092278 -0.023794 1.567425
    104 -16.202723 -14.204307 4.478217 1.510276 0.063891 -0.035615
    105 0.412525 -15.037656 2.690875 -1.411442 -1.156554 1.389450
    106 -0.425135 -14.174113 4.007698 -0.813815 1.482820 -2.417947
    107 4.421609 -14.848303 3.870502 -0.813815 1.482820 -2.417947
  time 4
    0 0.000000 0.000000 0.000000 0.000000 0.000000 0.000031
    1 0.000000 500.000000 0.000000 0.000000 0.000000 0.000000
    2 0.000000 500.000000 0.000000 0.000000 0.000000 0.000000
    3 0.000000 500.000000 0.000000 0.000000 0.000000 0.000000
    4 0.000000 500.000000 0.000000 0.000000 0.000000 0.000000
    5 0.000000 500.000000 0.000000 0.000000 0.000000 0.000000
    6 0.000000 500.000000 0.000000 0.000000 0.000000 0.000000
    7 0.000000 500.000000 0.000000 0.000000 0.000000 0.000000
    8 0.000000 500.000000 0.000000 0.000000 0.000000 0.000000
    9 0.000000 500.000000 0.000000 0.000000 0.000000 0.000000
    10 0.000000 500.000000 0.000000 0.000000 0.000000 0.000000
    11 0.000000 500.000000 0.000000 0.000000 0.000000 0.000000
    12 0.000000 500.000000 0.000000 0.000000 0.000000 0.000000
    13 0.000000 500.000000 0.000000 0.000000 0.000000 0.000000
    14 0.000000 500.000000 0.000000 0.000000 0.000000 0.000000
    15 0.000000 500.000000 0.000000 0.000000 0.000000 0.000000
    16 0.000000 500.000000 0.000000 0.000000 0.000000 0.000000
    17 0.000000 500.000000 0.000000 0.000000 0.000000 0.000000
    18 0.000000 500.000000 0.000000 0.000000 0.000000 0.000000
    19 0.000000 500.000000 0.000000 0.000000 0.000000 0.000000
    20 0.000000 500.000000 0.000000 0.000000 0.000000 0.000000
    21 0.000000 500.000000 0.000000 0.000000 0.000000 0.000000
    22 0.000000 500.000000 0.000000 0.000000 0.000000 0.000000
    23 0.000000 500.000000 0.000000 0.000000 0.000000 0.000000
    24 0.000000 500.000000 0.000000 0.000000 0.000000 0.000000
    25 0.000000 500.000000 0.000000 0.000000 0.000000 0.000000
    26 0.000000 500.000000 0.000000 0.000000 0.000000 0.000000
    27 0.000000 500.000000 0.000000 0.000000 0.000000 0.000000
    28 0.000000 500.000000 0.000000 0.000000 0.000000 0.000000
    29 0.000000 500.000000 0.000000 0.000000 0.000000 0.000000
    30 0.000000 500.000000 0.000000 0.000000 0.000000 0.000000
    31 0.000000 500.000000 0.000000 0.000000 0.000000 0.000000
    32 0.000000 500.000000 0.000000 0.000000 0.000000 0.000000
    33 0.000000 500.000000 0.000000 0.000000 0.000000 0.000000
    34 0.000000 500.000000 0.000000 0.000000 0.000000 0.000000
    35 0.000000 500.000000 0.000000 0.000000 0.000000 0.000000
    36 0.000000 500.000000 0.000000 0.000000 0.000000 0.000000
    37 0.000000 500.000000 0.000000 0.000000 0.000000 0.000000
    38 0.000000 500.000000 0.000000 0.000000 0.000000 0.000000
    39 0.000000 500.000000 0.000000 0.000000 0.000000 0.000000
    40 0.000000 500.000000 0.000000 0.000000 0.000000 0.000000
    41 0.000000 500.000000 0.000000 0.000000 0.000000 0.000000
    42 0.000000 500.000000 0.000000 0.000000 0.000000 0.000000
    43 0.000000 500.000000 0.000000 0.000000 0.000000 0.000000
    44 0.000000 500.000000 0.000000 0.000000 0.000000 0.000000
    45 0.000000 500.000000 0.000000 0.000000 0.000000 0.000000
    46 0.000000 500.000000 0.000000 0.000000 0.000000 0.000000
    47 0.000000 500.000000 0.000000 0.000000 0.000000 0.000000
    48 -16.062500 -5.742188 -19.625000 0.092278 -0.023794 1.567425
    49 11.937500 -10.742188 0.710938 -0.563373 1.459520 -2.163303
    50 -4.141209 0.112331 0.237204 0.000050 0.000028 0.000794
    51 -3.529297 0.044556 6.765625 0.470351 0.006988 -0.026200
    52 -8.706123 0.886986 0.476287 0.000099 0.000058 0.001707
    53 7.066406 -27.875000 10.000000 1.117471 0.934711 -2.118883
    54 5.675781 -17.859375 10.914063 0.778962 -0.374334 -2.014029
    55 4.140625 -10.320313 0.112305 -0.032623 -0.067981 -1.185383
    56 3.845703 -21.140625 3.183594 -2.861324 0.149547 0.900199
    57 0.604004 -20.718750 -10.015625 -1.804743 -0.086542 -0.018616
    58 -2.169922 0.087463 0.123291 0.003780 0.002037 0.064933
    59 3.009766 -1.094727 -0.137573 -0.015087 -0.012047 -0.288300
    60 2.738281 -1.159180 -0.537109 0.013089 -0.070032 -0.400912
    61 -1.671497 0.076294 0.094650 0.003144 0.001739 0.053237
    62 -3.178663 0.115002 0.181051 0.009742 0.004720 0.160557
    63 -2.698563 0.802040 0.092733 0.007788 -0.025632 0.004464
    64 -1.467802 0.045677 0.083841 0.001723 0.000979 0.029369
    65 -2.685816 0.119484 0.152210 0.007362 0.003743 0.122432
    66 -2.906984 0.736820 0.623272 0.007419 0.070271 0.001414
    67 -1.978821 0.097282 0.111826 0.004471 0.002407 0.075245
    68 -3.784428 0.085674 0.217299 0.012464 0.005713 0.203486
    69 -3.208876 0.679897 1.061349 0.005229 0.223163 -0.003848
    70 -2.278631 0.117950 0.128557 0.006741 0.003470 0.112378
    71 -3.025912 0.116207 0.172117 0.009579 0.004656 0.157969
    72 4.066406 -10.273438 7.902344 0.531492 -0.058291 -1.216470
    73 -3.350006 -27.453901 3.507052 0.434262 -1.472152 2.744443
    74 5.648438 -5.523438 5.910156 0.574712 0.742359 -0.644037
    75 0.732422 -23.328125 0.755371 0.007434 -0.119915 -2.202189
    76 2.121094 -20.312500 -3.244141 -2.288005 -0.310648 0.659447
    77 -1.374023 -9.257813 18.078125 1.555016 0.107899 0.601376
    78 -8.750000 -1.085938 0.546387 0.035570 0.009295 0.552755
    79 -12.992188 -4.539063 0.911621 0.063218 0.002677 0.977051
    80 -2.042969 0.606445 1.114258 -0.011660 -0.096800 -0.012659
    81 -11.359375 -2.876953 0.759277 0.052225 0.006828 0.802343
    82 -11.218750 -2.751953 0.747070 0.051290 0.007109 0.787727
    83 -9.328125 0.401611 3.923828 0.206081 -0.433193 0.484294
    84 -14.078125 -5.593750 1.010742 0.069006 -0.000407 1.074611
    85 -14.460938 -6.261719 1.055664 0.072370 -0.002531 1.132734
    86 -12.937500 -2.878906 -1.896484 -0.218548 -0.448302 1.031973
    87 -13.906250 -5.523438 0.998047 0.068621 -0.000158 1.068183
    88 -14.648438 -6.601563 1.078125 0.073908 -0.003681 1.161524
    89 -16.234375 -9.843750 -4.324219 -0.322597 -0.301590 1.624481
    90 -9.218750 -1.593750 0.591309 0.041105 0.008940 0.634977
    91 -9.882813 -1.911133 0.640625 0.044148 0.008548 0.680621
    92 -0.258545 -22.828125 -2.230469 -0.221374 -0.119080 -2.188929
    93 -1.125000 -12.570313 -0.282715 -1.567350 0.055782 0.060621
    94 -8.203125 -2.636719 -0.239014 0.001390 0.000760 0.024000
    95 14.935091 -0.802353 -0.822908 0.001790 0.001016 0.030483
    96 3.740234 -11.351563 1.219727 -0.549153 1.458610 -2.175688
    97 3.244568 -11.142443 0.450475 -0.546671 1.458644 -2.177189
    98 -7.299834 -11.213004 4.990924 -3.001123 0.963725 1.632589
    99 -5.319552 -11.666334 5.222860 -3.022048 0.789986 1.606449
    100 -5.342485 -15.355699 6.643841 -3.041200 -0.603432 1.508353
    101 -7.344713 -15.620131 6.382824 -3.031669 -0.777526 1.492267
    102 8.947673 -2.401020 -0.374526 -0.001519 -0.000920 -0.026309
    103 -13.210314 -6.138286 0.950758 0.092278 -0.023794 1.567425
    104 -16.202723 -14.204307 4.478217 1.510276 0.063891 -0.035615
    105 0.412525 -15.037656 2.690875 -1.411442 -1.156554 1.389450
    106 -0.425135 -14.174113 4.007698 -0.813815 1.482820 -2.417947
    107 4.421609 -14.848303 3.870502 -0.813815 1.482820 -2.417947
  time 5
    0 0.000000 0.000000 0.000000 0.000000 0.000000 0.000031
    1 0.000000 500.000000 0.000000 0.000000 0.000000 0.000000
    2 0.000000 500.000000 0.000000 0.000000 0.000000 0.000000
    3 0.000000 500.000000 0.000000 0.000000 0.000000 0.000000
    4 0.000000 500.000000 0.000000 0.000000 0.000000 0.000000
    5 0.000000 500.000000 0.000000 0.000000 0.000000 0.000000
    6 0.000000 500.000000 0.000000 0.000000 0.000000 0.000000
    7 0.000000 500.000000 0.000000 0.000000 0.000000 0.000000
    8 0.000000 500.000000 0.000000 0.000000 0.000000 0.000000
    9 0.000000 500.000000 0.000000 0.000000 0.000000 0.000000
    10 0.000000 500.000000 0.000000 0.000000 0.000000 0.000000
    11 0.000000 500.000000 0.000000 0.000000 0.000000 0.000000
    12 0.000000 500.000000 0.000000 0.000000 0.000000 0.000000
    13 0.000000 500.000000 0.000000 0.000000 0.000000 0.000000
    14 0.000000 500.000000 0.000000 0.000000 0.000000 0.000000
    15 0.000000 500.000000 0.000000 0.000000 0.000000 0.000000
    16 0.000000 500.000000 0.000000 0.000000 0.000000 0.000000
    17 0.000000 500.000000 0.000000 0.000000 0.000000 0.000000
    18 0.000000 500.000000 0.000000 0.000000 0.000000 0.000000
    19 0.000000 500.000000 0.000000 0.000000 0.000000 0.000000
    20 0.000000 500.000000 0.000000 0.000000 0.000000 0.000000
    21 0.000000 500.000000 0.000000 0.000000 0.000000 0.000000
    22 0.000000 500.000000 0.000000 0.000000 0.000000 0.000000
    23 0.000000 500.000000 0.000000 0.000000 0.000000 0.000000
    24 0.000000 500.000000 0.000000 0.000000 0.000000 0.000000
    25 0.000000 500.000000 0.000000 0.000000 0.000000 0.000000
    26 0.000000 500.000000 0.000000 0.000000 0.000000 0.000000
    27 0.000000 500.000000 0.000000 0.000000 0.000000 0.000000
    28 0.000000 500.000000 0.000000 0.000000 0.000000 0.000000
    29 0.000000 500.000000 0.000000 0.000000 0.000000 0.000000
    30 0.000000 500.000000 0.000000 0.000000 0.000000 0.000000
    31 0.000000 500.000000 0.000000 0.000000 0.000000 0.000000
    32 0.000000 500.000000 0.000000 0.000000 0.000000 0.000000
    33 0.000000 500.000000 0.000000 0.000000 0.000000 0.000000
    34 0.000000 500.000000 0.000000 0.000000 0.000000 0.000000
    35 0.000000 500.000000 0.000000 0.000000 0.000000 0.000000
    36 0.000000 500.000000 0.000000 0.000000 0.000000 0.000000
    37 0.000000 500.000000 0.000000 0.000000 0.000000 0.000000
    38 0.000000 500.000000 0.000000 0.000000 0.000000 0.000000
    39 0.000000 500.000000 0.000000 0.000000 0.000000 0.000000
    40 0.000000 500.000000 0.000000 0.000000 0.000000 0.000000
    41 0.000000 500.000000 0.000000 0.000000 0.000000 0.000000
    42 0.000000 500.000000 0.000000 0.000000 0.000000 0.000000
    43 0.000000 500.000000 0.000000 0.000000 0.000000 0.000000
    44 0.000000 500.000000 0.000000 0.000000 0.000000 0.000000
    45 0.000000 500.000000 0.000000 0.000000 0.000000 0.000000
    46 0.000000 500.000000 0.000000 0.000000 0.000000 0.000000
    47 0.000000 500.000000 0.000000 0.000000 0.000000 0.000000
    48 -16.062500 -5.820313 -19.625000 0.092278 -0.023794 1.567425
    49 11.937500 -10.742188 0.710938 -0.563373 1.459520 -2.163303
    50 -4.141209 0.112331 0.237204 0.000050 0.000028 0.000794
    51 -3.529297 0.044556 6.765625 0.470351 0.006988 -0.026200
    52 -8.706123 0.886986 0.476287 0.000099 0.000058 0.001707
    53 7.066406 -27.875000 10.000000 1.117471 0.934711 -2.118883
    54 5.625000 -17.875000 10.984375 0.784108 -0.363633 -2.013040
    55 3.929688 -9.585938 0.099304 -0.033055 -0.064308 -1.130225
    56 3.517578 -21.640625 3.199219 -2.860968 0.136439 0.857403
    57 0.604004 -20.718750 -10.015625 -1.804743 -0.086542 -0.018616
    58 -2.169922 0.087463 0.123291 0.003780 0.002037 0.064933
    59 3.009766 -1.094727 -0.137573 -0.015087 -0.012047 -0.288300
    60 2.738281 -1.159180 -0.537109 0.013089 -0.070032 -0.400912
    61 -1.671497 0.076294 0.094650 0.003144 0.001739 0.053237
    62 -3.178663 0.115002 0.181051 0.009742 0.004720 0.160557
    63 -2.698563 0.802040 0.092733 0.007788 -0.025632 0.004464
    64 -1.467802 0.045677 0.083841 0.001723 0.000979 0.029369
    65 -2.685816 0.119484 0.152210 0.007362 0.003743 0.122432
    66 -2.906984 0.736820 0.623272 0.007419 0.070271 0.001414
    67 -1.978821 0.097282 0.111826 0.004471 0.002407 0.075245
    68 -3.784428 0.085674 0.217299 0.012464 0.005713 0.203486
    69 -3.208876 0.679897 1.061349 0.005229 0.223163 -0.003848
    70 -2.278631 0.117950 0.128557 0.006741 0.003470 0.112378
    71 -3.025912 0.116207 0.172117 0.009579 0.004656 0.157969
    72 3.843750 -9.570313 7.988281 0.538064 -0.054891 -1.161605
    73 -3.350006 -27.453901 3.507052 0.434262 -1.472152 2.744443
    74 5.648438 -5.523438 5.910156 0.574712 0.742359 -0.644037
    75 0.732422 -23.328125 0.755371 0.007434 -0.119915 -2.202189
    76 2.121094 -20.312500 -3.244141 -2.288005 -0.310648 0.659447
    77 -1.374023 -9.257813 18.078125 1.555016 0.107899 0.601376
    78 -8.750000 -1.085938 0.546387 0.035570 0.009295 0.552755
    79 -12.992188 -4.539063 0.911621 0.063218 0.002677 0.977051
    80 -2.042969 0.606445 1.114258 -0.011660 -0.096800 -0.012659
    81 -11.359375 -2.876953 0.759277 0.052225 0.006828 0.802343
    82 -11.218750 -2.751953 0.747070 0.051290 0.007109 0.787727
    83 -9.328125 0.401611 3.923828 0.206081 -0.433193 0.484294
    84 -14.078125 -5.593750 1.010742 0.069006 -0.000407 1.074611
    85 -14.460938 -6.261719 1.055664 0.072370 -0.002531 1.132734
    86 -12.937500 -2.878906 -1.896484 -0.218548 -0.448302 1.031973
    87 -13.906250 -5.523438 0.998047 0.068621 -0.000158 1.068183
    88 -14.648438 -6.601563 1.078125 0.073908 -0.003681 1.161524
    89 -16.234375 -9.843750 -4.324219 -0.322597 -0.301590 1.624481
    90 -9.218750 -1.593750 0.591309 0.041105 0.008940 0.634977
    91 -9.882813 -1.911133 0.640625 0.044148 0.008548 0.680621
    92 -0.258545 -22.828125 -2.230469 -0.221374 -0.119080 -2.188929
    93 -1.125000 -12.570313 -0.282715 -1.567350 0.055782 0.060621
    94 -8.390625 -2.611328 -0.228760 0.000780 0.000426 0.014589
    95 14.935091 -0.802353 -0.822908 0.001790 0.001016 0.030483
    96 4.035156 -11.359375 1.202148 -0.549153 1.458610 -2.175688
    97 3.244568 -11.142443 0.450475 -0.546671 1.458644 -2.177189
    98 -7.299834 -11.213004 4.990924 -3.001123 0.963725 1.632589
    99 -5.319552 -11.666334 5.222860 -3.022048 0.789986 1.606449
    100 -5.342485 -15.355699 6.643841 -3.041200 -0.603432 1.508353
    101 -7.344713 -15.620131 6.382824 -3.031669 -0.777526 1.492267
    102 8.947673 -2.401020 -0.374526 -0.001519 -0.000920 -0.026309
    103 -13.210314 -6.138286 0.950758 0.092278 -0.023794 1.567425
    104 -16.202723 -14.204307 4.478217 1.510276 0.063891 -0.035615
    105 0.412525 -15.037656 2.690875 -1.411442 -1.156554 1.389450
    106 -0.425135 -14.174113 4.007698 -0.813815 1.482820 -2.417947
    107 4.421609 -14.848303 3.870502 -0.813815 1.482820 -2.417947
  time 6
    0 0.000000 0.000000 0.000000 0.000000 0.000000 0.000031
    1 0.000000 500.000000 0.000000 0.000000 0.000000 0.000000
    2 0.000000 500.000000 0.000000 0.000000 0.000000 0.000000
    3 0.000000 500.000000 0.000000 0.000000 0.000000 0.000000
    4 0.000000 500.000000 0.000000 0.000000 0.000000 0.000000
    5 0.000000 500.000000 0.000000 0.000000 0.000000 0.000000
    6 0.000000 500.000000 0.000000 0.000000 0.000000 0.000000
    7 0.000000 500.000000 0.000000 0.000000 0.000000 0.000000
    8 0.000000 500.000000 0.000000 0.000000 0.000000 0.000000
    9 0.000000 500.000000 0.000000 0.000000 0.000000 0.000000
    10 0.000000 500.000000 0.000000 0.000000 0.000000 0.000000
    11 0.000000 500.000000 0.000000 0.000000 0.000000 0.000000
    12 0.000000 500.000000 0.000000 0.000000 0.000000 0.000000
    13 0.000000 500.000000 0.000000 0.000000 0.000000 0.000000
    14 0.000000 500.000000 0.000000 0.000000 0.000000 0.000000
    15 0.000000 500.000000 0.000000 0.000000 0.000000 0.000000
    16 0.000000 500.000000 0.000000 0.000000 0.000000 0.000000
    17 0.000000 500.000000 0.000000 0.000000 0.000000 0.000000
    18 0.000000 500.000000 0.000000 0.000000 0.000000 0.000000
    19 0.000000 500.000000 0.000000 0.000000 0.000000 0.000000
    20 0.000000 500.000000 0.000000 0.000000 0.000000 0.000000
    21 0.000000 500.000000 0.000000 0.000000 0.000000 0.000000
    22 0.000000 500.000000 0.000000 0.000000 0.000000 0.000000
    23 0.000000 500.000000 0.000000 0.000000 0.000000 0.000000
    24 0.000000 500.000000 0.000000 0.000000 0.000000 0.000000
    25 0.000000 500.000000 0.000000 0.000000 0.000000 0.000000
    26 0.000000 500.000000 0.000000 0.000000 0.000000 0.000000
    27 0.000000 500.000000 0.000000 0.000000 0.000000 0.000000
    28 0.000000 500.000000 0.000000 0.000000 0.000000 0.000000
    29 0.000000 500.000000 0.000000 0.000000 0.000000 0.000000
    30 0.000000 500.000000 0.000000 0.000000 0.000000 0.000000
    31 0.000000 500.000000 0.000000 0.000000 0.000000 0.000000
    32 0.000000 500.000000 0.000000 0.000000 0.000000 0.000000
    33 0.000000 500.000000 0.000000 0.000000 0.000000 0.000000
    34 0.000000 500.000000 0.000000 0.000000 0.000000 0.000000
    35 0.000000 500.000000 0.000000 0.000000 0.000000 0.000000
    36 0.000000 500.000000 0.000000 0.000000 0.000000 0.000000
    37 0.000000 500.000000 0.000000 0.000000 0.000000 0.000000
    38 0.000000 500.000000 0.000000 0.000000 0.000000 0.000000
    39 0.000000 500.000000 0.000000 0.000000 0.000000 0.000000
    40 0.000000 500.000000 0.000000 0.000000 0.000000 0.000000
    41 0.000000 500.000000 0.000000 0.000000 0.000000 0.000000
    42 0.000000 500.000000 0.000000 0.000000 0.000000 0.000000
    43 0.000000 500.000000 0.000000 0.000000 0.000000 0.000000
    44 0.000000 500.000000 0.000000 0.000000 0.000000 0.000000
    45 0.000000 500.000000 0.000000 0.000000 0.000000 0.000000
    46 0.000000 500.000000 0.000000 0.000000 0.000000 0.000000
    47 0.000000 500.000000 0.000000 0.000000 0.000000 0.000000
    48 -16.062500 -6.312500 -19.609375 0.092278 -0.023794 1.567425
    49 11.937500 -10.742188 0.710938 -0.563373 1.459520 -2.163303
    50 -4.141209 0.112331 0.237204 0.000050 0.000028 0.000794
    51 -3.529297 0.044556 6.765625 0.470351 0.006988 -0.026200
    52 -8.706123 0.886986 0.476287 0.000099 0.000058 0.001707
    53 7.066406 -27.875000 10.000000 1.117471 0.934711 -2.118883
    54 5.683594 -17.781250 10.945313 0.781240 -0.371861 -2.007774
    55 3.880859 -9.429688 0.096924 -0.033103 -0.063499 -1.118476
    56 3.378906 -21.828125 3.160156 -2.858282 0.137287 0.840811
    57 0.604004 -20.718750 -10.015625 -1.804743 -0.086542 -0.018616
    58 -2.169922 0.087463 0.123291 0.003780 0.002037 0.064933
    59 3.009766 -1.094727 -0.137573 -0.015087 -0.012047 -0.288300
    60 2.738281 -1.159180 -0.537109 0.013089 -0.070032 -0.400912
    61 -1.671497 0.076294 0.094650 0.003144 0.001739 0.053237
    62 -3.178663 0.115002 0.181051 0.009742 0.004720 0.160557
    63 -2.698563 0.802040 0.092733 0.007788 -0.025632 0.004464
    64 -1.467802 0.045677 0.083841 0.001723 0.000979 0.029369
    65 -2.685816 0.119484 0.152210 0.007362 0.003743 0.122432
    66 -2.906984 0.736820 0.623272 0.007419 0.070271 0.001414
    67 -1.978821 0.097282 0.111826 0.004471 0.002407 0.075245
    68 -3.784428 0.085674 0.217299 0.012464 0.005713 0.203486
    69 -3.208876 0.679897 1.061349 0.005229 0.223163 -0.003848
    70 -2.278631 0.117950 0.128557 0.006741 0.003470 0.112378
    71 -3.025912 0.116207 0.172117 0.009579 0.004656 0.157969
    72 3.791016 -9.429688 8.007813 0.539695 -0.054055 -1.149989
    73 -3.350006 -27.453901 3.507052 0.434262 -1.472152 2.744443
    74 5.648438 -5.523438 5.910156 0.574712 0.742359 -0.644037
    75 0.732422 -23.328125 0.755371 0.007434 -0.119915 -2.202189
    76 2.121094 -20.312500 -3.244141 -2.288005 -0.310648 0.659447
    77 -1.374023 -9.257813 18.078125 1.555016 0.107899 0.601376
    78 -8.750000 -1.085938 0.546387 0.035570 0.009295 0.552755
    79 -12.992188 -4.539063 0.911621 0.063218 0.002677 0.977051
    80 -2.042969 0.606445 1.114258 -0.011660 -0.096800 -0.012659
    81 -11.359375 -2.876953 0.759277 0.052225 0.006828 0.802343
    82 -11.218750 -2.751953 0.747070 0.051290 0.007109 0.787727
    83 -9.328125 0.401611 3.923828 0.206081 -0.433193 0.484294
    84 -14.078125 -5.593750 1.010742 0.069006 -0.000407 1.074611
    85 -14.460938 -6.261719 1.055664 0.072370 -0.002531 1.132734
    86 -12.937500 -2.878906 -1.896484 -0.218548 -0.448302 1.031973
    87 -13.906250 -5.523438 0.998047 0.068621 -0.000158 1.068183
    88 -14.648438 -6.601563 1.078125 0.073908 -0.003681 1.161524
    89 -16.234375 -9.843750 -4.324219 -0.322597 -0.301590 1.624481
    90 -9.218750 -1.593750 0.591309 0.041105 0.008940 0.634977
    91 -9.882813 -1.911133 0.640625 0.044148 0.008548 0.680621
    92 -0.258545 -22.828125 -2.230469 -0.221374 -0.119080 -2.188929
    93 -1.125000 -12.570313 -0.282715 -1.567350 0.055782 0.060621
    94 -8.421875 -2.476563 -0.231689 0.000519 0.000257 0.009064
    95 14.935091 -0.802353 -0.822908 0.001790 0.001016 0.030483
    96 4.023438 -11.359375 1.203125 -0.549153 1.458610 -2.175688
    97 3.244568 -11.142443 0.450475 -0.546671 1.458644 -2.177189
    98 -7.299834 -11.213004 4.990924 -3.001123 0.963725 1.632589
    99 -5.319552 -11.666334 5.222860 -3.022048 0.789986 1.606449
    100 -5.342485 -15.355699 6.643841 -3.041200 -0.603432 1.508353
    101 -7.344713 -15.620131 6.382824 -3.031669 -0.777526 1.492267
    102 8.947673 -2.401020 -0.374526 -0.001519 -0.000920 -0.026309
    103 -13.210314 -6.138286 0.950758 0.092278 -0.023794 1.567425
    104 -16.202723 -14.204307 4.478217 1.510276 0.063891 -0.035615
    105 0.412525 -15.037656 2.690875 -1.411442 -1.156554 1.389450
    106 -0.425135 -14.174113 4.007698 -0.813815 1.482820 -2.417947
    107 4.421609 -14.848303 3.870502 -0.813815 1.482820 -2.417947
  time 7
    0 0.000000 0.000000 0.000000 0.000000 0.000000 0.000031
    1 0.000000 500.000000 0.000000 0.000000 0.000000 0.000000
    2 0.000000 500.000000 0.000000 0.000000 0.000000 0.000000
    3 0.000000 500.000000 0.000000 0.000000 0.000000 0.000000
    4 0.000000 500.000000 0.000000 0.000000 0.000000 0.000000
    5 0.000000 500.000000 0.000000 0.000000 0.000000 0.000000
    6 0.000000 500.000000 0.000000 0.000000 0.000000 0.000000
    7 0.000000 500.000000 0.000000 0.000000 0.000000 0.000000
    8 0.000000 500.000000 0.000000 0.000000 0.000000 0.000000
    9 0.000000 500.000000 0.000000 0.000000 0.000000 0.000000
    10 0.000000 500.000000 0.000000 0.000000 0.000000 0.000000
    11 0.000000 500.000000 0.000000 0.000000 0.000000 0.000000
    12 0.000000 500.000000 0.000000 0.000000 0.000000 0.000000
    13 0.000000 500.000000 0.000000 0.000000 0.000000 0.000000
    14 0.000000 500.000000 0.000000 0.000000 0.000000 0.000000
    15 0.000000 500.000000 0.000000 0.000000 0.000000 0.000000
    16 0.000000 500.000000 0.000000 0.000000 0.000000 0.000000
    17 0.000000 500.000000 0.000000 0.000000 0.000000 0.000000
    18 0.000000 500.000000 0.000000 0.000000 0.000000 0.000000
    19 0.000000 500.000000 0.000000 0.000000 0.000000 0.000000
    20 0.000000 500.000000 0.000000 0.000000 0.000000 0.000000
    21 0.000000 500.000000 0.000000 0.000000 0.000000 0.000000
    22 0.000000 500.000000 0.000000 0.000000 0.000000 0.000000
    23 0.000000 500.000000 0.000000 0.000000 0.000000 0.000000
    24 0.000000 500.000000 0.000000 0.000000 0.000000 0.000000
    25 0.000000 500.000000 0.000000 0.000000 0.000000 0.000000
    26 0.000000 500.000000 0.000000 0.000000 0.000000 0.000000
    27 0.000000 500.000000 0.000000 0.000000 0.000000 0.000000
    28 0.000000 500.000000 0.000000 0.000000 0.000000 0.000000
    29 0.000000 500.000000 0.000000 0.000000 0.000000 0.000000
    30 0.000000 500.000000 0.000000 0.000000 0.000000 0.000000
    31 0.000000 500.000000 0.000000 0.000000 0.000000 0.000000
    32 0.000000 500.000000 0.000000 0.000000 0.000000 0.000000
    33 0.000000 500.000000 0.000000 0.000000 0.000000 0.000000
    34 0.000000 500.000000 0.000000 0.000000 0.000000 0.000000
    35 0.000000 500.000000 0.000000 0.000000 0.000000 0.000000
    36 0.000000 500.000000 0.000000 0.000000 0.000000 0.000000
    37 0.000000 500.000000 0.000000 0.000000 0.000000 0.000000
    38 0.000000 500.000000 0.000000 0.000000 0.000000 0.000000
    39 0.000000 500.000000 0.000000 0.000000 0.000000 0.000000
    40 0.000000 500.000000 0.000000 0.000000 0.000000 0.000000
    41 0.000000 500.000000 0.000000 0.000000 0.000000 0.000000
    42 0.000000 500.000000 0.000000 0.000000 0.000000 0.000000
    43 0.000000 500.000000 0.000000 0.000000 0.000000 0.000000
    44 0.000000 500.000000 0.000000 0.000000 0.000000 0.000000
    45 0.000000 500.000000 0.000000 0.000000 0.000000 0.000000
    46 0.000000 500.000000 0.000000 0.000000 0.000000 0.000000
    47 0.000000 500.000000 0.000000 0.000000 0.000000 0.000000
    48 -16.062500 -6.707031 -19.593750 0.092278 -0.023794 1.567425
    49 11.937500 -10.742188 0.710938 -0.563373 1.459520 -2.163303
    50 -4.141209 0.112331 0.237204 0.000050 0.000028 0.000794
    51 -3.529297 0.044556 6.765625 0.470351 0.006988 -0.026200
    52 -8.706123 0.886986 0.476287 0.000099 0.000058 0.001707
    53 7.066406 -27.875000 10.000000 1.117471 0.934711 -2.118883
    54 5.734375 -17.703125 10.906250 0.778837 -0.378536 -2.003234
    55 3.814453 -9.234375 0.094055 -0.033137 -0.062477 -1.103624
    56 3.218750 -22.046875 3.132813 -2.856340 0.137814 0.821940
    57 0.604004 -20.718750 -10.015625 -1.804743 -0.086542 -0.018616
    58 -2.169922 0.087463 0.123291 0.003780 0.002037 0.064933
    59 3.009766 -1.094727 -0.137573 -0.015087 -0.012047 -0.288300
    60 2.738281 -1.159180 -0.537109 0.013089 -0.070032 -0.400912
    61 -1.671497 0.076294 0.094650 0.003144 0.001739 0.053237
    62 -3.178663 0.115002 0.181051 0.009742 0.004720 0.160557
    63 -2.698563 0.802040 0.092733 0.007788 -0.025632 0.004464
    64 -1.467802 0.045677 0.083841 0.001723 0.000979 0.029369
    65 -2.685816 0.119484 0.152210 0.007362 0.003743 0.122432
    66 -2.906984 0.736820 0.623272 0.007419 0.070271 0.001414
    67 -1.978821 0.097282 0.111826 0.004471 0.002407 0.075245
    68 -3.784428 0.085674 0.217299 0.012464 0.005713 0.203486
    69 -3.208876 0.679897 1.061349 0.005229 0.223163 -0.003848
    70 -2.278631 0.117950 0.128557 0.006741 0.003470 0.112378
    71 -3.025912 0.116207 0.172117 0.009579 0.004656 0.157969
    72 3.722656 -9.242188 8.023438 0.541391 -0.052986 -1.135179
    73 -3.350006 -27.453901 3.507052 0.434262 -1.472152 2.744443
    74 5.648438 -5.523438 5.910156 0.574712 0.742359 -0.644037
    75 0.732422 -23.328125 0.755371 0.007434 -0.119915 -2.202189
    76 2.121094 -20.312500 -3.244141 -2.288005 -0.310648 0.659447
    77 -1.374023 -9.257813 18.078125 1.555016 0.107899 0.601376
    78 -8.750000 -1.085938 0.546387 0.035570 0.009295 0.552755
    79 -12.992188 -4.539063 0.911621 0.063218 0.002677 0.977051
    80 -2.042969 0.606445 1.114258 -0.011660 -0.096800 -0.012659
    81 -11.359375 -2.876953 0.759277 0.052225 0.006828 0.802343
    82 -11.218750 -2.751953 0.747070 0.051290 0.007109 0.787727
    83 -9.328125 0.401611 3.923828 0.206081 -0.433193 0.484294
    84 -14.078125 -5.593750 1.010742 0.069006 -0.000407 1.074611
    85 -14.460938 -6.261719 1.055664 0.072370 -0.002531 1.132734
    86 -12.937500 -2.878906 -1.896484 -0.218548 -0.448302 1.031973
    87 -13.906250 -5.523438 0.998047 0.068621 -0.000158 1.068183
    88 -14.648438 -6.601563 1.078125 0.073908 -0.003681 1.161524
    89 -16.234375 -9.843750 -4.324219 -0.322597 -0.301590 1.624481
    90 -9.218750 -1.593750 0.591309 0.041105 0.008940 0.634977
    91 -9.882813 -1.911133 0.640625 0.044148 0.008548 0.680621
    92 -0.258545 -22.828125 -2.230469 -0.221374 -0.119080 -2.188929
    93 -1.125000 -12.570313 -0.282715 -1.567350 0.055782 0.060621
    94 -8.468750 -2.349609 -0.233276 0.000173 0.000086 0.004230
    95 14.935091 -0.802353 -0.822908 0.001790 0.001016 0.030483
    96 3.886719 -11.351563 1.210938 -0.549153 1.458610 -2.175688
    97 3.244568 -11.142443 0.450475 -0.546671 1.458644 -2.177189
    98 -7.299834 -11.213004 4.990924 -3.001123 0.963725 1.632589
    99 -5.319552 -11.666334 5.222860 -3.022048 0.789986 1.606449
    100 -5.342485 -15.355699 6.643841 -3.041200 -0.603432 1.508353
    101 -7.344713 -15.620131 6.382824 -3.031669 -0.777526 1.492267
    102 8.947673 -2.401020 -0.374526 -0.001519 -0.000920 -0.026309
    103 -13.210314 -6.138286 0.950758 0.092278 -0.023794 1.567425
    104 -16.202723 -14.204307 4.478217 1.510276 0.063891 -0.035615
    105 0.412525 -15.037656 2.690875 -1.411442 -1.156554 1.389450
    106 -0.425135 -14.174113 4.007698 -0.813815 1.482820 -2.417947
    107 4.421609 -14.848303 3.870502 -0.813815 1.482820 -2.417947
  time 8
    0 0.000000 0.000000 0.000000 0.000000 0.000000 0.000031
    1 0.000000 500.000000 0.000000 0.000000 0.000000 0.000000
    2 0.000000 500.000000 0.000000 0.000000 0.000000 0.000000
    3 0.000000 500.000000 0.000000 0.000000 0.000000 0.000000
    4 0.000000 500.000000 0.000000 0.000000 0.000000 0.000000
    5 0.000000 500.000000 0.000000 0.000000 0.000000 0.000000
    6 0.000000 500.000000 0.000000 0.000000 0.000000 0.000000
    7 0.000000 500.000000 0.000000 0.000000 0.000000 0.000000
    8 0.000000 500.000000 0.000000 0.000000 0.000000 0.000000
    9 0.000000 500.000000 0.000000 0.000000 0.000000 0.000000
    10 0.000000 500.000000 0.000000 0.000000 0.000000 0.000000
    11 0.000000 500.000000 0.000000 0.000000 0.000000 0.000000
    12 0.000000 500.000000 0.000000 0.000000 0.000000 0.000000
    13 0.000000 500.000000 0.000000 0.000000 0.000000 0.000000
    14 0.000000 500.000000 0.000000 0.000000 0.000000 0.000000
    15 0.000000 500.000000 0.000000 0.000000 0.000000 0.000000
    16 0.000000 500.000000 0.000000 0.000000 0.000000 0.000000
    17 0.000000 500.000000 0.000000 0.000000 0.000000 0.000000
    18 0.000000 500.000000 0.000000 0.000000 0.000000 0.000000
    19 0.000000 500.000000 0.000000 0.000000 0.000000 0.000000
    20 0.000000 500.000000 0.000000 0.000000 0.000000 0.000000
    21 0.000000 500.000000 0.000000 0.000000 0.000000 0.000000
    22 0.000000 500.000000 0.000000 0.000000 0.000000 0.000000
    23 0.000000 500.000000 0.000000 0.000000 0.000000 0.000000
    24 0.000000 500.000000 0.000000 0.000000 0.000000 0.000000
    25 0.000000 500.000000 0.000000 0.000000 0.000000 0.000000
    26 0.000000 500.000000 0.000000 0.000000 0.000000 0.000000
    27 0.000000 500.000000 0.000000 0.000000 0.000000 0.000000
    28 0.000000 500.000000 0.000000 0.000000 0.000000 0.000000
    29 0.000000 500.000000 0.000000 0.000000 0.000000 0.000000
    30 0.000000 500.000000 0.000000 0.000000 0.000000 0.000000
    31 0.000000 500.000000 0.000000 0.000000 0.000000 0.000000
    32 0.000000 500.000000 0.000000 0.000000 0.000000 0.000000
    33 0.000000 500.000000 0.000000 0.000000 0.000000 0.000000
    34 0.000000 500.000000 0.000000 0.000000 0.000000 0.000000
    35 0.000000 500.000000 0.000000 0.000000 0.000000 0.000000
    36 0.000000 500.000000 0.000000 0.000000 0.000000 0.000000
    37 0.000000 500.000000 0.000000 0.000000 0.000000 0.000000
    38 0.000000 500.000000 0.000000 0.000000 0.000000 0.000000
    39 0.000000 500.000000 0.000000 0.000000 0.000000 0.000000
    40 0.000000 500.000000 0.000000 0.000000 0.000000 0.000000
    41 0.000000 500.000000 0.000000 0.000000 0.000000 0.000000
    42 0.000000 500.000000 0.000000 0.000000 0.000000 0.000000
    43 0.000000 500.000000 0.000000 0.000000 0.000000 0.000000
    44 0.000000 500.000000 0.000000 0.000000 0.000000 0.000000
    45 0.000000 500.000000 0.000000 0.000000 0.000000 0.000000
    46 0.000000 500.000000 0.000000 0.000000 0.000000 0.000000
    47 0.000000 500.000000 0.000000 0.000000 0.000000 0.000000
    48 -16.062500 -6.707031 -19.593750 0.092278 -0.023794 1.567425
    49 11.937500 -10.742188 0.710938 -0.563373 1.459520 -2.163303
    50 -4.141209 0.112331 0.237204 0.000050 0.000028 0.000794
    51 -3.529297 0.044556 6.765625 0.470351 0.006988 -0.026200
    52 -8.706123 0.886986 0.476287 0.000099 0.000058 0.001707
    53 7.066406 -27.875000 10.000000 1.117471 0.934711 -2.118883
    54 5.742188 -17.687500 10.906250 0.778660 -0.379011 -2.001847
    55 3.683594 -8.875000 0.089294 -0.033213 -0.060634 -1.075833
    56 2.982422 -22.359375 3.146484 -2.857175 0.136758 0.794195
    57 0.604004 -20.718750 -10.015625 -1.804743 -0.086542 -0.018616
    58 -2.169922 0.087463 0.123291 0.003780 0.002037 0.064933
    59 3.009766 -1.094727 -0.137573 -0.015087 -0.012047 -0.288300
    60 2.738281 -1.159180 -0.537109 0.013089 -0.070032 -0.400912
    61 -1.671497 0.076294 0.094650 0.003144 0.001739 0.053237
    62 -3.178663 0.115002 0.181051 0.009742 0.004720 0.160557
    63 -2.698563 0.802040 0.092733 0.007788 -0.025632 0.004464
    64 -1.467802 0.045677 0.083841 0.001723 0.000979 0.029369
    65 -2.685816 0.119484 0.152210 0.007362 0.003743 0.122432
    66 -2.906984 0.736820 0.623272 0.007419 0.070271 0.001414
    67 -1.978821 0.097282 0.111826 0.004471 0.002407 0.075245
    68 -3.784428 0.085674 0.217299 0.012464 0.005713 0.203486
    69 -3.208876 0.679897 1.061349 0.005229 0.223163 -0.003848
    70 -2.278631 0.117950 0.128557 0.006741 0.003470 0.112378
    71 -3.025912 0.116207 0.172117 0.009579 0.004656 0.157969
    72 3.591797 -8.898438 8.054688 0.543383 -0.051045 -1.107510
    73 -3.350006 -27.453901 3.507052 0.434262 -1.472152 2.744443
    74 5.648438 -5.523438 5.910156 0.574712 0.742359 -0.644037
    75 0.732422 -23.328125 0.755371 0.007434 -0.119915 -2.202189
    76 2.121094 -20.312500 -3.244141 -2.288005 -0.310648 0.659447
    77 -1.374023 -9.257813 18.078125 1.555016 0.107899 0.601376
    78 -8.750000 -1.085938 0.546387 0.035570 0.009295 0.552755
    79 -12.992188 -4.539063 0.911621 0.063218 0.002677 0.977051
    80 -2.042969 0.606445 1.114258 -0.011660 -0.096800 -0.012659
    81 -11.359375 -2.876953 0.759277 0.052225 0.006828 0.802343
    82 -11.218750 -2.751953 0.747070 0.051290 0.007109 0.787727
    83 -9.328125 0.401611 3.923828 0.206081 -0.433193 0.484294
    84 -14.078125 -5.593750 1.010742 0.069006 -0.000407 1.074611
    85 -14.460938 -6.261719 1.055664 0.072370 -0.002531 1.132734
    86 -12.937500 -2.878906 -1.896484 -0.218548 -0.448302 1.031973
    87 -13.906250 -5.523438 0.998047 0.068621 -0.000158 1.068183
    88 -14.648438 -6.601563 1.078125 0.073908 -0.003681 1.161524
    89 -16.234375 -9.843750 -4.324219 -0.322597 -0.301590 1.624481
    90 -9.218750 -1.593750 0.591309 0.041105 0.008940 0.634977
    91 -9.882813 -1.911133 0.640625 0.044148 0.008548 0.680621
    92 -0.258545 -22.828125 -2.230469 -0.221374 -0.119080 -2.188929
    93 -1.125000 -12.570313 -0.282715 -1.567350 0.055782 0.060621
    94 -8.601563 -2.246094 -0.229248 0.000086 0.000000 0.002072
    95 14.935091 -0.802353 -0.822908 0.001790 0.001016 0.030483
    96 3.230469 -11.335938 1.249023 -0.549153 1.458610 -2.175688
    97 3.244568 -11.142443 0.450475 -0.546671 1.458644 -2.177189
    98 -7.299834 -11.213004 4.990924 -3.001123 0.963725 1.632589
    99 -5.319552 -11.666334 5.222860 -3.022048 0.789986 1.606449
    100 -5.342485 -15.355699 6.643841 -3.041200 -0.603432 1.508353
    101 -7.344713 -15.620131 6.382824 -3.031669 -0.777526 1.492267
    102 8.947673 -2.401020 -0.374526 -0.001519 -0.000920 -0.026309
    103 -13.210314 -6.138286 0.950758 0.092278 -0.023794 1.567425
    104 -16.202723 -14.204307 4.478217 1.510276 0.063891 -0.035615
    105 0.412525 -15.037656 2.690875 -1.411442 -1.156554 1.389450
    106 -0.425135 -14.174113 4.007698 -0.813815 1.482820 -2.417947
    107 4.421609 -14.848303 3.870502 -0.813815 1.482820 -2.417947
  time 9
    0 0.000000 0.000000 0.000000 0.000000 0.000000 0.000031
    1 0.000000 500.000000 0.000000 0.000000 0.000000 0.000000
    2 0.000000 500.000000 0.000000 0.000000 0.000000 0.000000
    3 0.000000 500.000000 0.000000 0.000000 0.000000 0.000000
    4 0.000000 500.000000 0.000000 0.000000 0.000000 0.000000
    5 0.000000 500.000000 0.000000 0.000000 0.000000 0.000000
    6 0.000000 500.000000 0.000000 0.000000 0.000000 0.000000
    7 0.000000 500.000000 0.000000 0.000000 0.000000 0.000000
    8 0.000000 500.000000 0.000000 0.000000 0.000000 0.000000
    9 0.000000 500.000000 0.000000 0.000000 0.000000 0.000000
    10 0.000000 500.000000 0.000000 0.000000 0.000000 0.000000
    11 0.000000 500.000000 0.000000 0.000000 0.000000 0.000000
    12 0.000000 500.000000 0.000000 0.000000 0.000000 0.000000
    13 0.000000 500.000000 0.000000 0.000000 0.000000 0.000000
    14 0.000000 500.000000 0.000000 0.000000 0.000000 0.000000
    15 0.000000 500.000000 0.000000 0.000000 0.000000 0.000000
    16 0.000000 500.000000 0.000000 0.000000 0.000000 0.000000
    17 0.000000 500.000000 0.000000 0.000000 0.000000 0.000000
    18 0.000000 500.000000 0.000000 0.000000 0.000000 0.000000
    19 0.000000 500.000000 0.000000 0.000000 0.000000 0.000000
    20 0.000000 500.000000 0.000000 0.000000 0.000000 0.000000
    21 0.000000 500.000000 0.000000 0.000000 0.000000 0.000000
    22 0.000000 500.000000 0.000000 0.000000 0.000000 0.000000
    23 0.000000 500.000000 0.000000 0.000000 0.000000 0.000000
    24 0.000000 500.000000 0.000000 0.000000 0.000000 0.000000
    25 0.000000 500.000000 0.000000 0.000000 0.000000 0.000000
    26 0.000000 500.000000 0.000000 0.000000 0.000000 0.000000
    27 0.000000 500.000000 0.000000 0.000000 0.000000 0.000000
    28 0.000000 500.000000 0.000000 0.000000 0.000000 0.000000
    29 0.000000 500.000000 0.000000 0.000000 0.000000 0.000000
    30 0.000000 500.000000 0.000000 0.000000 0.000000 0.000000
    31 0.000000 500.000000 0.000000 0.000000 0.000000 0.000000
    32 0.000000 500.000000 0.000000 0.000000 0.000000 0.000000
    33 0.000000 500.000000 0.000000 0.000000 0.000000 0.000000
    34 0.000000 500.000000 0.000000 0.000000 0.000000 0.000000
    35 0.000000 500.000000 0.000000 0.000000 0.000000 0.000000
    36 0.000000 500.000000 0.000000 0.000000 0.000000 0.000000
    37 0.000000 500.000000 0.000000 0.000000 0.000000 0.000000
    38 0.000000 500.000000 0.000000 0.000000 0.000000 0.000000
    39 0.000000 500.000000 0.000000 0.000000 0.000000 0.000000
    40 0.000000 500.000000 0.000000 0.000000 0.000000 0.000000
    41 0.000000 500.000000 0.000000 0.000000 0.000000 0.000000
    42 0.000000 500.000000 0.000000 0.000000 0.000000 0.000000
    43 0.000000 500.000000 0.000000 0.000000 0.000000 0.000000
    44 0.000000 500.000000 0.000000 0.000000 0.000000 0.000000
    45 0.000000 500.000000 0.000000 0.000000 0.000000 0.000000
    46 0.000000 500.000000 0.000000 0.000000 0.000000 0.000000
    47 0.000000 500.000000 0.000000 0.000000 0.000000 0.000000
    48 -16.062500 -6.707031 -19.593750 0.092278 -0.023794 1.567425
    49 11.937500 -10.742188 0.710938 -0.563373 1.459520 -2.163303
    50 -4.141209 0.112331 0.237204 0.000050 0.000028 0.000794
    51 -3.529297 0.044556 6.765625 0.470351 0.006988 -0.026200
    52 -8.706123 0.886986 0.476287 0.000099 0.000058 0.001707
    53 7.066406 -27.875000 10.000000 1.117471 0.934711 -2.118883
    54 5.750000 -17.671875 10.906250 0.778482 -0.379487 -2.000458
    55 3.542969 -8.515625 0.085205 -0.033286 -0.058728 -1.048075
    56 2.736328 -22.671875 3.158203 -2.857961 0.135630 0.766417
    57 0.604004 -20.718750 -10.015625 -1.804743 -0.086542 -0.018616
    58 -2.169922 0.087463 0.123291 0.003780 0.002037 0.064933
    59 3.009766 -1.094727 -0.137573 -0.015087 -0.012047 -0.288300
    60 2.738281 -1.159180 -0.537109 0.013089 -0.070032 -0.400912
    61 -1.671497 0.076294 0.094650 0.003144 0.001739 0.053237
    62 -3.178663 0.115002 0.181051 0.009742 0.004720 0.160557
    63 -2.698563 0.802040 0.092733 0.007788 -0.025632 0.004464
    64 -1.467802 0.045677 0.083841 0.001723 0.000979 0.029369
    65 -2.685816 0.119484 0.152210 0.007362 0.003743 0.122432
    66 -2.906984 0.736820 0.623272 0.007419 0.070271 0.001414
    67 -1.978821 0.097282 0.111826 0.004471 0.002407 0.075245
    68 -3.784428 0.085674 0.217299 0.012464 0.005713 0.203486
    69 -3.208876 0.679897 1.061349 0.005229 0.223163 -0.003848
    70 -2.278631 0.117950 0.128557 0.006741 0.003470 0.112378
    71 -3.025912 0.116207 0.172117 0.009579 0.004656 0.157969
    72 3.451172 -8.562500 8.078125 0.545490 -0.049089 -1.079857
    73 -3.350006 -27.453901 3.507052 0.434262 -1.472152 2.744443
    74 5.648438 -5.523438 5.910156 0.574712 0.742359 -0.644037
    75 0.732422 -23.328125 0.755371 0.007434 -0.119915 -2.202189
    76 2.121094 -20.312500 -3.244141 -2.288005 -0.310648 0.659447
    77 -1.374023 -9.257813 18.078125 1.555016 0.107899 0.601376
    78 -8.750000 -1.085938 0.546387 0.035570 0.009295 0.552755
    79 -12.992188 -4.539063 0.911621 0.063218 0.002677 0.977051
    80 -2.042969 0.606445 1.114258 -0.011660 -0.096800 -0.012659
    81 -11.359375 -2.876953 0.759277 0.052225 0.006828 0.802343
    82 -11.218750 -2.751953 0.747070 0.051290 0.007109 0.787727
    83 -9.328125 0.401611 3.923828 0.206081 -0.433193 0.484294
    84 -14.078125 -5.593750 1.010742 0.069006 -0.000407 1.074611
    85 -14.460938 -6.261719 1.055664 0.072370 -0.002531 1.132734
    86 -12.937500 -2.878906 -1.896484 -0.218548 -0.448302 1.031973
    87 -13.906250 -5.523438 0.998047 0.068621 -0.000158 1.068183
    88 -14.648438 -6.601563 1.078125 0.073908 -0.003681 1.161524
    89 -16.234375 -9.843750 -4.324219 -0.322597 -0.301590 1.624481
    90 -9.218750 -1.593750 0.591309 0.041105 0.008940 0.634977
    91 -9.882813 -1.911133 0.640625 0.044148 0.008548 0.680621
    92 -0.258545 -22.828125 -2.230469 -0.221374 -0.119080 -2.188929
    93 -1.125000 -12.570313 -0.282715 -1.567350 0.055782 0.060621
    94 -8.726563 -2.142578 -0.225098 0.000000 0.000000 0.000000
    95 14.935091 -0.802353 -0.822908 0.001790 0.001016 0.030483
    96 2.574219 -11.320313 1.286133 -0.549153 1.458610 -2.175688
    97 3.244568 -11.142443 0.450475 -0.546671 1.458644 -2.177189
    98 -7.299834 -11.213004 4.990924 -3.001123 0.963725 1.632589
    99 -5.319552 -11.666334 5.222860 -3.022048 0.789986 1.606449
    100 -5.342485 -15.355699 6.643841 -3.041200 -0.603432 1.508353
    101 -7.344713 -15.620131 6.382824 -3.031669 -0.777526 1.492267
    102 8.947673 -2.401020 -0.374526 -0.001519 -0.000920 -0.026309
    103 -13.210314 -6.138286 0.950758 0.092278 -0.023794 1.567425
    104 -16.202723 -14.204307 4.478217 1.510276 0.063891 -0.035615
    105 0.412525 -15.037656 2.690875 -1.411442 -1.156554 1.389450
    106 -0.425135 -14.174113 4.007698 -0.813815 1.482820 -2.417947
    107 4.421609 -14.848303 3.870502 -0.813815 1.482820 -2.417947
end
