// Created by CrowbarDecompiler 0.71
version 1
nodes
  0 "v_weapon" -1
  1 "v_weapon.Bip01" 0
  2 "v_weapon.Bip01_Pelvis" 0
  3 "v_weapon.Bip01_Spine" 0
  4 "v_weapon.Bip01_Spine1" 0
  5 "v_weapon.Bip01_Spine2" 0
  6 "v_weapon.Bip01_Spine3" 0
  7 "v_weapon.Bip01_Neck" 0
  8 "v_weapon.Bip01_L_Clavicle" 0
  9 "v_weapon.Bip01_L_UpperArm" 0
  10 "v_weapon.Bip01_L_Forearm" 0
  11 "v_weapon.Bip01_L_Hand" 0
  12 "v_weapon.Bip01_L_ForeTwist" 0
  13 "v_weapon.Bip01_R_Clavicle" 0
  14 "v_weapon.Bip01_R_UpperArm" 0
  15 "v_weapon.Bip01_R_Forearm" 0
  16 "v_weapon.Bip01_R_Hand" 0
  17 "v_weapon.Bip01_R_ForeTwist" 0
  18 "v_weapon.Bip01_L_Finger0" 0
  19 "v_weapon.Bip01_L_Finger01" 0
  20 "v_weapon.Bip01_L_Finger02" 0
  21 "v_weapon.Bip01_L_Finger1" 0
  22 "v_weapon.Bip01_L_Finger11" 0
  23 "v_weapon.Bip01_L_Finger12" 0
  24 "v_weapon.Bip01_L_Finger2" 0
  25 "v_weapon.Bip01_L_Finger21" 0
  26 "v_weapon.Bip01_L_Finger22" 0
  27 "v_weapon.Bip01_L_Finger3" 0
  28 "v_weapon.Bip01_L_Finger31" 0
  29 "v_weapon.Bip01_L_Finger32" 0
  30 "v_weapon.Bip01_L_Finger4" 0
  31 "v_weapon.Bip01_L_Finger41" 0
  32 "v_weapon.Bip01_L_Finger42" 0
  33 "v_weapon.Bip01_R_Finger0" 0
  34 "v_weapon.Bip01_R_Finger01" 0
  35 "v_weapon.Bip01_R_Finger02" 0
  36 "v_weapon.Bip01_R_Finger1" 0
  37 "v_weapon.Bip01_R_Finger11" 0
  38 "v_weapon.Bip01_R_Finger12" 0
  39 "v_weapon.Bip01_R_Finger2" 0
  40 "v_weapon.Bip01_R_Finger21" 0
  41 "v_weapon.Bip01_R_Finger22" 0
  42 "v_weapon.Bip01_R_Finger3" 0
  43 "v_weapon.Bip01_R_Finger31" 0
  44 "v_weapon.Bip01_R_Finger32" 0
  45 "v_weapon.Bip01_R_Finger4" 0
  46 "v_weapon.Bip01_R_Finger41" 0
  47 "v_weapon.Bip01_R_Finger42" 0
  48 "FvARM-bone" 0
  49 "FvARM-bone Pelvis" 48
  50 "FvARM-bone Spine" 49
  51 "FvARM-bone Spine1" 50
  52 "FvARM-bone Neck" 51
  53 "FvARM-bone L Clavicle" 52
  54 "FvARM-bone L UpperArm" 53
  55 "FvARM-bone L ForeArm" 54
  56 "FvARM-bone L Hand" 55
  57 "FvARM-bone L Finger0" 56
  58 "FvARM-bone L Finger01" 57
  59 "FvARM-bone L Finger02" 58
  60 "FvARM-bone L Finger1" 56
  61 "FvARM-bone L Finger11" 60
  62 "FvARM-bone L Finger12" 61
  63 "FvARM-bone L Finger2" 56
  64 "FvARM-bone L Finger21" 63
  65 "FvARM-bone L Finger22" 64
  66 "FvARM-bone L Finger3" 56
  67 "FvARM-bone L Finger31" 66
  68 "FvARM-bone L Finger32" 67
  69 "FvARM-bone L Finger4" 56
  70 "FvARM-bone L Finger41" 69
  71 "FvARM-bone L Finger42" 70
  72 "FvARM-bone L ForeTwist" 54
  73 "FvARM-bone R Clavicle" 52
  74 "FvARM-bone R UpperArm" 73
  75 "FvARM-bone R ForeArm" 74
  76 "FvARM-bone R Hand" 75
  77 "FvARM-bone R Finger0" 76
  78 "FvARM-bone R Finger01" 77
  79 "FvARM-bone R Finger02" 78
  80 "FvARM-bone R Finger1" 76
  81 "FvARM-bone R Finger11" 80
  82 "FvARM-bone R Finger12" 81
  83 "FvARM-bone R Finger2" 76
  84 "FvARM-bone R Finger21" 83
  85 "FvARM-bone R Finger22" 84
  86 "FvARM-bone R Finger3" 76
  87 "FvARM-bone R Finger31" 86
  88 "FvARM-bone R Finger32" 87
  89 "FvARM-bone R Finger4" 76
  90 "FvARM-bone R Finger41" 89
  91 "FvARM-bone R Finger42" 90
  92 "FvARM-bone R ForeTwist" 74
  93 "FvARM-bone Prop1" 48
  94 "Dummy01" 93
  95 "Bone02" 94
  96 "Box001" 95
  97 "Box002" 95
  98 "Box003" 95
  99 "Box005" 95
  100 "Box006" 95
  101 "Box004" 95
  102 "Bone04" 94
  103 "Bone06" 94
  104 "v_weapon.flash" 94
  105 "v_weapon.shelleject" 94
  106 "v_weapon.stattrack" 94
  107 "v_weapon.uid" 94
end
skeleton
  time 0
    0 0.000000 0.000000 0.000000 0.000000 0.000000 0.000031
    1 0.000000 500.000000 0.000000 0.000000 0.000000 0.000000
    2 0.000000 500.000000 0.000000 0.000000 0.000000 0.000000
    3 0.000000 500.000000 0.000000 0.000000 0.000000 0.000000
    4 0.000000 500.000000 0.000000 0.000000 0.000000 0.000000
    5 0.000000 500.000000 0.000000 0.000000 0.000000 0.000000
    6 0.000000 500.000000 0.000000 0.000000 0.000000 0.000000
    7 0.000000 500.000000 0.000000 0.000000 0.000000 0.000000
    8 0.000000 500.000000 0.000000 0.000000 0.000000 0.000000
    9 0.000000 500.000000 0.000000 0.000000 0.000000 0.000000
    10 0.000000 500.000000 0.000000 0.000000 0.000000 0.000000
    11 0.000000 500.000000 0.000000 0.000000 0.000000 0.000000
    12 0.000000 500.000000 0.000000 0.000000 0.000000 0.000000
    13 0.000000 500.000000 0.000000 0.000000 0.000000 0.000000
    14 0.000000 500.000000 0.000000 0.000000 0.000000 0.000000
    15 0.000000 500.000000 0.000000 0.000000 0.000000 0.000000
    16 0.000000 500.000000 0.000000 0.000000 0.000000 0.000000
    17 0.000000 500.000000 0.000000 0.000000 0.000000 0.000000
    18 0.000000 500.000000 0.000000 0.000000 0.000000 0.000000
    19 0.000000 500.000000 0.000000 0.000000 0.000000 0.000000
    20 0.000000 500.000000 0.000000 0.000000 0.000000 0.000000
    21 0.000000 500.000000 0.000000 0.000000 0.000000 0.000000
    22 0.000000 500.000000 0.000000 0.000000 0.000000 0.000000
    23 0.000000 500.000000 0.000000 0.000000 0.000000 0.000000
    24 0.000000 500.000000 0.000000 0.000000 0.000000 0.000000
    25 0.000000 500.000000 0.000000 0.000000 0.000000 0.000000
    26 0.000000 500.000000 0.000000 0.000000 0.000000 0.000000
    27 0.000000 500.000000 0.000000 0.000000 0.000000 0.000000
    28 0.000000 500.000000 0.000000 0.000000 0.000000 0.000000
    29 0.000000 500.000000 0.000000 0.000000 0.000000 0.000000
    30 0.000000 500.000000 0.000000 0.000000 0.000000 0.000000
    31 0.000000 500.000000 0.000000 0.000000 0.000000 0.000000
    32 0.000000 500.000000 0.000000 0.000000 0.000000 0.000000
    33 0.000000 500.000000 0.000000 0.000000 0.000000 0.000000
    34 0.000000 500.000000 0.000000 0.000000 0.000000 0.000000
    35 0.000000 500.000000 0.000000 0.000000 0.000000 0.000000
    36 0.000000 500.000000 0.000000 0.000000 0.000000 0.000000
    37 0.000000 500.000000 0.000000 0.000000 0.000000 0.000000
    38 0.000000 500.000000 0.000000 0.000000 0.000000 0.000000
    39 0.000000 500.000000 0.000000 0.000000 0.000000 0.000000
    40 0.000000 500.000000 0.000000 0.000000 0.000000 0.000000
    41 0.000000 500.000000 0.000000 0.000000 0.000000 0.000000
    42 0.000000 500.000000 0.000000 0.000000 0.000000 0.000000
    43 0.000000 500.000000 0.000000 0.000000 0.000000 0.000000
    44 0.000000 500.000000 0.000000 0.000000 0.000000 0.000000
    45 0.000000 500.000000 0.000000 0.000000 0.000000 0.000000
    46 0.000000 500.000000 0.000000 0.000000 0.000000 0.000000
    47 0.000000 500.000000 0.000000 0.000000 0.000000 0.000000
    48 -16.070988 -6.709446 -19.596239 0.092278 -0.023794 1.567425
    49 11.937500 -10.742188 0.710938 -0.563373 1.459520 -2.163303
    50 -4.141209 0.112331 0.237204 0.000050 0.000028 0.000794
    51 -3.529297 0.044556 6.765625 0.470351 0.006988 -0.026200
    52 -8.706123 0.886986 0.476287 0.000099 0.000058 0.001707
    53 6.652344 -28.750000 2.851563 0.128165 1.246123 -3.051837
    54 6.449219 -13.226563 10.882813 0.771783 -0.145428 -1.488263
    55 1.996094 -5.707031 0.079163 -0.031632 -0.043226 -0.816711
    56 1.396484 -24.093750 3.910156 -2.898571 0.022243 0.622163
    57 0.604004 -20.718750 -10.015625 -1.804743 -0.086542 -0.018616
    58 -2.169922 0.087463 0.123291 0.003780 0.002037 0.064933
    59 3.009766 -1.094727 -0.137573 -0.015087 -0.012047 -0.288300
    60 2.738281 -1.159180 -0.537109 0.013089 -0.070032 -0.400912
    61 -1.671497 0.076294 0.094650 0.003144 0.001739 0.053237
    62 -3.178663 0.115002 0.181051 0.009742 0.004720 0.160557
    63 -2.698563 0.802040 0.092733 0.007788 -0.025632 0.004464
    64 -1.467802 0.045677 0.083841 0.001723 0.000979 0.029369
    65 -2.685816 0.119484 0.152210 0.007362 0.003743 0.122432
    66 -2.906984 0.736820 0.623272 0.007419 0.070271 0.001414
    67 -1.978821 0.097282 0.111826 0.004471 0.002407 0.075245
    68 -3.784428 0.085674 0.217299 0.012464 0.005713 0.203486
    69 -3.208876 0.679897 1.061349 0.005229 0.223163 -0.003848
    70 -2.278631 0.117950 0.128557 0.006741 0.003470 0.112378
    71 -3.025912 0.116207 0.172117 0.009579 0.004656 0.157969
    72 1.931641 -5.937500 8.343750 0.567090 -0.032921 -0.849431
    73 -3.350006 -27.453901 3.507052 0.434262 -1.472152 2.744443
    74 6.484375 -6.988281 1.127930 0.107096 0.691203 -1.074106
    75 3.935547 -17.906250 0.384033 -0.017361 -0.101699 -1.741543
    76 0.353271 -23.078125 -2.400391 -2.411008 -0.121554 0.540317
    77 -1.374023 -9.257813 18.078125 1.555016 0.107899 0.601376
    78 -8.750000 -1.085938 0.546387 0.035570 0.009295 0.552755
    79 -12.992188 -4.539063 0.911621 0.063218 0.002677 0.977051
    80 -2.042969 0.606445 1.114258 -0.011660 -0.096800 -0.012659
    81 -11.359375 -2.876953 0.759277 0.052225 0.006828 0.802343
    82 -11.218750 -2.751953 0.747070 0.051290 0.007109 0.787727
    83 -9.328125 0.401611 3.923828 0.206081 -0.433193 0.484294
    84 -14.078125 -5.593750 1.010742 0.069006 -0.000407 1.074611
    85 -14.460938 -6.261719 1.055664 0.072370 -0.002531 1.132734
    86 -12.937500 -2.878906 -1.896484 -0.218548 -0.448302 1.031973
    87 -13.906250 -5.523438 0.998047 0.068621 -0.000158 1.068183
    88 -14.648438 -6.601563 1.078125 0.073908 -0.003681 1.161524
    89 -16.234375 -9.843750 -4.324219 -0.322597 -0.301590 1.624481
    90 -9.218750 -1.593750 0.591309 0.041105 0.008940 0.634977
    91 -9.882813 -1.911133 0.640625 0.044148 0.008548 0.680621
    92 2.382813 -17.812500 -3.253906 -0.301476 -0.099800 -1.725170
    93 -4.292969 -12.640625 0.400146 -1.591355 0.066994 0.111544
    94 -8.796875 -1.644531 0.245239 0.026814 0.051054 -0.010097
    95 14.935091 -0.802353 -0.822908 0.001790 0.001016 0.030483
    96 1.979387 -11.311493 1.320988 -0.549153 1.458610 -2.175688
    97 3.244568 -11.142443 0.450475 -0.546671 1.458644 -2.177189
    98 -7.299834 -11.213004 4.990924 -3.001123 0.963725 1.632589
    99 -5.319552 -11.666334 5.222860 -3.022048 0.789986 1.606449
    100 -5.342485 -15.355699 6.643841 -3.041200 -0.603432 1.508353
    101 -7.344713 -15.620131 6.382824 -3.031669 -0.777526 1.492267
    102 8.947673 -2.401020 -0.374526 -0.001519 -0.000920 -0.026309
    103 -13.210314 -6.138286 0.950758 0.092278 -0.023794 1.567425
    104 -16.202723 -14.204307 4.478217 1.510276 0.063891 -0.035615
    105 0.412525 -15.037656 2.690875 -1.411442 -1.156554 1.389450
    106 -0.425135 -14.174113 4.007698 -0.813815 1.482820 -2.417947
    107 4.421609 -14.848303 3.870502 -0.813815 1.482820 -2.417947
end
