o qv
v 6.404060 -0.759471 5.165615
v 6.582132 -0.842413 4.768404
v 7.674367 -0.848349 4.753458
v 7.174082 -0.771114 5.163051
v 7.134372 -0.535956 5.501542
v 6.111050 -0.534116 5.500571
v 6.526027 -0.707571 4.121225
v 7.638326 -0.756449 4.170358
v 6.530288 -0.711103 3.629328
v 7.691103 -0.742161 3.467540
v 8.653101 -0.835429 2.368366
v 6.490889 -0.855204 2.562532
v 6.503723 -0.760338 1.871215
v 8.286752 -0.705613 1.464794
v 6.202342 -0.575824 4.070282
v 6.208182 -0.596814 3.756758
v 8.166770 -0.790946 5.134573
v 8.163060 -0.752571 5.643514
v 7.201458 -0.758112 5.642503
v 8.189901 -0.533369 5.688865
v 7.164332 -0.532510 5.691249
v 9.038844 -0.845856 4.753674
v 9.049667 -0.790538 5.136904
v 9.049519 -0.541607 5.484307
v 8.215796 -0.540106 5.487990
v 9.039370 -0.798810 4.191259
v 9.706796 -0.595917 2.900365
v 9.275066 -0.672526 1.264972
v 9.664170 -0.704006 1.647113
v 9.718311 -0.345485 1.462538
v 6.127208 -0.530482 6.159882
v 9.059518 -0.530480 6.159094
v 13.796381 -0.872627 4.749184
v 13.785477 -0.752370 5.044443
v 12.796520 -0.547593 5.489781
v 13.650672 -0.758892 4.252759
v 12.801441 -0.532358 5.817709
v 12.530051 -0.530471 6.159094
v 13.482404 -0.544168 5.487708
v 13.487353 -0.534545 5.817674
v 11.373007 -0.518461 2.827838
v 13.125753 -0.519501 2.729824
v 9.408459 -0.542330 2.313259
v 11.706126 -0.422887 2.056367
v 12.365464 -0.546867 1.468691
v 13.703392 -0.551844 1.493715
v 11.481376 -0.420318 1.449920
v 11.436521 -0.452818 1.561985
v 9.675294 -0.464936 1.639912
v 13.582216 -0.514616 -0.876165
v 15.416193 -0.514339 -0.936272
v 13.458741 -0.477664 -1.174897
v 13.572450 -0.446496 -1.390079
v 13.649920 -0.445432 3.405683
v 14.415902 -0.416502 3.617509
v 12.806568 -0.530471 6.159094
v 12.867290 -0.618357 5.842740
v 12.872407 -0.600113 6.110752
v 13.333918 -0.560879 5.836466
v 13.375228 -0.553813 6.102283
v 13.614583 -0.427506 5.837947
v 13.634265 -0.409449 6.098731
v 13.744743 -0.070926 6.114581
v 13.553433 -0.070926 6.124051
v 13.407039 -0.400326 6.120410
v 13.397041 -0.070926 6.573661
v 13.308340 -0.383992 6.516233
v 12.544863 -0.442593 6.199642
v 12.529481 -0.437708 6.491868
v 13.181633 -0.368410 7.025273
v 13.022663 -0.070927 7.055220
v 13.010152 -0.435163 7.056770
v 13.011285 -0.368376 7.247145
v 13.008949 -0.445398 7.251242
v 13.007242 -0.375738 7.704897
v 13.004647 -0.432493 7.704889
v 12.653234 -0.375742 7.959336
v 12.654617 -0.433198 7.961852
v 11.741522 -0.350079 7.914263
v 11.749094 -0.445111 7.860798
v 6.485726 -0.338715 7.628791
v 6.501307 -0.428985 7.570127
v 6.172038 -0.329820 7.151632
v 6.171917 -0.377223 7.147864
v 6.171237 -0.377228 6.380220
v 6.600753 -0.320969 7.396817
v 11.887442 -0.329455 7.396418
v 11.009251 -0.453575 7.237903
v 12.594145 -0.446894 7.233562
v 6.672053 -0.452937 7.237906
v 6.460137 -0.433068 7.035472
v 6.456531 -0.430907 6.419872
v 11.249976 -0.406490 7.021068
v 11.250056 -0.403624 6.676724
v 11.033357 -0.070926 6.478795
v 11.044245 -0.409819 6.418310
v 9.059492 -0.606266 6.375353
v 6.248607 -0.609067 6.358722
v 12.526431 -0.617288 6.183492
v 12.527669 -0.604913 6.370919
v 12.523840 -0.447359 6.411914
v 11.889505 -0.395168 6.625891
v 11.874985 -0.413609 6.999687
v 12.098055 -0.461874 6.534833
v 12.080962 -0.458003 6.914324
v 12.450597 -0.607898 6.534832
v 12.455722 -0.613782 6.914322
v 12.828180 -0.455741 6.534833
v 12.831006 -0.458331 6.914322
v 13.038463 -0.403776 6.532035
v 13.029871 -0.421652 6.915740
v 12.679020 -0.427519 7.057203
v 13.581984 -0.582762 5.597714
v 13.583533 -0.577115 5.872964
v 13.474010 -0.976379 5.597713
v 13.475560 -0.970732 5.872964
v 13.940212 -0.919353 5.597713
v 13.940212 -0.919353 5.872964
v 14.344507 -0.427093 5.594763
v 14.344519 -0.427102 5.872964
v 14.421849 -0.670851 5.215843
v 14.424430 -0.812721 4.718360
v 14.429823 -0.766057 4.465012
v 14.385889 -0.070925 4.425571
v 13.856838 -0.748445 5.263344
v 14.413437 -0.501332 5.407070
v 13.858953 -0.590855 5.475570
v 14.427974 -0.070926 5.516263
v 14.288537 -0.070926 5.564802
v 14.234633 -0.477867 5.543252
v 6.404060 0.617620 5.165616
v 6.582132 0.700563 4.768406
v 7.674367 0.706499 4.753460
v 7.174082 0.629263 5.163053
v 7.134372 0.394105 5.501542
v 6.111050 0.392265 5.500571
v 6.526027 0.565722 4.121227
v 7.638326 0.614600 4.170359
v 6.530288 0.569255 3.629329
v 7.691103 0.600313 3.467540
v 8.653101 0.693583 2.368367
v 6.490889 0.713357 2.562534
v 6.503723 0.618492 1.871216
v 8.286752 0.563768 1.464795
v 6.202342 0.433975 4.070283
v 6.208182 0.454966 3.756759
v 6.519377 -0.070924 4.119929
v 6.202340 -0.070924 4.070283
v 6.208184 -0.070924 3.756761
v 6.516011 -0.070924 3.630668
v 6.411739 -0.070924 2.572661
v 6.502028 -0.070923 1.870946
v 8.287034 -0.070923 1.464735
v 8.166770 0.649095 5.134574
v 8.163060 0.610721 5.643514
v 7.201458 0.616261 5.642503
v 8.189901 0.391518 5.688865
v 7.164332 0.390658 5.691250
v 9.038844 0.704005 4.753675
v 9.049667 0.648688 5.136905
v 9.049519 0.399756 5.484307
v 8.215796 0.398256 5.487990
v 9.039370 0.656961 4.191261
v 9.706796 0.454069 2.900366
v 9.275066 0.530682 1.264973
v 9.664170 0.562161 1.647114
v 9.275870 -0.070922 1.263168
v 9.746950 -0.070923 1.460417
v 9.718311 0.203640 1.462538
v 6.127208 0.388631 6.159883
v 9.059518 0.388628 6.159095
v 13.796381 0.730777 4.749185
v 13.785477 0.610519 5.044444
v 12.796520 0.405742 5.489781
v 13.650672 0.617042 4.252761
v 12.801441 0.390506 5.817709
v 12.530051 0.388618 6.159095
v 13.482404 0.402317 5.487708
v 13.487353 0.392693 5.817675
v 11.373007 0.376614 2.827839
v 13.125753 0.377653 2.729825
v 9.408459 0.400484 2.313260
v 11.706126 0.281042 2.056367
v 12.365464 0.405022 1.468692
v 13.703392 0.409998 1.493716
v 11.481376 0.278473 1.449921
v 11.432304 -0.070922 1.448945
v 12.125813 -0.070922 1.353810
v 11.436521 0.310973 1.561985
v 9.675294 0.323090 1.639913
v 9.674769 -0.070923 1.611941
v 9.568681 -0.070923 2.298554
v 11.392574 -0.070923 1.590820
v 9.765785 -0.070924 2.723587
v 11.335133 -0.070924 2.752038
v 11.622862 -0.070923 2.050831
v 13.894710 -0.070923 1.696280
v 13.424874 -0.070924 2.729506
v 13.582216 0.372774 -0.876165
v 15.416193 0.372497 -0.936272
v 13.372960 -0.070921 -0.918453
v 15.608064 -0.070921 -0.895559
v 13.217389 -0.070921 -1.245776
v 13.458741 0.335823 -1.174897
v 13.369832 -0.070921 -1.431934
v 13.572450 0.304655 -1.390079
v 13.615690 -0.070924 3.173651
v 13.649920 0.303584 3.405684
v 14.347725 -0.070924 3.436506
v 14.415902 0.274653 3.617510
v 12.806568 0.388618 6.159095
v 12.867290 0.476505 5.842741
v 12.872407 0.458260 6.110753
v 13.333918 0.419027 5.836466
v 13.375228 0.411961 6.102283
v 13.614583 0.285654 5.837947
v 13.634265 0.267596 6.098731
v 13.746894 -0.070926 5.902479
v 13.407039 0.258474 6.120410
v 13.308340 0.242139 6.516234
v 12.544863 0.300741 6.199642
v 12.529481 0.295856 6.491869
v 13.269188 -0.070927 7.031246
v 13.181633 0.226556 7.025273
v 13.010152 0.293310 7.056770
v 13.011285 0.226522 7.247145
v 13.008949 0.303544 7.251243
v 13.007242 0.233884 7.704897
v 13.004647 0.290639 7.704889
v 12.653234 0.233887 7.959337
v 12.654617 0.291344 7.961852
v 11.741522 0.208224 7.914263
v 11.749094 0.303257 7.860799
v 6.485726 0.196861 7.628791
v 6.501307 0.287132 7.570127
v 6.172038 0.187967 7.151632
v 6.171917 0.235370 7.147864
v 6.169147 -0.070926 6.374680
v 6.171237 0.235376 6.380220
v 6.172593 -0.070927 7.130664
v 6.600753 0.179115 7.396817
v 6.601715 -0.070927 7.379744
v 11.887442 0.187602 7.396418
v 11.894927 -0.070927 7.363811
v 13.016674 -0.070927 7.237795
v 11.009251 0.311721 7.237903
v 12.594145 0.305040 7.233562
v 6.672053 0.311084 7.237906
v 6.460137 0.291215 7.035472
v 6.456531 0.289055 6.419872
v 6.462252 -0.070927 7.035817
v 6.672043 -0.070927 7.223668
v 6.547692 -0.070926 6.496254
v 11.016952 -0.070927 7.220572
v 11.248236 -0.070927 7.004451
v 11.249976 0.264637 7.021068
v 11.241937 -0.070926 6.663143
v 11.250056 0.261771 6.676724
v 11.044245 0.267966 6.418310
v 9.059492 0.464414 6.375353
v 6.248607 0.467215 6.358722
v 6.123764 -0.070926 6.166556
v 6.112501 -0.070925 5.505545
v 12.526431 0.475435 6.183492
v 12.527669 0.463060 6.370920
v 12.523840 0.305506 6.411914
v 11.889505 0.253315 6.625892
v 11.874985 0.271756 6.999687
v 12.098055 0.320022 6.534834
v 12.080962 0.316151 6.914324
v 12.450597 0.466046 6.534833
v 12.455722 0.471929 6.914322
v 12.828180 0.313888 6.534833
v 12.831006 0.316478 6.914323
v 13.038463 0.261924 6.532035
v 13.029871 0.279799 6.915741
v 12.679020 0.285666 7.057203
v 13.581984 0.440911 5.597714
v 13.583533 0.435263 5.872964
v 13.474010 0.834528 5.597714
v 13.475560 0.828880 5.872965
v 13.940212 0.777501 5.597714
v 13.940212 0.777501 5.872965
v 14.344507 0.285241 5.594763
v 14.344519 0.285251 5.872964
v 14.356510 -0.070926 5.594763
v 14.356507 -0.070926 5.872964
v 14.414852 -0.070925 4.901497
v 14.421849 0.529001 5.215845
v 14.424430 0.670871 4.718362
v 14.429823 0.624208 4.465013
v 13.856838 0.606595 5.263346
v 14.413437 0.359481 5.407070
v 13.858953 0.449004 5.475570
v 14.234633 0.336016 5.543252
v 18.644214 -0.283800 5.348579
v 14.465212 -0.478617 5.318501
v 19.467599 -0.755260 4.679198
v 14.464651 -0.673306 4.726947
v 18.150114 -0.329354 2.827114
v 14.423516 -0.494540 3.780732
v 15.430393 -0.299515 3.570367
v 15.738909 -0.333994 3.005319
v 18.883644 -0.245994 5.427221
v 21.146862 -0.235740 5.608714
v 21.845117 -0.612419 5.193401
v 19.377603 -0.295590 2.278544
v 21.676365 -0.794963 4.595840
v 21.222055 -0.542390 1.020525
v 20.059215 -0.444517 1.144298
v 20.143908 -0.151815 1.173191
v 20.728957 -0.132489 0.704463
v 19.769345 -0.100542 1.886708
v 21.258003 -0.117125 0.100135
v 22.133785 -0.070926 6.290391
v 21.490392 -0.070922 -0.021290
v 21.467237 -0.070922 -0.014828
v 18.169966 -0.070924 2.869071
v 15.735880 -0.070924 3.003315
v 19.361310 -0.070924 2.247562
v 19.762555 -0.070922 0.956655
v 20.813165 -0.070922 -0.377100
v 20.154584 -0.070922 0.002344
v 19.965579 -0.070922 0.828449
v 21.029726 -0.070922 -0.009987
v 18.644214 0.141949 5.348580
v 18.305462 -0.070926 5.444810
v 14.459243 -0.070926 5.444978
v 14.465212 0.336767 5.318502
v 14.464651 0.531456 4.726948
v 19.467599 0.613409 4.679200
v 15.430393 0.157666 3.570367
v 15.738909 0.192146 3.005319
v 18.150114 0.187506 2.827114
v 21.845117 0.470567 5.193401
v 21.146862 0.093888 5.608714
v 18.883644 0.104143 5.427222
v 21.676365 0.653113 4.595841
v 19.377603 0.153743 2.278544
v 21.222055 0.400545 1.020525
v 20.059215 0.302672 1.144299
v 14.423516 0.352692 3.780732
v 14.374130 -0.070924 3.781907
v 15.432846 -0.070924 3.571616
v 20.046974 -0.070923 1.124488
v 20.143908 0.009970 1.173191
v 19.516000 -0.070922 0.500790
v 21.258003 -0.024719 0.100135
v 21.166492 -0.070922 -0.113323
v 20.728957 -0.009355 0.704463
v 20.422320 -0.070922 0.522137
v 19.769345 -0.041304 1.886708
v 19.740699 -0.070923 1.688676
v 20.585836 -0.070922 0.347663
v 21.437899 -0.070922 -0.011613
v 18.110327 -0.070926 5.805018
v 18.804679 -0.070926 5.608995
v 21.067606 -0.070926 5.803247
v 22.172741 -0.070926 6.305460
v 21.607979 -0.070925 3.998426
v 21.605520 -0.070925 3.988526
v 21.231913 -0.070923 1.646740
v -7.437795 0.204104 4.977554
v -7.437795 0.000276 5.258099
v -7.437795 -0.329525 5.150940
v -7.437795 -0.329524 4.804168
v -7.437795 0.000276 4.697009
v -0.549119 0.204105 4.977554
v -0.549119 0.000277 5.258099
v -0.549119 -0.329524 5.150940
v -0.549119 -0.329523 4.804168
v -0.549119 0.000277 4.697009
v -13.149875 0.370031 5.004144
v -13.149875 0.051549 5.442495
v -13.149875 -0.463764 5.275059
v -13.149875 -0.463764 4.733227
v -13.149875 0.051550 4.565792
v -6.261200 0.370032 5.004144
v -6.261200 0.051550 5.442494
v -6.261200 -0.463763 5.275059
v -6.261200 -0.463762 4.733227
v -6.261200 0.051551 4.565791
v -1.655430 -0.831751 3.590739
v 0.007714 -1.057189 3.593988
v -4.193055 -0.509834 4.095788
v -2.263948 -1.003073 4.104841
v -0.235567 -0.962150 4.190639
v 4.208878 -0.951465 3.693202
v 6.210079 -0.952656 4.193804
v -1.342300 -1.044434 4.938777
v 0.048130 -1.108423 4.984692
v 4.143353 -1.070412 4.990284
v 6.109797 -0.899676 5.039590
v -1.226460 -0.632573 5.832689
v 3.693080 -0.895116 5.781850
v 6.193708 -0.956439 5.604506
v -4.076853 -0.249948 6.981460
v -3.315034 -0.822478 3.881069
v -3.237553 -0.606241 3.457649
v -2.846915 -0.673507 4.605533
v -2.559860 -0.463178 5.377085
v -3.518736 -0.257387 6.980024
v 0.733224 -1.017712 4.280484
v 0.973898 -1.141168 3.691791
v 1.298869 -1.130426 5.421564
v 0.122779 -1.252618 5.313150
v -0.460016 -0.477955 6.054423
v 2.186985 -1.013777 4.134435
v 2.308860 -1.036922 3.588809
v 0.465997 -1.301196 3.398331
v 0.714233 -1.289851 3.400954
v 1.376370 -0.859807 5.865532
v 2.480997 -1.092937 5.310899
v 2.565295 -0.880116 5.804608
v -1.756637 -0.580654 3.324006
v -0.266149 -0.316247 3.406084
v -1.133843 -0.729156 3.565448
v -1.338250 -0.630494 3.349850
v 0.542877 -0.653211 3.776886
v 0.444218 -1.252130 3.378116
v 0.681016 -1.260785 3.379833
v -0.042919 -0.883835 3.607963
v -1.162781 -1.065471 4.398790
v 1.636670 -1.083123 3.713670
v 1.527844 -1.033944 4.352403
v -4.351243 -0.236716 3.761550
v -4.197372 -0.383275 3.441749
v 1.323134 -0.598713 4.002974
v 0.928033 -1.034132 3.643548
v 1.626366 -0.994537 3.665725
v 2.308925 -0.953994 3.546244
v 2.169831 -0.581386 3.680328
v 4.145417 -0.671420 3.251698
v 6.110300 -0.573556 3.757860
v 5.084648 -0.929020 5.683802
v 4.971363 -1.019558 5.528274
v 3.874221 -0.965637 5.463409
v 0.776714 -1.216569 5.087388
v 0.796017 -1.156234 5.508263
v 5.883908 -0.411599 6.136779
v 3.633810 -0.447900 6.124812
v -3.879261 -0.289112 7.066970
v -4.076853 -0.191556 6.997264
v -3.879261 -0.230721 7.082775
v -3.518736 -0.198995 6.995829
v -3.383963 -0.246826 6.838996
v -3.413691 -0.180926 6.875177
v -2.427307 -0.310123 5.811828
v -4.083617 -0.344022 4.704542
v -4.084301 -0.231877 6.843285
v -4.078492 -0.171246 6.840575
v -3.800912 -0.606716 4.732539
v -3.862778 -0.484733 5.184840
v -4.082671 -0.312129 5.098836
v -4.329364 -0.151726 4.016178
v -3.746183 -0.445625 4.293937
v -3.851923 -0.249142 4.311585
v 6.031965 -0.517517 4.984347
v 2.019071 -0.082240 6.115125
v -4.197372 0.241428 3.441749
v -4.351596 -0.070924 3.256317
v -4.345612 -0.070924 3.256489
v -3.367966 -0.070924 3.297784
v -3.237553 0.464394 3.457650
v -2.263948 0.861225 4.104843
v -1.162781 0.923621 4.398792
v -1.342300 0.902585 4.938778
v -0.235567 0.820301 4.190640
v 0.007714 0.915342 3.593989
v 0.973898 0.999320 3.691793
v 0.733224 0.875863 4.280486
v 4.208878 0.809617 3.693203
v 4.145417 0.529572 3.251699
v 6.110300 0.431708 3.757861
v 6.210079 0.810807 4.193806
v -3.746181 0.303777 4.293937
v -4.193055 0.367985 4.095788
v -3.315034 0.680630 3.881070
v -2.846915 0.531658 4.605534
v 0.048130 0.966574 4.984693
v 0.776714 1.074719 5.087390
v 4.143353 0.928563 4.990286
v 6.109797 0.757827 5.039592
v -3.862778 0.342884 5.184841
v -3.800912 0.464867 4.732539
v -2.559860 0.321328 5.377085
v -1.226460 0.490723 5.832690
v 0.122779 1.110768 5.313152
v -0.460016 0.336104 6.054423
v 0.796017 1.014384 5.508264
v -4.076853 0.108096 6.981460
v -3.518736 0.115534 6.980025
v -3.879261 0.147260 7.066971
v -1.244078 -0.070926 5.928807
v -0.453006 -0.070926 6.144071
v 5.084648 0.787168 5.683802
v 6.193708 0.814588 5.604506
v 5.883908 0.269748 6.136779
v -1.655430 0.689903 3.590740
v -2.427307 0.168273 5.811828
v -2.399005 -0.070926 5.800247
v -3.354298 -0.070926 6.842008
v -3.383963 0.104974 6.838996
v 1.636670 0.941275 3.713672
v 1.527844 0.892095 4.352404
v 1.298869 0.988576 5.421565
v 0.222446 -0.070926 6.322388
v 0.208938 -0.070926 6.322871
v 2.308860 0.895074 3.588810
v 2.186985 0.871928 4.134436
v 0.465997 1.159349 3.398333
v 0.714233 1.148004 3.400956
v 2.480997 0.951087 5.310901
v 2.565297 0.738265 5.804609
v 1.376370 0.717956 5.865533
v 2.713652 -0.070926 6.844238
v 1.255274 -0.070926 6.462799
v 3.874221 0.823786 5.463410
v 3.693080 0.753265 5.781850
v 2.022380 -0.070926 6.115849
v 3.633810 0.306048 6.124812
v 2.019070 -0.059611 6.115125
v 0.444218 1.110283 3.378117
v 0.681016 1.118937 3.379835
v -1.756637 0.438807 3.324007
v -1.801423 -0.070924 3.248626
v -0.995348 -0.070924 3.137888
v -0.966748 -0.070924 3.134001
v -1.338250 0.488647 3.349851
v -1.133843 0.587309 3.565450
v -0.200576 -0.070923 2.782439
v -0.266149 0.174400 3.406084
v -0.042919 0.741987 3.607964
v 0.542877 0.511363 3.776888
v -4.351243 0.094868 3.761550
v -5.704375 -0.070924 3.850286
v 0.505016 -0.070924 3.554678
v 1.280614 -0.070924 3.915711
v 1.311478 -0.070924 3.930165
v 1.323134 0.456865 4.002974
v 1.375656 -0.070924 3.937073
v 2.147537 -0.070924 3.596432
v 2.169831 0.439538 3.680329
v 1.626366 0.852690 3.665726
v 2.308925 0.812146 3.546245
v 0.928033 0.892284 3.643550
v 4.109289 -0.070924 3.259834
v 6.068483 -0.070924 3.581550
v 4.098360 -0.070924 3.260497
v 4.971363 0.877707 5.528275
v 5.999218 -0.070926 5.867262
v 3.604039 -0.070926 6.140551
v -4.084301 0.090024 6.843286
v -3.518736 0.057143 6.995829
v -3.879261 0.088868 7.082775
v -4.076853 0.049704 6.997265
v -3.413691 0.039074 6.875177
v -3.409560 -0.070926 6.891971
v -4.105083 -0.070926 6.847007
v -4.078490 0.029394 6.840575
v -4.103488 -0.070925 5.094348
v -4.082671 0.170280 5.098836
v -4.083617 0.202173 4.704542
v -4.103139 -0.070924 4.708859
v -4.329364 0.009877 4.016178
v -3.851923 0.107294 4.311585
v -3.881428 -0.070924 4.308712
v 6.031965 0.375667 4.984347
v 6.036005 -0.070925 4.969799
v 6.019567 -0.070925 5.371121
v 13.513311 -0.553218 4.528312
v 13.228751 -0.553219 5.215300
v 12.541763 -0.553219 5.499860
v 11.854776 -0.553219 5.215300
v 11.570216 -0.553218 4.528312
v 11.854776 -0.553218 3.841324
v 12.541763 -0.553218 3.556765
v 13.228751 -0.553218 3.841324
v 13.252141 -0.959141 4.528312
v 13.044077 -0.959141 5.030624
v 12.541765 -0.959141 5.238689
v 12.039451 -0.959141 5.030624
v 11.831386 -0.959141 4.528312
v 12.039451 -0.959140 4.025999
v 12.541765 -0.959140 3.817935
v 13.044077 -0.959140 4.025999
v 13.513311 0.411369 4.528312
v 13.228751 0.411369 5.215300
v 13.044077 0.817292 5.030625
v 13.252141 0.817292 4.528313
v 12.541763 0.411369 5.499860
v 12.541765 0.817291 5.238690
v 11.854776 0.411369 5.215300
v 12.039451 0.817291 5.030625
v 11.570216 0.411369 4.528312
v 11.831386 0.817292 4.528313
v 11.854776 0.411370 3.841324
v 12.039451 0.817291 4.026000
v 12.541763 0.411370 3.556765
v 12.541765 0.817292 3.817936
v 13.228751 0.411370 3.841324
v 13.044077 0.817292 4.026000
v 5.782195 -0.512292 -2.574804
v 5.782193 0.346247 -2.574802
v 8.214722 0.326268 -3.213082
v 8.217483 -0.488221 -3.213776
v 6.566230 0.352233 0.937079
v 9.057695 0.329082 0.380275
v 6.659425 0.364922 4.306551
v 6.659427 -0.530983 4.306550
v 8.105966 -0.546272 4.654471
v 8.105962 0.380218 4.654462
v 6.566241 -0.518297 0.937077
v 9.057695 -0.495129 0.380277
v 9.103515 -0.514431 4.646267
v 9.103503 0.348378 4.646265
v 6.519377 -0.070924 4.119929
v 6.202340 -0.070924 4.070283
v 6.519377 -0.070924 4.119929
v 6.208184 -0.070924 3.756761
v 6.516011 -0.070924 3.630668
v 6.208184 -0.070924 3.756761
v 6.202340 -0.070924 4.070283
v 6.208184 -0.070924 3.756761
v 6.202340 -0.070924 4.070283
v 6.411739 -0.070924 2.572661
v 6.502028 -0.070923 1.870946
v 6.411739 -0.070924 2.572661
v 6.516011 -0.070924 3.630668
v 6.411739 -0.070924 2.572661
v 6.516011 -0.070924 3.630668
v 6.502028 -0.070923 1.870946
v 8.287034 -0.070923 1.464735
v 6.502028 -0.070923 1.870946
v 8.287034 -0.070923 1.464735
v 9.275870 -0.070922 1.263168
v 8.287034 -0.070923 1.464735
v 9.746950 -0.070923 1.460417
v 9.275870 -0.070922 1.263168
v 9.746950 -0.070923 1.460417
v 9.059518 -0.530480 6.159094
v 9.059518 -0.530480 6.159094
v 9.059518 -0.530480 6.159094
v 9.059518 -0.530480 6.159094
v 9.059518 -0.530480 6.159094
v 12.530051 -0.530471 6.159094
v 9.059518 -0.530480 6.159094
v 11.432304 -0.070922 1.448945
v 12.125813 -0.070922 1.353810
v 11.432304 -0.070922 1.448945
v 11.432304 -0.070922 1.448945
v 11.432304 -0.070922 1.448945
v 9.746950 -0.070923 1.460417
v 9.674769 -0.070923 1.611941
v 9.568681 -0.070923 2.298554
v 9.674769 -0.070923 1.611941
v 11.392574 -0.070923 1.590820
v 9.674769 -0.070923 1.611941
v 11.392574 -0.070923 1.590820
v 9.765785 -0.070924 2.723587
v 11.335133 -0.070924 2.752038
v 9.765785 -0.070924 2.723587
v 9.568681 -0.070923 2.298554
v 9.765785 -0.070924 2.723587
v 9.568681 -0.070923 2.298554
v 11.335133 -0.070924 2.752038
v 11.622862 -0.070923 2.050831
v 11.335133 -0.070924 2.752038
v 11.622862 -0.070923 2.050831
v 11.392574 -0.070923 1.590820
v 11.622862 -0.070923 2.050831
v 13.894710 -0.070923 1.696280
v 13.424874 -0.070924 2.729506
v 13.894710 -0.070923 1.696280
v 13.372960 -0.070921 -0.918453
v 12.125813 -0.070922 1.353810
v 13.372960 -0.070921 -0.918453
v 13.894710 -0.070923 1.696280
v 13.894710 -0.070923 1.696280
v 15.608064 -0.070921 -0.895559
v 13.217389 -0.070921 -1.245776
v 13.372960 -0.070921 -0.918453
v 13.217389 -0.070921 -1.245776
v 13.369832 -0.070921 -1.431934
v 13.217389 -0.070921 -1.245776
v 13.369832 -0.070921 -1.431934
v 15.608064 -0.070921 -0.895559
v 13.369832 -0.070921 -1.431934
v 15.608064 -0.070921 -0.895559
v 13.615690 -0.070924 3.173651
v 13.424874 -0.070924 2.729506
v 13.615690 -0.070924 3.173651
v 14.347725 -0.070924 3.436506
v 13.615690 -0.070924 3.173651
v 14.347725 -0.070924 3.436506
v 12.801441 -0.532358 5.817709
v 12.806568 -0.530471 6.159094
v 12.806568 -0.530471 6.159094
v 13.333918 -0.560879 5.836466
v 12.867290 -0.618357 5.842740
v 13.333918 -0.560879 5.836466
v 13.614583 -0.427506 5.837947
v 13.487353 -0.534545 5.817674
v 13.614583 -0.427506 5.837947
v 13.487353 -0.534545 5.817674
v 13.746894 -0.070926 5.902479
v 13.614583 -0.427506 5.837947
v 13.744743 -0.070926 6.114581
v 13.746894 -0.070926 5.902479
v 13.553433 -0.070926 6.124051
v 13.744743 -0.070926 6.114581
v 13.407039 -0.400326 6.120410
v 13.553433 -0.070926 6.124051
v 13.397041 -0.070926 6.573661
v 13.553433 -0.070926 6.124051
v 13.407039 -0.400326 6.120410
v 13.407039 -0.400326 6.120410
v 13.397041 -0.070926 6.573661
v 13.407039 -0.400326 6.120410
v 13.407039 -0.400326 6.120410
v 12.806568 -0.530471 6.159094
v 13.407039 -0.400326 6.120410
v 13.407039 -0.400326 6.120410
v 12.544863 -0.442593 6.199642
v 12.544863 -0.442593 6.199642
v 12.529481 -0.437708 6.491868
v 13.269188 -0.070927 7.031246
v 13.269188 -0.070927 7.031246
v 13.397041 -0.070926 6.573661
v 12.544863 -0.442593 6.199642
v 13.022663 -0.070927 7.055220
v 13.269188 -0.070927 7.031246
v 13.010152 -0.435163 7.056770
v 13.022663 -0.070927 7.055220
v 13.010152 -0.435163 7.056770
v 13.007242 -0.375738 7.704897
v 13.007242 -0.375738 7.704897
v 12.653234 -0.375742 7.959336
v 13.007242 -0.375738 7.704897
v 12.653234 -0.375742 7.959336
v 11.741522 -0.350079 7.914263
v 12.653234 -0.375742 7.959336
v 11.741522 -0.350079 7.914263
v 6.485726 -0.338715 7.628791
v 11.741522 -0.350079 7.914263
v 6.485726 -0.338715 7.628791
v 6.172038 -0.329820 7.151632
v 6.485726 -0.338715 7.628791
v 6.172038 -0.329820 7.151632
v 6.169147 -0.070926 6.374680
v 6.172038 -0.329820 7.151632
v 6.171917 -0.377223 7.147864
v 6.171917 -0.377223 7.147864
v 6.169147 -0.070926 6.374680
v 6.172593 -0.070927 7.130664
v 6.172038 -0.329820 7.151632
v 6.169147 -0.070926 6.374680
v 6.600753 -0.320969 7.396817
v 6.172038 -0.329820 7.151632
v 6.172593 -0.070927 7.130664
v 6.172593 -0.070927 7.130664
v 6.601715 -0.070927 7.379744
v 6.600753 -0.320969 7.396817
v 11.887442 -0.329455 7.396418
v 6.600753 -0.320969 7.396817
v 6.601715 -0.070927 7.379744
v 6.601715 -0.070927 7.379744
v 11.894927 -0.070927 7.363811
v 11.887442 -0.329455 7.396418
v 13.011285 -0.368376 7.247145
v 11.887442 -0.329455 7.396418
v 11.894927 -0.070927 7.363811
v 11.894927 -0.070927 7.363811
v 13.016674 -0.070927 7.237795
v 13.011285 -0.368376 7.247145
v 13.011285 -0.368376 7.247145
v 13.016674 -0.070927 7.237795
v 13.022663 -0.070927 7.055220
v 13.010152 -0.435163 7.056770
v 13.010152 -0.435163 7.056770
v 13.016674 -0.070927 7.237795
v 6.672053 -0.452937 7.237906
v 6.672053 -0.452937 7.237906
v 6.672053 -0.452937 7.237906
v 6.460137 -0.433068 7.035472
v 6.171237 -0.377228 6.380220
v 6.460137 -0.433068 7.035472
v 6.460137 -0.433068 7.035472
v 6.456531 -0.430907 6.419872
v 6.171237 -0.377228 6.380220
v 6.462252 -0.070927 7.035817
v 6.672043 -0.070927 7.223668
v 6.462252 -0.070927 7.035817
v 6.547692 -0.070926 6.496254
v 6.456531 -0.430907 6.419872
v 6.462252 -0.070927 7.035817
v 6.547692 -0.070926 6.496254
v 6.672043 -0.070927 7.223668
v 11.009251 -0.453575 7.237903
v 11.009251 -0.453575 7.237903
v 11.016952 -0.070927 7.220572
v 6.672043 -0.070927 7.223668
v 11.248236 -0.070927 7.004451
v 11.016952 -0.070927 7.220572
v 11.009251 -0.453575 7.237903
v 11.009251 -0.453575 7.237903
v 11.249976 -0.406490 7.021068
v 11.248236 -0.070927 7.004451
v 11.241937 -0.070926 6.663143
v 11.248236 -0.070927 7.004451
v 11.249976 -0.406490 7.021068
v 11.249976 -0.406490 7.021068
v 11.250056 -0.403624 6.676724
v 11.241937 -0.070926 6.663143
v 11.033357 -0.070926 6.478795
v 11.241937 -0.070926 6.663143
v 11.250056 -0.403624 6.676724
v 11.250056 -0.403624 6.676724
v 11.044245 -0.409819 6.418310
v 11.033357 -0.070926 6.478795
v 6.547692 -0.070926 6.496254
v 11.033357 -0.070926 6.478795
v 11.044245 -0.409819 6.418310
v 11.044245 -0.409819 6.418310
v 6.456531 -0.430907 6.419872
v 6.547692 -0.070926 6.496254
v 6.127208 -0.530482 6.159882
v 6.127208 -0.530482 6.159882
v 6.248607 -0.609067 6.358722
v 11.044245 -0.409819 6.418310
v 6.248607 -0.609067 6.358722
v 6.248607 -0.609067 6.358722
v 6.456531 -0.430907 6.419872
v 11.044245 -0.409819 6.418310
v 6.248607 -0.609067 6.358722
v 6.171237 -0.377228 6.380220
v 6.127208 -0.530482 6.159882
v 6.123764 -0.070926 6.166556
v 6.127208 -0.530482 6.159882
v 6.123764 -0.070926 6.166556
v 6.169147 -0.070926 6.374680
v 6.112501 -0.070925 5.505545
v 6.123764 -0.070926 6.166556
v 6.112501 -0.070925 5.505545
v 12.526431 -0.617288 6.183492
v 12.526431 -0.617288 6.183492
v 12.526431 -0.617288 6.183492
v 12.530051 -0.530471 6.159094
v 12.530051 -0.530471 6.159094
v 12.530051 -0.530471 6.159094
v 12.544863 -0.442593 6.199642
v 12.523840 -0.447359 6.411914
v 12.527669 -0.604913 6.370919
v 12.523840 -0.447359 6.411914
v 12.529481 -0.437708 6.491868
v 12.527669 -0.604913 6.370919
v 11.044245 -0.409819 6.418310
v 12.523840 -0.447359 6.411914
v 11.044245 -0.409819 6.418310
v 12.098055 -0.461874 6.534833
v 11.889505 -0.395168 6.625891
v 11.874985 -0.413609 6.999687
v 11.874985 -0.413609 6.999687
v 12.098055 -0.461874 6.534833
v 12.098055 -0.461874 6.534833
v 13.038463 -0.403776 6.532035
v 13.038463 -0.403776 6.532035
v 13.029871 -0.421652 6.915740
v 13.029871 -0.421652 6.915740
v 12.098055 -0.461874 6.534833
v 13.010152 -0.435163 7.056770
v 13.029871 -0.421652 6.915740
v 13.010152 -0.435163 7.056770
v 13.010152 -0.435163 7.056770
v 12.679020 -0.427519 7.057203
v 12.679020 -0.427519 7.057203
v 11.874985 -0.413609 6.999687
v 11.874985 -0.413609 6.999687
v 12.529481 -0.437708 6.491868
v 12.529481 -0.437708 6.491868
v 12.828180 -0.455741 6.534833
v 12.529481 -0.437708 6.491868
v 12.098055 -0.461874 6.534833
v 13.581984 -0.582762 5.597714
v 13.583533 -0.577115 5.872964
v 13.581984 -0.582762 5.597714
v 13.583533 -0.577115 5.872964
v 13.583533 -0.577115 5.872964
v 13.475560 -0.970732 5.872964
v 13.940212 -0.919353 5.597713
v 13.474010 -0.976379 5.597713
v 13.940212 -0.919353 5.597713
v 14.344507 -0.427093 5.594763
v 13.940212 -0.919353 5.597713
v 14.344507 -0.427093 5.594763
v 14.356510 -0.070926 5.594763
v 14.344507 -0.427093 5.594763
v 14.356507 -0.070926 5.872964
v 14.356510 -0.070926 5.594763
v 13.746894 -0.070926 5.902479
v 14.356507 -0.070926 5.872964
v 13.746894 -0.070926 5.902479
v 13.614583 -0.427506 5.837947
v 13.583533 -0.577115 5.872964
v 14.414852 -0.070925 4.901497
v 14.385889 -0.070925 4.425571
v 14.347725 -0.070924 3.436506
v 14.385889 -0.070925 4.425571
v 14.414852 -0.070925 4.901497
v 14.385889 -0.070925 4.425571
v 14.414852 -0.070925 4.901497
v 14.288537 -0.070926 5.564802
v 14.427974 -0.070926 5.516263
v 14.427974 -0.070926 5.516263
v 14.356510 -0.070926 5.594763
v 14.288537 -0.070926 5.564802
v 14.288537 -0.070926 5.564802
v 14.234633 -0.477867 5.543252
v 13.581984 -0.582762 5.597714
v 13.581984 -0.582762 5.597714
v 14.234633 -0.477867 5.543252
v 6.519377 -0.070924 4.119929
v 6.519377 -0.070924 4.119929
v 6.112501 -0.070925 5.505545
v 14.427974 -0.070926 5.516263
v 14.414852 -0.070925 4.901497
v 14.414852 -0.070925 4.901497
v 9.059518 0.388628 6.159095
v 9.059518 0.388628 6.159095
v 9.059518 0.388628 6.159095
v 12.530051 0.388618 6.159095
v 9.059518 0.388628 6.159095
v 9.059518 0.388628 6.159095
v 9.059518 0.388628 6.159095
v 12.806568 0.388618 6.159095
v 12.806568 0.388618 6.159095
v 12.801441 0.390506 5.817709
v 13.333918 0.419027 5.836466
v 12.867290 0.476505 5.842741
v 13.333918 0.419027 5.836466
v 13.614583 0.285654 5.837947
v 13.487353 0.392693 5.817675
v 13.614583 0.285654 5.837947
v 13.487353 0.392693 5.817675
v 13.746894 -0.070926 5.902479
v 13.614583 0.285654 5.837947
v 13.746894 -0.070926 5.902479
v 13.553433 -0.070926 6.124051
v 13.407039 0.258474 6.120410
v 13.553433 -0.070926 6.124051
v 13.407039 0.258474 6.120410
v 13.407039 0.258474 6.120410
v 13.407039 0.258474 6.120410
v 13.407039 0.258474 6.120410
v 12.806568 0.388618 6.159095
v 13.407039 0.258474 6.120410
v 12.529481 0.295856 6.491869
v 12.544863 0.300741 6.199642
v 12.544863 0.300741 6.199642
v 13.407039 0.258474 6.120410
v 12.544863 0.300741 6.199642
v 13.022663 -0.070927 7.055220
v 13.010152 0.293310 7.056770
v 13.022663 -0.070927 7.055220
v 13.010152 0.293310 7.056770
v 13.007242 0.233884 7.704897
v 13.007242 0.233884 7.704897
v 12.653234 0.233887 7.959337
v 13.007242 0.233884 7.704897
v 12.653234 0.233887 7.959337
v 11.741522 0.208224 7.914263
v 12.653234 0.233887 7.959337
v 11.741522 0.208224 7.914263
v 6.485726 0.196861 7.628791
v 11.741522 0.208224 7.914263
v 6.485726 0.196861 7.628791
v 6.172038 0.187967 7.151632
v 6.485726 0.196861 7.628791
v 6.172038 0.187967 7.151632
v 6.171917 0.235370 7.147864
v 6.171917 0.235370 7.147864
v 6.172038 0.187967 7.151632
v 6.172038 0.187967 7.151632
v 6.600753 0.179115 7.396817
v 6.172038 0.187967 7.151632
v 6.600753 0.179115 7.396817
v 11.887442 0.187602 7.396418
v 6.600753 0.179115 7.396817
v 11.887442 0.187602 7.396418
v 13.011285 0.226522 7.247145
v 13.016674 -0.070927 7.237795
v 11.887442 0.187602 7.396418
v 13.011285 0.226522 7.247145
v 13.011285 0.226522 7.247145
v 13.010152 0.293310 7.056770
v 13.010152 0.293310 7.056770
v 6.672053 0.311084 7.237906
v 6.460137 0.291215 7.035472
v 6.672053 0.311084 7.237906
v 6.672053 0.311084 7.237906
v 6.171237 0.235376 6.380220
v 6.456531 0.289055 6.419872
v 6.460137 0.291215 7.035472
v 6.460137 0.291215 7.035472
v 6.171237 0.235376 6.380220
v 6.547692 -0.070926 6.496254
v 6.456531 0.289055 6.419872
v 6.547692 -0.070926 6.496254
v 11.009251 0.311721 7.237903
v 11.009251 0.311721 7.237903
v 11.249976 0.264637 7.021068
v 11.009251 0.311721 7.237903
v 11.009251 0.311721 7.237903
v 11.250056 0.261771 6.676724
v 11.249976 0.264637 7.021068
v 11.249976 0.264637 7.021068
v 11.044245 0.267966 6.418310
v 11.250056 0.261771 6.676724
v 11.250056 0.261771 6.676724
v 6.456531 0.289055 6.419872
v 11.044245 0.267966 6.418310
v 11.044245 0.267966 6.418310
v 6.248607 0.467215 6.358722
v 6.127208 0.388631 6.159883
v 6.127208 0.388631 6.159883
v 11.044245 0.267966 6.418310
v 6.456531 0.289055 6.419872
v 6.248607 0.467215 6.358722
v 6.248607 0.467215 6.358722
v 11.044245 0.267966 6.418310
v 6.171237 0.235376 6.380220
v 6.248607 0.467215 6.358722
v 6.127208 0.388631 6.159883
v 6.123764 -0.070926 6.166556
v 6.127208 0.388631 6.159883
v 6.123764 -0.070926 6.166556
v 12.526431 0.475435 6.183492
v 12.526431 0.475435 6.183492
v 12.530051 0.388618 6.159095
v 12.526431 0.475435 6.183492
v 12.530051 0.388618 6.159095
v 12.544863 0.300741 6.199642
v 12.530051 0.388618 6.159095
v 12.523840 0.305506 6.411914
v 12.527669 0.463060 6.370920
v 12.529481 0.295856 6.491869
v 12.523840 0.305506 6.411914
v 12.527669 0.463060 6.370920
v 11.044245 0.267966 6.418310
v 12.523840 0.305506 6.411914
v 11.044245 0.267966 6.418310
v 12.098055 0.320022 6.534834
v 11.874985 0.271756 6.999687
v 11.874985 0.271756 6.999687
v 11.889505 0.253315 6.625892
v 12.098055 0.320022 6.534834
v 12.098055 0.320022 6.534834
v 13.038463 0.261924 6.532035
v 13.038463 0.261924 6.532035
v 13.029871 0.279799 6.915741
v 13.029871 0.279799 6.915741
v 12.098055 0.320022 6.534834
v 13.010152 0.293310 7.056770
v 13.029871 0.279799 6.915741
v 12.679020 0.285666 7.057203
v 13.010152 0.293310 7.056770
v 13.010152 0.293310 7.056770
v 12.679020 0.285666 7.057203
v 11.874985 0.271756 6.999687
v 11.874985 0.271756 6.999687
v 12.828180 0.313888 6.534833
v 12.529481 0.295856 6.491869
v 12.529481 0.295856 6.491869
v 12.098055 0.320022 6.534834
v 12.529481 0.295856 6.491869
v 13.581984 0.440911 5.597714
v 13.583533 0.435263 5.872964
v 13.581984 0.440911 5.597714
v 13.475560 0.828880 5.872965
v 13.583533 0.435263 5.872964
v 13.583533 0.435263 5.872964
v 13.940212 0.777501 5.597714
v 13.474010 0.834528 5.597714
v 13.940212 0.777501 5.597714
v 14.344507 0.285241 5.594763
v 13.940212 0.777501 5.597714
v 14.344507 0.285241 5.594763
v 14.356510 -0.070926 5.594763
v 14.344507 0.285241 5.594763
v 14.356510 -0.070926 5.594763
v 13.583533 0.435263 5.872964
v 13.614583 0.285654 5.837947
v 14.288537 -0.070926 5.564802
v 14.234633 0.336016 5.543252
v 13.581984 0.440911 5.597714
v 13.581984 0.440911 5.597714
v 14.234633 0.336016 5.543252
v 14.459243 -0.070926 5.444978
v 18.305462 -0.070926 5.444810
v 18.305462 -0.070926 5.444810
v 14.374130 -0.070924 3.781907
v 15.432846 -0.070924 3.571616
v 14.374130 -0.070924 3.781907
v 15.735880 -0.070924 3.003315
v 15.432846 -0.070924 3.571616
v 15.735880 -0.070924 3.003315
v 15.735880 -0.070924 3.003315
v 18.169966 -0.070924 2.869071
v 15.735880 -0.070924 3.003315
v 19.361310 -0.070924 2.247562
v 18.169966 -0.070924 2.869071
v 19.361310 -0.070924 2.247562
v 20.046974 -0.070923 1.124488
v 19.361310 -0.070924 2.247562
v 20.046974 -0.070923 1.124488
v 21.467237 -0.070922 -0.014828
v 20.046974 -0.070923 1.124488
v 19.516000 -0.070922 0.500790
v 19.762555 -0.070922 0.956655
v 21.166492 -0.070922 -0.113323
v 20.813165 -0.070922 -0.377100
v 20.154584 -0.070922 0.002344
v 20.422320 -0.070922 0.522137
v 19.965579 -0.070922 0.828449
v 19.516000 -0.070922 0.500790
v 19.740699 -0.070923 1.688676
v 19.762555 -0.070922 0.956655
v 19.740699 -0.070923 1.688676
v 20.422320 -0.070922 0.522137
v 19.965579 -0.070922 0.828449
v 20.422320 -0.070922 0.522137
v 20.585836 -0.070922 0.347663
v 20.154584 -0.070922 0.002344
v 20.585836 -0.070922 0.347663
v 21.029726 -0.070922 -0.009987
v 20.585836 -0.070922 0.347663
v 20.813165 -0.070922 -0.377100
v 21.029726 -0.070922 -0.009987
v 21.437899 -0.070922 -0.011613
v 21.166492 -0.070922 -0.113323
v 18.110327 -0.070926 5.805018
v 18.305462 -0.070926 5.444810
v 18.804679 -0.070926 5.608995
v 18.110327 -0.070926 5.805018
v 18.804679 -0.070926 5.608995
v 21.067606 -0.070926 5.803247
v 18.804679 -0.070926 5.608995
v 21.067606 -0.070926 5.803247
v 22.133785 -0.070926 6.290391
v 21.067606 -0.070926 5.803247
v 22.133785 -0.070926 6.290391
v 22.133785 -0.070926 6.290391
v 22.172741 -0.070926 6.305460
v 21.607979 -0.070925 3.998426
v 22.172741 -0.070926 6.305460
v 21.607979 -0.070925 3.998426
v 21.607979 -0.070925 3.998426
v 21.605520 -0.070925 3.988526
v 21.605520 -0.070925 3.988526
v 21.605520 -0.070925 3.988526
v 21.231913 -0.070923 1.646740
v 21.490392 -0.070922 -0.021290
v 21.231913 -0.070923 1.646740
v 21.490392 -0.070922 -0.021290
v 21.490392 -0.070922 -0.021290
v 21.467237 -0.070922 -0.014828
v 14.374130 -0.070924 3.781907
v 14.374130 -0.070924 3.781907
v 14.459243 -0.070926 5.444978
v -0.549119 0.000277 5.258099
v -7.437795 0.000276 5.258099
v -7.437795 0.204104 4.977554
v -7.437795 0.204104 4.977554
v -0.549119 0.204105 4.977554
v -0.549119 0.000277 5.258099
v -0.549119 -0.329524 5.150940
v -7.437795 -0.329525 5.150940
v -7.437795 0.000276 5.258099
v -7.437795 0.000276 5.258099
v -0.549119 0.000277 5.258099
v -0.549119 -0.329524 5.150940
v -0.549119 -0.329523 4.804168
v -7.437795 -0.329524 4.804168
v -7.437795 -0.329525 5.150940
v -7.437795 -0.329525 5.150940
v -0.549119 -0.329524 5.150940
v -0.549119 -0.329523 4.804168
v -0.549119 0.000277 4.697009
v -7.437795 0.000276 4.697009
v -7.437795 -0.329524 4.804168
v -7.437795 -0.329524 4.804168
v -0.549119 -0.329523 4.804168
v -0.549119 0.000277 4.697009
v -0.549119 0.204105 4.977554
v -7.437795 0.204104 4.977554
v -7.437795 0.000276 4.697009
v -7.437795 0.000276 4.697009
v -0.549119 0.000277 4.697009
v -0.549119 0.204105 4.977554
v -6.261200 0.051550 5.442494
v -13.149875 0.051549 5.442495
v -13.149875 0.370031 5.004144
v -13.149875 0.370031 5.004144
v -6.261200 0.370032 5.004144
v -6.261200 0.051550 5.442494
v -6.261200 -0.463763 5.275059
v -13.149875 -0.463764 5.275059
v -13.149875 0.051549 5.442495
v -13.149875 0.051549 5.442495
v -6.261200 0.051550 5.442494
v -6.261200 -0.463763 5.275059
v -6.261200 -0.463762 4.733227
v -13.149875 -0.463764 4.733227
v -13.149875 -0.463764 5.275059
v -13.149875 -0.463764 5.275059
v -6.261200 -0.463763 5.275059
v -6.261200 -0.463762 4.733227
v -6.261200 0.051551 4.565791
v -13.149875 0.051550 4.565792
v -13.149875 -0.463764 4.733227
v -13.149875 -0.463764 4.733227
v -6.261200 -0.463762 4.733227
v -6.261200 0.051551 4.565791
v -6.261200 0.370032 5.004144
v -13.149875 0.370031 5.004144
v -13.149875 0.051550 4.565792
v -13.149875 0.051550 4.565792
v -6.261200 0.051551 4.565791
v -6.261200 0.370032 5.004144
v -3.367966 -0.070924 3.297784
v -4.345612 -0.070924 3.256489
v -4.351596 -0.070924 3.256317
v -3.367966 -0.070924 3.297784
v -4.351596 -0.070924 3.256317
v -4.351596 -0.070924 3.256317
v 6.110300 -0.573556 3.757860
v 6.110300 -0.573556 3.757860
v -3.879261 -0.289112 7.066970
v -3.518736 -0.257387 6.980024
v -4.076853 -0.249948 6.981460
v -1.244078 -0.070926 5.928807
v -1.244078 -0.070926 5.928807
v -0.453006 -0.070926 6.144071
v 5.883908 -0.411599 6.136779
v -3.354298 -0.070926 6.842008
v -2.399005 -0.070926 5.800247
v -2.399005 -0.070926 5.800247
v -1.244078 -0.070926 5.928807
v -1.244078 -0.070926 5.928807
v 0.208938 -0.070926 6.322871
v 0.222446 -0.070926 6.322388
v 0.222446 -0.070926 6.322388
v 1.255274 -0.070926 6.462799
v 2.713652 -0.070926 6.844238
v 2.713652 -0.070926 6.844238
v 2.022380 -0.070926 6.115849
v 2.022380 -0.070926 6.115849
v 2.022380 -0.070926 6.115849
v -0.966748 -0.070924 3.134001
v -0.995348 -0.070924 3.137888
v -0.995348 -0.070924 3.137888
v -1.801423 -0.070924 3.248626
v -1.801423 -0.070924 3.248626
v -0.200576 -0.070923 2.782439
v -0.966748 -0.070924 3.134001
v -0.966748 -0.070924 3.134001
v -5.704375 -0.070924 3.850286
v -4.351596 -0.070924 3.256317
v -4.351596 -0.070924 3.256317
v 1.311478 -0.070924 3.930165
v 1.280614 -0.070924 3.915711
v 0.505016 -0.070924 3.554678
v 1.311478 -0.070924 3.930165
v 0.505016 -0.070924 3.554678
v 1.311478 -0.070924 3.930165
v 2.147537 -0.070924 3.596432
v 1.375656 -0.070924 3.937073
v 1.375656 -0.070924 3.937073
v 1.375656 -0.070924 3.937073
v 1.311478 -0.070924 3.930165
v 6.068483 -0.070924 3.581550
v 4.109289 -0.070924 3.259834
v 6.110300 -0.573556 3.757860
v 6.068483 -0.070924 3.581550
v 4.109289 -0.070924 3.259834
v 4.098360 -0.070924 3.260497
v 4.098360 -0.070924 3.260497
v 5.883908 -0.411599 6.136779
v 3.604039 -0.070926 6.140551
v 5.999218 -0.070926 5.867262
v 5.999218 -0.070926 5.867262
v 5.883908 -0.411599 6.136779
v 2.022380 -0.070926 6.115849
v 3.604039 -0.070926 6.140551
v -0.453006 -0.070926 6.144071
v 0.208938 -0.070926 6.322871
v -3.518736 -0.257387 6.980024
v -4.076853 -0.249948 6.981460
v -3.518736 -0.257387 6.980024
v -3.518736 -0.198995 6.995829
v -3.879261 -0.230721 7.082775
v -3.518736 -0.198995 6.995829
v -3.879261 -0.230721 7.082775
v -4.076853 -0.191556 6.997264
v -3.879261 -0.230721 7.082775
v -3.518736 -0.198995 6.995829
v -3.413691 -0.180926 6.875177
v -3.383963 -0.246826 6.838996
v -3.383963 -0.246826 6.838996
v -3.518736 -0.198995 6.995829
v -3.409560 -0.070926 6.891971
v -3.354298 -0.070926 6.842008
v -3.383963 -0.246826 6.838996
v -3.383963 -0.246826 6.838996
v -3.413691 -0.180926 6.875177
v -3.409560 -0.070926 6.891971
v -2.399005 -0.070926 5.800247
v -1.244078 -0.070926 5.928807
v -4.105083 -0.070926 6.847007
v -3.409560 -0.070926 6.891971
v -4.105083 -0.070926 6.847007
v -4.103488 -0.070925 5.094348
v -4.105083 -0.070926 6.847007
v -4.078492 -0.171246 6.840575
v -4.078492 -0.171246 6.840575
v -4.103488 -0.070925 5.094348
v -4.078492 -0.171246 6.840575
v -4.076853 -0.191556 6.997264
v -4.084301 -0.231877 6.843285
v -4.078492 -0.171246 6.840575
v -4.078492 -0.171246 6.840575
v -4.078492 -0.171246 6.840575
v -4.103139 -0.070924 4.708859
v -4.103139 -0.070924 4.708859
v -4.103488 -0.070925 5.094348
v -5.704375 -0.070924 3.850286
v -4.103139 -0.070924 4.708859
v -3.881428 -0.070924 4.308712
v -4.103139 -0.070924 4.708859
v 5.999218 -0.070926 5.867262
v 6.019567 -0.070925 5.371121
v 6.036005 -0.070925 4.969799
v 6.019567 -0.070925 5.371121
v 5.999218 -0.070926 5.867262
v 6.036005 -0.070925 4.969799
v 6.068483 -0.070924 3.581550
v 6.036005 -0.070925 4.969799
v 0.222446 -0.070926 6.322388
v 0.222446 -0.070926 6.322388
v 1.255274 -0.070926 6.462799
v 0.505016 -0.070924 3.554678
v 0.505016 -0.070924 3.554678
v -0.200576 -0.070923 2.782439
v -1.801423 -0.070924 3.248626
v -1.801423 -0.070924 3.248626
v -3.367966 -0.070924 3.297784
v 2.147537 -0.070924 3.596432
v 4.098360 -0.070924 3.260497
v 6.110300 0.431708 3.757861
v 6.110300 0.431708 3.757861
v -3.518736 0.115534 6.980025
v -3.879261 0.147260 7.066971
v -4.076853 0.108096 6.981460
v 5.883908 0.269748 6.136779
v -3.354298 -0.070926 6.842008
v 2.022380 -0.070926 6.115849
v 6.068483 -0.070924 3.581550
v 6.110300 0.431708 3.757861
v 6.068483 -0.070924 3.581550
v 5.883908 0.269748 6.136779
v 5.883908 0.269748 6.136779
v 5.999218 -0.070926 5.867262
v 5.999218 -0.070926 5.867262
v -3.518736 0.115534 6.980025
v -4.076853 0.108096 6.981460
v -3.518736 0.115534 6.980025
v -3.518736 0.057143 6.995829
v -3.879261 0.088868 7.082775
v -3.518736 0.057143 6.995829
v -3.879261 0.088868 7.082775
v -4.076853 0.049704 6.997265
v -3.879261 0.088868 7.082775
v -3.518736 0.057143 6.995829
v -3.383963 0.104974 6.838996
v -3.383963 0.104974 6.838996
v -3.413691 0.039074 6.875177
v -3.518736 0.057143 6.995829
v -3.409560 -0.070926 6.891971
v -3.413691 0.039074 6.875177
v -3.383963 0.104974 6.838996
v -3.383963 0.104974 6.838996
v -3.409560 -0.070926 6.891971
v -4.105083 -0.070926 6.847007
v -4.105083 -0.070926 6.847007
v -4.078490 0.029394 6.840575
v -4.078490 0.029394 6.840575
v -4.078490 0.029394 6.840575
v -4.084301 0.090024 6.843286
v -4.076853 0.049704 6.997265
v -4.078490 0.029394 6.840575
v -4.078490 0.029394 6.840575
v -4.078490 0.029394 6.840575
v 13.044077 -0.959141 5.030624
v 13.252141 -0.959141 4.528312
v 13.044077 -0.959141 5.030624
v 12.541765 -0.959141 5.238689
v 12.541763 -0.553219 5.499860
v 13.044077 -0.959141 5.030624
v 12.541765 -0.959141 5.238689
v 12.039451 -0.959141 5.030624
v 12.541765 -0.959141 5.238689
v 12.039451 -0.959141 5.030624
v 11.831386 -0.959141 4.528312
v 12.039451 -0.959141 5.030624
v 11.831386 -0.959141 4.528312
v 12.039451 -0.959140 4.025999
v 11.831386 -0.959141 4.528312
v 12.039451 -0.959140 4.025999
v 12.541765 -0.959140 3.817935
v 12.039451 -0.959140 4.025999
v 12.541765 -0.959140 3.817935
v 13.044077 -0.959140 4.025999
v 12.541765 -0.959140 3.817935
v 13.044077 -0.959140 4.025999
v 13.252141 -0.959141 4.528312
v 13.044077 -0.959140 4.025999
v 13.252141 -0.959141 4.528312
v 13.044077 0.817292 5.030625
v 13.252141 0.817292 4.528313
v 13.044077 0.817292 5.030625
v 12.541765 0.817291 5.238690
v 13.044077 0.817292 5.030625
v 12.541763 0.411369 5.499860
v 12.541765 0.817291 5.238690
v 12.039451 0.817291 5.030625
v 12.541765 0.817291 5.238690
v 12.039451 0.817291 5.030625
v 11.831386 0.817292 4.528313
v 12.039451 0.817291 5.030625
v 11.831386 0.817292 4.528313
v 12.039451 0.817291 4.026000
v 11.831386 0.817292 4.528313
v 12.039451 0.817291 4.026000
v 12.541765 0.817292 3.817936
v 12.039451 0.817291 4.026000
v 12.541765 0.817292 3.817936
v 13.044077 0.817292 4.026000
v 12.541765 0.817292 3.817936
v 13.044077 0.817292 4.026000
v 13.252141 0.817292 4.528313
v 13.044077 0.817292 4.026000
v 13.252141 0.817292 4.528313
v 8.214722 0.326268 -3.213082
v 5.782193 0.346247 -2.574802
v 5.782193 0.346247 -2.574802
v 6.566230 0.352233 0.937079
v 5.782193 0.346247 -2.574802
v 5.782193 0.346247 -2.574802
v 8.214722 0.326268 -3.213082
v 6.566230 0.352233 0.937079
v 6.659425 0.364922 4.306551
v 6.566230 0.352233 0.937079
v 8.105962 0.380218 4.654462
v 6.659425 0.364922 4.306551
v 8.105962 0.380218 4.654462
v 9.057695 0.329082 0.380275
v 9.103503 0.348378 4.646265
v 9.057695 0.329082 0.380275
v 9.103503 0.348378 4.646265
v 8.105962 0.380218 4.654462
v 9.103503 0.348378 4.646265
v 8.105962 0.380218 4.654462
