version 1
nodes
  0 "v_weapon" -1
  1 "v_weapon.Bip01" 0
  2 "v_weapon.Bip01_Pelvis" 0
  3 "v_weapon.Bip01_Spine" 0
  4 "v_weapon.Bip01_Spine1" 0
  5 "v_weapon.Bip01_Spine2" 0
  6 "v_weapon.Bip01_Spine3" 0
  7 "v_weapon.Bip01_Neck" 0
  8 "v_weapon.Bip01_L_Clavicle" 0
  9 "v_weapon.Bip01_L_UpperArm" 0
  10 "v_weapon.Bip01_L_Forearm" 0
  11 "v_weapon.Bip01_L_Hand" 0
  12 "v_weapon.Bip01_L_ForeTwist" 0
  13 "v_weapon.Bip01_R_Clavicle" 0
  14 "v_weapon.Bip01_R_UpperArm" 0
  15 "v_weapon.Bip01_R_Forearm" 0
  16 "v_weapon.Bip01_R_Hand" 0
  17 "v_weapon.Bip01_R_ForeTwist" 0
  18 "v_weapon.Bip01_L_Finger0" 0
  19 "v_weapon.Bip01_L_Finger01" 0
  20 "v_weapon.Bip01_L_Finger02" 0
  21 "v_weapon.Bip01_L_Finger1" 0
  22 "v_weapon.Bip01_L_Finger11" 0
  23 "v_weapon.Bip01_L_Finger12" 0
  24 "v_weapon.Bip01_L_Finger2" 0
  25 "v_weapon.Bip01_L_Finger21" 0
  26 "v_weapon.Bip01_L_Finger22" 0
  27 "v_weapon.Bip01_L_Finger3" 0
  28 "v_weapon.Bip01_L_Finger31" 0
  29 "v_weapon.Bip01_L_Finger32" 0
  30 "v_weapon.Bip01_L_Finger4" 0
  31 "v_weapon.Bip01_L_Finger41" 0
  32 "v_weapon.Bip01_L_Finger42" 0
  33 "v_weapon.Bip01_R_Finger0" 0
  34 "v_weapon.Bip01_R_Finger01" 0
  35 "v_weapon.Bip01_R_Finger02" 0
  36 "v_weapon.Bip01_R_Finger1" 0
  37 "v_weapon.Bip01_R_Finger11" 0
  38 "v_weapon.Bip01_R_Finger12" 0
  39 "v_weapon.Bip01_R_Finger2" 0
  40 "v_weapon.Bip01_R_Finger21" 0
  41 "v_weapon.Bip01_R_Finger22" 0
  42 "v_weapon.Bip01_R_Finger3" 0
  43 "v_weapon.Bip01_R_Finger31" 0
  44 "v_weapon.Bip01_R_Finger32" 0
  45 "v_weapon.Bip01_R_Finger4" 0
  46 "v_weapon.Bip01_R_Finger41" 0
  47 "v_weapon.Bip01_R_Finger42" 0
  48 "FvARM-bone" 0
  49 "FvARM-bone Pelvis" 48
  50 "FvARM-bone Spine" 49
  51 "FvARM-bone Spine1" 50
  52 "FvARM-bone Neck" 51
  53 "FvARM-bone L Clavicle" 52
  54 "FvARM-bone L UpperArm" 53
  55 "FvARM-bone L ForeArm" 54
  56 "FvARM-bone L Hand" 55
  57 "FvARM-bone L Finger0" 56
  58 "FvARM-bone L Finger01" 57
  59 "FvARM-bone L Finger02" 58
  60 "FvARM-bone L Finger1" 56
  61 "FvARM-bone L Finger11" 60
  62 "FvARM-bone L Finger12" 61
  63 "FvARM-bone L Finger2" 56
  64 "FvARM-bone L Finger21" 63
  65 "FvARM-bone L Finger22" 64
  66 "FvARM-bone L Finger3" 56
  67 "FvARM-bone L Finger31" 66
  68 "FvARM-bone L Finger32" 67
  69 "FvARM-bone L Finger4" 56
  70 "FvARM-bone L Finger41" 69
  71 "FvARM-bone L Finger42" 70
  72 "FvARM-bone L ForeTwist" 54
  73 "FvARM-bone R Clavicle" 52
  74 "FvARM-bone R UpperArm" 73
  75 "FvARM-bone R ForeArm" 74
  76 "FvARM-bone R Hand" 75
  77 "FvARM-bone R Finger0" 76
  78 "FvARM-bone R Finger01" 77
  79 "FvARM-bone R Finger02" 78
  80 "FvARM-bone R Finger1" 76
  81 "FvARM-bone R Finger11" 80
  82 "FvARM-bone R Finger12" 81
  83 "FvARM-bone R Finger2" 76
  84 "FvARM-bone R Finger21" 83
  85 "FvARM-bone R Finger22" 84
  86 "FvARM-bone R Finger3" 76
  87 "FvARM-bone R Finger31" 86
  88 "FvARM-bone R Finger32" 87
  89 "FvARM-bone R Finger4" 76
  90 "FvARM-bone R Finger41" 89
  91 "FvARM-bone R Finger42" 90
  92 "FvARM-bone R ForeTwist" 74
  93 "Box001" 0
  94 "Box003" 93
  95 "Box007" 94
  96 "Box006" 94
  97 "Box005" 94
  98 "Box004" 94
  99 "Box008" 94
  100 "Box009" 94
  101 "v_weapon.flash" 93
  102 "v_weapon.shelleject" 93
  103 "v_weapon.stattrack" 93
  104 "v_weapon.uid" 93
  105 "v_weapon.glock_Parent" 93
  106 "v_weapon.glock_Slide" 93
  107 "v_weapon.glock_Trigger" 93
  108 "v_weapon.glock_Clip" 93
end
skeleton
  time 0
    0 0.000000 0.000000 0.000000 0.000000 0.000000 0.000000
    1 0.000000 500.000000 0.000000 0.000000 -0.000000 0.000000
    2 0.000000 500.000000 0.000000 0.000000 -0.000000 0.000000
    3 0.000000 500.000000 0.000000 0.000000 -0.000000 0.000000
    4 0.000000 500.000000 0.000000 0.000000 -0.000000 0.000000
    5 0.000000 500.000000 0.000000 0.000000 -0.000000 0.000000
    6 0.000000 500.000000 0.000000 0.000000 -0.000000 0.000000
    7 0.000000 500.000000 0.000000 0.000000 -0.000000 0.000000
    8 0.000000 500.000000 0.000000 0.000000 -0.000000 0.000000
    9 0.000000 500.000000 0.000000 0.000000 -0.000000 0.000000
    10 0.000000 500.000000 0.000000 0.000000 -0.000000 0.000000
    11 0.000000 500.000000 0.000000 0.000000 -0.000000 0.000000
    12 0.000000 500.000000 0.000000 0.000000 -0.000000 0.000000
    13 0.000000 500.000000 0.000000 0.000000 -0.000000 0.000000
    14 0.000000 500.000000 0.000000 0.000000 -0.000000 0.000000
    15 0.000000 500.000000 0.000000 0.000000 -0.000000 0.000000
    16 0.000000 500.000000 0.000000 0.000000 -0.000000 0.000000
    17 0.000000 500.000000 0.000000 0.000000 -0.000000 0.000000
    18 0.000000 500.000000 0.000000 0.000000 -0.000000 0.000000
    19 0.000000 500.000000 0.000000 0.000000 -0.000000 0.000000
    20 0.000000 500.000000 0.000000 0.000000 -0.000000 0.000000
    21 0.000000 500.000000 0.000000 0.000000 -0.000000 0.000000
    22 0.000000 500.000000 0.000000 0.000000 -0.000000 0.000000
    23 0.000000 500.000000 0.000000 0.000000 -0.000000 0.000000
    24 0.000000 500.000000 0.000000 0.000000 -0.000000 0.000000
    25 0.000000 500.000000 0.000000 0.000000 -0.000000 0.000000
    26 0.000000 500.000000 0.000000 0.000000 -0.000000 0.000000
    27 0.000000 500.000000 0.000000 0.000000 -0.000000 0.000000
    28 0.000000 500.000000 0.000000 0.000000 -0.000000 0.000000
    29 0.000000 500.000000 0.000000 0.000000 -0.000000 0.000000
    30 0.000000 500.000000 0.000000 0.000000 -0.000000 0.000000
    31 0.000000 500.000000 0.000000 0.000000 -0.000000 0.000000
    32 0.000000 500.000000 0.000000 0.000000 -0.000000 0.000000
    33 0.000000 500.000000 0.000000 0.000000 -0.000000 0.000000
    34 0.000000 500.000000 0.000000 0.000000 -0.000000 0.000000
    35 0.000000 500.000000 0.000000 0.000000 -0.000000 0.000000
    36 0.000000 500.000000 0.000000 0.000000 -0.000000 0.000000
    37 0.000000 500.000000 0.000000 0.000000 -0.000000 0.000000
    38 0.000000 500.000000 0.000000 0.000000 -0.000000 0.000000
    39 0.000000 500.000000 0.000000 0.000000 -0.000000 0.000000
    40 0.000000 500.000000 0.000000 0.000000 -0.000000 0.000000
    41 0.000000 500.000000 0.000000 0.000000 -0.000000 0.000000
    42 0.000000 500.000000 0.000000 0.000000 -0.000000 0.000000
    43 0.000000 500.000000 0.000000 0.000000 -0.000000 0.000000
    44 0.000000 500.000000 0.000000 0.000000 -0.000000 0.000000
    45 0.000000 500.000000 0.000000 0.000000 -0.000000 0.000000
    46 0.000000 500.000000 0.000000 0.000000 -0.000000 0.000000
    47 0.000000 500.000000 0.000000 0.000000 -0.000000 0.000000
    48 -3.936473 1.533545 -22.035890 0.043781 0.024714 1.570707
    49 4.382121 0.416647 4.575281 -0.005882 1.526905 -1.618466
    50 -4.641472 0.171584 0.038427 0.000012 0.000029 0.000795
    51 -4.355366 1.783588 2.504777 0.471209 -0.002912 -0.005138
    52 -9.748767 1.090499 0.055647 0.000016 0.000059 0.001711
    53 6.216464 -8.667295 8.241883 1.262029 0.965791 -1.983127
    54 0.237957 -8.390034 5.287631 0.917612 -0.626979 -2.304487
    55 -5.780967 -0.850663 0.084299 0.000952 -0.022003 -0.629625
    56 -3.572285 -3.079618 10.038389 2.487214 0.644222 0.392455
    57 0.312431 -8.855935 -1.550667 -1.341573 -0.292407 -0.223451
    58 -3.744707 -0.571245 0.055299 0.009941 0.016408 0.546282
    59 -2.671030 -0.302719 0.035855 0.006509 0.012700 0.404040
    60 -6.278615 -0.841150 -1.098510 -0.017309 0.171278 0.697318
    61 -4.173331 -1.167270 0.079809 0.016411 0.021217 0.773521
    62 -4.303761 -1.269012 0.084537 0.017446 0.021795 0.806884
    63 -6.156979 -0.353958 -0.188309 0.003834 0.074800 0.723881
    64 -4.264961 -1.120929 0.079096 0.015946 0.020943 0.758327
    65 -3.864700 -0.857963 0.066267 0.013155 0.019083 0.663964
    66 -6.581797 -0.477666 0.877938 0.069944 0.082392 0.807064
    67 -4.715601 -1.766778 0.105523 0.022297 0.023947 0.956303
    68 -3.907631 -0.910516 0.068477 0.013722 0.019492 0.683609
    69 -6.982421 -0.355483 2.238442 0.202056 0.041753 0.900207
    70 -4.495627 -1.796733 0.104451 0.022562 0.024040 0.964209
    71 -4.789816 -2.035810 0.115449 0.024798 0.024737 1.030096
    72 -5.178366 -0.012360 1.236466 0.241112 -0.023599 -0.632057
    73 -3.061748 -8.850421 2.167669 0.177366 -1.380541 2.992474
    74 -3.810033 -0.587662 -0.368942 -0.475593 0.582962 -1.375081
    75 -4.077706 -3.930940 0.173585 0.020634 -0.042377 -1.449328
    76 -3.389618 -9.226727 4.123094 -2.164750 -0.011455 0.655767
    77 1.293092 -5.710228 12.474580 2.669832 0.165045 0.432275
    78 -3.426358 -0.405775 0.046592 0.007917 0.014350 0.465063
    79 -1.944905 -0.084606 0.021454 0.003116 0.007631 0.232297
    80 -3.076700 0.846977 1.144071 0.012098 -0.017090 0.055572
    81 -1.543417 -0.035599 -0.010775 -0.004759 0.006490 0.108475
    82 -1.953096 0.037409 0.102502 0.021232 -0.011388 0.214458
    83 -5.000989 0.490840 0.232712 -0.002072 -0.101618 0.590977
    84 -4.939331 -1.885083 0.111711 0.023419 0.024326 0.989621
    85 -5.148520 -2.359037 0.129947 0.027739 0.025415 1.115043
    86 -5.182119 -0.031648 -0.744280 -0.053768 -0.103666 0.699380
    87 -4.772086 -1.844271 0.108717 0.023027 0.024198 0.978021
    88 -5.239050 -2.600095 0.139068 0.029869 0.025745 1.175683
    89 -5.091835 -0.378864 -1.602364 -0.079397 -0.011289 0.631412
    90 -4.298837 -1.547703 0.094041 0.020181 0.023114 0.892317
    91 -5.401552 -3.576395 0.174068 0.038100 0.025807 1.407785
    92 -5.299263 -4.099897 -0.710335 -0.214907 -0.040333 -1.447337
    93 -4.988518 -4.474865 -4.694159 0.000000 0.000000 -0.000000
    94 -0.042474 -3.591029 -0.924564 0.000000 -0.000000 0.000000
    95 -0.272662 1.954627 0.707806 0.000000 -0.000000 0.000000
    96 0.326769 1.949929 0.702248 0.000000 -0.000000 0.000000
    97 -0.266687 1.976085 1.334098 0.000000 -0.000000 0.000000
    98 0.332744 1.971387 1.328540 0.000000 -0.000000 0.000000
    99 0.043933 0.158789 1.574819 0.000000 -0.000000 0.000000
    100 0.048536 0.770840 1.553805 0.000000 -0.000000 0.000000
    101 -2.266724 -17.273188 2.691413 -0.000082 -0.011209 1.570742
    102 -2.272339 -11.916818 3.087259 -1.582724 0.349125 3.137458
    103 -2.566252 -16.157913 1.680758 0.011209 -0.000082 -0.000055
    104 -2.807336 -10.653466 -0.621820 0.321796 -0.000082 -0.000055
    105 0.000000 0.000000 0.000000 0.000000 -0.000000 0.000000
    106 0.000000 0.000000 0.000000 0.000000 -0.000000 0.000000
    107 0.000000 0.000000 0.000000 0.000000 -0.000000 0.000000
    108 0.000000 0.000000 0.000000 0.000000 -0.000000 0.000000
  time 1
    0 0.000000 0.000000 0.000000 0.000000 0.000000 0.000000
    1 0.000000 500.000000 0.000000 0.000000 -0.000000 0.000000
    2 0.000000 500.000000 0.000000 0.000000 -0.000000 0.000000
    3 0.000000 500.000000 0.000000 0.000000 -0.000000 0.000000
    4 0.000000 500.000000 0.000000 0.000000 -0.000000 0.000000
    5 0.000000 500.000000 0.000000 0.000000 -0.000000 0.000000
    6 0.000000 500.000000 0.000000 0.000000 -0.000000 0.000000
    7 0.000000 500.000000 0.000000 0.000000 -0.000000 0.000000
    8 0.000000 500.000000 0.000000 0.000000 -0.000000 0.000000
    9 0.000000 500.000000 0.000000 0.000000 -0.000000 0.000000
    10 0.000000 500.000000 0.000000 0.000000 -0.000000 0.000000
    11 0.000000 500.000000 0.000000 0.000000 -0.000000 0.000000
    12 0.000000 500.000000 0.000000 0.000000 -0.000000 0.000000
    13 0.000000 500.000000 0.000000 0.000000 -0.000000 0.000000
    14 0.000000 500.000000 0.000000 0.000000 -0.000000 0.000000
    15 0.000000 500.000000 0.000000 0.000000 -0.000000 0.000000
    16 0.000000 500.000000 0.000000 0.000000 -0.000000 0.000000
    17 0.000000 500.000000 0.000000 0.000000 -0.000000 0.000000
    18 0.000000 500.000000 0.000000 0.000000 -0.000000 0.000000
    19 0.000000 500.000000 0.000000 0.000000 -0.000000 0.000000
    20 0.000000 500.000000 0.000000 0.000000 -0.000000 0.000000
    21 0.000000 500.000000 0.000000 0.000000 -0.000000 0.000000
    22 0.000000 500.000000 0.000000 0.000000 -0.000000 0.000000
    23 0.000000 500.000000 0.000000 0.000000 -0.000000 0.000000
    24 0.000000 500.000000 0.000000 0.000000 -0.000000 0.000000
    25 0.000000 500.000000 0.000000 0.000000 -0.000000 0.000000
    26 0.000000 500.000000 0.000000 0.000000 -0.000000 0.000000
    27 0.000000 500.000000 0.000000 0.000000 -0.000000 0.000000
    28 0.000000 500.000000 0.000000 0.000000 -0.000000 0.000000
    29 0.000000 500.000000 0.000000 0.000000 -0.000000 0.000000
    30 0.000000 500.000000 0.000000 0.000000 -0.000000 0.000000
    31 0.000000 500.000000 0.000000 0.000000 -0.000000 0.000000
    32 0.000000 500.000000 0.000000 0.000000 -0.000000 0.000000
    33 0.000000 500.000000 0.000000 0.000000 -0.000000 0.000000
    34 0.000000 500.000000 0.000000 0.000000 -0.000000 0.000000
    35 0.000000 500.000000 0.000000 0.000000 -0.000000 0.000000
    36 0.000000 500.000000 0.000000 0.000000 -0.000000 0.000000
    37 0.000000 500.000000 0.000000 0.000000 -0.000000 0.000000
    38 0.000000 500.000000 0.000000 0.000000 -0.000000 0.000000
    39 0.000000 500.000000 0.000000 0.000000 -0.000000 0.000000
    40 0.000000 500.000000 0.000000 0.000000 -0.000000 0.000000
    41 0.000000 500.000000 0.000000 0.000000 -0.000000 0.000000
    42 0.000000 500.000000 0.000000 0.000000 -0.000000 0.000000
    43 0.000000 500.000000 0.000000 0.000000 -0.000000 0.000000
    44 0.000000 500.000000 0.000000 0.000000 -0.000000 0.000000
    45 0.000000 500.000000 0.000000 0.000000 -0.000000 0.000000
    46 0.000000 500.000000 0.000000 0.000000 -0.000000 0.000000
    47 0.000000 500.000000 0.000000 0.000000 -0.000000 0.000000
    48 -3.936473 1.533545 -22.035890 0.043781 0.024714 1.570707
    49 4.382121 0.416647 4.575281 -0.005882 1.526905 -1.618466
    50 -4.641472 0.171584 0.038427 0.000012 0.000029 0.000795
    51 -4.355366 1.783588 2.504777 0.471209 -0.002912 -0.005138
    52 -9.748767 1.090499 0.055647 0.000016 0.000059 0.001711
    53 6.216464 -8.667295 8.241883 1.262029 0.965791 -1.983127
    54 0.180276 -8.473180 5.008116 0.864080 -0.804402 -2.291551
    55 -4.690740 -2.072764 0.115769 0.007778 -0.033273 -1.002421
    56 -3.426322 -2.245435 9.664075 2.614690 0.716025 0.744982
    57 0.312431 -8.855937 -1.550667 -1.341573 -0.292407 -0.223451
    58 -3.744707 -0.571245 0.055299 0.009941 0.016408 0.546282
    59 -2.671030 -0.302719 0.035855 0.006509 0.012700 0.404040
    60 -6.278614 -0.841150 -1.098510 -0.017309 0.171278 0.697317
    61 -4.173331 -1.167270 0.079809 0.016411 0.021217 0.773521
    62 -4.303761 -1.269014 0.084539 0.017446 0.021795 0.806884
    63 -6.156979 -0.353960 -0.188309 0.003834 0.074800 0.723881
    64 -4.264961 -1.120929 0.079094 0.015946 0.020943 0.758327
    65 -3.864700 -0.857963 0.066267 0.013155 0.019083 0.663964
    66 -6.581797 -0.477666 0.877938 0.069944 0.082392 0.807064
    67 -4.715604 -1.766780 0.105525 0.022297 0.023947 0.956304
    68 -3.907631 -0.910516 0.068476 0.013722 0.019492 0.683609
    69 -6.982422 -0.355483 2.238440 0.202056 0.041753 0.900207
    70 -4.495627 -1.796733 0.104449 0.022562 0.024040 0.964209
    71 -4.789816 -2.035812 0.115450 0.024798 0.024737 1.030096
    72 -3.821941 -1.494012 1.302839 0.253230 -0.034937 -1.004921
    73 -3.061748 -8.850421 2.167669 0.177366 -1.380541 2.992474
    74 -3.936513 0.063148 0.123022 -0.353035 0.667606 -1.181177
    75 -4.193581 -5.437452 0.226305 0.032510 -0.045043 -1.793462
    76 -2.317517 -8.139317 4.066173 -2.156333 0.040854 0.901671
    77 1.293092 -5.710228 12.474580 2.669832 0.165045 0.432275
    78 -3.426358 -0.405775 0.046592 0.007917 0.014350 0.465063
    79 -1.944905 -0.084608 0.021454 0.003116 0.007631 0.232297
    80 -3.076700 0.846977 1.144070 0.012098 -0.017090 0.055572
    81 -1.543417 -0.035599 -0.010775 -0.004759 0.006490 0.108475
    82 -1.953097 0.037418 0.102510 0.021234 -0.011388 0.214458
    83 -5.000989 0.490840 0.232710 -0.002072 -0.101618 0.590977
    84 -4.939329 -1.885083 0.111711 0.023419 0.024326 0.989621
    85 -5.148520 -2.359037 0.129947 0.027739 0.025415 1.115043
    86 -5.182110 -0.031643 -0.744281 -0.053768 -0.103666 0.699378
    87 -4.772088 -1.844275 0.108717 0.023027 0.024198 0.978021
    88 -5.239050 -2.600095 0.139068 0.029869 0.025745 1.175683
    89 -5.091835 -0.378863 -1.602364 -0.079397 -0.011289 0.631412
    90 -4.298837 -1.547703 0.094041 0.020181 0.023114 0.892317
    91 -5.401552 -3.576395 0.174068 0.038100 0.025807 1.407785
    92 -5.643151 -5.135170 -0.810952 -0.248430 -0.042510 -1.791117
    93 -4.971328 -2.300536 -4.678258 0.100039 -0.000736 -0.000965
    94 -0.042474 -3.591028 -0.924562 0.000000 0.000000 0.000000
    95 -0.272662 1.954627 0.707806 0.000000 0.000000 0.000000
    96 0.326769 1.949929 0.702248 0.000000 0.000000 0.000000
    97 -0.266687 1.976085 1.334098 0.000000 0.000000 0.000000
    98 0.332744 1.971387 1.328540 0.000000 0.000000 0.000000
    99 0.043933 0.158789 1.574819 0.000000 0.000000 0.000000
    100 0.048536 0.770840 1.553805 0.000000 0.000000 0.000000
    101 -2.266724 -17.273188 2.691413 -0.000082 -0.011209 1.570742
    102 -2.272339 -11.916818 3.087259 -1.582724 0.349125 3.137458
    103 -2.566252 -16.157913 1.680758 0.011209 -0.000082 -0.000055
    104 -2.807336 -10.653466 -0.621820 0.321796 -0.000082 -0.000055
    105 0.000000 0.000000 0.000000 0.000000 0.000000 0.000000
    106 0.000000 0.000000 0.000000 0.000000 0.000000 0.000000
    107 0.000000 0.000000 0.000000 0.000000 0.000000 0.000000
    108 0.000000 0.000000 0.000000 0.000000 0.000000 0.000000
  time 2
    0 0.000000 0.000000 0.000000 0.000000 0.000000 0.000000
    1 0.000000 500.000000 0.000000 0.000000 -0.000000 0.000000
    2 0.000000 500.000000 0.000000 0.000000 -0.000000 0.000000
    3 0.000000 500.000000 0.000000 0.000000 -0.000000 0.000000
    4 0.000000 500.000000 0.000000 0.000000 -0.000000 0.000000
    5 0.000000 500.000000 0.000000 0.000000 -0.000000 0.000000
    6 0.000000 500.000000 0.000000 0.000000 -0.000000 0.000000
    7 0.000000 500.000000 0.000000 0.000000 -0.000000 0.000000
    8 0.000000 500.000000 0.000000 0.000000 -0.000000 0.000000
    9 0.000000 500.000000 0.000000 0.000000 -0.000000 0.000000
    10 0.000000 500.000000 0.000000 0.000000 -0.000000 0.000000
    11 0.000000 500.000000 0.000000 0.000000 -0.000000 0.000000
    12 0.000000 500.000000 0.000000 0.000000 -0.000000 0.000000
    13 0.000000 500.000000 0.000000 0.000000 -0.000000 0.000000
    14 0.000000 500.000000 0.000000 0.000000 -0.000000 0.000000
    15 0.000000 500.000000 0.000000 0.000000 -0.000000 0.000000
    16 0.000000 500.000000 0.000000 0.000000 -0.000000 0.000000
    17 0.000000 500.000000 0.000000 0.000000 -0.000000 0.000000
    18 0.000000 500.000000 0.000000 0.000000 -0.000000 0.000000
    19 0.000000 500.000000 0.000000 0.000000 -0.000000 0.000000
    20 0.000000 500.000000 0.000000 0.000000 -0.000000 0.000000
    21 0.000000 500.000000 0.000000 0.000000 -0.000000 0.000000
    22 0.000000 500.000000 0.000000 0.000000 -0.000000 0.000000
    23 0.000000 500.000000 0.000000 0.000000 -0.000000 0.000000
    24 0.000000 500.000000 0.000000 0.000000 -0.000000 0.000000
    25 0.000000 500.000000 0.000000 0.000000 -0.000000 0.000000
    26 0.000000 500.000000 0.000000 0.000000 -0.000000 0.000000
    27 0.000000 500.000000 0.000000 0.000000 -0.000000 0.000000
    28 0.000000 500.000000 0.000000 0.000000 -0.000000 0.000000
    29 0.000000 500.000000 0.000000 0.000000 -0.000000 0.000000
    30 0.000000 500.000000 0.000000 0.000000 -0.000000 0.000000
    31 0.000000 500.000000 0.000000 0.000000 -0.000000 0.000000
    32 0.000000 500.000000 0.000000 0.000000 -0.000000 0.000000
    33 0.000000 500.000000 0.000000 0.000000 -0.000000 0.000000
    34 0.000000 500.000000 0.000000 0.000000 -0.000000 0.000000
    35 0.000000 500.000000 0.000000 0.000000 -0.000000 0.000000
    36 0.000000 500.000000 0.000000 0.000000 -0.000000 0.000000
    37 0.000000 500.000000 0.000000 0.000000 -0.000000 0.000000
    38 0.000000 500.000000 0.000000 0.000000 -0.000000 0.000000
    39 0.000000 500.000000 0.000000 0.000000 -0.000000 0.000000
    40 0.000000 500.000000 0.000000 0.000000 -0.000000 0.000000
    41 0.000000 500.000000 0.000000 0.000000 -0.000000 0.000000
    42 0.000000 500.000000 0.000000 0.000000 -0.000000 0.000000
    43 0.000000 500.000000 0.000000 0.000000 -0.000000 0.000000
    44 0.000000 500.000000 0.000000 0.000000 -0.000000 0.000000
    45 0.000000 500.000000 0.000000 0.000000 -0.000000 0.000000
    46 0.000000 500.000000 0.000000 0.000000 -0.000000 0.000000
    47 0.000000 500.000000 0.000000 0.000000 -0.000000 0.000000
    48 -3.936473 1.533545 -22.035890 0.043781 0.024714 1.570707
    49 4.382121 0.416647 4.575281 -0.005882 1.526905 -1.618466
    50 -4.641472 0.171584 0.038427 0.000012 0.000029 0.000795
    51 -4.355366 1.783588 2.504777 0.471209 -0.002912 -0.005138
    52 -9.748767 1.090499 0.055647 0.000016 0.000059 0.001711
    53 6.216464 -8.667295 8.241883 1.262029 0.965791 -1.983127
    54 0.239090 -8.402231 5.090122 0.881256 -0.742651 -2.287888
    55 -4.895360 -1.763188 0.107115 0.005880 -0.030969 -0.918389
    56 -3.501265 -2.206911 9.709478 2.494986 0.723337 0.583772
    57 0.312431 -8.855937 -1.550667 -1.341573 -0.292407 -0.223451
    58 -3.744707 -0.571245 0.055299 0.009941 0.016408 0.546282
    59 -2.671030 -0.302718 0.035855 0.006509 0.012700 0.404040
    60 -6.278612 -0.841149 -1.098510 -0.017309 0.171278 0.697317
    61 -4.173331 -1.167270 0.079809 0.016411 0.021217 0.773521
    62 -4.303763 -1.269014 0.084538 0.017446 0.021795 0.806884
    63 -6.156979 -0.353959 -0.188310 0.003834 0.074800 0.723881
    64 -4.264962 -1.120929 0.079095 0.015946 0.020943 0.758327
    65 -3.864700 -0.857962 0.066267 0.013155 0.019083 0.663964
    66 -6.581797 -0.477666 0.877937 0.069944 0.082392 0.807064
    67 -4.715604 -1.766779 0.105523 0.022297 0.023947 0.956304
    68 -3.907631 -0.910516 0.068477 0.013722 0.019492 0.683609
    69 -6.982422 -0.355482 2.238440 0.202056 0.041753 0.900207
    70 -4.495627 -1.796733 0.104451 0.022562 0.024040 0.964209
    71 -4.789816 -2.035810 0.115449 0.024798 0.024737 1.030096
    72 -4.141173 -1.168901 1.169934 0.228169 -0.032778 -0.920626
    73 -3.061748 -8.850421 2.167669 0.177366 -1.380541 2.992474
    74 -3.915930 -0.172604 -0.074967 -0.400980 0.635831 -1.244004
    75 -4.116773 -5.070420 0.212999 0.029502 -0.044767 -1.708444
    76 -2.760217 -8.654374 4.100690 -2.161260 -0.010865 0.788673
    77 1.293090 -5.710223 12.474581 2.669831 0.165045 0.432275
    78 -3.426358 -0.405775 0.046592 0.007917 0.014350 0.465063
    79 -1.944905 -0.084606 0.021454 0.003116 0.007631 0.232297
    80 -3.076700 0.846976 1.144070 0.012098 -0.017090 0.055572
    81 -1.543417 -0.035599 -0.010775 -0.004759 0.006490 0.108475
    82 -1.953098 0.037417 0.102510 0.021234 -0.011388 0.214458
    83 -5.000989 0.490841 0.232710 -0.002072 -0.101618 0.590977
    84 -4.939329 -1.885083 0.111711 0.023419 0.024326 0.989621
    85 -5.148520 -2.359037 0.129945 0.027739 0.025415 1.115043
    86 -5.182112 -0.031644 -0.744281 -0.053768 -0.103666 0.699378
    87 -4.772088 -1.844275 0.108717 0.023027 0.024198 0.978021
    88 -5.239050 -2.600094 0.139069 0.029869 0.025745 1.175683
    89 -5.091835 -0.378864 -1.602364 -0.079397 -0.011289 0.631412
    90 -4.298837 -1.547703 0.094041 0.020181 0.023114 0.892317
    91 -5.401553 -3.576395 0.174068 0.038100 0.025807 1.407785
    92 -5.439111 -4.909033 -0.740740 -0.224937 -0.042207 -1.706298
    93 -4.976599 -3.054665 -4.609269 -0.007669 0.000060 0.000071
    94 -0.042474 -3.591029 -0.924564 -0.000000 -0.000000 0.000000
    95 -0.272662 1.954627 0.707806 -0.000000 -0.000000 0.000000
    96 0.326769 1.949929 0.702248 -0.000000 -0.000000 0.000000
    97 -0.266687 1.976085 1.334098 -0.000000 -0.000000 0.000000
    98 0.332744 1.971387 1.328540 -0.000000 -0.000000 0.000000
    99 0.043933 0.158789 1.574819 -0.000000 -0.000000 0.000000
    100 0.048536 0.770839 1.553805 -0.000000 -0.000000 0.000000
    101 -2.266724 -17.273188 2.691413 -0.000082 -0.011209 1.570742
    102 -2.272339 -11.916818 3.087259 -1.582724 0.349125 3.137458
    103 -2.566252 -16.157913 1.680758 0.011209 -0.000082 -0.000055
    104 -2.807336 -10.653466 -0.621820 0.321796 -0.000082 -0.000055
    105 -0.000000 0.000000 0.000000 -0.000000 -0.000000 0.000000
    106 -0.000000 0.000000 0.000000 -0.000000 -0.000000 0.000000
    107 -0.000000 0.000000 0.000000 -0.000000 -0.000000 0.000000
    108 -0.000000 0.000000 0.000000 -0.000000 -0.000000 0.000000
  time 3
    0 0.000000 0.000000 0.000000 0.000000 0.000000 0.000000
    1 0.000000 500.000000 0.000000 0.000000 -0.000000 0.000000
    2 0.000000 500.000000 0.000000 0.000000 -0.000000 0.000000
    3 0.000000 500.000000 0.000000 0.000000 -0.000000 0.000000
    4 0.000000 500.000000 0.000000 0.000000 -0.000000 0.000000
    5 0.000000 500.000000 0.000000 0.000000 -0.000000 0.000000
    6 0.000000 500.000000 0.000000 0.000000 -0.000000 0.000000
    7 0.000000 500.000000 0.000000 0.000000 -0.000000 0.000000
    8 0.000000 500.000000 0.000000 0.000000 -0.000000 0.000000
    9 0.000000 500.000000 0.000000 0.000000 -0.000000 0.000000
    10 0.000000 500.000000 0.000000 0.000000 -0.000000 0.000000
    11 0.000000 500.000000 0.000000 0.000000 -0.000000 0.000000
    12 0.000000 500.000000 0.000000 0.000000 -0.000000 0.000000
    13 0.000000 500.000000 0.000000 0.000000 -0.000000 0.000000
    14 0.000000 500.000000 0.000000 0.000000 -0.000000 0.000000
    15 0.000000 500.000000 0.000000 0.000000 -0.000000 0.000000
    16 0.000000 500.000000 0.000000 0.000000 -0.000000 0.000000
    17 0.000000 500.000000 0.000000 0.000000 -0.000000 0.000000
    18 0.000000 500.000000 0.000000 0.000000 -0.000000 0.000000
    19 0.000000 500.000000 0.000000 0.000000 -0.000000 0.000000
    20 0.000000 500.000000 0.000000 0.000000 -0.000000 0.000000
    21 0.000000 500.000000 0.000000 0.000000 -0.000000 0.000000
    22 0.000000 500.000000 0.000000 0.000000 -0.000000 0.000000
    23 0.000000 500.000000 0.000000 0.000000 -0.000000 0.000000
    24 0.000000 500.000000 0.000000 0.000000 -0.000000 0.000000
    25 0.000000 500.000000 0.000000 0.000000 -0.000000 0.000000
    26 0.000000 500.000000 0.000000 0.000000 -0.000000 0.000000
    27 0.000000 500.000000 0.000000 0.000000 -0.000000 0.000000
    28 0.000000 500.000000 0.000000 0.000000 -0.000000 0.000000
    29 0.000000 500.000000 0.000000 0.000000 -0.000000 0.000000
    30 0.000000 500.000000 0.000000 0.000000 -0.000000 0.000000
    31 0.000000 500.000000 0.000000 0.000000 -0.000000 0.000000
    32 0.000000 500.000000 0.000000 0.000000 -0.000000 0.000000
    33 0.000000 500.000000 0.000000 0.000000 -0.000000 0.000000
    34 0.000000 500.000000 0.000000 0.000000 -0.000000 0.000000
    35 0.000000 500.000000 0.000000 0.000000 -0.000000 0.000000
    36 0.000000 500.000000 0.000000 0.000000 -0.000000 0.000000
    37 0.000000 500.000000 0.000000 0.000000 -0.000000 0.000000
    38 0.000000 500.000000 0.000000 0.000000 -0.000000 0.000000
    39 0.000000 500.000000 0.000000 0.000000 -0.000000 0.000000
    40 0.000000 500.000000 0.000000 0.000000 -0.000000 0.000000
    41 0.000000 500.000000 0.000000 0.000000 -0.000000 0.000000
    42 0.000000 500.000000 0.000000 0.000000 -0.000000 0.000000
    43 0.000000 500.000000 0.000000 0.000000 -0.000000 0.000000
    44 0.000000 500.000000 0.000000 0.000000 -0.000000 0.000000
    45 0.000000 500.000000 0.000000 0.000000 -0.000000 0.000000
    46 0.000000 500.000000 0.000000 0.000000 -0.000000 0.000000
    47 0.000000 500.000000 0.000000 0.000000 -0.000000 0.000000
    48 -3.936473 1.533545 -22.035890 0.043781 0.024714 1.570707
    49 4.382121 0.416647 4.575281 -0.005882 1.526905 -1.618466
    50 -4.641472 0.171584 0.038427 0.000012 0.000029 0.000795
    51 -4.355366 1.783588 2.504777 0.471209 -0.002912 -0.005138
    52 -9.748767 1.090499 0.055647 0.000016 0.000059 0.001711
    53 6.216464 -8.667295 8.241883 1.262029 0.965791 -1.983127
    54 0.272608 -8.355101 5.213614 0.904413 -0.661570 -2.290804
    55 -5.253925 -1.328609 0.095646 0.003383 -0.027185 -0.790785
    56 -3.546110 -2.280328 9.774988 2.376028 0.709794 0.394998
    57 0.312431 -8.855937 -1.550667 -1.341573 -0.292407 -0.223451
    58 -3.744707 -0.571245 0.055299 0.009941 0.016408 0.546282
    59 -2.671030 -0.302718 0.035855 0.006509 0.012700 0.404040
    60 -6.278617 -0.841154 -1.098508 -0.017309 0.171278 0.697318
    61 -4.173331 -1.167270 0.079809 0.016411 0.021217 0.773521
    62 -4.303763 -1.269014 0.084539 0.017446 0.021795 0.806884
    63 -6.156979 -0.353960 -0.188309 0.003834 0.074800 0.723881
    64 -4.264962 -1.120929 0.079095 0.015946 0.020943 0.758327
    65 -3.864700 -0.857963 0.066266 0.013155 0.019083 0.663964
    66 -6.581797 -0.477666 0.877938 0.069944 0.082392 0.807064
    67 -4.715605 -1.766781 0.105523 0.022297 0.023947 0.956304
    68 -3.907631 -0.910516 0.068477 0.013722 0.019492 0.683609
    69 -6.982421 -0.355483 2.238440 0.202056 0.041753 0.900207
    70 -4.495627 -1.796731 0.104450 0.022562 0.024040 0.964209
    71 -4.789816 -2.035812 0.115449 0.024798 0.024737 1.030096
    72 -4.632249 -0.699833 1.049718 0.205182 -0.028662 -0.792805
    73 -3.061748 -8.850421 2.167669 0.177366 -1.380541 2.992474
    74 -3.896254 -0.480588 -0.307242 -0.455973 0.593312 -1.321385
    75 -4.062163 -4.549154 0.194618 0.025358 -0.043957 -1.589585
    76 -3.340620 -9.185967 4.112635 -2.162314 -0.062598 0.659154
    77 1.293090 -5.710229 12.474580 2.669831 0.165045 0.432275
    78 -3.426358 -0.405775 0.046592 0.007917 0.014350 0.465063
    79 -1.944905 -0.084606 0.021454 0.003116 0.007631 0.232297
    80 -3.076700 0.846975 1.144071 0.012098 -0.017090 0.055572
    81 -1.543417 -0.035599 -0.010775 -0.004759 0.006490 0.108475
    82 -1.953097 0.037418 0.102510 0.021234 -0.011388 0.214458
    83 -5.000989 0.490842 0.232710 -0.002072 -0.101618 0.590977
    84 -4.939329 -1.885084 0.111711 0.023419 0.024326 0.989621
    85 -5.148520 -2.359037 0.129945 0.027739 0.025415 1.115043
    86 -5.182111 -0.031644 -0.744281 -0.053768 -0.103666 0.699378
    87 -4.772088 -1.844275 0.108717 0.023027 0.024198 0.978021
    88 -5.239050 -2.600095 0.139068 0.029869 0.025745 1.175683
    89 -5.091835 -0.378864 -1.602364 -0.079397 -0.011289 0.631412
    90 -4.298837 -1.547703 0.094041 0.020181 0.023114 0.892317
    91 -5.401554 -3.576395 0.174068 0.038100 0.025807 1.407785
    92 -5.260724 -4.546967 -0.678015 -0.204777 -0.041855 -1.587626
    93 -4.982825 -4.003580 -4.478564 -0.115375 0.000964 0.001015
    94 -0.042474 -3.591029 -0.924564 -0.000000 -0.000000 -0.000000
    95 -0.272662 1.954627 0.707806 -0.000000 -0.000000 -0.000000
    96 0.326769 1.949929 0.702248 -0.000000 -0.000000 -0.000000
    97 -0.266687 1.976085 1.334098 -0.000000 -0.000000 -0.000000
    98 0.332744 1.971387 1.328540 -0.000000 -0.000000 -0.000000
    99 0.043933 0.158789 1.574819 -0.000000 -0.000000 -0.000000
    100 0.048536 0.770839 1.553805 -0.000000 -0.000000 -0.000000
    101 -2.266724 -17.273188 2.691413 -0.000082 -0.011209 1.570742
    102 -2.272339 -11.916818 3.087259 -1.582724 0.349125 3.137458
    103 -2.566252 -16.157913 1.680758 0.011209 -0.000082 -0.000055
    104 -2.807336 -10.653466 -0.621820 0.321796 -0.000082 -0.000055
    105 -0.000000 -0.000000 0.000000 -0.000000 -0.000000 -0.000000
    106 -0.000000 -0.000000 0.000000 -0.000000 -0.000000 -0.000000
    107 -0.000000 -0.000000 0.000000 -0.000000 -0.000000 -0.000000
    108 -0.000000 -0.000000 0.000000 -0.000000 -0.000000 -0.000000
  time 4
    0 0.000000 0.000000 0.000000 0.000000 0.000000 0.000000
    1 0.000000 500.000000 0.000000 0.000000 -0.000000 0.000000
    2 0.000000 500.000000 0.000000 0.000000 -0.000000 0.000000
    3 0.000000 500.000000 0.000000 0.000000 -0.000000 0.000000
    4 0.000000 500.000000 0.000000 0.000000 -0.000000 0.000000
    5 0.000000 500.000000 0.000000 0.000000 -0.000000 0.000000
    6 0.000000 500.000000 0.000000 0.000000 -0.000000 0.000000
    7 0.000000 500.000000 0.000000 0.000000 -0.000000 0.000000
    8 0.000000 500.000000 0.000000 0.000000 -0.000000 0.000000
    9 0.000000 500.000000 0.000000 0.000000 -0.000000 0.000000
    10 0.000000 500.000000 0.000000 0.000000 -0.000000 0.000000
    11 0.000000 500.000000 0.000000 0.000000 -0.000000 0.000000
    12 0.000000 500.000000 0.000000 0.000000 -0.000000 0.000000
    13 0.000000 500.000000 0.000000 0.000000 -0.000000 0.000000
    14 0.000000 500.000000 0.000000 0.000000 -0.000000 0.000000
    15 0.000000 500.000000 0.000000 0.000000 -0.000000 0.000000
    16 0.000000 500.000000 0.000000 0.000000 -0.000000 0.000000
    17 0.000000 500.000000 0.000000 0.000000 -0.000000 0.000000
    18 0.000000 500.000000 0.000000 0.000000 -0.000000 0.000000
    19 0.000000 500.000000 0.000000 0.000000 -0.000000 0.000000
    20 0.000000 500.000000 0.000000 0.000000 -0.000000 0.000000
    21 0.000000 500.000000 0.000000 0.000000 -0.000000 0.000000
    22 0.000000 500.000000 0.000000 0.000000 -0.000000 0.000000
    23 0.000000 500.000000 0.000000 0.000000 -0.000000 0.000000
    24 0.000000 500.000000 0.000000 0.000000 -0.000000 0.000000
    25 0.000000 500.000000 0.000000 0.000000 -0.000000 0.000000
    26 0.000000 500.000000 0.000000 0.000000 -0.000000 0.000000
    27 0.000000 500.000000 0.000000 0.000000 -0.000000 0.000000
    28 0.000000 500.000000 0.000000 0.000000 -0.000000 0.000000
    29 0.000000 500.000000 0.000000 0.000000 -0.000000 0.000000
    30 0.000000 500.000000 0.000000 0.000000 -0.000000 0.000000
    31 0.000000 500.000000 0.000000 0.000000 -0.000000 0.000000
    32 0.000000 500.000000 0.000000 0.000000 -0.000000 0.000000
    33 0.000000 500.000000 0.000000 0.000000 -0.000000 0.000000
    34 0.000000 500.000000 0.000000 0.000000 -0.000000 0.000000
    35 0.000000 500.000000 0.000000 0.000000 -0.000000 0.000000
    36 0.000000 500.000000 0.000000 0.000000 -0.000000 0.000000
    37 0.000000 500.000000 0.000000 0.000000 -0.000000 0.000000
    38 0.000000 500.000000 0.000000 0.000000 -0.000000 0.000000
    39 0.000000 500.000000 0.000000 0.000000 -0.000000 0.000000
    40 0.000000 500.000000 0.000000 0.000000 -0.000000 0.000000
    41 0.000000 500.000000 0.000000 0.000000 -0.000000 0.000000
    42 0.000000 500.000000 0.000000 0.000000 -0.000000 0.000000
    43 0.000000 500.000000 0.000000 0.000000 -0.000000 0.000000
    44 0.000000 500.000000 0.000000 0.000000 -0.000000 0.000000
    45 0.000000 500.000000 0.000000 0.000000 -0.000000 0.000000
    46 0.000000 500.000000 0.000000 0.000000 -0.000000 0.000000
    47 0.000000 500.000000 0.000000 0.000000 -0.000000 0.000000
    48 -3.936473 1.533545 -22.035890 0.043781 0.024714 1.570707
    49 4.382121 0.416647 4.575281 -0.005882 1.526905 -1.618466
    50 -4.641472 0.171584 0.038427 0.000012 0.000029 0.000795
    51 -4.355366 1.783588 2.504777 0.471209 -0.002912 -0.005138
    52 -9.748767 1.090499 0.055647 0.000016 0.000059 0.001711
    53 6.216464 -8.667295 8.241883 1.262029 0.965791 -1.983127
    54 0.264386 -8.359666 5.277115 0.915488 -0.623871 -2.296814
    55 -5.525003 -1.063507 0.089152 0.001984 -0.024474 -0.704961
    56 -3.563658 -2.528744 9.879460 2.378385 0.685030 0.344943
    57 0.312431 -8.855937 -1.550667 -1.341573 -0.292407 -0.223451
    58 -3.744707 -0.571245 0.055299 0.009941 0.016408 0.546282
    59 -2.671029 -0.302718 0.035855 0.006509 0.012700 0.404039
    60 -6.278615 -0.841150 -1.098510 -0.017309 0.171278 0.697318
    61 -4.173331 -1.167270 0.079809 0.016411 0.021217 0.773521
    62 -4.303763 -1.269014 0.084537 0.017446 0.021795 0.806884
    63 -6.156979 -0.353958 -0.188309 0.003834 0.074800 0.723881
    64 -4.264963 -1.120929 0.079096 0.015946 0.020943 0.758327
    65 -3.864700 -0.857963 0.066267 0.013155 0.019083 0.663964
    66 -6.581797 -0.477666 0.877938 0.069944 0.082392 0.807064
    67 -4.715603 -1.766778 0.105523 0.022297 0.023947 0.956303
    68 -3.907631 -0.910516 0.068477 0.013722 0.019492 0.683609
    69 -6.982423 -0.355481 2.238440 0.202056 0.041753 0.900207
    70 -4.495627 -1.796733 0.104449 0.022562 0.024040 0.964209
    71 -4.789816 -2.035810 0.115449 0.024798 0.024737 1.030096
    72 -4.942391 -0.366653 1.072282 0.209649 -0.025887 -0.707044
    73 -3.061748 -8.850421 2.167669 0.177366 -1.380541 2.992474
    74 -3.875068 -0.625988 -0.405361 -0.479508 0.573655 -1.361169
    75 -4.059817 -4.214086 0.183116 0.022772 -0.043183 -1.513630
    76 -3.518126 -9.325163 4.120639 -2.163619 -0.059789 0.624387
    77 1.293092 -5.710230 12.474580 2.669832 0.165045 0.432275
    78 -3.426358 -0.405775 0.046592 0.007917 0.014350 0.465063
    79 -1.944905 -0.084606 0.021454 0.003116 0.007631 0.232297
    80 -3.076700 0.846977 1.144071 0.012098 -0.017090 0.055572
    81 -1.543417 -0.035601 -0.010774 -0.004759 0.006490 0.108475
    82 -1.953097 0.037416 0.102510 0.021234 -0.011388 0.214458
    83 -5.000989 0.490842 0.232710 -0.002072 -0.101618 0.590977
    84 -4.939331 -1.885085 0.111711 0.023419 0.024326 0.989621
    85 -5.148520 -2.359037 0.129945 0.027739 0.025415 1.115043
    86 -5.182119 -0.031648 -0.744282 -0.053768 -0.103666 0.699380
    87 -4.772088 -1.844275 0.108717 0.023027 0.024198 0.978021
    88 -5.239050 -2.600095 0.139068 0.029869 0.025745 1.175683
    89 -5.091835 -0.378864 -1.602364 -0.079397 -0.011289 0.631412
    90 -4.298837 -1.547703 0.094041 0.020181 0.023114 0.892317
    91 -5.401552 -3.576395 0.174068 0.038100 0.025807 1.407785
    92 -5.238241 -4.301530 -0.675599 -0.203957 -0.041229 -1.511700
    93 -4.985752 -4.417121 -4.444665 -0.112276 0.000937 0.000989
    94 -0.042474 -3.591029 -0.924564 -0.000000 -0.000000 0.000000
    95 -0.272662 1.954627 0.707806 -0.000000 -0.000000 0.000000
    96 0.326769 1.949929 0.702248 -0.000000 -0.000000 0.000000
    97 -0.266687 1.976085 1.334098 -0.000000 -0.000000 0.000000
    98 0.332744 1.971387 1.328540 -0.000000 -0.000000 0.000000
    99 0.043933 0.158789 1.574819 -0.000000 -0.000000 0.000000
    100 0.048536 0.770840 1.553805 -0.000000 -0.000000 0.000000
    101 -2.266724 -17.273188 2.691413 -0.000082 -0.011209 1.570742
    102 -2.272339 -11.916818 3.087259 -1.582724 0.349125 3.137458
    103 -2.566252 -16.157913 1.680758 0.011209 -0.000082 -0.000055
    104 -2.807336 -10.653466 -0.621820 0.321796 -0.000082 -0.000055
    105 -0.000000 0.000000 0.000000 -0.000000 -0.000000 0.000000
    106 -0.000000 0.000000 0.000000 -0.000000 -0.000000 0.000000
    107 -0.000000 0.000000 0.000000 -0.000000 -0.000000 0.000000
    108 -0.000000 0.000000 0.000000 -0.000000 -0.000000 0.000000
  time 5
    0 0.000000 0.000000 0.000000 0.000000 0.000000 0.000000
    1 0.000000 500.000000 0.000000 0.000000 -0.000000 0.000000
    2 0.000000 500.000000 0.000000 0.000000 -0.000000 0.000000
    3 0.000000 500.000000 0.000000 0.000000 -0.000000 0.000000
    4 0.000000 500.000000 0.000000 0.000000 -0.000000 0.000000
    5 0.000000 500.000000 0.000000 0.000000 -0.000000 0.000000
    6 0.000000 500.000000 0.000000 0.000000 -0.000000 0.000000
    7 0.000000 500.000000 0.000000 0.000000 -0.000000 0.000000
    8 0.000000 500.000000 0.000000 0.000000 -0.000000 0.000000
    9 0.000000 500.000000 0.000000 0.000000 -0.000000 0.000000
    10 0.000000 500.000000 0.000000 0.000000 -0.000000 0.000000
    11 0.000000 500.000000 0.000000 0.000000 -0.000000 0.000000
    12 0.000000 500.000000 0.000000 0.000000 -0.000000 0.000000
    13 0.000000 500.000000 0.000000 0.000000 -0.000000 0.000000
    14 0.000000 500.000000 0.000000 0.000000 -0.000000 0.000000
    15 0.000000 500.000000 0.000000 0.000000 -0.000000 0.000000
    16 0.000000 500.000000 0.000000 0.000000 -0.000000 0.000000
    17 0.000000 500.000000 0.000000 0.000000 -0.000000 0.000000
    18 0.000000 500.000000 0.000000 0.000000 -0.000000 0.000000
    19 0.000000 500.000000 0.000000 0.000000 -0.000000 0.000000
    20 0.000000 500.000000 0.000000 0.000000 -0.000000 0.000000
    21 0.000000 500.000000 0.000000 0.000000 -0.000000 0.000000
    22 0.000000 500.000000 0.000000 0.000000 -0.000000 0.000000
    23 0.000000 500.000000 0.000000 0.000000 -0.000000 0.000000
    24 0.000000 500.000000 0.000000 0.000000 -0.000000 0.000000
    25 0.000000 500.000000 0.000000 0.000000 -0.000000 0.000000
    26 0.000000 500.000000 0.000000 0.000000 -0.000000 0.000000
    27 0.000000 500.000000 0.000000 0.000000 -0.000000 0.000000
    28 0.000000 500.000000 0.000000 0.000000 -0.000000 0.000000
    29 0.000000 500.000000 0.000000 0.000000 -0.000000 0.000000
    30 0.000000 500.000000 0.000000 0.000000 -0.000000 0.000000
    31 0.000000 500.000000 0.000000 0.000000 -0.000000 0.000000
    32 0.000000 500.000000 0.000000 0.000000 -0.000000 0.000000
    33 0.000000 500.000000 0.000000 0.000000 -0.000000 0.000000
    34 0.000000 500.000000 0.000000 0.000000 -0.000000 0.000000
    35 0.000000 500.000000 0.000000 0.000000 -0.000000 0.000000
    36 0.000000 500.000000 0.000000 0.000000 -0.000000 0.000000
    37 0.000000 500.000000 0.000000 0.000000 -0.000000 0.000000
    38 0.000000 500.000000 0.000000 0.000000 -0.000000 0.000000
    39 0.000000 500.000000 0.000000 0.000000 -0.000000 0.000000
    40 0.000000 500.000000 0.000000 0.000000 -0.000000 0.000000
    41 0.000000 500.000000 0.000000 0.000000 -0.000000 0.000000
    42 0.000000 500.000000 0.000000 0.000000 -0.000000 0.000000
    43 0.000000 500.000000 0.000000 0.000000 -0.000000 0.000000
    44 0.000000 500.000000 0.000000 0.000000 -0.000000 0.000000
    45 0.000000 500.000000 0.000000 0.000000 -0.000000 0.000000
    46 0.000000 500.000000 0.000000 0.000000 -0.000000 0.000000
    47 0.000000 500.000000 0.000000 0.000000 -0.000000 0.000000
    48 -3.936473 1.533545 -22.035890 0.043781 0.024714 1.570707
    49 4.382121 0.416647 4.575281 -0.005882 1.526905 -1.618466
    50 -4.641472 0.171584 0.038427 0.000012 0.000029 0.000795
    51 -4.355366 1.783588 2.504777 0.471209 -0.002912 -0.005138
    52 -9.748767 1.090499 0.055647 0.000016 0.000059 0.001711
    53 6.216464 -8.667295 8.241883 1.262029 0.965791 -1.983127
    54 0.241378 -8.383017 5.318677 0.922572 -0.601857 -2.304620
    55 -5.770651 -0.858627 0.084474 0.000989 -0.022101 -0.632573
    56 -3.612431 -2.884333 10.021555 2.436113 0.651087 0.358693
    57 0.312431 -8.855937 -1.550667 -1.341573 -0.292407 -0.223451
    58 -3.744707 -0.571245 0.055299 0.009941 0.016408 0.546282
    59 -2.671030 -0.302719 0.035855 0.006509 0.012700 0.404040
    60 -6.278617 -0.841152 -1.098510 -0.017309 0.171278 0.697318
    61 -4.173331 -1.167270 0.079809 0.016411 0.021217 0.773521
    62 -4.303763 -1.269014 0.084539 0.017446 0.021795 0.806884
    63 -6.156979 -0.353960 -0.188310 0.003834 0.074800 0.723881
    64 -4.264961 -1.120929 0.079096 0.015946 0.020943 0.758327
    65 -3.864700 -0.857963 0.066267 0.013155 0.019083 0.663964
    66 -6.581797 -0.477666 0.877937 0.069944 0.082392 0.807064
    67 -4.715605 -1.766781 0.105523 0.022297 0.023947 0.956304
    68 -3.907631 -0.910516 0.068477 0.013722 0.019492 0.683609
    69 -6.982421 -0.355483 2.238438 0.202056 0.041753 0.900207
    70 -4.495627 -1.796731 0.104450 0.022562 0.024040 0.964209
    71 -4.789816 -2.035810 0.115448 0.024798 0.024737 1.030096
    72 -5.194128 -0.061180 1.168510 0.228208 -0.023542 -0.634868
    73 -3.061748 -8.850421 2.167669 0.177366 -1.380541 2.992474
    74 -3.852003 -0.721499 -0.465253 -0.494288 0.561186 -1.390400
    75 -4.077365 -3.934528 0.173705 0.020661 -0.042388 -1.450145
    76 -3.479462 -9.297522 4.130520 -2.165704 -0.026821 0.636020
    77 1.293091 -5.710231 12.474579 2.669832 0.165045 0.432275
    78 -3.426358 -0.405775 0.046592 0.007917 0.014350 0.465063
    79 -1.944905 -0.084606 0.021454 0.003116 0.007631 0.232297
    80 -3.076700 0.846977 1.144070 0.012098 -0.017090 0.055572
    81 -1.543416 -0.035599 -0.010775 -0.004759 0.006490 0.108475
    82 -1.953097 0.037416 0.102510 0.021234 -0.011388 0.214458
    83 -5.000989 0.490840 0.232710 -0.002072 -0.101618 0.590977
    84 -4.939331 -1.885083 0.111711 0.023419 0.024326 0.989621
    85 -5.148520 -2.359037 0.129945 0.027739 0.025415 1.115043
    86 -5.182117 -0.031647 -0.744281 -0.053768 -0.103666 0.699379
    87 -4.772088 -1.844275 0.108717 0.023027 0.024198 0.978021
    88 -5.239050 -2.600095 0.139068 0.029869 0.025745 1.175683
    89 -5.091835 -0.378864 -1.602364 -0.079397 -0.011289 0.631412
    90 -4.298837 -1.547702 0.094041 0.020181 0.023114 0.892317
    91 -5.401554 -3.576395 0.174068 0.038100 0.025807 1.407785
    92 -5.278935 -4.099974 -0.699014 -0.211293 -0.040401 -1.448180
    93 -4.987146 -4.614074 -4.428486 -0.053015 0.000428 0.000480
    94 -0.042474 -3.591028 -0.924562 0.000000 -0.000000 0.000000
    95 -0.272662 1.954627 0.707806 0.000000 -0.000000 0.000000
    96 0.326769 1.949929 0.702248 0.000000 -0.000000 0.000000
    97 -0.266687 1.976085 1.334098 0.000000 -0.000000 0.000000
    98 0.332744 1.971387 1.328540 0.000000 -0.000000 0.000000
    99 0.043933 0.158789 1.574819 0.000000 -0.000000 0.000000
    100 0.048536 0.770840 1.553805 0.000000 -0.000000 0.000000
    101 -2.266724 -17.273188 2.691413 -0.000082 -0.011209 1.570742
    102 -2.272339 -11.916818 3.087259 -1.582724 0.349125 3.137458
    103 -2.566252 -16.157913 1.680758 0.011209 -0.000082 -0.000055
    104 -2.807336 -10.653466 -0.621820 0.321796 -0.000082 -0.000055
    105 -0.000000 -0.000000 0.000000 0.000000 -0.000000 0.000000
    106 -0.000000 -0.000000 0.000000 0.000000 -0.000000 0.000000
    107 -0.000000 -0.000000 0.000000 0.000000 -0.000000 0.000000
    108 -0.000000 -0.000000 0.000000 0.000000 -0.000000 0.000000
  time 6
    0 0.000000 0.000000 0.000000 0.000000 0.000000 0.000000
    1 0.000000 500.000000 0.000000 0.000000 -0.000000 0.000000
    2 0.000000 500.000000 0.000000 0.000000 -0.000000 0.000000
    3 0.000000 500.000000 0.000000 0.000000 -0.000000 0.000000
    4 0.000000 500.000000 0.000000 0.000000 -0.000000 0.000000
    5 0.000000 500.000000 0.000000 0.000000 -0.000000 0.000000
    6 0.000000 500.000000 0.000000 0.000000 -0.000000 0.000000
    7 0.000000 500.000000 0.000000 0.000000 -0.000000 0.000000
    8 0.000000 500.000000 0.000000 0.000000 -0.000000 0.000000
    9 0.000000 500.000000 0.000000 0.000000 -0.000000 0.000000
    10 0.000000 500.000000 0.000000 0.000000 -0.000000 0.000000
    11 0.000000 500.000000 0.000000 0.000000 -0.000000 0.000000
    12 0.000000 500.000000 0.000000 0.000000 -0.000000 0.000000
    13 0.000000 500.000000 0.000000 0.000000 -0.000000 0.000000
    14 0.000000 500.000000 0.000000 0.000000 -0.000000 0.000000
    15 0.000000 500.000000 0.000000 0.000000 -0.000000 0.000000
    16 0.000000 500.000000 0.000000 0.000000 -0.000000 0.000000
    17 0.000000 500.000000 0.000000 0.000000 -0.000000 0.000000
    18 0.000000 500.000000 0.000000 0.000000 -0.000000 0.000000
    19 0.000000 500.000000 0.000000 0.000000 -0.000000 0.000000
    20 0.000000 500.000000 0.000000 0.000000 -0.000000 0.000000
    21 0.000000 500.000000 0.000000 0.000000 -0.000000 0.000000
    22 0.000000 500.000000 0.000000 0.000000 -0.000000 0.000000
    23 0.000000 500.000000 0.000000 0.000000 -0.000000 0.000000
    24 0.000000 500.000000 0.000000 0.000000 -0.000000 0.000000
    25 0.000000 500.000000 0.000000 0.000000 -0.000000 0.000000
    26 0.000000 500.000000 0.000000 0.000000 -0.000000 0.000000
    27 0.000000 500.000000 0.000000 0.000000 -0.000000 0.000000
    28 0.000000 500.000000 0.000000 0.000000 -0.000000 0.000000
    29 0.000000 500.000000 0.000000 0.000000 -0.000000 0.000000
    30 0.000000 500.000000 0.000000 0.000000 -0.000000 0.000000
    31 0.000000 500.000000 0.000000 0.000000 -0.000000 0.000000
    32 0.000000 500.000000 0.000000 0.000000 -0.000000 0.000000
    33 0.000000 500.000000 0.000000 0.000000 -0.000000 0.000000
    34 0.000000 500.000000 0.000000 0.000000 -0.000000 0.000000
    35 0.000000 500.000000 0.000000 0.000000 -0.000000 0.000000
    36 0.000000 500.000000 0.000000 0.000000 -0.000000 0.000000
    37 0.000000 500.000000 0.000000 0.000000 -0.000000 0.000000
    38 0.000000 500.000000 0.000000 0.000000 -0.000000 0.000000
    39 0.000000 500.000000 0.000000 0.000000 -0.000000 0.000000
    40 0.000000 500.000000 0.000000 0.000000 -0.000000 0.000000
    41 0.000000 500.000000 0.000000 0.000000 -0.000000 0.000000
    42 0.000000 500.000000 0.000000 0.000000 -0.000000 0.000000
    43 0.000000 500.000000 0.000000 0.000000 -0.000000 0.000000
    44 0.000000 500.000000 0.000000 0.000000 -0.000000 0.000000
    45 0.000000 500.000000 0.000000 0.000000 -0.000000 0.000000
    46 0.000000 500.000000 0.000000 0.000000 -0.000000 0.000000
    47 0.000000 500.000000 0.000000 0.000000 -0.000000 0.000000
    48 -3.936473 1.533545 -22.035890 0.043781 0.024714 1.570707
    49 4.382121 0.416647 4.575281 -0.005882 1.526905 -1.618466
    50 -4.641472 0.171584 0.038427 0.000012 0.000029 0.000795
    51 -4.355366 1.783588 2.504777 0.471209 -0.002912 -0.005138
    52 -9.748767 1.090499 0.055647 0.000016 0.000059 0.001711
    53 6.216464 -8.667295 8.241883 1.262029 0.965791 -1.983127
    54 0.215213 -8.410296 5.351813 0.928146 -0.585542 -2.312509
    55 -5.983543 -0.703673 0.081196 0.000300 -0.020098 -0.572996
    56 -3.677107 -3.214321 10.141618 2.494246 0.616801 0.382123
    57 0.312431 -8.855936 -1.550667 -1.341573 -0.292407 -0.223451
    58 -3.744707 -0.571245 0.055299 0.009941 0.016408 0.546282
    59 -2.671030 -0.302719 0.035855 0.006509 0.012700 0.404040
    60 -6.278615 -0.841150 -1.098510 -0.017309 0.171278 0.697318
    61 -4.173331 -1.167270 0.079809 0.016411 0.021217 0.773521
    62 -4.303763 -1.269014 0.084538 0.017446 0.021795 0.806884
    63 -6.156979 -0.353958 -0.188309 0.003834 0.074800 0.723881
    64 -4.264961 -1.120929 0.079096 0.015946 0.020943 0.758327
    65 -3.864700 -0.857963 0.066267 0.013155 0.019083 0.663964
    66 -6.581797 -0.477666 0.877938 0.069944 0.082392 0.807064
    67 -4.715604 -1.766779 0.105524 0.022297 0.023947 0.956304
    68 -3.907631 -0.910515 0.068478 0.013722 0.019492 0.683609
    69 -6.982421 -0.355483 2.238439 0.202056 0.041753 0.900207
    70 -4.495627 -1.796732 0.104450 0.022562 0.024040 0.964209
    71 -4.789816 -2.035811 0.115448 0.024798 0.024737 1.030096
    72 -5.413844 0.188164 1.268787 0.247266 -0.021663 -0.575503
    73 -3.061748 -8.850421 2.167669 0.177366 -1.380541 2.992474
    74 -3.834199 -0.796801 -0.510807 -0.505506 0.551340 -1.413533
    75 -4.104770 -3.707807 0.166200 0.018980 -0.041642 -1.398393
    76 -3.395003 -9.232180 4.130680 -2.166161 0.008936 0.657131
    77 1.293092 -5.710228 12.474580 2.669832 0.165045 0.432275
    78 -3.426358 -0.405775 0.046592 0.007917 0.014350 0.465063
    79 -1.944905 -0.084606 0.021454 0.003116 0.007631 0.232297
    80 -3.076700 0.846977 1.144071 0.012098 -0.017090 0.055572
    81 -1.543416 -0.035599 -0.010775 -0.004759 0.006490 0.108475
    82 -1.953097 0.037416 0.102511 0.021234 -0.011388 0.214458
    83 -5.000989 0.490842 0.232710 -0.002072 -0.101618 0.590977
    84 -4.939329 -1.885083 0.111712 0.023419 0.024326 0.989621
    85 -5.148520 -2.359037 0.129944 0.027739 0.025415 1.115043
    86 -5.182115 -0.031646 -0.744281 -0.053768 -0.103666 0.699379
    87 -4.772088 -1.844275 0.108717 0.023027 0.024198 0.978021
    88 -5.239050 -2.600095 0.139068 0.029869 0.025745 1.175683
    89 -5.091835 -0.378863 -1.602364 -0.079397 -0.011289 0.631412
    90 -4.298837 -1.547702 0.094041 0.020181 0.023114 0.892317
    91 -5.401553 -3.576395 0.174068 0.038100 0.025807 1.407785
    92 -5.332494 -3.941114 -0.723940 -0.219219 -0.039589 -1.396386
    93 -4.987848 -4.736075 -4.401060 0.010664 -0.000083 -0.000099
    94 -0.042474 -3.591029 -0.924563 0.000000 -0.000000 0.000000
    95 -0.272662 1.954627 0.707806 0.000000 -0.000000 0.000000
    96 0.326769 1.949929 0.702248 0.000000 -0.000000 0.000000
    97 -0.266687 1.976085 1.334098 0.000000 -0.000000 0.000000
    98 0.332744 1.971387 1.328540 0.000000 -0.000000 0.000000
    99 0.043933 0.158788 1.574819 0.000000 -0.000000 0.000000
    100 0.048536 0.770840 1.553805 0.000000 -0.000000 0.000000
    101 -2.266724 -17.273188 2.691413 -0.000082 -0.011209 1.570742
    102 -2.272339 -11.916818 3.087259 -1.582724 0.349125 3.137458
    103 -2.566252 -16.157913 1.680758 0.011209 -0.000082 -0.000055
    104 -2.807336 -10.653466 -0.621820 0.321796 -0.000082 -0.000055
    105 -0.000000 0.000000 0.000000 0.000000 -0.000000 0.000000
    106 -0.000000 0.000000 0.000000 0.000000 -0.000000 0.000000
    107 -0.000000 0.000000 0.000000 0.000000 -0.000000 0.000000
    108 -0.000000 0.000000 0.000000 0.000000 -0.000000 0.000000
  time 7
    0 0.000000 0.000000 0.000000 0.000000 0.000000 0.000000
    1 0.000000 500.000000 0.000000 0.000000 -0.000000 0.000000
    2 0.000000 500.000000 0.000000 0.000000 -0.000000 0.000000
    3 0.000000 500.000000 0.000000 0.000000 -0.000000 0.000000
    4 0.000000 500.000000 0.000000 0.000000 -0.000000 0.000000
    5 0.000000 500.000000 0.000000 0.000000 -0.000000 0.000000
    6 0.000000 500.000000 0.000000 0.000000 -0.000000 0.000000
    7 0.000000 500.000000 0.000000 0.000000 -0.000000 0.000000
    8 0.000000 500.000000 0.000000 0.000000 -0.000000 0.000000
    9 0.000000 500.000000 0.000000 0.000000 -0.000000 0.000000
    10 0.000000 500.000000 0.000000 0.000000 -0.000000 0.000000
    11 0.000000 500.000000 0.000000 0.000000 -0.000000 0.000000
    12 0.000000 500.000000 0.000000 0.000000 -0.000000 0.000000
    13 0.000000 500.000000 0.000000 0.000000 -0.000000 0.000000
    14 0.000000 500.000000 0.000000 0.000000 -0.000000 0.000000
    15 0.000000 500.000000 0.000000 0.000000 -0.000000 0.000000
    16 0.000000 500.000000 0.000000 0.000000 -0.000000 0.000000
    17 0.000000 500.000000 0.000000 0.000000 -0.000000 0.000000
    18 0.000000 500.000000 0.000000 0.000000 -0.000000 0.000000
    19 0.000000 500.000000 0.000000 0.000000 -0.000000 0.000000
    20 0.000000 500.000000 0.000000 0.000000 -0.000000 0.000000
    21 0.000000 500.000000 0.000000 0.000000 -0.000000 0.000000
    22 0.000000 500.000000 0.000000 0.000000 -0.000000 0.000000
    23 0.000000 500.000000 0.000000 0.000000 -0.000000 0.000000
    24 0.000000 500.000000 0.000000 0.000000 -0.000000 0.000000
    25 0.000000 500.000000 0.000000 0.000000 -0.000000 0.000000
    26 0.000000 500.000000 0.000000 0.000000 -0.000000 0.000000
    27 0.000000 500.000000 0.000000 0.000000 -0.000000 0.000000
    28 0.000000 500.000000 0.000000 0.000000 -0.000000 0.000000
    29 0.000000 500.000000 0.000000 0.000000 -0.000000 0.000000
    30 0.000000 500.000000 0.000000 0.000000 -0.000000 0.000000
    31 0.000000 500.000000 0.000000 0.000000 -0.000000 0.000000
    32 0.000000 500.000000 0.000000 0.000000 -0.000000 0.000000
    33 0.000000 500.000000 0.000000 0.000000 -0.000000 0.000000
    34 0.000000 500.000000 0.000000 0.000000 -0.000000 0.000000
    35 0.000000 500.000000 0.000000 0.000000 -0.000000 0.000000
    36 0.000000 500.000000 0.000000 0.000000 -0.000000 0.000000
    37 0.000000 500.000000 0.000000 0.000000 -0.000000 0.000000
    38 0.000000 500.000000 0.000000 0.000000 -0.000000 0.000000
    39 0.000000 500.000000 0.000000 0.000000 -0.000000 0.000000
    40 0.000000 500.000000 0.000000 0.000000 -0.000000 0.000000
    41 0.000000 500.000000 0.000000 0.000000 -0.000000 0.000000
    42 0.000000 500.000000 0.000000 0.000000 -0.000000 0.000000
    43 0.000000 500.000000 0.000000 0.000000 -0.000000 0.000000
    44 0.000000 500.000000 0.000000 0.000000 -0.000000 0.000000
    45 0.000000 500.000000 0.000000 0.000000 -0.000000 0.000000
    46 0.000000 500.000000 0.000000 0.000000 -0.000000 0.000000
    47 0.000000 500.000000 0.000000 0.000000 -0.000000 0.000000
    48 -3.936473 1.533545 -22.035890 0.043781 0.024714 1.570707
    49 4.382121 0.416647 4.575281 -0.005882 1.526905 -1.618466
    50 -4.641472 0.171584 0.038427 0.000012 0.000029 0.000795
    51 -4.355366 1.783588 2.504777 0.471209 -0.002912 -0.005138
    52 -9.748767 1.090499 0.055647 0.000016 0.000059 0.001711
    53 6.216464 -8.667295 8.241883 1.262029 0.965791 -1.983127
    54 0.198445 -8.427889 5.369227 0.931063 -0.577614 -2.317322
    55 -6.102933 -0.624902 0.079636 -0.000024 -0.018994 -0.540638
    56 -3.717123 -3.401068 10.201215 2.526489 0.596782 0.395485
    57 0.312431 -8.855935 -1.550667 -1.341573 -0.292407 -0.223451
    58 -3.744705 -0.571245 0.055299 0.009941 0.016408 0.546282
    59 -2.671030 -0.302719 0.035855 0.006509 0.012700 0.404040
    60 -6.278615 -0.841150 -1.098510 -0.017309 0.171278 0.697318
    61 -4.173331 -1.167270 0.079809 0.016411 0.021217 0.773521
    62 -4.303763 -1.269014 0.084539 0.017446 0.021795 0.806884
    63 -6.156979 -0.353958 -0.188309 0.003834 0.074800 0.723881
    64 -4.264963 -1.120929 0.079096 0.015946 0.020943 0.758327
    65 -3.864700 -0.857963 0.066267 0.013155 0.019083 0.663964
    66 -6.581796 -0.477664 0.877938 0.069944 0.082392 0.807064
    67 -4.715603 -1.766778 0.105523 0.022297 0.023947 0.956303
    68 -3.907631 -0.910516 0.068476 0.013722 0.019492 0.683609
    69 -6.982421 -0.355482 2.238439 0.202056 0.041753 0.900207
    70 -4.495627 -1.796732 0.104451 0.022562 0.024040 0.964209
    71 -4.789816 -2.035811 0.115449 0.024798 0.024737 1.030096
    72 -5.540023 0.319689 1.326876 0.258186 -0.020679 -0.543266
    73 -3.061748 -8.850421 2.167669 0.177366 -1.380541 2.992474
    74 -3.823941 -0.832056 -0.531324 -0.510698 0.546850 -1.425154
    75 -4.124009 -3.588476 0.162294 0.018107 -0.041212 -1.371006
    76 -3.342176 -9.189417 4.126205 -2.165638 0.029364 0.670291
    77 1.293092 -5.710229 12.474580 2.669832 0.165045 0.432275
    78 -3.426358 -0.405775 0.046592 0.007917 0.014350 0.465063
    79 -1.944905 -0.084606 0.021454 0.003116 0.007631 0.232297
    80 -3.076700 0.846977 1.144071 0.012098 -0.017090 0.055572
    81 -1.543417 -0.035599 -0.010775 -0.004759 0.006490 0.108475
    82 -1.953097 0.037418 0.102511 0.021234 -0.011388 0.214458
    83 -5.000989 0.490840 0.232710 -0.002072 -0.101618 0.590977
    84 -4.939331 -1.885081 0.111709 0.023419 0.024326 0.989621
    85 -5.148520 -2.359037 0.129945 0.027739 0.025415 1.115043
    86 -5.182119 -0.031648 -0.744282 -0.053768 -0.103666 0.699380
    87 -4.772088 -1.844275 0.108717 0.023027 0.024198 0.978021
    88 -5.239050 -2.600095 0.139068 0.029869 0.025745 1.175683
    89 -5.091835 -0.378864 -1.602364 -0.079397 -0.011289 0.631412
    90 -4.298837 -1.547701 0.094041 0.020181 0.023114 0.892317
    91 -5.401554 -3.576395 0.174068 0.038100 0.025807 1.407785
    92 -5.365561 -3.859156 -0.737762 -0.223660 -0.039105 -1.368975
    93 -4.988190 -4.791989 -4.390656 0.047840 -0.000364 -0.000452
    94 -0.042474 -3.591029 -0.924563 -0.000000 -0.000000 0.000000
    95 -0.272662 1.954629 0.707806 -0.000000 -0.000000 0.000000
    96 0.326769 1.949930 0.702248 -0.000000 -0.000000 0.000000
    97 -0.266687 1.976087 1.334098 -0.000000 -0.000000 0.000000
    98 0.332744 1.971388 1.328540 -0.000000 -0.000000 0.000000
    99 0.043933 0.158789 1.574819 -0.000000 -0.000000 0.000000
    100 0.048536 0.770840 1.553805 -0.000000 -0.000000 0.000000
    101 -2.266724 -17.273188 2.691413 -0.000082 -0.011209 1.570742
    102 -2.272339 -11.916818 3.087259 -1.582724 0.349125 3.137458
    103 -2.566252 -16.157913 1.680758 0.011209 -0.000082 -0.000055
    104 -2.807336 -10.653466 -0.621820 0.321796 -0.000082 -0.000055
    105 0.000000 0.000000 -0.000000 -0.000000 -0.000000 0.000000
    106 0.000000 0.000000 -0.000000 -0.000000 -0.000000 0.000000
    107 0.000000 0.000000 -0.000000 -0.000000 -0.000000 0.000000
    108 0.000000 0.000000 -0.000000 -0.000000 -0.000000 0.000000
  time 8
    0 0.000000 0.000000 0.000000 0.000000 0.000000 0.000000
    1 0.000000 500.000000 0.000000 0.000000 -0.000000 0.000000
    2 0.000000 500.000000 0.000000 0.000000 -0.000000 0.000000
    3 0.000000 500.000000 0.000000 0.000000 -0.000000 0.000000
    4 0.000000 500.000000 0.000000 0.000000 -0.000000 0.000000
    5 0.000000 500.000000 0.000000 0.000000 -0.000000 0.000000
    6 0.000000 500.000000 0.000000 0.000000 -0.000000 0.000000
    7 0.000000 500.000000 0.000000 0.000000 -0.000000 0.000000
    8 0.000000 500.000000 0.000000 0.000000 -0.000000 0.000000
    9 0.000000 500.000000 0.000000 0.000000 -0.000000 0.000000
    10 0.000000 500.000000 0.000000 0.000000 -0.000000 0.000000
    11 0.000000 500.000000 0.000000 0.000000 -0.000000 0.000000
    12 0.000000 500.000000 0.000000 0.000000 -0.000000 0.000000
    13 0.000000 500.000000 0.000000 0.000000 -0.000000 0.000000
    14 0.000000 500.000000 0.000000 0.000000 -0.000000 0.000000
    15 0.000000 500.000000 0.000000 0.000000 -0.000000 0.000000
    16 0.000000 500.000000 0.000000 0.000000 -0.000000 0.000000
    17 0.000000 500.000000 0.000000 0.000000 -0.000000 0.000000
    18 0.000000 500.000000 0.000000 0.000000 -0.000000 0.000000
    19 0.000000 500.000000 0.000000 0.000000 -0.000000 0.000000
    20 0.000000 500.000000 0.000000 0.000000 -0.000000 0.000000
    21 0.000000 500.000000 0.000000 0.000000 -0.000000 0.000000
    22 0.000000 500.000000 0.000000 0.000000 -0.000000 0.000000
    23 0.000000 500.000000 0.000000 0.000000 -0.000000 0.000000
    24 0.000000 500.000000 0.000000 0.000000 -0.000000 0.000000
    25 0.000000 500.000000 0.000000 0.000000 -0.000000 0.000000
    26 0.000000 500.000000 0.000000 0.000000 -0.000000 0.000000
    27 0.000000 500.000000 0.000000 0.000000 -0.000000 0.000000
    28 0.000000 500.000000 0.000000 0.000000 -0.000000 0.000000
    29 0.000000 500.000000 0.000000 0.000000 -0.000000 0.000000
    30 0.000000 500.000000 0.000000 0.000000 -0.000000 0.000000
    31 0.000000 500.000000 0.000000 0.000000 -0.000000 0.000000
    32 0.000000 500.000000 0.000000 0.000000 -0.000000 0.000000
    33 0.000000 500.000000 0.000000 0.000000 -0.000000 0.000000
    34 0.000000 500.000000 0.000000 0.000000 -0.000000 0.000000
    35 0.000000 500.000000 0.000000 0.000000 -0.000000 0.000000
    36 0.000000 500.000000 0.000000 0.000000 -0.000000 0.000000
    37 0.000000 500.000000 0.000000 0.000000 -0.000000 0.000000
    38 0.000000 500.000000 0.000000 0.000000 -0.000000 0.000000
    39 0.000000 500.000000 0.000000 0.000000 -0.000000 0.000000
    40 0.000000 500.000000 0.000000 0.000000 -0.000000 0.000000
    41 0.000000 500.000000 0.000000 0.000000 -0.000000 0.000000
    42 0.000000 500.000000 0.000000 0.000000 -0.000000 0.000000
    43 0.000000 500.000000 0.000000 0.000000 -0.000000 0.000000
    44 0.000000 500.000000 0.000000 0.000000 -0.000000 0.000000
    45 0.000000 500.000000 0.000000 0.000000 -0.000000 0.000000
    46 0.000000 500.000000 0.000000 0.000000 -0.000000 0.000000
    47 0.000000 500.000000 0.000000 0.000000 -0.000000 0.000000
    48 -3.936473 1.533545 -22.035890 0.043781 0.024714 1.570707
    49 4.382121 0.416647 4.575281 -0.005882 1.526905 -1.618466
    50 -4.641472 0.171584 0.038427 0.000012 0.000029 0.000795
    51 -4.355366 1.783588 2.504777 0.471209 -0.002912 -0.005138
    52 -9.748767 1.090499 0.055647 0.000016 0.000059 0.001711
    53 6.216464 -8.667295 8.241883 1.262029 0.965791 -1.983127
    54 0.199546 -8.427149 5.364373 0.930310 -0.581259 -2.316972
    55 -6.095045 -0.629937 0.079735 -0.000004 -0.019067 -0.542755
    56 -3.706742 -3.404043 10.194477 2.527592 0.598450 0.395578
    57 0.312431 -8.855937 -1.550667 -1.341573 -0.292407 -0.223451
    58 -3.744707 -0.571245 0.055299 0.009941 0.016408 0.546282
    59 -2.671030 -0.302719 0.035855 0.006509 0.012700 0.404040
    60 -6.278615 -0.841150 -1.098510 -0.017309 0.171278 0.697318
    61 -4.173331 -1.167270 0.079809 0.016411 0.021217 0.773521
    62 -4.303763 -1.269014 0.084539 0.017446 0.021795 0.806884
    63 -6.156979 -0.353958 -0.188309 0.003834 0.074800 0.723881
    64 -4.264963 -1.120929 0.079096 0.015946 0.020943 0.758327
    65 -3.864700 -0.857963 0.066267 0.013155 0.019083 0.663964
    66 -6.581797 -0.477666 0.877936 0.069944 0.082392 0.807064
    67 -4.715603 -1.766778 0.105523 0.022297 0.023947 0.956303
    68 -3.907631 -0.910516 0.068477 0.013722 0.019492 0.683609
    69 -6.982421 -0.355481 2.238437 0.202056 0.041753 0.900207
    70 -4.495627 -1.796733 0.104451 0.022562 0.024040 0.964209
    71 -4.789816 -2.035810 0.115449 0.024798 0.024737 1.030096
    72 -5.530195 0.313496 1.327036 0.258214 -0.020760 -0.545382
    73 -3.061748 -8.850421 2.167669 0.177366 -1.380541 2.992474
    74 -3.819022 -0.810864 -0.517287 -0.507914 0.550203 -1.422181
    75 -4.122126 -3.599298 0.162646 0.018186 -0.041252 -1.373495
    76 -3.344721 -9.191396 4.125788 -2.165562 0.027906 0.669608
    77 1.293092 -5.710230 12.474580 2.669832 0.165045 0.432275
    78 -3.426358 -0.405775 0.046592 0.007917 0.014350 0.465063
    79 -1.944905 -0.084606 0.021454 0.003116 0.007631 0.232297
    80 -3.076700 0.846977 1.144071 0.012098 -0.017090 0.055572
    81 -1.543415 -0.035599 -0.010775 -0.004759 0.006490 0.108475
    82 -1.953097 0.037416 0.102510 0.021234 -0.011388 0.214458
    83 -5.000989 0.490842 0.232710 -0.002072 -0.101618 0.590977
    84 -4.939331 -1.885083 0.111711 0.023419 0.024326 0.989621
    85 -5.148520 -2.359039 0.129945 0.027739 0.025415 1.115043
    86 -5.182119 -0.031648 -0.744282 -0.053768 -0.103666 0.699380
    87 -4.772088 -1.844273 0.108717 0.023027 0.024198 0.978021
    88 -5.239050 -2.600095 0.139068 0.029869 0.025745 1.175683
    89 -5.091835 -0.378864 -1.602364 -0.079397 -0.011289 0.631412
    90 -4.298837 -1.547701 0.094041 0.020181 0.023114 0.892317
    91 -5.401552 -3.576395 0.174068 0.038100 0.025807 1.407785
    92 -5.362806 -3.866592 -0.736699 -0.223318 -0.039146 -1.371465
    93 -4.988419 -4.774696 -4.429948 0.048727 -0.000371 -0.000461
    94 -0.042474 -3.591028 -0.924562 0.000000 0.000000 -0.000000
    95 -0.272662 1.954627 0.707806 0.000000 0.000000 -0.000000
    96 0.326769 1.949929 0.702248 0.000000 0.000000 -0.000000
    97 -0.266687 1.976085 1.334098 0.000000 0.000000 -0.000000
    98 0.332744 1.971387 1.328540 0.000000 0.000000 -0.000000
    99 0.043933 0.158789 1.574819 0.000000 0.000000 -0.000000
    100 0.048536 0.770840 1.553805 0.000000 0.000000 -0.000000
    101 -2.266724 -17.273188 2.691413 -0.000082 -0.011209 1.570742
    102 -2.272339 -11.916818 3.087259 -1.582724 0.349125 3.137458
    103 -2.566252 -16.157913 1.680758 0.011209 -0.000082 -0.000055
    104 -2.807336 -10.653466 -0.621820 0.321796 -0.000082 -0.000055
    105 0.000000 -0.000000 0.000000 0.000000 0.000000 -0.000000
    106 0.000000 -0.000000 0.000000 0.000000 0.000000 -0.000000
    107 0.000000 -0.000000 0.000000 0.000000 0.000000 -0.000000
    108 0.000000 -0.000000 0.000000 0.000000 0.000000 -0.000000
  time 9
    0 0.000000 0.000000 0.000000 0.000000 0.000000 0.000000
    1 0.000000 500.000000 0.000000 0.000000 -0.000000 0.000000
    2 0.000000 500.000000 0.000000 0.000000 -0.000000 0.000000
    3 0.000000 500.000000 0.000000 0.000000 -0.000000 0.000000
    4 0.000000 500.000000 0.000000 0.000000 -0.000000 0.000000
    5 0.000000 500.000000 0.000000 0.000000 -0.000000 0.000000
    6 0.000000 500.000000 0.000000 0.000000 -0.000000 0.000000
    7 0.000000 500.000000 0.000000 0.000000 -0.000000 0.000000
    8 0.000000 500.000000 0.000000 0.000000 -0.000000 0.000000
    9 0.000000 500.000000 0.000000 0.000000 -0.000000 0.000000
    10 0.000000 500.000000 0.000000 0.000000 -0.000000 0.000000
    11 0.000000 500.000000 0.000000 0.000000 -0.000000 0.000000
    12 0.000000 500.000000 0.000000 0.000000 -0.000000 0.000000
    13 0.000000 500.000000 0.000000 0.000000 -0.000000 0.000000
    14 0.000000 500.000000 0.000000 0.000000 -0.000000 0.000000
    15 0.000000 500.000000 0.000000 0.000000 -0.000000 0.000000
    16 0.000000 500.000000 0.000000 0.000000 -0.000000 0.000000
    17 0.000000 500.000000 0.000000 0.000000 -0.000000 0.000000
    18 0.000000 500.000000 0.000000 0.000000 -0.000000 0.000000
    19 0.000000 500.000000 0.000000 0.000000 -0.000000 0.000000
    20 0.000000 500.000000 0.000000 0.000000 -0.000000 0.000000
    21 0.000000 500.000000 0.000000 0.000000 -0.000000 0.000000
    22 0.000000 500.000000 0.000000 0.000000 -0.000000 0.000000
    23 0.000000 500.000000 0.000000 0.000000 -0.000000 0.000000
    24 0.000000 500.000000 0.000000 0.000000 -0.000000 0.000000
    25 0.000000 500.000000 0.000000 0.000000 -0.000000 0.000000
    26 0.000000 500.000000 0.000000 0.000000 -0.000000 0.000000
    27 0.000000 500.000000 0.000000 0.000000 -0.000000 0.000000
    28 0.000000 500.000000 0.000000 0.000000 -0.000000 0.000000
    29 0.000000 500.000000 0.000000 0.000000 -0.000000 0.000000
    30 0.000000 500.000000 0.000000 0.000000 -0.000000 0.000000
    31 0.000000 500.000000 0.000000 0.000000 -0.000000 0.000000
    32 0.000000 500.000000 0.000000 0.000000 -0.000000 0.000000
    33 0.000000 500.000000 0.000000 0.000000 -0.000000 0.000000
    34 0.000000 500.000000 0.000000 0.000000 -0.000000 0.000000
    35 0.000000 500.000000 0.000000 0.000000 -0.000000 0.000000
    36 0.000000 500.000000 0.000000 0.000000 -0.000000 0.000000
    37 0.000000 500.000000 0.000000 0.000000 -0.000000 0.000000
    38 0.000000 500.000000 0.000000 0.000000 -0.000000 0.000000
    39 0.000000 500.000000 0.000000 0.000000 -0.000000 0.000000
    40 0.000000 500.000000 0.000000 0.000000 -0.000000 0.000000
    41 0.000000 500.000000 0.000000 0.000000 -0.000000 0.000000
    42 0.000000 500.000000 0.000000 0.000000 -0.000000 0.000000
    43 0.000000 500.000000 0.000000 0.000000 -0.000000 0.000000
    44 0.000000 500.000000 0.000000 0.000000 -0.000000 0.000000
    45 0.000000 500.000000 0.000000 0.000000 -0.000000 0.000000
    46 0.000000 500.000000 0.000000 0.000000 -0.000000 0.000000
    47 0.000000 500.000000 0.000000 0.000000 -0.000000 0.000000
    48 -3.936473 1.533545 -22.035890 0.043781 0.024714 1.570707
    49 4.382121 0.416647 4.575281 -0.005882 1.526905 -1.618466
    50 -4.641472 0.171584 0.038427 0.000012 0.000029 0.000795
    51 -4.355366 1.783588 2.504777 0.471209 -0.002912 -0.005138
    52 -9.748767 1.090499 0.055647 0.000016 0.000059 0.001711
    53 6.216464 -8.667295 8.241883 1.262029 0.965791 -1.983127
    54 0.211695 -8.415355 5.342777 0.926804 -0.594256 -2.313313
    55 -6.006675 -0.687975 0.080879 0.000234 -0.019883 -0.566672
    56 -3.667617 -3.318577 10.153484 2.517365 0.610955 0.395064
    57 0.312431 -8.855937 -1.550667 -1.341573 -0.292407 -0.223451
    58 -3.744707 -0.571245 0.055299 0.009941 0.016408 0.546282
    59 -2.671030 -0.302719 0.035855 0.006509 0.012700 0.404040
    60 -6.278615 -0.841150 -1.098510 -0.017309 0.171278 0.697318
    61 -4.173331 -1.167270 0.079809 0.016411 0.021217 0.773521
    62 -4.303763 -1.269013 0.084538 0.017446 0.021795 0.806884
    63 -6.156979 -0.353960 -0.188309 0.003834 0.074800 0.723881
    64 -4.264962 -1.120929 0.079095 0.015946 0.020943 0.758327
    65 -3.864700 -0.857963 0.066266 0.013155 0.019083 0.663964
    66 -6.581797 -0.477665 0.877937 0.069944 0.082392 0.807064
    67 -4.715603 -1.766778 0.105521 0.022297 0.023947 0.956303
    68 -3.907631 -0.910516 0.068475 0.013722 0.019492 0.683609
    69 -6.982423 -0.355483 2.238440 0.202056 0.041753 0.900207
    70 -4.495627 -1.796733 0.104450 0.022562 0.024040 0.964209
    71 -4.789816 -2.035810 0.115447 0.024798 0.024737 1.030096
    72 -5.429616 0.227374 1.302990 0.253693 -0.021541 -0.569248
    73 -3.061748 -8.850421 2.167669 0.177366 -1.380541 2.992474
    74 -3.814906 -0.747618 -0.476359 -0.499128 0.559583 -1.409436
    75 -4.107690 -3.688283 0.165557 0.018837 -0.041574 -1.393920
    76 -3.357771 -9.201931 4.126235 -2.165544 0.017109 0.665642
    77 1.293092 -5.710228 12.474580 2.669832 0.165045 0.432275
    78 -3.426358 -0.405774 0.046592 0.007917 0.014350 0.465063
    79 -1.944905 -0.084606 0.021454 0.003116 0.007631 0.232297
    80 -3.076700 0.846977 1.144071 0.012098 -0.017090 0.055572
    81 -1.543415 -0.035599 -0.010775 -0.004759 0.006490 0.108475
    82 -1.953097 0.037416 0.102510 0.021234 -0.011388 0.214458
    83 -5.000989 0.490842 0.232712 -0.002072 -0.101618 0.590977
    84 -4.939329 -1.885083 0.111712 0.023419 0.024326 0.989621
    85 -5.148520 -2.359037 0.129945 0.027739 0.025415 1.115043
    86 -5.182117 -0.031647 -0.744281 -0.053768 -0.103666 0.699379
    87 -4.772088 -1.844273 0.108717 0.023027 0.024198 0.978021
    88 -5.239050 -2.600095 0.139068 0.029869 0.025745 1.175683
    89 -5.091835 -0.378862 -1.602364 -0.079397 -0.011289 0.631412
    90 -4.298837 -1.547703 0.094041 0.020181 0.023114 0.892317
    91 -5.401554 -3.576395 0.174068 0.038100 0.025807 1.407785
    92 -5.344011 -3.928734 -0.729678 -0.221067 -0.039487 -1.391901
    93 -4.988523 -4.694497 -4.508988 0.035814 -0.000275 -0.000337
    94 -0.042474 -3.591029 -0.924563 -0.000000 -0.000000 -0.000000
    95 -0.272662 1.954627 0.707806 -0.000000 -0.000000 -0.000000
    96 0.326769 1.949929 0.702248 -0.000000 -0.000000 -0.000000
    97 -0.266687 1.976085 1.334098 -0.000000 -0.000000 -0.000000
    98 0.332744 1.971387 1.328540 -0.000000 -0.000000 -0.000000
    99 0.043933 0.158789 1.574819 -0.000000 -0.000000 -0.000000
    100 0.048536 0.770839 1.553805 -0.000000 -0.000000 -0.000000
    101 -2.266724 -17.273188 2.691413 -0.000082 -0.011209 1.570742
    102 -2.272339 -11.916818 3.087259 -1.582724 0.349125 3.137458
    103 -2.566252 -16.157913 1.680758 0.011209 -0.000082 -0.000055
    104 -2.807336 -10.653466 -0.621820 0.321796 -0.000082 -0.000055
    105 -0.000000 -0.000000 0.000000 -0.000000 -0.000000 -0.000000
    106 -0.000000 -0.000000 0.000000 -0.000000 -0.000000 -0.000000
    107 -0.000000 -0.000000 0.000000 -0.000000 -0.000000 -0.000000
    108 -0.000000 -0.000000 0.000000 -0.000000 -0.000000 -0.000000
  time 10
    0 0.000000 0.000000 0.000000 0.000000 0.000000 0.000000
    1 0.000000 500.000000 0.000000 0.000000 -0.000000 0.000000
    2 0.000000 500.000000 0.000000 0.000000 -0.000000 0.000000
    3 0.000000 500.000000 0.000000 0.000000 -0.000000 0.000000
    4 0.000000 500.000000 0.000000 0.000000 -0.000000 0.000000
    5 0.000000 500.000000 0.000000 0.000000 -0.000000 0.000000
    6 0.000000 500.000000 0.000000 0.000000 -0.000000 0.000000
    7 0.000000 500.000000 0.000000 0.000000 -0.000000 0.000000
    8 0.000000 500.000000 0.000000 0.000000 -0.000000 0.000000
    9 0.000000 500.000000 0.000000 0.000000 -0.000000 0.000000
    10 0.000000 500.000000 0.000000 0.000000 -0.000000 0.000000
    11 0.000000 500.000000 0.000000 0.000000 -0.000000 0.000000
    12 0.000000 500.000000 0.000000 0.000000 -0.000000 0.000000
    13 0.000000 500.000000 0.000000 0.000000 -0.000000 0.000000
    14 0.000000 500.000000 0.000000 0.000000 -0.000000 0.000000
    15 0.000000 500.000000 0.000000 0.000000 -0.000000 0.000000
    16 0.000000 500.000000 0.000000 0.000000 -0.000000 0.000000
    17 0.000000 500.000000 0.000000 0.000000 -0.000000 0.000000
    18 0.000000 500.000000 0.000000 0.000000 -0.000000 0.000000
    19 0.000000 500.000000 0.000000 0.000000 -0.000000 0.000000
    20 0.000000 500.000000 0.000000 0.000000 -0.000000 0.000000
    21 0.000000 500.000000 0.000000 0.000000 -0.000000 0.000000
    22 0.000000 500.000000 0.000000 0.000000 -0.000000 0.000000
    23 0.000000 500.000000 0.000000 0.000000 -0.000000 0.000000
    24 0.000000 500.000000 0.000000 0.000000 -0.000000 0.000000
    25 0.000000 500.000000 0.000000 0.000000 -0.000000 0.000000
    26 0.000000 500.000000 0.000000 0.000000 -0.000000 0.000000
    27 0.000000 500.000000 0.000000 0.000000 -0.000000 0.000000
    28 0.000000 500.000000 0.000000 0.000000 -0.000000 0.000000
    29 0.000000 500.000000 0.000000 0.000000 -0.000000 0.000000
    30 0.000000 500.000000 0.000000 0.000000 -0.000000 0.000000
    31 0.000000 500.000000 0.000000 0.000000 -0.000000 0.000000
    32 0.000000 500.000000 0.000000 0.000000 -0.000000 0.000000
    33 0.000000 500.000000 0.000000 0.000000 -0.000000 0.000000
    34 0.000000 500.000000 0.000000 0.000000 -0.000000 0.000000
    35 0.000000 500.000000 0.000000 0.000000 -0.000000 0.000000
    36 0.000000 500.000000 0.000000 0.000000 -0.000000 0.000000
    37 0.000000 500.000000 0.000000 0.000000 -0.000000 0.000000
    38 0.000000 500.000000 0.000000 0.000000 -0.000000 0.000000
    39 0.000000 500.000000 0.000000 0.000000 -0.000000 0.000000
    40 0.000000 500.000000 0.000000 0.000000 -0.000000 0.000000
    41 0.000000 500.000000 0.000000 0.000000 -0.000000 0.000000
    42 0.000000 500.000000 0.000000 0.000000 -0.000000 0.000000
    43 0.000000 500.000000 0.000000 0.000000 -0.000000 0.000000
    44 0.000000 500.000000 0.000000 0.000000 -0.000000 0.000000
    45 0.000000 500.000000 0.000000 0.000000 -0.000000 0.000000
    46 0.000000 500.000000 0.000000 0.000000 -0.000000 0.000000
    47 0.000000 500.000000 0.000000 0.000000 -0.000000 0.000000
    48 -3.936473 1.533545 -22.035890 0.043781 0.024714 1.570707
    49 4.382121 0.416647 4.575281 -0.005882 1.526905 -1.618466
    50 -4.641472 0.171584 0.038427 0.000012 0.000029 0.000795
    51 -4.355366 1.783588 2.504777 0.471209 -0.002912 -0.005138
    52 -9.748767 1.090499 0.055647 0.000016 0.000059 0.001711
    53 6.216464 -8.667295 8.241883 1.262029 0.965791 -1.983127
    54 0.224657 -8.402784 5.317618 0.922652 -0.609210 -2.309157
    55 -5.902921 -0.760082 0.082359 0.000543 -0.020851 -0.595256
    56 -3.623674 -3.212476 10.103111 2.504346 0.625852 0.394347
    57 0.312431 -8.855937 -1.550667 -1.341573 -0.292407 -0.223451
    58 -3.744707 -0.571245 0.055299 0.009941 0.016408 0.546282
    59 -2.671030 -0.302719 0.035855 0.006509 0.012700 0.404040
    60 -6.278615 -0.841150 -1.098510 -0.017309 0.171278 0.697318
    61 -4.173331 -1.167270 0.079809 0.016411 0.021217 0.773521
    62 -4.303763 -1.269013 0.084538 0.017446 0.021795 0.806884
    63 -6.156979 -0.353958 -0.188309 0.003834 0.074800 0.723881
    64 -4.264962 -1.120929 0.079095 0.015946 0.020943 0.758327
    65 -3.864700 -0.857963 0.066267 0.013155 0.019083 0.663964
    66 -6.581797 -0.477665 0.877938 0.069944 0.082392 0.807064
    67 -4.715603 -1.766778 0.105523 0.022297 0.023947 0.956303
    68 -3.907630 -0.910516 0.068476 0.013722 0.019492 0.683609
    69 -6.982422 -0.355482 2.238439 0.202056 0.041753 0.900207
    70 -4.495626 -1.796733 0.104450 0.022562 0.024040 0.964209
    71 -4.789815 -2.035809 0.115448 0.024798 0.024737 1.030096
    72 -5.312984 0.120924 1.273548 0.248138 -0.022475 -0.597769
    73 -3.061748 -8.850421 2.167669 0.177366 -1.380541 2.992474
    74 -3.811955 -0.675084 -0.428392 -0.488689 0.570233 -1.394151
    75 -4.092622 -3.796564 0.169123 0.019635 -0.041945 -1.418692
    76 -3.371758 -9.212983 4.125612 -2.165324 0.004356 0.661267
    77 1.293092 -5.710229 12.474580 2.669832 0.165045 0.432275
    78 -3.426358 -0.405774 0.046592 0.007917 0.014350 0.465063
    79 -1.944905 -0.084606 0.021454 0.003116 0.007631 0.232297
    80 -3.076700 0.846977 1.144070 0.012098 -0.017090 0.055572
    81 -1.543417 -0.035599 -0.010775 -0.004759 0.006490 0.108475
    82 -1.953097 0.037417 0.102511 0.021234 -0.011388 0.214458
    83 -5.000989 0.490842 0.232710 -0.002072 -0.101618 0.590977
    84 -4.939330 -1.885083 0.111711 0.023419 0.024326 0.989621
    85 -5.148520 -2.359037 0.129945 0.027739 0.025415 1.115043
    86 -5.182112 -0.031643 -0.744280 -0.053768 -0.103666 0.699378
    87 -4.772088 -1.844275 0.108716 0.023027 0.024198 0.978021
    88 -5.239050 -2.600095 0.139068 0.029869 0.025745 1.175683
    89 -5.091835 -0.378862 -1.602363 -0.079397 -0.011289 0.631412
    90 -4.298837 -1.547703 0.094041 0.020181 0.023114 0.892317
    91 -5.401553 -3.576395 0.174068 0.038100 0.025807 1.407785
    92 -5.323097 -4.004836 -0.721211 -0.218364 -0.039879 -1.416685
    93 -4.988549 -4.596790 -4.594408 0.019978 -0.000155 -0.000187
    94 -0.042474 -3.591029 -0.924563 0.000000 0.000000 -0.000000
    95 -0.272662 1.954627 0.707806 0.000000 0.000000 -0.000000
    96 0.326769 1.949929 0.702248 0.000000 0.000000 -0.000000
    97 -0.266687 1.976085 1.334098 0.000000 0.000000 -0.000000
    98 0.332744 1.971387 1.328540 0.000000 0.000000 -0.000000
    99 0.043933 0.158788 1.574819 0.000000 0.000000 -0.000000
    100 0.048536 0.770840 1.553805 0.000000 0.000000 -0.000000
    101 -2.266724 -17.273188 2.691413 -0.000082 -0.011209 1.570742
    102 -2.272339 -11.916818 3.087259 -1.582724 0.349125 3.137458
    103 -2.566252 -16.157913 1.680758 0.011209 -0.000082 -0.000055
    104 -2.807336 -10.653466 -0.621820 0.321796 -0.000082 -0.000055
    105 -0.000000 -0.000000 0.000000 0.000000 0.000000 -0.000000
    106 -0.000000 -0.000000 0.000000 0.000000 0.000000 -0.000000
    107 -0.000000 -0.000000 0.000000 0.000000 0.000000 -0.000000
    108 -0.000000 -0.000000 0.000000 0.000000 0.000000 -0.000000
  time 11
    0 0.000000 0.000000 0.000000 0.000000 0.000000 0.000000
    1 0.000000 500.000000 0.000000 0.000000 -0.000000 0.000000
    2 0.000000 500.000000 0.000000 0.000000 -0.000000 0.000000
    3 0.000000 500.000000 0.000000 0.000000 -0.000000 0.000000
    4 0.000000 500.000000 0.000000 0.000000 -0.000000 0.000000
    5 0.000000 500.000000 0.000000 0.000000 -0.000000 0.000000
    6 0.000000 500.000000 0.000000 0.000000 -0.000000 0.000000
    7 0.000000 500.000000 0.000000 0.000000 -0.000000 0.000000
    8 0.000000 500.000000 0.000000 0.000000 -0.000000 0.000000
    9 0.000000 500.000000 0.000000 0.000000 -0.000000 0.000000
    10 0.000000 500.000000 0.000000 0.000000 -0.000000 0.000000
    11 0.000000 500.000000 0.000000 0.000000 -0.000000 0.000000
    12 0.000000 500.000000 0.000000 0.000000 -0.000000 0.000000
    13 0.000000 500.000000 0.000000 0.000000 -0.000000 0.000000
    14 0.000000 500.000000 0.000000 0.000000 -0.000000 0.000000
    15 0.000000 500.000000 0.000000 0.000000 -0.000000 0.000000
    16 0.000000 500.000000 0.000000 0.000000 -0.000000 0.000000
    17 0.000000 500.000000 0.000000 0.000000 -0.000000 0.000000
    18 0.000000 500.000000 0.000000 0.000000 -0.000000 0.000000
    19 0.000000 500.000000 0.000000 0.000000 -0.000000 0.000000
    20 0.000000 500.000000 0.000000 0.000000 -0.000000 0.000000
    21 0.000000 500.000000 0.000000 0.000000 -0.000000 0.000000
    22 0.000000 500.000000 0.000000 0.000000 -0.000000 0.000000
    23 0.000000 500.000000 0.000000 0.000000 -0.000000 0.000000
    24 0.000000 500.000000 0.000000 0.000000 -0.000000 0.000000
    25 0.000000 500.000000 0.000000 0.000000 -0.000000 0.000000
    26 0.000000 500.000000 0.000000 0.000000 -0.000000 0.000000
    27 0.000000 500.000000 0.000000 0.000000 -0.000000 0.000000
    28 0.000000 500.000000 0.000000 0.000000 -0.000000 0.000000
    29 0.000000 500.000000 0.000000 0.000000 -0.000000 0.000000
    30 0.000000 500.000000 0.000000 0.000000 -0.000000 0.000000
    31 0.000000 500.000000 0.000000 0.000000 -0.000000 0.000000
    32 0.000000 500.000000 0.000000 0.000000 -0.000000 0.000000
    33 0.000000 500.000000 0.000000 0.000000 -0.000000 0.000000
    34 0.000000 500.000000 0.000000 0.000000 -0.000000 0.000000
    35 0.000000 500.000000 0.000000 0.000000 -0.000000 0.000000
    36 0.000000 500.000000 0.000000 0.000000 -0.000000 0.000000
    37 0.000000 500.000000 0.000000 0.000000 -0.000000 0.000000
    38 0.000000 500.000000 0.000000 0.000000 -0.000000 0.000000
    39 0.000000 500.000000 0.000000 0.000000 -0.000000 0.000000
    40 0.000000 500.000000 0.000000 0.000000 -0.000000 0.000000
    41 0.000000 500.000000 0.000000 0.000000 -0.000000 0.000000
    42 0.000000 500.000000 0.000000 0.000000 -0.000000 0.000000
    43 0.000000 500.000000 0.000000 0.000000 -0.000000 0.000000
    44 0.000000 500.000000 0.000000 0.000000 -0.000000 0.000000
    45 0.000000 500.000000 0.000000 0.000000 -0.000000 0.000000
    46 0.000000 500.000000 0.000000 0.000000 -0.000000 0.000000
    47 0.000000 500.000000 0.000000 0.000000 -0.000000 0.000000
    48 -3.936473 1.533545 -22.035890 0.043781 0.024714 1.570707
    49 4.382121 0.416647 4.575281 -0.005882 1.526905 -1.618466
    50 -4.641472 0.171584 0.038427 0.000012 0.000029 0.000795
    51 -4.355366 1.783588 2.504777 0.471209 -0.002912 -0.005138
    52 -9.748767 1.090499 0.055647 0.000016 0.000059 0.001711
    53 6.216464 -8.667295 8.241883 1.262029 0.965791 -1.983127
    54 0.234095 -8.393711 5.296926 0.919185 -0.621467 -2.305898
    55 -5.818579 -0.822030 0.083677 0.000820 -0.021646 -0.618931
    56 -3.588128 -3.121590 10.059064 2.492733 0.638445 0.393184
    57 0.312431 -8.855937 -1.550667 -1.341573 -0.292407 -0.223451
    58 -3.744707 -0.571245 0.055299 0.009941 0.016408 0.546282
    59 -2.671029 -0.302717 0.035855 0.006509 0.012700 0.404040
    60 -6.278615 -0.841152 -1.098510 -0.017309 0.171278 0.697318
    61 -4.173331 -1.167270 0.079809 0.016411 0.021217 0.773521
    62 -4.303763 -1.269014 0.084539 0.017446 0.021795 0.806884
    63 -6.156979 -0.353960 -0.188309 0.003834 0.074800 0.723881
    64 -4.264961 -1.120929 0.079096 0.015946 0.020943 0.758327
    65 -3.864705 -0.857967 0.066267 0.013156 0.019083 0.663965
    66 -6.581797 -0.477666 0.877937 0.069944 0.082392 0.807064
    67 -4.715603 -1.766779 0.105523 0.022297 0.023947 0.956304
    68 -3.907631 -0.910516 0.068477 0.013722 0.019492 0.683609
    69 -6.982423 -0.355483 2.238438 0.202056 0.041753 0.900207
    70 -4.495627 -1.796733 0.104449 0.022562 0.024040 0.964209
    71 -4.789816 -2.035810 0.115450 0.024798 0.024737 1.030096
    72 -5.219576 0.029730 1.248218 0.243343 -0.023249 -0.621388
    73 -3.061748 -8.850421 2.167669 0.177366 -1.380541 2.992474
    74 -3.810448 -0.614950 -0.387696 -0.479741 0.579001 -1.381105
    75 -4.081954 -3.888622 0.172175 0.020318 -0.042245 -1.439691
    76 -3.383878 -9.222350 4.124103 -2.164968 -0.006468 0.657521
    77 1.293090 -5.710219 12.474582 2.669830 0.165045 0.432275
    78 -3.426358 -0.405775 0.046592 0.007917 0.014350 0.465063
    79 -1.944905 -0.084606 0.021454 0.003116 0.007631 0.232297
    80 -3.076700 0.846977 1.144070 0.012098 -0.017090 0.055572
    81 -1.543417 -0.035599 -0.010775 -0.004759 0.006490 0.108475
    82 -1.953097 0.037417 0.102511 0.021234 -0.011388 0.214458
    83 -5.000989 0.490842 0.232710 -0.002072 -0.101618 0.590977
    84 -4.939330 -1.885083 0.111711 0.023419 0.024326 0.989621
    85 -5.148520 -2.359037 0.129945 0.027739 0.025415 1.115043
    86 -5.182117 -0.031647 -0.744281 -0.053768 -0.103666 0.699379
    87 -4.772088 -1.844273 0.108716 0.023027 0.024198 0.978021
    88 -5.239050 -2.600095 0.139068 0.029869 0.025745 1.175683
    89 -5.091835 -0.378864 -1.602363 -0.079397 -0.011289 0.631412
    90 -4.298836 -1.547701 0.094041 0.020181 0.023114 0.892317
    91 -5.401552 -3.576395 0.174068 0.038100 0.025807 1.407785
    92 -5.306526 -4.069887 -0.713810 -0.216010 -0.040194 -1.437694
    93 -4.988534 -4.513360 -4.663338 0.006334 -0.000049 -0.000059
    94 -0.042474 -3.591029 -0.924564 -0.000000 -0.000000 0.000000
    95 -0.272662 1.954627 0.707806 -0.000000 -0.000000 0.000000
    96 0.326769 1.949929 0.702248 -0.000000 -0.000000 0.000000
    97 -0.266687 1.976085 1.334098 -0.000000 -0.000000 0.000000
    98 0.332744 1.971387 1.328540 -0.000000 -0.000000 0.000000
    99 0.043933 0.158789 1.574819 -0.000000 -0.000000 0.000000
    100 0.048536 0.770840 1.553805 -0.000000 -0.000000 0.000000
    101 -2.266724 -17.273188 2.691413 -0.000082 -0.011209 1.570742
    102 -2.272339 -11.916818 3.087259 -1.582724 0.349125 3.137458
    103 -2.566252 -16.157913 1.680758 0.011209 -0.000082 -0.000055
    104 -2.807336 -10.653466 -0.621820 0.321796 -0.000082 -0.000055
    105 -0.000000 -0.000000 -0.000000 -0.000000 -0.000000 0.000000
    106 -0.000000 -0.000000 -0.000000 -0.000000 -0.000000 0.000000
    107 -0.000000 -0.000000 -0.000000 -0.000000 -0.000000 0.000000
    108 -0.000000 -0.000000 -0.000000 -0.000000 -0.000000 0.000000
  time 12
    0 0.000000 0.000000 0.000000 0.000000 0.000000 0.000000
    1 0.000000 500.000000 0.000000 0.000000 -0.000000 0.000000
    2 0.000000 500.000000 0.000000 0.000000 -0.000000 0.000000
    3 0.000000 500.000000 0.000000 0.000000 -0.000000 0.000000
    4 0.000000 500.000000 0.000000 0.000000 -0.000000 0.000000
    5 0.000000 500.000000 0.000000 0.000000 -0.000000 0.000000
    6 0.000000 500.000000 0.000000 0.000000 -0.000000 0.000000
    7 0.000000 500.000000 0.000000 0.000000 -0.000000 0.000000
    8 0.000000 500.000000 0.000000 0.000000 -0.000000 0.000000
    9 0.000000 500.000000 0.000000 0.000000 -0.000000 0.000000
    10 0.000000 500.000000 0.000000 0.000000 -0.000000 0.000000
    11 0.000000 500.000000 0.000000 0.000000 -0.000000 0.000000
    12 0.000000 500.000000 0.000000 0.000000 -0.000000 0.000000
    13 0.000000 500.000000 0.000000 0.000000 -0.000000 0.000000
    14 0.000000 500.000000 0.000000 0.000000 -0.000000 0.000000
    15 0.000000 500.000000 0.000000 0.000000 -0.000000 0.000000
    16 0.000000 500.000000 0.000000 0.000000 -0.000000 0.000000
    17 0.000000 500.000000 0.000000 0.000000 -0.000000 0.000000
    18 0.000000 500.000000 0.000000 0.000000 -0.000000 0.000000
    19 0.000000 500.000000 0.000000 0.000000 -0.000000 0.000000
    20 0.000000 500.000000 0.000000 0.000000 -0.000000 0.000000
    21 0.000000 500.000000 0.000000 0.000000 -0.000000 0.000000
    22 0.000000 500.000000 0.000000 0.000000 -0.000000 0.000000
    23 0.000000 500.000000 0.000000 0.000000 -0.000000 0.000000
    24 0.000000 500.000000 0.000000 0.000000 -0.000000 0.000000
    25 0.000000 500.000000 0.000000 0.000000 -0.000000 0.000000
    26 0.000000 500.000000 0.000000 0.000000 -0.000000 0.000000
    27 0.000000 500.000000 0.000000 0.000000 -0.000000 0.000000
    28 0.000000 500.000000 0.000000 0.000000 -0.000000 0.000000
    29 0.000000 500.000000 0.000000 0.000000 -0.000000 0.000000
    30 0.000000 500.000000 0.000000 0.000000 -0.000000 0.000000
    31 0.000000 500.000000 0.000000 0.000000 -0.000000 0.000000
    32 0.000000 500.000000 0.000000 0.000000 -0.000000 0.000000
    33 0.000000 500.000000 0.000000 0.000000 -0.000000 0.000000
    34 0.000000 500.000000 0.000000 0.000000 -0.000000 0.000000
    35 0.000000 500.000000 0.000000 0.000000 -0.000000 0.000000
    36 0.000000 500.000000 0.000000 0.000000 -0.000000 0.000000
    37 0.000000 500.000000 0.000000 0.000000 -0.000000 0.000000
    38 0.000000 500.000000 0.000000 0.000000 -0.000000 0.000000
    39 0.000000 500.000000 0.000000 0.000000 -0.000000 0.000000
    40 0.000000 500.000000 0.000000 0.000000 -0.000000 0.000000
    41 0.000000 500.000000 0.000000 0.000000 -0.000000 0.000000
    42 0.000000 500.000000 0.000000 0.000000 -0.000000 0.000000
    43 0.000000 500.000000 0.000000 0.000000 -0.000000 0.000000
    44 0.000000 500.000000 0.000000 0.000000 -0.000000 0.000000
    45 0.000000 500.000000 0.000000 0.000000 -0.000000 0.000000
    46 0.000000 500.000000 0.000000 0.000000 -0.000000 0.000000
    47 0.000000 500.000000 0.000000 0.000000 -0.000000 0.000000
    48 -3.936473 1.533545 -22.035890 0.043781 0.024714 1.570707
    49 4.382121 0.416647 4.575281 -0.005882 1.526905 -1.618466
    50 -4.641472 0.171584 0.038427 0.000012 0.000029 0.000795
    51 -4.355366 1.783588 2.504777 0.471209 -0.002912 -0.005138
    52 -9.748767 1.090499 0.055647 0.000016 0.000059 0.001711
    53 6.216464 -8.667295 8.241883 1.262029 0.965791 -1.983127
    54 0.237957 -8.390034 5.287631 0.917612 -0.626979 -2.304487
    55 -5.780967 -0.850663 0.084299 0.000952 -0.022003 -0.629625
    56 -3.572285 -3.079618 10.038389 2.487214 0.644222 0.392455
    57 0.312431 -8.855935 -1.550667 -1.341573 -0.292407 -0.223451
    58 -3.744707 -0.571245 0.055299 0.009941 0.016408 0.546282
    59 -2.671030 -0.302719 0.035855 0.006509 0.012700 0.404040
    60 -6.278615 -0.841150 -1.098510 -0.017309 0.171278 0.697318
    61 -4.173331 -1.167270 0.079809 0.016411 0.021217 0.773521
    62 -4.303761 -1.269012 0.084537 0.017446 0.021795 0.806884
    63 -6.156979 -0.353958 -0.188309 0.003834 0.074800 0.723881
    64 -4.264961 -1.120929 0.079096 0.015946 0.020943 0.758327
    65 -3.864700 -0.857963 0.066267 0.013155 0.019083 0.663964
    66 -6.581797 -0.477666 0.877938 0.069944 0.082392 0.807064
    67 -4.715601 -1.766778 0.105523 0.022297 0.023947 0.956303
    68 -3.907631 -0.910516 0.068477 0.013722 0.019492 0.683609
    69 -6.982421 -0.355483 2.238442 0.202056 0.041753 0.900207
    70 -4.495627 -1.796733 0.104451 0.022562 0.024040 0.964209
    71 -4.789816 -2.035810 0.115449 0.024798 0.024737 1.030096
    72 -5.178366 -0.012360 1.236466 0.241112 -0.023599 -0.632057
    73 -3.061748 -8.850421 2.167669 0.177366 -1.380541 2.992474
    74 -3.810033 -0.587662 -0.368942 -0.475593 0.582962 -1.375081
    75 -4.077706 -3.930940 0.173585 0.020634 -0.042377 -1.449328
    76 -3.389618 -9.226727 4.123094 -2.164750 -0.011455 0.655767
    77 1.293092 -5.710228 12.474580 2.669832 0.165045 0.432275
    78 -3.426358 -0.405775 0.046592 0.007917 0.014350 0.465063
    79 -1.944905 -0.084606 0.021454 0.003116 0.007631 0.232297
    80 -3.076700 0.846977 1.144071 0.012098 -0.017090 0.055572
    81 -1.543417 -0.035599 -0.010775 -0.004759 0.006490 0.108475
    82 -1.953096 0.037409 0.102502 0.021232 -0.011388 0.214458
    83 -5.000989 0.490840 0.232712 -0.002072 -0.101618 0.590977
    84 -4.939331 -1.885083 0.111711 0.023419 0.024326 0.989621
    85 -5.148520 -2.359037 0.129947 0.027739 0.025415 1.115043
    86 -5.182119 -0.031648 -0.744280 -0.053768 -0.103666 0.699380
    87 -4.772086 -1.844271 0.108717 0.023027 0.024198 0.978021
    88 -5.239050 -2.600095 0.139068 0.029869 0.025745 1.175683
    89 -5.091835 -0.378864 -1.602364 -0.079397 -0.011289 0.631412
    90 -4.298837 -1.547703 0.094041 0.020181 0.023114 0.892317
    91 -5.401552 -3.576395 0.174068 0.038100 0.025807 1.407785
    92 -5.299263 -4.099897 -0.710335 -0.214907 -0.040333 -1.447337
    93 -4.988518 -4.474865 -4.694159 0.000000 0.000000 -0.000000
    94 -0.042474 -3.591029 -0.924564 0.000000 -0.000000 0.000000
    95 -0.272662 1.954627 0.707806 0.000000 -0.000000 0.000000
    96 0.326769 1.949929 0.702248 0.000000 -0.000000 0.000000
    97 -0.266687 1.976085 1.334098 0.000000 -0.000000 0.000000
    98 0.332744 1.971387 1.328540 0.000000 -0.000000 0.000000
    99 0.043933 0.158789 1.574819 0.000000 -0.000000 0.000000
    100 0.048536 0.770840 1.553805 0.000000 -0.000000 0.000000
    101 -2.266724 -17.273188 2.691413 -0.000082 -0.011209 1.570742
    102 -2.272339 -11.916818 3.087259 -1.582724 0.349125 3.137458
    103 -2.566252 -16.157913 1.680758 0.011209 -0.000082 -0.000055
    104 -2.807336 -10.653466 -0.621820 0.321796 -0.000082 -0.000055
    105 0.000000 0.000000 0.000000 0.000000 -0.000000 0.000000
    106 0.000000 0.000000 0.000000 0.000000 -0.000000 0.000000
    107 0.000000 0.000000 0.000000 0.000000 -0.000000 0.000000
    108 0.000000 0.000000 0.000000 0.000000 -0.000000 0.000000
end
