version 1
nodes
  0 "v_weapon" -1
  1 "v_weapon.Bip01" 0
  2 "v_weapon.Bip01_Pelvis" 0
  3 "v_weapon.Bip01_Spine" 0
  4 "v_weapon.Bip01_Spine1" 0
  5 "v_weapon.Bip01_Spine2" 0
  6 "v_weapon.Bip01_Spine3" 0
  7 "v_weapon.Bip01_Neck" 0
  8 "v_weapon.Bip01_L_Clavicle" 0
  9 "v_weapon.Bip01_L_UpperArm" 0
  10 "v_weapon.Bip01_L_Forearm" 0
  11 "v_weapon.Bip01_L_Hand" 0
  12 "v_weapon.Bip01_L_ForeTwist" 0
  13 "v_weapon.Bip01_R_Clavicle" 0
  14 "v_weapon.Bip01_R_UpperArm" 0
  15 "v_weapon.Bip01_R_Forearm" 0
  16 "v_weapon.Bip01_R_Hand" 0
  17 "v_weapon.Bip01_R_ForeTwist" 0
  18 "v_weapon.Bip01_L_Finger0" 0
  19 "v_weapon.Bip01_L_Finger01" 0
  20 "v_weapon.Bip01_L_Finger02" 0
  21 "v_weapon.Bip01_L_Finger1" 0
  22 "v_weapon.Bip01_L_Finger11" 0
  23 "v_weapon.Bip01_L_Finger12" 0
  24 "v_weapon.Bip01_L_Finger2" 0
  25 "v_weapon.Bip01_L_Finger21" 0
  26 "v_weapon.Bip01_L_Finger22" 0
  27 "v_weapon.Bip01_L_Finger3" 0
  28 "v_weapon.Bip01_L_Finger31" 0
  29 "v_weapon.Bip01_L_Finger32" 0
  30 "v_weapon.Bip01_L_Finger4" 0
  31 "v_weapon.Bip01_L_Finger41" 0
  32 "v_weapon.Bip01_L_Finger42" 0
  33 "v_weapon.Bip01_R_Finger0" 0
  34 "v_weapon.Bip01_R_Finger01" 0
  35 "v_weapon.Bip01_R_Finger02" 0
  36 "v_weapon.Bip01_R_Finger1" 0
  37 "v_weapon.Bip01_R_Finger11" 0
  38 "v_weapon.Bip01_R_Finger12" 0
  39 "v_weapon.Bip01_R_Finger2" 0
  40 "v_weapon.Bip01_R_Finger21" 0
  41 "v_weapon.Bip01_R_Finger22" 0
  42 "v_weapon.Bip01_R_Finger3" 0
  43 "v_weapon.Bip01_R_Finger31" 0
  44 "v_weapon.Bip01_R_Finger32" 0
  45 "v_weapon.Bip01_R_Finger4" 0
  46 "v_weapon.Bip01_R_Finger41" 0
  47 "v_weapon.Bip01_R_Finger42" 0
  48 "FvARM-bone" 0
  49 "FvARM-bone Pelvis" 48
  50 "FvARM-bone Spine" 49
  51 "FvARM-bone Spine1" 50
  52 "FvARM-bone Neck" 51
  53 "FvARM-bone L Clavicle" 52
  54 "FvARM-bone L UpperArm" 53
  55 "FvARM-bone L ForeArm" 54
  56 "FvARM-bone L Hand" 55
  57 "FvARM-bone L Finger0" 56
  58 "FvARM-bone L Finger01" 57
  59 "FvARM-bone L Finger02" 58
  60 "FvARM-bone L Finger1" 56
  61 "FvARM-bone L Finger11" 60
  62 "FvARM-bone L Finger12" 61
  63 "FvARM-bone L Finger2" 56
  64 "FvARM-bone L Finger21" 63
  65 "FvARM-bone L Finger22" 64
  66 "FvARM-bone L Finger3" 56
  67 "FvARM-bone L Finger31" 66
  68 "FvARM-bone L Finger32" 67
  69 "FvARM-bone L Finger4" 56
  70 "FvARM-bone L Finger41" 69
  71 "FvARM-bone L Finger42" 70
  72 "FvARM-bone L ForeTwist" 54
  73 "FvARM-bone R Clavicle" 52
  74 "FvARM-bone R UpperArm" 73
  75 "FvARM-bone R ForeArm" 74
  76 "FvARM-bone R Hand" 75
  77 "FvARM-bone R Finger0" 76
  78 "FvARM-bone R Finger01" 77
  79 "FvARM-bone R Finger02" 78
  80 "FvARM-bone R Finger1" 76
  81 "FvARM-bone R Finger11" 80
  82 "FvARM-bone R Finger12" 81
  83 "FvARM-bone R Finger2" 76
  84 "FvARM-bone R Finger21" 83
  85 "FvARM-bone R Finger22" 84
  86 "FvARM-bone R Finger3" 76
  87 "FvARM-bone R Finger31" 86
  88 "FvARM-bone R Finger32" 87
  89 "FvARM-bone R Finger4" 76
  90 "FvARM-bone R Finger41" 89
  91 "FvARM-bone R Finger42" 90
  92 "FvARM-bone R ForeTwist" 74
  93 "Box001" 0
  94 "Box003" 93
  95 "Box007" 94
  96 "Box006" 94
  97 "Box005" 94
  98 "Box004" 94
  99 "v_weapon.flash" 93
  100 "v_weapon.shelleject" 93
  101 "v_weapon.stattrack" 93
  102 "v_weapon.uid" 93
  103 "v_weapon.glock_Parent" 93
  104 "v_weapon.glock_Slide" 93
  105 "v_weapon.glock_Trigger" 93
  106 "v_weapon.glock_Clip" 93
end
skeleton
  time 0
    0 0.000000 0.000000 0.000000 0.000000 0.000000 0.000000
    1 0.000000 500.000000 0.000000 0.000000 -0.000000 0.000000
    2 0.000000 500.000000 0.000000 0.000000 -0.000000 0.000000
    3 0.000000 500.000000 0.000000 0.000000 -0.000000 0.000000
    4 0.000000 500.000000 0.000000 0.000000 -0.000000 0.000000
    5 0.000000 500.000000 0.000000 0.000000 -0.000000 0.000000
    6 0.000000 500.000000 0.000000 0.000000 -0.000000 0.000000
    7 0.000000 500.000000 0.000000 0.000000 -0.000000 0.000000
    8 0.000000 500.000000 0.000000 0.000000 -0.000000 0.000000
    9 0.000000 500.000000 0.000000 0.000000 -0.000000 0.000000
    10 0.000000 500.000000 0.000000 0.000000 -0.000000 0.000000
    11 0.000000 500.000000 0.000000 0.000000 -0.000000 0.000000
    12 0.000000 500.000000 0.000000 0.000000 -0.000000 0.000000
    13 0.000000 500.000000 0.000000 0.000000 -0.000000 0.000000
    14 0.000000 500.000000 0.000000 0.000000 -0.000000 0.000000
    15 0.000000 500.000000 0.000000 0.000000 -0.000000 0.000000
    16 0.000000 500.000000 0.000000 0.000000 -0.000000 0.000000
    17 0.000000 500.000000 0.000000 0.000000 -0.000000 0.000000
    18 0.000000 500.000000 0.000000 0.000000 -0.000000 0.000000
    19 0.000000 500.000000 0.000000 0.000000 -0.000000 0.000000
    20 0.000000 500.000000 0.000000 0.000000 -0.000000 0.000000
    21 0.000000 500.000000 0.000000 0.000000 -0.000000 0.000000
    22 0.000000 500.000000 0.000000 0.000000 -0.000000 0.000000
    23 0.000000 500.000000 0.000000 0.000000 -0.000000 0.000000
    24 0.000000 500.000000 0.000000 0.000000 -0.000000 0.000000
    25 0.000000 500.000000 0.000000 0.000000 -0.000000 0.000000
    26 0.000000 500.000000 0.000000 0.000000 -0.000000 0.000000
    27 0.000000 500.000000 0.000000 0.000000 -0.000000 0.000000
    28 0.000000 500.000000 0.000000 0.000000 -0.000000 0.000000
    29 0.000000 500.000000 0.000000 0.000000 -0.000000 0.000000
    30 0.000000 500.000000 0.000000 0.000000 -0.000000 0.000000
    31 0.000000 500.000000 0.000000 0.000000 -0.000000 0.000000
    32 0.000000 500.000000 0.000000 0.000000 -0.000000 0.000000
    33 0.000000 500.000000 0.000000 0.000000 -0.000000 0.000000
    34 0.000000 500.000000 0.000000 0.000000 -0.000000 0.000000
    35 0.000000 500.000000 0.000000 0.000000 -0.000000 0.000000
    36 0.000000 500.000000 0.000000 0.000000 -0.000000 0.000000
    37 0.000000 500.000000 0.000000 0.000000 -0.000000 0.000000
    38 0.000000 500.000000 0.000000 0.000000 -0.000000 0.000000
    39 0.000000 500.000000 0.000000 0.000000 -0.000000 0.000000
    40 0.000000 500.000000 0.000000 0.000000 -0.000000 0.000000
    41 0.000000 500.000000 0.000000 0.000000 -0.000000 0.000000
    42 0.000000 500.000000 0.000000 0.000000 -0.000000 0.000000
    43 0.000000 500.000000 0.000000 0.000000 -0.000000 0.000000
    44 0.000000 500.000000 0.000000 0.000000 -0.000000 0.000000
    45 0.000000 500.000000 0.000000 0.000000 -0.000000 0.000000
    46 0.000000 500.000000 0.000000 0.000000 -0.000000 0.000000
    47 0.000000 500.000000 0.000000 0.000000 -0.000000 0.000000
    48 -2.069527 -3.333430 -22.039179 0.043781 0.024714 1.570707
    49 4.248777 0.410815 4.442343 -0.005882 1.526905 -1.618466
    50 -4.641472 0.171690 0.038425 0.000012 0.000029 0.000795
    51 -4.355368 1.782904 2.505167 0.471209 -0.002912 -0.005138
    52 -9.748767 1.090726 0.055637 0.000016 0.000059 0.001711
    53 6.053067 -8.736635 8.132437 1.262029 0.965791 -1.983127
    54 0.032725 -8.470075 5.365703 0.917612 -0.626978 -2.304489
    55 -5.806517 -0.928991 0.087227 0.000952 -0.022003 -0.629622
    56 -3.607045 -3.038924 9.958473 2.487213 0.644223 0.392453
    57 0.303615 -8.884172 -1.512310 -1.341573 -0.292407 -0.223451
    58 -3.764088 -0.502125 0.053115 0.009941 0.016408 0.546282
    59 -2.681755 -0.250410 0.034165 0.006509 0.012700 0.404040
    60 -6.311169 -0.756953 -1.121190 -0.017309 0.171278 0.697318
    61 -4.211215 -1.074324 0.076986 0.016411 0.021217 0.773521
    62 -4.344802 -1.172945 0.081639 0.017446 0.021795 0.806884
    63 -6.190625 -0.266078 -0.198255 0.003834 0.074800 0.723881
    64 -4.301446 -1.029439 0.076309 0.015946 0.020943 0.758327
    65 -3.892988 -0.775977 0.063728 0.013155 0.019083 0.663964
    66 -6.623144 -0.381884 0.866987 0.069944 0.082392 0.807064
    67 -4.771974 -1.658089 0.102337 0.022297 0.023947 0.956304
    68 -3.937551 -0.826489 0.065884 0.013722 0.019492 0.683609
    69 -7.032868 -0.251321 2.232885 0.202056 0.041753 0.900207
    70 -4.552859 -1.687438 0.101250 0.022562 0.024040 0.964209
    71 -4.854409 -1.921762 0.112157 0.024798 0.024737 1.030096
    72 -5.204117 -0.090942 1.239607 0.241112 -0.023599 -0.632053
    73 -3.219699 -8.846682 2.298334 0.177366 -1.380541 2.992474
    74 -3.921496 -0.696629 -0.442195 -0.475593 0.582962 -1.375081
    75 -4.194662 -4.062900 0.179222 0.020634 -0.042377 -1.449327
    76 -3.417223 -9.145593 4.124618 -2.164750 -0.011455 0.655767
    77 1.279210 -5.655241 12.452718 2.669832 0.165045 0.432275
    78 -3.440503 -0.346104 0.044683 0.007917 0.014350 0.465063
    79 -1.948483 -0.053974 0.020439 0.003116 0.007631 0.232297
    80 -3.076925 0.854365 1.146345 0.012098 -0.017090 0.055572
    81 -1.544202 -0.021193 -0.011638 -0.004759 0.006490 0.108475
    82 -1.956153 0.065733 0.104026 0.021234 -0.011388 0.214458
    83 -5.024127 0.564600 0.246211 -0.002072 -0.101618 0.590977
    84 -4.999363 -1.773897 0.108474 0.023419 0.024326 0.989621
    85 -5.223038 -2.239593 0.126564 0.027739 0.025415 1.115043
    86 -5.213896 0.053557 -0.730512 -0.053768 -0.103666 0.699378
    87 -4.830837 -1.733943 0.105497 0.023027 0.024198 0.978021
    88 -5.320914 -2.477322 0.135643 0.029869 0.025745 1.175683
    89 -5.117498 -0.300322 -1.600862 -0.079397 -0.011289 0.631412
    90 -4.348412 -1.444134 0.090965 0.020181 0.023114 0.892317
    91 -5.513030 -3.445137 0.170635 0.038100 0.025807 1.407785
    92 -5.415955 -4.231837 -0.704969 -0.214907 -0.040333 -1.447335
    93 -2.988518 -9.474865 -4.694159 0.000000 0.000000 -0.000000
    94 -0.042474 -3.591029 -0.924564 0.000000 -0.000000 0.000000
    95 -0.272662 1.954627 0.707806 0.000000 -0.000000 0.000000
    96 0.326769 1.949929 0.702248 0.000000 -0.000000 0.000000
    97 -0.266687 1.976085 1.334098 0.000000 -0.000000 0.000000
    98 0.332744 1.971387 1.328540 0.000000 -0.000000 0.000000
    99 -2.399790 -17.273188 2.691413 -0.000082 -0.011209 1.570742
    100 -2.405404 -11.916818 3.087259 -1.582724 0.349125 3.137458
    101 -2.699318 -16.157913 1.680758 0.011209 -0.000082 -0.000055
    102 -2.940401 -10.653466 -0.621820 0.321796 -0.000082 -0.000055
    103 0.000000 0.000000 0.000000 0.000000 -0.000000 0.000000
    104 0.000000 0.000000 0.000000 0.000000 -0.000000 0.000000
    105 0.000000 0.000000 0.000000 0.000000 -0.000000 0.000000
    106 0.000000 0.000000 0.000000 0.000000 -0.000000 0.000000
  time 1
    0 0.000000 0.000000 0.000000 0.000000 0.000000 0.000000
    1 0.000000 500.000000 0.000000 0.000000 -0.000000 0.000000
    2 0.000000 500.000000 0.000000 0.000000 -0.000000 0.000000
    3 0.000000 500.000000 0.000000 0.000000 -0.000000 0.000000
    4 0.000000 500.000000 0.000000 0.000000 -0.000000 0.000000
    5 0.000000 500.000000 0.000000 0.000000 -0.000000 0.000000
    6 0.000000 500.000000 0.000000 0.000000 -0.000000 0.000000
    7 0.000000 500.000000 0.000000 0.000000 -0.000000 0.000000
    8 0.000000 500.000000 0.000000 0.000000 -0.000000 0.000000
    9 0.000000 500.000000 0.000000 0.000000 -0.000000 0.000000
    10 0.000000 500.000000 0.000000 0.000000 -0.000000 0.000000
    11 0.000000 500.000000 0.000000 0.000000 -0.000000 0.000000
    12 0.000000 500.000000 0.000000 0.000000 -0.000000 0.000000
    13 0.000000 500.000000 0.000000 0.000000 -0.000000 0.000000
    14 0.000000 500.000000 0.000000 0.000000 -0.000000 0.000000
    15 0.000000 500.000000 0.000000 0.000000 -0.000000 0.000000
    16 0.000000 500.000000 0.000000 0.000000 -0.000000 0.000000
    17 0.000000 500.000000 0.000000 0.000000 -0.000000 0.000000
    18 0.000000 500.000000 0.000000 0.000000 -0.000000 0.000000
    19 0.000000 500.000000 0.000000 0.000000 -0.000000 0.000000
    20 0.000000 500.000000 0.000000 0.000000 -0.000000 0.000000
    21 0.000000 500.000000 0.000000 0.000000 -0.000000 0.000000
    22 0.000000 500.000000 0.000000 0.000000 -0.000000 0.000000
    23 0.000000 500.000000 0.000000 0.000000 -0.000000 0.000000
    24 0.000000 500.000000 0.000000 0.000000 -0.000000 0.000000
    25 0.000000 500.000000 0.000000 0.000000 -0.000000 0.000000
    26 0.000000 500.000000 0.000000 0.000000 -0.000000 0.000000
    27 0.000000 500.000000 0.000000 0.000000 -0.000000 0.000000
    28 0.000000 500.000000 0.000000 0.000000 -0.000000 0.000000
    29 0.000000 500.000000 0.000000 0.000000 -0.000000 0.000000
    30 0.000000 500.000000 0.000000 0.000000 -0.000000 0.000000
    31 0.000000 500.000000 0.000000 0.000000 -0.000000 0.000000
    32 0.000000 500.000000 0.000000 0.000000 -0.000000 0.000000
    33 0.000000 500.000000 0.000000 0.000000 -0.000000 0.000000
    34 0.000000 500.000000 0.000000 0.000000 -0.000000 0.000000
    35 0.000000 500.000000 0.000000 0.000000 -0.000000 0.000000
    36 0.000000 500.000000 0.000000 0.000000 -0.000000 0.000000
    37 0.000000 500.000000 0.000000 0.000000 -0.000000 0.000000
    38 0.000000 500.000000 0.000000 0.000000 -0.000000 0.000000
    39 0.000000 500.000000 0.000000 0.000000 -0.000000 0.000000
    40 0.000000 500.000000 0.000000 0.000000 -0.000000 0.000000
    41 0.000000 500.000000 0.000000 0.000000 -0.000000 0.000000
    42 0.000000 500.000000 0.000000 0.000000 -0.000000 0.000000
    43 0.000000 500.000000 0.000000 0.000000 -0.000000 0.000000
    44 0.000000 500.000000 0.000000 0.000000 -0.000000 0.000000
    45 0.000000 500.000000 0.000000 0.000000 -0.000000 0.000000
    46 0.000000 500.000000 0.000000 0.000000 -0.000000 0.000000
    47 0.000000 500.000000 0.000000 0.000000 -0.000000 0.000000
    48 -2.069527 -3.333430 -22.039179 0.043781 0.024714 1.570707
    49 4.248777 0.410815 4.442343 -0.005882 1.526905 -1.618466
    50 -4.641472 0.171690 0.038425 0.000012 0.000029 0.000795
    51 -4.355368 1.782904 2.505167 0.471209 -0.002912 -0.005138
    52 -9.748767 1.090726 0.055637 0.000016 0.000059 0.001711
    53 6.053067 -8.736635 8.132437 1.262029 0.965791 -1.983127
    54 -0.013705 -8.542525 5.103982 0.864081 -0.804400 -2.291554
    55 -4.752225 -2.184839 0.120196 0.007778 -0.033273 -1.002419
    56 -3.485594 -2.177376 9.576730 2.614690 0.716025 0.744982
    57 0.303615 -8.884172 -1.512310 -1.341573 -0.292407 -0.223451
    58 -3.764088 -0.502125 0.053115 0.009941 0.016408 0.546282
    59 -2.681755 -0.250410 0.034165 0.006509 0.012700 0.404040
    60 -6.311168 -0.756949 -1.121190 -0.017309 0.171278 0.697317
    61 -4.211215 -1.074324 0.076986 0.016411 0.021217 0.773521
    62 -4.344802 -1.172945 0.081639 0.017446 0.021795 0.806884
    63 -6.190625 -0.266077 -0.198253 0.003834 0.074800 0.723881
    64 -4.301445 -1.029439 0.076309 0.015946 0.020943 0.758327
    65 -3.892988 -0.775977 0.063726 0.013155 0.019083 0.663964
    66 -6.623144 -0.381884 0.866987 0.069944 0.082392 0.807064
    67 -4.771974 -1.658089 0.102337 0.022297 0.023947 0.956304
    68 -3.937551 -0.826489 0.065884 0.013722 0.019492 0.683609
    69 -7.032864 -0.251327 2.232878 0.202055 0.041753 0.900207
    70 -4.552859 -1.687438 0.101252 0.022562 0.024040 0.964209
    71 -4.854409 -1.921763 0.112157 0.024798 0.024737 1.030096
    72 -3.883712 -1.606258 1.307487 0.253230 -0.034937 -1.004919
    73 -3.219699 -8.846682 2.298334 0.177366 -1.380541 2.992474
    74 -4.029887 -0.033518 0.040641 -0.353035 0.667606 -1.181177
    75 -4.356002 -5.567099 0.232298 0.032510 -0.045043 -1.793462
    76 -2.368111 -8.035032 4.060738 -2.156333 0.040854 0.901671
    77 1.279210 -5.655241 12.452718 2.669832 0.165045 0.432275
    78 -3.440503 -0.346104 0.044683 0.007917 0.014350 0.465063
    79 -1.948483 -0.053974 0.020439 0.003116 0.007631 0.232297
    80 -3.076925 0.854366 1.146343 0.012098 -0.017090 0.055572
    81 -1.544202 -0.021193 -0.011638 -0.004759 0.006490 0.108475
    82 -1.956153 0.065734 0.104026 0.021234 -0.011388 0.214458
    83 -5.024127 0.564600 0.246209 -0.002072 -0.101618 0.590977
    84 -4.999365 -1.773897 0.108474 0.023419 0.024326 0.989621
    85 -5.223038 -2.239593 0.126564 0.027739 0.025415 1.115043
    86 -5.213895 0.053557 -0.730512 -0.053768 -0.103666 0.699378
    87 -4.830835 -1.733943 0.105497 0.023027 0.024198 0.978021
    88 -5.320914 -2.477322 0.135643 0.029869 0.025745 1.175683
    89 -5.117498 -0.300322 -1.600862 -0.079397 -0.011289 0.631412
    90 -4.348412 -1.444134 0.090965 0.020181 0.023114 0.892317
    91 -5.513030 -3.445137 0.170635 0.038100 0.025807 1.407785
    92 -5.805272 -5.264900 -0.805296 -0.248430 -0.042510 -1.791117
    93 -2.971328 -7.300665 -4.678160 0.100039 -0.000736 -0.000965
    94 -0.042474 -3.591028 -0.924562 0.000000 0.000000 0.000000
    95 -0.272662 1.954627 0.707806 0.000000 0.000000 0.000000
    96 0.326769 1.949929 0.702248 0.000000 0.000000 0.000000
    97 -0.266687 1.976085 1.334098 0.000000 0.000000 0.000000
    98 0.332744 1.971387 1.328540 0.000000 0.000000 0.000000
    99 -2.399790 -17.273188 2.691413 -0.000082 -0.011209 1.570742
    100 -2.405404 -11.916818 3.087259 -1.582724 0.349125 3.137458
    101 -2.699318 -16.157913 1.680758 0.011209 -0.000082 -0.000055
    102 -2.940401 -10.653466 -0.621820 0.321796 -0.000082 -0.000055
    103 -0.000000 0.000000 -0.000000 0.000000 0.000000 0.000000
    104 -0.000000 0.000000 -0.000000 0.000000 0.000000 0.000000
    105 -0.000000 0.000000 -0.000000 0.000000 0.000000 0.000000
    106 -0.000000 0.000000 -0.000000 0.000000 0.000000 0.000000
  time 2
    0 0.000000 0.000000 0.000000 0.000000 0.000000 0.000000
    1 0.000000 500.000000 0.000000 0.000000 -0.000000 0.000000
    2 0.000000 500.000000 0.000000 0.000000 -0.000000 0.000000
    3 0.000000 500.000000 0.000000 0.000000 -0.000000 0.000000
    4 0.000000 500.000000 0.000000 0.000000 -0.000000 0.000000
    5 0.000000 500.000000 0.000000 0.000000 -0.000000 0.000000
    6 0.000000 500.000000 0.000000 0.000000 -0.000000 0.000000
    7 0.000000 500.000000 0.000000 0.000000 -0.000000 0.000000
    8 0.000000 500.000000 0.000000 0.000000 -0.000000 0.000000
    9 0.000000 500.000000 0.000000 0.000000 -0.000000 0.000000
    10 0.000000 500.000000 0.000000 0.000000 -0.000000 0.000000
    11 0.000000 500.000000 0.000000 0.000000 -0.000000 0.000000
    12 0.000000 500.000000 0.000000 0.000000 -0.000000 0.000000
    13 0.000000 500.000000 0.000000 0.000000 -0.000000 0.000000
    14 0.000000 500.000000 0.000000 0.000000 -0.000000 0.000000
    15 0.000000 500.000000 0.000000 0.000000 -0.000000 0.000000
    16 0.000000 500.000000 0.000000 0.000000 -0.000000 0.000000
    17 0.000000 500.000000 0.000000 0.000000 -0.000000 0.000000
    18 0.000000 500.000000 0.000000 0.000000 -0.000000 0.000000
    19 0.000000 500.000000 0.000000 0.000000 -0.000000 0.000000
    20 0.000000 500.000000 0.000000 0.000000 -0.000000 0.000000
    21 0.000000 500.000000 0.000000 0.000000 -0.000000 0.000000
    22 0.000000 500.000000 0.000000 0.000000 -0.000000 0.000000
    23 0.000000 500.000000 0.000000 0.000000 -0.000000 0.000000
    24 0.000000 500.000000 0.000000 0.000000 -0.000000 0.000000
    25 0.000000 500.000000 0.000000 0.000000 -0.000000 0.000000
    26 0.000000 500.000000 0.000000 0.000000 -0.000000 0.000000
    27 0.000000 500.000000 0.000000 0.000000 -0.000000 0.000000
    28 0.000000 500.000000 0.000000 0.000000 -0.000000 0.000000
    29 0.000000 500.000000 0.000000 0.000000 -0.000000 0.000000
    30 0.000000 500.000000 0.000000 0.000000 -0.000000 0.000000
    31 0.000000 500.000000 0.000000 0.000000 -0.000000 0.000000
    32 0.000000 500.000000 0.000000 0.000000 -0.000000 0.000000
    33 0.000000 500.000000 0.000000 0.000000 -0.000000 0.000000
    34 0.000000 500.000000 0.000000 0.000000 -0.000000 0.000000
    35 0.000000 500.000000 0.000000 0.000000 -0.000000 0.000000
    36 0.000000 500.000000 0.000000 0.000000 -0.000000 0.000000
    37 0.000000 500.000000 0.000000 0.000000 -0.000000 0.000000
    38 0.000000 500.000000 0.000000 0.000000 -0.000000 0.000000
    39 0.000000 500.000000 0.000000 0.000000 -0.000000 0.000000
    40 0.000000 500.000000 0.000000 0.000000 -0.000000 0.000000
    41 0.000000 500.000000 0.000000 0.000000 -0.000000 0.000000
    42 0.000000 500.000000 0.000000 0.000000 -0.000000 0.000000
    43 0.000000 500.000000 0.000000 0.000000 -0.000000 0.000000
    44 0.000000 500.000000 0.000000 0.000000 -0.000000 0.000000
    45 0.000000 500.000000 0.000000 0.000000 -0.000000 0.000000
    46 0.000000 500.000000 0.000000 0.000000 -0.000000 0.000000
    47 0.000000 500.000000 0.000000 0.000000 -0.000000 0.000000
    48 -2.069527 -3.333430 -22.039179 0.043781 0.024714 1.570707
    49 4.248777 0.410815 4.442343 -0.005882 1.526905 -1.618466
    50 -4.641472 0.171690 0.038425 0.000012 0.000029 0.000795
    51 -4.355368 1.782904 2.505167 0.471209 -0.002912 -0.005138
    52 -9.748767 1.090726 0.055637 0.000016 0.000059 0.001711
    53 6.053067 -8.736635 8.132437 1.262029 0.965791 -1.983127
    54 0.041597 -8.476119 5.180109 0.881257 -0.742651 -2.287890
    55 -4.947686 -1.868866 0.111235 0.005880 -0.030968 -0.918387
    56 -3.551100 -2.151933 9.621400 2.494986 0.723337 0.583772
    57 0.303615 -8.884172 -1.512310 -1.341573 -0.292407 -0.223451
    58 -3.764088 -0.502125 0.053115 0.009941 0.016408 0.546282
    59 -2.681755 -0.250410 0.034165 0.006509 0.012700 0.404040
    60 -6.311166 -0.756949 -1.121189 -0.017309 0.171278 0.697317
    61 -4.211215 -1.074324 0.076986 0.016411 0.021217 0.773521
    62 -4.344802 -1.172944 0.081637 0.017446 0.021795 0.806884
    63 -6.190625 -0.266076 -0.198254 0.003834 0.074800 0.723881
    64 -4.301446 -1.029438 0.076309 0.015946 0.020943 0.758327
    65 -3.892988 -0.775977 0.063728 0.013155 0.019083 0.663964
    66 -6.623144 -0.381884 0.866986 0.069944 0.082392 0.807064
    67 -4.771974 -1.658089 0.102337 0.022297 0.023947 0.956304
    68 -3.937551 -0.826489 0.065884 0.013722 0.019492 0.683609
    69 -7.032867 -0.251322 2.232885 0.202056 0.041753 0.900207
    70 -4.552859 -1.687438 0.101252 0.022562 0.024040 0.964209
    71 -4.854408 -1.921762 0.112157 0.024798 0.024737 1.030096
    72 -4.193741 -1.274753 1.174295 0.228169 -0.032778 -0.920624
    73 -3.219699 -8.846682 2.298334 0.177366 -1.380541 2.992474
    74 -4.014628 -0.273999 -0.153987 -0.400980 0.635831 -1.244004
    75 -4.268080 -5.202094 0.218954 0.029502 -0.044767 -1.708444
    76 -2.799506 -8.559979 4.102135 -2.161260 -0.010865 0.788673
    77 1.279210 -5.655240 12.452718 2.669832 0.165045 0.432275
    78 -3.440503 -0.346104 0.044683 0.007917 0.014350 0.465063
    79 -1.948483 -0.053974 0.020439 0.003116 0.007631 0.232297
    80 -3.076925 0.854366 1.146344 0.012098 -0.017090 0.055572
    81 -1.544202 -0.021193 -0.011638 -0.004759 0.006490 0.108475
    82 -1.956153 0.065735 0.104026 0.021234 -0.011388 0.214458
    83 -5.024127 0.564600 0.246209 -0.002072 -0.101618 0.590977
    84 -4.999365 -1.773897 0.108474 0.023419 0.024326 0.989621
    85 -5.223038 -2.239593 0.126564 0.027739 0.025415 1.115043
    86 -5.213895 0.053557 -0.730512 -0.053768 -0.103666 0.699378
    87 -4.830835 -1.733943 0.105497 0.023027 0.024198 0.978021
    88 -5.320914 -2.477322 0.135643 0.029869 0.025745 1.175683
    89 -5.117498 -0.300322 -1.600862 -0.079397 -0.011289 0.631412
    90 -4.348412 -1.444136 0.090965 0.020181 0.023114 0.892317
    91 -5.513030 -3.445137 0.170635 0.038100 0.025807 1.407785
    92 -5.590137 -5.040761 -0.735126 -0.224937 -0.042207 -1.706298
    93 -2.976599 -8.054656 -4.609277 -0.007669 0.000060 0.000071
    94 -0.042474 -3.591029 -0.924564 -0.000000 -0.000000 0.000000
    95 -0.272662 1.954627 0.707806 -0.000000 -0.000000 0.000000
    96 0.326769 1.949929 0.702248 -0.000000 -0.000000 0.000000
    97 -0.266687 1.976085 1.334098 -0.000000 -0.000000 0.000000
    98 0.332744 1.971387 1.328540 -0.000000 -0.000000 0.000000
    99 -2.399790 -17.273188 2.691413 -0.000082 -0.011209 1.570742
    100 -2.405404 -11.916818 3.087259 -1.582724 0.349125 3.137458
    101 -2.699318 -16.157913 1.680758 0.011209 -0.000082 -0.000055
    102 -2.940401 -10.653466 -0.621820 0.321796 -0.000082 -0.000055
    103 -0.000000 0.000000 -0.000000 -0.000000 -0.000000 0.000000
    104 -0.000000 0.000000 -0.000000 -0.000000 -0.000000 0.000000
    105 -0.000000 0.000000 -0.000000 -0.000000 -0.000000 0.000000
    106 -0.000000 0.000000 -0.000000 -0.000000 -0.000000 0.000000
  time 3
    0 0.000000 0.000000 0.000000 0.000000 0.000000 0.000000
    1 0.000000 500.000000 0.000000 0.000000 -0.000000 0.000000
    2 0.000000 500.000000 0.000000 0.000000 -0.000000 0.000000
    3 0.000000 500.000000 0.000000 0.000000 -0.000000 0.000000
    4 0.000000 500.000000 0.000000 0.000000 -0.000000 0.000000
    5 0.000000 500.000000 0.000000 0.000000 -0.000000 0.000000
    6 0.000000 500.000000 0.000000 0.000000 -0.000000 0.000000
    7 0.000000 500.000000 0.000000 0.000000 -0.000000 0.000000
    8 0.000000 500.000000 0.000000 0.000000 -0.000000 0.000000
    9 0.000000 500.000000 0.000000 0.000000 -0.000000 0.000000
    10 0.000000 500.000000 0.000000 0.000000 -0.000000 0.000000
    11 0.000000 500.000000 0.000000 0.000000 -0.000000 0.000000
    12 0.000000 500.000000 0.000000 0.000000 -0.000000 0.000000
    13 0.000000 500.000000 0.000000 0.000000 -0.000000 0.000000
    14 0.000000 500.000000 0.000000 0.000000 -0.000000 0.000000
    15 0.000000 500.000000 0.000000 0.000000 -0.000000 0.000000
    16 0.000000 500.000000 0.000000 0.000000 -0.000000 0.000000
    17 0.000000 500.000000 0.000000 0.000000 -0.000000 0.000000
    18 0.000000 500.000000 0.000000 0.000000 -0.000000 0.000000
    19 0.000000 500.000000 0.000000 0.000000 -0.000000 0.000000
    20 0.000000 500.000000 0.000000 0.000000 -0.000000 0.000000
    21 0.000000 500.000000 0.000000 0.000000 -0.000000 0.000000
    22 0.000000 500.000000 0.000000 0.000000 -0.000000 0.000000
    23 0.000000 500.000000 0.000000 0.000000 -0.000000 0.000000
    24 0.000000 500.000000 0.000000 0.000000 -0.000000 0.000000
    25 0.000000 500.000000 0.000000 0.000000 -0.000000 0.000000
    26 0.000000 500.000000 0.000000 0.000000 -0.000000 0.000000
    27 0.000000 500.000000 0.000000 0.000000 -0.000000 0.000000
    28 0.000000 500.000000 0.000000 0.000000 -0.000000 0.000000
    29 0.000000 500.000000 0.000000 0.000000 -0.000000 0.000000
    30 0.000000 500.000000 0.000000 0.000000 -0.000000 0.000000
    31 0.000000 500.000000 0.000000 0.000000 -0.000000 0.000000
    32 0.000000 500.000000 0.000000 0.000000 -0.000000 0.000000
    33 0.000000 500.000000 0.000000 0.000000 -0.000000 0.000000
    34 0.000000 500.000000 0.000000 0.000000 -0.000000 0.000000
    35 0.000000 500.000000 0.000000 0.000000 -0.000000 0.000000
    36 0.000000 500.000000 0.000000 0.000000 -0.000000 0.000000
    37 0.000000 500.000000 0.000000 0.000000 -0.000000 0.000000
    38 0.000000 500.000000 0.000000 0.000000 -0.000000 0.000000
    39 0.000000 500.000000 0.000000 0.000000 -0.000000 0.000000
    40 0.000000 500.000000 0.000000 0.000000 -0.000000 0.000000
    41 0.000000 500.000000 0.000000 0.000000 -0.000000 0.000000
    42 0.000000 500.000000 0.000000 0.000000 -0.000000 0.000000
    43 0.000000 500.000000 0.000000 0.000000 -0.000000 0.000000
    44 0.000000 500.000000 0.000000 0.000000 -0.000000 0.000000
    45 0.000000 500.000000 0.000000 0.000000 -0.000000 0.000000
    46 0.000000 500.000000 0.000000 0.000000 -0.000000 0.000000
    47 0.000000 500.000000 0.000000 0.000000 -0.000000 0.000000
    48 -2.069527 -3.333430 -22.039179 0.043781 0.024714 1.570707
    49 4.248777 0.410815 4.442343 -0.005882 1.526905 -1.618466
    50 -4.641472 0.171690 0.038425 0.000012 0.000029 0.000795
    51 -4.355368 1.782904 2.505167 0.471209 -0.002912 -0.005138
    52 -9.748767 1.090726 0.055637 0.000016 0.000059 0.001711
    53 6.053067 -8.736635 8.132437 1.262029 0.965791 -1.983127
    54 0.070304 -8.434041 5.295365 0.904413 -0.661569 -2.290806
    55 -5.293447 -1.423164 0.099263 0.003383 -0.027185 -0.790784
    56 -3.586018 -2.241489 9.688270 2.376028 0.709795 0.394998
    57 0.303615 -8.884170 -1.512310 -1.341573 -0.292407 -0.223451
    58 -3.764088 -0.502125 0.053115 0.009941 0.016408 0.546282
    59 -2.681755 -0.250410 0.034165 0.006509 0.012700 0.404040
    60 -6.311169 -0.756953 -1.121188 -0.017309 0.171278 0.697318
    61 -4.211215 -1.074324 0.076986 0.016411 0.021217 0.773521
    62 -4.344802 -1.172945 0.081639 0.017446 0.021795 0.806884
    63 -6.190625 -0.266076 -0.198255 0.003834 0.074800 0.723881
    64 -4.301445 -1.029439 0.076309 0.015946 0.020943 0.758327
    65 -3.892988 -0.775977 0.063728 0.013155 0.019083 0.663964
    66 -6.623144 -0.381884 0.866986 0.069944 0.082392 0.807064
    67 -4.771974 -1.658089 0.102337 0.022297 0.023947 0.956304
    68 -3.937551 -0.826489 0.065884 0.013722 0.019492 0.683609
    69 -7.032867 -0.251323 2.232885 0.202056 0.041753 0.900207
    70 -4.552859 -1.687438 0.101252 0.022562 0.024040 0.964209
    71 -4.854409 -1.921763 0.112157 0.024798 0.024737 1.030096
    72 -4.671969 -0.794570 1.053531 0.205182 -0.028662 -0.792802
    73 -3.219699 -8.846682 2.298334 0.177366 -1.380541 2.992474
    74 -4.002082 -0.587502 -0.381642 -0.455972 0.593311 -1.321384
    75 -4.197727 -4.682072 0.200466 0.025358 -0.043957 -1.589586
    76 -3.368703 -9.104631 4.120958 -2.162314 -0.062598 0.659154
    77 1.279210 -5.655241 12.452718 2.669832 0.165045 0.432275
    78 -3.440503 -0.346104 0.044683 0.007917 0.014350 0.465063
    79 -1.948483 -0.053974 0.020439 0.003116 0.007631 0.232297
    80 -3.076925 0.854367 1.146344 0.012098 -0.017090 0.055572
    81 -1.544202 -0.021193 -0.011638 -0.004759 0.006490 0.108475
    82 -1.956153 0.065735 0.104026 0.021234 -0.011388 0.214458
    83 -5.024127 0.564600 0.246210 -0.002072 -0.101618 0.590977
    84 -4.999363 -1.773897 0.108474 0.023419 0.024326 0.989621
    85 -5.223038 -2.239593 0.126564 0.027739 0.025415 1.115043
    86 -5.213896 0.053558 -0.730512 -0.053768 -0.103666 0.699378
    87 -4.830836 -1.733943 0.105497 0.023027 0.024198 0.978021
    88 -5.320914 -2.477322 0.135643 0.029869 0.025745 1.175683
    89 -5.117498 -0.300322 -1.600862 -0.079397 -0.011289 0.631412
    90 -4.348412 -1.444134 0.090965 0.020181 0.023114 0.892317
    91 -5.513030 -3.445137 0.170635 0.038100 0.025807 1.407785
    92 -5.396027 -4.679896 -0.672447 -0.204777 -0.041855 -1.587626
    93 -2.982825 -9.003445 -4.478693 -0.115375 0.000964 0.001015
    94 -0.042474 -3.591029 -0.924564 -0.000000 -0.000000 -0.000000
    95 -0.272662 1.954627 0.707806 -0.000000 -0.000000 -0.000000
    96 0.326769 1.949929 0.702248 -0.000000 -0.000000 -0.000000
    97 -0.266687 1.976085 1.334098 -0.000000 -0.000000 -0.000000
    98 0.332744 1.971387 1.328540 -0.000000 -0.000000 -0.000000
    99 -2.399790 -17.273188 2.691413 -0.000082 -0.011209 1.570742
    100 -2.405404 -11.916818 3.087259 -1.582724 0.349125 3.137458
    101 -2.699318 -16.157913 1.680758 0.011209 -0.000082 -0.000055
    102 -2.940401 -10.653466 -0.621820 0.321796 -0.000082 -0.000055
    103 -0.000000 -0.000000 0.000000 -0.000000 -0.000000 -0.000000
    104 -0.000000 -0.000000 0.000000 -0.000000 -0.000000 -0.000000
    105 -0.000000 -0.000000 0.000000 -0.000000 -0.000000 -0.000000
    106 -0.000000 -0.000000 0.000000 -0.000000 -0.000000 -0.000000
  time 4
    0 0.000000 0.000000 0.000000 0.000000 0.000000 0.000000
    1 0.000000 500.000000 0.000000 0.000000 -0.000000 0.000000
    2 0.000000 500.000000 0.000000 0.000000 -0.000000 0.000000
    3 0.000000 500.000000 0.000000 0.000000 -0.000000 0.000000
    4 0.000000 500.000000 0.000000 0.000000 -0.000000 0.000000
    5 0.000000 500.000000 0.000000 0.000000 -0.000000 0.000000
    6 0.000000 500.000000 0.000000 0.000000 -0.000000 0.000000
    7 0.000000 500.000000 0.000000 0.000000 -0.000000 0.000000
    8 0.000000 500.000000 0.000000 0.000000 -0.000000 0.000000
    9 0.000000 500.000000 0.000000 0.000000 -0.000000 0.000000
    10 0.000000 500.000000 0.000000 0.000000 -0.000000 0.000000
    11 0.000000 500.000000 0.000000 0.000000 -0.000000 0.000000
    12 0.000000 500.000000 0.000000 0.000000 -0.000000 0.000000
    13 0.000000 500.000000 0.000000 0.000000 -0.000000 0.000000
    14 0.000000 500.000000 0.000000 0.000000 -0.000000 0.000000
    15 0.000000 500.000000 0.000000 0.000000 -0.000000 0.000000
    16 0.000000 500.000000 0.000000 0.000000 -0.000000 0.000000
    17 0.000000 500.000000 0.000000 0.000000 -0.000000 0.000000
    18 0.000000 500.000000 0.000000 0.000000 -0.000000 0.000000
    19 0.000000 500.000000 0.000000 0.000000 -0.000000 0.000000
    20 0.000000 500.000000 0.000000 0.000000 -0.000000 0.000000
    21 0.000000 500.000000 0.000000 0.000000 -0.000000 0.000000
    22 0.000000 500.000000 0.000000 0.000000 -0.000000 0.000000
    23 0.000000 500.000000 0.000000 0.000000 -0.000000 0.000000
    24 0.000000 500.000000 0.000000 0.000000 -0.000000 0.000000
    25 0.000000 500.000000 0.000000 0.000000 -0.000000 0.000000
    26 0.000000 500.000000 0.000000 0.000000 -0.000000 0.000000
    27 0.000000 500.000000 0.000000 0.000000 -0.000000 0.000000
    28 0.000000 500.000000 0.000000 0.000000 -0.000000 0.000000
    29 0.000000 500.000000 0.000000 0.000000 -0.000000 0.000000
    30 0.000000 500.000000 0.000000 0.000000 -0.000000 0.000000
    31 0.000000 500.000000 0.000000 0.000000 -0.000000 0.000000
    32 0.000000 500.000000 0.000000 0.000000 -0.000000 0.000000
    33 0.000000 500.000000 0.000000 0.000000 -0.000000 0.000000
    34 0.000000 500.000000 0.000000 0.000000 -0.000000 0.000000
    35 0.000000 500.000000 0.000000 0.000000 -0.000000 0.000000
    36 0.000000 500.000000 0.000000 0.000000 -0.000000 0.000000
    37 0.000000 500.000000 0.000000 0.000000 -0.000000 0.000000
    38 0.000000 500.000000 0.000000 0.000000 -0.000000 0.000000
    39 0.000000 500.000000 0.000000 0.000000 -0.000000 0.000000
    40 0.000000 500.000000 0.000000 0.000000 -0.000000 0.000000
    41 0.000000 500.000000 0.000000 0.000000 -0.000000 0.000000
    42 0.000000 500.000000 0.000000 0.000000 -0.000000 0.000000
    43 0.000000 500.000000 0.000000 0.000000 -0.000000 0.000000
    44 0.000000 500.000000 0.000000 0.000000 -0.000000 0.000000
    45 0.000000 500.000000 0.000000 0.000000 -0.000000 0.000000
    46 0.000000 500.000000 0.000000 0.000000 -0.000000 0.000000
    47 0.000000 500.000000 0.000000 0.000000 -0.000000 0.000000
    48 -2.069527 -3.333430 -22.039179 0.043781 0.024714 1.570707
    49 4.248777 0.410815 4.442343 -0.005882 1.526905 -1.618466
    50 -4.641472 0.171690 0.038425 0.000012 0.000029 0.000795
    51 -4.355368 1.782904 2.505167 0.471209 -0.002912 -0.005138
    52 -9.748767 1.090726 0.055637 0.000016 0.000059 0.001711
    53 6.053067 -8.736635 8.132437 1.262029 0.965791 -1.983127
    54 0.059620 -8.440429 5.354849 0.915488 -0.623868 -2.296814
    55 -5.556757 -1.149705 0.092406 0.001984 -0.024474 -0.704960
    56 -3.599748 -2.493899 9.795272 2.378385 0.685030 0.344943
    57 0.303615 -8.884172 -1.512310 -1.341573 -0.292407 -0.223451
    58 -3.764088 -0.502125 0.053115 0.009941 0.016408 0.546282
    59 -2.681755 -0.250410 0.034165 0.006509 0.012700 0.404040
    60 -6.311172 -0.756951 -1.121188 -0.017309 0.171278 0.697318
    61 -4.211215 -1.074324 0.076986 0.016411 0.021217 0.773521
    62 -4.344800 -1.172945 0.081639 0.017446 0.021795 0.806884
    63 -6.190625 -0.266078 -0.198255 0.003834 0.074800 0.723881
    64 -4.301444 -1.029439 0.076309 0.015946 0.020943 0.758327
    65 -3.892988 -0.775977 0.063728 0.013155 0.019083 0.663964
    66 -6.623144 -0.381884 0.866987 0.069944 0.082392 0.807064
    67 -4.771972 -1.658085 0.102337 0.022297 0.023947 0.956303
    68 -3.937551 -0.826489 0.065884 0.013722 0.019492 0.683609
    69 -7.032868 -0.251323 2.232885 0.202056 0.041753 0.900207
    70 -4.552859 -1.687438 0.101252 0.022562 0.024040 0.964209
    71 -4.854409 -1.921762 0.112157 0.024798 0.024737 1.030096
    72 -4.974330 -0.453048 1.075733 0.209650 -0.025887 -0.707041
    73 -3.219699 -8.846682 2.298334 0.177366 -1.380541 2.992474
    74 -3.984875 -0.735306 -0.477576 -0.479508 0.573655 -1.361169
    75 -4.185285 -4.346810 0.188860 0.022772 -0.043183 -1.513630
    76 -3.543428 -9.247511 4.128590 -2.163619 -0.059789 0.624387
    77 1.279210 -5.655239 12.452718 2.669832 0.165045 0.432275
    78 -3.440503 -0.346104 0.044683 0.007917 0.014350 0.465063
    79 -1.948483 -0.053974 0.020439 0.003116 0.007631 0.232297
    80 -3.076927 0.854365 1.146345 0.012098 -0.017090 0.055572
    81 -1.544202 -0.021193 -0.011638 -0.004759 0.006490 0.108475
    82 -1.956153 0.065735 0.104026 0.021234 -0.011388 0.214458
    83 -5.024127 0.564600 0.246209 -0.002072 -0.101618 0.590977
    84 -4.999365 -1.773897 0.108474 0.023419 0.024326 0.989621
    85 -5.223038 -2.239593 0.126564 0.027739 0.025415 1.115043
    86 -5.213896 0.053557 -0.730512 -0.053768 -0.103666 0.699378
    87 -4.830837 -1.733943 0.105497 0.023027 0.024198 0.978021
    88 -5.320914 -2.477322 0.135643 0.029869 0.025745 1.175683
    89 -5.117500 -0.300322 -1.600862 -0.079397 -0.011289 0.631412
    90 -4.348412 -1.444136 0.090967 0.020181 0.023114 0.892317
    91 -5.513030 -3.445137 0.170635 0.038100 0.025807 1.407785
    92 -5.363452 -4.434250 -0.670115 -0.203957 -0.041229 -1.511700
    93 -2.985752 -9.416989 -4.444789 -0.112276 0.000937 0.000989
    94 -0.042474 -3.591029 -0.924564 -0.000000 -0.000000 0.000000
    95 -0.272662 1.954627 0.707806 -0.000000 -0.000000 0.000000
    96 0.326769 1.949929 0.702248 -0.000000 -0.000000 0.000000
    97 -0.266687 1.976085 1.334098 -0.000000 -0.000000 0.000000
    98 0.332744 1.971387 1.328540 -0.000000 -0.000000 0.000000
    99 -2.399790 -17.273188 2.691413 -0.000082 -0.011209 1.570742
    100 -2.405404 -11.916818 3.087259 -1.582724 0.349125 3.137458
    101 -2.699318 -16.157913 1.680758 0.011209 -0.000082 -0.000055
    102 -2.940401 -10.653466 -0.621820 0.321796 -0.000082 -0.000055
    103 -0.000000 0.000000 -0.000000 -0.000000 -0.000000 0.000000
    104 -0.000000 0.000000 -0.000000 -0.000000 -0.000000 0.000000
    105 -0.000000 0.000000 -0.000000 -0.000000 -0.000000 0.000000
    106 -0.000000 0.000000 -0.000000 -0.000000 -0.000000 0.000000
  time 5
    0 0.000000 0.000000 0.000000 0.000000 0.000000 0.000000
    1 0.000000 500.000000 0.000000 0.000000 -0.000000 0.000000
    2 0.000000 500.000000 0.000000 0.000000 -0.000000 0.000000
    3 0.000000 500.000000 0.000000 0.000000 -0.000000 0.000000
    4 0.000000 500.000000 0.000000 0.000000 -0.000000 0.000000
    5 0.000000 500.000000 0.000000 0.000000 -0.000000 0.000000
    6 0.000000 500.000000 0.000000 0.000000 -0.000000 0.000000
    7 0.000000 500.000000 0.000000 0.000000 -0.000000 0.000000
    8 0.000000 500.000000 0.000000 0.000000 -0.000000 0.000000
    9 0.000000 500.000000 0.000000 0.000000 -0.000000 0.000000
    10 0.000000 500.000000 0.000000 0.000000 -0.000000 0.000000
    11 0.000000 500.000000 0.000000 0.000000 -0.000000 0.000000
    12 0.000000 500.000000 0.000000 0.000000 -0.000000 0.000000
    13 0.000000 500.000000 0.000000 0.000000 -0.000000 0.000000
    14 0.000000 500.000000 0.000000 0.000000 -0.000000 0.000000
    15 0.000000 500.000000 0.000000 0.000000 -0.000000 0.000000
    16 0.000000 500.000000 0.000000 0.000000 -0.000000 0.000000
    17 0.000000 500.000000 0.000000 0.000000 -0.000000 0.000000
    18 0.000000 500.000000 0.000000 0.000000 -0.000000 0.000000
    19 0.000000 500.000000 0.000000 0.000000 -0.000000 0.000000
    20 0.000000 500.000000 0.000000 0.000000 -0.000000 0.000000
    21 0.000000 500.000000 0.000000 0.000000 -0.000000 0.000000
    22 0.000000 500.000000 0.000000 0.000000 -0.000000 0.000000
    23 0.000000 500.000000 0.000000 0.000000 -0.000000 0.000000
    24 0.000000 500.000000 0.000000 0.000000 -0.000000 0.000000
    25 0.000000 500.000000 0.000000 0.000000 -0.000000 0.000000
    26 0.000000 500.000000 0.000000 0.000000 -0.000000 0.000000
    27 0.000000 500.000000 0.000000 0.000000 -0.000000 0.000000
    28 0.000000 500.000000 0.000000 0.000000 -0.000000 0.000000
    29 0.000000 500.000000 0.000000 0.000000 -0.000000 0.000000
    30 0.000000 500.000000 0.000000 0.000000 -0.000000 0.000000
    31 0.000000 500.000000 0.000000 0.000000 -0.000000 0.000000
    32 0.000000 500.000000 0.000000 0.000000 -0.000000 0.000000
    33 0.000000 500.000000 0.000000 0.000000 -0.000000 0.000000
    34 0.000000 500.000000 0.000000 0.000000 -0.000000 0.000000
    35 0.000000 500.000000 0.000000 0.000000 -0.000000 0.000000
    36 0.000000 500.000000 0.000000 0.000000 -0.000000 0.000000
    37 0.000000 500.000000 0.000000 0.000000 -0.000000 0.000000
    38 0.000000 500.000000 0.000000 0.000000 -0.000000 0.000000
    39 0.000000 500.000000 0.000000 0.000000 -0.000000 0.000000
    40 0.000000 500.000000 0.000000 0.000000 -0.000000 0.000000
    41 0.000000 500.000000 0.000000 0.000000 -0.000000 0.000000
    42 0.000000 500.000000 0.000000 0.000000 -0.000000 0.000000
    43 0.000000 500.000000 0.000000 0.000000 -0.000000 0.000000
    44 0.000000 500.000000 0.000000 0.000000 -0.000000 0.000000
    45 0.000000 500.000000 0.000000 0.000000 -0.000000 0.000000
    46 0.000000 500.000000 0.000000 0.000000 -0.000000 0.000000
    47 0.000000 500.000000 0.000000 0.000000 -0.000000 0.000000
    48 -2.069527 -3.333430 -22.039179 0.043781 0.024714 1.570707
    49 4.248777 0.410815 4.442343 -0.005882 1.526905 -1.618466
    50 -4.641472 0.171690 0.038425 0.000012 0.000029 0.000795
    51 -4.355368 1.782904 2.505167 0.471209 -0.002912 -0.005138
    52 -9.748767 1.090726 0.055637 0.000016 0.000059 0.001711
    53 6.053067 -8.736635 8.132437 1.262029 0.965791 -1.983127
    54 0.034847 -8.464476 5.394020 0.922573 -0.601856 -2.304622
    55 -5.796431 -0.937274 0.087414 0.000989 -0.022101 -0.632571
    56 -3.646381 -2.847179 9.940906 2.436114 0.651088 0.358693
    57 0.303615 -8.884172 -1.512310 -1.341573 -0.292407 -0.223451
    58 -3.764088 -0.502125 0.053115 0.009941 0.016408 0.546282
    59 -2.681755 -0.250410 0.034165 0.006509 0.012700 0.404040
    60 -6.311169 -0.756951 -1.121190 -0.017309 0.171278 0.697318
    61 -4.211215 -1.074324 0.076986 0.016411 0.021217 0.773521
    62 -4.344802 -1.172945 0.081639 0.017446 0.021795 0.806884
    63 -6.190625 -0.266076 -0.198254 0.003834 0.074800 0.723881
    64 -4.301444 -1.029439 0.076309 0.015946 0.020943 0.758327
    65 -3.892988 -0.775977 0.063728 0.013155 0.019083 0.663964
    66 -6.623144 -0.381884 0.866987 0.069944 0.082392 0.807064
    67 -4.771972 -1.658088 0.102337 0.022297 0.023947 0.956304
    68 -3.937551 -0.826489 0.065884 0.013722 0.019492 0.683609
    69 -7.032866 -0.251321 2.232885 0.202056 0.041753 0.900207
    70 -4.552859 -1.687438 0.101252 0.022562 0.024040 0.964209
    71 -4.854409 -1.921762 0.112157 0.024798 0.024737 1.030096
    72 -5.220100 -0.140063 1.171642 0.228208 -0.023542 -0.634865
    73 -3.219699 -8.846682 2.298334 0.177366 -1.380541 2.992474
    74 -3.964850 -0.832332 -0.536071 -0.494287 0.561185 -1.390399
    75 -4.194428 -4.066509 0.179344 0.020661 -0.042388 -1.450145
    76 -3.505518 -9.218510 4.134089 -2.165704 -0.026821 0.636020
    77 1.279210 -5.655241 12.452718 2.669832 0.165045 0.432275
    78 -3.440503 -0.346104 0.044683 0.007917 0.014350 0.465063
    79 -1.948483 -0.053974 0.020439 0.003116 0.007631 0.232297
    80 -3.076925 0.854365 1.146345 0.012098 -0.017090 0.055572
    81 -1.544202 -0.021193 -0.011638 -0.004759 0.006490 0.108475
    82 -1.956153 0.065735 0.104026 0.021234 -0.011388 0.214458
    83 -5.024127 0.564598 0.246211 -0.002072 -0.101618 0.590977
    84 -4.999364 -1.773897 0.108474 0.023419 0.024326 0.989621
    85 -5.223038 -2.239593 0.126564 0.027739 0.025415 1.115043
    86 -5.213895 0.053557 -0.730512 -0.053768 -0.103666 0.699378
    87 -4.830837 -1.733943 0.105497 0.023027 0.024198 0.978021
    88 -5.320914 -2.477322 0.135643 0.029869 0.025745 1.175683
    89 -5.117498 -0.300322 -1.600862 -0.079397 -0.011289 0.631412
    90 -4.348412 -1.444136 0.090965 0.020181 0.023114 0.892317
    91 -5.513030 -3.445137 0.170635 0.038100 0.025807 1.407785
    92 -5.395739 -4.231932 -0.693639 -0.211293 -0.040401 -1.448180
    93 -2.987146 -9.614010 -4.428543 -0.053015 0.000428 0.000480
    94 -0.042474 -3.591029 -0.924564 0.000000 -0.000000 0.000000
    95 -0.272662 1.954627 0.707806 0.000000 -0.000000 0.000000
    96 0.326769 1.949929 0.702248 0.000000 -0.000000 0.000000
    97 -0.266687 1.976087 1.334098 0.000000 -0.000000 0.000000
    98 0.332744 1.971388 1.328540 0.000000 -0.000000 0.000000
    99 -2.399790 -17.273188 2.691413 -0.000082 -0.011209 1.570742
    100 -2.405404 -11.916818 3.087259 -1.582724 0.349125 3.137458
    101 -2.699318 -16.157913 1.680758 0.011209 -0.000082 -0.000055
    102 -2.940401 -10.653466 -0.621820 0.321796 -0.000082 -0.000055
    103 -0.000000 0.000000 -0.000000 0.000000 -0.000000 0.000000
    104 -0.000000 0.000000 -0.000000 0.000000 -0.000000 0.000000
    105 -0.000000 0.000000 -0.000000 0.000000 -0.000000 0.000000
    106 -0.000000 0.000000 -0.000000 0.000000 -0.000000 0.000000
  time 6
    0 0.000000 0.000000 0.000000 0.000000 0.000000 0.000000
    1 0.000000 500.000000 0.000000 0.000000 -0.000000 0.000000
    2 0.000000 500.000000 0.000000 0.000000 -0.000000 0.000000
    3 0.000000 500.000000 0.000000 0.000000 -0.000000 0.000000
    4 0.000000 500.000000 0.000000 0.000000 -0.000000 0.000000
    5 0.000000 500.000000 0.000000 0.000000 -0.000000 0.000000
    6 0.000000 500.000000 0.000000 0.000000 -0.000000 0.000000
    7 0.000000 500.000000 0.000000 0.000000 -0.000000 0.000000
    8 0.000000 500.000000 0.000000 0.000000 -0.000000 0.000000
    9 0.000000 500.000000 0.000000 0.000000 -0.000000 0.000000
    10 0.000000 500.000000 0.000000 0.000000 -0.000000 0.000000
    11 0.000000 500.000000 0.000000 0.000000 -0.000000 0.000000
    12 0.000000 500.000000 0.000000 0.000000 -0.000000 0.000000
    13 0.000000 500.000000 0.000000 0.000000 -0.000000 0.000000
    14 0.000000 500.000000 0.000000 0.000000 -0.000000 0.000000
    15 0.000000 500.000000 0.000000 0.000000 -0.000000 0.000000
    16 0.000000 500.000000 0.000000 0.000000 -0.000000 0.000000
    17 0.000000 500.000000 0.000000 0.000000 -0.000000 0.000000
    18 0.000000 500.000000 0.000000 0.000000 -0.000000 0.000000
    19 0.000000 500.000000 0.000000 0.000000 -0.000000 0.000000
    20 0.000000 500.000000 0.000000 0.000000 -0.000000 0.000000
    21 0.000000 500.000000 0.000000 0.000000 -0.000000 0.000000
    22 0.000000 500.000000 0.000000 0.000000 -0.000000 0.000000
    23 0.000000 500.000000 0.000000 0.000000 -0.000000 0.000000
    24 0.000000 500.000000 0.000000 0.000000 -0.000000 0.000000
    25 0.000000 500.000000 0.000000 0.000000 -0.000000 0.000000
    26 0.000000 500.000000 0.000000 0.000000 -0.000000 0.000000
    27 0.000000 500.000000 0.000000 0.000000 -0.000000 0.000000
    28 0.000000 500.000000 0.000000 0.000000 -0.000000 0.000000
    29 0.000000 500.000000 0.000000 0.000000 -0.000000 0.000000
    30 0.000000 500.000000 0.000000 0.000000 -0.000000 0.000000
    31 0.000000 500.000000 0.000000 0.000000 -0.000000 0.000000
    32 0.000000 500.000000 0.000000 0.000000 -0.000000 0.000000
    33 0.000000 500.000000 0.000000 0.000000 -0.000000 0.000000
    34 0.000000 500.000000 0.000000 0.000000 -0.000000 0.000000
    35 0.000000 500.000000 0.000000 0.000000 -0.000000 0.000000
    36 0.000000 500.000000 0.000000 0.000000 -0.000000 0.000000
    37 0.000000 500.000000 0.000000 0.000000 -0.000000 0.000000
    38 0.000000 500.000000 0.000000 0.000000 -0.000000 0.000000
    39 0.000000 500.000000 0.000000 0.000000 -0.000000 0.000000
    40 0.000000 500.000000 0.000000 0.000000 -0.000000 0.000000
    41 0.000000 500.000000 0.000000 0.000000 -0.000000 0.000000
    42 0.000000 500.000000 0.000000 0.000000 -0.000000 0.000000
    43 0.000000 500.000000 0.000000 0.000000 -0.000000 0.000000
    44 0.000000 500.000000 0.000000 0.000000 -0.000000 0.000000
    45 0.000000 500.000000 0.000000 0.000000 -0.000000 0.000000
    46 0.000000 500.000000 0.000000 0.000000 -0.000000 0.000000
    47 0.000000 500.000000 0.000000 0.000000 -0.000000 0.000000
    48 -2.069527 -3.333430 -22.039179 0.043781 0.024714 1.570707
    49 4.248777 0.410815 4.442343 -0.005882 1.526905 -1.618466
    50 -4.641472 0.171690 0.038425 0.000012 0.000029 0.000795
    51 -4.355368 1.782904 2.505167 0.471209 -0.002912 -0.005138
    52 -9.748767 1.090726 0.055637 0.000016 0.000059 0.001711
    53 6.053067 -8.736635 8.132437 1.262029 0.965791 -1.983127
    54 0.007223 -8.492069 5.425358 0.928147 -0.585540 -2.312511
    55 -6.004830 -0.775792 0.083870 0.000300 -0.020098 -0.572992
    56 -3.709456 -3.173850 10.064649 2.494247 0.616801 0.382123
    57 0.303615 -8.884171 -1.512310 -1.341573 -0.292407 -0.223451
    58 -3.764088 -0.502125 0.053115 0.009941 0.016408 0.546282
    59 -2.681756 -0.250410 0.034165 0.006509 0.012700 0.404040
    60 -6.311166 -0.756949 -1.121189 -0.017309 0.171278 0.697317
    61 -4.211215 -1.074325 0.076986 0.016411 0.021217 0.773521
    62 -4.344802 -1.172944 0.081639 0.017446 0.021795 0.806884
    63 -6.190626 -0.266076 -0.198253 0.003834 0.074800 0.723881
    64 -4.301444 -1.029439 0.076309 0.015946 0.020943 0.758327
    65 -3.892988 -0.775977 0.063728 0.013155 0.019083 0.663964
    66 -6.623144 -0.381884 0.866987 0.069944 0.082392 0.807064
    67 -4.771972 -1.658087 0.102337 0.022297 0.023947 0.956304
    68 -3.937551 -0.826489 0.065884 0.013722 0.019492 0.683609
    69 -7.032867 -0.251322 2.232885 0.202056 0.041753 0.900207
    70 -4.552859 -1.687438 0.101252 0.022562 0.024040 0.964209
    71 -4.854409 -1.921762 0.112157 0.024798 0.024737 1.030096
    72 -5.435322 0.115769 1.271667 0.247265 -0.021663 -0.575500
    73 -3.219699 -8.846682 2.298334 0.177366 -1.380541 2.992474
    74 -3.949513 -0.908750 -0.580511 -0.505506 0.551340 -1.413533
    75 -4.215027 -3.838788 0.171738 0.018980 -0.041642 -1.398394
    76 -3.422719 -9.150900 4.129492 -2.166161 0.008936 0.657131
    77 1.279210 -5.655240 12.452718 2.669832 0.165045 0.432275
    78 -3.440503 -0.346104 0.044683 0.007917 0.014350 0.465063
    79 -1.948483 -0.053974 0.020439 0.003116 0.007631 0.232297
    80 -3.076925 0.854366 1.146344 0.012098 -0.017090 0.055572
    81 -1.544202 -0.021193 -0.011638 -0.004759 0.006490 0.108475
    82 -1.956153 0.065735 0.104026 0.021234 -0.011388 0.214458
    83 -5.024127 0.564600 0.246210 -0.002072 -0.101618 0.590977
    84 -4.999364 -1.773897 0.108474 0.023419 0.024326 0.989621
    85 -5.223038 -2.239593 0.126564 0.027739 0.025415 1.115043
    86 -5.213896 0.053557 -0.730512 -0.053768 -0.103666 0.699378
    87 -4.830837 -1.733943 0.105497 0.023027 0.024198 0.978021
    88 -5.320914 -2.477322 0.135644 0.029869 0.025745 1.175683
    89 -5.117498 -0.300322 -1.600862 -0.079397 -0.011289 0.631412
    90 -4.348412 -1.444135 0.090965 0.020181 0.023114 0.892317
    91 -5.513030 -3.445137 0.170635 0.038100 0.025807 1.407785
    92 -5.442483 -4.072053 -0.718673 -0.219218 -0.039589 -1.396386
    93 -2.987848 -9.736088 -4.401049 0.010664 -0.000083 -0.000099
    94 -0.042474 -3.591029 -0.924564 0.000000 -0.000000 0.000000
    95 -0.272662 1.954627 0.707806 0.000000 -0.000000 0.000000
    96 0.326769 1.949929 0.702248 0.000000 -0.000000 0.000000
    97 -0.266687 1.976085 1.334098 0.000000 -0.000000 0.000000
    98 0.332744 1.971387 1.328540 0.000000 -0.000000 0.000000
    99 -2.399790 -17.273188 2.691413 -0.000082 -0.011209 1.570742
    100 -2.405404 -11.916818 3.087259 -1.582724 0.349125 3.137458
    101 -2.699318 -16.157913 1.680758 0.011209 -0.000082 -0.000055
    102 -2.940401 -10.653466 -0.621820 0.321796 -0.000082 -0.000055
    103 0.000000 0.000000 -0.000000 0.000000 -0.000000 0.000000
    104 0.000000 0.000000 -0.000000 0.000000 -0.000000 0.000000
    105 0.000000 0.000000 -0.000000 0.000000 -0.000000 0.000000
    106 0.000000 0.000000 -0.000000 0.000000 -0.000000 0.000000
  time 7
    0 0.000000 0.000000 0.000000 0.000000 0.000000 0.000000
    1 0.000000 500.000000 0.000000 0.000000 -0.000000 0.000000
    2 0.000000 500.000000 0.000000 0.000000 -0.000000 0.000000
    3 0.000000 500.000000 0.000000 0.000000 -0.000000 0.000000
    4 0.000000 500.000000 0.000000 0.000000 -0.000000 0.000000
    5 0.000000 500.000000 0.000000 0.000000 -0.000000 0.000000
    6 0.000000 500.000000 0.000000 0.000000 -0.000000 0.000000
    7 0.000000 500.000000 0.000000 0.000000 -0.000000 0.000000
    8 0.000000 500.000000 0.000000 0.000000 -0.000000 0.000000
    9 0.000000 500.000000 0.000000 0.000000 -0.000000 0.000000
    10 0.000000 500.000000 0.000000 0.000000 -0.000000 0.000000
    11 0.000000 500.000000 0.000000 0.000000 -0.000000 0.000000
    12 0.000000 500.000000 0.000000 0.000000 -0.000000 0.000000
    13 0.000000 500.000000 0.000000 0.000000 -0.000000 0.000000
    14 0.000000 500.000000 0.000000 0.000000 -0.000000 0.000000
    15 0.000000 500.000000 0.000000 0.000000 -0.000000 0.000000
    16 0.000000 500.000000 0.000000 0.000000 -0.000000 0.000000
    17 0.000000 500.000000 0.000000 0.000000 -0.000000 0.000000
    18 0.000000 500.000000 0.000000 0.000000 -0.000000 0.000000
    19 0.000000 500.000000 0.000000 0.000000 -0.000000 0.000000
    20 0.000000 500.000000 0.000000 0.000000 -0.000000 0.000000
    21 0.000000 500.000000 0.000000 0.000000 -0.000000 0.000000
    22 0.000000 500.000000 0.000000 0.000000 -0.000000 0.000000
    23 0.000000 500.000000 0.000000 0.000000 -0.000000 0.000000
    24 0.000000 500.000000 0.000000 0.000000 -0.000000 0.000000
    25 0.000000 500.000000 0.000000 0.000000 -0.000000 0.000000
    26 0.000000 500.000000 0.000000 0.000000 -0.000000 0.000000
    27 0.000000 500.000000 0.000000 0.000000 -0.000000 0.000000
    28 0.000000 500.000000 0.000000 0.000000 -0.000000 0.000000
    29 0.000000 500.000000 0.000000 0.000000 -0.000000 0.000000
    30 0.000000 500.000000 0.000000 0.000000 -0.000000 0.000000
    31 0.000000 500.000000 0.000000 0.000000 -0.000000 0.000000
    32 0.000000 500.000000 0.000000 0.000000 -0.000000 0.000000
    33 0.000000 500.000000 0.000000 0.000000 -0.000000 0.000000
    34 0.000000 500.000000 0.000000 0.000000 -0.000000 0.000000
    35 0.000000 500.000000 0.000000 0.000000 -0.000000 0.000000
    36 0.000000 500.000000 0.000000 0.000000 -0.000000 0.000000
    37 0.000000 500.000000 0.000000 0.000000 -0.000000 0.000000
    38 0.000000 500.000000 0.000000 0.000000 -0.000000 0.000000
    39 0.000000 500.000000 0.000000 0.000000 -0.000000 0.000000
    40 0.000000 500.000000 0.000000 0.000000 -0.000000 0.000000
    41 0.000000 500.000000 0.000000 0.000000 -0.000000 0.000000
    42 0.000000 500.000000 0.000000 0.000000 -0.000000 0.000000
    43 0.000000 500.000000 0.000000 0.000000 -0.000000 0.000000
    44 0.000000 500.000000 0.000000 0.000000 -0.000000 0.000000
    45 0.000000 500.000000 0.000000 0.000000 -0.000000 0.000000
    46 0.000000 500.000000 0.000000 0.000000 -0.000000 0.000000
    47 0.000000 500.000000 0.000000 0.000000 -0.000000 0.000000
    48 -2.069527 -3.333430 -22.039179 0.043781 0.024714 1.570707
    49 4.248777 0.410815 4.442343 -0.005882 1.526905 -1.618466
    50 -4.641472 0.171690 0.038425 0.000012 0.000029 0.000795
    51 -4.355368 1.782904 2.505167 0.471209 -0.002912 -0.005138
    52 -9.748767 1.090726 0.055637 0.000016 0.000059 0.001711
    53 6.053067 -8.736635 8.132437 1.262029 0.965791 -1.983127
    54 -0.010330 -8.509724 5.441891 0.931064 -0.577613 -2.317324
    55 -6.121946 -0.693368 0.082163 -0.000024 -0.018994 -0.540634
    56 -3.748611 -3.358660 10.126429 2.526489 0.596784 0.395485
    57 0.303615 -8.884171 -1.512310 -1.341573 -0.292407 -0.223451
    58 -3.764088 -0.502125 0.053115 0.009941 0.016408 0.546282
    59 -2.681755 -0.250410 0.034165 0.006509 0.012700 0.404040
    60 -6.311170 -0.756951 -1.121188 -0.017309 0.171278 0.697318
    61 -4.211214 -1.074324 0.076986 0.016411 0.021217 0.773521
    62 -4.344802 -1.172944 0.081639 0.017446 0.021795 0.806884
    63 -6.190625 -0.266076 -0.198253 0.003834 0.074800 0.723881
    64 -4.301444 -1.029439 0.076309 0.015946 0.020943 0.758327
    65 -3.892988 -0.775977 0.063728 0.013155 0.019083 0.663964
    66 -6.623144 -0.381884 0.866987 0.069944 0.082392 0.807064
    67 -4.771974 -1.658089 0.102337 0.022297 0.023947 0.956304
    68 -3.937551 -0.826489 0.065884 0.013722 0.019492 0.683609
    69 -7.032868 -0.251323 2.232884 0.202056 0.041753 0.900207
    70 -4.552857 -1.687438 0.101253 0.022562 0.024040 0.964209
    71 -4.854409 -1.921762 0.112157 0.024798 0.024737 1.030096
    72 -5.559223 0.250928 1.329627 0.258186 -0.020680 -0.543262
    73 -3.219699 -8.846682 2.298334 0.177366 -1.380541 2.992474
    74 -3.940508 -0.944517 -0.600519 -0.510698 0.546850 -1.425156
    75 -4.230689 -3.718784 0.167776 0.018107 -0.041212 -1.371006
    76 -3.371011 -9.106790 4.122299 -2.165638 0.029364 0.670291
    77 1.279210 -5.655239 12.452719 2.669832 0.165045 0.432275
    78 -3.440503 -0.346104 0.044683 0.007917 0.014350 0.465063
    79 -1.948483 -0.053974 0.020439 0.003116 0.007631 0.232297
    80 -3.076927 0.854365 1.146345 0.012098 -0.017090 0.055572
    81 -1.544200 -0.021193 -0.011638 -0.004759 0.006490 0.108475
    82 -1.956153 0.065735 0.104027 0.021234 -0.011388 0.214458
    83 -5.024127 0.564600 0.246209 -0.002072 -0.101618 0.590977
    84 -4.999365 -1.773897 0.108474 0.023419 0.024326 0.989621
    85 -5.223038 -2.239593 0.126564 0.027739 0.025415 1.115043
    86 -5.213896 0.053557 -0.730512 -0.053768 -0.103666 0.699378
    87 -4.830835 -1.733943 0.105497 0.023027 0.024198 0.978021
    88 -5.320914 -2.477322 0.135643 0.029869 0.025745 1.175683
    89 -5.117498 -0.300322 -1.600862 -0.079397 -0.011289 0.631412
    90 -4.348412 -1.444135 0.090965 0.020181 0.023114 0.892317
    91 -5.513030 -3.445139 0.170635 0.038100 0.025807 1.407785
    92 -5.471973 -3.989419 -0.732559 -0.223660 -0.039104 -1.368975
    93 -2.988190 -9.792049 -4.390608 0.047840 -0.000364 -0.000452
    94 -0.042474 -3.591029 -0.924564 -0.000000 -0.000000 0.000000
    95 -0.272662 1.954627 0.707806 -0.000000 -0.000000 0.000000
    96 0.326769 1.949929 0.702248 -0.000000 -0.000000 0.000000
    97 -0.266687 1.976085 1.334098 -0.000000 -0.000000 0.000000
    98 0.332744 1.971387 1.328540 -0.000000 -0.000000 0.000000
    99 -2.399790 -17.273188 2.691413 -0.000082 -0.011209 1.570742
    100 -2.405404 -11.916818 3.087259 -1.582724 0.349125 3.137458
    101 -2.699318 -16.157913 1.680758 0.011209 -0.000082 -0.000055
    102 -2.940401 -10.653466 -0.621820 0.321796 -0.000082 -0.000055
    103 -0.000000 -0.000000 0.000000 -0.000000 -0.000000 0.000000
    104 -0.000000 -0.000000 0.000000 -0.000000 -0.000000 0.000000
    105 -0.000000 -0.000000 0.000000 -0.000000 -0.000000 0.000000
    106 -0.000000 -0.000000 0.000000 -0.000000 -0.000000 0.000000
  time 8
    0 0.000000 0.000000 0.000000 0.000000 0.000000 0.000000
    1 0.000000 500.000000 0.000000 0.000000 -0.000000 0.000000
    2 0.000000 500.000000 0.000000 0.000000 -0.000000 0.000000
    3 0.000000 500.000000 0.000000 0.000000 -0.000000 0.000000
    4 0.000000 500.000000 0.000000 0.000000 -0.000000 0.000000
    5 0.000000 500.000000 0.000000 0.000000 -0.000000 0.000000
    6 0.000000 500.000000 0.000000 0.000000 -0.000000 0.000000
    7 0.000000 500.000000 0.000000 0.000000 -0.000000 0.000000
    8 0.000000 500.000000 0.000000 0.000000 -0.000000 0.000000
    9 0.000000 500.000000 0.000000 0.000000 -0.000000 0.000000
    10 0.000000 500.000000 0.000000 0.000000 -0.000000 0.000000
    11 0.000000 500.000000 0.000000 0.000000 -0.000000 0.000000
    12 0.000000 500.000000 0.000000 0.000000 -0.000000 0.000000
    13 0.000000 500.000000 0.000000 0.000000 -0.000000 0.000000
    14 0.000000 500.000000 0.000000 0.000000 -0.000000 0.000000
    15 0.000000 500.000000 0.000000 0.000000 -0.000000 0.000000
    16 0.000000 500.000000 0.000000 0.000000 -0.000000 0.000000
    17 0.000000 500.000000 0.000000 0.000000 -0.000000 0.000000
    18 0.000000 500.000000 0.000000 0.000000 -0.000000 0.000000
    19 0.000000 500.000000 0.000000 0.000000 -0.000000 0.000000
    20 0.000000 500.000000 0.000000 0.000000 -0.000000 0.000000
    21 0.000000 500.000000 0.000000 0.000000 -0.000000 0.000000
    22 0.000000 500.000000 0.000000 0.000000 -0.000000 0.000000
    23 0.000000 500.000000 0.000000 0.000000 -0.000000 0.000000
    24 0.000000 500.000000 0.000000 0.000000 -0.000000 0.000000
    25 0.000000 500.000000 0.000000 0.000000 -0.000000 0.000000
    26 0.000000 500.000000 0.000000 0.000000 -0.000000 0.000000
    27 0.000000 500.000000 0.000000 0.000000 -0.000000 0.000000
    28 0.000000 500.000000 0.000000 0.000000 -0.000000 0.000000
    29 0.000000 500.000000 0.000000 0.000000 -0.000000 0.000000
    30 0.000000 500.000000 0.000000 0.000000 -0.000000 0.000000
    31 0.000000 500.000000 0.000000 0.000000 -0.000000 0.000000
    32 0.000000 500.000000 0.000000 0.000000 -0.000000 0.000000
    33 0.000000 500.000000 0.000000 0.000000 -0.000000 0.000000
    34 0.000000 500.000000 0.000000 0.000000 -0.000000 0.000000
    35 0.000000 500.000000 0.000000 0.000000 -0.000000 0.000000
    36 0.000000 500.000000 0.000000 0.000000 -0.000000 0.000000
    37 0.000000 500.000000 0.000000 0.000000 -0.000000 0.000000
    38 0.000000 500.000000 0.000000 0.000000 -0.000000 0.000000
    39 0.000000 500.000000 0.000000 0.000000 -0.000000 0.000000
    40 0.000000 500.000000 0.000000 0.000000 -0.000000 0.000000
    41 0.000000 500.000000 0.000000 0.000000 -0.000000 0.000000
    42 0.000000 500.000000 0.000000 0.000000 -0.000000 0.000000
    43 0.000000 500.000000 0.000000 0.000000 -0.000000 0.000000
    44 0.000000 500.000000 0.000000 0.000000 -0.000000 0.000000
    45 0.000000 500.000000 0.000000 0.000000 -0.000000 0.000000
    46 0.000000 500.000000 0.000000 0.000000 -0.000000 0.000000
    47 0.000000 500.000000 0.000000 0.000000 -0.000000 0.000000
    48 -2.069527 -3.333430 -22.039179 0.043781 0.024714 1.570707
    49 4.248777 0.410815 4.442343 -0.005882 1.526905 -1.618466
    50 -4.641472 0.171690 0.038425 0.000012 0.000029 0.000795
    51 -4.355368 1.782904 2.505167 0.471209 -0.002912 -0.005138
    52 -9.748767 1.090726 0.055637 0.000016 0.000059 0.001711
    53 6.053067 -8.736635 8.132437 1.262029 0.965791 -1.983127
    54 -0.009026 -8.508821 5.437438 0.930311 -0.581257 -2.316975
    55 -6.114196 -0.698648 0.082270 -0.000004 -0.019067 -0.542753
    56 -3.738354 -3.361672 10.119511 2.527591 0.598451 0.395578
    57 0.303615 -8.884170 -1.512310 -1.341573 -0.292407 -0.223451
    58 -3.764088 -0.502125 0.053115 0.009941 0.016408 0.546282
    59 -2.681755 -0.250410 0.034165 0.006509 0.012700 0.404040
    60 -6.311169 -0.756951 -1.121190 -0.017309 0.171278 0.697318
    61 -4.211215 -1.074324 0.076986 0.016411 0.021217 0.773521
    62 -4.344802 -1.172943 0.081639 0.017446 0.021795 0.806884
    63 -6.190625 -0.266076 -0.198255 0.003834 0.074800 0.723881
    64 -4.301444 -1.029439 0.076309 0.015946 0.020943 0.758327
    65 -3.892988 -0.775977 0.063728 0.013155 0.019083 0.663964
    66 -6.623144 -0.381884 0.866987 0.069944 0.082392 0.807064
    67 -4.771972 -1.658085 0.102337 0.022297 0.023947 0.956303
    68 -3.937551 -0.826489 0.065884 0.013722 0.019492 0.683609
    69 -7.032868 -0.251321 2.232885 0.202056 0.041753 0.900207
    70 -4.552859 -1.687438 0.101252 0.022562 0.024040 0.964209
    71 -4.854407 -1.921762 0.112157 0.024798 0.024737 1.030096
    72 -5.549531 0.244490 1.329796 0.258214 -0.020760 -0.545380
    73 -3.219699 -8.846682 2.298334 0.177366 -1.380541 2.992474
    74 -3.935292 -0.923042 -0.586862 -0.507914 0.550203 -1.422183
    75 -4.229130 -3.729664 0.168136 0.018185 -0.041252 -1.373493
    76 -3.373493 -9.108834 4.122070 -2.165561 0.027906 0.669609
    77 1.279210 -5.655241 12.452718 2.669832 0.165045 0.432275
    78 -3.440503 -0.346104 0.044683 0.007917 0.014350 0.465063
    79 -1.948483 -0.053974 0.020439 0.003116 0.007631 0.232297
    80 -3.076925 0.854365 1.146345 0.012098 -0.017090 0.055572
    81 -1.544200 -0.021193 -0.011638 -0.004759 0.006490 0.108475
    82 -1.956153 0.065735 0.104026 0.021234 -0.011388 0.214458
    83 -5.024127 0.564600 0.246211 -0.002072 -0.101618 0.590977
    84 -4.999363 -1.773897 0.108474 0.023419 0.024326 0.989621
    85 -5.223038 -2.239593 0.126564 0.027739 0.025415 1.115043
    86 -5.213896 0.053557 -0.730512 -0.053768 -0.103666 0.699378
    87 -4.830837 -1.733943 0.105497 0.023027 0.024198 0.978021
    88 -5.320914 -2.477322 0.135643 0.029869 0.025745 1.175683
    89 -5.117498 -0.300322 -1.600862 -0.079397 -0.011289 0.631412
    90 -4.348412 -1.444134 0.090965 0.020181 0.023114 0.892317
    91 -5.513030 -3.445137 0.170635 0.038100 0.025807 1.407785
    92 -5.469544 -3.996918 -0.731490 -0.223318 -0.039145 -1.371463
    93 -2.988419 -9.774757 -4.429898 0.048727 -0.000371 -0.000461
    94 -0.042474 -3.591029 -0.924564 0.000000 0.000000 -0.000000
    95 -0.272662 1.954627 0.707806 0.000000 0.000000 -0.000000
    96 0.326769 1.949929 0.702248 0.000000 0.000000 -0.000000
    97 -0.266687 1.976085 1.334098 0.000000 0.000000 -0.000000
    98 0.332744 1.971387 1.328540 0.000000 0.000000 -0.000000
    99 -2.399790 -17.273188 2.691413 -0.000082 -0.011209 1.570742
    100 -2.405404 -11.916818 3.087259 -1.582724 0.349125 3.137458
    101 -2.699318 -16.157913 1.680758 0.011209 -0.000082 -0.000055
    102 -2.940401 -10.653466 -0.621820 0.321796 -0.000082 -0.000055
    103 -0.000000 -0.000000 -0.000000 0.000000 0.000000 -0.000000
    104 -0.000000 -0.000000 -0.000000 0.000000 0.000000 -0.000000
    105 -0.000000 -0.000000 -0.000000 0.000000 0.000000 -0.000000
    106 -0.000000 -0.000000 -0.000000 0.000000 0.000000 -0.000000
  time 9
    0 0.000000 0.000000 0.000000 0.000000 0.000000 0.000000
    1 0.000000 500.000000 0.000000 0.000000 -0.000000 0.000000
    2 0.000000 500.000000 0.000000 0.000000 -0.000000 0.000000
    3 0.000000 500.000000 0.000000 0.000000 -0.000000 0.000000
    4 0.000000 500.000000 0.000000 0.000000 -0.000000 0.000000
    5 0.000000 500.000000 0.000000 0.000000 -0.000000 0.000000
    6 0.000000 500.000000 0.000000 0.000000 -0.000000 0.000000
    7 0.000000 500.000000 0.000000 0.000000 -0.000000 0.000000
    8 0.000000 500.000000 0.000000 0.000000 -0.000000 0.000000
    9 0.000000 500.000000 0.000000 0.000000 -0.000000 0.000000
    10 0.000000 500.000000 0.000000 0.000000 -0.000000 0.000000
    11 0.000000 500.000000 0.000000 0.000000 -0.000000 0.000000
    12 0.000000 500.000000 0.000000 0.000000 -0.000000 0.000000
    13 0.000000 500.000000 0.000000 0.000000 -0.000000 0.000000
    14 0.000000 500.000000 0.000000 0.000000 -0.000000 0.000000
    15 0.000000 500.000000 0.000000 0.000000 -0.000000 0.000000
    16 0.000000 500.000000 0.000000 0.000000 -0.000000 0.000000
    17 0.000000 500.000000 0.000000 0.000000 -0.000000 0.000000
    18 0.000000 500.000000 0.000000 0.000000 -0.000000 0.000000
    19 0.000000 500.000000 0.000000 0.000000 -0.000000 0.000000
    20 0.000000 500.000000 0.000000 0.000000 -0.000000 0.000000
    21 0.000000 500.000000 0.000000 0.000000 -0.000000 0.000000
    22 0.000000 500.000000 0.000000 0.000000 -0.000000 0.000000
    23 0.000000 500.000000 0.000000 0.000000 -0.000000 0.000000
    24 0.000000 500.000000 0.000000 0.000000 -0.000000 0.000000
    25 0.000000 500.000000 0.000000 0.000000 -0.000000 0.000000
    26 0.000000 500.000000 0.000000 0.000000 -0.000000 0.000000
    27 0.000000 500.000000 0.000000 0.000000 -0.000000 0.000000
    28 0.000000 500.000000 0.000000 0.000000 -0.000000 0.000000
    29 0.000000 500.000000 0.000000 0.000000 -0.000000 0.000000
    30 0.000000 500.000000 0.000000 0.000000 -0.000000 0.000000
    31 0.000000 500.000000 0.000000 0.000000 -0.000000 0.000000
    32 0.000000 500.000000 0.000000 0.000000 -0.000000 0.000000
    33 0.000000 500.000000 0.000000 0.000000 -0.000000 0.000000
    34 0.000000 500.000000 0.000000 0.000000 -0.000000 0.000000
    35 0.000000 500.000000 0.000000 0.000000 -0.000000 0.000000
    36 0.000000 500.000000 0.000000 0.000000 -0.000000 0.000000
    37 0.000000 500.000000 0.000000 0.000000 -0.000000 0.000000
    38 0.000000 500.000000 0.000000 0.000000 -0.000000 0.000000
    39 0.000000 500.000000 0.000000 0.000000 -0.000000 0.000000
    40 0.000000 500.000000 0.000000 0.000000 -0.000000 0.000000
    41 0.000000 500.000000 0.000000 0.000000 -0.000000 0.000000
    42 0.000000 500.000000 0.000000 0.000000 -0.000000 0.000000
    43 0.000000 500.000000 0.000000 0.000000 -0.000000 0.000000
    44 0.000000 500.000000 0.000000 0.000000 -0.000000 0.000000
    45 0.000000 500.000000 0.000000 0.000000 -0.000000 0.000000
    46 0.000000 500.000000 0.000000 0.000000 -0.000000 0.000000
    47 0.000000 500.000000 0.000000 0.000000 -0.000000 0.000000
    48 -2.069527 -3.333430 -22.039179 0.043781 0.024714 1.570707
    49 4.248777 0.410815 4.442343 -0.005882 1.526905 -1.618466
    50 -4.641472 0.171690 0.038425 0.000012 0.000029 0.000795
    51 -4.355368 1.782904 2.505167 0.471209 -0.002912 -0.005138
    52 -9.748767 1.090726 0.055637 0.000016 0.000059 0.001711
    53 6.053067 -8.736635 8.132437 1.262029 0.965791 -1.983127
    54 0.004076 -8.496590 5.417286 0.926805 -0.594255 -2.313314
    55 -6.027504 -0.759388 0.083524 0.000234 -0.019883 -0.566669
    56 -3.700078 -3.276626 10.077145 2.517365 0.610956 0.395063
    57 0.303615 -8.884171 -1.512310 -1.341573 -0.292407 -0.223451
    58 -3.764088 -0.502125 0.053115 0.009941 0.016408 0.546282
    59 -2.681755 -0.250410 0.034165 0.006509 0.012700 0.404040
    60 -6.311171 -0.756951 -1.121188 -0.017309 0.171278 0.697318
    61 -4.211215 -1.074325 0.076986 0.016411 0.021217 0.773521
    62 -4.344802 -1.172945 0.081639 0.017446 0.021795 0.806884
    63 -6.190625 -0.266076 -0.198253 0.003834 0.074800 0.723881
    64 -4.301445 -1.029439 0.076309 0.015946 0.020943 0.758327
    65 -3.892988 -0.775977 0.063727 0.013155 0.019083 0.663964
    66 -6.623143 -0.381884 0.866987 0.069944 0.082392 0.807064
    67 -4.771974 -1.658089 0.102337 0.022297 0.023947 0.956304
    68 -3.937551 -0.826489 0.065884 0.013722 0.019492 0.683609
    69 -7.032866 -0.251321 2.232885 0.202056 0.041753 0.900207
    70 -4.552859 -1.687438 0.101252 0.022562 0.024040 0.964209
    71 -4.854408 -1.921762 0.112157 0.024798 0.024737 1.030096
    72 -5.450636 0.155676 1.305855 0.253693 -0.021541 -0.569245
    73 -3.219699 -8.846682 2.298334 0.177366 -1.380541 2.992474
    74 -3.929853 -0.858926 -0.546996 -0.499128 0.559583 -1.409438
    75 -4.217361 -3.819159 0.171088 0.018837 -0.041574 -1.393920
    76 -3.386191 -9.119765 4.123959 -2.165544 0.017109 0.665642
    77 1.279210 -5.655240 12.452718 2.669832 0.165045 0.432275
    78 -3.440503 -0.346104 0.044683 0.007917 0.014350 0.465063
    79 -1.948483 -0.053974 0.020439 0.003116 0.007631 0.232297
    80 -3.076925 0.854365 1.146344 0.012098 -0.017090 0.055572
    81 -1.544200 -0.021193 -0.011639 -0.004759 0.006490 0.108475
    82 -1.956153 0.065735 0.104026 0.021234 -0.011388 0.214458
    83 -5.024127 0.564598 0.246209 -0.002072 -0.101618 0.590977
    84 -4.999363 -1.773897 0.108476 0.023419 0.024326 0.989621
    85 -5.223038 -2.239593 0.126564 0.027739 0.025415 1.115043
    86 -5.213896 0.053557 -0.730512 -0.053768 -0.103666 0.699378
    87 -4.830837 -1.733943 0.105497 0.023027 0.024198 0.978021
    88 -5.320914 -2.477322 0.135643 0.029869 0.025745 1.175683
    89 -5.117498 -0.300322 -1.600862 -0.079397 -0.011289 0.631412
    90 -4.348412 -1.444135 0.090965 0.020181 0.023114 0.892317
    91 -5.513030 -3.445137 0.170635 0.038100 0.025807 1.407785
    92 -5.453414 -4.059576 -0.724424 -0.221067 -0.039488 -1.391901
    93 -2.988523 -9.694542 -4.508952 0.035814 -0.000275 -0.000337
    94 -0.042474 -3.591029 -0.924564 -0.000000 -0.000000 -0.000000
    95 -0.272662 1.954627 0.707806 -0.000000 -0.000000 -0.000000
    96 0.326769 1.949929 0.702248 -0.000000 -0.000000 -0.000000
    97 -0.266687 1.976085 1.334098 -0.000000 -0.000000 -0.000000
    98 0.332744 1.971387 1.328540 -0.000000 -0.000000 -0.000000
    99 -2.399790 -17.273188 2.691413 -0.000082 -0.011209 1.570742
    100 -2.405404 -11.916818 3.087259 -1.582724 0.349125 3.137458
    101 -2.699318 -16.157913 1.680758 0.011209 -0.000082 -0.000055
    102 -2.940401 -10.653466 -0.621820 0.321796 -0.000082 -0.000055
    103 0.000000 -0.000000 -0.000000 -0.000000 -0.000000 -0.000000
    104 0.000000 -0.000000 -0.000000 -0.000000 -0.000000 -0.000000
    105 0.000000 -0.000000 -0.000000 -0.000000 -0.000000 -0.000000
    106 0.000000 -0.000000 -0.000000 -0.000000 -0.000000 -0.000000
  time 10
    0 0.000000 0.000000 0.000000 0.000000 0.000000 0.000000
    1 0.000000 500.000000 0.000000 0.000000 -0.000000 0.000000
    2 0.000000 500.000000 0.000000 0.000000 -0.000000 0.000000
    3 0.000000 500.000000 0.000000 0.000000 -0.000000 0.000000
    4 0.000000 500.000000 0.000000 0.000000 -0.000000 0.000000
    5 0.000000 500.000000 0.000000 0.000000 -0.000000 0.000000
    6 0.000000 500.000000 0.000000 0.000000 -0.000000 0.000000
    7 0.000000 500.000000 0.000000 0.000000 -0.000000 0.000000
    8 0.000000 500.000000 0.000000 0.000000 -0.000000 0.000000
    9 0.000000 500.000000 0.000000 0.000000 -0.000000 0.000000
    10 0.000000 500.000000 0.000000 0.000000 -0.000000 0.000000
    11 0.000000 500.000000 0.000000 0.000000 -0.000000 0.000000
    12 0.000000 500.000000 0.000000 0.000000 -0.000000 0.000000
    13 0.000000 500.000000 0.000000 0.000000 -0.000000 0.000000
    14 0.000000 500.000000 0.000000 0.000000 -0.000000 0.000000
    15 0.000000 500.000000 0.000000 0.000000 -0.000000 0.000000
    16 0.000000 500.000000 0.000000 0.000000 -0.000000 0.000000
    17 0.000000 500.000000 0.000000 0.000000 -0.000000 0.000000
    18 0.000000 500.000000 0.000000 0.000000 -0.000000 0.000000
    19 0.000000 500.000000 0.000000 0.000000 -0.000000 0.000000
    20 0.000000 500.000000 0.000000 0.000000 -0.000000 0.000000
    21 0.000000 500.000000 0.000000 0.000000 -0.000000 0.000000
    22 0.000000 500.000000 0.000000 0.000000 -0.000000 0.000000
    23 0.000000 500.000000 0.000000 0.000000 -0.000000 0.000000
    24 0.000000 500.000000 0.000000 0.000000 -0.000000 0.000000
    25 0.000000 500.000000 0.000000 0.000000 -0.000000 0.000000
    26 0.000000 500.000000 0.000000 0.000000 -0.000000 0.000000
    27 0.000000 500.000000 0.000000 0.000000 -0.000000 0.000000
    28 0.000000 500.000000 0.000000 0.000000 -0.000000 0.000000
    29 0.000000 500.000000 0.000000 0.000000 -0.000000 0.000000
    30 0.000000 500.000000 0.000000 0.000000 -0.000000 0.000000
    31 0.000000 500.000000 0.000000 0.000000 -0.000000 0.000000
    32 0.000000 500.000000 0.000000 0.000000 -0.000000 0.000000
    33 0.000000 500.000000 0.000000 0.000000 -0.000000 0.000000
    34 0.000000 500.000000 0.000000 0.000000 -0.000000 0.000000
    35 0.000000 500.000000 0.000000 0.000000 -0.000000 0.000000
    36 0.000000 500.000000 0.000000 0.000000 -0.000000 0.000000
    37 0.000000 500.000000 0.000000 0.000000 -0.000000 0.000000
    38 0.000000 500.000000 0.000000 0.000000 -0.000000 0.000000
    39 0.000000 500.000000 0.000000 0.000000 -0.000000 0.000000
    40 0.000000 500.000000 0.000000 0.000000 -0.000000 0.000000
    41 0.000000 500.000000 0.000000 0.000000 -0.000000 0.000000
    42 0.000000 500.000000 0.000000 0.000000 -0.000000 0.000000
    43 0.000000 500.000000 0.000000 0.000000 -0.000000 0.000000
    44 0.000000 500.000000 0.000000 0.000000 -0.000000 0.000000
    45 0.000000 500.000000 0.000000 0.000000 -0.000000 0.000000
    46 0.000000 500.000000 0.000000 0.000000 -0.000000 0.000000
    47 0.000000 500.000000 0.000000 0.000000 -0.000000 0.000000
    48 -2.069527 -3.333430 -22.039179 0.043781 0.024714 1.570707
    49 4.248777 0.410815 4.442343 -0.005882 1.526905 -1.618466
    50 -4.641472 0.171690 0.038425 0.000012 0.000029 0.000795
    51 -4.355368 1.782904 2.505167 0.471209 -0.002912 -0.005138
    52 -9.748767 1.090726 0.055637 0.000016 0.000059 0.001711
    53 6.053067 -8.736635 8.132437 1.262029 0.965791 -1.983127
    54 0.018135 -8.483495 5.393768 0.922654 -0.609207 -2.309159
    55 -5.925841 -0.834672 0.085135 0.000543 -0.020851 -0.595253
    56 -3.657170 -3.171045 10.025161 2.504347 0.625852 0.394348
    57 0.303615 -8.884171 -1.512310 -1.341573 -0.292407 -0.223451
    58 -3.764088 -0.502125 0.053115 0.009941 0.016408 0.546282
    59 -2.681756 -0.250410 0.034165 0.006509 0.012700 0.404040
    60 -6.311169 -0.756952 -1.121189 -0.017309 0.171278 0.697318
    61 -4.211215 -1.074324 0.076986 0.016411 0.021217 0.773521
    62 -4.344802 -1.172945 0.081639 0.017446 0.021795 0.806884
    63 -6.190625 -0.266076 -0.198254 0.003834 0.074800 0.723881
    64 -4.301445 -1.029439 0.076309 0.015946 0.020943 0.758327
    65 -3.892988 -0.775977 0.063727 0.013155 0.019083 0.663964
    66 -6.623144 -0.381883 0.866987 0.069944 0.082392 0.807064
    67 -4.771973 -1.658087 0.102337 0.022297 0.023947 0.956304
    68 -3.937551 -0.826489 0.065883 0.013722 0.019492 0.683609
    69 -7.032866 -0.251323 2.232884 0.202056 0.041753 0.900207
    70 -4.552858 -1.687438 0.101252 0.022562 0.024040 0.964209
    71 -4.854408 -1.921762 0.112157 0.024798 0.024737 1.030096
    72 -5.336095 0.046059 1.276539 0.248138 -0.022475 -0.597766
    73 -3.219699 -8.846682 2.298334 0.177366 -1.380541 2.992474
    74 -3.925333 -0.785355 -0.500226 -0.488689 0.570233 -1.394151
    75 -4.205544 -3.927979 0.174703 0.019635 -0.041945 -1.418692
    76 -3.399807 -9.131264 4.125032 -2.165324 0.004356 0.661267
    77 1.279210 -5.655240 12.452718 2.669832 0.165045 0.432275
    78 -3.440503 -0.346104 0.044683 0.007917 0.014350 0.465063
    79 -1.948483 -0.053974 0.020439 0.003116 0.007631 0.232297
    80 -3.076925 0.854366 1.146345 0.012098 -0.017090 0.055572
    81 -1.544202 -0.021193 -0.011639 -0.004759 0.006490 0.108475
    82 -1.956153 0.065735 0.104026 0.021234 -0.011388 0.214458
    83 -5.024127 0.564600 0.246209 -0.002072 -0.101618 0.590977
    84 -4.999364 -1.773897 0.108474 0.023419 0.024326 0.989621
    85 -5.223038 -2.239593 0.126564 0.027739 0.025415 1.115043
    86 -5.213896 0.053557 -0.730512 -0.053768 -0.103666 0.699378
    87 -4.830837 -1.733942 0.105497 0.023027 0.024198 0.978021
    88 -5.320914 -2.477321 0.135643 0.029869 0.025745 1.175683
    89 -5.117498 -0.300322 -1.600862 -0.079397 -0.011289 0.631412
    90 -4.348412 -1.444135 0.090966 0.020181 0.023114 0.892317
    91 -5.513030 -3.445137 0.170635 0.038100 0.025807 1.407785
    92 -5.435753 -4.136228 -0.715904 -0.218364 -0.039880 -1.416685
    93 -2.988549 -9.596815 -4.594387 0.019978 -0.000155 -0.000187
    94 -0.042474 -3.591029 -0.924564 0.000000 0.000000 -0.000000
    95 -0.272662 1.954627 0.707806 0.000000 0.000000 -0.000000
    96 0.326769 1.949929 0.702248 0.000000 0.000000 -0.000000
    97 -0.266687 1.976085 1.334098 0.000000 0.000000 -0.000000
    98 0.332744 1.971387 1.328540 0.000000 0.000000 -0.000000
    99 -2.399790 -17.273188 2.691413 -0.000082 -0.011209 1.570742
    100 -2.405404 -11.916818 3.087259 -1.582724 0.349125 3.137458
    101 -2.699318 -16.157913 1.680758 0.011209 -0.000082 -0.000055
    102 -2.940401 -10.653466 -0.621820 0.321796 -0.000082 -0.000055
    103 -0.000000 0.000000 0.000000 0.000000 0.000000 -0.000000
    104 -0.000000 0.000000 0.000000 0.000000 0.000000 -0.000000
    105 -0.000000 0.000000 0.000000 0.000000 0.000000 -0.000000
    106 -0.000000 0.000000 0.000000 0.000000 0.000000 -0.000000
  time 11
    0 0.000000 0.000000 0.000000 0.000000 0.000000 0.000000
    1 0.000000 500.000000 0.000000 0.000000 -0.000000 0.000000
    2 0.000000 500.000000 0.000000 0.000000 -0.000000 0.000000
    3 0.000000 500.000000 0.000000 0.000000 -0.000000 0.000000
    4 0.000000 500.000000 0.000000 0.000000 -0.000000 0.000000
    5 0.000000 500.000000 0.000000 0.000000 -0.000000 0.000000
    6 0.000000 500.000000 0.000000 0.000000 -0.000000 0.000000
    7 0.000000 500.000000 0.000000 0.000000 -0.000000 0.000000
    8 0.000000 500.000000 0.000000 0.000000 -0.000000 0.000000
    9 0.000000 500.000000 0.000000 0.000000 -0.000000 0.000000
    10 0.000000 500.000000 0.000000 0.000000 -0.000000 0.000000
    11 0.000000 500.000000 0.000000 0.000000 -0.000000 0.000000
    12 0.000000 500.000000 0.000000 0.000000 -0.000000 0.000000
    13 0.000000 500.000000 0.000000 0.000000 -0.000000 0.000000
    14 0.000000 500.000000 0.000000 0.000000 -0.000000 0.000000
    15 0.000000 500.000000 0.000000 0.000000 -0.000000 0.000000
    16 0.000000 500.000000 0.000000 0.000000 -0.000000 0.000000
    17 0.000000 500.000000 0.000000 0.000000 -0.000000 0.000000
    18 0.000000 500.000000 0.000000 0.000000 -0.000000 0.000000
    19 0.000000 500.000000 0.000000 0.000000 -0.000000 0.000000
    20 0.000000 500.000000 0.000000 0.000000 -0.000000 0.000000
    21 0.000000 500.000000 0.000000 0.000000 -0.000000 0.000000
    22 0.000000 500.000000 0.000000 0.000000 -0.000000 0.000000
    23 0.000000 500.000000 0.000000 0.000000 -0.000000 0.000000
    24 0.000000 500.000000 0.000000 0.000000 -0.000000 0.000000
    25 0.000000 500.000000 0.000000 0.000000 -0.000000 0.000000
    26 0.000000 500.000000 0.000000 0.000000 -0.000000 0.000000
    27 0.000000 500.000000 0.000000 0.000000 -0.000000 0.000000
    28 0.000000 500.000000 0.000000 0.000000 -0.000000 0.000000
    29 0.000000 500.000000 0.000000 0.000000 -0.000000 0.000000
    30 0.000000 500.000000 0.000000 0.000000 -0.000000 0.000000
    31 0.000000 500.000000 0.000000 0.000000 -0.000000 0.000000
    32 0.000000 500.000000 0.000000 0.000000 -0.000000 0.000000
    33 0.000000 500.000000 0.000000 0.000000 -0.000000 0.000000
    34 0.000000 500.000000 0.000000 0.000000 -0.000000 0.000000
    35 0.000000 500.000000 0.000000 0.000000 -0.000000 0.000000
    36 0.000000 500.000000 0.000000 0.000000 -0.000000 0.000000
    37 0.000000 500.000000 0.000000 0.000000 -0.000000 0.000000
    38 0.000000 500.000000 0.000000 0.000000 -0.000000 0.000000
    39 0.000000 500.000000 0.000000 0.000000 -0.000000 0.000000
    40 0.000000 500.000000 0.000000 0.000000 -0.000000 0.000000
    41 0.000000 500.000000 0.000000 0.000000 -0.000000 0.000000
    42 0.000000 500.000000 0.000000 0.000000 -0.000000 0.000000
    43 0.000000 500.000000 0.000000 0.000000 -0.000000 0.000000
    44 0.000000 500.000000 0.000000 0.000000 -0.000000 0.000000
    45 0.000000 500.000000 0.000000 0.000000 -0.000000 0.000000
    46 0.000000 500.000000 0.000000 0.000000 -0.000000 0.000000
    47 0.000000 500.000000 0.000000 0.000000 -0.000000 0.000000
    48 -2.069527 -3.333430 -22.039179 0.043781 0.024714 1.570707
    49 4.248777 0.410815 4.442343 -0.005882 1.526905 -1.618466
    50 -4.641472 0.171690 0.038425 0.000012 0.000029 0.000795
    51 -4.355368 1.782904 2.505167 0.471209 -0.002912 -0.005138
    52 -9.748767 1.090726 0.055637 0.000016 0.000059 0.001711
    53 6.053067 -8.736635 8.132437 1.262029 0.965791 -1.983127
    54 0.028466 -8.473965 5.374406 0.919186 -0.621464 -2.305900
    55 -5.843301 -0.899201 0.086558 0.000820 -0.021646 -0.618927
    56 -3.622485 -3.080654 9.979758 2.492734 0.638447 0.393184
    57 0.303615 -8.884170 -1.512310 -1.341573 -0.292407 -0.223451
    58 -3.764088 -0.502125 0.053115 0.009941 0.016408 0.546282
    59 -2.681755 -0.250410 0.034165 0.006509 0.012700 0.404040
    60 -6.311171 -0.756951 -1.121189 -0.017309 0.171278 0.697318
    61 -4.211215 -1.074325 0.076986 0.016411 0.021217 0.773521
    62 -4.344802 -1.172945 0.081639 0.017446 0.021795 0.806884
    63 -6.190625 -0.266076 -0.198253 0.003834 0.074800 0.723881
    64 -4.301444 -1.029439 0.076309 0.015946 0.020943 0.758327
    65 -3.892988 -0.775977 0.063728 0.013155 0.019083 0.663964
    66 -6.623144 -0.381884 0.866985 0.069944 0.082392 0.807064
    67 -4.771974 -1.658088 0.102337 0.022297 0.023947 0.956304
    68 -3.937551 -0.826487 0.065883 0.013722 0.019492 0.683609
    69 -7.032866 -0.251323 2.232885 0.202056 0.041753 0.900207
    70 -4.552857 -1.687438 0.101252 0.022562 0.024040 0.964209
    71 -4.854409 -1.921762 0.112157 0.024798 0.024737 1.030096
    72 -5.244486 -0.047710 1.251313 0.243343 -0.023249 -0.621386
    73 -3.219699 -8.846682 2.298334 0.177366 -1.380541 2.992474
    74 -3.922513 -0.724330 -0.460508 -0.479741 0.579001 -1.381105
    75 -4.197640 -4.020421 0.177795 0.020318 -0.042245 -1.439690
    76 -3.411620 -9.141029 4.124963 -2.164968 -0.006468 0.657521
    77 1.279210 -5.655241 12.452719 2.669832 0.165045 0.432275
    78 -3.440503 -0.346104 0.044683 0.007917 0.014350 0.465063
    79 -1.948483 -0.053974 0.020439 0.003116 0.007631 0.232297
    80 -3.076925 0.854365 1.146345 0.012098 -0.017090 0.055572
    81 -1.544200 -0.021193 -0.011638 -0.004759 0.006490 0.108475
    82 -1.956153 0.065735 0.104026 0.021234 -0.011388 0.214458
    83 -5.024127 0.564600 0.246209 -0.002072 -0.101618 0.590977
    84 -4.999363 -1.773897 0.108474 0.023419 0.024326 0.989621
    85 -5.223038 -2.239593 0.126564 0.027739 0.025415 1.115043
    86 -5.213896 0.053557 -0.730512 -0.053768 -0.103666 0.699378
    87 -4.830835 -1.733943 0.105497 0.023027 0.024198 0.978021
    88 -5.320914 -2.477322 0.135643 0.029869 0.025745 1.175683
    89 -5.117498 -0.300322 -1.600862 -0.079397 -0.011289 0.631412
    90 -4.348412 -1.444134 0.090966 0.020181 0.023114 0.892317
    91 -5.513030 -3.445137 0.170635 0.038100 0.025807 1.407785
    92 -5.421949 -4.201668 -0.708463 -0.216010 -0.040195 -1.437694
    93 -2.988534 -9.513368 -4.663332 0.006334 -0.000049 -0.000059
    94 -0.042474 -3.591029 -0.924564 -0.000000 -0.000000 0.000000
    95 -0.272662 1.954627 0.707806 -0.000000 -0.000000 0.000000
    96 0.326769 1.949929 0.702248 -0.000000 -0.000000 0.000000
    97 -0.266687 1.976085 1.334098 -0.000000 -0.000000 0.000000
    98 0.332744 1.971387 1.328540 -0.000000 -0.000000 0.000000
    99 -2.399790 -17.273188 2.691413 -0.000082 -0.011209 1.570742
    100 -2.405404 -11.916818 3.087259 -1.582724 0.349125 3.137458
    101 -2.699318 -16.157913 1.680758 0.011209 -0.000082 -0.000055
    102 -2.940401 -10.653466 -0.621820 0.321796 -0.000082 -0.000055
    103 0.000000 -0.000000 0.000000 -0.000000 -0.000000 0.000000
    104 0.000000 -0.000000 0.000000 -0.000000 -0.000000 0.000000
    105 0.000000 -0.000000 0.000000 -0.000000 -0.000000 0.000000
    106 0.000000 -0.000000 0.000000 -0.000000 -0.000000 0.000000
  time 12
    0 0.000000 0.000000 0.000000 0.000000 0.000000 0.000000
    1 0.000000 500.000000 0.000000 0.000000 -0.000000 0.000000
    2 0.000000 500.000000 0.000000 0.000000 -0.000000 0.000000
    3 0.000000 500.000000 0.000000 0.000000 -0.000000 0.000000
    4 0.000000 500.000000 0.000000 0.000000 -0.000000 0.000000
    5 0.000000 500.000000 0.000000 0.000000 -0.000000 0.000000
    6 0.000000 500.000000 0.000000 0.000000 -0.000000 0.000000
    7 0.000000 500.000000 0.000000 0.000000 -0.000000 0.000000
    8 0.000000 500.000000 0.000000 0.000000 -0.000000 0.000000
    9 0.000000 500.000000 0.000000 0.000000 -0.000000 0.000000
    10 0.000000 500.000000 0.000000 0.000000 -0.000000 0.000000
    11 0.000000 500.000000 0.000000 0.000000 -0.000000 0.000000
    12 0.000000 500.000000 0.000000 0.000000 -0.000000 0.000000
    13 0.000000 500.000000 0.000000 0.000000 -0.000000 0.000000
    14 0.000000 500.000000 0.000000 0.000000 -0.000000 0.000000
    15 0.000000 500.000000 0.000000 0.000000 -0.000000 0.000000
    16 0.000000 500.000000 0.000000 0.000000 -0.000000 0.000000
    17 0.000000 500.000000 0.000000 0.000000 -0.000000 0.000000
    18 0.000000 500.000000 0.000000 0.000000 -0.000000 0.000000
    19 0.000000 500.000000 0.000000 0.000000 -0.000000 0.000000
    20 0.000000 500.000000 0.000000 0.000000 -0.000000 0.000000
    21 0.000000 500.000000 0.000000 0.000000 -0.000000 0.000000
    22 0.000000 500.000000 0.000000 0.000000 -0.000000 0.000000
    23 0.000000 500.000000 0.000000 0.000000 -0.000000 0.000000
    24 0.000000 500.000000 0.000000 0.000000 -0.000000 0.000000
    25 0.000000 500.000000 0.000000 0.000000 -0.000000 0.000000
    26 0.000000 500.000000 0.000000 0.000000 -0.000000 0.000000
    27 0.000000 500.000000 0.000000 0.000000 -0.000000 0.000000
    28 0.000000 500.000000 0.000000 0.000000 -0.000000 0.000000
    29 0.000000 500.000000 0.000000 0.000000 -0.000000 0.000000
    30 0.000000 500.000000 0.000000 0.000000 -0.000000 0.000000
    31 0.000000 500.000000 0.000000 0.000000 -0.000000 0.000000
    32 0.000000 500.000000 0.000000 0.000000 -0.000000 0.000000
    33 0.000000 500.000000 0.000000 0.000000 -0.000000 0.000000
    34 0.000000 500.000000 0.000000 0.000000 -0.000000 0.000000
    35 0.000000 500.000000 0.000000 0.000000 -0.000000 0.000000
    36 0.000000 500.000000 0.000000 0.000000 -0.000000 0.000000
    37 0.000000 500.000000 0.000000 0.000000 -0.000000 0.000000
    38 0.000000 500.000000 0.000000 0.000000 -0.000000 0.000000
    39 0.000000 500.000000 0.000000 0.000000 -0.000000 0.000000
    40 0.000000 500.000000 0.000000 0.000000 -0.000000 0.000000
    41 0.000000 500.000000 0.000000 0.000000 -0.000000 0.000000
    42 0.000000 500.000000 0.000000 0.000000 -0.000000 0.000000
    43 0.000000 500.000000 0.000000 0.000000 -0.000000 0.000000
    44 0.000000 500.000000 0.000000 0.000000 -0.000000 0.000000
    45 0.000000 500.000000 0.000000 0.000000 -0.000000 0.000000
    46 0.000000 500.000000 0.000000 0.000000 -0.000000 0.000000
    47 0.000000 500.000000 0.000000 0.000000 -0.000000 0.000000
    48 -2.069527 -3.333430 -22.039179 0.043781 0.024714 1.570707
    49 4.248777 0.410815 4.442343 -0.005882 1.526905 -1.618466
    50 -4.641472 0.171690 0.038425 0.000012 0.000029 0.000795
    51 -4.355368 1.782904 2.505167 0.471209 -0.002912 -0.005138
    52 -9.748767 1.090726 0.055637 0.000016 0.000059 0.001711
    53 6.053067 -8.736635 8.132437 1.262029 0.965791 -1.983127
    54 0.032725 -8.470075 5.365703 0.917612 -0.626978 -2.304489
    55 -5.806517 -0.928991 0.087227 0.000952 -0.022003 -0.629622
    56 -3.607045 -3.038924 9.958473 2.487213 0.644223 0.392453
    57 0.303615 -8.884172 -1.512310 -1.341573 -0.292407 -0.223451
    58 -3.764088 -0.502125 0.053115 0.009941 0.016408 0.546282
    59 -2.681755 -0.250410 0.034165 0.006509 0.012700 0.404040
    60 -6.311169 -0.756953 -1.121190 -0.017309 0.171278 0.697318
    61 -4.211215 -1.074324 0.076986 0.016411 0.021217 0.773521
    62 -4.344802 -1.172945 0.081639 0.017446 0.021795 0.806884
    63 -6.190625 -0.266078 -0.198255 0.003834 0.074800 0.723881
    64 -4.301446 -1.029439 0.076309 0.015946 0.020943 0.758327
    65 -3.892988 -0.775977 0.063728 0.013155 0.019083 0.663964
    66 -6.623144 -0.381884 0.866987 0.069944 0.082392 0.807064
    67 -4.771974 -1.658089 0.102337 0.022297 0.023947 0.956304
    68 -3.937551 -0.826489 0.065884 0.013722 0.019492 0.683609
    69 -7.032868 -0.251321 2.232885 0.202056 0.041753 0.900207
    70 -4.552859 -1.687438 0.101250 0.022562 0.024040 0.964209
    71 -4.854409 -1.921762 0.112157 0.024798 0.024737 1.030096
    72 -5.204117 -0.090942 1.239607 0.241112 -0.023599 -0.632053
    73 -3.219699 -8.846682 2.298334 0.177366 -1.380541 2.992474
    74 -3.921496 -0.696629 -0.442195 -0.475593 0.582962 -1.375081
    75 -4.194662 -4.062900 0.179222 0.020634 -0.042377 -1.449327
    76 -3.417223 -9.145593 4.124618 -2.164750 -0.011455 0.655767
    77 1.279210 -5.655241 12.452718 2.669832 0.165045 0.432275
    78 -3.440503 -0.346104 0.044683 0.007917 0.014350 0.465063
    79 -1.948483 -0.053974 0.020439 0.003116 0.007631 0.232297
    80 -3.076925 0.854365 1.146345 0.012098 -0.017090 0.055572
    81 -1.544202 -0.021193 -0.011638 -0.004759 0.006490 0.108475
    82 -1.956153 0.065733 0.104026 0.021234 -0.011388 0.214458
    83 -5.024127 0.564600 0.246211 -0.002072 -0.101618 0.590977
    84 -4.999363 -1.773897 0.108474 0.023419 0.024326 0.989621
    85 -5.223038 -2.239593 0.126564 0.027739 0.025415 1.115043
    86 -5.213896 0.053557 -0.730512 -0.053768 -0.103666 0.699378
    87 -4.830837 -1.733943 0.105497 0.023027 0.024198 0.978021
    88 -5.320914 -2.477322 0.135643 0.029869 0.025745 1.175683
    89 -5.117498 -0.300322 -1.600862 -0.079397 -0.011289 0.631412
    90 -4.348412 -1.444134 0.090965 0.020181 0.023114 0.892317
    91 -5.513030 -3.445137 0.170635 0.038100 0.025807 1.407785
    92 -5.415955 -4.231837 -0.704969 -0.214907 -0.040333 -1.447335
    93 -2.988518 -9.474865 -4.694159 0.000000 0.000000 -0.000000
    94 -0.042474 -3.591029 -0.924564 0.000000 -0.000000 0.000000
    95 -0.272662 1.954627 0.707806 0.000000 -0.000000 0.000000
    96 0.326769 1.949929 0.702248 0.000000 -0.000000 0.000000
    97 -0.266687 1.976085 1.334098 0.000000 -0.000000 0.000000
    98 0.332744 1.971387 1.328540 0.000000 -0.000000 0.000000
    99 -2.399790 -17.273188 2.691413 -0.000082 -0.011209 1.570742
    100 -2.405404 -11.916818 3.087259 -1.582724 0.349125 3.137458
    101 -2.699318 -16.157913 1.680758 0.011209 -0.000082 -0.000055
    102 -2.940401 -10.653466 -0.621820 0.321796 -0.000082 -0.000055
    103 0.000000 0.000000 0.000000 0.000000 -0.000000 0.000000
    104 0.000000 0.000000 0.000000 0.000000 -0.000000 0.000000
    105 0.000000 0.000000 0.000000 0.000000 -0.000000 0.000000
    106 0.000000 0.000000 0.000000 0.000000 -0.000000 0.000000
end
