version 1
nodes
  0 "v_weapon" -1
  1 "v_weapon.Bip01" 0
  2 "v_weapon.Bip01_Pelvis" 0
  3 "v_weapon.Bip01_Spine" 0
  4 "v_weapon.Bip01_Spine1" 0
  5 "v_weapon.Bip01_Spine2" 0
  6 "v_weapon.Bip01_Spine3" 0
  7 "v_weapon.Bip01_Neck" 0
  8 "v_weapon.Bip01_L_Clavicle" 0
  9 "v_weapon.Bip01_L_UpperArm" 0
  10 "v_weapon.Bip01_L_Forearm" 0
  11 "v_weapon.Bip01_L_Hand" 0
  12 "v_weapon.Bip01_L_ForeTwist" 0
  13 "v_weapon.Bip01_R_Clavicle" 0
  14 "v_weapon.Bip01_R_UpperArm" 0
  15 "v_weapon.Bip01_R_Forearm" 0
  16 "v_weapon.Bip01_R_Hand" 0
  17 "v_weapon.Bip01_R_ForeTwist" 0
  18 "v_weapon.Bip01_L_Finger0" 0
  19 "v_weapon.Bip01_L_Finger01" 0
  20 "v_weapon.Bip01_L_Finger02" 0
  21 "v_weapon.Bip01_L_Finger1" 0
  22 "v_weapon.Bip01_L_Finger11" 0
  23 "v_weapon.Bip01_L_Finger12" 0
  24 "v_weapon.Bip01_L_Finger2" 0
  25 "v_weapon.Bip01_L_Finger21" 0
  26 "v_weapon.Bip01_L_Finger22" 0
  27 "v_weapon.Bip01_L_Finger3" 0
  28 "v_weapon.Bip01_L_Finger31" 0
  29 "v_weapon.Bip01_L_Finger32" 0
  30 "v_weapon.Bip01_L_Finger4" 0
  31 "v_weapon.Bip01_L_Finger41" 0
  32 "v_weapon.Bip01_L_Finger42" 0
  33 "v_weapon.Bip01_R_Finger0" 0
  34 "v_weapon.Bip01_R_Finger01" 0
  35 "v_weapon.Bip01_R_Finger02" 0
  36 "v_weapon.Bip01_R_Finger1" 0
  37 "v_weapon.Bip01_R_Finger11" 0
  38 "v_weapon.Bip01_R_Finger12" 0
  39 "v_weapon.Bip01_R_Finger2" 0
  40 "v_weapon.Bip01_R_Finger21" 0
  41 "v_weapon.Bip01_R_Finger22" 0
  42 "v_weapon.Bip01_R_Finger3" 0
  43 "v_weapon.Bip01_R_Finger31" 0
  44 "v_weapon.Bip01_R_Finger32" 0
  45 "v_weapon.Bip01_R_Finger4" 0
  46 "v_weapon.Bip01_R_Finger41" 0
  47 "v_weapon.Bip01_R_Finger42" 0
  48 "FvARM-bone" 0
  49 "FvARM-bone Pelvis" 48
  50 "FvARM-bone Spine" 49
  51 "FvARM-bone Spine1" 50
  52 "FvARM-bone Neck" 51
  53 "FvARM-bone L Clavicle" 52
  54 "FvARM-bone L UpperArm" 53
  55 "FvARM-bone L ForeArm" 54
  56 "FvARM-bone L Hand" 55
  57 "FvARM-bone L Finger0" 56
  58 "FvARM-bone L Finger01" 57
  59 "FvARM-bone L Finger02" 58
  60 "FvARM-bone L Finger1" 56
  61 "FvARM-bone L Finger11" 60
  62 "FvARM-bone L Finger12" 61
  63 "FvARM-bone L Finger2" 56
  64 "FvARM-bone L Finger21" 63
  65 "FvARM-bone L Finger22" 64
  66 "FvARM-bone L Finger3" 56
  67 "FvARM-bone L Finger31" 66
  68 "FvARM-bone L Finger32" 67
  69 "FvARM-bone L Finger4" 56
  70 "FvARM-bone L Finger41" 69
  71 "FvARM-bone L Finger42" 70
  72 "FvARM-bone L ForeTwist" 54
  73 "FvARM-bone R Clavicle" 52
  74 "FvARM-bone R UpperArm" 73
  75 "FvARM-bone R ForeArm" 74
  76 "FvARM-bone R Hand" 75
  77 "FvARM-bone R Finger0" 76
  78 "FvARM-bone R Finger01" 77
  79 "FvARM-bone R Finger02" 78
  80 "FvARM-bone R Finger1" 76
  81 "FvARM-bone R Finger11" 80
  82 "FvARM-bone R Finger12" 81
  83 "FvARM-bone R Finger2" 76
  84 "FvARM-bone R Finger21" 83
  85 "FvARM-bone R Finger22" 84
  86 "FvARM-bone R Finger3" 76
  87 "FvARM-bone R Finger31" 86
  88 "FvARM-bone R Finger32" 87
  89 "FvARM-bone R Finger4" 76
  90 "FvARM-bone R Finger41" 89
  91 "FvARM-bone R Finger42" 90
  92 "FvARM-bone R ForeTwist" 74
  93 "FvARM-bone Prop1" 48
  94 "Dummy01" 93
  95 "Bone02" 94
  96 "Box001" 95
  97 "Box002" 95
  98 "Box003" 95
  99 "Box005" 95
  100 "Box006" 95
  101 "Box004" 95
  102 "Bone04" 94
  103 "Bone06" 94
  104 "v_weapon.flash" 94
  105 "v_weapon.shelleject" 94
  106 "v_weapon.stattrack" 94
  107 "v_weapon.uid" 94
end
skeleton
  time 0
    0 0.000000 0.000000 0.000000 0.000000 0.000000 0.000000
    1 0.000000 500.000000 0.000000 0.000000 -0.000000 0.000000
    2 0.000000 500.000000 0.000000 0.000000 -0.000000 0.000000
    3 0.000000 500.000000 0.000000 0.000000 -0.000000 0.000000
    4 0.000000 500.000000 0.000000 0.000000 -0.000000 0.000000
    5 0.000000 500.000000 0.000000 0.000000 -0.000000 0.000000
    6 0.000000 500.000000 0.000000 0.000000 -0.000000 0.000000
    7 0.000000 500.000000 0.000000 0.000000 -0.000000 0.000000
    8 0.000000 500.000000 0.000000 0.000000 -0.000000 0.000000
    9 0.000000 500.000000 0.000000 0.000000 -0.000000 0.000000
    10 0.000000 500.000000 0.000000 0.000000 -0.000000 0.000000
    11 0.000000 500.000000 0.000000 0.000000 -0.000000 0.000000
    12 0.000000 500.000000 0.000000 0.000000 -0.000000 0.000000
    13 0.000000 500.000000 0.000000 0.000000 -0.000000 0.000000
    14 0.000000 500.000000 0.000000 0.000000 -0.000000 0.000000
    15 0.000000 500.000000 0.000000 0.000000 -0.000000 0.000000
    16 0.000000 500.000000 0.000000 0.000000 -0.000000 0.000000
    17 0.000000 500.000000 0.000000 0.000000 -0.000000 0.000000
    18 0.000000 500.000000 0.000000 0.000000 -0.000000 0.000000
    19 0.000000 500.000000 0.000000 0.000000 -0.000000 0.000000
    20 0.000000 500.000000 0.000000 0.000000 -0.000000 0.000000
    21 0.000000 500.000000 0.000000 0.000000 -0.000000 0.000000
    22 0.000000 500.000000 0.000000 0.000000 -0.000000 0.000000
    23 0.000000 500.000000 0.000000 0.000000 -0.000000 0.000000
    24 0.000000 500.000000 0.000000 0.000000 -0.000000 0.000000
    25 0.000000 500.000000 0.000000 0.000000 -0.000000 0.000000
    26 0.000000 500.000000 0.000000 0.000000 -0.000000 0.000000
    27 0.000000 500.000000 0.000000 0.000000 -0.000000 0.000000
    28 0.000000 500.000000 0.000000 0.000000 -0.000000 0.000000
    29 0.000000 500.000000 0.000000 0.000000 -0.000000 0.000000
    30 0.000000 500.000000 0.000000 0.000000 -0.000000 0.000000
    31 0.000000 500.000000 0.000000 0.000000 -0.000000 0.000000
    32 0.000000 500.000000 0.000000 0.000000 -0.000000 0.000000
    33 0.000000 500.000000 0.000000 0.000000 -0.000000 0.000000
    34 0.000000 500.000000 0.000000 0.000000 -0.000000 0.000000
    35 0.000000 500.000000 0.000000 0.000000 -0.000000 0.000000
    36 0.000000 500.000000 0.000000 0.000000 -0.000000 0.000000
    37 0.000000 500.000000 0.000000 0.000000 -0.000000 0.000000
    38 0.000000 500.000000 0.000000 0.000000 -0.000000 0.000000
    39 0.000000 500.000000 0.000000 0.000000 -0.000000 0.000000
    40 0.000000 500.000000 0.000000 0.000000 -0.000000 0.000000
    41 0.000000 500.000000 0.000000 0.000000 -0.000000 0.000000
    42 0.000000 500.000000 0.000000 0.000000 -0.000000 0.000000
    43 0.000000 500.000000 0.000000 0.000000 -0.000000 0.000000
    44 0.000000 500.000000 0.000000 0.000000 -0.000000 0.000000
    45 0.000000 500.000000 0.000000 0.000000 -0.000000 0.000000
    46 0.000000 500.000000 0.000000 0.000000 -0.000000 0.000000
    47 0.000000 500.000000 0.000000 0.000000 -0.000000 0.000000
    48 -16.070989 -6.709452 -19.596239 0.092278 -0.023794 1.567426
    49 11.938599 -10.746612 0.711347 -0.563368 1.459520 -2.163298
    50 -4.141211 0.112325 0.237205 0.000050 0.000029 0.000794
    51 -3.530098 0.044573 6.769476 0.470377 0.007022 -0.026235
    52 -8.706111 0.886990 0.476285 0.000099 0.000058 0.001706
    53 7.069898 -27.881778 10.001831 1.117591 0.934730 -2.118756
    54 5.752989 -17.680496 10.907620 0.778559 -0.379548 -2.000365
    55 3.543803 -8.518189 0.085228 -0.033314 -0.058823 -1.048118
    56 2.738136 -22.672914 3.159423 -2.857886 0.135646 0.766443
    57 0.604197 -20.726128 -10.019451 -1.804712 -0.086606 -0.018614
    58 -2.170452 0.087521 0.123311 0.003849 0.002098 0.064950
    59 3.009980 -1.095208 -0.137687 -0.015141 -0.012137 -0.288360
    60 2.740227 -1.159744 -0.537285 0.013057 -0.070108 -0.400976
    61 -1.671479 0.076303 0.094658 0.003145 0.001738 0.053236
    62 -3.178662 0.114999 0.181042 0.009742 0.004721 0.160557
    63 -2.698561 0.802040 0.092740 0.007788 -0.025633 0.004464
    64 -1.467806 0.045667 0.083854 0.001724 0.000980 0.029369
    65 -2.685799 0.119478 0.152207 0.007362 0.003743 0.122431
    66 -2.906987 0.736820 0.623257 0.007418 0.070272 0.001414
    67 -1.978831 0.097278 0.111826 0.004471 0.002407 0.075246
    68 -3.784413 0.085674 0.217295 0.012463 0.005713 0.203485
    69 -3.208888 0.679896 1.061349 0.005229 0.223163 -0.003846
    70 -2.278614 0.117939 0.128564 0.006741 0.003470 0.112378
    71 -3.025915 0.116220 0.172111 0.009579 0.004657 0.157970
    72 3.452214 -8.565733 8.081082 0.545556 -0.049137 -1.079910
    73 -3.350010 -27.453904 3.507055 0.434262 -1.472151 2.744443
    74 5.649690 -5.524412 5.911807 0.574761 0.742458 -0.644031
    75 0.732539 -23.331391 0.755663 0.007434 -0.120002 -2.202134
    76 2.122206 -20.327993 -3.244485 -2.287959 -0.310685 0.659477
    77 -1.374485 -9.262422 18.086601 1.555088 0.107883 0.601462
    78 -8.754279 -1.086890 0.546627 0.035635 0.009295 0.552756
    79 -12.998025 -4.541327 0.911779 0.063282 0.002722 0.977088
    80 -2.043255 0.606818 1.114990 -0.011730 -0.096859 -0.012693
    81 -11.361353 -2.877730 0.759615 0.052255 0.006851 0.802390
    82 -11.223621 -2.753091 0.747336 0.051304 0.007107 0.787787
    83 -9.334298 0.401631 3.925049 0.206089 -0.433214 0.484312
    84 -14.082125 -5.596718 1.010979 0.069075 -0.000400 1.074618
    85 -14.466044 -6.263944 1.056148 0.072379 -0.002528 1.132835
    86 -12.941251 -2.880178 -1.897054 -0.218542 -0.448381 1.032082
    87 -13.907586 -5.525063 0.998368 0.068707 -0.000179 1.068249
    88 -14.652028 -6.603405 1.078586 0.073966 -0.003650 1.161618
    89 -16.243864 -9.844277 -4.324760 -0.322627 -0.301606 1.624438
    90 -9.225027 -1.593904 0.591369 0.041175 0.008949 0.635055
    91 -9.886348 -1.911565 0.640723 0.044227 0.008562 0.680661
    92 -0.258639 -22.839502 -2.232331 -0.221408 -0.119116 -2.188844
    93 -1.125188 -12.576318 -0.282795 -1.567407 0.055777 0.060629
    94 -8.733825 -2.142768 -0.225171 -0.000002 -0.000002 0.000000
    95 14.935097 -0.802361 -0.822901 0.001789 0.001016 0.030483
    96 2.215409 -11.317225 1.307459 -0.548801 1.458758 -2.175266
    97 3.244565 -11.142434 0.450473 -0.546676 1.458645 -2.177194
    98 -7.299830 -11.212999 4.990921 -3.001124 0.963725 1.632589
    99 -5.319552 -11.666324 5.222851 -3.022048 0.789986 1.606450
    100 -5.342483 -15.355701 6.643837 -3.041200 -0.603433 1.508353
    101 -7.344716 -15.620144 6.382832 -3.031671 -0.777527 1.492267
    102 8.947678 -2.401023 -0.374521 -0.001519 -0.000920 -0.026310
    103 -13.210305 -6.138274 0.950759 0.092278 -0.023794 1.567424
    104 -16.202722 -14.204305 4.478217 1.510276 0.063891 -0.035615
    105 0.412526 -15.037654 2.690875 -1.411442 -1.156554 1.389450
    106 -0.425136 -14.174111 4.007698 -0.813815 1.482820 -2.417947
    107 4.421607 -14.848300 3.870502 -0.813815 1.482820 -2.417947
  time 1
    0 0.000000 0.000000 0.000000 0.000000 0.000000 0.000000
    1 0.000000 500.000000 0.000000 0.000000 -0.000000 0.000000
    2 0.000000 500.000000 0.000000 0.000000 -0.000000 0.000000
    3 0.000000 500.000000 0.000000 0.000000 -0.000000 0.000000
    4 0.000000 500.000000 0.000000 0.000000 -0.000000 0.000000
    5 0.000000 500.000000 0.000000 0.000000 -0.000000 0.000000
    6 0.000000 500.000000 0.000000 0.000000 -0.000000 0.000000
    7 0.000000 500.000000 0.000000 0.000000 -0.000000 0.000000
    8 0.000000 500.000000 0.000000 0.000000 -0.000000 0.000000
    9 0.000000 500.000000 0.000000 0.000000 -0.000000 0.000000
    10 0.000000 500.000000 0.000000 0.000000 -0.000000 0.000000
    11 0.000000 500.000000 0.000000 0.000000 -0.000000 0.000000
    12 0.000000 500.000000 0.000000 0.000000 -0.000000 0.000000
    13 0.000000 500.000000 0.000000 0.000000 -0.000000 0.000000
    14 0.000000 500.000000 0.000000 0.000000 -0.000000 0.000000
    15 0.000000 500.000000 0.000000 0.000000 -0.000000 0.000000
    16 0.000000 500.000000 0.000000 0.000000 -0.000000 0.000000
    17 0.000000 500.000000 0.000000 0.000000 -0.000000 0.000000
    18 0.000000 500.000000 0.000000 0.000000 -0.000000 0.000000
    19 0.000000 500.000000 0.000000 0.000000 -0.000000 0.000000
    20 0.000000 500.000000 0.000000 0.000000 -0.000000 0.000000
    21 0.000000 500.000000 0.000000 0.000000 -0.000000 0.000000
    22 0.000000 500.000000 0.000000 0.000000 -0.000000 0.000000
    23 0.000000 500.000000 0.000000 0.000000 -0.000000 0.000000
    24 0.000000 500.000000 0.000000 0.000000 -0.000000 0.000000
    25 0.000000 500.000000 0.000000 0.000000 -0.000000 0.000000
    26 0.000000 500.000000 0.000000 0.000000 -0.000000 0.000000
    27 0.000000 500.000000 0.000000 0.000000 -0.000000 0.000000
    28 0.000000 500.000000 0.000000 0.000000 -0.000000 0.000000
    29 0.000000 500.000000 0.000000 0.000000 -0.000000 0.000000
    30 0.000000 500.000000 0.000000 0.000000 -0.000000 0.000000
    31 0.000000 500.000000 0.000000 0.000000 -0.000000 0.000000
    32 0.000000 500.000000 0.000000 0.000000 -0.000000 0.000000
    33 0.000000 500.000000 0.000000 0.000000 -0.000000 0.000000
    34 0.000000 500.000000 0.000000 0.000000 -0.000000 0.000000
    35 0.000000 500.000000 0.000000 0.000000 -0.000000 0.000000
    36 0.000000 500.000000 0.000000 0.000000 -0.000000 0.000000
    37 0.000000 500.000000 0.000000 0.000000 -0.000000 0.000000
    38 0.000000 500.000000 0.000000 0.000000 -0.000000 0.000000
    39 0.000000 500.000000 0.000000 0.000000 -0.000000 0.000000
    40 0.000000 500.000000 0.000000 0.000000 -0.000000 0.000000
    41 0.000000 500.000000 0.000000 0.000000 -0.000000 0.000000
    42 0.000000 500.000000 0.000000 0.000000 -0.000000 0.000000
    43 0.000000 500.000000 0.000000 0.000000 -0.000000 0.000000
    44 0.000000 500.000000 0.000000 0.000000 -0.000000 0.000000
    45 0.000000 500.000000 0.000000 0.000000 -0.000000 0.000000
    46 0.000000 500.000000 0.000000 0.000000 -0.000000 0.000000
    47 0.000000 500.000000 0.000000 0.000000 -0.000000 0.000000
    48 -16.071701 -6.544077 -19.601856 0.092278 -0.023794 1.567426
    49 11.938599 -10.746612 0.711347 -0.563368 1.459520 -2.163298
    50 -4.141211 0.112325 0.237205 0.000050 0.000029 0.000794
    51 -3.530098 0.044573 6.769476 0.470377 0.007022 -0.026235
    52 -8.706124 0.886992 0.476286 0.000099 0.000058 0.001707
    53 7.069898 -27.881778 10.001831 1.117591 0.934730 -2.118756
    54 5.852796 -17.653629 10.761044 0.767786 -0.401403 -2.003615
    55 4.161220 -10.404690 0.113847 -0.032536 -0.068446 -1.191301
    56 3.707643 -21.355920 3.118260 -2.858094 0.164053 0.883613
    57 0.604197 -20.726127 -10.019451 -1.804712 -0.086606 -0.018614
    58 -2.170452 0.087521 0.123311 0.003849 0.002098 0.064950
    59 3.009980 -1.095208 -0.137687 -0.015141 -0.012137 -0.288360
    60 2.740227 -1.159744 -0.537285 0.013057 -0.070108 -0.400976
    61 -1.671479 0.076303 0.094658 0.003145 0.001738 0.053236
    62 -3.178662 0.114999 0.181042 0.009742 0.004721 0.160557
    63 -2.698562 0.802040 0.092740 0.007788 -0.025633 0.004464
    64 -1.467793 0.045666 0.083853 0.001723 0.000980 0.029368
    65 -2.685812 0.119478 0.152208 0.007362 0.003743 0.122432
    66 -2.906987 0.736820 0.623258 0.007418 0.070272 0.001414
    67 -1.978831 0.097279 0.111826 0.004471 0.002407 0.075246
    68 -3.784414 0.085674 0.217296 0.012463 0.005713 0.203485
    69 -3.208888 0.679897 1.061349 0.005229 0.223163 -0.003846
    70 -2.278614 0.117939 0.128564 0.006741 0.003470 0.112378
    71 -3.025915 0.116220 0.172111 0.009579 0.004657 0.157970
    72 4.096974 -10.352733 7.878670 0.529599 -0.057810 -1.222368
    73 -3.350010 -27.453904 3.507055 0.434262 -1.472151 2.744443
    74 5.649690 -5.524412 5.911807 0.574761 0.742458 -0.644031
    75 0.732539 -23.331391 0.755663 0.007434 -0.120002 -2.202134
    76 2.122199 -20.328001 -3.244489 -2.287959 -0.310684 0.659476
    77 -1.374485 -9.262422 18.086601 1.555088 0.107883 0.601462
    78 -8.754279 -1.086889 0.546627 0.035635 0.009295 0.552756
    79 -12.998025 -4.541327 0.911779 0.063282 0.002722 0.977088
    80 -2.043255 0.606818 1.114990 -0.011730 -0.096859 -0.012693
    81 -11.361353 -2.877730 0.759615 0.052255 0.006851 0.802390
    82 -11.223621 -2.753091 0.747336 0.051304 0.007107 0.787787
    83 -9.334298 0.401632 3.925049 0.206089 -0.433214 0.484312
    84 -14.082125 -5.596718 1.010979 0.069075 -0.000400 1.074618
    85 -14.466044 -6.263944 1.056148 0.072379 -0.002528 1.132835
    86 -12.941251 -2.880178 -1.897054 -0.218542 -0.448381 1.032082
    87 -13.907585 -5.525063 0.998368 0.068707 -0.000179 1.068249
    88 -14.652028 -6.603405 1.078586 0.073966 -0.003650 1.161618
    89 -16.243864 -9.844277 -4.324760 -0.322627 -0.301606 1.624438
    90 -9.225027 -1.593904 0.591369 0.041175 0.008949 0.635055
    91 -9.886348 -1.911565 0.640723 0.044227 0.008562 0.680661
    92 -0.258639 -22.839502 -2.232331 -0.221408 -0.119116 -2.188844
    93 -1.125188 -12.576318 -0.282795 -1.567407 0.055777 0.060629
    94 -8.201724 -2.299839 -0.250764 0.001273 0.000729 0.021768
    95 14.935097 -0.802360 -0.822901 0.001789 0.001016 0.030483
    96 2.415397 -11.322066 1.295988 -0.548801 1.458758 -2.175266
    97 3.244565 -11.142434 0.450473 -0.546676 1.458645 -2.177194
    98 -7.299831 -11.212997 4.990921 -3.001124 0.963725 1.632589
    99 -5.319552 -11.666323 5.222851 -3.022048 0.789986 1.606450
    100 -5.342483 -15.355700 6.643837 -3.041200 -0.603433 1.508353
    101 -7.344716 -15.620143 6.382832 -3.031671 -0.777527 1.492267
    102 8.947679 -2.401023 -0.374521 -0.001519 -0.000920 -0.026310
    103 -13.210306 -6.138274 0.950759 0.092278 -0.023794 1.567424
    104 -16.202722 -14.204305 4.478217 1.510276 0.063891 -0.035615
    105 0.412526 -15.037654 2.690875 -1.411442 -1.156554 1.389450
    106 -0.425136 -14.174111 4.007698 -0.813815 1.482820 -2.417947
    107 4.421607 -14.848300 3.870502 -0.813815 1.482820 -2.417947
  time 2
    0 0.000000 0.000000 0.000000 0.000000 0.000000 0.000000
    1 0.000000 500.000000 0.000000 0.000000 -0.000000 0.000000
    2 0.000000 500.000000 0.000000 0.000000 -0.000000 0.000000
    3 0.000000 500.000000 0.000000 0.000000 -0.000000 0.000000
    4 0.000000 500.000000 0.000000 0.000000 -0.000000 0.000000
    5 0.000000 500.000000 0.000000 0.000000 -0.000000 0.000000
    6 0.000000 500.000000 0.000000 0.000000 -0.000000 0.000000
    7 0.000000 500.000000 0.000000 0.000000 -0.000000 0.000000
    8 0.000000 500.000000 0.000000 0.000000 -0.000000 0.000000
    9 0.000000 500.000000 0.000000 0.000000 -0.000000 0.000000
    10 0.000000 500.000000 0.000000 0.000000 -0.000000 0.000000
    11 0.000000 500.000000 0.000000 0.000000 -0.000000 0.000000
    12 0.000000 500.000000 0.000000 0.000000 -0.000000 0.000000
    13 0.000000 500.000000 0.000000 0.000000 -0.000000 0.000000
    14 0.000000 500.000000 0.000000 0.000000 -0.000000 0.000000
    15 0.000000 500.000000 0.000000 0.000000 -0.000000 0.000000
    16 0.000000 500.000000 0.000000 0.000000 -0.000000 0.000000
    17 0.000000 500.000000 0.000000 0.000000 -0.000000 0.000000
    18 0.000000 500.000000 0.000000 0.000000 -0.000000 0.000000
    19 0.000000 500.000000 0.000000 0.000000 -0.000000 0.000000
    20 0.000000 500.000000 0.000000 0.000000 -0.000000 0.000000
    21 0.000000 500.000000 0.000000 0.000000 -0.000000 0.000000
    22 0.000000 500.000000 0.000000 0.000000 -0.000000 0.000000
    23 0.000000 500.000000 0.000000 0.000000 -0.000000 0.000000
    24 0.000000 500.000000 0.000000 0.000000 -0.000000 0.000000
    25 0.000000 500.000000 0.000000 0.000000 -0.000000 0.000000
    26 0.000000 500.000000 0.000000 0.000000 -0.000000 0.000000
    27 0.000000 500.000000 0.000000 0.000000 -0.000000 0.000000
    28 0.000000 500.000000 0.000000 0.000000 -0.000000 0.000000
    29 0.000000 500.000000 0.000000 0.000000 -0.000000 0.000000
    30 0.000000 500.000000 0.000000 0.000000 -0.000000 0.000000
    31 0.000000 500.000000 0.000000 0.000000 -0.000000 0.000000
    32 0.000000 500.000000 0.000000 0.000000 -0.000000 0.000000
    33 0.000000 500.000000 0.000000 0.000000 -0.000000 0.000000
    34 0.000000 500.000000 0.000000 0.000000 -0.000000 0.000000
    35 0.000000 500.000000 0.000000 0.000000 -0.000000 0.000000
    36 0.000000 500.000000 0.000000 0.000000 -0.000000 0.000000
    37 0.000000 500.000000 0.000000 0.000000 -0.000000 0.000000
    38 0.000000 500.000000 0.000000 0.000000 -0.000000 0.000000
    39 0.000000 500.000000 0.000000 0.000000 -0.000000 0.000000
    40 0.000000 500.000000 0.000000 0.000000 -0.000000 0.000000
    41 0.000000 500.000000 0.000000 0.000000 -0.000000 0.000000
    42 0.000000 500.000000 0.000000 0.000000 -0.000000 0.000000
    43 0.000000 500.000000 0.000000 0.000000 -0.000000 0.000000
    44 0.000000 500.000000 0.000000 0.000000 -0.000000 0.000000
    45 0.000000 500.000000 0.000000 0.000000 -0.000000 0.000000
    46 0.000000 500.000000 0.000000 0.000000 -0.000000 0.000000
    47 0.000000 500.000000 0.000000 0.000000 -0.000000 0.000000
    48 -16.072414 -6.378701 -19.607473 0.092278 -0.023794 1.567426
    49 11.938599 -10.746612 0.711347 -0.563368 1.459520 -2.163298
    50 -4.141211 0.112325 0.237205 0.000050 0.000029 0.000794
    51 -3.530098 0.044573 6.769476 0.470377 0.007022 -0.026235
    52 -8.706136 0.886994 0.476287 0.000099 0.000058 0.001708
    53 7.069898 -27.881778 10.001831 1.117591 0.934730 -2.118756
    54 5.950107 -17.629803 10.612274 0.756987 -0.423289 -2.006638
    55 4.503059 -12.359645 0.160843 -0.030389 -0.077860 -1.334592
    56 4.515356 -19.936009 3.031275 -2.854918 0.192288 1.001377
    57 0.604197 -20.726126 -10.019451 -1.804712 -0.086606 -0.018614
    58 -2.170452 0.087521 0.123311 0.003849 0.002098 0.064950
    59 3.009980 -1.095208 -0.137687 -0.015141 -0.012137 -0.288360
    60 2.740227 -1.159744 -0.537285 0.013057 -0.070108 -0.400976
    61 -1.671479 0.076303 0.094658 0.003145 0.001738 0.053236
    62 -3.178662 0.114999 0.181042 0.009742 0.004721 0.160557
    63 -2.698562 0.802041 0.092740 0.007788 -0.025633 0.004464
    64 -1.467781 0.045665 0.083852 0.001723 0.000980 0.029367
    65 -2.685826 0.119478 0.152209 0.007362 0.003743 0.122433
    66 -2.906987 0.736820 0.623259 0.007418 0.070272 0.001414
    67 -1.978831 0.097280 0.111826 0.004471 0.002407 0.075246
    68 -3.784415 0.085674 0.217296 0.012463 0.005713 0.203485
    69 -3.208888 0.679898 1.061349 0.005229 0.223163 -0.003846
    70 -2.278614 0.117939 0.128564 0.006741 0.003470 0.112378
    71 -3.025915 0.116220 0.172111 0.009579 0.004657 0.157970
    72 4.477596 -12.216108 7.696968 0.515027 -0.068656 -1.364758
    73 -3.350010 -27.453904 3.507055 0.434262 -1.472151 2.744443
    74 5.649690 -5.524412 5.911807 0.574761 0.742458 -0.644031
    75 0.732539 -23.331391 0.755663 0.007434 -0.120002 -2.202134
    76 2.122191 -20.328009 -3.244493 -2.287958 -0.310684 0.659475
    77 -1.374485 -9.262422 18.086601 1.555088 0.107883 0.601462
    78 -8.754279 -1.086889 0.546627 0.035635 0.009295 0.552756
    79 -12.998025 -4.541327 0.911779 0.063282 0.002722 0.977088
    80 -2.043256 0.606818 1.114990 -0.011730 -0.096859 -0.012693
    81 -11.361353 -2.877730 0.759615 0.052255 0.006851 0.802390
    82 -11.223621 -2.753091 0.747336 0.051304 0.007107 0.787787
    83 -9.334298 0.401632 3.925049 0.206089 -0.433214 0.484312
    84 -14.082125 -5.596718 1.010979 0.069075 -0.000400 1.074618
    85 -14.466044 -6.263944 1.056148 0.072379 -0.002528 1.132835
    86 -12.941251 -2.880178 -1.897054 -0.218542 -0.448381 1.032082
    87 -13.907584 -5.525063 0.998368 0.068707 -0.000179 1.068249
    88 -14.652028 -6.603405 1.078586 0.073966 -0.003650 1.161618
    89 -16.243864 -9.844277 -4.324760 -0.322627 -0.301606 1.624438
    90 -9.225027 -1.593904 0.591369 0.041175 0.008949 0.635055
    91 -9.886348 -1.911565 0.640723 0.044227 0.008562 0.680661
    92 -0.258639 -22.839502 -2.232331 -0.221408 -0.119116 -2.188844
    93 -1.125188 -12.576318 -0.282795 -1.567407 0.055777 0.060629
    94 -7.670348 -2.463457 -0.276090 0.002563 0.001432 0.043537
    95 14.935097 -0.802359 -0.822901 0.001789 0.001016 0.030483
    96 2.615384 -11.326907 1.284516 -0.548801 1.458758 -2.175266
    97 3.244564 -11.142434 0.450473 -0.546676 1.458645 -2.177194
    98 -7.299831 -11.212995 4.990921 -3.001124 0.963725 1.632589
    99 -5.319552 -11.666322 5.222851 -3.022048 0.789986 1.606450
    100 -5.342483 -15.355700 6.643837 -3.041200 -0.603433 1.508353
    101 -7.344716 -15.620142 6.382832 -3.031671 -0.777527 1.492267
    102 8.947679 -2.401023 -0.374521 -0.001519 -0.000920 -0.026310
    103 -13.210306 -6.138274 0.950759 0.092278 -0.023794 1.567424
    104 -16.202722 -14.204305 4.478217 1.510276 0.063891 -0.035615
    105 0.412526 -15.037654 2.690875 -1.411442 -1.156554 1.389450
    106 -0.425136 -14.174111 4.007698 -0.813815 1.482820 -2.417947
    107 4.421607 -14.848300 3.870502 -0.813815 1.482820 -2.417947
  time 3
    0 0.000000 0.000000 0.000000 0.000000 0.000000 0.000000
    1 0.000000 500.000000 0.000000 0.000000 -0.000000 0.000000
    2 0.000000 500.000000 0.000000 0.000000 -0.000000 0.000000
    3 0.000000 500.000000 0.000000 0.000000 -0.000000 0.000000
    4 0.000000 500.000000 0.000000 0.000000 -0.000000 0.000000
    5 0.000000 500.000000 0.000000 0.000000 -0.000000 0.000000
    6 0.000000 500.000000 0.000000 0.000000 -0.000000 0.000000
    7 0.000000 500.000000 0.000000 0.000000 -0.000000 0.000000
    8 0.000000 500.000000 0.000000 0.000000 -0.000000 0.000000
    9 0.000000 500.000000 0.000000 0.000000 -0.000000 0.000000
    10 0.000000 500.000000 0.000000 0.000000 -0.000000 0.000000
    11 0.000000 500.000000 0.000000 0.000000 -0.000000 0.000000
    12 0.000000 500.000000 0.000000 0.000000 -0.000000 0.000000
    13 0.000000 500.000000 0.000000 0.000000 -0.000000 0.000000
    14 0.000000 500.000000 0.000000 0.000000 -0.000000 0.000000
    15 0.000000 500.000000 0.000000 0.000000 -0.000000 0.000000
    16 0.000000 500.000000 0.000000 0.000000 -0.000000 0.000000
    17 0.000000 500.000000 0.000000 0.000000 -0.000000 0.000000
    18 0.000000 500.000000 0.000000 0.000000 -0.000000 0.000000
    19 0.000000 500.000000 0.000000 0.000000 -0.000000 0.000000
    20 0.000000 500.000000 0.000000 0.000000 -0.000000 0.000000
    21 0.000000 500.000000 0.000000 0.000000 -0.000000 0.000000
    22 0.000000 500.000000 0.000000 0.000000 -0.000000 0.000000
    23 0.000000 500.000000 0.000000 0.000000 -0.000000 0.000000
    24 0.000000 500.000000 0.000000 0.000000 -0.000000 0.000000
    25 0.000000 500.000000 0.000000 0.000000 -0.000000 0.000000
    26 0.000000 500.000000 0.000000 0.000000 -0.000000 0.000000
    27 0.000000 500.000000 0.000000 0.000000 -0.000000 0.000000
    28 0.000000 500.000000 0.000000 0.000000 -0.000000 0.000000
    29 0.000000 500.000000 0.000000 0.000000 -0.000000 0.000000
    30 0.000000 500.000000 0.000000 0.000000 -0.000000 0.000000
    31 0.000000 500.000000 0.000000 0.000000 -0.000000 0.000000
    32 0.000000 500.000000 0.000000 0.000000 -0.000000 0.000000
    33 0.000000 500.000000 0.000000 0.000000 -0.000000 0.000000
    34 0.000000 500.000000 0.000000 0.000000 -0.000000 0.000000
    35 0.000000 500.000000 0.000000 0.000000 -0.000000 0.000000
    36 0.000000 500.000000 0.000000 0.000000 -0.000000 0.000000
    37 0.000000 500.000000 0.000000 0.000000 -0.000000 0.000000
    38 0.000000 500.000000 0.000000 0.000000 -0.000000 0.000000
    39 0.000000 500.000000 0.000000 0.000000 -0.000000 0.000000
    40 0.000000 500.000000 0.000000 0.000000 -0.000000 0.000000
    41 0.000000 500.000000 0.000000 0.000000 -0.000000 0.000000
    42 0.000000 500.000000 0.000000 0.000000 -0.000000 0.000000
    43 0.000000 500.000000 0.000000 0.000000 -0.000000 0.000000
    44 0.000000 500.000000 0.000000 0.000000 -0.000000 0.000000
    45 0.000000 500.000000 0.000000 0.000000 -0.000000 0.000000
    46 0.000000 500.000000 0.000000 0.000000 -0.000000 0.000000
    47 0.000000 500.000000 0.000000 0.000000 -0.000000 0.000000
    48 -16.073708 -6.078479 -19.617670 0.092278 -0.023794 1.567426
    49 11.938599 -10.746612 0.711347 -0.563368 1.459520 -2.163298
    50 -4.141211 0.112325 0.237205 0.000050 0.000029 0.000794
    51 -3.530098 0.044573 6.769476 0.470377 0.007022 -0.026235
    52 -8.706128 0.886993 0.476286 0.000099 0.000058 0.001707
    53 7.069898 -27.881778 10.001831 1.117591 0.934730 -2.118756
    54 5.841925 -17.730670 10.734457 0.765703 -0.404016 -2.010393
    55 4.414869 -11.667146 0.142281 -0.031298 -0.074587 -1.284210
    56 4.319964 -20.321485 3.096609 -2.857913 0.176522 0.969384
    57 0.604189 -20.726127 -10.019453 -1.804712 -0.086605 -0.018614
    58 -2.170452 0.087521 0.123311 0.003849 0.002098 0.064950
    59 3.009980 -1.095208 -0.137687 -0.015141 -0.012137 -0.288360
    60 2.740227 -1.159744 -0.537285 0.013057 -0.070108 -0.400976
    61 -1.671479 0.076303 0.094658 0.003145 0.001738 0.053236
    62 -3.178662 0.114999 0.181042 0.009742 0.004721 0.160557
    63 -2.698562 0.802041 0.092740 0.007788 -0.025633 0.004464
    64 -1.467779 0.045664 0.083852 0.001723 0.000980 0.029367
    65 -2.685828 0.119478 0.152209 0.007362 0.003743 0.122433
    66 -2.906987 0.736821 0.623259 0.007418 0.070272 0.001414
    67 -1.978830 0.097280 0.111826 0.004471 0.002407 0.075246
    68 -3.784414 0.085674 0.217296 0.012463 0.005713 0.203485
    69 -3.208889 0.679898 1.061349 0.005229 0.223163 -0.003846
    70 -2.278614 0.117939 0.128564 0.006741 0.003470 0.112378
    71 -3.025914 0.116220 0.172111 0.009579 0.004657 0.157970
    72 4.371820 -11.553616 7.767023 0.520587 -0.064960 -1.314717
    73 -3.350010 -27.453904 3.507055 0.434262 -1.472151 2.744443
    74 5.649690 -5.524412 5.911807 0.574761 0.742458 -0.644031
    75 0.732539 -23.331391 0.755663 0.007434 -0.120002 -2.202134
    76 2.122196 -20.328004 -3.244491 -2.287959 -0.310684 0.659475
    77 -1.374485 -9.262422 18.086601 1.555088 0.107883 0.601462
    78 -8.754279 -1.086888 0.546627 0.035635 0.009295 0.552756
    79 -12.998025 -4.541327 0.911779 0.063282 0.002722 0.977088
    80 -2.043256 0.606818 1.114990 -0.011730 -0.096859 -0.012693
    81 -11.361353 -2.877730 0.759615 0.052255 0.006851 0.802390
    82 -11.223621 -2.753091 0.747336 0.051304 0.007107 0.787787
    83 -9.334298 0.401633 3.925049 0.206089 -0.433214 0.484312
    84 -14.082125 -5.596718 1.010979 0.069075 -0.000400 1.074618
    85 -14.466044 -6.263944 1.056148 0.072379 -0.002528 1.132835
    86 -12.941250 -2.880178 -1.897054 -0.218542 -0.448381 1.032082
    87 -13.907585 -5.525063 0.998369 0.068707 -0.000179 1.068249
    88 -14.652028 -6.603405 1.078586 0.073966 -0.003650 1.161618
    89 -16.243864 -9.844277 -4.324760 -0.322627 -0.301606 1.624438
    90 -9.225027 -1.593904 0.591369 0.041175 0.008949 0.635055
    91 -9.886348 -1.911565 0.640723 0.044227 0.008562 0.680661
    92 -0.258639 -22.839502 -2.232331 -0.221408 -0.119116 -2.188844
    93 -1.125188 -12.576318 -0.282795 -1.567407 0.055777 0.060629
    94 -7.848437 -2.558612 -0.262470 0.002191 0.001233 0.037289
    95 14.935097 -0.802358 -0.822901 0.001789 0.001016 0.030483
    96 3.137892 -11.339557 1.254546 -0.548801 1.458758 -2.175266
    97 3.244564 -11.142434 0.450474 -0.546676 1.458645 -2.177194
    98 -7.299831 -11.212996 4.990921 -3.001124 0.963725 1.632589
    99 -5.319552 -11.666322 5.222851 -3.022048 0.789986 1.606450
    100 -5.342483 -15.355700 6.643837 -3.041200 -0.603433 1.508353
    101 -7.344715 -15.620139 6.382827 -3.031670 -0.777526 1.492267
    102 8.947679 -2.401023 -0.374521 -0.001519 -0.000920 -0.026310
    103 -13.210307 -6.138274 0.950759 0.092278 -0.023794 1.567424
    104 -16.202722 -14.204305 4.478217 1.510276 0.063891 -0.035615
    105 0.412526 -15.037654 2.690875 -1.411442 -1.156554 1.389450
    106 -0.425136 -14.174111 4.007698 -0.813815 1.482820 -2.417947
    107 4.421607 -14.848300 3.870502 -0.813815 1.482820 -2.417947
  time 4
    0 0.000000 0.000000 0.000000 0.000000 0.000000 0.000000
    1 0.000000 500.000000 0.000000 0.000000 -0.000000 0.000000
    2 0.000000 500.000000 0.000000 0.000000 -0.000000 0.000000
    3 0.000000 500.000000 0.000000 0.000000 -0.000000 0.000000
    4 0.000000 500.000000 0.000000 0.000000 -0.000000 0.000000
    5 0.000000 500.000000 0.000000 0.000000 -0.000000 0.000000
    6 0.000000 500.000000 0.000000 0.000000 -0.000000 0.000000
    7 0.000000 500.000000 0.000000 0.000000 -0.000000 0.000000
    8 0.000000 500.000000 0.000000 0.000000 -0.000000 0.000000
    9 0.000000 500.000000 0.000000 0.000000 -0.000000 0.000000
    10 0.000000 500.000000 0.000000 0.000000 -0.000000 0.000000
    11 0.000000 500.000000 0.000000 0.000000 -0.000000 0.000000
    12 0.000000 500.000000 0.000000 0.000000 -0.000000 0.000000
    13 0.000000 500.000000 0.000000 0.000000 -0.000000 0.000000
    14 0.000000 500.000000 0.000000 0.000000 -0.000000 0.000000
    15 0.000000 500.000000 0.000000 0.000000 -0.000000 0.000000
    16 0.000000 500.000000 0.000000 0.000000 -0.000000 0.000000
    17 0.000000 500.000000 0.000000 0.000000 -0.000000 0.000000
    18 0.000000 500.000000 0.000000 0.000000 -0.000000 0.000000
    19 0.000000 500.000000 0.000000 0.000000 -0.000000 0.000000
    20 0.000000 500.000000 0.000000 0.000000 -0.000000 0.000000
    21 0.000000 500.000000 0.000000 0.000000 -0.000000 0.000000
    22 0.000000 500.000000 0.000000 0.000000 -0.000000 0.000000
    23 0.000000 500.000000 0.000000 0.000000 -0.000000 0.000000
    24 0.000000 500.000000 0.000000 0.000000 -0.000000 0.000000
    25 0.000000 500.000000 0.000000 0.000000 -0.000000 0.000000
    26 0.000000 500.000000 0.000000 0.000000 -0.000000 0.000000
    27 0.000000 500.000000 0.000000 0.000000 -0.000000 0.000000
    28 0.000000 500.000000 0.000000 0.000000 -0.000000 0.000000
    29 0.000000 500.000000 0.000000 0.000000 -0.000000 0.000000
    30 0.000000 500.000000 0.000000 0.000000 -0.000000 0.000000
    31 0.000000 500.000000 0.000000 0.000000 -0.000000 0.000000
    32 0.000000 500.000000 0.000000 0.000000 -0.000000 0.000000
    33 0.000000 500.000000 0.000000 0.000000 -0.000000 0.000000
    34 0.000000 500.000000 0.000000 0.000000 -0.000000 0.000000
    35 0.000000 500.000000 0.000000 0.000000 -0.000000 0.000000
    36 0.000000 500.000000 0.000000 0.000000 -0.000000 0.000000
    37 0.000000 500.000000 0.000000 0.000000 -0.000000 0.000000
    38 0.000000 500.000000 0.000000 0.000000 -0.000000 0.000000
    39 0.000000 500.000000 0.000000 0.000000 -0.000000 0.000000
    40 0.000000 500.000000 0.000000 0.000000 -0.000000 0.000000
    41 0.000000 500.000000 0.000000 0.000000 -0.000000 0.000000
    42 0.000000 500.000000 0.000000 0.000000 -0.000000 0.000000
    43 0.000000 500.000000 0.000000 0.000000 -0.000000 0.000000
    44 0.000000 500.000000 0.000000 0.000000 -0.000000 0.000000
    45 0.000000 500.000000 0.000000 0.000000 -0.000000 0.000000
    46 0.000000 500.000000 0.000000 0.000000 -0.000000 0.000000
    47 0.000000 500.000000 0.000000 0.000000 -0.000000 0.000000
    48 -16.075148 -5.744545 -19.629012 0.092278 -0.023794 1.567426
    49 11.938599 -10.746612 0.711347 -0.563368 1.459520 -2.163298
    50 -4.141211 0.112325 0.237205 0.000050 0.000029 0.000794
    51 -3.530098 0.044573 6.769476 0.470377 0.007022 -0.026235
    52 -8.706116 0.886991 0.476286 0.000099 0.000058 0.001707
    53 7.069898 -27.881777 10.001831 1.117591 0.934730 -2.118756
    54 5.678927 -17.866093 10.918654 0.779042 -0.374407 -2.013933
    55 4.141303 -10.325913 0.112310 -0.032595 -0.068055 -1.185443
    56 3.846085 -21.145574 3.184379 -2.861241 0.149568 0.900238
    57 0.604178 -20.726129 -10.019454 -1.804712 -0.086605 -0.018615
    58 -2.170452 0.087521 0.123311 0.003849 0.002098 0.064950
    59 3.009980 -1.095208 -0.137687 -0.015141 -0.012137 -0.288360
    60 2.740226 -1.159745 -0.537285 0.013057 -0.070108 -0.400976
    61 -1.671479 0.076303 0.094658 0.003145 0.001738 0.053236
    62 -3.178662 0.114999 0.181042 0.009742 0.004721 0.160557
    63 -2.698561 0.802041 0.092741 0.007788 -0.025633 0.004464
    64 -1.467780 0.045664 0.083852 0.001723 0.000980 0.029367
    65 -2.685827 0.119478 0.152209 0.007362 0.003743 0.122433
    66 -2.906987 0.736821 0.623259 0.007418 0.070272 0.001414
    67 -1.978829 0.097280 0.111826 0.004471 0.002407 0.075246
    68 -3.784414 0.085673 0.217296 0.012463 0.005713 0.203485
    69 -3.208890 0.679898 1.061349 0.005229 0.223163 -0.003846
    70 -2.278614 0.117939 0.128564 0.006741 0.003470 0.112378
    71 -3.025913 0.116220 0.172111 0.009579 0.004657 0.157970
    72 4.069281 -10.275587 7.905847 0.531567 -0.058266 -1.216548
    73 -3.350010 -27.453904 3.507055 0.434262 -1.472151 2.744443
    74 5.649690 -5.524412 5.911807 0.574761 0.742458 -0.644031
    75 0.732539 -23.331390 0.755663 0.007434 -0.120002 -2.202134
    76 2.122204 -20.327996 -3.244487 -2.287959 -0.310685 0.659476
    77 -1.374485 -9.262422 18.086601 1.555088 0.107883 0.601462
    78 -8.754279 -1.086888 0.546627 0.035635 0.009295 0.552756
    79 -12.998025 -4.541327 0.911779 0.063282 0.002722 0.977088
    80 -2.043255 0.606818 1.114989 -0.011730 -0.096859 -0.012693
    81 -11.361353 -2.877730 0.759615 0.052255 0.006851 0.802390
    82 -11.223621 -2.753091 0.747336 0.051304 0.007107 0.787787
    83 -9.334298 0.401633 3.925049 0.206089 -0.433214 0.484312
    84 -14.082125 -5.596718 1.010979 0.069075 -0.000400 1.074618
    85 -14.466044 -6.263944 1.056148 0.072379 -0.002528 1.132835
    86 -12.941250 -2.880178 -1.897054 -0.218542 -0.448381 1.032082
    87 -13.907586 -5.525063 0.998370 0.068707 -0.000179 1.068249
    88 -14.652028 -6.603405 1.078586 0.073966 -0.003650 1.161618
    89 -16.243864 -9.844277 -4.324760 -0.322627 -0.301606 1.624438
    90 -9.225027 -1.593904 0.591369 0.041175 0.008949 0.635055
    91 -9.886348 -1.911565 0.640723 0.044227 0.008562 0.680661
    92 -0.258639 -22.839501 -2.232331 -0.221408 -0.119116 -2.188844
    93 -1.125188 -12.576318 -0.282795 -1.567407 0.055777 0.060629
    94 -8.204009 -2.637854 -0.239066 0.001407 0.000804 0.024038
    95 14.935097 -0.802358 -0.822901 0.001789 0.001016 0.030483
    96 3.741031 -11.354160 1.219951 -0.548801 1.458758 -2.175266
    97 3.244565 -11.142435 0.450474 -0.546676 1.458645 -2.177194
    98 -7.299831 -11.212998 4.990921 -3.001124 0.963725 1.632589
    99 -5.319552 -11.666323 5.222851 -3.022048 0.789986 1.606450
    100 -5.342483 -15.355701 6.643837 -3.041200 -0.603433 1.508353
    101 -7.344713 -15.620134 6.382821 -3.031670 -0.777526 1.492267
    102 8.947678 -2.401023 -0.374521 -0.001519 -0.000920 -0.026310
    103 -13.210307 -6.138274 0.950759 0.092278 -0.023794 1.567424
    104 -16.202722 -14.204305 4.478217 1.510276 0.063891 -0.035615
    105 0.412526 -15.037654 2.690875 -1.411442 -1.156554 1.389450
    106 -0.425136 -14.174111 4.007698 -0.813815 1.482820 -2.417947
    107 4.421607 -14.848300 3.870502 -0.813815 1.482820 -2.417947
  time 5
    0 0.000000 0.000000 0.000000 0.000000 0.000000 0.000000
    1 0.000000 500.000000 0.000000 0.000000 -0.000000 0.000000
    2 0.000000 500.000000 0.000000 0.000000 -0.000000 0.000000
    3 0.000000 500.000000 0.000000 0.000000 -0.000000 0.000000
    4 0.000000 500.000000 0.000000 0.000000 -0.000000 0.000000
    5 0.000000 500.000000 0.000000 0.000000 -0.000000 0.000000
    6 0.000000 500.000000 0.000000 0.000000 -0.000000 0.000000
    7 0.000000 500.000000 0.000000 0.000000 -0.000000 0.000000
    8 0.000000 500.000000 0.000000 0.000000 -0.000000 0.000000
    9 0.000000 500.000000 0.000000 0.000000 -0.000000 0.000000
    10 0.000000 500.000000 0.000000 0.000000 -0.000000 0.000000
    11 0.000000 500.000000 0.000000 0.000000 -0.000000 0.000000
    12 0.000000 500.000000 0.000000 0.000000 -0.000000 0.000000
    13 0.000000 500.000000 0.000000 0.000000 -0.000000 0.000000
    14 0.000000 500.000000 0.000000 0.000000 -0.000000 0.000000
    15 0.000000 500.000000 0.000000 0.000000 -0.000000 0.000000
    16 0.000000 500.000000 0.000000 0.000000 -0.000000 0.000000
    17 0.000000 500.000000 0.000000 0.000000 -0.000000 0.000000
    18 0.000000 500.000000 0.000000 0.000000 -0.000000 0.000000
    19 0.000000 500.000000 0.000000 0.000000 -0.000000 0.000000
    20 0.000000 500.000000 0.000000 0.000000 -0.000000 0.000000
    21 0.000000 500.000000 0.000000 0.000000 -0.000000 0.000000
    22 0.000000 500.000000 0.000000 0.000000 -0.000000 0.000000
    23 0.000000 500.000000 0.000000 0.000000 -0.000000 0.000000
    24 0.000000 500.000000 0.000000 0.000000 -0.000000 0.000000
    25 0.000000 500.000000 0.000000 0.000000 -0.000000 0.000000
    26 0.000000 500.000000 0.000000 0.000000 -0.000000 0.000000
    27 0.000000 500.000000 0.000000 0.000000 -0.000000 0.000000
    28 0.000000 500.000000 0.000000 0.000000 -0.000000 0.000000
    29 0.000000 500.000000 0.000000 0.000000 -0.000000 0.000000
    30 0.000000 500.000000 0.000000 0.000000 -0.000000 0.000000
    31 0.000000 500.000000 0.000000 0.000000 -0.000000 0.000000
    32 0.000000 500.000000 0.000000 0.000000 -0.000000 0.000000
    33 0.000000 500.000000 0.000000 0.000000 -0.000000 0.000000
    34 0.000000 500.000000 0.000000 0.000000 -0.000000 0.000000
    35 0.000000 500.000000 0.000000 0.000000 -0.000000 0.000000
    36 0.000000 500.000000 0.000000 0.000000 -0.000000 0.000000
    37 0.000000 500.000000 0.000000 0.000000 -0.000000 0.000000
    38 0.000000 500.000000 0.000000 0.000000 -0.000000 0.000000
    39 0.000000 500.000000 0.000000 0.000000 -0.000000 0.000000
    40 0.000000 500.000000 0.000000 0.000000 -0.000000 0.000000
    41 0.000000 500.000000 0.000000 0.000000 -0.000000 0.000000
    42 0.000000 500.000000 0.000000 0.000000 -0.000000 0.000000
    43 0.000000 500.000000 0.000000 0.000000 -0.000000 0.000000
    44 0.000000 500.000000 0.000000 0.000000 -0.000000 0.000000
    45 0.000000 500.000000 0.000000 0.000000 -0.000000 0.000000
    46 0.000000 500.000000 0.000000 0.000000 -0.000000 0.000000
    47 0.000000 500.000000 0.000000 0.000000 -0.000000 0.000000
    48 -16.074807 -5.823637 -19.626325 0.092278 -0.023794 1.567426
    49 11.938599 -10.746612 0.711347 -0.563368 1.459520 -2.163298
    50 -4.141211 0.112325 0.237205 0.000050 0.000029 0.000794
    51 -3.530098 0.044573 6.769476 0.470377 0.007022 -0.026235
    52 -8.706110 0.886990 0.476285 0.000099 0.000058 0.001706
    53 7.069898 -27.881777 10.001831 1.117591 0.934730 -2.118756
    54 5.626486 -17.888847 10.987837 0.784177 -0.363695 -2.012936
    55 3.931053 -9.589650 0.099354 -0.033037 -0.064357 -1.130238
    56 3.519186 -21.644475 3.199653 -2.860866 0.136440 0.857483
    57 0.604178 -20.726129 -10.019454 -1.804712 -0.086605 -0.018615
    58 -2.170452 0.087521 0.123311 0.003849 0.002098 0.064950
    59 3.009980 -1.095208 -0.137687 -0.015141 -0.012137 -0.288360
    60 2.740226 -1.159745 -0.537285 0.013057 -0.070108 -0.400976
    61 -1.671479 0.076303 0.094658 0.003145 0.001738 0.053236
    62 -3.178662 0.114999 0.181042 0.009742 0.004721 0.160557
    63 -2.698561 0.802041 0.092741 0.007788 -0.025633 0.004464
    64 -1.467780 0.045664 0.083852 0.001723 0.000980 0.029367
    65 -2.685826 0.119478 0.152209 0.007362 0.003743 0.122433
    66 -2.906987 0.736821 0.623259 0.007418 0.070272 0.001414
    67 -1.978829 0.097280 0.111826 0.004471 0.002407 0.075246
    68 -3.784413 0.085673 0.217296 0.012463 0.005713 0.203485
    69 -3.208890 0.679898 1.061349 0.005229 0.223163 -0.003846
    70 -2.278614 0.117940 0.128564 0.006741 0.003470 0.112378
    71 -3.025913 0.116220 0.172111 0.009579 0.004657 0.157970
    72 3.844768 -9.577158 7.989019 0.538095 -0.054903 -1.161653
    73 -3.350010 -27.453904 3.507055 0.434262 -1.472151 2.744443
    74 5.649690 -5.524412 5.911807 0.574761 0.742458 -0.644031
    75 0.732539 -23.331390 0.755663 0.007434 -0.120002 -2.202134
    76 2.122208 -20.327992 -3.244485 -2.287959 -0.310685 0.659477
    77 -1.374485 -9.262422 18.086601 1.555088 0.107883 0.601462
    78 -8.754279 -1.086889 0.546627 0.035635 0.009295 0.552756
    79 -12.998025 -4.541327 0.911779 0.063282 0.002722 0.977088
    80 -2.043255 0.606818 1.114989 -0.011730 -0.096859 -0.012693
    81 -11.361353 -2.877730 0.759615 0.052255 0.006851 0.802390
    82 -11.223621 -2.753091 0.747336 0.051304 0.007107 0.787787
    83 -9.334298 0.401632 3.925049 0.206089 -0.433214 0.484312
    84 -14.082125 -5.596718 1.010979 0.069075 -0.000400 1.074618
    85 -14.466044 -6.263944 1.056148 0.072379 -0.002528 1.132835
    86 -12.941250 -2.880178 -1.897054 -0.218542 -0.448381 1.032082
    87 -13.907586 -5.525063 0.998370 0.068707 -0.000179 1.068249
    88 -14.652028 -6.603405 1.078586 0.073966 -0.003650 1.161618
    89 -16.243864 -9.844277 -4.324760 -0.322627 -0.301606 1.624438
    90 -9.225027 -1.593904 0.591369 0.041175 0.008949 0.635055
    91 -9.886348 -1.911565 0.640723 0.044227 0.008562 0.680661
    92 -0.258639 -22.839501 -2.232331 -0.221408 -0.119116 -2.188844
    93 -1.125188 -12.576318 -0.282795 -1.567407 0.055777 0.060629
    94 -8.395594 -2.611400 -0.228821 0.000854 0.000493 0.014653
    95 14.935097 -0.802358 -0.822901 0.001789 0.001016 0.030483
    96 4.037361 -11.361335 1.202954 -0.548801 1.458758 -2.175266
    97 3.244566 -11.142435 0.450475 -0.546676 1.458645 -2.177194
    98 -7.299831 -11.212999 4.990921 -3.001124 0.963725 1.632589
    99 -5.319552 -11.666324 5.222851 -3.022048 0.789986 1.606450
    100 -5.342483 -15.355697 6.643838 -3.041200 -0.603433 1.508353
    101 -7.344713 -15.620135 6.382821 -3.031670 -0.777526 1.492267
    102 8.947678 -2.401023 -0.374521 -0.001519 -0.000920 -0.026310
    103 -13.210306 -6.138274 0.950759 0.092278 -0.023794 1.567424
    104 -16.202722 -14.204305 4.478217 1.510276 0.063891 -0.035615
    105 0.412526 -15.037654 2.690875 -1.411442 -1.156554 1.389450
    106 -0.425136 -14.174111 4.007698 -0.813815 1.482820 -2.417947
    107 4.421607 -14.848300 3.870502 -0.813815 1.482820 -2.417947
  time 6
    0 0.000000 0.000000 0.000000 0.000000 0.000000 0.000000
    1 0.000000 500.000000 0.000000 0.000000 -0.000000 0.000000
    2 0.000000 500.000000 0.000000 0.000000 -0.000000 0.000000
    3 0.000000 500.000000 0.000000 0.000000 -0.000000 0.000000
    4 0.000000 500.000000 0.000000 0.000000 -0.000000 0.000000
    5 0.000000 500.000000 0.000000 0.000000 -0.000000 0.000000
    6 0.000000 500.000000 0.000000 0.000000 -0.000000 0.000000
    7 0.000000 500.000000 0.000000 0.000000 -0.000000 0.000000
    8 0.000000 500.000000 0.000000 0.000000 -0.000000 0.000000
    9 0.000000 500.000000 0.000000 0.000000 -0.000000 0.000000
    10 0.000000 500.000000 0.000000 0.000000 -0.000000 0.000000
    11 0.000000 500.000000 0.000000 0.000000 -0.000000 0.000000
    12 0.000000 500.000000 0.000000 0.000000 -0.000000 0.000000
    13 0.000000 500.000000 0.000000 0.000000 -0.000000 0.000000
    14 0.000000 500.000000 0.000000 0.000000 -0.000000 0.000000
    15 0.000000 500.000000 0.000000 0.000000 -0.000000 0.000000
    16 0.000000 500.000000 0.000000 0.000000 -0.000000 0.000000
    17 0.000000 500.000000 0.000000 0.000000 -0.000000 0.000000
    18 0.000000 500.000000 0.000000 0.000000 -0.000000 0.000000
    19 0.000000 500.000000 0.000000 0.000000 -0.000000 0.000000
    20 0.000000 500.000000 0.000000 0.000000 -0.000000 0.000000
    21 0.000000 500.000000 0.000000 0.000000 -0.000000 0.000000
    22 0.000000 500.000000 0.000000 0.000000 -0.000000 0.000000
    23 0.000000 500.000000 0.000000 0.000000 -0.000000 0.000000
    24 0.000000 500.000000 0.000000 0.000000 -0.000000 0.000000
    25 0.000000 500.000000 0.000000 0.000000 -0.000000 0.000000
    26 0.000000 500.000000 0.000000 0.000000 -0.000000 0.000000
    27 0.000000 500.000000 0.000000 0.000000 -0.000000 0.000000
    28 0.000000 500.000000 0.000000 0.000000 -0.000000 0.000000
    29 0.000000 500.000000 0.000000 0.000000 -0.000000 0.000000
    30 0.000000 500.000000 0.000000 0.000000 -0.000000 0.000000
    31 0.000000 500.000000 0.000000 0.000000 -0.000000 0.000000
    32 0.000000 500.000000 0.000000 0.000000 -0.000000 0.000000
    33 0.000000 500.000000 0.000000 0.000000 -0.000000 0.000000
    34 0.000000 500.000000 0.000000 0.000000 -0.000000 0.000000
    35 0.000000 500.000000 0.000000 0.000000 -0.000000 0.000000
    36 0.000000 500.000000 0.000000 0.000000 -0.000000 0.000000
    37 0.000000 500.000000 0.000000 0.000000 -0.000000 0.000000
    38 0.000000 500.000000 0.000000 0.000000 -0.000000 0.000000
    39 0.000000 500.000000 0.000000 0.000000 -0.000000 0.000000
    40 0.000000 500.000000 0.000000 0.000000 -0.000000 0.000000
    41 0.000000 500.000000 0.000000 0.000000 -0.000000 0.000000
    42 0.000000 500.000000 0.000000 0.000000 -0.000000 0.000000
    43 0.000000 500.000000 0.000000 0.000000 -0.000000 0.000000
    44 0.000000 500.000000 0.000000 0.000000 -0.000000 0.000000
    45 0.000000 500.000000 0.000000 0.000000 -0.000000 0.000000
    46 0.000000 500.000000 0.000000 0.000000 -0.000000 0.000000
    47 0.000000 500.000000 0.000000 0.000000 -0.000000 0.000000
    48 -16.072686 -6.315757 -19.609611 0.092278 -0.023794 1.567426
    49 11.938599 -10.746612 0.711347 -0.563368 1.459520 -2.163298
    50 -4.141211 0.112325 0.237205 0.000050 0.000029 0.000794
    51 -3.530098 0.044573 6.769476 0.470377 0.007022 -0.026235
    52 -8.706110 0.886990 0.476285 0.000099 0.000058 0.001706
    53 7.069898 -27.881778 10.001831 1.117591 0.934730 -2.118756
    54 5.687220 -17.795814 10.946436 0.781266 -0.371900 -2.007716
    55 3.881372 -9.435399 0.096967 -0.033104 -0.063572 -1.118558
    56 3.379644 -21.840598 3.161476 -2.858220 0.137309 0.840843
    57 0.604189 -20.726129 -10.019453 -1.804712 -0.086605 -0.018614
    58 -2.170452 0.087521 0.123311 0.003849 0.002098 0.064950
    59 3.009980 -1.095208 -0.137687 -0.015141 -0.012137 -0.288360
    60 2.740227 -1.159746 -0.537285 0.013057 -0.070108 -0.400976
    61 -1.671479 0.076303 0.094658 0.003145 0.001738 0.053236
    62 -3.178662 0.114999 0.181042 0.009742 0.004721 0.160557
    63 -2.698561 0.802040 0.092740 0.007788 -0.025633 0.004464
    64 -1.467779 0.045664 0.083852 0.001723 0.000980 0.029367
    65 -2.685826 0.119478 0.152209 0.007362 0.003743 0.122433
    66 -2.906987 0.736821 0.623259 0.007418 0.070272 0.001414
    67 -1.978829 0.097280 0.111826 0.004471 0.002407 0.075246
    68 -3.784413 0.085674 0.217295 0.012463 0.005713 0.203485
    69 -3.208889 0.679898 1.061349 0.005229 0.223163 -0.003846
    70 -2.278614 0.117941 0.128564 0.006741 0.003470 0.112378
    71 -3.025914 0.116220 0.172111 0.009579 0.004657 0.157970
    72 3.791802 -9.432213 8.009635 0.539716 -0.054063 -1.150056
    73 -3.350010 -27.453904 3.507055 0.434262 -1.472151 2.744443
    74 5.649690 -5.524412 5.911807 0.574761 0.742458 -0.644031
    75 0.732539 -23.331391 0.755663 0.007434 -0.120002 -2.202134
    76 2.122207 -20.327993 -3.244485 -2.287959 -0.310685 0.659477
    77 -1.374485 -9.262422 18.086601 1.555088 0.107883 0.601462
    78 -8.754279 -1.086890 0.546627 0.035635 0.009295 0.552756
    79 -12.998025 -4.541327 0.911779 0.063282 0.002722 0.977088
    80 -2.043255 0.606818 1.114990 -0.011730 -0.096859 -0.012693
    81 -11.361353 -2.877730 0.759615 0.052255 0.006851 0.802390
    82 -11.223621 -2.753091 0.747336 0.051304 0.007107 0.787787
    83 -9.334298 0.401632 3.925049 0.206089 -0.433214 0.484312
    84 -14.082125 -5.596718 1.010979 0.069075 -0.000400 1.074618
    85 -14.466044 -6.263944 1.056148 0.072379 -0.002528 1.132835
    86 -12.941250 -2.880178 -1.897054 -0.218542 -0.448381 1.032082
    87 -13.907586 -5.525063 0.998369 0.068707 -0.000179 1.068249
    88 -14.652028 -6.603405 1.078586 0.073966 -0.003650 1.161618
    89 -16.243864 -9.844277 -4.324760 -0.322627 -0.301606 1.624438
    90 -9.225027 -1.593904 0.591369 0.041175 0.008949 0.635055
    91 -9.886348 -1.911565 0.640723 0.044227 0.008562 0.680661
    92 -0.258639 -22.839502 -2.232331 -0.221408 -0.119116 -2.188844
    93 -1.125188 -12.576318 -0.282795 -1.567407 0.055777 0.060629
    94 -8.423030 -2.477748 -0.231797 0.000531 0.000308 0.009132
    95 14.935097 -0.802360 -0.822901 0.001789 0.001016 0.030483
    96 4.026882 -11.361081 1.203555 -0.548801 1.458758 -2.175266
    97 3.244566 -11.142435 0.450475 -0.546676 1.458645 -2.177194
    98 -7.299830 -11.212999 4.990921 -3.001124 0.963725 1.632589
    99 -5.319551 -11.666324 5.222851 -3.022048 0.789986 1.606450
    100 -5.342483 -15.355688 6.643841 -3.041201 -0.603433 1.508354
    101 -7.344714 -15.620141 6.382828 -3.031670 -0.777526 1.492267
    102 8.947678 -2.401024 -0.374521 -0.001519 -0.000920 -0.026310
    103 -13.210305 -6.138274 0.950759 0.092278 -0.023794 1.567424
    104 -16.202722 -14.204305 4.478217 1.510276 0.063891 -0.035615
    105 0.412526 -15.037654 2.690875 -1.411442 -1.156554 1.389450
    106 -0.425136 -14.174111 4.007698 -0.813815 1.482820 -2.417947
    107 4.421607 -14.848300 3.870502 -0.813815 1.482820 -2.417947
  time 7
    0 0.000000 0.000000 0.000000 0.000000 0.000000 0.000000
    1 0.000000 500.000000 0.000000 0.000000 -0.000000 0.000000
    2 0.000000 500.000000 0.000000 0.000000 -0.000000 0.000000
    3 0.000000 500.000000 0.000000 0.000000 -0.000000 0.000000
    4 0.000000 500.000000 0.000000 0.000000 -0.000000 0.000000
    5 0.000000 500.000000 0.000000 0.000000 -0.000000 0.000000
    6 0.000000 500.000000 0.000000 0.000000 -0.000000 0.000000
    7 0.000000 500.000000 0.000000 0.000000 -0.000000 0.000000
    8 0.000000 500.000000 0.000000 0.000000 -0.000000 0.000000
    9 0.000000 500.000000 0.000000 0.000000 -0.000000 0.000000
    10 0.000000 500.000000 0.000000 0.000000 -0.000000 0.000000
    11 0.000000 500.000000 0.000000 0.000000 -0.000000 0.000000
    12 0.000000 500.000000 0.000000 0.000000 -0.000000 0.000000
    13 0.000000 500.000000 0.000000 0.000000 -0.000000 0.000000
    14 0.000000 500.000000 0.000000 0.000000 -0.000000 0.000000
    15 0.000000 500.000000 0.000000 0.000000 -0.000000 0.000000
    16 0.000000 500.000000 0.000000 0.000000 -0.000000 0.000000
    17 0.000000 500.000000 0.000000 0.000000 -0.000000 0.000000
    18 0.000000 500.000000 0.000000 0.000000 -0.000000 0.000000
    19 0.000000 500.000000 0.000000 0.000000 -0.000000 0.000000
    20 0.000000 500.000000 0.000000 0.000000 -0.000000 0.000000
    21 0.000000 500.000000 0.000000 0.000000 -0.000000 0.000000
    22 0.000000 500.000000 0.000000 0.000000 -0.000000 0.000000
    23 0.000000 500.000000 0.000000 0.000000 -0.000000 0.000000
    24 0.000000 500.000000 0.000000 0.000000 -0.000000 0.000000
    25 0.000000 500.000000 0.000000 0.000000 -0.000000 0.000000
    26 0.000000 500.000000 0.000000 0.000000 -0.000000 0.000000
    27 0.000000 500.000000 0.000000 0.000000 -0.000000 0.000000
    28 0.000000 500.000000 0.000000 0.000000 -0.000000 0.000000
    29 0.000000 500.000000 0.000000 0.000000 -0.000000 0.000000
    30 0.000000 500.000000 0.000000 0.000000 -0.000000 0.000000
    31 0.000000 500.000000 0.000000 0.000000 -0.000000 0.000000
    32 0.000000 500.000000 0.000000 0.000000 -0.000000 0.000000
    33 0.000000 500.000000 0.000000 0.000000 -0.000000 0.000000
    34 0.000000 500.000000 0.000000 0.000000 -0.000000 0.000000
    35 0.000000 500.000000 0.000000 0.000000 -0.000000 0.000000
    36 0.000000 500.000000 0.000000 0.000000 -0.000000 0.000000
    37 0.000000 500.000000 0.000000 0.000000 -0.000000 0.000000
    38 0.000000 500.000000 0.000000 0.000000 -0.000000 0.000000
    39 0.000000 500.000000 0.000000 0.000000 -0.000000 0.000000
    40 0.000000 500.000000 0.000000 0.000000 -0.000000 0.000000
    41 0.000000 500.000000 0.000000 0.000000 -0.000000 0.000000
    42 0.000000 500.000000 0.000000 0.000000 -0.000000 0.000000
    43 0.000000 500.000000 0.000000 0.000000 -0.000000 0.000000
    44 0.000000 500.000000 0.000000 0.000000 -0.000000 0.000000
    45 0.000000 500.000000 0.000000 0.000000 -0.000000 0.000000
    46 0.000000 500.000000 0.000000 0.000000 -0.000000 0.000000
    47 0.000000 500.000000 0.000000 0.000000 -0.000000 0.000000
    48 -16.070989 -6.709452 -19.596239 0.092278 -0.023794 1.567426
    49 11.938599 -10.746612 0.711347 -0.563368 1.459520 -2.163298
    50 -4.141211 0.112325 0.237205 0.000050 0.000029 0.000794
    51 -3.530098 0.044573 6.769476 0.470377 0.007022 -0.026235
    52 -8.706111 0.886990 0.476285 0.000099 0.000058 0.001706
    53 7.069898 -27.881778 10.001831 1.117591 0.934730 -2.118756
    54 5.736956 -17.717679 10.912182 0.778866 -0.378553 -2.003224
    55 3.815390 -9.239499 0.094104 -0.033176 -0.062569 -1.103661
    56 3.219332 -22.058601 3.133699 -2.856281 0.137822 0.821979
    57 0.604197 -20.726128 -10.019451 -1.804712 -0.086606 -0.018614
    58 -2.170452 0.087521 0.123311 0.003849 0.002098 0.064950
    59 3.009980 -1.095208 -0.137687 -0.015141 -0.012137 -0.288360
    60 2.740228 -1.159746 -0.537285 0.013057 -0.070108 -0.400976
    61 -1.671479 0.076303 0.094658 0.003145 0.001738 0.053236
    62 -3.178662 0.114999 0.181042 0.009742 0.004721 0.160557
    63 -2.698561 0.802040 0.092740 0.007788 -0.025633 0.004464
    64 -1.467781 0.045665 0.083852 0.001723 0.000980 0.029367
    65 -2.685824 0.119478 0.152209 0.007362 0.003743 0.122433
    66 -2.906987 0.736820 0.623259 0.007418 0.070272 0.001414
    67 -1.978829 0.097280 0.111826 0.004471 0.002407 0.075246
    68 -3.784413 0.085674 0.217295 0.012463 0.005713 0.203485
    69 -3.208888 0.679898 1.061349 0.005229 0.223163 -0.003846
    70 -2.278614 0.117941 0.128564 0.006741 0.003470 0.112378
    71 -3.025915 0.116220 0.172111 0.009579 0.004657 0.157970
    72 3.723200 -9.247722 8.031061 0.541422 -0.053006 -1.135245
    73 -3.350010 -27.453904 3.507055 0.434262 -1.472151 2.744443
    74 5.649690 -5.524412 5.911807 0.574761 0.742458 -0.644031
    75 0.732539 -23.331391 0.755663 0.007434 -0.120002 -2.202134
    76 2.122206 -20.327993 -3.244485 -2.287959 -0.310685 0.659477
    77 -1.374485 -9.262422 18.086601 1.555088 0.107883 0.601462
    78 -8.754279 -1.086890 0.546627 0.035635 0.009295 0.552756
    79 -12.998025 -4.541327 0.911779 0.063282 0.002722 0.977088
    80 -2.043255 0.606818 1.114990 -0.011730 -0.096859 -0.012693
    81 -11.361353 -2.877730 0.759615 0.052255 0.006851 0.802390
    82 -11.223621 -2.753091 0.747336 0.051304 0.007107 0.787787
    83 -9.334298 0.401631 3.925049 0.206089 -0.433214 0.484312
    84 -14.082125 -5.596718 1.010979 0.069075 -0.000400 1.074618
    85 -14.466044 -6.263944 1.056148 0.072379 -0.002528 1.132835
    86 -12.941251 -2.880178 -1.897054 -0.218542 -0.448381 1.032082
    87 -13.907586 -5.525063 0.998368 0.068707 -0.000179 1.068249
    88 -14.652028 -6.603405 1.078586 0.073966 -0.003650 1.161618
    89 -16.243864 -9.844277 -4.324760 -0.322627 -0.301606 1.624438
    90 -9.225027 -1.593904 0.591369 0.041175 0.008949 0.635055
    91 -9.886348 -1.911565 0.640723 0.044227 0.008562 0.680661
    92 -0.258639 -22.839502 -2.232331 -0.221408 -0.119116 -2.188844
    93 -1.125188 -12.576318 -0.282795 -1.567407 0.055777 0.060629
    94 -8.471270 -2.350356 -0.233348 0.000248 0.000144 0.004287
    95 14.935097 -0.802361 -0.822901 0.001789 0.001016 0.030483
    96 3.887332 -11.357703 1.211559 -0.548801 1.458758 -2.175266
    97 3.244566 -11.142435 0.450475 -0.546676 1.458645 -2.177194
    98 -7.299830 -11.212999 4.990921 -3.001124 0.963725 1.632589
    99 -5.319551 -11.666324 5.222851 -3.022048 0.789986 1.606450
    100 -5.342483 -15.355683 6.643843 -3.041201 -0.603433 1.508355
    101 -7.344715 -15.620145 6.382834 -3.031671 -0.777527 1.492267
    102 8.947678 -2.401025 -0.374521 -0.001519 -0.000920 -0.026310
    103 -13.210305 -6.138274 0.950759 0.092278 -0.023794 1.567424
    104 -16.202722 -14.204305 4.478217 1.510276 0.063891 -0.035615
    105 0.412526 -15.037654 2.690875 -1.411442 -1.156554 1.389450
    106 -0.425136 -14.174111 4.007698 -0.813815 1.482820 -2.417947
    107 4.421607 -14.848300 3.870502 -0.813815 1.482820 -2.417947
  time 8
    0 0.000000 0.000000 0.000000 0.000000 0.000000 0.000000
    1 0.000000 500.000000 0.000000 0.000000 -0.000000 0.000000
    2 0.000000 500.000000 0.000000 0.000000 -0.000000 0.000000
    3 0.000000 500.000000 0.000000 0.000000 -0.000000 0.000000
    4 0.000000 500.000000 0.000000 0.000000 -0.000000 0.000000
    5 0.000000 500.000000 0.000000 0.000000 -0.000000 0.000000
    6 0.000000 500.000000 0.000000 0.000000 -0.000000 0.000000
    7 0.000000 500.000000 0.000000 0.000000 -0.000000 0.000000
    8 0.000000 500.000000 0.000000 0.000000 -0.000000 0.000000
    9 0.000000 500.000000 0.000000 0.000000 -0.000000 0.000000
    10 0.000000 500.000000 0.000000 0.000000 -0.000000 0.000000
    11 0.000000 500.000000 0.000000 0.000000 -0.000000 0.000000
    12 0.000000 500.000000 0.000000 0.000000 -0.000000 0.000000
    13 0.000000 500.000000 0.000000 0.000000 -0.000000 0.000000
    14 0.000000 500.000000 0.000000 0.000000 -0.000000 0.000000
    15 0.000000 500.000000 0.000000 0.000000 -0.000000 0.000000
    16 0.000000 500.000000 0.000000 0.000000 -0.000000 0.000000
    17 0.000000 500.000000 0.000000 0.000000 -0.000000 0.000000
    18 0.000000 500.000000 0.000000 0.000000 -0.000000 0.000000
    19 0.000000 500.000000 0.000000 0.000000 -0.000000 0.000000
    20 0.000000 500.000000 0.000000 0.000000 -0.000000 0.000000
    21 0.000000 500.000000 0.000000 0.000000 -0.000000 0.000000
    22 0.000000 500.000000 0.000000 0.000000 -0.000000 0.000000
    23 0.000000 500.000000 0.000000 0.000000 -0.000000 0.000000
    24 0.000000 500.000000 0.000000 0.000000 -0.000000 0.000000
    25 0.000000 500.000000 0.000000 0.000000 -0.000000 0.000000
    26 0.000000 500.000000 0.000000 0.000000 -0.000000 0.000000
    27 0.000000 500.000000 0.000000 0.000000 -0.000000 0.000000
    28 0.000000 500.000000 0.000000 0.000000 -0.000000 0.000000
    29 0.000000 500.000000 0.000000 0.000000 -0.000000 0.000000
    30 0.000000 500.000000 0.000000 0.000000 -0.000000 0.000000
    31 0.000000 500.000000 0.000000 0.000000 -0.000000 0.000000
    32 0.000000 500.000000 0.000000 0.000000 -0.000000 0.000000
    33 0.000000 500.000000 0.000000 0.000000 -0.000000 0.000000
    34 0.000000 500.000000 0.000000 0.000000 -0.000000 0.000000
    35 0.000000 500.000000 0.000000 0.000000 -0.000000 0.000000
    36 0.000000 500.000000 0.000000 0.000000 -0.000000 0.000000
    37 0.000000 500.000000 0.000000 0.000000 -0.000000 0.000000
    38 0.000000 500.000000 0.000000 0.000000 -0.000000 0.000000
    39 0.000000 500.000000 0.000000 0.000000 -0.000000 0.000000
    40 0.000000 500.000000 0.000000 0.000000 -0.000000 0.000000
    41 0.000000 500.000000 0.000000 0.000000 -0.000000 0.000000
    42 0.000000 500.000000 0.000000 0.000000 -0.000000 0.000000
    43 0.000000 500.000000 0.000000 0.000000 -0.000000 0.000000
    44 0.000000 500.000000 0.000000 0.000000 -0.000000 0.000000
    45 0.000000 500.000000 0.000000 0.000000 -0.000000 0.000000
    46 0.000000 500.000000 0.000000 0.000000 -0.000000 0.000000
    47 0.000000 500.000000 0.000000 0.000000 -0.000000 0.000000
    48 -16.070989 -6.709452 -19.596239 0.092278 -0.023794 1.567426
    49 11.938599 -10.746612 0.711347 -0.563368 1.459520 -2.163298
    50 -4.141211 0.112325 0.237205 0.000050 0.000029 0.000794
    51 -3.530098 0.044573 6.769476 0.470377 0.007022 -0.026235
    52 -8.706111 0.886990 0.476285 0.000099 0.000058 0.001706
    53 7.069898 -27.881778 10.001831 1.117591 0.934730 -2.118756
    54 5.744986 -17.699092 10.909906 0.778713 -0.379051 -2.001795
    55 3.684603 -8.876955 0.089310 -0.033271 -0.060697 -1.075887
    56 2.982986 -22.369089 3.146755 -2.857099 0.136745 0.794208
    57 0.604197 -20.726128 -10.019451 -1.804712 -0.086606 -0.018614
    58 -2.170452 0.087521 0.123311 0.003849 0.002098 0.064950
    59 3.009980 -1.095208 -0.137687 -0.015141 -0.012137 -0.288360
    60 2.740227 -1.159745 -0.537285 0.013057 -0.070108 -0.400976
    61 -1.671479 0.076303 0.094658 0.003145 0.001738 0.053236
    62 -3.178662 0.114999 0.181042 0.009742 0.004721 0.160557
    63 -2.698561 0.802040 0.092740 0.007788 -0.025633 0.004464
    64 -1.467793 0.045666 0.083853 0.001723 0.000980 0.029368
    65 -2.685811 0.119478 0.152208 0.007362 0.003743 0.122432
    66 -2.906987 0.736820 0.623258 0.007418 0.070272 0.001414
    67 -1.978830 0.097279 0.111826 0.004471 0.002407 0.075246
    68 -3.784413 0.085674 0.217295 0.012463 0.005713 0.203485
    69 -3.208888 0.679897 1.061349 0.005229 0.223163 -0.003846
    70 -2.278614 0.117940 0.128564 0.006741 0.003470 0.112378
    71 -3.025915 0.116220 0.172111 0.009579 0.004657 0.157970
    72 3.592452 -8.904806 8.055686 0.543462 -0.051043 -1.107578
    73 -3.350010 -27.453904 3.507055 0.434262 -1.472151 2.744443
    74 5.649690 -5.524412 5.911807 0.574761 0.742458 -0.644031
    75 0.732539 -23.331391 0.755663 0.007434 -0.120002 -2.202134
    76 2.122206 -20.327993 -3.244485 -2.287959 -0.310685 0.659477
    77 -1.374485 -9.262422 18.086601 1.555088 0.107883 0.601462
    78 -8.754279 -1.086890 0.546627 0.035635 0.009295 0.552756
    79 -12.998025 -4.541327 0.911779 0.063282 0.002722 0.977088
    80 -2.043255 0.606818 1.114990 -0.011730 -0.096859 -0.012693
    81 -11.361353 -2.877730 0.759615 0.052255 0.006851 0.802390
    82 -11.223621 -2.753091 0.747336 0.051304 0.007107 0.787787
    83 -9.334298 0.401631 3.925049 0.206089 -0.433214 0.484312
    84 -14.082125 -5.596718 1.010979 0.069075 -0.000400 1.074618
    85 -14.466044 -6.263944 1.056148 0.072379 -0.002528 1.132835
    86 -12.941251 -2.880178 -1.897054 -0.218542 -0.448381 1.032082
    87 -13.907586 -5.525063 0.998368 0.068707 -0.000179 1.068249
    88 -14.652028 -6.603405 1.078586 0.073966 -0.003650 1.161618
    89 -16.243864 -9.844277 -4.324760 -0.322627 -0.301606 1.624438
    90 -9.225027 -1.593904 0.591369 0.041175 0.008949 0.635055
    91 -9.886348 -1.911565 0.640723 0.044227 0.008562 0.680661
    92 -0.258639 -22.839502 -2.232331 -0.221408 -0.119116 -2.188844
    93 -1.125188 -12.576318 -0.282795 -1.567407 0.055777 0.060629
    94 -8.602543 -2.246530 -0.229261 0.000123 0.000071 0.002143
    95 14.935097 -0.802361 -0.822901 0.001789 0.001016 0.030483
    96 3.231492 -11.341825 1.249178 -0.548801 1.458758 -2.175266
    97 3.244565 -11.142434 0.450474 -0.546676 1.458645 -2.177194
    98 -7.299830 -11.212999 4.990921 -3.001124 0.963725 1.632589
    99 -5.319552 -11.666324 5.222851 -3.022048 0.789986 1.606450
    100 -5.342483 -15.355692 6.643840 -3.041201 -0.603433 1.508354
    101 -7.344716 -15.620145 6.382833 -3.031671 -0.777527 1.492267
    102 8.947678 -2.401024 -0.374521 -0.001519 -0.000920 -0.026310
    103 -13.210305 -6.138274 0.950759 0.092278 -0.023794 1.567424
    104 -16.202722 -14.204305 4.478217 1.510276 0.063891 -0.035615
    105 0.412526 -15.037654 2.690875 -1.411442 -1.156554 1.389450
    106 -0.425136 -14.174111 4.007698 -0.813815 1.482820 -2.417947
    107 4.421607 -14.848300 3.870502 -0.813815 1.482820 -2.417947
  time 9
    0 0.000000 0.000000 0.000000 0.000000 0.000000 0.000000
    1 0.000000 500.000000 0.000000 0.000000 -0.000000 0.000000
    2 0.000000 500.000000 0.000000 0.000000 -0.000000 0.000000
    3 0.000000 500.000000 0.000000 0.000000 -0.000000 0.000000
    4 0.000000 500.000000 0.000000 0.000000 -0.000000 0.000000
    5 0.000000 500.000000 0.000000 0.000000 -0.000000 0.000000
    6 0.000000 500.000000 0.000000 0.000000 -0.000000 0.000000
    7 0.000000 500.000000 0.000000 0.000000 -0.000000 0.000000
    8 0.000000 500.000000 0.000000 0.000000 -0.000000 0.000000
    9 0.000000 500.000000 0.000000 0.000000 -0.000000 0.000000
    10 0.000000 500.000000 0.000000 0.000000 -0.000000 0.000000
    11 0.000000 500.000000 0.000000 0.000000 -0.000000 0.000000
    12 0.000000 500.000000 0.000000 0.000000 -0.000000 0.000000
    13 0.000000 500.000000 0.000000 0.000000 -0.000000 0.000000
    14 0.000000 500.000000 0.000000 0.000000 -0.000000 0.000000
    15 0.000000 500.000000 0.000000 0.000000 -0.000000 0.000000
    16 0.000000 500.000000 0.000000 0.000000 -0.000000 0.000000
    17 0.000000 500.000000 0.000000 0.000000 -0.000000 0.000000
    18 0.000000 500.000000 0.000000 0.000000 -0.000000 0.000000
    19 0.000000 500.000000 0.000000 0.000000 -0.000000 0.000000
    20 0.000000 500.000000 0.000000 0.000000 -0.000000 0.000000
    21 0.000000 500.000000 0.000000 0.000000 -0.000000 0.000000
    22 0.000000 500.000000 0.000000 0.000000 -0.000000 0.000000
    23 0.000000 500.000000 0.000000 0.000000 -0.000000 0.000000
    24 0.000000 500.000000 0.000000 0.000000 -0.000000 0.000000
    25 0.000000 500.000000 0.000000 0.000000 -0.000000 0.000000
    26 0.000000 500.000000 0.000000 0.000000 -0.000000 0.000000
    27 0.000000 500.000000 0.000000 0.000000 -0.000000 0.000000
    28 0.000000 500.000000 0.000000 0.000000 -0.000000 0.000000
    29 0.000000 500.000000 0.000000 0.000000 -0.000000 0.000000
    30 0.000000 500.000000 0.000000 0.000000 -0.000000 0.000000
    31 0.000000 500.000000 0.000000 0.000000 -0.000000 0.000000
    32 0.000000 500.000000 0.000000 0.000000 -0.000000 0.000000
    33 0.000000 500.000000 0.000000 0.000000 -0.000000 0.000000
    34 0.000000 500.000000 0.000000 0.000000 -0.000000 0.000000
    35 0.000000 500.000000 0.000000 0.000000 -0.000000 0.000000
    36 0.000000 500.000000 0.000000 0.000000 -0.000000 0.000000
    37 0.000000 500.000000 0.000000 0.000000 -0.000000 0.000000
    38 0.000000 500.000000 0.000000 0.000000 -0.000000 0.000000
    39 0.000000 500.000000 0.000000 0.000000 -0.000000 0.000000
    40 0.000000 500.000000 0.000000 0.000000 -0.000000 0.000000
    41 0.000000 500.000000 0.000000 0.000000 -0.000000 0.000000
    42 0.000000 500.000000 0.000000 0.000000 -0.000000 0.000000
    43 0.000000 500.000000 0.000000 0.000000 -0.000000 0.000000
    44 0.000000 500.000000 0.000000 0.000000 -0.000000 0.000000
    45 0.000000 500.000000 0.000000 0.000000 -0.000000 0.000000
    46 0.000000 500.000000 0.000000 0.000000 -0.000000 0.000000
    47 0.000000 500.000000 0.000000 0.000000 -0.000000 0.000000
    48 -16.070989 -6.709452 -19.596239 0.092278 -0.023794 1.567426
    49 11.938599 -10.746612 0.711347 -0.563368 1.459520 -2.163298
    50 -4.141211 0.112325 0.237205 0.000050 0.000029 0.000794
    51 -3.530098 0.044573 6.769476 0.470377 0.007022 -0.026235
    52 -8.706111 0.886990 0.476285 0.000099 0.000058 0.001706
    53 7.069898 -27.881778 10.001831 1.117591 0.934730 -2.118756
    54 5.752989 -17.680496 10.907620 0.778559 -0.379548 -2.000365
    55 3.543803 -8.518189 0.085228 -0.033314 -0.058823 -1.048118
    56 2.738136 -22.672914 3.159423 -2.857886 0.135646 0.766443
    57 0.604197 -20.726128 -10.019451 -1.804712 -0.086606 -0.018614
    58 -2.170452 0.087521 0.123311 0.003849 0.002098 0.064950
    59 3.009980 -1.095208 -0.137687 -0.015141 -0.012137 -0.288360
    60 2.740227 -1.159744 -0.537285 0.013057 -0.070108 -0.400976
    61 -1.671479 0.076303 0.094658 0.003145 0.001738 0.053236
    62 -3.178662 0.114999 0.181042 0.009742 0.004721 0.160557
    63 -2.698561 0.802040 0.092740 0.007788 -0.025633 0.004464
    64 -1.467806 0.045667 0.083854 0.001724 0.000980 0.029369
    65 -2.685799 0.119478 0.152207 0.007362 0.003743 0.122431
    66 -2.906987 0.736820 0.623257 0.007418 0.070272 0.001414
    67 -1.978831 0.097278 0.111826 0.004471 0.002407 0.075246
    68 -3.784413 0.085674 0.217295 0.012463 0.005713 0.203485
    69 -3.208888 0.679896 1.061349 0.005229 0.223163 -0.003846
    70 -2.278614 0.117939 0.128564 0.006741 0.003470 0.112378
    71 -3.025915 0.116220 0.172111 0.009579 0.004657 0.157970
    72 3.452214 -8.565733 8.081082 0.545556 -0.049137 -1.079910
    73 -3.350010 -27.453904 3.507055 0.434262 -1.472151 2.744443
    74 5.649690 -5.524412 5.911807 0.574761 0.742458 -0.644031
    75 0.732539 -23.331391 0.755663 0.007434 -0.120002 -2.202134
    76 2.122206 -20.327993 -3.244485 -2.287959 -0.310685 0.659477
    77 -1.374485 -9.262422 18.086601 1.555088 0.107883 0.601462
    78 -8.754279 -1.086890 0.546627 0.035635 0.009295 0.552756
    79 -12.998025 -4.541327 0.911779 0.063282 0.002722 0.977088
    80 -2.043255 0.606818 1.114990 -0.011730 -0.096859 -0.012693
    81 -11.361353 -2.877730 0.759615 0.052255 0.006851 0.802390
    82 -11.223621 -2.753091 0.747336 0.051304 0.007107 0.787787
    83 -9.334298 0.401631 3.925049 0.206089 -0.433214 0.484312
    84 -14.082125 -5.596718 1.010979 0.069075 -0.000400 1.074618
    85 -14.466044 -6.263944 1.056148 0.072379 -0.002528 1.132835
    86 -12.941251 -2.880178 -1.897054 -0.218542 -0.448381 1.032082
    87 -13.907586 -5.525063 0.998368 0.068707 -0.000179 1.068249
    88 -14.652028 -6.603405 1.078586 0.073966 -0.003650 1.161618
    89 -16.243864 -9.844277 -4.324760 -0.322627 -0.301606 1.624438
    90 -9.225027 -1.593904 0.591369 0.041175 0.008949 0.635055
    91 -9.886348 -1.911565 0.640723 0.044227 0.008562 0.680661
    92 -0.258639 -22.839502 -2.232331 -0.221408 -0.119116 -2.188844
    93 -1.125188 -12.576318 -0.282795 -1.567407 0.055777 0.060629
    94 -8.733825 -2.142768 -0.225171 -0.000002 -0.000002 0.000000
    95 14.935097 -0.802361 -0.822901 0.001789 0.001016 0.030483
    96 2.575652 -11.325946 1.286796 -0.548801 1.458758 -2.175266
    97 3.244565 -11.142434 0.450473 -0.546676 1.458645 -2.177194
    98 -7.299830 -11.212999 4.990921 -3.001124 0.963725 1.632589
    99 -5.319552 -11.666324 5.222851 -3.022048 0.789986 1.606450
    100 -5.342483 -15.355701 6.643837 -3.041200 -0.603433 1.508353
    101 -7.344716 -15.620144 6.382832 -3.031671 -0.777527 1.492267
    102 8.947678 -2.401023 -0.374521 -0.001519 -0.000920 -0.026310
    103 -13.210305 -6.138274 0.950759 0.092278 -0.023794 1.567424
    104 -16.202722 -14.204305 4.478217 1.510276 0.063891 -0.035615
    105 0.412526 -15.037654 2.690875 -1.411442 -1.156554 1.389450
    106 -0.425136 -14.174111 4.007698 -0.813815 1.482820 -2.417947
    107 4.421607 -14.848300 3.870502 -0.813815 1.482820 -2.417947
end
