version 1
nodes
  0 "v_weapon" -1
  1 "v_weapon.Bip01" 0
  2 "v_weapon.Bip01_Pelvis" 0
  3 "v_weapon.Bip01_Spine" 0
  4 "v_weapon.Bip01_Spine1" 0
  5 "v_weapon.Bip01_Spine2" 0
  6 "v_weapon.Bip01_Spine3" 0
  7 "v_weapon.Bip01_Neck" 0
  8 "v_weapon.Bip01_L_Clavicle" 0
  9 "v_weapon.Bip01_L_UpperArm" 0
  10 "v_weapon.Bip01_L_Forearm" 0
  11 "v_weapon.Bip01_L_Hand" 0
  12 "v_weapon.Bip01_L_ForeTwist" 0
  13 "v_weapon.Bip01_R_Clavicle" 0
  14 "v_weapon.Bip01_R_UpperArm" 0
  15 "v_weapon.Bip01_R_Forearm" 0
  16 "v_weapon.Bip01_R_Hand" 0
  17 "v_weapon.Bip01_R_ForeTwist" 0
  18 "v_weapon.Bip01_L_Finger0" 0
  19 "v_weapon.Bip01_L_Finger01" 0
  20 "v_weapon.Bip01_L_Finger02" 0
  21 "v_weapon.Bip01_L_Finger1" 0
  22 "v_weapon.Bip01_L_Finger11" 0
  23 "v_weapon.Bip01_L_Finger12" 0
  24 "v_weapon.Bip01_L_Finger2" 0
  25 "v_weapon.Bip01_L_Finger21" 0
  26 "v_weapon.Bip01_L_Finger22" 0
  27 "v_weapon.Bip01_L_Finger3" 0
  28 "v_weapon.Bip01_L_Finger31" 0
  29 "v_weapon.Bip01_L_Finger32" 0
  30 "v_weapon.Bip01_L_Finger4" 0
  31 "v_weapon.Bip01_L_Finger41" 0
  32 "v_weapon.Bip01_L_Finger42" 0
  33 "v_weapon.Bip01_R_Finger0" 0
  34 "v_weapon.Bip01_R_Finger01" 0
  35 "v_weapon.Bip01_R_Finger02" 0
  36 "v_weapon.Bip01_R_Finger1" 0
  37 "v_weapon.Bip01_R_Finger11" 0
  38 "v_weapon.Bip01_R_Finger12" 0
  39 "v_weapon.Bip01_R_Finger2" 0
  40 "v_weapon.Bip01_R_Finger21" 0
  41 "v_weapon.Bip01_R_Finger22" 0
  42 "v_weapon.Bip01_R_Finger3" 0
  43 "v_weapon.Bip01_R_Finger31" 0
  44 "v_weapon.Bip01_R_Finger32" 0
  45 "v_weapon.Bip01_R_Finger4" 0
  46 "v_weapon.Bip01_R_Finger41" 0
  47 "v_weapon.Bip01_R_Finger42" 0
  48 "FvARM-bone" 0
  49 "FvARM-bone Pelvis" 48
  50 "FvARM-bone Spine" 49
  51 "FvARM-bone Spine1" 50
  52 "FvARM-bone Neck" 51
  53 "FvARM-bone L Clavicle" 52
  54 "FvARM-bone L UpperArm" 53
  55 "FvARM-bone L ForeArm" 54
  56 "FvARM-bone L Hand" 55
  57 "FvARM-bone L Finger0" 56
  58 "FvARM-bone L Finger01" 57
  59 "FvARM-bone L Finger02" 58
  60 "FvARM-bone L Finger1" 56
  61 "FvARM-bone L Finger11" 60
  62 "FvARM-bone L Finger12" 61
  63 "FvARM-bone L Finger2" 56
  64 "FvARM-bone L Finger21" 63
  65 "FvARM-bone L Finger22" 64
  66 "FvARM-bone L Finger3" 56
  67 "FvARM-bone L Finger31" 66
  68 "FvARM-bone L Finger32" 67
  69 "FvARM-bone L Finger4" 56
  70 "FvARM-bone L Finger41" 69
  71 "FvARM-bone L Finger42" 70
  72 "FvARM-bone L ForeTwist" 54
  73 "FvARM-bone R Clavicle" 52
  74 "FvARM-bone R UpperArm" 73
  75 "FvARM-bone R ForeArm" 74
  76 "FvARM-bone R Hand" 75
  77 "FvARM-bone R Finger0" 76
  78 "FvARM-bone R Finger01" 77
  79 "FvARM-bone R Finger02" 78
  80 "FvARM-bone R Finger1" 76
  81 "FvARM-bone R Finger11" 80
  82 "FvARM-bone R Finger12" 81
  83 "FvARM-bone R Finger2" 76
  84 "FvARM-bone R Finger21" 83
  85 "FvARM-bone R Finger22" 84
  86 "FvARM-bone R Finger3" 76
  87 "FvARM-bone R Finger31" 86
  88 "FvARM-bone R Finger32" 87
  89 "FvARM-bone R Finger4" 76
  90 "FvARM-bone R Finger41" 89
  91 "FvARM-bone R Finger42" 90
  92 "FvARM-bone R ForeTwist" 74
  93 "FvARM-bone Prop1" 48
  94 "Dummy01" 93
  95 "Bone02" 94
  96 "Box001" 95
  97 "Box002" 95
  98 "Box003" 95
  99 "Box005" 95
  100 "Box006" 95
  101 "Box004" 95
  102 "Bone04" 94
  103 "Bone06" 94
  104 "v_weapon.flash" 94
  105 "v_weapon.shelleject" 94
  106 "v_weapon.stattrack" 94
  107 "v_weapon.uid" 94
end
skeleton
  time 0
    0 0.000000 0.000000 0.000000 0.000000 0.000000 0.000000
    1 0.000000 500.000000 0.000000 0.000000 -0.000000 0.000000
    2 0.000000 500.000000 0.000000 0.000000 -0.000000 0.000000
    3 0.000000 500.000000 0.000000 0.000000 -0.000000 0.000000
    4 0.000000 500.000000 0.000000 0.000000 -0.000000 0.000000
    5 0.000000 500.000000 0.000000 0.000000 -0.000000 0.000000
    6 0.000000 500.000000 0.000000 0.000000 -0.000000 0.000000
    7 0.000000 500.000000 0.000000 0.000000 -0.000000 0.000000
    8 0.000000 500.000000 0.000000 0.000000 -0.000000 0.000000
    9 0.000000 500.000000 0.000000 0.000000 -0.000000 0.000000
    10 0.000000 500.000000 0.000000 0.000000 -0.000000 0.000000
    11 0.000000 500.000000 0.000000 0.000000 -0.000000 0.000000
    12 0.000000 500.000000 0.000000 0.000000 -0.000000 0.000000
    13 0.000000 500.000000 0.000000 0.000000 -0.000000 0.000000
    14 0.000000 500.000000 0.000000 0.000000 -0.000000 0.000000
    15 0.000000 500.000000 0.000000 0.000000 -0.000000 0.000000
    16 0.000000 500.000000 0.000000 0.000000 -0.000000 0.000000
    17 0.000000 500.000000 0.000000 0.000000 -0.000000 0.000000
    18 0.000000 500.000000 0.000000 0.000000 -0.000000 0.000000
    19 0.000000 500.000000 0.000000 0.000000 -0.000000 0.000000
    20 0.000000 500.000000 0.000000 0.000000 -0.000000 0.000000
    21 0.000000 500.000000 0.000000 0.000000 -0.000000 0.000000
    22 0.000000 500.000000 0.000000 0.000000 -0.000000 0.000000
    23 0.000000 500.000000 0.000000 0.000000 -0.000000 0.000000
    24 0.000000 500.000000 0.000000 0.000000 -0.000000 0.000000
    25 0.000000 500.000000 0.000000 0.000000 -0.000000 0.000000
    26 0.000000 500.000000 0.000000 0.000000 -0.000000 0.000000
    27 0.000000 500.000000 0.000000 0.000000 -0.000000 0.000000
    28 0.000000 500.000000 0.000000 0.000000 -0.000000 0.000000
    29 0.000000 500.000000 0.000000 0.000000 -0.000000 0.000000
    30 0.000000 500.000000 0.000000 0.000000 -0.000000 0.000000
    31 0.000000 500.000000 0.000000 0.000000 -0.000000 0.000000
    32 0.000000 500.000000 0.000000 0.000000 -0.000000 0.000000
    33 0.000000 500.000000 0.000000 0.000000 -0.000000 0.000000
    34 0.000000 500.000000 0.000000 0.000000 -0.000000 0.000000
    35 0.000000 500.000000 0.000000 0.000000 -0.000000 0.000000
    36 0.000000 500.000000 0.000000 0.000000 -0.000000 0.000000
    37 0.000000 500.000000 0.000000 0.000000 -0.000000 0.000000
    38 0.000000 500.000000 0.000000 0.000000 -0.000000 0.000000
    39 0.000000 500.000000 0.000000 0.000000 -0.000000 0.000000
    40 0.000000 500.000000 0.000000 0.000000 -0.000000 0.000000
    41 0.000000 500.000000 0.000000 0.000000 -0.000000 0.000000
    42 0.000000 500.000000 0.000000 0.000000 -0.000000 0.000000
    43 0.000000 500.000000 0.000000 0.000000 -0.000000 0.000000
    44 0.000000 500.000000 0.000000 0.000000 -0.000000 0.000000
    45 0.000000 500.000000 0.000000 0.000000 -0.000000 0.000000
    46 0.000000 500.000000 0.000000 0.000000 -0.000000 0.000000
    47 0.000000 500.000000 0.000000 0.000000 -0.000000 0.000000
    48 -16.070991 -6.709454 -19.596275 0.092278 -0.023794 1.567426
    49 11.938599 -10.746612 0.711347 -0.563368 1.459520 -2.163298
    50 -4.141211 0.112325 0.237205 0.000050 0.000029 0.000794
    51 -3.530098 0.044573 6.769476 0.470377 0.007022 -0.026235
    52 -8.706138 0.886992 0.476287 0.000099 0.000058 0.001708
    53 6.653750 -28.750932 2.852593 0.128165 1.246123 -3.051839
    54 6.452120 -13.230450 10.886115 0.771797 -0.145407 -1.488301
    55 1.996883 -5.710622 0.079186 -0.031649 -0.043323 -0.816756
    56 1.396611 -24.100199 3.911769 -2.898551 0.022272 0.622197
    57 0.604197 -20.726128 -10.019451 -1.804712 -0.086606 -0.018614
    58 -2.170452 0.087521 0.123311 0.003849 0.002098 0.064950
    59 3.009980 -1.095208 -0.137687 -0.015141 -0.012137 -0.288360
    60 2.740227 -1.159744 -0.537285 0.013057 -0.070108 -0.400976
    61 -1.671479 0.076303 0.094658 0.003145 0.001738 0.053236
    62 -3.178662 0.114999 0.181042 0.009742 0.004721 0.160557
    63 -2.698561 0.802040 0.092741 0.007788 -0.025633 0.004464
    64 -1.467778 0.045664 0.083852 0.001723 0.000980 0.029367
    65 -2.685825 0.119478 0.152209 0.007362 0.003743 0.122433
    66 -2.906987 0.736822 0.623259 0.007418 0.070272 0.001414
    67 -1.978831 0.097280 0.111826 0.004471 0.002407 0.075246
    68 -3.784413 0.085674 0.217295 0.012463 0.005713 0.203485
    69 -3.208888 0.679898 1.061349 0.005229 0.223163 -0.003846
    70 -2.278612 0.117939 0.128564 0.006741 0.003470 0.112378
    71 -3.025915 0.116222 0.172111 0.009579 0.004657 0.157970
    72 1.932042 -5.940992 8.346907 0.567183 -0.032923 -0.849498
    73 -3.350010 -27.453904 3.507055 0.434262 -1.472151 2.744443
    74 6.486428 -6.990677 1.128039 0.107074 0.691298 -1.074202
    75 3.936375 -17.918977 0.384035 -0.017327 -0.101745 -1.741464
    76 0.353317 -23.079543 -2.400857 -2.410986 -0.121551 0.540321
    77 -1.374485 -9.262422 18.086601 1.555088 0.107883 0.601462
    78 -8.754279 -1.086888 0.546627 0.035635 0.009295 0.552756
    79 -12.998027 -4.541329 0.911779 0.063282 0.002722 0.977088
    80 -2.043255 0.606818 1.114990 -0.011730 -0.096859 -0.012693
    81 -11.361353 -2.877730 0.759615 0.052255 0.006851 0.802390
    82 -11.223619 -2.753091 0.747336 0.051304 0.007107 0.787787
    83 -9.334298 0.401631 3.925049 0.206089 -0.433214 0.484312
    84 -14.082125 -5.596718 1.010977 0.069075 -0.000400 1.074618
    85 -14.466044 -6.263944 1.056148 0.072379 -0.002528 1.132835
    86 -12.941251 -2.880178 -1.897054 -0.218542 -0.448381 1.032082
    87 -13.907586 -5.525063 0.998368 0.068707 -0.000179 1.068249
    88 -14.652028 -6.603405 1.078586 0.073966 -0.003650 1.161618
    89 -16.243864 -9.844277 -4.324760 -0.322627 -0.301606 1.624438
    90 -9.225027 -1.593904 0.591369 0.041175 0.008949 0.635055
    91 -9.886348 -1.911565 0.640721 0.044227 0.008562 0.680661
    92 2.384263 -17.814301 -3.254762 -0.301565 -0.099787 -1.725073
    93 -4.293335 -12.645169 0.400283 -1.591349 0.066995 0.111552
    94 -8.800783 -1.644949 0.245324 0.026815 0.051055 -0.010097
    95 14.935097 -0.802359 -0.822901 0.001789 0.001016 0.030483
    96 1.979386 -11.311511 1.320997 -0.548801 1.458758 -2.175266
    97 3.244566 -11.142435 0.450475 -0.546676 1.458645 -2.177194
    98 -7.299831 -11.212999 4.990921 -3.001124 0.963725 1.632589
    99 -5.319551 -11.666324 5.222851 -3.022048 0.789986 1.606450
    100 -5.342483 -15.355701 6.643837 -3.041200 -0.603433 1.508353
    101 -7.344712 -15.620132 6.382818 -3.031669 -0.777526 1.492267
    102 8.947678 -2.401023 -0.374521 -0.001519 -0.000920 -0.026310
    103 -13.210305 -6.138274 0.950759 0.092278 -0.023794 1.567424
    104 -16.202722 -14.204305 4.478217 1.510276 0.063891 -0.035615
    105 0.412526 -15.037654 2.690875 -1.411442 -1.156554 1.389450
    106 -0.425136 -14.174111 4.007698 -0.813815 1.482820 -2.417947
    107 4.421607 -14.848300 3.870502 -0.813815 1.482820 -2.417947
end
