version 1
nodes
  0 "v_weapon" -1
  1 "v_weapon.Bip01" 0
  2 "v_weapon.Bip01_Pelvis" 0
  3 "v_weapon.Bip01_Spine" 0
  4 "v_weapon.Bip01_Spine1" 0
  5 "v_weapon.Bip01_Spine2" 0
  6 "v_weapon.Bip01_Spine3" 0
  7 "v_weapon.Bip01_Neck" 0
  8 "v_weapon.Bip01_L_Clavicle" 0
  9 "v_weapon.Bip01_L_UpperArm" 0
  10 "v_weapon.Bip01_L_Forearm" 0
  11 "v_weapon.Bip01_L_Hand" 0
  12 "v_weapon.Bip01_L_ForeTwist" 0
  13 "v_weapon.Bip01_R_Clavicle" 0
  14 "v_weapon.Bip01_R_UpperArm" 0
  15 "v_weapon.Bip01_R_Forearm" 0
  16 "v_weapon.Bip01_R_Hand" 0
  17 "v_weapon.Bip01_R_ForeTwist" 0
  18 "v_weapon.Bip01_L_Finger0" 0
  19 "v_weapon.Bip01_L_Finger01" 0
  20 "v_weapon.Bip01_L_Finger02" 0
  21 "v_weapon.Bip01_L_Finger1" 0
  22 "v_weapon.Bip01_L_Finger11" 0
  23 "v_weapon.Bip01_L_Finger12" 0
  24 "v_weapon.Bip01_L_Finger2" 0
  25 "v_weapon.Bip01_L_Finger21" 0
  26 "v_weapon.Bip01_L_Finger22" 0
  27 "v_weapon.Bip01_L_Finger3" 0
  28 "v_weapon.Bip01_L_Finger31" 0
  29 "v_weapon.Bip01_L_Finger32" 0
  30 "v_weapon.Bip01_L_Finger4" 0
  31 "v_weapon.Bip01_L_Finger41" 0
  32 "v_weapon.Bip01_L_Finger42" 0
  33 "v_weapon.Bip01_R_Finger0" 0
  34 "v_weapon.Bip01_R_Finger01" 0
  35 "v_weapon.Bip01_R_Finger02" 0
  36 "v_weapon.Bip01_R_Finger1" 0
  37 "v_weapon.Bip01_R_Finger11" 0
  38 "v_weapon.Bip01_R_Finger12" 0
  39 "v_weapon.Bip01_R_Finger2" 0
  40 "v_weapon.Bip01_R_Finger21" 0
  41 "v_weapon.Bip01_R_Finger22" 0
  42 "v_weapon.Bip01_R_Finger3" 0
  43 "v_weapon.Bip01_R_Finger31" 0
  44 "v_weapon.Bip01_R_Finger32" 0
  45 "v_weapon.Bip01_R_Finger4" 0
  46 "v_weapon.Bip01_R_Finger41" 0
  47 "v_weapon.Bip01_R_Finger42" 0
  48 "FvARM-bone" 0
  49 "FvARM-bone Pelvis" 48
  50 "FvARM-bone Spine" 49
  51 "FvARM-bone Spine1" 50
  52 "FvARM-bone Neck" 51
  53 "FvARM-bone L Clavicle" 52
  54 "FvARM-bone L UpperArm" 53
  55 "FvARM-bone L ForeArm" 54
  56 "FvARM-bone L Hand" 55
  57 "FvARM-bone L Finger0" 56
  58 "FvARM-bone L Finger01" 57
  59 "FvARM-bone L Finger02" 58
  60 "FvARM-bone L Finger1" 56
  61 "FvARM-bone L Finger11" 60
  62 "FvARM-bone L Finger12" 61
  63 "FvARM-bone L Finger2" 56
  64 "FvARM-bone L Finger21" 63
  65 "FvARM-bone L Finger22" 64
  66 "FvARM-bone L Finger3" 56
  67 "FvARM-bone L Finger31" 66
  68 "FvARM-bone L Finger32" 67
  69 "FvARM-bone L Finger4" 56
  70 "FvARM-bone L Finger41" 69
  71 "FvARM-bone L Finger42" 70
  72 "FvARM-bone L ForeTwist" 54
  73 "FvARM-bone R Clavicle" 52
  74 "FvARM-bone R UpperArm" 73
  75 "FvARM-bone R ForeArm" 74
  76 "FvARM-bone R Hand" 75
  77 "FvARM-bone R Finger0" 76
  78 "FvARM-bone R Finger01" 77
  79 "FvARM-bone R Finger02" 78
  80 "FvARM-bone R Finger1" 76
  81 "FvARM-bone R Finger11" 80
  82 "FvARM-bone R Finger12" 81
  83 "FvARM-bone R Finger2" 76
  84 "FvARM-bone R Finger21" 83
  85 "FvARM-bone R Finger22" 84
  86 "FvARM-bone R Finger3" 76
  87 "FvARM-bone R Finger31" 86
  88 "FvARM-bone R Finger32" 87
  89 "FvARM-bone R Finger4" 76
  90 "FvARM-bone R Finger41" 89
  91 "FvARM-bone R Finger42" 90
  92 "FvARM-bone R ForeTwist" 74
  93 "FvARM-bone Prop1" 48
  94 "Dummy01" 93
  95 "Bone02" 94
  96 "Box001" 95
  97 "Box002" 95
  98 "Box003" 95
  99 "Box005" 95
  100 "Box006" 95
  101 "Box004" 95
  102 "Bone04" 94
  103 "Bone06" 94
  104 "v_weapon.flash" 94
  105 "v_weapon.shelleject" 94
  106 "v_weapon.stattrack" 94
  107 "v_weapon.uid" 94
end
skeleton
  time 0
    0 0.000000 0.000000 0.000000 0.000000 0.000000 0.000000
    1 0.000000 -500.000000 0.000000 0.000000 -0.000000 0.000000
    2 0.000000 -500.000000 0.000000 0.000000 -0.000000 0.000000
    3 0.000000 -500.000000 0.000000 0.000000 -0.000000 0.000000
    4 0.000000 -500.000000 0.000000 0.000000 -0.000000 0.000000
    5 0.000000 -500.000000 0.000000 0.000000 -0.000000 0.000000
    6 0.000000 -500.000000 0.000000 0.000000 -0.000000 0.000000
    7 0.000000 -500.000000 0.000000 0.000000 -0.000000 0.000000
    8 0.000000 -500.000000 0.000000 0.000000 -0.000000 0.000000
    9 0.000000 -500.000000 0.000000 0.000000 -0.000000 0.000000
    10 0.000000 -500.000000 0.000000 0.000000 -0.000000 0.000000
    11 0.000000 -500.000000 0.000000 0.000000 -0.000000 0.000000
    12 0.000000 -500.000000 0.000000 0.000000 -0.000000 0.000000
    13 0.000000 -500.000000 0.000000 0.000000 -0.000000 0.000000
    14 0.000000 -500.000000 0.000000 0.000000 -0.000000 0.000000
    15 0.000000 -500.000000 0.000000 0.000000 -0.000000 0.000000
    16 0.000000 -500.000000 0.000000 0.000000 -0.000000 0.000000
    17 0.000000 -500.000000 0.000000 0.000000 -0.000000 0.000000
    18 0.000000 -500.000000 0.000000 0.000000 -0.000000 0.000000
    19 0.000000 -500.000000 0.000000 0.000000 -0.000000 0.000000
    20 0.000000 -500.000000 0.000000 0.000000 -0.000000 0.000000
    21 0.000000 -500.000000 0.000000 0.000000 -0.000000 0.000000
    22 0.000000 -500.000000 0.000000 0.000000 -0.000000 0.000000
    23 0.000000 -500.000000 0.000000 0.000000 -0.000000 0.000000
    24 0.000000 -500.000000 0.000000 0.000000 -0.000000 0.000000
    25 0.000000 -500.000000 0.000000 0.000000 -0.000000 0.000000
    26 0.000000 -500.000000 0.000000 0.000000 -0.000000 0.000000
    27 0.000000 -500.000000 0.000000 0.000000 -0.000000 0.000000
    28 0.000000 -500.000000 0.000000 0.000000 -0.000000 0.000000
    29 0.000000 -500.000000 0.000000 0.000000 -0.000000 0.000000
    30 0.000000 -500.000000 0.000000 0.000000 -0.000000 0.000000
    31 0.000000 -500.000000 0.000000 0.000000 -0.000000 0.000000
    32 0.000000 -500.000000 0.000000 0.000000 -0.000000 0.000000
    33 0.000000 -500.000000 0.000000 0.000000 -0.000000 0.000000
    34 0.000000 -500.000000 0.000000 0.000000 -0.000000 0.000000
    35 0.000000 -500.000000 0.000000 0.000000 -0.000000 0.000000
    36 0.000000 -500.000000 0.000000 0.000000 -0.000000 0.000000
    37 0.000000 -500.000000 0.000000 0.000000 -0.000000 0.000000
    38 0.000000 -500.000000 0.000000 0.000000 -0.000000 0.000000
    39 0.000000 -500.000000 0.000000 0.000000 -0.000000 0.000000
    40 0.000000 -500.000000 0.000000 0.000000 -0.000000 0.000000
    41 0.000000 -500.000000 0.000000 0.000000 -0.000000 0.000000
    42 0.000000 -500.000000 0.000000 0.000000 -0.000000 0.000000
    43 0.000000 -500.000000 0.000000 0.000000 -0.000000 0.000000
    44 0.000000 -500.000000 0.000000 0.000000 -0.000000 0.000000
    45 0.000000 -500.000000 0.000000 0.000000 -0.000000 0.000000
    46 0.000000 -500.000000 0.000000 0.000000 -0.000000 0.000000
    47 0.000000 -500.000000 0.000000 0.000000 -0.000000 0.000000
    48 -0.738544 -1.689493 -13.377600 0.000048 -1.570796 0.000000
    49 0.677757 6.276403 0.247146 1.570794 0.000002 1.570796
    50 0.336739 0.000010 -0.009823 0.000004 -0.000796 0.000002
    51 0.319871 -2.471079 0.570881 -0.471238 0.000109 0.000405
    52 0.707651 -0.000000 -0.073745 -0.000000 -0.001712 -0.000000
    53 1.242609 2.781439 -0.580376 3.026210 -0.511891 1.807420
    54 6.655010 0.203103 -0.668997 1.798402 -1.081847 -2.513647
    55 -5.879421 0.000087 -2.323110 0.000143 -1.043318 -0.000201
    56 -9.947659 -10.996346 -18.945044 -0.220472 0.744851 0.021145
    57 -5.684972 3.779439 1.476552 -1.242786 0.212729 -0.290361
    58 0.198211 0.006174 0.070012 0.000578 -0.030387 -0.002598
    59 -2.248398 -0.187773 -1.663940 -0.019222 -0.392444 0.055921
    60 -4.894115 -0.401862 -0.274541 -0.039826 0.399329 -0.074409
    61 0.040419 -0.000006 -0.000977 -0.000000 -0.053354 0.000001
    62 -0.030300 0.000007 -0.008753 -0.000000 -0.160897 -0.000001
    63 0.245060 -0.020783 -0.055887 0.007558 -0.004037 -0.025802
    64 0.066910 -0.000011 -0.000281 0.000000 -0.029435 -0.000001
    65 -0.001788 0.000003 -0.005098 -0.000000 -0.122695 0.000001
    66 0.143196 0.032904 -0.049458 0.007305 -0.004235 0.070148
    67 0.025763 -0.000001 -0.001921 -0.000000 -0.075412 -0.000001
    68 -0.058026 0.000003 -0.014055 0.000000 -0.203909 0.000001
    69 -0.024216 0.063115 -0.045410 0.005958 -0.004224 0.223135
    70 -0.016885 0.000001 -0.004290 0.000000 -0.112622 0.000001
    71 -0.038112 0.000002 -0.008488 0.000000 -0.158305 -0.000001
    72 2.117538 1.284861 -6.991346 -0.579323 -1.043181 0.000804
    73 -1.138703 -0.966688 -1.345274 3.139139 -0.000517 -1.777923
    74 -0.770013 9.931003 7.407234 -1.052850 -0.386772 0.842580
    75 -9.971370 -0.001062 -8.164673 -3.141360 -0.945822 3.141522
    76 -7.832939 -0.911680 -10.238772 -1.101180 0.552118 -0.491537
    77 4.382911 -1.831804 3.197454 1.167185 -0.579520 0.507807
    78 3.924961 0.105666 0.190304 0.001709 0.452892 0.076320
    79 6.733383 0.408332 -1.485158 0.055999 0.858842 0.172159
    80 0.916941 0.908526 -0.068910 -0.007264 0.016588 0.217858
    81 7.544448 -1.067492 7.134166 -0.111667 -0.797293 0.033639
    82 6.936358 -0.935318 5.271840 -0.098497 -0.783367 0.038254
    83 7.854782 0.617462 5.958544 -0.433400 -0.421631 0.548369
    84 9.141426 -0.619971 10.893036 -0.081528 -1.074706 0.034115
    85 9.249315 -0.607752 10.202705 -0.092679 -1.132780 0.049299
    86 10.161109 5.528998 9.836301 -0.191323 -0.919339 0.539542
    87 9.085999 1.139484 9.786001 0.249883 -1.051719 -0.166235
    88 9.550507 1.127295 8.626775 0.299378 -1.141215 -0.234710
    89 9.986714 5.725967 17.488382 1.203458 -1.389926 -0.823603
    90 5.553122 2.613726 3.609406 0.261582 -0.576364 -0.097390
    91 5.902875 2.612604 2.974607 0.274001 -0.617190 -0.139028
    92 -7.477194 -1.202159 -6.362117 -2.912952 -0.945807 3.141211
    93 0.228633 0.462098 -2.188844 -1.571477 -0.102457 0.013491
    94 0.595032 -0.149190 0.177846 0.000675 0.013421 0.102468
    95 -1.274352 0.001525 0.072167 0.000000 -0.030552 0.000000
    96 1.505604 -1.034131 0.353609 1.597298 0.000007 1.570792
    97 1.422686 -1.098473 0.329797 1.601349 0.000000 1.570796
    98 2.296393 -1.632542 0.144961 1.610671 -0.697742 1.545171
    99 2.132183 -1.781134 0.045321 1.618307 -0.872109 1.534408
    100 2.091531 -1.872030 -1.284615 -1.618305 -0.872107 -1.534407
    101 2.247945 -1.765500 -1.439999 -1.610669 -0.697738 -1.545169
    102 -0.682287 0.005207 0.193103 0.000000 0.026369 0.000000
    103 -0.868667 -0.002279 -1.146341 3.141164 -1.570794 -3.141164
    104 7.539680 -7.251782 -41.453824 -1.564132 1.555263 -1.563287
    105 8.015893 -8.246290 -25.883332 -1.549120 0.057181 -1.281358
    106 8.015893 -8.246290 -25.883332 -1.549120 0.057181 -1.281358
    107 7.539680 -7.251782 -41.453824 -1.564132 1.555263 -1.563287
  time 1
    0 0.000000 0.000000 0.000000 0.000000 0.000000 0.000000
    1 0.000000 -500.000000 0.000000 0.000000 -0.000000 0.000000
    2 0.000000 -500.000000 0.000000 0.000000 -0.000000 0.000000
    3 0.000000 -500.000000 0.000000 0.000000 -0.000000 0.000000
    4 0.000000 -500.000000 0.000000 0.000000 -0.000000 0.000000
    5 0.000000 -500.000000 0.000000 0.000000 -0.000000 0.000000
    6 0.000000 -500.000000 0.000000 0.000000 -0.000000 0.000000
    7 0.000000 -500.000000 0.000000 0.000000 -0.000000 0.000000
    8 0.000000 -500.000000 0.000000 0.000000 -0.000000 0.000000
    9 0.000000 -500.000000 0.000000 0.000000 -0.000000 0.000000
    10 0.000000 -500.000000 0.000000 0.000000 -0.000000 0.000000
    11 0.000000 -500.000000 0.000000 0.000000 -0.000000 0.000000
    12 0.000000 -500.000000 0.000000 0.000000 -0.000000 0.000000
    13 0.000000 -500.000000 0.000000 0.000000 -0.000000 0.000000
    14 0.000000 -500.000000 0.000000 0.000000 -0.000000 0.000000
    15 0.000000 -500.000000 0.000000 0.000000 -0.000000 0.000000
    16 0.000000 -500.000000 0.000000 0.000000 -0.000000 0.000000
    17 0.000000 -500.000000 0.000000 0.000000 -0.000000 0.000000
    18 0.000000 -500.000000 0.000000 0.000000 -0.000000 0.000000
    19 0.000000 -500.000000 0.000000 0.000000 -0.000000 0.000000
    20 0.000000 -500.000000 0.000000 0.000000 -0.000000 0.000000
    21 0.000000 -500.000000 0.000000 0.000000 -0.000000 0.000000
    22 0.000000 -500.000000 0.000000 0.000000 -0.000000 0.000000
    23 0.000000 -500.000000 0.000000 0.000000 -0.000000 0.000000
    24 0.000000 -500.000000 0.000000 0.000000 -0.000000 0.000000
    25 0.000000 -500.000000 0.000000 0.000000 -0.000000 0.000000
    26 0.000000 -500.000000 0.000000 0.000000 -0.000000 0.000000
    27 0.000000 -500.000000 0.000000 0.000000 -0.000000 0.000000
    28 0.000000 -500.000000 0.000000 0.000000 -0.000000 0.000000
    29 0.000000 -500.000000 0.000000 0.000000 -0.000000 0.000000
    30 0.000000 -500.000000 0.000000 0.000000 -0.000000 0.000000
    31 0.000000 -500.000000 0.000000 0.000000 -0.000000 0.000000
    32 0.000000 -500.000000 0.000000 0.000000 -0.000000 0.000000
    33 0.000000 -500.000000 0.000000 0.000000 -0.000000 0.000000
    34 0.000000 -500.000000 0.000000 0.000000 -0.000000 0.000000
    35 0.000000 -500.000000 0.000000 0.000000 -0.000000 0.000000
    36 0.000000 -500.000000 0.000000 0.000000 -0.000000 0.000000
    37 0.000000 -500.000000 0.000000 0.000000 -0.000000 0.000000
    38 0.000000 -500.000000 0.000000 0.000000 -0.000000 0.000000
    39 0.000000 -500.000000 0.000000 0.000000 -0.000000 0.000000
    40 0.000000 -500.000000 0.000000 0.000000 -0.000000 0.000000
    41 0.000000 -500.000000 0.000000 0.000000 -0.000000 0.000000
    42 0.000000 -500.000000 0.000000 0.000000 -0.000000 0.000000
    43 0.000000 -500.000000 0.000000 0.000000 -0.000000 0.000000
    44 0.000000 -500.000000 0.000000 0.000000 -0.000000 0.000000
    45 0.000000 -500.000000 0.000000 0.000000 -0.000000 0.000000
    46 0.000000 -500.000000 0.000000 0.000000 -0.000000 0.000000
    47 0.000000 -500.000000 0.000000 0.000000 -0.000000 0.000000
    48 -0.738555 -1.689494 -13.391091 0.000048 -1.570796 0.000000
    49 0.677757 6.276403 0.247146 1.570794 0.000002 1.570796
    50 0.336739 0.000010 -0.009823 0.000004 -0.000796 0.000002
    51 0.319871 -2.471079 0.570881 -0.471238 0.000109 0.000405
    52 0.707647 -0.000000 -0.073757 -0.000000 -0.001711 -0.000000
    53 1.242609 2.781439 -0.580376 3.026210 -0.511891 1.807420
    54 6.333936 0.168360 -0.419054 1.782483 -1.066618 -2.481172
    55 -6.462902 0.000155 -3.120473 0.000231 -1.186777 -0.000295
    56 -11.358175 -10.810261 -17.794633 -0.172907 0.859840 0.070645
    57 -5.684972 3.779439 1.476552 -1.242786 0.212729 -0.290361
    58 0.198211 0.006174 0.070012 0.000578 -0.030387 -0.002598
    59 -2.248398 -0.187773 -1.663940 -0.019222 -0.392444 0.055921
    60 -4.894115 -0.401862 -0.274541 -0.039826 0.399329 -0.074409
    61 0.040419 -0.000006 -0.000977 -0.000000 -0.053354 0.000001
    62 -0.030300 0.000007 -0.008753 -0.000000 -0.160897 -0.000001
    63 0.245060 -0.020783 -0.055887 0.007558 -0.004037 -0.025802
    64 0.066898 -0.000012 -0.000284 -0.000000 -0.029434 -0.000001
    65 -0.001776 0.000004 -0.005096 -0.000000 -0.122696 0.000001
    66 0.143196 0.032904 -0.049458 0.007305 -0.004235 0.070148
    67 0.025763 -0.000001 -0.001921 -0.000000 -0.075412 -0.000001
    68 -0.058026 0.000003 -0.014055 0.000000 -0.203909 0.000001
    69 -0.024216 0.063115 -0.045410 0.005958 -0.004224 0.223135
    70 -0.016885 0.000001 -0.004290 0.000000 -0.112622 0.000001
    71 -0.038112 0.000002 -0.008488 0.000000 -0.158305 -0.000001
    72 1.855147 1.326172 -6.516081 -0.566233 -1.186644 0.004927
    73 -1.138703 -0.966688 -1.345274 3.139139 -0.000517 -1.777923
    74 -0.770013 9.931003 7.407234 -1.052850 -0.386772 0.842580
    75 -9.971370 -0.001062 -8.164673 -3.141360 -0.945822 3.141522
    76 -7.832931 -0.911682 -10.238774 -1.101180 0.552117 -0.491536
    77 4.382911 -1.831804 3.197454 1.167185 -0.579520 0.507807
    78 3.924961 0.105666 0.190304 0.001709 0.452892 0.076320
    79 6.733383 0.408332 -1.485158 0.055999 0.858842 0.172159
    80 0.916941 0.908526 -0.068910 -0.007264 0.016588 0.217858
    81 7.544448 -1.067492 7.134166 -0.111667 -0.797293 0.033639
    82 6.936358 -0.935318 5.271840 -0.098497 -0.783367 0.038254
    83 7.854782 0.617462 5.958544 -0.433400 -0.421631 0.548369
    84 9.141426 -0.619971 10.893036 -0.081528 -1.074706 0.034115
    85 9.249315 -0.607752 10.202705 -0.092679 -1.132780 0.049299
    86 10.161109 5.528998 9.836301 -0.191323 -0.919339 0.539542
    87 9.085999 1.139484 9.786001 0.249883 -1.051719 -0.166235
    88 9.550507 1.127295 8.626775 0.299378 -1.141215 -0.234710
    89 9.986714 5.725967 17.488382 1.203458 -1.389926 -0.823603
    90 5.553122 2.613726 3.609406 0.261582 -0.576364 -0.097390
    91 5.902875 2.612604 2.974607 0.274001 -0.617190 -0.139028
    92 -7.477194 -1.202159 -6.362117 -2.912952 -0.945807 3.141211
    93 0.228633 0.462098 -2.188844 -1.571477 -0.102457 0.013491
    94 0.680255 -0.140430 0.292343 0.000657 0.035238 0.102482
    95 -1.274352 0.001525 0.072167 0.000000 -0.030552 0.000000
    96 1.489276 -1.034146 0.354173 1.597298 0.000007 1.570792
    97 1.422686 -1.098473 0.329797 1.601349 0.000000 1.570796
    98 2.296393 -1.632542 0.144962 1.610671 -0.697742 1.545171
    99 2.132183 -1.781134 0.045321 1.618307 -0.872109 1.534408
    100 2.091531 -1.872030 -1.284615 -1.618305 -0.872107 -1.534407
    101 2.247945 -1.765500 -1.439999 -1.610669 -0.697738 -1.545169
    102 -0.682287 0.005207 0.193103 0.000000 0.026369 0.000000
    103 -0.868667 -0.002279 -1.146341 3.141164 -1.570794 -3.141164
    104 7.539680 -7.251782 -41.453824 -1.564132 1.555263 -1.563287
    105 8.015893 -8.246290 -25.883332 -1.549120 0.057181 -1.281358
    106 8.015893 -8.246290 -25.883332 -1.549120 0.057181 -1.281358
    107 7.539680 -7.251782 -41.453824 -1.564132 1.555263 -1.563287
  time 2
    0 0.000000 0.000000 0.000000 0.000000 0.000000 0.000000
    1 0.000000 -500.000000 0.000000 0.000000 -0.000000 0.000000
    2 0.000000 -500.000000 0.000000 0.000000 -0.000000 0.000000
    3 0.000000 -500.000000 0.000000 0.000000 -0.000000 0.000000
    4 0.000000 -500.000000 0.000000 0.000000 -0.000000 0.000000
    5 0.000000 -500.000000 0.000000 0.000000 -0.000000 0.000000
    6 0.000000 -500.000000 0.000000 0.000000 -0.000000 0.000000
    7 0.000000 -500.000000 0.000000 0.000000 -0.000000 0.000000
    8 0.000000 -500.000000 0.000000 0.000000 -0.000000 0.000000
    9 0.000000 -500.000000 0.000000 0.000000 -0.000000 0.000000
    10 0.000000 -500.000000 0.000000 0.000000 -0.000000 0.000000
    11 0.000000 -500.000000 0.000000 0.000000 -0.000000 0.000000
    12 0.000000 -500.000000 0.000000 0.000000 -0.000000 0.000000
    13 0.000000 -500.000000 0.000000 0.000000 -0.000000 0.000000
    14 0.000000 -500.000000 0.000000 0.000000 -0.000000 0.000000
    15 0.000000 -500.000000 0.000000 0.000000 -0.000000 0.000000
    16 0.000000 -500.000000 0.000000 0.000000 -0.000000 0.000000
    17 0.000000 -500.000000 0.000000 0.000000 -0.000000 0.000000
    18 0.000000 -500.000000 0.000000 0.000000 -0.000000 0.000000
    19 0.000000 -500.000000 0.000000 0.000000 -0.000000 0.000000
    20 0.000000 -500.000000 0.000000 0.000000 -0.000000 0.000000
    21 0.000000 -500.000000 0.000000 0.000000 -0.000000 0.000000
    22 0.000000 -500.000000 0.000000 0.000000 -0.000000 0.000000
    23 0.000000 -500.000000 0.000000 0.000000 -0.000000 0.000000
    24 0.000000 -500.000000 0.000000 0.000000 -0.000000 0.000000
    25 0.000000 -500.000000 0.000000 0.000000 -0.000000 0.000000
    26 0.000000 -500.000000 0.000000 0.000000 -0.000000 0.000000
    27 0.000000 -500.000000 0.000000 0.000000 -0.000000 0.000000
    28 0.000000 -500.000000 0.000000 0.000000 -0.000000 0.000000
    29 0.000000 -500.000000 0.000000 0.000000 -0.000000 0.000000
    30 0.000000 -500.000000 0.000000 0.000000 -0.000000 0.000000
    31 0.000000 -500.000000 0.000000 0.000000 -0.000000 0.000000
    32 0.000000 -500.000000 0.000000 0.000000 -0.000000 0.000000
    33 0.000000 -500.000000 0.000000 0.000000 -0.000000 0.000000
    34 0.000000 -500.000000 0.000000 0.000000 -0.000000 0.000000
    35 0.000000 -500.000000 0.000000 0.000000 -0.000000 0.000000
    36 0.000000 -500.000000 0.000000 0.000000 -0.000000 0.000000
    37 0.000000 -500.000000 0.000000 0.000000 -0.000000 0.000000
    38 0.000000 -500.000000 0.000000 0.000000 -0.000000 0.000000
    39 0.000000 -500.000000 0.000000 0.000000 -0.000000 0.000000
    40 0.000000 -500.000000 0.000000 0.000000 -0.000000 0.000000
    41 0.000000 -500.000000 0.000000 0.000000 -0.000000 0.000000
    42 0.000000 -500.000000 0.000000 0.000000 -0.000000 0.000000
    43 0.000000 -500.000000 0.000000 0.000000 -0.000000 0.000000
    44 0.000000 -500.000000 0.000000 0.000000 -0.000000 0.000000
    45 0.000000 -500.000000 0.000000 0.000000 -0.000000 0.000000
    46 0.000000 -500.000000 0.000000 0.000000 -0.000000 0.000000
    47 0.000000 -500.000000 0.000000 0.000000 -0.000000 0.000000
    48 -0.738567 -1.689495 -13.404582 0.000048 -1.570796 0.000000
    49 0.677757 6.276403 0.247146 1.570794 0.000002 1.570796
    50 0.336739 0.000010 -0.009823 0.000004 -0.000796 0.000002
    51 0.319871 -2.471079 0.570881 -0.471238 0.000109 0.000405
    52 0.707642 -0.000000 -0.073770 -0.000000 -0.001710 0.000000
    53 1.242609 2.781439 -0.580376 3.026210 -0.511891 1.807420
    54 6.011689 0.123892 -0.172158 1.767997 -1.051155 -2.450063
    55 -6.926393 0.000234 -3.993064 0.000427 -1.330236 -0.000497
    56 -12.627736 -10.678815 -16.483694 -0.107695 0.972732 0.137711
    57 -5.684972 3.779439 1.476552 -1.242786 0.212729 -0.290361
    58 0.198211 0.006174 0.070012 0.000578 -0.030387 -0.002598
    59 -2.248398 -0.187773 -1.663940 -0.019222 -0.392444 0.055921
    60 -4.894115 -0.401862 -0.274541 -0.039826 0.399329 -0.074409
    61 0.040419 -0.000006 -0.000977 -0.000000 -0.053354 0.000001
    62 -0.030300 0.000007 -0.008753 -0.000000 -0.160897 -0.000001
    63 0.245060 -0.020783 -0.055887 0.007558 -0.004037 -0.025802
    64 0.066886 -0.000012 -0.000287 -0.000000 -0.029433 -0.000001
    65 -0.001764 0.000005 -0.005093 0.000000 -0.122697 0.000001
    66 0.143196 0.032904 -0.049458 0.007305 -0.004235 0.070148
    67 0.025763 -0.000001 -0.001921 -0.000000 -0.075412 -0.000001
    68 -0.058026 0.000003 -0.014055 0.000000 -0.203909 0.000001
    69 -0.024216 0.063115 -0.045410 0.005958 -0.004224 0.223135
    70 -0.016885 0.000001 -0.004290 0.000000 -0.112622 0.000001
    71 -0.038112 0.000002 -0.008488 0.000000 -0.158305 -0.000001
    72 1.526897 1.359975 -6.083019 -0.548125 -1.330117 0.003558
    73 -1.138703 -0.966688 -1.345274 3.139139 -0.000517 -1.777923
    74 -0.770013 9.931003 7.407234 -1.052850 -0.386772 0.842580
    75 -9.971370 -0.001062 -8.164673 -3.141360 -0.945822 3.141522
    76 -7.832923 -0.911684 -10.238777 -1.101179 0.552117 -0.491536
    77 4.382911 -1.831804 3.197454 1.167185 -0.579520 0.507807
    78 3.924961 0.105666 0.190304 0.001709 0.452892 0.076320
    79 6.733383 0.408332 -1.485158 0.055999 0.858842 0.172159
    80 0.916941 0.908526 -0.068910 -0.007264 0.016588 0.217858
    81 7.544448 -1.067492 7.134166 -0.111667 -0.797293 0.033639
    82 6.936358 -0.935318 5.271840 -0.098497 -0.783367 0.038254
    83 7.854782 0.617462 5.958544 -0.433400 -0.421631 0.548369
    84 9.141426 -0.619971 10.893036 -0.081528 -1.074706 0.034115
    85 9.249315 -0.607752 10.202705 -0.092679 -1.132780 0.049299
    86 10.161109 5.528998 9.836301 -0.191323 -0.919339 0.539542
    87 9.085999 1.139484 9.786001 0.249883 -1.051719 -0.166235
    88 9.550507 1.127295 8.626775 0.299378 -1.141215 -0.234710
    89 9.986714 5.725967 17.488382 1.203458 -1.389926 -0.823603
    90 5.553122 2.613726 3.609406 0.261582 -0.576364 -0.097390
    91 5.902875 2.612604 2.974607 0.274001 -0.617190 -0.139028
    92 -7.477194 -1.202159 -6.362117 -2.912952 -0.945807 3.141211
    93 0.228633 0.462098 -2.188844 -1.571477 -0.102457 0.013491
    94 0.768257 -0.131380 0.403460 0.000639 0.057055 0.102495
    95 -1.274352 0.001525 0.072167 0.000000 -0.030552 0.000000
    96 1.472949 -1.034160 0.354736 1.597298 0.000007 1.570792
    97 1.422686 -1.098473 0.329797 1.601349 0.000000 1.570796
    98 2.296393 -1.632542 0.144962 1.610671 -0.697742 1.545171
    99 2.132183 -1.781134 0.045321 1.618307 -0.872109 1.534408
    100 2.091531 -1.872030 -1.284615 -1.618305 -0.872107 -1.534407
    101 2.247945 -1.765500 -1.439999 -1.610669 -0.697738 -1.545169
    102 -0.682287 0.005207 0.193103 0.000000 0.026369 0.000000
    103 -0.868667 -0.002279 -1.146341 3.141164 -1.570794 -3.141164
    104 7.539680 -7.251782 -41.453824 -1.564132 1.555263 -1.563287
    105 8.015893 -8.246290 -25.883332 -1.549120 0.057181 -1.281358
    106 8.015893 -8.246290 -25.883332 -1.549120 0.057181 -1.281358
    107 7.539680 -7.251782 -41.453824 -1.564132 1.555263 -1.563287
  time 3
    0 0.000000 0.000000 0.000000 0.000000 0.000000 0.000000
    1 0.000000 -500.000000 0.000000 0.000000 -0.000000 0.000000
    2 0.000000 -500.000000 0.000000 0.000000 -0.000000 0.000000
    3 0.000000 -500.000000 0.000000 0.000000 -0.000000 0.000000
    4 0.000000 -500.000000 0.000000 0.000000 -0.000000 0.000000
    5 0.000000 -500.000000 0.000000 0.000000 -0.000000 0.000000
    6 0.000000 -500.000000 0.000000 0.000000 -0.000000 0.000000
    7 0.000000 -500.000000 0.000000 0.000000 -0.000000 0.000000
    8 0.000000 -500.000000 0.000000 0.000000 -0.000000 0.000000
    9 0.000000 -500.000000 0.000000 0.000000 -0.000000 0.000000
    10 0.000000 -500.000000 0.000000 0.000000 -0.000000 0.000000
    11 0.000000 -500.000000 0.000000 0.000000 -0.000000 0.000000
    12 0.000000 -500.000000 0.000000 0.000000 -0.000000 0.000000
    13 0.000000 -500.000000 0.000000 0.000000 -0.000000 0.000000
    14 0.000000 -500.000000 0.000000 0.000000 -0.000000 0.000000
    15 0.000000 -500.000000 0.000000 0.000000 -0.000000 0.000000
    16 0.000000 -500.000000 0.000000 0.000000 -0.000000 0.000000
    17 0.000000 -500.000000 0.000000 0.000000 -0.000000 0.000000
    18 0.000000 -500.000000 0.000000 0.000000 -0.000000 0.000000
    19 0.000000 -500.000000 0.000000 0.000000 -0.000000 0.000000
    20 0.000000 -500.000000 0.000000 0.000000 -0.000000 0.000000
    21 0.000000 -500.000000 0.000000 0.000000 -0.000000 0.000000
    22 0.000000 -500.000000 0.000000 0.000000 -0.000000 0.000000
    23 0.000000 -500.000000 0.000000 0.000000 -0.000000 0.000000
    24 0.000000 -500.000000 0.000000 0.000000 -0.000000 0.000000
    25 0.000000 -500.000000 0.000000 0.000000 -0.000000 0.000000
    26 0.000000 -500.000000 0.000000 0.000000 -0.000000 0.000000
    27 0.000000 -500.000000 0.000000 0.000000 -0.000000 0.000000
    28 0.000000 -500.000000 0.000000 0.000000 -0.000000 0.000000
    29 0.000000 -500.000000 0.000000 0.000000 -0.000000 0.000000
    30 0.000000 -500.000000 0.000000 0.000000 -0.000000 0.000000
    31 0.000000 -500.000000 0.000000 0.000000 -0.000000 0.000000
    32 0.000000 -500.000000 0.000000 0.000000 -0.000000 0.000000
    33 0.000000 -500.000000 0.000000 0.000000 -0.000000 0.000000
    34 0.000000 -500.000000 0.000000 0.000000 -0.000000 0.000000
    35 0.000000 -500.000000 0.000000 0.000000 -0.000000 0.000000
    36 0.000000 -500.000000 0.000000 0.000000 -0.000000 0.000000
    37 0.000000 -500.000000 0.000000 0.000000 -0.000000 0.000000
    38 0.000000 -500.000000 0.000000 0.000000 -0.000000 0.000000
    39 0.000000 -500.000000 0.000000 0.000000 -0.000000 0.000000
    40 0.000000 -500.000000 0.000000 0.000000 -0.000000 0.000000
    41 0.000000 -500.000000 0.000000 0.000000 -0.000000 0.000000
    42 0.000000 -500.000000 0.000000 0.000000 -0.000000 0.000000
    43 0.000000 -500.000000 0.000000 0.000000 -0.000000 0.000000
    44 0.000000 -500.000000 0.000000 0.000000 -0.000000 0.000000
    45 0.000000 -500.000000 0.000000 0.000000 -0.000000 0.000000
    46 0.000000 -500.000000 0.000000 0.000000 -0.000000 0.000000
    47 0.000000 -500.000000 0.000000 0.000000 -0.000000 0.000000
    48 -0.738588 -1.689498 -13.429075 0.000048 -1.570796 0.000000
    49 0.677757 6.276403 0.247146 1.570794 0.000002 1.570796
    50 0.336739 0.000010 -0.009823 0.000004 -0.000796 0.000002
    51 0.319871 -2.471079 0.570881 -0.471238 0.000109 0.000405
    52 0.707644 -0.000000 -0.073763 -0.000000 -0.001711 0.000000
    53 1.242609 2.781439 -0.580376 3.026210 -0.511891 1.807420
    54 6.239691 0.170736 -0.379532 1.790209 -1.059951 -2.484821
    55 -6.777797 0.000205 -3.678857 0.000336 -1.279808 -0.000404
    56 -12.277411 -10.701849 -16.873108 -0.137169 0.943472 0.103462
    57 -5.684974 3.779440 1.476553 -1.242786 0.212730 -0.290362
    58 0.198211 0.006174 0.070012 0.000578 -0.030387 -0.002598
    59 -2.248398 -0.187773 -1.663940 -0.019222 -0.392444 0.055921
    60 -4.894115 -0.401862 -0.274541 -0.039826 0.399329 -0.074409
    61 0.040419 -0.000006 -0.000977 -0.000000 -0.053354 0.000001
    62 -0.030300 0.000007 -0.008753 -0.000000 -0.160897 -0.000001
    63 0.245060 -0.020783 -0.055887 0.007558 -0.004037 -0.025802
    64 0.066884 -0.000012 -0.000287 -0.000000 -0.029433 -0.000001
    65 -0.001761 0.000005 -0.005093 0.000000 -0.122697 0.000001
    66 0.143196 0.032904 -0.049458 0.007305 -0.004235 0.070148
    67 0.025763 -0.000001 -0.001921 -0.000000 -0.075412 -0.000001
    68 -0.058026 0.000003 -0.014055 0.000000 -0.203909 0.000001
    69 -0.024216 0.063115 -0.045410 0.005958 -0.004224 0.223135
    70 -0.016885 0.000001 -0.004290 0.000000 -0.112622 0.000001
    71 -0.038112 0.000002 -0.008488 0.000000 -0.158305 -0.000001
    72 1.660506 1.347339 -6.226905 -0.554922 -1.279684 0.003858
    73 -1.138703 -0.966688 -1.345274 3.139139 -0.000517 -1.777923
    74 -0.770013 9.931003 7.407234 -1.052850 -0.386772 0.842580
    75 -9.971370 -0.001062 -8.164673 -3.141360 -0.945822 3.141522
    76 -7.832928 -0.911683 -10.238775 -1.101180 0.552117 -0.491536
    77 4.382911 -1.831804 3.197454 1.167185 -0.579520 0.507807
    78 3.924961 0.105666 0.190304 0.001709 0.452892 0.076320
    79 6.733383 0.408332 -1.485158 0.055999 0.858842 0.172159
    80 0.916941 0.908526 -0.068910 -0.007264 0.016588 0.217858
    81 7.544448 -1.067492 7.134166 -0.111667 -0.797293 0.033639
    82 6.936358 -0.935318 5.271840 -0.098497 -0.783367 0.038254
    83 7.854782 0.617462 5.958544 -0.433400 -0.421631 0.548369
    84 9.141426 -0.619971 10.893036 -0.081528 -1.074706 0.034115
    85 9.249315 -0.607752 10.202705 -0.092679 -1.132780 0.049299
    86 10.161109 5.528998 9.836301 -0.191323 -0.919339 0.539542
    87 9.085999 1.139484 9.786001 0.249883 -1.051719 -0.166235
    88 9.550507 1.127295 8.626775 0.299378 -1.141215 -0.234710
    89 9.986714 5.725967 17.488382 1.203458 -1.389926 -0.823603
    90 5.553122 2.613726 3.609406 0.261582 -0.576364 -0.097390
    91 5.902875 2.612604 2.974607 0.274001 -0.617190 -0.139028
    92 -7.477194 -1.202159 -6.362117 -2.912952 -0.945807 3.141211
    93 0.228633 0.462098 -2.188844 -1.571477 -0.102457 0.013491
    94 0.744702 -0.133793 0.360251 0.000644 0.050794 0.102492
    95 -1.274352 0.001525 0.072167 0.000000 -0.030552 0.000000
    96 1.430291 -1.034196 0.356208 1.597298 0.000007 1.570792
    97 1.422686 -1.098473 0.329797 1.601349 0.000000 1.570796
    98 2.296393 -1.632542 0.144962 1.610671 -0.697742 1.545171
    99 2.132183 -1.781134 0.045321 1.618307 -0.872109 1.534408
    100 2.091531 -1.872030 -1.284615 -1.618305 -0.872107 -1.534407
    101 2.247946 -1.765496 -1.439999 -1.610669 -0.697739 -1.545169
    102 -0.682287 0.005207 0.193103 0.000000 0.026369 0.000000
    103 -0.868667 -0.002279 -1.146341 3.141164 -1.570794 -3.141164
    104 7.539680 -7.251782 -41.453824 -1.564132 1.555263 -1.563287
    105 8.015893 -8.246290 -25.883332 -1.549120 0.057181 -1.281358
    106 8.015893 -8.246290 -25.883332 -1.549120 0.057181 -1.281358
    107 7.539680 -7.251782 -41.453824 -1.564132 1.555263 -1.563287
  time 4
    0 0.000000 0.000000 0.000000 0.000000 0.000000 0.000000
    1 0.000000 -500.000000 0.000000 0.000000 -0.000000 0.000000
    2 0.000000 -500.000000 0.000000 0.000000 -0.000000 0.000000
    3 0.000000 -500.000000 0.000000 0.000000 -0.000000 0.000000
    4 0.000000 -500.000000 0.000000 0.000000 -0.000000 0.000000
    5 0.000000 -500.000000 0.000000 0.000000 -0.000000 0.000000
    6 0.000000 -500.000000 0.000000 0.000000 -0.000000 0.000000
    7 0.000000 -500.000000 0.000000 0.000000 -0.000000 0.000000
    8 0.000000 -500.000000 0.000000 0.000000 -0.000000 0.000000
    9 0.000000 -500.000000 0.000000 0.000000 -0.000000 0.000000
    10 0.000000 -500.000000 0.000000 0.000000 -0.000000 0.000000
    11 0.000000 -500.000000 0.000000 0.000000 -0.000000 0.000000
    12 0.000000 -500.000000 0.000000 0.000000 -0.000000 0.000000
    13 0.000000 -500.000000 0.000000 0.000000 -0.000000 0.000000
    14 0.000000 -500.000000 0.000000 0.000000 -0.000000 0.000000
    15 0.000000 -500.000000 0.000000 0.000000 -0.000000 0.000000
    16 0.000000 -500.000000 0.000000 0.000000 -0.000000 0.000000
    17 0.000000 -500.000000 0.000000 0.000000 -0.000000 0.000000
    18 0.000000 -500.000000 0.000000 0.000000 -0.000000 0.000000
    19 0.000000 -500.000000 0.000000 0.000000 -0.000000 0.000000
    20 0.000000 -500.000000 0.000000 0.000000 -0.000000 0.000000
    21 0.000000 -500.000000 0.000000 0.000000 -0.000000 0.000000
    22 0.000000 -500.000000 0.000000 0.000000 -0.000000 0.000000
    23 0.000000 -500.000000 0.000000 0.000000 -0.000000 0.000000
    24 0.000000 -500.000000 0.000000 0.000000 -0.000000 0.000000
    25 0.000000 -500.000000 0.000000 0.000000 -0.000000 0.000000
    26 0.000000 -500.000000 0.000000 0.000000 -0.000000 0.000000
    27 0.000000 -500.000000 0.000000 0.000000 -0.000000 0.000000
    28 0.000000 -500.000000 0.000000 0.000000 -0.000000 0.000000
    29 0.000000 -500.000000 0.000000 0.000000 -0.000000 0.000000
    30 0.000000 -500.000000 0.000000 0.000000 -0.000000 0.000000
    31 0.000000 -500.000000 0.000000 0.000000 -0.000000 0.000000
    32 0.000000 -500.000000 0.000000 0.000000 -0.000000 0.000000
    33 0.000000 -500.000000 0.000000 0.000000 -0.000000 0.000000
    34 0.000000 -500.000000 0.000000 0.000000 -0.000000 0.000000
    35 0.000000 -500.000000 0.000000 0.000000 -0.000000 0.000000
    36 0.000000 -500.000000 0.000000 0.000000 -0.000000 0.000000
    37 0.000000 -500.000000 0.000000 0.000000 -0.000000 0.000000
    38 0.000000 -500.000000 0.000000 0.000000 -0.000000 0.000000
    39 0.000000 -500.000000 0.000000 0.000000 -0.000000 0.000000
    40 0.000000 -500.000000 0.000000 0.000000 -0.000000 0.000000
    41 0.000000 -500.000000 0.000000 0.000000 -0.000000 0.000000
    42 0.000000 -500.000000 0.000000 0.000000 -0.000000 0.000000
    43 0.000000 -500.000000 0.000000 0.000000 -0.000000 0.000000
    44 0.000000 -500.000000 0.000000 0.000000 -0.000000 0.000000
    45 0.000000 -500.000000 0.000000 0.000000 -0.000000 0.000000
    46 0.000000 -500.000000 0.000000 0.000000 -0.000000 0.000000
    47 0.000000 -500.000000 0.000000 0.000000 -0.000000 0.000000
    48 -0.738611 -1.689501 -13.456317 0.000048 -1.570796 0.000000
    49 0.677757 6.276403 0.247146 1.570794 0.000002 1.570796
    50 0.336739 0.000010 -0.009823 0.000004 -0.000796 0.000002
    51 0.319871 -2.471079 0.570881 -0.471238 0.000109 0.000405
    52 0.707649 -0.000000 -0.073751 -0.000000 -0.001712 -0.000000
    53 1.242609 2.781439 -0.580376 3.026210 -0.511891 1.807420
    54 6.606208 0.227808 -0.701861 1.823540 -1.074105 -2.537932
    55 -6.441315 0.000152 -3.086265 0.000226 -1.180909 -0.000290
    56 -11.496687 -10.783548 -17.661875 -0.184119 0.877536 0.049963
    57 -5.684976 3.779441 1.476554 -1.242786 0.212730 -0.290362
    58 0.198211 0.006174 0.070012 0.000578 -0.030387 -0.002598
    59 -2.248398 -0.187773 -1.663940 -0.019222 -0.392444 0.055921
    60 -4.894115 -0.401862 -0.274541 -0.039826 0.399329 -0.074409
    61 0.040419 -0.000006 -0.000977 -0.000000 -0.053354 0.000001
    62 -0.030300 0.000007 -0.008753 -0.000000 -0.160897 -0.000001
    63 0.245060 -0.020783 -0.055887 0.007558 -0.004037 -0.025802
    64 0.066884 -0.000012 -0.000287 -0.000000 -0.029433 -0.000001
    65 -0.001761 0.000005 -0.005093 0.000000 -0.122697 0.000001
    66 0.143196 0.032904 -0.049458 0.007305 -0.004235 0.070148
    67 0.025763 -0.000001 -0.001921 -0.000000 -0.075412 -0.000001
    68 -0.058026 0.000003 -0.014055 0.000000 -0.203909 0.000001
    69 -0.024216 0.063115 -0.045410 0.005958 -0.004224 0.223135
    70 -0.016885 0.000001 -0.004290 0.000000 -0.112622 0.000001
    71 -0.038112 0.000002 -0.008488 0.000000 -0.158305 -0.000001
    72 1.892461 1.320652 -6.529378 -0.565955 -1.180777 0.002468
    73 -1.138703 -0.966688 -1.345274 3.139139 -0.000517 -1.777923
    74 -0.770013 9.931003 7.407234 -1.052850 -0.386772 0.842580
    75 -9.971370 -0.001062 -8.164673 -3.141360 -0.945822 3.141522
    76 -7.832935 -0.911681 -10.238773 -1.101180 0.552118 -0.491536
    77 4.382911 -1.831804 3.197454 1.167185 -0.579520 0.507807
    78 3.924961 0.105666 0.190304 0.001709 0.452892 0.076320
    79 6.733383 0.408332 -1.485158 0.055999 0.858842 0.172159
    80 0.916941 0.908526 -0.068910 -0.007264 0.016588 0.217858
    81 7.544448 -1.067492 7.134166 -0.111667 -0.797293 0.033639
    82 6.936358 -0.935318 5.271840 -0.098497 -0.783367 0.038254
    83 7.854782 0.617462 5.958544 -0.433400 -0.421631 0.548369
    84 9.141426 -0.619971 10.893036 -0.081528 -1.074706 0.034115
    85 9.249315 -0.607752 10.202705 -0.092679 -1.132780 0.049299
    86 10.161109 5.528998 9.836301 -0.191323 -0.919339 0.539542
    87 9.085999 1.139484 9.786001 0.249883 -1.051719 -0.166235
    88 9.550507 1.127295 8.626775 0.299378 -1.141215 -0.234710
    89 9.986714 5.725967 17.488382 1.203458 -1.389926 -0.823603
    90 5.553122 2.613726 3.609406 0.261582 -0.576364 -0.097390
    91 5.902875 2.612604 2.974607 0.274001 -0.617190 -0.139028
    92 -7.477194 -1.202159 -6.362117 -2.912952 -0.945807 3.141211
    93 0.228633 0.462098 -2.188844 -1.571477 -0.102457 0.013491
    94 0.693760 -0.139020 0.277834 0.000655 0.037514 0.102483
    95 -1.274352 0.001525 0.072167 0.000000 -0.030552 0.000000
    96 1.381049 -1.034239 0.357907 1.597298 0.000007 1.570792
    97 1.422686 -1.098473 0.329797 1.601349 0.000000 1.570796
    98 2.296393 -1.632542 0.144961 1.610671 -0.697742 1.545171
    99 2.132183 -1.781134 0.045321 1.618307 -0.872109 1.534408
    100 2.091531 -1.872030 -1.284615 -1.618305 -0.872107 -1.534407
    101 2.247948 -1.765490 -1.439998 -1.610670 -0.697739 -1.545169
    102 -0.682287 0.005207 0.193103 0.000000 0.026369 0.000000
    103 -0.868667 -0.002279 -1.146341 3.141164 -1.570794 -3.141164
    104 7.539680 -7.251782 -41.453824 -1.564132 1.555263 -1.563287
    105 8.015893 -8.246290 -25.883332 -1.549120 0.057181 -1.281358
    106 8.015893 -8.246290 -25.883332 -1.549120 0.057181 -1.281358
    107 7.539680 -7.251782 -41.453824 -1.564132 1.555263 -1.563287
  time 5
    0 0.000000 0.000000 0.000000 0.000000 0.000000 0.000000
    1 0.000000 -500.000000 0.000000 0.000000 -0.000000 0.000000
    2 0.000000 -500.000000 0.000000 0.000000 -0.000000 0.000000
    3 0.000000 -500.000000 0.000000 0.000000 -0.000000 0.000000
    4 0.000000 -500.000000 0.000000 0.000000 -0.000000 0.000000
    5 0.000000 -500.000000 0.000000 0.000000 -0.000000 0.000000
    6 0.000000 -500.000000 0.000000 0.000000 -0.000000 0.000000
    7 0.000000 -500.000000 0.000000 0.000000 -0.000000 0.000000
    8 0.000000 -500.000000 0.000000 0.000000 -0.000000 0.000000
    9 0.000000 -500.000000 0.000000 0.000000 -0.000000 0.000000
    10 0.000000 -500.000000 0.000000 0.000000 -0.000000 0.000000
    11 0.000000 -500.000000 0.000000 0.000000 -0.000000 0.000000
    12 0.000000 -500.000000 0.000000 0.000000 -0.000000 0.000000
    13 0.000000 -500.000000 0.000000 0.000000 -0.000000 0.000000
    14 0.000000 -500.000000 0.000000 0.000000 -0.000000 0.000000
    15 0.000000 -500.000000 0.000000 0.000000 -0.000000 0.000000
    16 0.000000 -500.000000 0.000000 0.000000 -0.000000 0.000000
    17 0.000000 -500.000000 0.000000 0.000000 -0.000000 0.000000
    18 0.000000 -500.000000 0.000000 0.000000 -0.000000 0.000000
    19 0.000000 -500.000000 0.000000 0.000000 -0.000000 0.000000
    20 0.000000 -500.000000 0.000000 0.000000 -0.000000 0.000000
    21 0.000000 -500.000000 0.000000 0.000000 -0.000000 0.000000
    22 0.000000 -500.000000 0.000000 0.000000 -0.000000 0.000000
    23 0.000000 -500.000000 0.000000 0.000000 -0.000000 0.000000
    24 0.000000 -500.000000 0.000000 0.000000 -0.000000 0.000000
    25 0.000000 -500.000000 0.000000 0.000000 -0.000000 0.000000
    26 0.000000 -500.000000 0.000000 0.000000 -0.000000 0.000000
    27 0.000000 -500.000000 0.000000 0.000000 -0.000000 0.000000
    28 0.000000 -500.000000 0.000000 0.000000 -0.000000 0.000000
    29 0.000000 -500.000000 0.000000 0.000000 -0.000000 0.000000
    30 0.000000 -500.000000 0.000000 0.000000 -0.000000 0.000000
    31 0.000000 -500.000000 0.000000 0.000000 -0.000000 0.000000
    32 0.000000 -500.000000 0.000000 0.000000 -0.000000 0.000000
    33 0.000000 -500.000000 0.000000 0.000000 -0.000000 0.000000
    34 0.000000 -500.000000 0.000000 0.000000 -0.000000 0.000000
    35 0.000000 -500.000000 0.000000 0.000000 -0.000000 0.000000
    36 0.000000 -500.000000 0.000000 0.000000 -0.000000 0.000000
    37 0.000000 -500.000000 0.000000 0.000000 -0.000000 0.000000
    38 0.000000 -500.000000 0.000000 0.000000 -0.000000 0.000000
    39 0.000000 -500.000000 0.000000 0.000000 -0.000000 0.000000
    40 0.000000 -500.000000 0.000000 0.000000 -0.000000 0.000000
    41 0.000000 -500.000000 0.000000 0.000000 -0.000000 0.000000
    42 0.000000 -500.000000 0.000000 0.000000 -0.000000 0.000000
    43 0.000000 -500.000000 0.000000 0.000000 -0.000000 0.000000
    44 0.000000 -500.000000 0.000000 0.000000 -0.000000 0.000000
    45 0.000000 -500.000000 0.000000 0.000000 -0.000000 0.000000
    46 0.000000 -500.000000 0.000000 0.000000 -0.000000 0.000000
    47 0.000000 -500.000000 0.000000 0.000000 -0.000000 0.000000
    48 -0.738606 -1.689500 -13.449865 0.000048 -1.570796 0.000000
    49 0.677757 6.276403 0.247146 1.570794 0.000002 1.570796
    50 0.336739 0.000010 -0.009823 0.000004 -0.000796 0.000002
    51 0.319871 -2.471079 0.570881 -0.471238 0.000109 0.000405
    52 0.707652 -0.000000 -0.073745 -0.000000 -0.001712 -0.000000
    53 1.242609 2.781439 -0.580376 3.026210 -0.511891 1.807420
    54 6.758314 0.241478 -0.822557 1.833017 -1.080742 -2.555313
    55 -6.228145 0.000124 -2.770299 0.000186 -1.125608 -0.000248
    56 -10.998713 -10.862295 -18.117555 -0.206132 0.835669 0.026655
    57 -5.684976 3.779441 1.476554 -1.242786 0.212730 -0.290362
    58 0.198211 0.006174 0.070012 0.000578 -0.030387 -0.002598
    59 -2.248398 -0.187773 -1.663940 -0.019222 -0.392444 0.055921
    60 -4.894115 -0.401862 -0.274541 -0.039826 0.399329 -0.074409
    61 0.040419 -0.000006 -0.000977 -0.000000 -0.053354 0.000001
    62 -0.030300 0.000007 -0.008753 -0.000000 -0.160897 -0.000001
    63 0.245060 -0.020783 -0.055887 0.007558 -0.004037 -0.025802
    64 0.066884 -0.000012 -0.000287 -0.000000 -0.029433 -0.000001
    65 -0.001761 0.000005 -0.005093 0.000000 -0.122697 0.000001
    66 0.143196 0.032904 -0.049458 0.007305 -0.004235 0.070148
    67 0.025763 -0.000001 -0.001921 -0.000000 -0.075412 -0.000001
    68 -0.058026 0.000003 -0.014055 0.000000 -0.203909 0.000001
    69 -0.024216 0.063115 -0.045410 0.005958 -0.004224 0.223135
    70 -0.016885 0.000001 -0.004290 0.000000 -0.112622 0.000001
    71 -0.038112 0.000002 -0.008488 0.000000 -0.158305 -0.000001
    72 2.009783 1.303877 -6.710241 -0.571573 -1.125475 0.000934
    73 -1.138703 -0.966688 -1.345274 3.139139 -0.000517 -1.777923
    74 -0.770013 9.931003 7.407234 -1.052850 -0.386772 0.842580
    75 -9.971370 -0.001062 -8.164673 -3.141360 -0.945822 3.141522
    76 -7.832939 -0.911680 -10.238772 -1.101180 0.552118 -0.491537
    77 4.382911 -1.831804 3.197454 1.167185 -0.579520 0.507807
    78 3.924961 0.105666 0.190304 0.001709 0.452892 0.076320
    79 6.733383 0.408332 -1.485158 0.055999 0.858842 0.172159
    80 0.916941 0.908526 -0.068910 -0.007264 0.016588 0.217858
    81 7.544448 -1.067492 7.134166 -0.111667 -0.797293 0.033639
    82 6.936358 -0.935318 5.271840 -0.098497 -0.783367 0.038254
    83 7.854782 0.617462 5.958544 -0.433400 -0.421631 0.548369
    84 9.141426 -0.619971 10.893036 -0.081528 -1.074706 0.034115
    85 9.249315 -0.607752 10.202705 -0.092679 -1.132780 0.049299
    86 10.161109 5.528998 9.836301 -0.191323 -0.919339 0.539542
    87 9.085999 1.139484 9.786001 0.249883 -1.051719 -0.166235
    88 9.550507 1.127295 8.626775 0.299378 -1.141215 -0.234710
    89 9.986714 5.725967 17.488382 1.203458 -1.389926 -0.823603
    90 5.553122 2.613726 3.609406 0.261582 -0.576364 -0.097390
    91 5.902875 2.612604 2.974607 0.274001 -0.617190 -0.139028
    92 -7.477194 -1.202159 -6.362117 -2.912952 -0.945807 3.141211
    93 0.228633 0.462098 -2.188844 -1.571477 -0.102457 0.013491
    94 0.653451 -0.143165 0.225608 0.000663 0.028107 0.102477
    95 -1.274352 0.001525 0.072167 0.000000 -0.030552 0.000000
    96 1.356856 -1.034260 0.358742 1.597298 0.000007 1.570792
    97 1.422686 -1.098473 0.329797 1.601349 0.000000 1.570796
    98 2.296393 -1.632542 0.144961 1.610671 -0.697742 1.545171
    99 2.132183 -1.781134 0.045321 1.618307 -0.872109 1.534408
    100 2.091533 -1.872030 -1.284613 -1.618306 -0.872107 -1.534406
    101 2.247948 -1.765490 -1.439998 -1.610670 -0.697739 -1.545169
    102 -0.682287 0.005207 0.193103 0.000000 0.026369 0.000000
    103 -0.868667 -0.002279 -1.146341 3.141164 -1.570794 -3.141164
    104 7.539680 -7.251782 -41.453824 -1.564132 1.555263 -1.563287
    105 8.015893 -8.246290 -25.883332 -1.549120 0.057181 -1.281358
    106 8.015893 -8.246290 -25.883332 -1.549120 0.057181 -1.281358
    107 7.539680 -7.251782 -41.453824 -1.564132 1.555263 -1.563287
  time 6
    0 0.000000 0.000000 0.000000 0.000000 0.000000 0.000000
    1 0.000000 -500.000000 0.000000 0.000000 -0.000000 0.000000
    2 0.000000 -500.000000 0.000000 0.000000 -0.000000 0.000000
    3 0.000000 -500.000000 0.000000 0.000000 -0.000000 0.000000
    4 0.000000 -500.000000 0.000000 0.000000 -0.000000 0.000000
    5 0.000000 -500.000000 0.000000 0.000000 -0.000000 0.000000
    6 0.000000 -500.000000 0.000000 0.000000 -0.000000 0.000000
    7 0.000000 -500.000000 0.000000 0.000000 -0.000000 0.000000
    8 0.000000 -500.000000 0.000000 0.000000 -0.000000 0.000000
    9 0.000000 -500.000000 0.000000 0.000000 -0.000000 0.000000
    10 0.000000 -500.000000 0.000000 0.000000 -0.000000 0.000000
    11 0.000000 -500.000000 0.000000 0.000000 -0.000000 0.000000
    12 0.000000 -500.000000 0.000000 0.000000 -0.000000 0.000000
    13 0.000000 -500.000000 0.000000 0.000000 -0.000000 0.000000
    14 0.000000 -500.000000 0.000000 0.000000 -0.000000 0.000000
    15 0.000000 -500.000000 0.000000 0.000000 -0.000000 0.000000
    16 0.000000 -500.000000 0.000000 0.000000 -0.000000 0.000000
    17 0.000000 -500.000000 0.000000 0.000000 -0.000000 0.000000
    18 0.000000 -500.000000 0.000000 0.000000 -0.000000 0.000000
    19 0.000000 -500.000000 0.000000 0.000000 -0.000000 0.000000
    20 0.000000 -500.000000 0.000000 0.000000 -0.000000 0.000000
    21 0.000000 -500.000000 0.000000 0.000000 -0.000000 0.000000
    22 0.000000 -500.000000 0.000000 0.000000 -0.000000 0.000000
    23 0.000000 -500.000000 0.000000 0.000000 -0.000000 0.000000
    24 0.000000 -500.000000 0.000000 0.000000 -0.000000 0.000000
    25 0.000000 -500.000000 0.000000 0.000000 -0.000000 0.000000
    26 0.000000 -500.000000 0.000000 0.000000 -0.000000 0.000000
    27 0.000000 -500.000000 0.000000 0.000000 -0.000000 0.000000
    28 0.000000 -500.000000 0.000000 0.000000 -0.000000 0.000000
    29 0.000000 -500.000000 0.000000 0.000000 -0.000000 0.000000
    30 0.000000 -500.000000 0.000000 0.000000 -0.000000 0.000000
    31 0.000000 -500.000000 0.000000 0.000000 -0.000000 0.000000
    32 0.000000 -500.000000 0.000000 0.000000 -0.000000 0.000000
    33 0.000000 -500.000000 0.000000 0.000000 -0.000000 0.000000
    34 0.000000 -500.000000 0.000000 0.000000 -0.000000 0.000000
    35 0.000000 -500.000000 0.000000 0.000000 -0.000000 0.000000
    36 0.000000 -500.000000 0.000000 0.000000 -0.000000 0.000000
    37 0.000000 -500.000000 0.000000 0.000000 -0.000000 0.000000
    38 0.000000 -500.000000 0.000000 0.000000 -0.000000 0.000000
    39 0.000000 -500.000000 0.000000 0.000000 -0.000000 0.000000
    40 0.000000 -500.000000 0.000000 0.000000 -0.000000 0.000000
    41 0.000000 -500.000000 0.000000 0.000000 -0.000000 0.000000
    42 0.000000 -500.000000 0.000000 0.000000 -0.000000 0.000000
    43 0.000000 -500.000000 0.000000 0.000000 -0.000000 0.000000
    44 0.000000 -500.000000 0.000000 0.000000 -0.000000 0.000000
    45 0.000000 -500.000000 0.000000 0.000000 -0.000000 0.000000
    46 0.000000 -500.000000 0.000000 0.000000 -0.000000 0.000000
    47 0.000000 -500.000000 0.000000 0.000000 -0.000000 0.000000
    48 -0.738571 -1.689496 -13.409717 0.000048 -1.570796 0.000000
    49 0.677757 6.276403 0.247146 1.570794 0.000002 1.570796
    50 0.336739 0.000010 -0.009823 0.000004 -0.000796 0.000002
    51 0.319871 -2.471079 0.570881 -0.471238 0.000109 0.000405
    52 0.707652 -0.000000 -0.073745 -0.000000 -0.001712 -0.000000
    53 1.242609 2.781439 -0.580376 3.026210 -0.511891 1.807420
    54 6.695878 0.222820 -0.740154 1.816832 -1.080408 -2.535209
    55 -6.180817 0.000119 -2.704978 0.000179 -1.113906 -0.000240
    56 -10.819404 -10.914455 -18.280114 -0.209855 0.818918 0.027028
    57 -5.684974 3.779440 1.476553 -1.242786 0.212730 -0.290362
    58 0.198211 0.006174 0.070012 0.000578 -0.030387 -0.002598
    59 -2.248398 -0.187773 -1.663940 -0.019222 -0.392444 0.055921
    60 -4.894115 -0.401862 -0.274541 -0.039826 0.399329 -0.074409
    61 0.040419 -0.000006 -0.000977 -0.000000 -0.053354 0.000001
    62 -0.030300 0.000007 -0.008753 -0.000000 -0.160897 -0.000001
    63 0.245060 -0.020783 -0.055887 0.007558 -0.004037 -0.025802
    64 0.066884 -0.000012 -0.000287 -0.000000 -0.029433 -0.000001
    65 -0.001761 0.000005 -0.005093 0.000000 -0.122697 0.000001
    66 0.143196 0.032904 -0.049458 0.007305 -0.004235 0.070148
    67 0.025763 -0.000001 -0.001921 -0.000000 -0.075412 -0.000001
    68 -0.058026 0.000003 -0.014055 0.000000 -0.203909 0.000001
    69 -0.024216 0.063115 -0.045410 0.005958 -0.004224 0.223135
    70 -0.016885 0.000001 -0.004289 0.000000 -0.112622 0.000001
    71 -0.038112 0.000002 -0.008488 0.000000 -0.158305 -0.000001
    72 2.035323 1.299850 -6.753357 -0.573268 -1.113772 0.000923
    73 -1.138703 -0.966688 -1.345274 3.139139 -0.000517 -1.777923
    74 -0.770013 9.931003 7.407234 -1.052850 -0.386772 0.842580
    75 -9.971370 -0.001062 -8.164673 -3.141360 -0.945822 3.141522
    76 -7.832939 -0.911680 -10.238772 -1.101180 0.552118 -0.491537
    77 4.382911 -1.831804 3.197454 1.167185 -0.579520 0.507807
    78 3.924961 0.105666 0.190304 0.001709 0.452892 0.076320
    79 6.733383 0.408332 -1.485158 0.055999 0.858842 0.172159
    80 0.916941 0.908526 -0.068910 -0.007264 0.016588 0.217858
    81 7.544448 -1.067492 7.134166 -0.111667 -0.797293 0.033639
    82 6.936358 -0.935318 5.271840 -0.098497 -0.783367 0.038254
    83 7.854782 0.617462 5.958544 -0.433400 -0.421631 0.548369
    84 9.141426 -0.619971 10.893036 -0.081528 -1.074706 0.034115
    85 9.249315 -0.607752 10.202705 -0.092679 -1.132780 0.049299
    86 10.161109 5.528998 9.836301 -0.191323 -0.919339 0.539542
    87 9.085999 1.139484 9.786001 0.249883 -1.051719 -0.166235
    88 9.550507 1.127295 8.626775 0.299378 -1.141215 -0.234710
    89 9.986714 5.725967 17.488382 1.203458 -1.389926 -0.823603
    90 5.553122 2.613726 3.609406 0.261582 -0.576364 -0.097390
    91 5.902875 2.612604 2.974607 0.274001 -0.617190 -0.139028
    92 -7.477194 -1.202159 -6.362117 -2.912952 -0.945807 3.141211
    93 0.228633 0.462098 -2.188844 -1.571477 -0.102457 0.013491
    94 0.623139 -0.146293 0.204351 0.000667 0.022574 0.102474
    95 -1.274352 0.001525 0.072167 0.000000 -0.030552 0.000000
    96 1.357712 -1.034259 0.358712 1.597298 0.000007 1.570792
    97 1.422686 -1.098473 0.329797 1.601349 0.000000 1.570796
    98 2.296393 -1.632542 0.144961 1.610671 -0.697742 1.545171
    99 2.132183 -1.781134 0.045321 1.618307 -0.872109 1.534408
    100 2.091537 -1.872030 -1.284610 -1.618307 -0.872107 -1.534406
    101 2.247946 -1.765496 -1.439999 -1.610669 -0.697739 -1.545169
    102 -0.682287 0.005207 0.193103 0.000000 0.026369 0.000000
    103 -0.868667 -0.002279 -1.146341 3.141164 -1.570794 -3.141164
    104 7.539680 -7.251782 -41.453824 -1.564132 1.555263 -1.563287
    105 8.015893 -8.246290 -25.883332 -1.549120 0.057181 -1.281358
    106 8.015893 -8.246290 -25.883332 -1.549120 0.057181 -1.281358
    107 7.539680 -7.251782 -41.453824 -1.564132 1.555263 -1.563287
  time 7
    0 0.000000 0.000000 0.000000 0.000000 0.000000 0.000000
    1 0.000000 -500.000000 0.000000 0.000000 -0.000000 0.000000
    2 0.000000 -500.000000 0.000000 0.000000 -0.000000 0.000000
    3 0.000000 -500.000000 0.000000 0.000000 -0.000000 0.000000
    4 0.000000 -500.000000 0.000000 0.000000 -0.000000 0.000000
    5 0.000000 -500.000000 0.000000 0.000000 -0.000000 0.000000
    6 0.000000 -500.000000 0.000000 0.000000 -0.000000 0.000000
    7 0.000000 -500.000000 0.000000 0.000000 -0.000000 0.000000
    8 0.000000 -500.000000 0.000000 0.000000 -0.000000 0.000000
    9 0.000000 -500.000000 0.000000 0.000000 -0.000000 0.000000
    10 0.000000 -500.000000 0.000000 0.000000 -0.000000 0.000000
    11 0.000000 -500.000000 0.000000 0.000000 -0.000000 0.000000
    12 0.000000 -500.000000 0.000000 0.000000 -0.000000 0.000000
    13 0.000000 -500.000000 0.000000 0.000000 -0.000000 0.000000
    14 0.000000 -500.000000 0.000000 0.000000 -0.000000 0.000000
    15 0.000000 -500.000000 0.000000 0.000000 -0.000000 0.000000
    16 0.000000 -500.000000 0.000000 0.000000 -0.000000 0.000000
    17 0.000000 -500.000000 0.000000 0.000000 -0.000000 0.000000
    18 0.000000 -500.000000 0.000000 0.000000 -0.000000 0.000000
    19 0.000000 -500.000000 0.000000 0.000000 -0.000000 0.000000
    20 0.000000 -500.000000 0.000000 0.000000 -0.000000 0.000000
    21 0.000000 -500.000000 0.000000 0.000000 -0.000000 0.000000
    22 0.000000 -500.000000 0.000000 0.000000 -0.000000 0.000000
    23 0.000000 -500.000000 0.000000 0.000000 -0.000000 0.000000
    24 0.000000 -500.000000 0.000000 0.000000 -0.000000 0.000000
    25 0.000000 -500.000000 0.000000 0.000000 -0.000000 0.000000
    26 0.000000 -500.000000 0.000000 0.000000 -0.000000 0.000000
    27 0.000000 -500.000000 0.000000 0.000000 -0.000000 0.000000
    28 0.000000 -500.000000 0.000000 0.000000 -0.000000 0.000000
    29 0.000000 -500.000000 0.000000 0.000000 -0.000000 0.000000
    30 0.000000 -500.000000 0.000000 0.000000 -0.000000 0.000000
    31 0.000000 -500.000000 0.000000 0.000000 -0.000000 0.000000
    32 0.000000 -500.000000 0.000000 0.000000 -0.000000 0.000000
    33 0.000000 -500.000000 0.000000 0.000000 -0.000000 0.000000
    34 0.000000 -500.000000 0.000000 0.000000 -0.000000 0.000000
    35 0.000000 -500.000000 0.000000 0.000000 -0.000000 0.000000
    36 0.000000 -500.000000 0.000000 0.000000 -0.000000 0.000000
    37 0.000000 -500.000000 0.000000 0.000000 -0.000000 0.000000
    38 0.000000 -500.000000 0.000000 0.000000 -0.000000 0.000000
    39 0.000000 -500.000000 0.000000 0.000000 -0.000000 0.000000
    40 0.000000 -500.000000 0.000000 0.000000 -0.000000 0.000000
    41 0.000000 -500.000000 0.000000 0.000000 -0.000000 0.000000
    42 0.000000 -500.000000 0.000000 0.000000 -0.000000 0.000000
    43 0.000000 -500.000000 0.000000 0.000000 -0.000000 0.000000
    44 0.000000 -500.000000 0.000000 0.000000 -0.000000 0.000000
    45 0.000000 -500.000000 0.000000 0.000000 -0.000000 0.000000
    46 0.000000 -500.000000 0.000000 0.000000 -0.000000 0.000000
    47 0.000000 -500.000000 0.000000 0.000000 -0.000000 0.000000
    48 -0.738544 -1.689493 -13.377600 0.000048 -1.570796 0.000000
    49 0.677757 6.276403 0.247146 1.570794 0.000002 1.570796
    50 0.336739 0.000010 -0.009823 0.000004 -0.000796 0.000002
    51 0.319871 -2.471079 0.570881 -0.471238 0.000109 0.000405
    52 0.707651 -0.000000 -0.073745 -0.000000 -0.001712 -0.000000
    53 1.242609 2.781439 -0.580376 3.026210 -0.511891 1.807420
    54 6.647043 0.206871 -0.673673 1.803406 -1.080196 -2.518648
    55 -6.119341 0.000112 -2.622468 0.000170 -1.098979 -0.000231
    56 -10.609244 -10.959567 -18.458540 -0.213532 0.800005 0.026775
    57 -5.684972 3.779439 1.476552 -1.242786 0.212729 -0.290361
    58 0.198211 0.006174 0.070012 0.000578 -0.030387 -0.002598
    59 -2.248398 -0.187773 -1.663940 -0.019222 -0.392444 0.055921
    60 -4.894115 -0.401862 -0.274541 -0.039826 0.399329 -0.074409
    61 0.040419 -0.000006 -0.000977 -0.000000 -0.053354 0.000001
    62 -0.030300 0.000007 -0.008753 -0.000000 -0.160897 -0.000001
    63 0.245060 -0.020783 -0.055887 0.007558 -0.004037 -0.025802
    64 0.066886 -0.000012 -0.000287 -0.000000 -0.029433 -0.000001
    65 -0.001764 0.000005 -0.005093 0.000000 -0.122697 0.000001
    66 0.143196 0.032904 -0.049458 0.007305 -0.004235 0.070148
    67 0.025763 -0.000001 -0.001921 -0.000000 -0.075412 -0.000001
    68 -0.058026 0.000003 -0.014055 0.000000 -0.203909 0.000001
    69 -0.024216 0.063115 -0.045410 0.005958 -0.004224 0.223135
    70 -0.016885 0.000001 -0.004289 0.000000 -0.112622 0.000001
    71 -0.038112 0.000002 -0.008488 0.000000 -0.158305 -0.000001
    72 2.061551 1.295543 -6.806378 -0.575048 -1.098844 0.000901
    73 -1.138703 -0.966688 -1.345274 3.139139 -0.000517 -1.777923
    74 -0.770013 9.931003 7.407234 -1.052850 -0.386772 0.842580
    75 -9.971370 -0.001062 -8.164673 -3.141360 -0.945822 3.141522
    76 -7.832939 -0.911680 -10.238772 -1.101180 0.552118 -0.491537
    77 4.382911 -1.831804 3.197454 1.167185 -0.579520 0.507807
    78 3.924961 0.105666 0.190304 0.001709 0.452892 0.076320
    79 6.733383 0.408332 -1.485158 0.055999 0.858842 0.172159
    80 0.916941 0.908526 -0.068910 -0.007264 0.016588 0.217858
    81 7.544448 -1.067492 7.134166 -0.111667 -0.797293 0.033639
    82 6.936358 -0.935318 5.271840 -0.098497 -0.783367 0.038254
    83 7.854782 0.617462 5.958544 -0.433400 -0.421631 0.548369
    84 9.141426 -0.619971 10.893036 -0.081528 -1.074706 0.034115
    85 9.249315 -0.607752 10.202705 -0.092679 -1.132780 0.049299
    86 10.161109 5.528998 9.836301 -0.191323 -0.919339 0.539542
    87 9.085999 1.139484 9.786001 0.249883 -1.051719 -0.166235
    88 9.550507 1.127295 8.626775 0.299378 -1.141215 -0.234710
    89 9.986714 5.725967 17.488382 1.203458 -1.389926 -0.823603
    90 5.553122 2.613726 3.609406 0.261582 -0.576364 -0.097390
    91 5.902875 2.612604 2.974607 0.274001 -0.617190 -0.139028
    92 -7.477194 -1.202159 -6.362117 -2.912952 -0.945807 3.141211
    93 0.228633 0.462098 -2.188844 -1.571477 -0.102457 0.013491
    94 0.598652 -0.148820 0.186347 0.000672 0.017718 0.102471
    95 -1.274352 0.001525 0.072167 0.000000 -0.030552 0.000000
    96 1.369105 -1.034249 0.358319 1.597298 0.000007 1.570792
    97 1.422686 -1.098473 0.329797 1.601349 0.000000 1.570796
    98 2.296393 -1.632542 0.144961 1.610671 -0.697742 1.545171
    99 2.132183 -1.781134 0.045321 1.618307 -0.872109 1.534408
    100 2.091539 -1.872030 -1.284608 -1.618307 -0.872107 -1.534405
    101 2.247945 -1.765501 -1.440000 -1.610669 -0.697738 -1.545169
    102 -0.682287 0.005207 0.193103 0.000000 0.026369 0.000000
    103 -0.868667 -0.002279 -1.146341 3.141164 -1.570794 -3.141164
    104 7.539680 -7.251782 -41.453824 -1.564132 1.555263 -1.563287
    105 8.015893 -8.246290 -25.883332 -1.549120 0.057181 -1.281358
    106 8.015893 -8.246290 -25.883332 -1.549120 0.057181 -1.281358
    107 7.539680 -7.251782 -41.453824 -1.564132 1.555263 -1.563287
  time 8
    0 0.000000 0.000000 0.000000 0.000000 0.000000 0.000000
    1 0.000000 -500.000000 0.000000 0.000000 -0.000000 0.000000
    2 0.000000 -500.000000 0.000000 0.000000 -0.000000 0.000000
    3 0.000000 -500.000000 0.000000 0.000000 -0.000000 0.000000
    4 0.000000 -500.000000 0.000000 0.000000 -0.000000 0.000000
    5 0.000000 -500.000000 0.000000 0.000000 -0.000000 0.000000
    6 0.000000 -500.000000 0.000000 0.000000 -0.000000 0.000000
    7 0.000000 -500.000000 0.000000 0.000000 -0.000000 0.000000
    8 0.000000 -500.000000 0.000000 0.000000 -0.000000 0.000000
    9 0.000000 -500.000000 0.000000 0.000000 -0.000000 0.000000
    10 0.000000 -500.000000 0.000000 0.000000 -0.000000 0.000000
    11 0.000000 -500.000000 0.000000 0.000000 -0.000000 0.000000
    12 0.000000 -500.000000 0.000000 0.000000 -0.000000 0.000000
    13 0.000000 -500.000000 0.000000 0.000000 -0.000000 0.000000
    14 0.000000 -500.000000 0.000000 0.000000 -0.000000 0.000000
    15 0.000000 -500.000000 0.000000 0.000000 -0.000000 0.000000
    16 0.000000 -500.000000 0.000000 0.000000 -0.000000 0.000000
    17 0.000000 -500.000000 0.000000 0.000000 -0.000000 0.000000
    18 0.000000 -500.000000 0.000000 0.000000 -0.000000 0.000000
    19 0.000000 -500.000000 0.000000 0.000000 -0.000000 0.000000
    20 0.000000 -500.000000 0.000000 0.000000 -0.000000 0.000000
    21 0.000000 -500.000000 0.000000 0.000000 -0.000000 0.000000
    22 0.000000 -500.000000 0.000000 0.000000 -0.000000 0.000000
    23 0.000000 -500.000000 0.000000 0.000000 -0.000000 0.000000
    24 0.000000 -500.000000 0.000000 0.000000 -0.000000 0.000000
    25 0.000000 -500.000000 0.000000 0.000000 -0.000000 0.000000
    26 0.000000 -500.000000 0.000000 0.000000 -0.000000 0.000000
    27 0.000000 -500.000000 0.000000 0.000000 -0.000000 0.000000
    28 0.000000 -500.000000 0.000000 0.000000 -0.000000 0.000000
    29 0.000000 -500.000000 0.000000 0.000000 -0.000000 0.000000
    30 0.000000 -500.000000 0.000000 0.000000 -0.000000 0.000000
    31 0.000000 -500.000000 0.000000 0.000000 -0.000000 0.000000
    32 0.000000 -500.000000 0.000000 0.000000 -0.000000 0.000000
    33 0.000000 -500.000000 0.000000 0.000000 -0.000000 0.000000
    34 0.000000 -500.000000 0.000000 0.000000 -0.000000 0.000000
    35 0.000000 -500.000000 0.000000 0.000000 -0.000000 0.000000
    36 0.000000 -500.000000 0.000000 0.000000 -0.000000 0.000000
    37 0.000000 -500.000000 0.000000 0.000000 -0.000000 0.000000
    38 0.000000 -500.000000 0.000000 0.000000 -0.000000 0.000000
    39 0.000000 -500.000000 0.000000 0.000000 -0.000000 0.000000
    40 0.000000 -500.000000 0.000000 0.000000 -0.000000 0.000000
    41 0.000000 -500.000000 0.000000 0.000000 -0.000000 0.000000
    42 0.000000 -500.000000 0.000000 0.000000 -0.000000 0.000000
    43 0.000000 -500.000000 0.000000 0.000000 -0.000000 0.000000
    44 0.000000 -500.000000 0.000000 0.000000 -0.000000 0.000000
    45 0.000000 -500.000000 0.000000 0.000000 -0.000000 0.000000
    46 0.000000 -500.000000 0.000000 0.000000 -0.000000 0.000000
    47 0.000000 -500.000000 0.000000 0.000000 -0.000000 0.000000
    48 -0.738544 -1.689493 -13.377600 0.000048 -1.570796 0.000000
    49 0.677757 6.276403 0.247146 1.570794 0.000002 1.570796
    50 0.336739 0.000010 -0.009823 0.000004 -0.000796 0.000002
    51 0.319871 -2.471079 0.570881 -0.471238 0.000109 0.000405
    52 0.707651 -0.000000 -0.073745 -0.000000 -0.001712 -0.000000
    53 1.242609 2.781439 -0.580376 3.026210 -0.511891 1.807420
    54 6.651025 0.204987 -0.671332 1.800908 -1.081023 -2.516152
    55 -6.001462 0.000099 -2.471117 0.000156 -1.071148 -0.000215
    56 -10.281802 -10.977670 -18.706383 -0.217103 0.772431 0.023855
    57 -5.684972 3.779439 1.476552 -1.242786 0.212729 -0.290361
    58 0.198211 0.006174 0.070012 0.000578 -0.030387 -0.002598
    59 -2.248398 -0.187773 -1.663940 -0.019222 -0.392444 0.055921
    60 -4.894115 -0.401862 -0.274541 -0.039826 0.399329 -0.074409
    61 0.040419 -0.000006 -0.000977 -0.000000 -0.053354 0.000001
    62 -0.030300 0.000007 -0.008753 -0.000000 -0.160897 -0.000001
    63 0.245060 -0.020783 -0.055887 0.007558 -0.004037 -0.025802
    64 0.066898 -0.000012 -0.000284 -0.000000 -0.029434 -0.000001
    65 -0.001776 0.000004 -0.005096 -0.000000 -0.122696 0.000001
    66 0.143196 0.032904 -0.049458 0.007305 -0.004235 0.070148
    67 0.025763 -0.000001 -0.001921 -0.000000 -0.075412 -0.000001
    68 -0.058026 0.000003 -0.014055 0.000000 -0.203909 0.000001
    69 -0.024216 0.063115 -0.045410 0.005958 -0.004224 0.223135
    70 -0.016885 0.000001 -0.004290 0.000000 -0.112622 0.000001
    71 -0.038112 0.000002 -0.008488 0.000000 -0.158305 -0.000001
    72 2.090837 1.290277 -6.898477 -0.577239 -1.071012 0.000913
    73 -1.138703 -0.966688 -1.345274 3.139139 -0.000517 -1.777923
    74 -0.770013 9.931003 7.407234 -1.052850 -0.386772 0.842580
    75 -9.971370 -0.001062 -8.164673 -3.141360 -0.945822 3.141522
    76 -7.832939 -0.911680 -10.238772 -1.101180 0.552118 -0.491537
    77 4.382911 -1.831804 3.197454 1.167185 -0.579520 0.507807
    78 3.924961 0.105666 0.190304 0.001709 0.452892 0.076320
    79 6.733383 0.408332 -1.485158 0.055999 0.858842 0.172159
    80 0.916941 0.908526 -0.068910 -0.007264 0.016588 0.217858
    81 7.544448 -1.067492 7.134166 -0.111667 -0.797293 0.033639
    82 6.936358 -0.935318 5.271840 -0.098497 -0.783367 0.038254
    83 7.854782 0.617462 5.958544 -0.433400 -0.421631 0.548369
    84 9.141426 -0.619971 10.893036 -0.081528 -1.074706 0.034115
    85 9.249315 -0.607752 10.202705 -0.092679 -1.132780 0.049299
    86 10.161109 5.528998 9.836301 -0.191323 -0.919339 0.539542
    87 9.085999 1.139484 9.786001 0.249883 -1.051719 -0.166235
    88 9.550507 1.127295 8.626775 0.299378 -1.141215 -0.234710
    89 9.986714 5.725967 17.488382 1.203458 -1.389926 -0.823603
    90 5.553122 2.613726 3.609406 0.261582 -0.576364 -0.097390
    91 5.902875 2.612604 2.974607 0.274001 -0.617190 -0.139028
    92 -7.477194 -1.202159 -6.362117 -2.912952 -0.945807 3.141211
    93 0.228633 0.462098 -2.188844 -1.571477 -0.102457 0.013491
    94 0.596828 -0.149007 0.182113 0.000673 0.015570 0.102469
    95 -1.274352 0.001525 0.072167 0.000000 -0.030552 0.000000
    96 1.422649 -1.034203 0.356472 1.597298 0.000007 1.570792
    97 1.422686 -1.098473 0.329797 1.601349 0.000000 1.570796
    98 2.296393 -1.632542 0.144961 1.610671 -0.697742 1.545171
    99 2.132183 -1.781134 0.045321 1.618307 -0.872109 1.534408
    100 2.091535 -1.872030 -1.284612 -1.618306 -0.872107 -1.534406
    101 2.247945 -1.765501 -1.439999 -1.610669 -0.697738 -1.545169
    102 -0.682287 0.005207 0.193103 0.000000 0.026369 0.000000
    103 -0.868667 -0.002279 -1.146341 3.141164 -1.570794 -3.141164
    104 7.539680 -7.251782 -41.453824 -1.564132 1.555263 -1.563287
    105 8.015893 -8.246290 -25.883332 -1.549120 0.057181 -1.281358
    106 8.015893 -8.246290 -25.883332 -1.549120 0.057181 -1.281358
    107 7.539680 -7.251782 -41.453824 -1.564132 1.555263 -1.563287
  time 9
    0 0.000000 0.000000 0.000000 0.000000 0.000000 0.000000
    1 0.000000 -500.000000 0.000000 0.000000 -0.000000 0.000000
    2 0.000000 -500.000000 0.000000 0.000000 -0.000000 0.000000
    3 0.000000 -500.000000 0.000000 0.000000 -0.000000 0.000000
    4 0.000000 -500.000000 0.000000 0.000000 -0.000000 0.000000
    5 0.000000 -500.000000 0.000000 0.000000 -0.000000 0.000000
    6 0.000000 -500.000000 0.000000 0.000000 -0.000000 0.000000
    7 0.000000 -500.000000 0.000000 0.000000 -0.000000 0.000000
    8 0.000000 -500.000000 0.000000 0.000000 -0.000000 0.000000
    9 0.000000 -500.000000 0.000000 0.000000 -0.000000 0.000000
    10 0.000000 -500.000000 0.000000 0.000000 -0.000000 0.000000
    11 0.000000 -500.000000 0.000000 0.000000 -0.000000 0.000000
    12 0.000000 -500.000000 0.000000 0.000000 -0.000000 0.000000
    13 0.000000 -500.000000 0.000000 0.000000 -0.000000 0.000000
    14 0.000000 -500.000000 0.000000 0.000000 -0.000000 0.000000
    15 0.000000 -500.000000 0.000000 0.000000 -0.000000 0.000000
    16 0.000000 -500.000000 0.000000 0.000000 -0.000000 0.000000
    17 0.000000 -500.000000 0.000000 0.000000 -0.000000 0.000000
    18 0.000000 -500.000000 0.000000 0.000000 -0.000000 0.000000
    19 0.000000 -500.000000 0.000000 0.000000 -0.000000 0.000000
    20 0.000000 -500.000000 0.000000 0.000000 -0.000000 0.000000
    21 0.000000 -500.000000 0.000000 0.000000 -0.000000 0.000000
    22 0.000000 -500.000000 0.000000 0.000000 -0.000000 0.000000
    23 0.000000 -500.000000 0.000000 0.000000 -0.000000 0.000000
    24 0.000000 -500.000000 0.000000 0.000000 -0.000000 0.000000
    25 0.000000 -500.000000 0.000000 0.000000 -0.000000 0.000000
    26 0.000000 -500.000000 0.000000 0.000000 -0.000000 0.000000
    27 0.000000 -500.000000 0.000000 0.000000 -0.000000 0.000000
    28 0.000000 -500.000000 0.000000 0.000000 -0.000000 0.000000
    29 0.000000 -500.000000 0.000000 0.000000 -0.000000 0.000000
    30 0.000000 -500.000000 0.000000 0.000000 -0.000000 0.000000
    31 0.000000 -500.000000 0.000000 0.000000 -0.000000 0.000000
    32 0.000000 -500.000000 0.000000 0.000000 -0.000000 0.000000
    33 0.000000 -500.000000 0.000000 0.000000 -0.000000 0.000000
    34 0.000000 -500.000000 0.000000 0.000000 -0.000000 0.000000
    35 0.000000 -500.000000 0.000000 0.000000 -0.000000 0.000000
    36 0.000000 -500.000000 0.000000 0.000000 -0.000000 0.000000
    37 0.000000 -500.000000 0.000000 0.000000 -0.000000 0.000000
    38 0.000000 -500.000000 0.000000 0.000000 -0.000000 0.000000
    39 0.000000 -500.000000 0.000000 0.000000 -0.000000 0.000000
    40 0.000000 -500.000000 0.000000 0.000000 -0.000000 0.000000
    41 0.000000 -500.000000 0.000000 0.000000 -0.000000 0.000000
    42 0.000000 -500.000000 0.000000 0.000000 -0.000000 0.000000
    43 0.000000 -500.000000 0.000000 0.000000 -0.000000 0.000000
    44 0.000000 -500.000000 0.000000 0.000000 -0.000000 0.000000
    45 0.000000 -500.000000 0.000000 0.000000 -0.000000 0.000000
    46 0.000000 -500.000000 0.000000 0.000000 -0.000000 0.000000
    47 0.000000 -500.000000 0.000000 0.000000 -0.000000 0.000000
    48 -0.738544 -1.689493 -13.377600 0.000048 -1.570796 0.000000
    49 0.677757 6.276403 0.247146 1.570794 0.000002 1.570796
    50 0.336739 0.000010 -0.009823 0.000004 -0.000796 0.000002
    51 0.319871 -2.471079 0.570881 -0.471238 0.000109 0.000405
    52 0.707651 -0.000000 -0.073745 -0.000000 -0.001712 -0.000000
    53 1.242609 2.781439 -0.580376 3.026210 -0.511891 1.807420
    54 6.655010 0.203103 -0.668997 1.798402 -1.081847 -2.513647
    55 -5.879421 0.000087 -2.323110 0.000143 -1.043318 -0.000201
    56 -9.947659 -10.996346 -18.945044 -0.220472 0.744851 0.021145
    57 -5.684972 3.779439 1.476552 -1.242786 0.212729 -0.290361
    58 0.198211 0.006174 0.070012 0.000578 -0.030387 -0.002598
    59 -2.248398 -0.187773 -1.663940 -0.019222 -0.392444 0.055921
    60 -4.894115 -0.401862 -0.274541 -0.039826 0.399329 -0.074409
    61 0.040419 -0.000006 -0.000977 -0.000000 -0.053354 0.000001
    62 -0.030300 0.000007 -0.008753 -0.000000 -0.160897 -0.000001
    63 0.245060 -0.020783 -0.055887 0.007558 -0.004037 -0.025802
    64 0.066910 -0.000011 -0.000281 0.000000 -0.029435 -0.000001
    65 -0.001788 0.000003 -0.005098 -0.000000 -0.122695 0.000001
    66 0.143196 0.032904 -0.049458 0.007305 -0.004235 0.070148
    67 0.025763 -0.000001 -0.001921 -0.000000 -0.075412 -0.000001
    68 -0.058026 0.000003 -0.014055 0.000000 -0.203909 0.000001
    69 -0.024216 0.063115 -0.045410 0.005958 -0.004224 0.223135
    70 -0.016885 0.000001 -0.004290 0.000000 -0.112622 0.000001
    71 -0.038112 0.000002 -0.008488 0.000000 -0.158305 -0.000001
    72 2.117538 1.284861 -6.991346 -0.579323 -1.043181 0.000804
    73 -1.138703 -0.966688 -1.345274 3.139139 -0.000517 -1.777923
    74 -0.770013 9.931003 7.407234 -1.052850 -0.386772 0.842580
    75 -9.971370 -0.001062 -8.164673 -3.141360 -0.945822 3.141522
    76 -7.832939 -0.911680 -10.238772 -1.101180 0.552118 -0.491537
    77 4.382911 -1.831804 3.197454 1.167185 -0.579520 0.507807
    78 3.924961 0.105666 0.190304 0.001709 0.452892 0.076320
    79 6.733383 0.408332 -1.485158 0.055999 0.858842 0.172159
    80 0.916941 0.908526 -0.068910 -0.007264 0.016588 0.217858
    81 7.544448 -1.067492 7.134166 -0.111667 -0.797293 0.033639
    82 6.936358 -0.935318 5.271840 -0.098497 -0.783367 0.038254
    83 7.854782 0.617462 5.958544 -0.433400 -0.421631 0.548369
    84 9.141426 -0.619971 10.893036 -0.081528 -1.074706 0.034115
    85 9.249315 -0.607752 10.202705 -0.092679 -1.132780 0.049299
    86 10.161109 5.528998 9.836301 -0.191323 -0.919339 0.539542
    87 9.085999 1.139484 9.786001 0.249883 -1.051719 -0.166235
    88 9.550507 1.127295 8.626775 0.299378 -1.141215 -0.234710
    89 9.986714 5.725967 17.488382 1.203458 -1.389926 -0.823603
    90 5.553122 2.613726 3.609406 0.261582 -0.576364 -0.097390
    91 5.902875 2.612604 2.974607 0.274001 -0.617190 -0.139028
    92 -7.477194 -1.202159 -6.362117 -2.912952 -0.945807 3.141211
    93 0.228633 0.462098 -2.188844 -1.571477 -0.102457 0.013491
    94 0.595032 -0.149190 0.177846 0.000675 0.013421 0.102468
    95 -1.274352 0.001525 0.072167 0.000000 -0.030552 0.000000
    96 1.476193 -1.034157 0.354624 1.597298 0.000007 1.570792
    97 1.422686 -1.098473 0.329797 1.601349 0.000000 1.570796
    98 2.296393 -1.632542 0.144961 1.610671 -0.697742 1.545171
    99 2.132183 -1.781134 0.045321 1.618307 -0.872109 1.534408
    100 2.091531 -1.872030 -1.284615 -1.618305 -0.872107 -1.534407
    101 2.247945 -1.765500 -1.439999 -1.610669 -0.697738 -1.545169
    102 -0.682287 0.005207 0.193103 0.000000 0.026369 0.000000
    103 -0.868667 -0.002279 -1.146341 3.141164 -1.570794 -3.141164
    104 7.539680 -7.251782 -41.453824 -1.564132 1.555263 -1.563287
    105 8.015893 -8.246290 -25.883332 -1.549120 0.057181 -1.281358
    106 8.015893 -8.246290 -25.883332 -1.549120 0.057181 -1.281358
    107 7.539680 -7.251782 -41.453824 -1.564132 1.555263 -1.563287
end
