version 1
nodes
  0 "v_weapon" -1
  1 "v_weapon.Bip01_R_Forearm" -1
  2 "v_weapon.Bip01_R_Hand" 1
  3 "v_weapon.M4A1_Parent" 2
  4 "v_weapon.M4A1_Clip" 3
  5 "v_weapon.M4A1_Bullets" 4
  6 "v_weapon.flash" 3
  7 "v_weapon.shelleject" 3
  8 "v_weapon.stattrack" 3
  9 "v_weapon.uid" 3
  10 "v_weapon.Bip01_L_Forearm" -1
  11 "v_weapon.Bip01_L_Hand" 10
  12 "v_weapon.Bip01_L_Finger0" 11
  13 "v_weapon.Bip01_L_Finger01" 12
  14 "v_weapon.Bip01_L_Finger02" 13
  15 "v_weapon.Bip01_L_Finger1" 11
  16 "v_weapon.Bip01_L_Finger11" 15
  17 "v_weapon.Bip01_L_Finger12" 16
  18 "v_weapon.Bip01_L_Finger2" 11
  19 "v_weapon.Bip01_L_Finger21" 18
  20 "v_weapon.Bip01_L_Finger22" 19
  21 "v_weapon.Bip01_L_Finger3" 11
  22 "v_weapon.Bip01_L_Finger31" 21
  23 "v_weapon.Bip01_L_Finger32" 22
  24 "v_weapon.Bip01_L_Finger4" 11
  25 "v_weapon.Bip01_L_Finger41" 24
  26 "v_weapon.Bip01_L_Finger42" 25
  27 "v_weapon.Bip01_L_ForeTwist" -1
  28 "v_weapon.M4A1_Trigger" 3
  29 "v_weapon.M4A1_Bolt" 3
  30 "v_weapon.Bip01_R_Finger0" 2
  31 "v_weapon.Bip01_R_Finger01" 30
  32 "v_weapon.Bip01_R_Finger02" 31
  33 "v_weapon.Bip01_R_Finger1" 2
  34 "v_weapon.Bip01_R_Finger11" 33
  35 "v_weapon.Bip01_R_Finger12" 34
  36 "v_weapon.Bip01_R_Finger2" 2
  37 "v_weapon.Bip01_R_Finger21" 36
  38 "v_weapon.Bip01_R_Finger22" 37
  39 "v_weapon.Bip01_R_Finger3" 2
  40 "v_weapon.Bip01_R_Finger31" 39
  41 "v_weapon.Bip01_R_Finger32" 40
  42 "v_weapon.Bip01_R_Finger4" 2
  43 "v_weapon.Bip01_R_Finger41" 42
  44 "v_weapon.Bip01_R_Finger42" 43
  45 "v_weapon.Bip01_R_ForeTwist" -1
  46 "v_weapon.Bip01" -1
  47 "v_weapon.Bip01_Pelvis" 46
  48 "v_weapon.Bip01_Spine" 47
  49 "v_weapon.Bip01_Spine1" 48
  50 "v_weapon.Bip01_Spine2" 49
  51 "v_weapon.Bip01_Spine3" 50
  52 "v_weapon.Bip01_Neck" 51
  53 "v_weapon.Bip01_L_Clavicle" 52
  54 "v_weapon.Bip01_L_UpperArm" 53
  55 "v_weapon.Bip01_R_Clavicle" 52
  56 "v_weapon.Bip01_R_UpperArm" 55
end
skeleton
  time 0
    0 -1.999023 -6.500000 -2.000000 1.570624 -0.000086 0.000086
    1 -8.304688 -2.449219 -14.281250 -2.059783 -0.606694 -1.277266
    2 10.295582 0.000000 -0.000000 1.935044 0.095507 0.566453
    3 4.480469 1.199219 -0.714844 1.700995 -0.064703 1.621977
    4 -0.000000 1.830078 4.105469 -1.570796 0.000000 0.000000
    5 0.000000 0.000000 2.771000 0.000000 0.000000 0.000000
    6 0.015810 5.098120 20.550781 -0.000000 -1.570451 -1.570796
    7 -0.719085 5.300998 3.836287 0.000000 0.000000 2.792527
    8 0.587728 4.545159 4.786211 -1.570796 0.000000 0.000000
    9 0.730970 5.057620 -0.080116 -1.570796 0.000000 0.000000
    10 1.519531 -15.289063 -9.445313 -1.473649 -0.392482 -2.120377
    11 10.295583 0.000001 -0.000000 -2.621346 -0.233064 0.376938
    12 1.149521 0.416497 -1.414117 2.311615 0.381404 0.304903
    13 1.263878 0.000000 0.000000 -0.817992 -0.119931 0.240711
    14 1.188944 0.000000 0.000000 -0.009855 0.001996 0.251367
    15 3.773754 0.133216 -0.970574 0.097014 -0.244099 -0.063288
    16 1.433456 -0.000000 0.000001 0.000000 0.000000 0.202862
    17 1.019161 0.000000 0.000000 0.000000 0.000000 0.719251
    18 3.799511 0.014954 -0.039958 -0.044296 -0.215296 0.309279
    19 1.774879 0.000003 0.000001 -0.016130 0.009843 0.606560
    20 1.008846 0.000002 0.000000 -0.016522 0.009168 0.565194
    21 3.632763 0.059050 0.757493 -0.238474 -0.119428 0.437679
    22 1.500139 -0.000002 -0.000001 -0.068328 0.032773 0.726273
    23 0.905663 -0.000002 0.000000 -0.068931 0.031486 0.707527
    24 3.323330 0.233746 1.479075 -0.262899 0.125640 0.703036
    25 0.963099 0.000000 -0.000000 -0.095942 0.008840 0.540657
    26 0.682895 -0.000000 -0.000001 -0.095942 0.008841 0.540675
    27 1.519531 -15.289063 -9.445313 -2.416027 -0.392407 -2.120290
    28 -0.000000 2.627979 0.988434 -1.570796 0.000000 0.000000
    29 0.000000 6.086907 -2.262866 -1.570796 0.000000 0.000000
    30 1.149523 0.416497 1.414116 -1.769998 -0.202447 0.792236
    31 1.263877 0.000001 0.000000 -0.034282 0.189584 0.555298
    32 1.188943 0.000000 -0.000000 0.000000 0.000000 0.295212
    33 3.773755 0.133215 0.970574 -0.000422 -0.025468 -0.121346
    34 1.433459 0.000001 0.000000 0.014514 -0.009810 0.847667
    35 1.019161 -0.000001 0.000000 0.014478 -0.008837 0.835823
    36 3.799515 0.014952 0.039958 0.279665 0.171546 1.103439
    37 1.774881 0.000000 0.000000 0.015535 -0.040082 1.379122
    38 1.008846 0.000001 0.000000 0.033698 -0.026693 0.847881
    39 3.632765 0.059049 -0.757494 0.369431 0.065606 1.386970
    40 1.500137 0.000001 0.000001 0.061148 -0.055642 1.125235
    41 0.905663 -0.000000 -0.000001 0.079350 -0.023148 0.671075
    42 3.323330 0.233745 -1.479076 0.453115 -0.018233 1.420788
    43 0.963099 -0.000001 -0.000000 0.056283 -0.006181 0.656341
    44 0.682895 0.000000 0.000000 0.051699 -0.023100 0.966916
    45 -8.304688 -2.449219 -14.281250 -1.671633 -0.606680 -1.277197
    46 5.104027 -3.706409 -19.918226 0.008345 0.048533 -3.866102
    47 -0.000001 -0.000000 0.000000 -1.570793 -1.570796 0.000000
    48 3.562498 -0.816636 -0.000028 0.009806 -0.004018 0.021400
    49 4.004024 -0.003177 -0.000071 0.021977 0.004684 0.085524
    50 4.004028 -0.003176 -0.000071 0.022101 0.004692 0.085492
    51 4.003751 -0.003187 0.000000 -0.000001 0.000000 0.000000
    52 5.029972 -0.763043 -0.000584 0.165519 0.064872 0.682733
    53 -0.905726 0.793273 1.051288 0.177606 -1.053522 2.301890
    54 5.773743 0.000002 -0.000000 -1.188010 0.163262 -1.320256
    55 -0.747116 0.391015 -1.356800 0.414242 1.351996 2.862079
    56 5.773742 -0.000001 -0.000001 0.284479 -0.686679 -1.194730
  time 1
    0 -1.999023 -6.500000 -2.000000 1.570624 -0.000086 0.000086
    1 -8.302121 -2.085682 -14.294825 -2.059782 -0.606692 -1.277266
    2 10.295582 0.000000 -0.000000 1.935043 0.095507 0.566451
    3 4.480466 1.199210 -0.714831 1.700995 -0.064704 1.621976
    4 0.019122 2.092454 2.542172 -1.618785 -0.000549 -0.000663
    5 -0.000000 -0.000000 2.771000 0.000000 0.000000 0.000000
    6 0.015810 5.098120 20.550781 -0.000000 -1.570451 -1.570796
    7 -0.719085 5.300998 3.836287 0.000000 0.000000 2.792527
    8 0.587728 4.545159 4.786211 -1.570796 0.000000 0.000000
    9 0.730970 5.057620 -0.080116 -1.570796 0.000000 0.000000
    10 4.180037 -16.162432 -8.638037 -1.507223 -0.467822 -2.372925
    11 10.295583 0.000001 0.000000 -2.605903 -0.492616 0.424572
    12 1.149521 0.416495 -1.414117 2.311615 0.381404 0.304903
    13 1.263878 0.000000 -0.000000 -0.817992 -0.119931 0.240711
    14 1.188944 0.000000 -0.000000 -0.009855 0.001996 0.251367
    15 3.773754 0.133216 -0.970574 0.097014 -0.244099 -0.063288
    16 1.433456 -0.000000 0.000001 0.000000 0.000000 0.202862
    17 1.019161 -0.000000 0.000000 0.000000 0.000000 0.719251
    18 3.799513 0.014953 -0.039957 -0.044296 -0.215296 0.309279
    19 1.774879 0.000003 0.000001 -0.016130 0.009843 0.606558
    20 1.008848 0.000002 -0.000000 -0.016522 0.009168 0.565196
    21 3.632762 0.059050 0.757495 -0.238474 -0.119428 0.437679
    22 1.500140 -0.000004 -0.000001 -0.068328 0.032773 0.726273
    23 0.905665 -0.000003 0.000000 -0.068931 0.031486 0.707527
    24 3.323331 0.233745 1.479076 -0.262899 0.125640 0.703036
    25 0.963099 -0.000000 0.000000 -0.095942 0.008840 0.540657
    26 0.682895 -0.000000 -0.000001 -0.095942 0.008841 0.540675
    27 4.180037 -16.162432 -8.638037 -2.449607 -0.467744 -2.372838
    28 0.000000 2.627979 0.988434 -1.570796 0.000000 0.000000
    29 0.019849 4.156910 -2.149775 -1.618785 -0.000549 -0.000663
    30 1.149523 0.416497 1.414116 -1.769998 -0.202447 0.792236
    31 1.263877 -0.000001 -0.000001 -0.034282 0.189584 0.555298
    32 1.188943 0.000000 0.000000 0.000000 0.000000 0.295212
    33 3.773757 0.133215 0.970574 -0.000422 -0.025468 -0.121346
    34 1.433459 0.000001 0.000000 0.014514 -0.009810 0.847667
    35 1.019161 -0.000001 -0.000000 0.014478 -0.008837 0.835823
    36 3.799516 0.014951 0.039957 0.279665 0.171546 1.103439
    37 1.774881 0.000000 -0.000000 0.015535 -0.040082 1.379122
    38 1.008846 0.000001 0.000000 0.033698 -0.026693 0.847881
    39 3.632765 0.059049 -0.757494 0.369431 0.065606 1.386970
    40 1.500135 0.000001 0.000001 0.061148 -0.055642 1.125235
    41 0.905663 -0.000000 -0.000001 0.079350 -0.023148 0.671075
    42 3.323330 0.233745 -1.479076 0.453115 -0.018233 1.420788
    43 0.963099 -0.000001 0.000000 0.056283 -0.006181 0.656341
    44 0.682895 0.000000 -0.000000 0.051699 -0.023100 0.966916
    45 -8.302121 -2.085682 -14.294825 -1.671632 -0.606678 -1.277197
    46 5.104027 -3.706409 -19.918226 0.008345 0.048533 -3.866102
    47 -0.000001 -0.000000 0.000000 -1.570793 -1.570796 0.000000
    48 3.562498 -0.816636 -0.000028 0.009806 -0.004018 0.021400
    49 4.004024 -0.003177 -0.000071 0.021977 0.004684 0.085524
    50 4.004028 -0.003176 -0.000071 0.022101 0.004692 0.085492
    51 4.003751 -0.003187 0.000000 -0.000001 0.000000 0.000000
    52 5.029972 -0.763043 -0.000584 0.165519 0.064872 0.682733
    53 -3.564587 -3.904585 -2.618397 0.603357 -1.254160 2.101580
    54 5.773743 0.000002 0.000000 -1.188010 0.163262 -1.320256
    55 -0.553989 0.485152 -1.650364 0.414242 1.351996 2.862083
    56 5.773742 -0.000001 -0.000001 0.284479 -0.686679 -1.194730
  time 2
    0 -1.999023 -6.500000 -2.000000 1.570624 -0.000086 0.000086
    1 -8.296720 -1.318219 -14.323505 -2.059783 -0.606694 -1.277266
    2 10.295580 -0.000001 0.000000 1.935044 0.095507 0.566453
    3 4.480468 1.199219 -0.714843 1.700995 -0.064703 1.621977
    4 0.001562 2.336909 3.595416 -1.588245 -0.000196 -0.000244
    5 -0.000000 -0.000000 2.771000 0.000000 0.000000 0.000000
    6 0.015810 5.098120 20.550781 -0.000000 -1.570451 -1.570796
    7 -0.719085 5.300998 3.836287 0.000000 0.000000 2.792527
    8 0.587728 4.545159 4.786211 -1.570796 0.000000 0.000000
    9 0.730970 5.057620 -0.080116 -1.570796 0.000000 0.000000
    10 2.242266 -14.734357 -9.075942 -1.472353 -0.435769 -2.217165
    11 10.295583 0.000001 -0.000000 -2.630172 -0.325233 0.417330
    12 1.149521 0.416495 -1.414117 2.311614 0.381403 0.304901
    13 1.263878 -0.000000 -0.000000 -0.817992 -0.119931 0.240711
    14 1.188944 -0.000000 0.000000 -0.009855 0.001996 0.251367
    15 3.773755 0.133217 -0.970573 0.097014 -0.244099 -0.063288
    16 1.433456 0.000000 0.000001 0.000000 0.000000 0.202862
    17 1.019161 0.000000 0.000000 0.000000 0.000000 0.719251
    18 3.799511 0.014953 -0.039956 -0.044296 -0.215296 0.309279
    19 1.774881 0.000004 0.000001 -0.016130 0.009843 0.606558
    20 1.008846 0.000002 -0.000000 -0.016522 0.009168 0.565196
    21 3.632763 0.059049 0.757495 -0.238474 -0.119428 0.437679
    22 1.500138 -0.000004 -0.000001 -0.068328 0.032773 0.726273
    23 0.905664 -0.000000 -0.000000 -0.068931 0.031486 0.707527
    24 3.323333 0.233746 1.479075 -0.262899 0.125640 0.703036
    25 0.963099 0.000000 -0.000000 -0.095942 0.008840 0.540657
    26 0.682894 0.000001 -0.000002 -0.095942 0.008841 0.540675
    27 2.242266 -14.734357 -9.075942 -2.414735 -0.435694 -2.217076
    28 -0.000000 2.627979 0.988434 -1.570796 0.000000 0.000000
    29 0.012556 5.430864 -2.636567 -1.588245 -0.000196 -0.000244
    30 1.149523 0.416497 1.414116 -1.769998 -0.202447 0.792236
    31 1.263877 -0.000001 -0.000001 -0.034282 0.189584 0.555298
    32 1.188943 0.000000 -0.000000 0.000000 0.000000 0.295212
    33 3.773755 0.133215 0.970572 -0.000422 -0.025468 -0.121346
    34 1.433459 0.000001 0.000000 0.014514 -0.009810 0.847667
    35 1.019161 -0.000001 0.000000 0.014478 -0.008837 0.835823
    36 3.799516 0.014951 0.039957 0.279665 0.171546 1.103439
    37 1.774881 0.000000 -0.000000 0.015535 -0.040082 1.379122
    38 1.008846 0.000001 0.000000 0.033698 -0.026693 0.847881
    39 3.632764 0.059048 -0.757494 0.369431 0.065606 1.386970
    40 1.500137 0.000001 0.000003 0.061148 -0.055642 1.125235
    41 0.905663 -0.000000 -0.000001 0.079350 -0.023148 0.671075
    42 3.323330 0.233745 -1.479076 0.453115 -0.018233 1.420788
    43 0.963099 -0.000001 0.000000 0.056283 -0.006181 0.656341
    44 0.682895 -0.000000 0.000000 0.051699 -0.023100 0.966916
    45 -8.296720 -1.318219 -14.323505 -1.671633 -0.606680 -1.277197
    46 5.104027 -3.706409 -19.918226 0.008345 0.048533 -3.866102
    47 -0.000001 -0.000000 0.000000 -1.570793 -1.570796 0.000000
    48 3.562498 -0.816636 -0.000028 0.009806 -0.004018 0.021400
    49 4.004024 -0.003177 -0.000071 0.021977 0.004684 0.085524
    50 4.004028 -0.003176 -0.000071 0.022101 0.004692 0.085492
    51 4.003751 -0.003187 0.000000 -0.000001 0.000000 0.000000
    52 5.029972 -0.763043 -0.000584 0.165519 0.064872 0.682733
    53 -1.267385 -0.342793 -0.934373 0.329849 -1.129792 2.230319
    54 5.773743 0.000002 0.000000 -1.188010 0.163262 -1.320256
    55 -0.146259 0.683956 -2.270127 0.414242 1.351996 2.862079
    56 5.773742 -0.000001 -0.000001 0.284479 -0.686679 -1.194730
  time 3
    0 -1.999023 -6.500000 -2.000000 1.570624 -0.000086 0.000086
    1 -8.304688 -2.449219 -14.281250 -2.059783 -0.606694 -1.277266
    2 10.295582 0.000000 -0.000000 1.935044 0.095507 0.566453
    3 4.480469 1.199219 -0.714844 1.700995 -0.064703 1.621977
    4 0.002348 2.043436 3.770749 -1.575521 -0.000053 -0.000066
    5 0.000000 0.000000 2.771000 0.000000 0.000000 0.000000
    6 0.015810 5.098120 20.550781 -0.000000 -1.570451 -1.570796
    7 -0.719085 5.300998 3.836287 0.000000 0.000000 2.792527
    8 0.587728 4.545159 4.786211 -1.570796 0.000000 0.000000
    9 0.730970 5.057620 -0.080116 -1.570796 0.000000 0.000000
    10 2.069197 -15.596711 -9.194521 -1.468573 -0.409304 -2.181732
    11 10.295583 0.000001 -0.000000 -2.627644 -0.290729 0.397256
    12 1.149521 0.416497 -1.414117 2.311615 0.381404 0.304903
    13 1.263878 0.000000 0.000000 -0.817992 -0.119931 0.240711
    14 1.188944 0.000000 -0.000000 -0.009855 0.001996 0.251367
    15 3.773753 0.133218 -0.970575 0.097014 -0.244099 -0.063288
    16 1.433456 -0.000000 0.000001 0.000000 0.000000 0.202862
    17 1.019161 -0.000000 -0.000000 0.000000 0.000000 0.719251
    18 3.799511 0.014954 -0.039958 -0.044296 -0.215296 0.309279
    19 1.774879 0.000003 0.000001 -0.016130 0.009843 0.606558
    20 1.008846 0.000002 0.000000 -0.016522 0.009168 0.565196
    21 3.632762 0.059050 0.757495 -0.238474 -0.119428 0.437679
    22 1.500138 -0.000004 -0.000001 -0.068328 0.032773 0.726273
    23 0.905663 -0.000002 -0.000000 -0.068931 0.031486 0.707527
    24 3.323331 0.233745 1.479076 -0.262899 0.125640 0.703036
    25 0.963099 -0.000002 -0.000000 -0.095942 0.008840 0.540657
    26 0.682895 0.000000 -0.000001 -0.095942 0.008841 0.540675
    27 2.069197 -15.596711 -9.194521 -2.410952 -0.409229 -2.181644
    28 -0.000000 2.627979 0.988434 -1.570796 0.000000 0.000000
    29 0.006609 5.710515 -2.435160 -1.575521 -0.000053 -0.000066
    30 1.149523 0.416497 1.414116 -1.769998 -0.202447 0.792236
    31 1.263877 0.000001 0.000000 -0.034282 0.189584 0.555298
    32 1.188943 0.000000 -0.000000 0.000000 0.000000 0.295212
    33 3.773755 0.133215 0.970574 -0.000422 -0.025468 -0.121346
    34 1.433459 0.000001 0.000000 0.014514 -0.009810 0.847667
    35 1.019161 -0.000001 0.000000 0.014478 -0.008837 0.835823
    36 3.799515 0.014952 0.039958 0.279665 0.171546 1.103439
    37 1.774881 0.000000 0.000000 0.015535 -0.040082 1.379122
    38 1.008846 0.000001 0.000000 0.033698 -0.026693 0.847881
    39 3.632765 0.059049 -0.757494 0.369431 0.065606 1.386970
    40 1.500137 0.000001 0.000001 0.061148 -0.055642 1.125235
    41 0.905663 -0.000000 -0.000001 0.079350 -0.023148 0.671075
    42 3.323330 0.233745 -1.479076 0.453115 -0.018233 1.420788
    43 0.963099 -0.000001 -0.000000 0.056283 -0.006181 0.656341
    44 0.682895 0.000000 0.000000 0.051699 -0.023100 0.966916
    45 -8.304688 -2.449219 -14.281250 -1.671633 -0.606680 -1.277197
    46 5.104027 -3.706409 -19.918226 0.008345 0.048533 -3.866102
    47 -0.000001 -0.000000 0.000000 -1.570793 -1.570796 0.000000
    48 3.562498 -0.816636 -0.000028 0.009806 -0.004018 0.021400
    49 4.004024 -0.003177 -0.000071 0.021977 0.004684 0.085524
    50 4.004028 -0.003176 -0.000071 0.022101 0.004692 0.085492
    51 4.003751 -0.003187 0.000000 -0.000001 0.000000 0.000000
    52 5.029972 -0.763043 -0.000584 0.165519 0.064872 0.682733
    53 -1.400524 -0.185822 0.374901 0.267022 -1.092760 2.273195
    54 5.773743 0.000002 0.000000 -1.188010 0.163262 -1.320256
    55 -0.747116 0.391015 -1.356800 0.414242 1.351996 2.862079
    56 5.773742 -0.000001 -0.000001 0.284479 -0.686679 -1.194730
  time 4
    0 -1.999023 -6.500000 -2.000000 1.570624 -0.000086 0.000086
    1 -8.304688 -2.449219 -14.281250 -2.059783 -0.606694 -1.277266
    2 10.295582 0.000000 -0.000000 1.935044 0.095507 0.566453
    3 4.480469 1.199219 -0.714844 1.700995 -0.064703 1.621977
    4 -0.000000 1.830078 4.105469 -1.570796 0.000000 0.000000
    5 0.000000 0.000000 2.771000 0.000000 0.000000 0.000000
    6 0.015810 5.098120 20.550781 -0.000000 -1.570451 -1.570796
    7 -0.719085 5.300998 3.836287 0.000000 0.000000 2.792527
    8 0.587728 4.545159 4.786211 -1.570796 0.000000 0.000000
    9 0.730970 5.057620 -0.080116 -1.570796 0.000000 0.000000
    10 1.519531 -15.289063 -9.445313 -1.473649 -0.392482 -2.120377
    11 10.295583 0.000001 -0.000000 -2.621346 -0.233064 0.376938
    12 1.149521 0.416497 -1.414117 2.311615 0.381404 0.304903
    13 1.263878 0.000000 0.000000 -0.817992 -0.119931 0.240711
    14 1.188944 0.000000 0.000000 -0.009855 0.001996 0.251367
    15 3.773754 0.133216 -0.970574 0.097014 -0.244099 -0.063288
    16 1.433456 -0.000000 0.000001 0.000000 0.000000 0.202862
    17 1.019161 0.000000 0.000000 0.000000 0.000000 0.719251
    18 3.799511 0.014954 -0.039958 -0.044296 -0.215296 0.309279
    19 1.774879 0.000003 0.000001 -0.016130 0.009843 0.606560
    20 1.008846 0.000002 0.000000 -0.016522 0.009168 0.565194
    21 3.632763 0.059050 0.757493 -0.238474 -0.119428 0.437679
    22 1.500139 -0.000002 -0.000001 -0.068328 0.032773 0.726273
    23 0.905663 -0.000002 0.000000 -0.068931 0.031486 0.707527
    24 3.323330 0.233746 1.479075 -0.262899 0.125640 0.703036
    25 0.963099 0.000000 -0.000000 -0.095942 0.008840 0.540657
    26 0.682895 -0.000000 -0.000001 -0.095942 0.008841 0.540675
    27 1.519531 -15.289063 -9.445313 -2.416027 -0.392407 -2.120290
    28 -0.000000 2.627979 0.988434 -1.570796 0.000000 0.000000
    29 0.000000 6.086907 -2.262866 -1.570796 0.000000 0.000000
    30 1.149523 0.416497 1.414116 -1.769998 -0.202447 0.792236
    31 1.263877 0.000001 0.000000 -0.034282 0.189584 0.555298
    32 1.188943 0.000000 -0.000000 0.000000 0.000000 0.295212
    33 3.773755 0.133215 0.970574 -0.000422 -0.025468 -0.121346
    34 1.433459 0.000001 0.000000 0.014514 -0.009810 0.847667
    35 1.019161 -0.000001 0.000000 0.014478 -0.008837 0.835823
    36 3.799515 0.014952 0.039958 0.279665 0.171546 1.103439
    37 1.774881 0.000000 0.000000 0.015535 -0.040082 1.379122
    38 1.008846 0.000001 0.000000 0.033698 -0.026693 0.847881
    39 3.632765 0.059049 -0.757494 0.369431 0.065606 1.386970
    40 1.500137 0.000001 0.000001 0.061148 -0.055642 1.125235
    41 0.905663 -0.000000 -0.000001 0.079350 -0.023148 0.671075
    42 3.323330 0.233745 -1.479076 0.453115 -0.018233 1.420788
    43 0.963099 -0.000001 -0.000000 0.056283 -0.006181 0.656341
    44 0.682895 0.000000 0.000000 0.051699 -0.023100 0.966916
    45 -8.304688 -2.449219 -14.281250 -1.671633 -0.606680 -1.277197
    46 5.104027 -3.706409 -19.918226 0.008345 0.048533 -3.866102
    47 -0.000001 -0.000000 0.000000 -1.570793 -1.570796 0.000000
    48 3.562498 -0.816636 -0.000028 0.009806 -0.004018 0.021400
    49 4.004024 -0.003177 -0.000071 0.021977 0.004684 0.085524
    50 4.004028 -0.003176 -0.000071 0.022101 0.004692 0.085492
    51 4.003751 -0.003187 0.000000 -0.000001 0.000000 0.000000
    52 5.029972 -0.763043 -0.000584 0.165519 0.064872 0.682733
    53 -0.905726 0.793273 1.051288 0.177606 -1.053522 2.301890
    54 5.773743 0.000002 -0.000000 -1.188010 0.163262 -1.320256
    55 -0.747116 0.391015 -1.356800 0.414242 1.351996 2.862079
    56 5.773742 -0.000001 -0.000001 0.284479 -0.686679 -1.194730
end
