// Created by CrowbarDecompiler 0.71
version 1
nodes
  0 "v_weapon" -1
  1 "v_weapon.Bip01_R_Forearm" -1
  2 "v_weapon.Bip01_R_Hand" 1
  3 "v_weapon.M4A1_s_Parent" 2
  4 "v_weapon.M4A1_Clip" 3
  5 "v_weapon.flash" 3
  6 "v_weapon.shelleject" 3
  7 "v_weapon.stattrack" 3
  8 "v_weapon.uid" 3
  9 "v_weapon.M4A1_Silencer" 3
  10 "v_weapon.Bip01_L_Forearm" -1
  11 "v_weapon.Bip01_L_Hand" 10
  12 "v_weapon.Bip01_L_Finger0" 11
  13 "v_weapon.Bip01_L_Finger01" 12
  14 "v_weapon.Bip01_L_Finger02" 13
  15 "v_weapon.Bip01_L_Finger1" 11
  16 "v_weapon.Bip01_L_Finger11" 15
  17 "v_weapon.Bip01_L_Finger12" 16
  18 "v_weapon.Bip01_L_Finger2" 11
  19 "v_weapon.Bip01_L_Finger21" 18
  20 "v_weapon.Bip01_L_Finger22" 19
  21 "v_weapon.Bip01_L_Finger3" 11
  22 "v_weapon.Bip01_L_Finger31" 21
  23 "v_weapon.Bip01_L_Finger32" 22
  24 "v_weapon.Bip01_L_Finger4" 11
  25 "v_weapon.Bip01_L_Finger41" 24
  26 "v_weapon.Bip01_L_Finger42" 25
  27 "v_weapon.Bip01_L_ForeTwist" -1
  28 "v_weapon.M4A1_Trigger" 3
  29 "v_weapon.M4A1_Bolt" 3
  30 "v_weapon.Bip01_R_Finger0" 2
  31 "v_weapon.Bip01_R_Finger01" 30
  32 "v_weapon.Bip01_R_Finger02" 31
  33 "v_weapon.Bip01_R_Finger1" 2
  34 "v_weapon.Bip01_R_Finger11" 33
  35 "v_weapon.Bip01_R_Finger12" 34
  36 "v_weapon.Bip01_R_Finger2" 2
  37 "v_weapon.Bip01_R_Finger21" 36
  38 "v_weapon.Bip01_R_Finger22" 37
  39 "v_weapon.Bip01_R_Finger3" 2
  40 "v_weapon.Bip01_R_Finger31" 39
  41 "v_weapon.Bip01_R_Finger32" 40
  42 "v_weapon.Bip01_R_Finger4" 2
  43 "v_weapon.Bip01_R_Finger41" 42
  44 "v_weapon.Bip01_R_Finger42" 43
  45 "v_weapon.Bip01_R_ForeTwist" -1
  46 "v_weapon.v_weapon" -1
  47 "v_weapon.Bip01" -1
  48 "v_weapon.Bip01_Pelvis" 47
  49 "v_weapon.Bip01_Spine" 48
  50 "v_weapon.Bip01_Spine1" 49
  51 "v_weapon.Bip01_Spine2" 50
  52 "v_weapon.Bip01_Spine3" 51
  53 "v_weapon.Bip01_Neck" 52
  54 "v_weapon.Bip01_L_Clavicle" 53
  55 "v_weapon.Bip01_L_UpperArm" 54
  56 "v_weapon.Bip01_R_Clavicle" 53
  57 "v_weapon.Bip01_R_UpperArm" 56
end
skeleton
  time 0
    0 -1.998047 -6.500000 -2.000000 1.570624 -0.000086 0.000086
    1 -8.304688 -2.449219 -14.281250 -2.059883 -0.606630 -1.277316
    2 10.295580 -0.000001 0.000000 1.935044 0.095507 0.566453
    3 4.482179 1.199705 -0.715071 1.700890 -0.064669 1.622066
    4 0.000000 1.830240 4.107860 -1.570796 0.000000 0.000000
    5 -0.336013 5.244593 23.040905 0.000000 -1.570451 -1.570796
    6 -0.719085 5.300996 3.836283 0.000000 0.000000 2.792527
    7 0.540478 4.961051 0.579782 -1.573536 -0.004979 -0.033852
    8 0.214788 6.100204 0.357018 -1.573845 -0.004797 0.029157
    9 -0.231368 5.196647 23.662256 -1.570796 0.000000 0.000000
    10 1.519531 -15.289063 -9.445313 -1.473772 -0.392515 -2.120354
    11 10.295583 0.000001 0.000000 -2.621346 -0.233064 0.376938
    12 1.149519 0.416497 -1.414117 2.311615 0.381404 0.304903
    13 1.263878 0.000000 0.000000 -0.817992 -0.119931 0.240711
    14 1.188944 0.000000 0.000000 -0.009855 0.001996 0.251367
    15 3.773752 0.133216 -0.970574 0.097014 -0.244099 -0.063288
    16 1.433456 0.000000 0.000001 0.000000 0.000000 0.202862
    17 1.019161 0.000000 0.000000 0.000000 0.000000 0.719251
    18 3.799511 0.014954 -0.039958 -0.044296 -0.215296 0.309279
    19 1.774881 0.000004 0.000001 -0.016130 0.009843 0.606560
    20 1.008846 0.000002 0.000000 -0.016522 0.009168 0.565194
    21 3.632761 0.059050 0.757493 -0.238474 -0.119428 0.437679
    22 1.500138 -0.000002 -0.000001 -0.068328 0.032773 0.726273
    23 0.905663 0.000000 0.000001 -0.068931 0.031486 0.707527
    24 3.323328 0.233746 1.479075 -0.262899 0.125640 0.703036
    25 0.963099 0.000000 0.000000 -0.095942 0.008840 0.540657
    26 0.682895 0.000000 0.000000 -0.095942 0.008841 0.540675
    27 1.519531 -15.289063 -9.445313 -2.416082 -0.392362 -2.120159
    28 0.000000 2.627978 0.988427 -1.570796 0.000000 0.000000
    29 0.000000 6.086905 -2.262868 -1.570796 0.000000 0.000000
    30 1.149523 0.416497 1.414115 -1.769998 -0.202447 0.792236
    31 1.263876 0.000001 0.000000 -0.034282 0.189584 0.555298
    32 1.188942 0.000000 0.000000 0.000000 0.000000 0.295212
    33 3.773754 0.133215 0.970573 -0.000422 -0.025468 -0.121346
    34 1.433458 0.000000 0.000000 0.014514 -0.009810 0.847667
    35 1.019161 0.000000 -0.000001 0.014478 -0.008837 0.835823
    36 3.799514 0.014952 0.039957 0.279665 0.171546 1.103439
    37 1.774881 -0.000001 0.000000 0.015535 -0.040082 1.379122
    38 1.008846 0.000001 0.000000 0.033698 -0.026693 0.847881
    39 3.632764 0.059049 -0.757494 0.369431 0.065606 1.386970
    40 1.500137 0.000001 0.000001 0.061148 -0.055642 1.125235
    41 0.905663 0.000000 0.000000 0.079350 -0.023148 0.671075
    42 3.323329 0.233745 -1.479076 0.453115 -0.018233 1.420788
    43 0.963099 -0.000001 -0.000001 0.056283 -0.006181 0.656341
    44 0.682895 0.000000 0.000000 0.051699 -0.023100 0.966916
    45 -8.304688 -2.449219 -14.281250 -1.671655 -0.606612 -1.277132
    46 0.000000 0.000000 0.000000 1.570796 0.000000 -1.570796
    47 5.104027 -3.706409 -19.918226 0.008345 0.048533 -3.866102
    48 -0.000001 0.000000 0.000000 0.000000 -1.570796 -1.570793
    49 3.562498 -0.816636 -0.000028 0.009806 -0.004018 0.021400
    50 4.004025 -0.003178 -0.000071 0.021977 0.004684 0.085524
    51 4.004029 -0.003176 -0.000071 0.022101 0.004692 0.085492
    52 4.003753 -0.003188 0.000000 -0.000001 0.000000 0.000000
    53 5.029974 -0.763043 -0.000584 0.165519 0.064873 0.682733
    54 -0.905726 0.793273 1.051288 0.177607 -1.053522 2.301890
    55 5.773743 0.000002 -0.000001 -1.188010 0.163263 -1.320256
    56 -0.747116 0.391016 -1.356800 0.414242 1.351996 2.862078
    57 5.773743 -0.000002 0.000000 0.284479 -0.686680 -1.194729
  time 1
    0 -1.998047 -6.500000 -2.000000 1.570624 -0.000086 0.000086
    1 -8.304688 -2.449219 -14.281250 -2.059883 -0.606630 -1.277316
    2 10.295580 -0.000001 0.000000 1.935044 0.095507 0.566453
    3 4.482179 1.199705 -0.715071 1.700890 -0.064669 1.622066
    4 0.000000 1.830240 4.107860 -1.570796 0.000000 0.000000
    5 -0.336013 5.244593 23.040905 0.000000 -1.570451 -1.570796
    6 -0.719085 5.300996 3.836283 0.000000 0.000000 2.792527
    7 0.540478 4.961051 0.579782 -1.573536 -0.004979 -0.033852
    8 0.214788 6.100204 0.357018 -1.573845 -0.004797 0.029157
    9 -0.231368 5.196647 23.662256 -1.570796 0.000000 0.000000
    10 1.519531 -15.289063 -9.445313 -1.473772 -0.392515 -2.120354
    11 10.295583 0.000001 0.000000 -2.621346 -0.233064 0.376938
    12 1.149519 0.416497 -1.414117 2.311615 0.381404 0.304903
    13 1.263878 0.000000 0.000000 -0.817992 -0.119931 0.240711
    14 1.188944 0.000000 0.000000 -0.009855 0.001996 0.251367
    15 3.773752 0.133216 -0.970574 0.097014 -0.244099 -0.063288
    16 1.433456 0.000000 0.000001 0.000000 0.000000 0.202862
    17 1.019161 0.000000 0.000000 0.000000 0.000000 0.719251
    18 3.799511 0.014954 -0.039958 -0.044296 -0.215296 0.309279
    19 1.774881 0.000004 0.000001 -0.016130 0.009843 0.606560
    20 1.008846 0.000002 0.000000 -0.016522 0.009168 0.565194
    21 3.632761 0.059050 0.757493 -0.238474 -0.119428 0.437679
    22 1.500138 -0.000002 -0.000001 -0.068328 0.032773 0.726273
    23 0.905663 0.000000 0.000001 -0.068931 0.031486 0.707527
    24 3.323328 0.233746 1.479075 -0.262899 0.125640 0.703036
    25 0.963099 0.000000 0.000000 -0.095942 0.008840 0.540657
    26 0.682895 0.000000 0.000000 -0.095942 0.008841 0.540675
    27 1.519531 -15.289063 -9.445313 -2.416082 -0.392362 -2.120159
    28 0.000000 2.627978 0.988427 -1.570796 0.000000 0.000000
    29 0.000000 6.086905 -2.262868 -1.570796 0.000000 0.000000
    30 1.149523 0.416497 1.414115 -1.769998 -0.202447 0.792236
    31 1.263876 0.000001 0.000000 -0.034282 0.189584 0.555298
    32 1.188942 0.000000 0.000000 0.000000 0.000000 0.295212
    33 3.773754 0.133215 0.970573 -0.000422 -0.025468 -0.121346
    34 1.433458 0.000000 0.000000 0.014514 -0.009810 0.847667
    35 1.019161 0.000000 -0.000001 0.014478 -0.008837 0.835823
    36 3.799514 0.014952 0.039957 0.279665 0.171546 1.103439
    37 1.774881 -0.000001 0.000000 0.015535 -0.040082 1.379122
    38 1.008846 0.000001 0.000000 0.033698 -0.026693 0.847881
    39 3.632764 0.059049 -0.757494 0.369431 0.065606 1.386970
    40 1.500137 0.000001 0.000001 0.061148 -0.055642 1.125235
    41 0.905663 0.000000 0.000000 0.079350 -0.023148 0.671075
    42 3.323329 0.233745 -1.479076 0.453115 -0.018233 1.420788
    43 0.963099 -0.000001 -0.000001 0.056283 -0.006181 0.656341
    44 0.682895 0.000000 0.000000 0.051699 -0.023100 0.966916
    45 -8.304688 -2.449219 -14.281250 -1.671655 -0.606612 -1.277132
    46 0.000000 0.000000 0.000000 1.570796 0.000000 -1.570796
    47 5.104027 -3.706409 -19.918226 0.008345 0.048533 -3.866102
    48 -0.000001 0.000000 0.000000 0.000000 -1.570796 -1.570793
    49 3.562498 -0.816636 -0.000028 0.009806 -0.004018 0.021400
    50 4.004025 -0.003178 -0.000071 0.021977 0.004684 0.085524
    51 4.004029 -0.003176 -0.000071 0.022101 0.004692 0.085492
    52 4.003753 -0.003188 0.000000 -0.000001 0.000000 0.000000
    53 5.029974 -0.763043 -0.000584 0.165519 0.064873 0.682733
    54 -0.905726 0.793273 1.051288 0.177607 -1.053522 2.301890
    55 5.773743 0.000002 -0.000001 -1.188010 0.163263 -1.320256
    56 -0.747116 0.391016 -1.356800 0.414242 1.351996 2.862078
    57 5.773743 -0.000002 0.000000 0.284479 -0.686680 -1.194729
end
